G04 #@! TF.GenerationSoftware,KiCad,Pcbnew,5.1.7-1.fc31*
G04 #@! TF.CreationDate,2021-04-18T23:13:41-04:00*
G04 #@! TF.ProjectId,offsetAttenuverterface,6f666673-6574-4417-9474-656e75766572,rev?*
G04 #@! TF.SameCoordinates,Original*
G04 #@! TF.FileFunction,Legend,Top*
G04 #@! TF.FilePolarity,Positive*
%FSLAX46Y46*%
G04 Gerber Fmt 4.6, Leading zero omitted, Abs format (unit mm)*
G04 Created by KiCad (PCBNEW 5.1.7-1.fc31) date 2021-04-18 23:13:41*
%MOMM*%
%LPD*%
G01*
G04 APERTURE LIST*
%ADD10C,0.300000*%
%ADD11C,0.250000*%
%ADD12C,0.150000*%
G04 APERTURE END LIST*
D10*
X39140000Y-137164071D02*
X39425714Y-137164071D01*
X39568571Y-137235500D01*
X39711428Y-137378357D01*
X39782857Y-137664071D01*
X39782857Y-138164071D01*
X39711428Y-138449785D01*
X39568571Y-138592642D01*
X39425714Y-138664071D01*
X39140000Y-138664071D01*
X38997142Y-138592642D01*
X38854285Y-138449785D01*
X38782857Y-138164071D01*
X38782857Y-137664071D01*
X38854285Y-137378357D01*
X38997142Y-137235500D01*
X39140000Y-137164071D01*
X40425714Y-137164071D02*
X40425714Y-138378357D01*
X40497142Y-138521214D01*
X40568571Y-138592642D01*
X40711428Y-138664071D01*
X40997142Y-138664071D01*
X41140000Y-138592642D01*
X41211428Y-138521214D01*
X41282857Y-138378357D01*
X41282857Y-137164071D01*
X41782857Y-137164071D02*
X42640000Y-137164071D01*
X42211428Y-138664071D02*
X42211428Y-137164071D01*
X29503785Y-138473571D02*
X29503785Y-136973571D01*
X30218071Y-138473571D02*
X30218071Y-136973571D01*
X31075214Y-138473571D01*
X31075214Y-136973571D01*
X39076500Y-82236571D02*
X39362214Y-82236571D01*
X39505071Y-82308000D01*
X39647928Y-82450857D01*
X39719357Y-82736571D01*
X39719357Y-83236571D01*
X39647928Y-83522285D01*
X39505071Y-83665142D01*
X39362214Y-83736571D01*
X39076500Y-83736571D01*
X38933642Y-83665142D01*
X38790785Y-83522285D01*
X38719357Y-83236571D01*
X38719357Y-82736571D01*
X38790785Y-82450857D01*
X38933642Y-82308000D01*
X39076500Y-82236571D01*
X40362214Y-82236571D02*
X40362214Y-83450857D01*
X40433642Y-83593714D01*
X40505071Y-83665142D01*
X40647928Y-83736571D01*
X40933642Y-83736571D01*
X41076500Y-83665142D01*
X41147928Y-83593714D01*
X41219357Y-83450857D01*
X41219357Y-82236571D01*
X41719357Y-82236571D02*
X42576500Y-82236571D01*
X42147928Y-83736571D02*
X42147928Y-82236571D01*
X29884785Y-83736571D02*
X29884785Y-82236571D01*
X30599071Y-83736571D02*
X30599071Y-82236571D01*
X31456214Y-83736571D01*
X31456214Y-82236571D01*
D11*
X25741380Y-128531714D02*
X25741380Y-128341238D01*
X25789000Y-128246000D01*
X25884238Y-128150761D01*
X26074714Y-128103142D01*
X26408047Y-128103142D01*
X26598523Y-128150761D01*
X26693761Y-128246000D01*
X26741380Y-128341238D01*
X26741380Y-128531714D01*
X26693761Y-128626952D01*
X26598523Y-128722190D01*
X26408047Y-128769809D01*
X26074714Y-128769809D01*
X25884238Y-128722190D01*
X25789000Y-128626952D01*
X25741380Y-128531714D01*
X26074714Y-127817428D02*
X26074714Y-127436476D01*
X26741380Y-127674571D02*
X25884238Y-127674571D01*
X25789000Y-127626952D01*
X25741380Y-127531714D01*
X25741380Y-127436476D01*
X26074714Y-127246000D02*
X26074714Y-126865047D01*
X26741380Y-127103142D02*
X25884238Y-127103142D01*
X25789000Y-127055523D01*
X25741380Y-126960285D01*
X25741380Y-126865047D01*
X26693761Y-126579333D02*
X26741380Y-126484095D01*
X26741380Y-126293619D01*
X26693761Y-126198380D01*
X26598523Y-126150761D01*
X26550904Y-126150761D01*
X26455666Y-126198380D01*
X26408047Y-126293619D01*
X26408047Y-126436476D01*
X26360428Y-126531714D01*
X26265190Y-126579333D01*
X26217571Y-126579333D01*
X26122333Y-126531714D01*
X26074714Y-126436476D01*
X26074714Y-126293619D01*
X26122333Y-126198380D01*
X26693761Y-125341238D02*
X26741380Y-125436476D01*
X26741380Y-125626952D01*
X26693761Y-125722190D01*
X26598523Y-125769809D01*
X26217571Y-125769809D01*
X26122333Y-125722190D01*
X26074714Y-125626952D01*
X26074714Y-125436476D01*
X26122333Y-125341238D01*
X26217571Y-125293619D01*
X26312809Y-125293619D01*
X26408047Y-125769809D01*
X26074714Y-125007904D02*
X26074714Y-124626952D01*
X25741380Y-124865047D02*
X26598523Y-124865047D01*
X26693761Y-124817428D01*
X26741380Y-124722190D01*
X26741380Y-124626952D01*
X26122380Y-75445714D02*
X26122380Y-75255238D01*
X26170000Y-75160000D01*
X26265238Y-75064761D01*
X26455714Y-75017142D01*
X26789047Y-75017142D01*
X26979523Y-75064761D01*
X27074761Y-75160000D01*
X27122380Y-75255238D01*
X27122380Y-75445714D01*
X27074761Y-75540952D01*
X26979523Y-75636190D01*
X26789047Y-75683809D01*
X26455714Y-75683809D01*
X26265238Y-75636190D01*
X26170000Y-75540952D01*
X26122380Y-75445714D01*
X26455714Y-74731428D02*
X26455714Y-74350476D01*
X27122380Y-74588571D02*
X26265238Y-74588571D01*
X26170000Y-74540952D01*
X26122380Y-74445714D01*
X26122380Y-74350476D01*
X26455714Y-74160000D02*
X26455714Y-73779047D01*
X27122380Y-74017142D02*
X26265238Y-74017142D01*
X26170000Y-73969523D01*
X26122380Y-73874285D01*
X26122380Y-73779047D01*
X27074761Y-73493333D02*
X27122380Y-73398095D01*
X27122380Y-73207619D01*
X27074761Y-73112380D01*
X26979523Y-73064761D01*
X26931904Y-73064761D01*
X26836666Y-73112380D01*
X26789047Y-73207619D01*
X26789047Y-73350476D01*
X26741428Y-73445714D01*
X26646190Y-73493333D01*
X26598571Y-73493333D01*
X26503333Y-73445714D01*
X26455714Y-73350476D01*
X26455714Y-73207619D01*
X26503333Y-73112380D01*
X27074761Y-72255238D02*
X27122380Y-72350476D01*
X27122380Y-72540952D01*
X27074761Y-72636190D01*
X26979523Y-72683809D01*
X26598571Y-72683809D01*
X26503333Y-72636190D01*
X26455714Y-72540952D01*
X26455714Y-72350476D01*
X26503333Y-72255238D01*
X26598571Y-72207619D01*
X26693809Y-72207619D01*
X26789047Y-72683809D01*
X26455714Y-71921904D02*
X26455714Y-71540952D01*
X26122380Y-71779047D02*
X26979523Y-71779047D01*
X27074761Y-71731428D01*
X27122380Y-71636190D01*
X27122380Y-71540952D01*
X26582666Y-112577119D02*
X26582666Y-112100928D01*
X26868380Y-112672357D02*
X25868380Y-112339023D01*
X26868380Y-112005690D01*
X26201714Y-111815214D02*
X26201714Y-111434261D01*
X25868380Y-111672357D02*
X26725523Y-111672357D01*
X26820761Y-111624738D01*
X26868380Y-111529500D01*
X26868380Y-111434261D01*
X26201714Y-111243785D02*
X26201714Y-110862833D01*
X25868380Y-111100928D02*
X26725523Y-111100928D01*
X26820761Y-111053309D01*
X26868380Y-110958071D01*
X26868380Y-110862833D01*
X26820761Y-110148547D02*
X26868380Y-110243785D01*
X26868380Y-110434261D01*
X26820761Y-110529500D01*
X26725523Y-110577119D01*
X26344571Y-110577119D01*
X26249333Y-110529500D01*
X26201714Y-110434261D01*
X26201714Y-110243785D01*
X26249333Y-110148547D01*
X26344571Y-110100928D01*
X26439809Y-110100928D01*
X26535047Y-110577119D01*
X26201714Y-109672357D02*
X26868380Y-109672357D01*
X26296952Y-109672357D02*
X26249333Y-109624738D01*
X26201714Y-109529500D01*
X26201714Y-109386642D01*
X26249333Y-109291404D01*
X26344571Y-109243785D01*
X26868380Y-109243785D01*
X26201714Y-108339023D02*
X26868380Y-108339023D01*
X26201714Y-108767595D02*
X26725523Y-108767595D01*
X26820761Y-108719976D01*
X26868380Y-108624738D01*
X26868380Y-108481880D01*
X26820761Y-108386642D01*
X26773142Y-108339023D01*
X26201714Y-107958071D02*
X26868380Y-107719976D01*
X26201714Y-107481880D01*
X26820761Y-106719976D02*
X26868380Y-106815214D01*
X26868380Y-107005690D01*
X26820761Y-107100928D01*
X26725523Y-107148547D01*
X26344571Y-107148547D01*
X26249333Y-107100928D01*
X26201714Y-107005690D01*
X26201714Y-106815214D01*
X26249333Y-106719976D01*
X26344571Y-106672357D01*
X26439809Y-106672357D01*
X26535047Y-107148547D01*
X26868380Y-106243785D02*
X26201714Y-106243785D01*
X26392190Y-106243785D02*
X26296952Y-106196166D01*
X26249333Y-106148547D01*
X26201714Y-106053309D01*
X26201714Y-105958071D01*
X26201714Y-105767595D02*
X26201714Y-105386642D01*
X25868380Y-105624738D02*
X26725523Y-105624738D01*
X26820761Y-105577119D01*
X26868380Y-105481880D01*
X26868380Y-105386642D01*
X27027166Y-58919619D02*
X27027166Y-58443428D01*
X27312880Y-59014857D02*
X26312880Y-58681523D01*
X27312880Y-58348190D01*
X26646214Y-58157714D02*
X26646214Y-57776761D01*
X26312880Y-58014857D02*
X27170023Y-58014857D01*
X27265261Y-57967238D01*
X27312880Y-57872000D01*
X27312880Y-57776761D01*
X26646214Y-57586285D02*
X26646214Y-57205333D01*
X26312880Y-57443428D02*
X27170023Y-57443428D01*
X27265261Y-57395809D01*
X27312880Y-57300571D01*
X27312880Y-57205333D01*
X27265261Y-56491047D02*
X27312880Y-56586285D01*
X27312880Y-56776761D01*
X27265261Y-56872000D01*
X27170023Y-56919619D01*
X26789071Y-56919619D01*
X26693833Y-56872000D01*
X26646214Y-56776761D01*
X26646214Y-56586285D01*
X26693833Y-56491047D01*
X26789071Y-56443428D01*
X26884309Y-56443428D01*
X26979547Y-56919619D01*
X26646214Y-56014857D02*
X27312880Y-56014857D01*
X26741452Y-56014857D02*
X26693833Y-55967238D01*
X26646214Y-55872000D01*
X26646214Y-55729142D01*
X26693833Y-55633904D01*
X26789071Y-55586285D01*
X27312880Y-55586285D01*
X26646214Y-54681523D02*
X27312880Y-54681523D01*
X26646214Y-55110095D02*
X27170023Y-55110095D01*
X27265261Y-55062476D01*
X27312880Y-54967238D01*
X27312880Y-54824380D01*
X27265261Y-54729142D01*
X27217642Y-54681523D01*
X26646214Y-54300571D02*
X27312880Y-54062476D01*
X26646214Y-53824380D01*
X27265261Y-53062476D02*
X27312880Y-53157714D01*
X27312880Y-53348190D01*
X27265261Y-53443428D01*
X27170023Y-53491047D01*
X26789071Y-53491047D01*
X26693833Y-53443428D01*
X26646214Y-53348190D01*
X26646214Y-53157714D01*
X26693833Y-53062476D01*
X26789071Y-53014857D01*
X26884309Y-53014857D01*
X26979547Y-53491047D01*
X27312880Y-52586285D02*
X26646214Y-52586285D01*
X26836690Y-52586285D02*
X26741452Y-52538666D01*
X26693833Y-52491047D01*
X26646214Y-52395809D01*
X26646214Y-52300571D01*
X26646214Y-52110095D02*
X26646214Y-51729142D01*
X26312880Y-51967238D02*
X27170023Y-51967238D01*
X27265261Y-51919619D01*
X27312880Y-51824380D01*
X27312880Y-51729142D01*
X34679523Y-37758666D02*
X35155714Y-37758666D01*
X34584285Y-38044380D02*
X34917619Y-37044380D01*
X35250952Y-38044380D01*
X35441428Y-37377714D02*
X35822380Y-37377714D01*
X35584285Y-37044380D02*
X35584285Y-37901523D01*
X35631904Y-37996761D01*
X35727142Y-38044380D01*
X35822380Y-38044380D01*
X36012857Y-37377714D02*
X36393809Y-37377714D01*
X36155714Y-37044380D02*
X36155714Y-37901523D01*
X36203333Y-37996761D01*
X36298571Y-38044380D01*
X36393809Y-38044380D01*
X37108095Y-37996761D02*
X37012857Y-38044380D01*
X36822380Y-38044380D01*
X36727142Y-37996761D01*
X36679523Y-37901523D01*
X36679523Y-37520571D01*
X36727142Y-37425333D01*
X36822380Y-37377714D01*
X37012857Y-37377714D01*
X37108095Y-37425333D01*
X37155714Y-37520571D01*
X37155714Y-37615809D01*
X36679523Y-37711047D01*
X37584285Y-37377714D02*
X37584285Y-38044380D01*
X37584285Y-37472952D02*
X37631904Y-37425333D01*
X37727142Y-37377714D01*
X37870000Y-37377714D01*
X37965238Y-37425333D01*
X38012857Y-37520571D01*
X38012857Y-38044380D01*
X38917619Y-37377714D02*
X38917619Y-38044380D01*
X38489047Y-37377714D02*
X38489047Y-37901523D01*
X38536666Y-37996761D01*
X38631904Y-38044380D01*
X38774761Y-38044380D01*
X38870000Y-37996761D01*
X38917619Y-37949142D01*
X39298571Y-37377714D02*
X39536666Y-38044380D01*
X39774761Y-37377714D01*
X40536666Y-37996761D02*
X40441428Y-38044380D01*
X40250952Y-38044380D01*
X40155714Y-37996761D01*
X40108095Y-37901523D01*
X40108095Y-37520571D01*
X40155714Y-37425333D01*
X40250952Y-37377714D01*
X40441428Y-37377714D01*
X40536666Y-37425333D01*
X40584285Y-37520571D01*
X40584285Y-37615809D01*
X40108095Y-37711047D01*
X41012857Y-38044380D02*
X41012857Y-37377714D01*
X41012857Y-37568190D02*
X41060476Y-37472952D01*
X41108095Y-37425333D01*
X41203333Y-37377714D01*
X41298571Y-37377714D01*
X41489047Y-37377714D02*
X41870000Y-37377714D01*
X41631904Y-37044380D02*
X41631904Y-37901523D01*
X41679523Y-37996761D01*
X41774761Y-38044380D01*
X41870000Y-38044380D01*
X42584285Y-37996761D02*
X42489047Y-38044380D01*
X42298571Y-38044380D01*
X42203333Y-37996761D01*
X42155714Y-37901523D01*
X42155714Y-37520571D01*
X42203333Y-37425333D01*
X42298571Y-37377714D01*
X42489047Y-37377714D01*
X42584285Y-37425333D01*
X42631904Y-37520571D01*
X42631904Y-37615809D01*
X42155714Y-37711047D01*
X43060476Y-38044380D02*
X43060476Y-37377714D01*
X43060476Y-37568190D02*
X43108095Y-37472952D01*
X43155714Y-37425333D01*
X43250952Y-37377714D01*
X43346190Y-37377714D01*
X43631904Y-37996761D02*
X43727142Y-38044380D01*
X43917619Y-38044380D01*
X44012857Y-37996761D01*
X44060476Y-37901523D01*
X44060476Y-37853904D01*
X44012857Y-37758666D01*
X43917619Y-37711047D01*
X43774761Y-37711047D01*
X43679523Y-37663428D01*
X43631904Y-37568190D01*
X43631904Y-37520571D01*
X43679523Y-37425333D01*
X43774761Y-37377714D01*
X43917619Y-37377714D01*
X44012857Y-37425333D01*
X35711214Y-35329880D02*
X35901690Y-35329880D01*
X35996928Y-35377500D01*
X36092166Y-35472738D01*
X36139785Y-35663214D01*
X36139785Y-35996547D01*
X36092166Y-36187023D01*
X35996928Y-36282261D01*
X35901690Y-36329880D01*
X35711214Y-36329880D01*
X35615976Y-36282261D01*
X35520738Y-36187023D01*
X35473119Y-35996547D01*
X35473119Y-35663214D01*
X35520738Y-35472738D01*
X35615976Y-35377500D01*
X35711214Y-35329880D01*
X36425500Y-35663214D02*
X36806452Y-35663214D01*
X36568357Y-36329880D02*
X36568357Y-35472738D01*
X36615976Y-35377500D01*
X36711214Y-35329880D01*
X36806452Y-35329880D01*
X36996928Y-35663214D02*
X37377880Y-35663214D01*
X37139785Y-36329880D02*
X37139785Y-35472738D01*
X37187404Y-35377500D01*
X37282642Y-35329880D01*
X37377880Y-35329880D01*
X37663595Y-36282261D02*
X37758833Y-36329880D01*
X37949309Y-36329880D01*
X38044547Y-36282261D01*
X38092166Y-36187023D01*
X38092166Y-36139404D01*
X38044547Y-36044166D01*
X37949309Y-35996547D01*
X37806452Y-35996547D01*
X37711214Y-35948928D01*
X37663595Y-35853690D01*
X37663595Y-35806071D01*
X37711214Y-35710833D01*
X37806452Y-35663214D01*
X37949309Y-35663214D01*
X38044547Y-35710833D01*
X38901690Y-36282261D02*
X38806452Y-36329880D01*
X38615976Y-36329880D01*
X38520738Y-36282261D01*
X38473119Y-36187023D01*
X38473119Y-35806071D01*
X38520738Y-35710833D01*
X38615976Y-35663214D01*
X38806452Y-35663214D01*
X38901690Y-35710833D01*
X38949309Y-35806071D01*
X38949309Y-35901309D01*
X38473119Y-35996547D01*
X39235023Y-35663214D02*
X39615976Y-35663214D01*
X39377880Y-35329880D02*
X39377880Y-36187023D01*
X39425500Y-36282261D01*
X39520738Y-36329880D01*
X39615976Y-36329880D01*
X39806452Y-35663214D02*
X40187404Y-35663214D01*
X39949309Y-35329880D02*
X39949309Y-36187023D01*
X39996928Y-36282261D01*
X40092166Y-36329880D01*
X40187404Y-36329880D01*
X40520738Y-36329880D02*
X40520738Y-35663214D01*
X40520738Y-35329880D02*
X40473119Y-35377500D01*
X40520738Y-35425119D01*
X40568357Y-35377500D01*
X40520738Y-35329880D01*
X40520738Y-35425119D01*
X40996928Y-35663214D02*
X40996928Y-36329880D01*
X40996928Y-35758452D02*
X41044547Y-35710833D01*
X41139785Y-35663214D01*
X41282642Y-35663214D01*
X41377880Y-35710833D01*
X41425500Y-35806071D01*
X41425500Y-36329880D01*
X42330261Y-35663214D02*
X42330261Y-36472738D01*
X42282642Y-36567976D01*
X42235023Y-36615595D01*
X42139785Y-36663214D01*
X41996928Y-36663214D01*
X41901690Y-36615595D01*
X42330261Y-36282261D02*
X42235023Y-36329880D01*
X42044547Y-36329880D01*
X41949309Y-36282261D01*
X41901690Y-36234642D01*
X41854071Y-36139404D01*
X41854071Y-35853690D01*
X41901690Y-35758452D01*
X41949309Y-35710833D01*
X42044547Y-35663214D01*
X42235023Y-35663214D01*
X42330261Y-35710833D01*
X32893714Y-159202500D02*
X32798476Y-159154880D01*
X32655619Y-159154880D01*
X32512761Y-159202500D01*
X32417523Y-159297738D01*
X32369904Y-159392976D01*
X32322285Y-159583452D01*
X32322285Y-159726309D01*
X32369904Y-159916785D01*
X32417523Y-160012023D01*
X32512761Y-160107261D01*
X32655619Y-160154880D01*
X32750857Y-160154880D01*
X32893714Y-160107261D01*
X32941333Y-160059642D01*
X32941333Y-159726309D01*
X32750857Y-159726309D01*
X33369904Y-160154880D02*
X33369904Y-159488214D01*
X33369904Y-159678690D02*
X33417523Y-159583452D01*
X33465142Y-159535833D01*
X33560380Y-159488214D01*
X33655619Y-159488214D01*
X34417523Y-160154880D02*
X34417523Y-159631071D01*
X34369904Y-159535833D01*
X34274666Y-159488214D01*
X34084190Y-159488214D01*
X33988952Y-159535833D01*
X34417523Y-160107261D02*
X34322285Y-160154880D01*
X34084190Y-160154880D01*
X33988952Y-160107261D01*
X33941333Y-160012023D01*
X33941333Y-159916785D01*
X33988952Y-159821547D01*
X34084190Y-159773928D01*
X34322285Y-159773928D01*
X34417523Y-159726309D01*
X34798476Y-159488214D02*
X35036571Y-160154880D01*
X35274666Y-159488214D02*
X35036571Y-160154880D01*
X34941333Y-160392976D01*
X34893714Y-160440595D01*
X34798476Y-160488214D01*
X36417523Y-160154880D02*
X36417523Y-159154880D01*
X36988952Y-160154880D01*
X36988952Y-159154880D01*
X37608000Y-160154880D02*
X37512761Y-160107261D01*
X37465142Y-160059642D01*
X37417523Y-159964404D01*
X37417523Y-159678690D01*
X37465142Y-159583452D01*
X37512761Y-159535833D01*
X37608000Y-159488214D01*
X37750857Y-159488214D01*
X37846095Y-159535833D01*
X37893714Y-159583452D01*
X37941333Y-159678690D01*
X37941333Y-159964404D01*
X37893714Y-160059642D01*
X37846095Y-160107261D01*
X37750857Y-160154880D01*
X37608000Y-160154880D01*
X38369904Y-160154880D02*
X38369904Y-159488214D01*
X38369904Y-159154880D02*
X38322285Y-159202500D01*
X38369904Y-159250119D01*
X38417523Y-159202500D01*
X38369904Y-159154880D01*
X38369904Y-159250119D01*
X38798476Y-160107261D02*
X38893714Y-160154880D01*
X39084190Y-160154880D01*
X39179428Y-160107261D01*
X39227047Y-160012023D01*
X39227047Y-159964404D01*
X39179428Y-159869166D01*
X39084190Y-159821547D01*
X38941333Y-159821547D01*
X38846095Y-159773928D01*
X38798476Y-159678690D01*
X38798476Y-159631071D01*
X38846095Y-159535833D01*
X38941333Y-159488214D01*
X39084190Y-159488214D01*
X39179428Y-159535833D01*
X40036571Y-160107261D02*
X39941333Y-160154880D01*
X39750857Y-160154880D01*
X39655619Y-160107261D01*
X39608000Y-160012023D01*
X39608000Y-159631071D01*
X39655619Y-159535833D01*
X39750857Y-159488214D01*
X39941333Y-159488214D01*
X40036571Y-159535833D01*
X40084190Y-159631071D01*
X40084190Y-159726309D01*
X39608000Y-159821547D01*
X41227047Y-159869166D02*
X41703238Y-159869166D01*
X41131809Y-160154880D02*
X41465142Y-159154880D01*
X41798476Y-160154880D01*
X42560380Y-159488214D02*
X42560380Y-160154880D01*
X42131809Y-159488214D02*
X42131809Y-160012023D01*
X42179428Y-160107261D01*
X42274666Y-160154880D01*
X42417523Y-160154880D01*
X42512761Y-160107261D01*
X42560380Y-160059642D01*
X43465142Y-160154880D02*
X43465142Y-159154880D01*
X43465142Y-160107261D02*
X43369904Y-160154880D01*
X43179428Y-160154880D01*
X43084190Y-160107261D01*
X43036571Y-160059642D01*
X42988952Y-159964404D01*
X42988952Y-159678690D01*
X43036571Y-159583452D01*
X43084190Y-159535833D01*
X43179428Y-159488214D01*
X43369904Y-159488214D01*
X43465142Y-159535833D01*
X43941333Y-160154880D02*
X43941333Y-159488214D01*
X43941333Y-159154880D02*
X43893714Y-159202500D01*
X43941333Y-159250119D01*
X43988952Y-159202500D01*
X43941333Y-159154880D01*
X43941333Y-159250119D01*
X44560380Y-160154880D02*
X44465142Y-160107261D01*
X44417523Y-160059642D01*
X44369904Y-159964404D01*
X44369904Y-159678690D01*
X44417523Y-159583452D01*
X44465142Y-159535833D01*
X44560380Y-159488214D01*
X44703238Y-159488214D01*
X44798476Y-159535833D01*
X44846095Y-159583452D01*
X44893714Y-159678690D01*
X44893714Y-159964404D01*
X44846095Y-160059642D01*
X44798476Y-160107261D01*
X44703238Y-160154880D01*
X44560380Y-160154880D01*
G04 #@! TO.C,REF\u002A\u002A*
D12*
X48260166Y-51506380D02*
X47926833Y-51030190D01*
X47688738Y-51506380D02*
X47688738Y-50506380D01*
X48069690Y-50506380D01*
X48164928Y-50554000D01*
X48212547Y-50601619D01*
X48260166Y-50696857D01*
X48260166Y-50839714D01*
X48212547Y-50934952D01*
X48164928Y-50982571D01*
X48069690Y-51030190D01*
X47688738Y-51030190D01*
X48688738Y-50982571D02*
X49022071Y-50982571D01*
X49164928Y-51506380D02*
X48688738Y-51506380D01*
X48688738Y-50506380D01*
X49164928Y-50506380D01*
X49926833Y-50982571D02*
X49593500Y-50982571D01*
X49593500Y-51506380D02*
X49593500Y-50506380D01*
X50069690Y-50506380D01*
X50593500Y-50506380D02*
X50593500Y-50744476D01*
X50355404Y-50649238D02*
X50593500Y-50744476D01*
X50831595Y-50649238D01*
X50450642Y-50934952D02*
X50593500Y-50744476D01*
X50736357Y-50934952D01*
X51355404Y-50506380D02*
X51355404Y-50744476D01*
X51117309Y-50649238D02*
X51355404Y-50744476D01*
X51593500Y-50649238D01*
X51212547Y-50934952D02*
X51355404Y-50744476D01*
X51498261Y-50934952D01*
X46863166Y-71572380D02*
X46529833Y-71096190D01*
X46291738Y-71572380D02*
X46291738Y-70572380D01*
X46672690Y-70572380D01*
X46767928Y-70620000D01*
X46815547Y-70667619D01*
X46863166Y-70762857D01*
X46863166Y-70905714D01*
X46815547Y-71000952D01*
X46767928Y-71048571D01*
X46672690Y-71096190D01*
X46291738Y-71096190D01*
X47291738Y-71048571D02*
X47625071Y-71048571D01*
X47767928Y-71572380D02*
X47291738Y-71572380D01*
X47291738Y-70572380D01*
X47767928Y-70572380D01*
X48529833Y-71048571D02*
X48196500Y-71048571D01*
X48196500Y-71572380D02*
X48196500Y-70572380D01*
X48672690Y-70572380D01*
X49196500Y-70572380D02*
X49196500Y-70810476D01*
X48958404Y-70715238D02*
X49196500Y-70810476D01*
X49434595Y-70715238D01*
X49053642Y-71000952D02*
X49196500Y-70810476D01*
X49339357Y-71000952D01*
X49958404Y-70572380D02*
X49958404Y-70810476D01*
X49720309Y-70715238D02*
X49958404Y-70810476D01*
X50196500Y-70715238D01*
X49815547Y-71000952D02*
X49958404Y-70810476D01*
X50101261Y-71000952D01*
X49657166Y-107195880D02*
X49323833Y-106719690D01*
X49085738Y-107195880D02*
X49085738Y-106195880D01*
X49466690Y-106195880D01*
X49561928Y-106243500D01*
X49609547Y-106291119D01*
X49657166Y-106386357D01*
X49657166Y-106529214D01*
X49609547Y-106624452D01*
X49561928Y-106672071D01*
X49466690Y-106719690D01*
X49085738Y-106719690D01*
X50085738Y-106672071D02*
X50419071Y-106672071D01*
X50561928Y-107195880D02*
X50085738Y-107195880D01*
X50085738Y-106195880D01*
X50561928Y-106195880D01*
X51323833Y-106672071D02*
X50990500Y-106672071D01*
X50990500Y-107195880D02*
X50990500Y-106195880D01*
X51466690Y-106195880D01*
X51990500Y-106195880D02*
X51990500Y-106433976D01*
X51752404Y-106338738D02*
X51990500Y-106433976D01*
X52228595Y-106338738D01*
X51847642Y-106624452D02*
X51990500Y-106433976D01*
X52133357Y-106624452D01*
X52752404Y-106195880D02*
X52752404Y-106433976D01*
X52514309Y-106338738D02*
X52752404Y-106433976D01*
X52990500Y-106338738D01*
X52609547Y-106624452D02*
X52752404Y-106433976D01*
X52895261Y-106624452D01*
X47180666Y-128214380D02*
X46847333Y-127738190D01*
X46609238Y-128214380D02*
X46609238Y-127214380D01*
X46990190Y-127214380D01*
X47085428Y-127262000D01*
X47133047Y-127309619D01*
X47180666Y-127404857D01*
X47180666Y-127547714D01*
X47133047Y-127642952D01*
X47085428Y-127690571D01*
X46990190Y-127738190D01*
X46609238Y-127738190D01*
X47609238Y-127690571D02*
X47942571Y-127690571D01*
X48085428Y-128214380D02*
X47609238Y-128214380D01*
X47609238Y-127214380D01*
X48085428Y-127214380D01*
X48847333Y-127690571D02*
X48514000Y-127690571D01*
X48514000Y-128214380D02*
X48514000Y-127214380D01*
X48990190Y-127214380D01*
X49514000Y-127214380D02*
X49514000Y-127452476D01*
X49275904Y-127357238D02*
X49514000Y-127452476D01*
X49752095Y-127357238D01*
X49371142Y-127642952D02*
X49514000Y-127452476D01*
X49656857Y-127642952D01*
X50275904Y-127214380D02*
X50275904Y-127452476D01*
X50037809Y-127357238D02*
X50275904Y-127452476D01*
X50514000Y-127357238D01*
X50133047Y-127642952D02*
X50275904Y-127452476D01*
X50418761Y-127642952D01*
X47307666Y-85796380D02*
X46974333Y-85320190D01*
X46736238Y-85796380D02*
X46736238Y-84796380D01*
X47117190Y-84796380D01*
X47212428Y-84844000D01*
X47260047Y-84891619D01*
X47307666Y-84986857D01*
X47307666Y-85129714D01*
X47260047Y-85224952D01*
X47212428Y-85272571D01*
X47117190Y-85320190D01*
X46736238Y-85320190D01*
X47736238Y-85272571D02*
X48069571Y-85272571D01*
X48212428Y-85796380D02*
X47736238Y-85796380D01*
X47736238Y-84796380D01*
X48212428Y-84796380D01*
X48974333Y-85272571D02*
X48641000Y-85272571D01*
X48641000Y-85796380D02*
X48641000Y-84796380D01*
X49117190Y-84796380D01*
X49641000Y-84796380D02*
X49641000Y-85034476D01*
X49402904Y-84939238D02*
X49641000Y-85034476D01*
X49879095Y-84939238D01*
X49498142Y-85224952D02*
X49641000Y-85034476D01*
X49783857Y-85224952D01*
X50402904Y-84796380D02*
X50402904Y-85034476D01*
X50164809Y-84939238D02*
X50402904Y-85034476D01*
X50641000Y-84939238D01*
X50260047Y-85224952D02*
X50402904Y-85034476D01*
X50545761Y-85224952D01*
X47053666Y-84081880D02*
X46720333Y-83605690D01*
X46482238Y-84081880D02*
X46482238Y-83081880D01*
X46863190Y-83081880D01*
X46958428Y-83129500D01*
X47006047Y-83177119D01*
X47053666Y-83272357D01*
X47053666Y-83415214D01*
X47006047Y-83510452D01*
X46958428Y-83558071D01*
X46863190Y-83605690D01*
X46482238Y-83605690D01*
X47482238Y-83558071D02*
X47815571Y-83558071D01*
X47958428Y-84081880D02*
X47482238Y-84081880D01*
X47482238Y-83081880D01*
X47958428Y-83081880D01*
X48720333Y-83558071D02*
X48387000Y-83558071D01*
X48387000Y-84081880D02*
X48387000Y-83081880D01*
X48863190Y-83081880D01*
X49387000Y-83081880D02*
X49387000Y-83319976D01*
X49148904Y-83224738D02*
X49387000Y-83319976D01*
X49625095Y-83224738D01*
X49244142Y-83510452D02*
X49387000Y-83319976D01*
X49529857Y-83510452D01*
X50148904Y-83081880D02*
X50148904Y-83319976D01*
X49910809Y-83224738D02*
X50148904Y-83319976D01*
X50387000Y-83224738D01*
X50006047Y-83510452D02*
X50148904Y-83319976D01*
X50291761Y-83510452D01*
X49339666Y-141549380D02*
X49006333Y-141073190D01*
X48768238Y-141549380D02*
X48768238Y-140549380D01*
X49149190Y-140549380D01*
X49244428Y-140597000D01*
X49292047Y-140644619D01*
X49339666Y-140739857D01*
X49339666Y-140882714D01*
X49292047Y-140977952D01*
X49244428Y-141025571D01*
X49149190Y-141073190D01*
X48768238Y-141073190D01*
X49768238Y-141025571D02*
X50101571Y-141025571D01*
X50244428Y-141549380D02*
X49768238Y-141549380D01*
X49768238Y-140549380D01*
X50244428Y-140549380D01*
X51006333Y-141025571D02*
X50673000Y-141025571D01*
X50673000Y-141549380D02*
X50673000Y-140549380D01*
X51149190Y-140549380D01*
X51673000Y-140549380D02*
X51673000Y-140787476D01*
X51434904Y-140692238D02*
X51673000Y-140787476D01*
X51911095Y-140692238D01*
X51530142Y-140977952D02*
X51673000Y-140787476D01*
X51815857Y-140977952D01*
X52434904Y-140549380D02*
X52434904Y-140787476D01*
X52196809Y-140692238D02*
X52434904Y-140787476D01*
X52673000Y-140692238D01*
X52292047Y-140977952D02*
X52434904Y-140787476D01*
X52577761Y-140977952D01*
X18415166Y-143644880D02*
X18081833Y-143168690D01*
X17843738Y-143644880D02*
X17843738Y-142644880D01*
X18224690Y-142644880D01*
X18319928Y-142692500D01*
X18367547Y-142740119D01*
X18415166Y-142835357D01*
X18415166Y-142978214D01*
X18367547Y-143073452D01*
X18319928Y-143121071D01*
X18224690Y-143168690D01*
X17843738Y-143168690D01*
X18843738Y-143121071D02*
X19177071Y-143121071D01*
X19319928Y-143644880D02*
X18843738Y-143644880D01*
X18843738Y-142644880D01*
X19319928Y-142644880D01*
X20081833Y-143121071D02*
X19748500Y-143121071D01*
X19748500Y-143644880D02*
X19748500Y-142644880D01*
X20224690Y-142644880D01*
X20748500Y-142644880D02*
X20748500Y-142882976D01*
X20510404Y-142787738D02*
X20748500Y-142882976D01*
X20986595Y-142787738D01*
X20605642Y-143073452D02*
X20748500Y-142882976D01*
X20891357Y-143073452D01*
X21510404Y-142644880D02*
X21510404Y-142882976D01*
X21272309Y-142787738D02*
X21510404Y-142882976D01*
X21748500Y-142787738D01*
X21367547Y-143073452D02*
X21510404Y-142882976D01*
X21653261Y-143073452D01*
X28829166Y-31694380D02*
X28495833Y-31218190D01*
X28257738Y-31694380D02*
X28257738Y-30694380D01*
X28638690Y-30694380D01*
X28733928Y-30742000D01*
X28781547Y-30789619D01*
X28829166Y-30884857D01*
X28829166Y-31027714D01*
X28781547Y-31122952D01*
X28733928Y-31170571D01*
X28638690Y-31218190D01*
X28257738Y-31218190D01*
X29257738Y-31170571D02*
X29591071Y-31170571D01*
X29733928Y-31694380D02*
X29257738Y-31694380D01*
X29257738Y-30694380D01*
X29733928Y-30694380D01*
X30495833Y-31170571D02*
X30162500Y-31170571D01*
X30162500Y-31694380D02*
X30162500Y-30694380D01*
X30638690Y-30694380D01*
X31162500Y-30694380D02*
X31162500Y-30932476D01*
X30924404Y-30837238D02*
X31162500Y-30932476D01*
X31400595Y-30837238D01*
X31019642Y-31122952D02*
X31162500Y-30932476D01*
X31305357Y-31122952D01*
X31924404Y-30694380D02*
X31924404Y-30932476D01*
X31686309Y-30837238D02*
X31924404Y-30932476D01*
X32162500Y-30837238D01*
X31781547Y-31122952D02*
X31924404Y-30932476D01*
X32067261Y-31122952D01*
X16764166Y-159138880D02*
X16430833Y-158662690D01*
X16192738Y-159138880D02*
X16192738Y-158138880D01*
X16573690Y-158138880D01*
X16668928Y-158186500D01*
X16716547Y-158234119D01*
X16764166Y-158329357D01*
X16764166Y-158472214D01*
X16716547Y-158567452D01*
X16668928Y-158615071D01*
X16573690Y-158662690D01*
X16192738Y-158662690D01*
X17192738Y-158615071D02*
X17526071Y-158615071D01*
X17668928Y-159138880D02*
X17192738Y-159138880D01*
X17192738Y-158138880D01*
X17668928Y-158138880D01*
X18430833Y-158615071D02*
X18097500Y-158615071D01*
X18097500Y-159138880D02*
X18097500Y-158138880D01*
X18573690Y-158138880D01*
X19097500Y-158138880D02*
X19097500Y-158376976D01*
X18859404Y-158281738D02*
X19097500Y-158376976D01*
X19335595Y-158281738D01*
X18954642Y-158567452D02*
X19097500Y-158376976D01*
X19240357Y-158567452D01*
X19859404Y-158138880D02*
X19859404Y-158376976D01*
X19621309Y-158281738D02*
X19859404Y-158376976D01*
X20097500Y-158281738D01*
X19716547Y-158567452D02*
X19859404Y-158376976D01*
X20002261Y-158567452D01*
G04 #@! TD*
M02*
