M48
; DRILL file {KiCad 5.1.7-1.fc31} date Sun Apr 18 18:46:42 2021
; FORMAT={-:-/ absolute / inch / decimal}
; #@! TF.CreationDate,2021-04-18T18:46:42-04:00
; #@! TF.GenerationSoftware,Kicad,Pcbnew,5.1.7-1.fc31
; #@! TF.FileFunction,Plated,1,2,PTH
FMAT,2
INCH
T1C0.0157
T2C0.0315
T3C0.0394
T4C0.0433
T5C0.0480
T6C0.0559
T7C0.0563
%
G90
G05
T1
X1.3Y-3.8
X1.4Y-2.575
X1.525Y-2.575
T2
X1.2Y-4.7
X1.6Y-4.7
X1.075Y-2.15
X1.075Y-2.55
X1.4297Y-3.65
X1.725Y-3.65
X1.325Y-2.7
X1.325Y-3.1
X1.1Y-1.75
X1.1Y-2.05
X1.2Y-1.75
X1.2Y-2.05
X1.3Y-1.75
X1.3Y-2.05
X1.4Y-1.75
X1.4Y-2.05
X1.5Y-1.75
X1.5Y-2.05
X1.6Y-1.75
X1.6Y-2.05
X1.7Y-1.75
X1.7Y-2.05
X1.725Y-2.15
X1.725Y-2.55
X1.0797Y-3.55
X1.375Y-3.55
X1.725Y-4.85
X1.725Y-5.25
X1.35Y-4.8
X1.35Y-5.2
X1.2Y-2.375
X1.6Y-2.375
X1.725Y-3.125
X1.725Y-3.525
X1.225Y-2.625
X1.625Y-2.625
X1.475Y-4.8
X1.475Y-5.2
X1.7257Y-2.6359
X1.7257Y-3.0359
X1.075Y-2.75
X1.075Y-3.15
X1.475Y-2.7
X1.475Y-3.1
X1.075Y-4.85
X1.075Y-5.25
T3
X1.3Y-3.2
X1.3984Y-3.2
X1.4969Y-3.2
X1.3Y-5.3
X1.3984Y-5.3
X1.4969Y-5.3
X1.2Y-3.925
X1.2Y-4.025
X1.3Y-3.925
X1.3Y-4.025
X1.4Y-3.925
X1.4Y-4.025
X1.5Y-3.925
X1.5Y-4.025
X1.6Y-3.925
X1.6Y-4.025
X1.3Y-2.5
X1.3984Y-2.5
X1.4969Y-2.5
X1.3Y-4.6
X1.3984Y-4.6
X1.4969Y-4.6
T4
X1.075Y-4.175
X1.075Y-4.575
X1.725Y-4.175
X1.725Y-4.575
T5
X1.2001Y-3.3204
X1.5985Y-3.3203
X1.6Y-5.475
X1.2Y-5.475
T6
X1.2001Y-3.4425
X1.5985Y-3.4424
X1.6Y-5.597
X1.2Y-5.597
T7
X1.2001Y-3.7693
X1.5985Y-3.7692
X1.6Y-5.9238
X1.2Y-5.9238
T4
G00X1.2094Y-2.2185
M15
G01X1.2094Y-2.1909
M16
G05
G00X1.5874Y-2.2185
M15
G01X1.5874Y-2.1909
M16
G05
G00X1.2094Y-4.3185
M15
G01X1.2094Y-4.2909
M16
G05
G00X1.5874Y-4.3185
M15
G01X1.5874Y-4.2909
M16
G05
G00X1.2094Y-2.9185
M15
G01X1.2094Y-2.8909
M16
G05
G00X1.5874Y-2.9185
M15
G01X1.5874Y-2.8909
M16
G05
G00X1.2094Y-5.0185
M15
G01X1.2094Y-4.9909
M16
G05
G00X1.5874Y-5.0185
M15
G01X1.5874Y-4.9909
M16
G05
T0
M30
