G04 #@! TF.GenerationSoftware,KiCad,Pcbnew,6.0.7-1.fc35*
G04 #@! TF.CreationDate,2023-06-14T17:00:14-04:00*
G04 #@! TF.ProjectId,vccg_faceplate,76636367-5f66-4616-9365-706c6174652e,rev?*
G04 #@! TF.SameCoordinates,Original*
G04 #@! TF.FileFunction,Profile,NP*
%FSLAX46Y46*%
G04 Gerber Fmt 4.6, Leading zero omitted, Abs format (unit mm)*
G04 Created by KiCad (PCBNEW 6.0.7-1.fc35) date 2023-06-14 17:00:14*
%MOMM*%
%LPD*%
G01*
G04 APERTURE LIST*
G04 #@! TA.AperFunction,Profile*
%ADD10C,0.050000*%
G04 #@! TD*
G04 APERTURE END LIST*
D10*
X216600000Y-36800000D02*
G75*
G03*
X216600000Y-36800000I-2900000J0D01*
G01*
X194818000Y-143865600D02*
X194818000Y-143814800D01*
X242200000Y-51200000D02*
G75*
G03*
X242200000Y-51200000I-2900000J0D01*
G01*
X238200000Y-72000000D02*
G75*
G03*
X238200000Y-72000000I-3500000J0D01*
G01*
X242200000Y-36700000D02*
G75*
G03*
X242200000Y-36700000I-2900000J0D01*
G01*
X194818000Y-131318000D02*
X194818000Y-27940000D01*
X196215000Y-85598000D02*
X196215000Y-65278000D01*
X224155000Y-65278000D02*
X224155000Y-85598000D01*
X230000000Y-48500000D02*
G75*
G03*
X230000000Y-48500000I-3500000J0D01*
G01*
X239500000Y-140800000D02*
G75*
G03*
X239500000Y-140800000I-1600000J0D01*
G01*
X194818000Y-15443200D02*
X194818000Y-15392400D01*
X239600000Y-18400000D02*
G75*
G03*
X239600000Y-18400000I-1600000J0D01*
G01*
X242100000Y-123700000D02*
G75*
G03*
X242100000Y-123700000I-2900000J0D01*
G01*
X236600000Y-90350000D02*
G75*
G03*
X236600000Y-90350000I-1700000J0D01*
G01*
X245618000Y-143865600D02*
X194818000Y-143865600D01*
X245618000Y-27940000D02*
X245618000Y-15443200D01*
X245618000Y-15392400D02*
X245618000Y-15443200D01*
X203910000Y-140800000D02*
G75*
G03*
X203910000Y-140800000I-1600000J0D01*
G01*
X194818000Y-131318000D02*
X194818000Y-143814800D01*
X204100000Y-36800000D02*
G75*
G03*
X204100000Y-36800000I-2900000J0D01*
G01*
X245618000Y-143764000D02*
X245618000Y-143814800D01*
X203930000Y-18390000D02*
G75*
G03*
X203930000Y-18390000I-1600000J0D01*
G01*
X217300000Y-48500000D02*
G75*
G03*
X217300000Y-48500000I-3500000J0D01*
G01*
X194818000Y-15392400D02*
X245618000Y-15392400D01*
X194818000Y-27940000D02*
X194818000Y-15443200D01*
X216700000Y-123700000D02*
G75*
G03*
X216700000Y-123700000I-2900000J0D01*
G01*
X245618000Y-143814800D02*
X245618000Y-143865600D01*
X245618000Y-131318000D02*
X245618000Y-27940000D01*
X245618000Y-131318000D02*
X245618000Y-143764000D01*
X204100000Y-123800000D02*
G75*
G03*
X204100000Y-123800000I-2900000J0D01*
G01*
X196215000Y-65278000D02*
X224155000Y-65278000D01*
X204700000Y-48500000D02*
G75*
G03*
X204700000Y-48500000I-3500000J0D01*
G01*
X229400000Y-123700000D02*
G75*
G03*
X229400000Y-123700000I-2900000J0D01*
G01*
X229400000Y-36700000D02*
G75*
G03*
X229400000Y-36700000I-2900000J0D01*
G01*
X224155000Y-85598000D02*
X196215000Y-85598000D01*
M02*
