  0
SECTION
  2
HEADER
  9
$ANGBASE
  50
0.0
  9
$ANGDIR
  70
1
  9
$MEASUREMENT
  70
0
  0
ENDSEC
  0
SECTION
  2
TABLES
  0
TABLE
  2
LTYPE
  70
4
  0
LTYPE
  5
40F
  2
CONTINUOUS
  70
0
  3
Solid line
  72
65
  73
0
  40
0.0
  0
LTYPE
  5
410
  2
DASHDOT
 70
0
  3
Dash Dot ____ _ ____ _
 72
65
 73
4
 40
2.0
 49
1.25
 49
-0.25
 49
0.25
 49
-0.25
  0
LTYPE
  5
411
  2
DASHED
 70
0
  3
Dashed __ __ __ __ __
 72
65
 73
2
 40
0.75
 49
0.5
 49
-0.25
  0
LTYPE
  5
43B
  2
DOTTED
 70
0
  3
Dotted .  .  .  .
 72
65
 73
2
 40
0.2
 49
0.0
 49
-0.2
  0
ENDTAB
  0
TABLE
  2
STYLE
  70
4
  0
STYLE
  2
KICAD
  70
0
  40
0
  41
1
  42
1
  50
0
  71
0
  3
isocp.shx
  0
STYLE
  2
KICADB
  70
0
  40
0
  41
1
  42
1
  50
0
  71
0
  3
isocp.shx
  0
STYLE
  2
KICADI
  70
0
  40
0
  41
1
  42
1
  50
15
  71
0
  3
isocp.shx
  0
STYLE
  2
KICADBI
  70
0
  40
0
  41
1
  42
1
  50
15
  71
0
  3
isocp.shx
  0
ENDTAB
  0
TABLE
  2
LAYER
  70
1
  0
LAYER
  2
BLACK
  70
0
  62
7
  6
CONTINUOUS
  0
ENDTAB
  0
ENDSEC
  0
SECTION
  2
ENTITIES
0
LINE
8
BLACK
6
CONTINUOUS
10
9.6707
20
-5.6647
11
9.67
21
-5.66498
0
LINE
8
BLACK
6
CONTINUOUS
10
9.67
20
-5.66498
11
7.67
21
-5.66498
0
LINE
8
BLACK
6
CONTINUOUS
10
7.67
20
-5.66498
11
7.6693
21
-5.6647
0
LINE
8
BLACK
6
CONTINUOUS
10
7.6693
20
-5.6647
11
7.66902
21
-5.664
0
LINE
8
BLACK
6
CONTINUOUS
10
7.66902
20
-5.664
11
7.66902
21
-0.606
0
LINE
8
BLACK
6
CONTINUOUS
10
7.66902
20
-0.606
11
7.6693
21
-0.605304
0
LINE
8
BLACK
6
CONTINUOUS
10
7.6693
20
-0.605304
11
7.67
21
-0.605016
0
LINE
8
BLACK
6
CONTINUOUS
10
7.67
20
-0.605016
11
9.67
21
-0.605016
0
LINE
8
BLACK
6
CONTINUOUS
10
9.67
20
-0.605016
11
9.6707
21
-0.605304
0
LINE
8
BLACK
6
CONTINUOUS
10
9.6707
20
-0.605304
11
9.67098
21
-0.606
0
LINE
8
BLACK
6
CONTINUOUS
10
9.67098
20
-0.606
11
9.67098
21
-5.664
0
LINE
8
BLACK
6
CONTINUOUS
10
9.67098
20
-5.664
11
9.6707
21
-5.6647
0
LINE
8
BLACK
6
CONTINUOUS
10
9.66902
20
-5.66302
11
9.66902
21
-0.606984
0
LINE
8
BLACK
6
CONTINUOUS
10
9.66902
20
-0.606984
11
7.67098
21
-0.606984
0
LINE
8
BLACK
6
CONTINUOUS
10
7.67098
20
-0.606984
11
7.67098
21
-5.66302
0
LINE
8
BLACK
6
CONTINUOUS
10
7.67098
20
-5.66302
11
9.66902
21
-5.66302
0
LINE
8
BLACK
6
CONTINUOUS
10
7.7243
20
-3.3707
11
7.72402
21
-3.37
0
LINE
8
BLACK
6
CONTINUOUS
10
7.72402
20
-3.37
11
7.72402
21
-2.57
0
LINE
8
BLACK
6
CONTINUOUS
10
7.72402
20
-2.57
11
7.7243
21
-2.5693
0
LINE
8
BLACK
6
CONTINUOUS
10
7.7243
20
-2.5693
11
7.725
21
-2.56902
0
LINE
8
BLACK
6
CONTINUOUS
10
7.725
20
-2.56902
11
8.825
21
-2.56902
0
LINE
8
BLACK
6
CONTINUOUS
10
8.825
20
-2.56902
11
8.8257
21
-2.5693
0
LINE
8
BLACK
6
CONTINUOUS
10
8.8257
20
-2.5693
11
8.82598
21
-2.57
0
LINE
8
BLACK
6
CONTINUOUS
10
8.82598
20
-2.57
11
8.82598
21
-3.37
0
LINE
8
BLACK
6
CONTINUOUS
10
8.82598
20
-3.37
11
8.8257
21
-3.3707
0
LINE
8
BLACK
6
CONTINUOUS
10
8.8257
20
-3.3707
11
8.825
21
-3.37098
0
LINE
8
BLACK
6
CONTINUOUS
10
8.825
20
-3.37098
11
7.725
21
-3.37098
0
LINE
8
BLACK
6
CONTINUOUS
10
7.725
20
-3.37098
11
7.7243
21
-3.3707
0
LINE
8
BLACK
6
CONTINUOUS
10
7.72598
20
-2.57098
11
7.72598
21
-3.36902
0
LINE
8
BLACK
6
CONTINUOUS
10
7.72598
20
-3.36902
11
8.82402
21
-3.36902
0
LINE
8
BLACK
6
CONTINUOUS
10
8.82402
20
-3.36902
11
8.82402
21
-2.57098
0
LINE
8
BLACK
6
CONTINUOUS
10
8.82402
20
-2.57098
11
7.72598
21
-2.57098
0
LINE
8
BLACK
6
CONTINUOUS
10
9.3053
20
-5.52354
11
9.30914
21
-5.51426
0
LINE
8
BLACK
6
CONTINUOUS
10
9.30914
20
-5.51426
11
9.31438
21
-5.5057
0
LINE
8
BLACK
6
CONTINUOUS
10
9.31438
20
-5.5057
11
9.3209
21
-5.49807
0
LINE
8
BLACK
6
CONTINUOUS
10
9.3209
20
-5.49807
11
9.32854
21
-5.49155
0
LINE
8
BLACK
6
CONTINUOUS
10
9.32854
20
-5.49155
11
9.3371
21
-5.4863
0
LINE
8
BLACK
6
CONTINUOUS
10
9.3371
20
-5.4863
11
9.34637
21
-5.48246
0
LINE
8
BLACK
6
CONTINUOUS
10
9.34637
20
-5.48246
11
9.35613
21
-5.48012
0
LINE
8
BLACK
6
CONTINUOUS
10
9.35613
20
-5.48012
11
9.36614
21
-5.47933
0
LINE
8
BLACK
6
CONTINUOUS
10
9.36614
20
-5.47933
11
9.37615
21
-5.48012
0
LINE
8
BLACK
6
CONTINUOUS
10
9.37615
20
-5.48012
11
9.38591
21
-5.48246
0
LINE
8
BLACK
6
CONTINUOUS
10
9.38591
20
-5.48246
11
9.39519
21
-5.4863
0
LINE
8
BLACK
6
CONTINUOUS
10
9.39519
20
-5.4863
11
9.40375
21
-5.49155
0
LINE
8
BLACK
6
CONTINUOUS
10
9.40375
20
-5.49155
11
9.41138
21
-5.49807
0
LINE
8
BLACK
6
CONTINUOUS
10
9.41138
20
-5.49807
11
9.4179
21
-5.5057
0
LINE
8
BLACK
6
CONTINUOUS
10
9.4179
20
-5.5057
11
9.42315
21
-5.51426
0
LINE
8
BLACK
6
CONTINUOUS
10
9.42315
20
-5.51426
11
9.42699
21
-5.52354
0
LINE
8
BLACK
6
CONTINUOUS
10
9.42699
20
-5.52354
11
9.42933
21
-5.5333
0
LINE
8
BLACK
6
CONTINUOUS
10
9.42933
20
-5.5333
11
9.43012
21
-5.54331
0
LINE
8
BLACK
6
CONTINUOUS
10
9.43012
20
-5.54331
11
9.42933
21
-5.55332
0
LINE
8
BLACK
6
CONTINUOUS
10
9.42933
20
-5.55332
11
9.42699
21
-5.56308
0
LINE
8
BLACK
6
CONTINUOUS
10
9.42699
20
-5.56308
11
9.42315
21
-5.57235
0
LINE
8
BLACK
6
CONTINUOUS
10
9.42315
20
-5.57235
11
9.4179
21
-5.58091
0
LINE
8
BLACK
6
CONTINUOUS
10
9.4179
20
-5.58091
11
9.41138
21
-5.58855
0
LINE
8
BLACK
6
CONTINUOUS
10
9.41138
20
-5.58855
11
9.40375
21
-5.59507
0
LINE
8
BLACK
6
CONTINUOUS
10
9.40375
20
-5.59507
11
9.39519
21
-5.60031
0
LINE
8
BLACK
6
CONTINUOUS
10
9.39519
20
-5.60031
11
9.38591
21
-5.60415
0
LINE
8
BLACK
6
CONTINUOUS
10
9.38591
20
-5.60415
11
9.37615
21
-5.6065
0
LINE
8
BLACK
6
CONTINUOUS
10
9.37615
20
-5.6065
11
9.36614
21
-5.60728
0
LINE
8
BLACK
6
CONTINUOUS
10
9.36614
20
-5.60728
11
9.35613
21
-5.6065
0
LINE
8
BLACK
6
CONTINUOUS
10
9.35613
20
-5.6065
11
9.34637
21
-5.60415
0
LINE
8
BLACK
6
CONTINUOUS
10
9.34637
20
-5.60415
11
9.3371
21
-5.60031
0
LINE
8
BLACK
6
CONTINUOUS
10
9.3371
20
-5.60031
11
9.32854
21
-5.59507
0
LINE
8
BLACK
6
CONTINUOUS
10
9.32854
20
-5.59507
11
9.3209
21
-5.58855
0
LINE
8
BLACK
6
CONTINUOUS
10
9.3209
20
-5.58855
11
9.31438
21
-5.58091
0
LINE
8
BLACK
6
CONTINUOUS
10
9.31438
20
-5.58091
11
9.30914
21
-5.57235
0
LINE
8
BLACK
6
CONTINUOUS
10
9.30914
20
-5.57235
11
9.3053
21
-5.56308
0
LINE
8
BLACK
6
CONTINUOUS
10
9.3053
20
-5.56308
11
9.30295
21
-5.55332
0
LINE
8
BLACK
6
CONTINUOUS
10
9.30295
20
-5.55332
11
9.30217
21
-5.54331
0
LINE
8
BLACK
6
CONTINUOUS
10
9.30217
20
-5.54331
11
9.30295
21
-5.5333
0
LINE
8
BLACK
6
CONTINUOUS
10
9.30295
20
-5.5333
11
9.3053
21
-5.52354
0
LINE
8
BLACK
6
CONTINUOUS
10
9.30699
20
-5.56253
11
9.31072
21
-5.57155
0
LINE
8
BLACK
6
CONTINUOUS
10
9.31072
20
-5.57155
11
9.31582
21
-5.57987
0
LINE
8
BLACK
6
CONTINUOUS
10
9.31582
20
-5.57987
11
9.32216
21
-5.58729
0
LINE
8
BLACK
6
CONTINUOUS
10
9.32216
20
-5.58729
11
9.32958
21
-5.59363
0
LINE
8
BLACK
6
CONTINUOUS
10
9.32958
20
-5.59363
11
9.3379
21
-5.59873
0
LINE
8
BLACK
6
CONTINUOUS
10
9.3379
20
-5.59873
11
9.34692
21
-5.60246
0
LINE
8
BLACK
6
CONTINUOUS
10
9.34692
20
-5.60246
11
9.35641
21
-5.60474
0
LINE
8
BLACK
6
CONTINUOUS
10
9.35641
20
-5.60474
11
9.36614
21
-5.60551
0
LINE
8
BLACK
6
CONTINUOUS
10
9.36614
20
-5.60551
11
9.37587
21
-5.60474
0
LINE
8
BLACK
6
CONTINUOUS
10
9.37587
20
-5.60474
11
9.38536
21
-5.60246
0
LINE
8
BLACK
6
CONTINUOUS
10
9.38536
20
-5.60246
11
9.39438
21
-5.59873
0
LINE
8
BLACK
6
CONTINUOUS
10
9.39438
20
-5.59873
11
9.4027
21
-5.59363
0
LINE
8
BLACK
6
CONTINUOUS
10
9.4027
20
-5.59363
11
9.41012
21
-5.58729
0
LINE
8
BLACK
6
CONTINUOUS
10
9.41012
20
-5.58729
11
9.41646
21
-5.57987
0
LINE
8
BLACK
6
CONTINUOUS
10
9.41646
20
-5.57987
11
9.42156
21
-5.57155
0
LINE
8
BLACK
6
CONTINUOUS
10
9.42156
20
-5.57155
11
9.4253
21
-5.56253
0
LINE
8
BLACK
6
CONTINUOUS
10
9.4253
20
-5.56253
11
9.42758
21
-5.55304
0
LINE
8
BLACK
6
CONTINUOUS
10
9.42758
20
-5.55304
11
9.42834
21
-5.54331
0
LINE
8
BLACK
6
CONTINUOUS
10
9.42834
20
-5.54331
11
9.42758
21
-5.53358
0
LINE
8
BLACK
6
CONTINUOUS
10
9.42758
20
-5.53358
11
9.4253
21
-5.52409
0
LINE
8
BLACK
6
CONTINUOUS
10
9.4253
20
-5.52409
11
9.42156
21
-5.51507
0
LINE
8
BLACK
6
CONTINUOUS
10
9.42156
20
-5.51507
11
9.41646
21
-5.50675
0
LINE
8
BLACK
6
CONTINUOUS
10
9.41646
20
-5.50675
11
9.41012
21
-5.49933
0
LINE
8
BLACK
6
CONTINUOUS
10
9.41012
20
-5.49933
11
9.4027
21
-5.49299
0
LINE
8
BLACK
6
CONTINUOUS
10
9.4027
20
-5.49299
11
9.39438
21
-5.48789
0
LINE
8
BLACK
6
CONTINUOUS
10
9.39438
20
-5.48789
11
9.38536
21
-5.48415
0
LINE
8
BLACK
6
CONTINUOUS
10
9.38536
20
-5.48415
11
9.37587
21
-5.48187
0
LINE
8
BLACK
6
CONTINUOUS
10
9.37587
20
-5.48187
11
9.36614
21
-5.48111
0
LINE
8
BLACK
6
CONTINUOUS
10
9.36614
20
-5.48111
11
9.35641
21
-5.48187
0
LINE
8
BLACK
6
CONTINUOUS
10
9.35641
20
-5.48187
11
9.34692
21
-5.48415
0
LINE
8
BLACK
6
CONTINUOUS
10
9.34692
20
-5.48415
11
9.3379
21
-5.48789
0
LINE
8
BLACK
6
CONTINUOUS
10
9.3379
20
-5.48789
11
9.32958
21
-5.49299
0
LINE
8
BLACK
6
CONTINUOUS
10
9.32958
20
-5.49299
11
9.32216
21
-5.49933
0
LINE
8
BLACK
6
CONTINUOUS
10
9.32216
20
-5.49933
11
9.31582
21
-5.50675
0
LINE
8
BLACK
6
CONTINUOUS
10
9.31582
20
-5.50675
11
9.31072
21
-5.51507
0
LINE
8
BLACK
6
CONTINUOUS
10
9.31072
20
-5.51507
11
9.30699
21
-5.52409
0
LINE
8
BLACK
6
CONTINUOUS
10
9.30699
20
-5.52409
11
9.30471
21
-5.53358
0
LINE
8
BLACK
6
CONTINUOUS
10
9.30471
20
-5.53358
11
9.30394
21
-5.54331
0
LINE
8
BLACK
6
CONTINUOUS
10
9.30394
20
-5.54331
11
9.30471
21
-5.55304
0
LINE
8
BLACK
6
CONTINUOUS
10
9.30471
20
-5.55304
11
9.30699
21
-5.56253
0
LINE
8
BLACK
6
CONTINUOUS
10
7.90412
20
-5.52354
11
7.90796
21
-5.51426
0
LINE
8
BLACK
6
CONTINUOUS
10
7.90796
20
-5.51426
11
7.9132
21
-5.5057
0
LINE
8
BLACK
6
CONTINUOUS
10
7.9132
20
-5.5057
11
7.91972
21
-5.49807
0
LINE
8
BLACK
6
CONTINUOUS
10
7.91972
20
-5.49807
11
7.92736
21
-5.49155
0
LINE
8
BLACK
6
CONTINUOUS
10
7.92736
20
-5.49155
11
7.93592
21
-5.4863
0
LINE
8
BLACK
6
CONTINUOUS
10
7.93592
20
-5.4863
11
7.94519
21
-5.48246
0
LINE
8
BLACK
6
CONTINUOUS
10
7.94519
20
-5.48246
11
7.95495
21
-5.48012
0
LINE
8
BLACK
6
CONTINUOUS
10
7.95495
20
-5.48012
11
7.96496
21
-5.47933
0
LINE
8
BLACK
6
CONTINUOUS
10
7.96496
20
-5.47933
11
7.97497
21
-5.48012
0
LINE
8
BLACK
6
CONTINUOUS
10
7.97497
20
-5.48012
11
7.98473
21
-5.48246
0
LINE
8
BLACK
6
CONTINUOUS
10
7.98473
20
-5.48246
11
7.99401
21
-5.4863
0
LINE
8
BLACK
6
CONTINUOUS
10
7.99401
20
-5.4863
11
8.00257
21
-5.49155
0
LINE
8
BLACK
6
CONTINUOUS
10
8.00257
20
-5.49155
11
8.0102
21
-5.49807
0
LINE
8
BLACK
6
CONTINUOUS
10
8.0102
20
-5.49807
11
8.01672
21
-5.5057
0
LINE
8
BLACK
6
CONTINUOUS
10
8.01672
20
-5.5057
11
8.02196
21
-5.51426
0
LINE
8
BLACK
6
CONTINUOUS
10
8.02196
20
-5.51426
11
8.02581
21
-5.52354
0
LINE
8
BLACK
6
CONTINUOUS
10
8.02581
20
-5.52354
11
8.02815
21
-5.5333
0
LINE
8
BLACK
6
CONTINUOUS
10
8.02815
20
-5.5333
11
8.02894
21
-5.54331
0
LINE
8
BLACK
6
CONTINUOUS
10
8.02894
20
-5.54331
11
8.02815
21
-5.55332
0
LINE
8
BLACK
6
CONTINUOUS
10
8.02815
20
-5.55332
11
8.02581
21
-5.56308
0
LINE
8
BLACK
6
CONTINUOUS
10
8.02581
20
-5.56308
11
8.02196
21
-5.57235
0
LINE
8
BLACK
6
CONTINUOUS
10
8.02196
20
-5.57235
11
8.01672
21
-5.58091
0
LINE
8
BLACK
6
CONTINUOUS
10
8.01672
20
-5.58091
11
8.0102
21
-5.58855
0
LINE
8
BLACK
6
CONTINUOUS
10
8.0102
20
-5.58855
11
8.00257
21
-5.59507
0
LINE
8
BLACK
6
CONTINUOUS
10
8.00257
20
-5.59507
11
7.99401
21
-5.60031
0
LINE
8
BLACK
6
CONTINUOUS
10
7.99401
20
-5.60031
11
7.98473
21
-5.60415
0
LINE
8
BLACK
6
CONTINUOUS
10
7.98473
20
-5.60415
11
7.97497
21
-5.6065
0
LINE
8
BLACK
6
CONTINUOUS
10
7.97497
20
-5.6065
11
7.96496
21
-5.60728
0
LINE
8
BLACK
6
CONTINUOUS
10
7.96496
20
-5.60728
11
7.95495
21
-5.6065
0
LINE
8
BLACK
6
CONTINUOUS
10
7.95495
20
-5.6065
11
7.94519
21
-5.60415
0
LINE
8
BLACK
6
CONTINUOUS
10
7.94519
20
-5.60415
11
7.93592
21
-5.60031
0
LINE
8
BLACK
6
CONTINUOUS
10
7.93592
20
-5.60031
11
7.92736
21
-5.59507
0
LINE
8
BLACK
6
CONTINUOUS
10
7.92736
20
-5.59507
11
7.91972
21
-5.58855
0
LINE
8
BLACK
6
CONTINUOUS
10
7.91972
20
-5.58855
11
7.9132
21
-5.58091
0
LINE
8
BLACK
6
CONTINUOUS
10
7.9132
20
-5.58091
11
7.90796
21
-5.57235
0
LINE
8
BLACK
6
CONTINUOUS
10
7.90796
20
-5.57235
11
7.90412
21
-5.56308
0
LINE
8
BLACK
6
CONTINUOUS
10
7.90412
20
-5.56308
11
7.90177
21
-5.55332
0
LINE
8
BLACK
6
CONTINUOUS
10
7.90177
20
-5.55332
11
7.90098
21
-5.54331
0
LINE
8
BLACK
6
CONTINUOUS
10
7.90098
20
-5.54331
11
7.90177
21
-5.5333
0
LINE
8
BLACK
6
CONTINUOUS
10
7.90177
20
-5.5333
11
7.90412
21
-5.52354
0
LINE
8
BLACK
6
CONTINUOUS
10
7.90581
20
-5.56253
11
7.90954
21
-5.57155
0
LINE
8
BLACK
6
CONTINUOUS
10
7.90954
20
-5.57155
11
7.91464
21
-5.57987
0
LINE
8
BLACK
6
CONTINUOUS
10
7.91464
20
-5.57987
11
7.92098
21
-5.58729
0
LINE
8
BLACK
6
CONTINUOUS
10
7.92098
20
-5.58729
11
7.9284
21
-5.59363
0
LINE
8
BLACK
6
CONTINUOUS
10
7.9284
20
-5.59363
11
7.93672
21
-5.59873
0
LINE
8
BLACK
6
CONTINUOUS
10
7.93672
20
-5.59873
11
7.94574
21
-5.60246
0
LINE
8
BLACK
6
CONTINUOUS
10
7.94574
20
-5.60246
11
7.95523
21
-5.60474
0
LINE
8
BLACK
6
CONTINUOUS
10
7.95523
20
-5.60474
11
7.96496
21
-5.60551
0
LINE
8
BLACK
6
CONTINUOUS
10
7.96496
20
-5.60551
11
7.97469
21
-5.60474
0
LINE
8
BLACK
6
CONTINUOUS
10
7.97469
20
-5.60474
11
7.98418
21
-5.60246
0
LINE
8
BLACK
6
CONTINUOUS
10
7.98418
20
-5.60246
11
7.9932
21
-5.59873
0
LINE
8
BLACK
6
CONTINUOUS
10
7.9932
20
-5.59873
11
8.00152
21
-5.59363
0
LINE
8
BLACK
6
CONTINUOUS
10
8.00152
20
-5.59363
11
8.00894
21
-5.58729
0
LINE
8
BLACK
6
CONTINUOUS
10
8.00894
20
-5.58729
11
8.01528
21
-5.57987
0
LINE
8
BLACK
6
CONTINUOUS
10
8.01528
20
-5.57987
11
8.02038
21
-5.57155
0
LINE
8
BLACK
6
CONTINUOUS
10
8.02038
20
-5.57155
11
8.02412
21
-5.56253
0
LINE
8
BLACK
6
CONTINUOUS
10
8.02412
20
-5.56253
11
8.02639
21
-5.55304
0
LINE
8
BLACK
6
CONTINUOUS
10
8.02639
20
-5.55304
11
8.02716
21
-5.54331
0
LINE
8
BLACK
6
CONTINUOUS
10
8.02716
20
-5.54331
11
8.02639
21
-5.53358
0
LINE
8
BLACK
6
CONTINUOUS
10
8.02639
20
-5.53358
11
8.02412
21
-5.52409
0
LINE
8
BLACK
6
CONTINUOUS
10
8.02412
20
-5.52409
11
8.02038
21
-5.51507
0
LINE
8
BLACK
6
CONTINUOUS
10
8.02038
20
-5.51507
11
8.01528
21
-5.50675
0
LINE
8
BLACK
6
CONTINUOUS
10
8.01528
20
-5.50675
11
8.00894
21
-5.49933
0
LINE
8
BLACK
6
CONTINUOUS
10
8.00894
20
-5.49933
11
8.00152
21
-5.49299
0
LINE
8
BLACK
6
CONTINUOUS
10
8.00152
20
-5.49299
11
7.9932
21
-5.48789
0
LINE
8
BLACK
6
CONTINUOUS
10
7.9932
20
-5.48789
11
7.98418
21
-5.48415
0
LINE
8
BLACK
6
CONTINUOUS
10
7.98418
20
-5.48415
11
7.97469
21
-5.48187
0
LINE
8
BLACK
6
CONTINUOUS
10
7.97469
20
-5.48187
11
7.96496
21
-5.48111
0
LINE
8
BLACK
6
CONTINUOUS
10
7.96496
20
-5.48111
11
7.95523
21
-5.48187
0
LINE
8
BLACK
6
CONTINUOUS
10
7.95523
20
-5.48187
11
7.94574
21
-5.48415
0
LINE
8
BLACK
6
CONTINUOUS
10
7.94574
20
-5.48415
11
7.93672
21
-5.48789
0
LINE
8
BLACK
6
CONTINUOUS
10
7.93672
20
-5.48789
11
7.9284
21
-5.49299
0
LINE
8
BLACK
6
CONTINUOUS
10
7.9284
20
-5.49299
11
7.92098
21
-5.49933
0
LINE
8
BLACK
6
CONTINUOUS
10
7.92098
20
-5.49933
11
7.91464
21
-5.50675
0
LINE
8
BLACK
6
CONTINUOUS
10
7.91464
20
-5.50675
11
7.90954
21
-5.51507
0
LINE
8
BLACK
6
CONTINUOUS
10
7.90954
20
-5.51507
11
7.90581
21
-5.52409
0
LINE
8
BLACK
6
CONTINUOUS
10
7.90581
20
-5.52409
11
7.90353
21
-5.53358
0
LINE
8
BLACK
6
CONTINUOUS
10
7.90353
20
-5.53358
11
7.90276
21
-5.54331
0
LINE
8
BLACK
6
CONTINUOUS
10
7.90276
20
-5.54331
11
7.90353
21
-5.55304
0
LINE
8
BLACK
6
CONTINUOUS
10
7.90353
20
-5.55304
11
7.90581
21
-5.56253
0
LINE
8
BLACK
6
CONTINUOUS
10
7.80734
20
-4.85719
11
7.81003
21
-4.84421
0
LINE
8
BLACK
6
CONTINUOUS
10
7.81003
20
-4.84421
11
7.81419
21
-4.83162
0
LINE
8
BLACK
6
CONTINUOUS
10
7.81419
20
-4.83162
11
7.81977
21
-4.8196
0
LINE
8
BLACK
6
CONTINUOUS
10
7.81977
20
-4.8196
11
7.8267
21
-4.80829
0
LINE
8
BLACK
6
CONTINUOUS
10
7.8267
20
-4.80829
11
7.83488
21
-4.79786
0
LINE
8
BLACK
6
CONTINUOUS
10
7.83488
20
-4.79786
11
7.8442
21
-4.78844
0
LINE
8
BLACK
6
CONTINUOUS
10
7.8442
20
-4.78844
11
7.85455
21
-4.78015
0
LINE
8
BLACK
6
CONTINUOUS
10
7.85455
20
-4.78015
11
7.86578
21
-4.7731
0
LINE
8
BLACK
6
CONTINUOUS
10
7.86578
20
-4.7731
11
7.87775
21
-4.76739
0
LINE
8
BLACK
6
CONTINUOUS
10
7.87775
20
-4.76739
11
7.89029
21
-4.7631
0
LINE
8
BLACK
6
CONTINUOUS
10
7.89029
20
-4.7631
11
7.90325
21
-4.76028
0
LINE
8
BLACK
6
CONTINUOUS
10
7.90325
20
-4.76028
11
7.91644
21
-4.75896
0
LINE
8
BLACK
6
CONTINUOUS
10
7.91644
20
-4.75896
11
7.92969
21
-4.75917
0
LINE
8
BLACK
6
CONTINUOUS
10
7.92969
20
-4.75917
11
7.94284
21
-4.7609
0
LINE
8
BLACK
6
CONTINUOUS
10
7.94284
20
-4.7609
11
7.9557
21
-4.76413
0
LINE
8
BLACK
6
CONTINUOUS
10
7.9557
20
-4.76413
11
7.9681
21
-4.76881
0
LINE
8
BLACK
6
CONTINUOUS
10
7.9681
20
-4.76881
11
7.97988
21
-4.77489
0
LINE
8
BLACK
6
CONTINUOUS
10
7.97988
20
-4.77489
11
7.99088
21
-4.78229
0
LINE
8
BLACK
6
CONTINUOUS
10
7.99088
20
-4.78229
11
8.00097
21
-4.7909
0
LINE
8
BLACK
6
CONTINUOUS
10
8.00097
20
-4.7909
11
8.00999
21
-4.80061
0
LINE
8
BLACK
6
CONTINUOUS
10
8.00999
20
-4.80061
11
8.01784
21
-4.8113
0
LINE
8
BLACK
6
CONTINUOUS
10
8.01784
20
-4.8113
11
8.02441
21
-4.82281
0
LINE
8
BLACK
6
CONTINUOUS
10
8.02441
20
-4.82281
11
8.02961
21
-4.83501
0
LINE
8
BLACK
6
CONTINUOUS
10
8.02961
20
-4.83501
11
8.03337
21
-4.84772
0
LINE
8
BLACK
6
CONTINUOUS
10
8.03337
20
-4.84772
11
8.03565
21
-4.86078
0
LINE
8
BLACK
6
CONTINUOUS
10
8.03565
20
-4.86078
11
8.03642
21
-4.87402
0
LINE
8
BLACK
6
CONTINUOUS
10
8.03642
20
-4.87402
11
8.03619
21
-4.88125
0
LINE
8
BLACK
6
CONTINUOUS
10
8.03619
20
-4.88125
11
8.0346
21
-4.89441
0
LINE
8
BLACK
6
CONTINUOUS
10
8.0346
20
-4.89441
11
8.0315
21
-4.9073
0
LINE
8
BLACK
6
CONTINUOUS
10
8.0315
20
-4.9073
11
8.02695
21
-4.91975
0
LINE
8
BLACK
6
CONTINUOUS
10
8.02695
20
-4.91975
11
8.02099
21
-4.93159
0
LINE
8
BLACK
6
CONTINUOUS
10
8.02099
20
-4.93159
11
8.01371
21
-4.94268
0
LINE
8
BLACK
6
CONTINUOUS
10
8.01371
20
-4.94268
11
8.00521
21
-4.95285
0
LINE
8
BLACK
6
CONTINUOUS
10
8.00521
20
-4.95285
11
7.99559
21
-4.96197
0
LINE
8
BLACK
6
CONTINUOUS
10
7.99559
20
-4.96197
11
7.98499
21
-4.96993
0
LINE
8
BLACK
6
CONTINUOUS
10
7.98499
20
-4.96993
11
7.97354
21
-4.97662
0
LINE
8
BLACK
6
CONTINUOUS
10
7.97354
20
-4.97662
11
7.9614
21
-4.98195
0
LINE
8
BLACK
6
CONTINUOUS
10
7.9614
20
-4.98195
11
7.94873
21
-4.98585
0
LINE
8
BLACK
6
CONTINUOUS
10
7.94873
20
-4.98585
11
7.93569
21
-4.98827
0
LINE
8
BLACK
6
CONTINUOUS
10
7.93569
20
-4.98827
11
7.92247
21
-4.98917
0
LINE
8
BLACK
6
CONTINUOUS
10
7.92247
20
-4.98917
11
7.90922
21
-4.98854
0
LINE
8
BLACK
6
CONTINUOUS
10
7.90922
20
-4.98854
11
7.89614
21
-4.9864
0
LINE
8
BLACK
6
CONTINUOUS
10
7.89614
20
-4.9864
11
7.88339
21
-4.98277
0
LINE
8
BLACK
6
CONTINUOUS
10
7.88339
20
-4.98277
11
7.87114
21
-4.97769
0
LINE
8
BLACK
6
CONTINUOUS
10
7.87114
20
-4.97769
11
7.85956
21
-4.97125
0
LINE
8
BLACK
6
CONTINUOUS
10
7.85956
20
-4.97125
11
7.84879
21
-4.96351
0
LINE
8
BLACK
6
CONTINUOUS
10
7.84879
20
-4.96351
11
7.83898
21
-4.95459
0
LINE
8
BLACK
6
CONTINUOUS
10
7.83898
20
-4.95459
11
7.83027
21
-4.9446
0
LINE
8
BLACK
6
CONTINUOUS
10
7.83027
20
-4.9446
11
7.82276
21
-4.93367
0
LINE
8
BLACK
6
CONTINUOUS
10
7.82276
20
-4.93367
11
7.81655
21
-4.92195
0
LINE
8
BLACK
6
CONTINUOUS
10
7.81655
20
-4.92195
11
7.81174
21
-4.9096
0
LINE
8
BLACK
6
CONTINUOUS
10
7.81174
20
-4.9096
11
7.80837
21
-4.89678
0
LINE
8
BLACK
6
CONTINUOUS
10
7.80837
20
-4.89678
11
7.80651
21
-4.88365
0
LINE
8
BLACK
6
CONTINUOUS
10
7.80651
20
-4.88365
11
7.80616
21
-4.87045
0
LINE
8
BLACK
6
CONTINUOUS
10
7.80616
20
-4.87045
11
7.80616
21
-4.8704
0
LINE
8
BLACK
6
CONTINUOUS
10
7.80616
20
-4.8704
11
7.80734
21
-4.85719
0
LINE
8
BLACK
6
CONTINUOUS
10
7.81012
20
-4.89643
11
7.81343
21
-4.90905
0
LINE
8
BLACK
6
CONTINUOUS
10
7.81343
20
-4.90905
11
7.81817
21
-4.92121
0
LINE
8
BLACK
6
CONTINUOUS
10
7.81817
20
-4.92121
11
7.82428
21
-4.93275
0
LINE
8
BLACK
6
CONTINUOUS
10
7.82428
20
-4.93275
11
7.83167
21
-4.94351
0
LINE
8
BLACK
6
CONTINUOUS
10
7.83167
20
-4.94351
11
7.84025
21
-4.95334
0
LINE
8
BLACK
6
CONTINUOUS
10
7.84025
20
-4.95334
11
7.84991
21
-4.96213
0
LINE
8
BLACK
6
CONTINUOUS
10
7.84991
20
-4.96213
11
7.86051
21
-4.96975
0
LINE
8
BLACK
6
CONTINUOUS
10
7.86051
20
-4.96975
11
7.87191
21
-4.97609
0
LINE
8
BLACK
6
CONTINUOUS
10
7.87191
20
-4.97609
11
7.88397
21
-4.98109
0
LINE
8
BLACK
6
CONTINUOUS
10
7.88397
20
-4.98109
11
7.89653
21
-4.98467
0
LINE
8
BLACK
6
CONTINUOUS
10
7.89653
20
-4.98467
11
7.90941
21
-4.98678
0
LINE
8
BLACK
6
CONTINUOUS
10
7.90941
20
-4.98678
11
7.92245
21
-4.98739
0
LINE
8
BLACK
6
CONTINUOUS
10
7.92245
20
-4.98739
11
7.93547
21
-4.9865
0
LINE
8
BLACK
6
CONTINUOUS
10
7.93547
20
-4.9865
11
7.9483
21
-4.98412
0
LINE
8
BLACK
6
CONTINUOUS
10
7.9483
20
-4.98412
11
7.96078
21
-4.98029
0
LINE
8
BLACK
6
CONTINUOUS
10
7.96078
20
-4.98029
11
7.97273
21
-4.97504
0
LINE
8
BLACK
6
CONTINUOUS
10
7.97273
20
-4.97504
11
7.984
21
-4.96845
0
LINE
8
BLACK
6
CONTINUOUS
10
7.984
20
-4.96845
11
7.99444
21
-4.96062
0
LINE
8
BLACK
6
CONTINUOUS
10
7.99444
20
-4.96062
11
8.00391
21
-4.95163
0
LINE
8
BLACK
6
CONTINUOUS
10
8.00391
20
-4.95163
11
8.01228
21
-4.94162
0
LINE
8
BLACK
6
CONTINUOUS
10
8.01228
20
-4.94162
11
8.01945
21
-4.93071
0
LINE
8
BLACK
6
CONTINUOUS
10
8.01945
20
-4.93071
11
8.02532
21
-4.91904
0
LINE
8
BLACK
6
CONTINUOUS
10
8.02532
20
-4.91904
11
8.0298
21
-4.90679
0
LINE
8
BLACK
6
CONTINUOUS
10
8.0298
20
-4.90679
11
8.03285
21
-4.89409
0
LINE
8
BLACK
6
CONTINUOUS
10
8.03285
20
-4.89409
11
8.03442
21
-4.88113
0
LINE
8
BLACK
6
CONTINUOUS
10
8.03442
20
-4.88113
11
8.03464
21
-4.87402
0
LINE
8
BLACK
6
CONTINUOUS
10
8.03464
20
-4.87402
11
8.03389
21
-4.86098
0
LINE
8
BLACK
6
CONTINUOUS
10
8.03389
20
-4.86098
11
8.03164
21
-4.84813
0
LINE
8
BLACK
6
CONTINUOUS
10
8.03164
20
-4.84813
11
8.02794
21
-4.83561
0
LINE
8
BLACK
6
CONTINUOUS
10
8.02794
20
-4.83561
11
8.02282
21
-4.8236
0
LINE
8
BLACK
6
CONTINUOUS
10
8.02282
20
-4.8236
11
8.01635
21
-4.81226
0
LINE
8
BLACK
6
CONTINUOUS
10
8.01635
20
-4.81226
11
8.00862
21
-4.80174
0
LINE
8
BLACK
6
CONTINUOUS
10
8.00862
20
-4.80174
11
7.99974
21
-4.79218
0
LINE
8
BLACK
6
CONTINUOUS
10
7.99974
20
-4.79218
11
7.98981
21
-4.7837
0
LINE
8
BLACK
6
CONTINUOUS
10
7.98981
20
-4.7837
11
7.97898
21
-4.77642
0
LINE
8
BLACK
6
CONTINUOUS
10
7.97898
20
-4.77642
11
7.96738
21
-4.77044
0
LINE
8
BLACK
6
CONTINUOUS
10
7.96738
20
-4.77044
11
7.95517
21
-4.76582
0
LINE
8
BLACK
6
CONTINUOUS
10
7.95517
20
-4.76582
11
7.94251
21
-4.76264
0
LINE
8
BLACK
6
CONTINUOUS
10
7.94251
20
-4.76264
11
7.92956
21
-4.76094
0
LINE
8
BLACK
6
CONTINUOUS
10
7.92956
20
-4.76094
11
7.91651
21
-4.76073
0
LINE
8
BLACK
6
CONTINUOUS
10
7.91651
20
-4.76073
11
7.90352
21
-4.76203
0
LINE
8
BLACK
6
CONTINUOUS
10
7.90352
20
-4.76203
11
7.89077
21
-4.76481
0
LINE
8
BLACK
6
CONTINUOUS
10
7.89077
20
-4.76481
11
7.87842
21
-4.76904
0
LINE
8
BLACK
6
CONTINUOUS
10
7.87842
20
-4.76904
11
7.86664
21
-4.77466
0
LINE
8
BLACK
6
CONTINUOUS
10
7.86664
20
-4.77466
11
7.85558
21
-4.7816
0
LINE
8
BLACK
6
CONTINUOUS
10
7.85558
20
-4.7816
11
7.84539
21
-4.78976
0
LINE
8
BLACK
6
CONTINUOUS
10
7.84539
20
-4.78976
11
7.83621
21
-4.79904
0
LINE
8
BLACK
6
CONTINUOUS
10
7.83621
20
-4.79904
11
7.82816
21
-4.80931
0
LINE
8
BLACK
6
CONTINUOUS
10
7.82816
20
-4.80931
11
7.82134
21
-4.82044
0
LINE
8
BLACK
6
CONTINUOUS
10
7.82134
20
-4.82044
11
7.81584
21
-4.83228
0
LINE
8
BLACK
6
CONTINUOUS
10
7.81584
20
-4.83228
11
7.81174
21
-4.84467
0
LINE
8
BLACK
6
CONTINUOUS
10
7.81174
20
-4.84467
11
7.8091
21
-4.85745
0
LINE
8
BLACK
6
CONTINUOUS
10
7.8091
20
-4.85745
11
7.80793
21
-4.87045
0
LINE
8
BLACK
6
CONTINUOUS
10
7.80793
20
-4.87045
11
7.80828
21
-4.8835
0
LINE
8
BLACK
6
CONTINUOUS
10
7.80828
20
-4.8835
11
7.81012
21
-4.89643
0
LINE
8
BLACK
6
CONTINUOUS
10
8.8034
20
-4.85326
11
8.80609
21
-4.84027
0
LINE
8
BLACK
6
CONTINUOUS
10
8.80609
20
-4.84027
11
8.81025
21
-4.82769
0
LINE
8
BLACK
6
CONTINUOUS
10
8.81025
20
-4.82769
11
8.81583
21
-4.81566
0
LINE
8
BLACK
6
CONTINUOUS
10
8.81583
20
-4.81566
11
8.82276
21
-4.80436
0
LINE
8
BLACK
6
CONTINUOUS
10
8.82276
20
-4.80436
11
8.83094
21
-4.79392
0
LINE
8
BLACK
6
CONTINUOUS
10
8.83094
20
-4.79392
11
8.84027
21
-4.7845
0
LINE
8
BLACK
6
CONTINUOUS
10
8.84027
20
-4.7845
11
8.85061
21
-4.77621
0
LINE
8
BLACK
6
CONTINUOUS
10
8.85061
20
-4.77621
11
8.86185
21
-4.76917
0
LINE
8
BLACK
6
CONTINUOUS
10
8.86185
20
-4.76917
11
8.87381
21
-4.76346
0
LINE
8
BLACK
6
CONTINUOUS
10
8.87381
20
-4.76346
11
8.88635
21
-4.75916
0
LINE
8
BLACK
6
CONTINUOUS
10
8.88635
20
-4.75916
11
8.89931
21
-4.75634
0
LINE
8
BLACK
6
CONTINUOUS
10
8.89931
20
-4.75634
11
8.9125
21
-4.75502
0
LINE
8
BLACK
6
CONTINUOUS
10
8.9125
20
-4.75502
11
8.92576
21
-4.75523
0
LINE
8
BLACK
6
CONTINUOUS
10
8.92576
20
-4.75523
11
8.9389
21
-4.75696
0
LINE
8
BLACK
6
CONTINUOUS
10
8.9389
20
-4.75696
11
8.95176
21
-4.76019
0
LINE
8
BLACK
6
CONTINUOUS
10
8.95176
20
-4.76019
11
8.96416
21
-4.76488
0
LINE
8
BLACK
6
CONTINUOUS
10
8.96416
20
-4.76488
11
8.97594
21
-4.77096
0
LINE
8
BLACK
6
CONTINUOUS
10
8.97594
20
-4.77096
11
8.98695
21
-4.77835
0
LINE
8
BLACK
6
CONTINUOUS
10
8.98695
20
-4.77835
11
8.99703
21
-4.78696
0
LINE
8
BLACK
6
CONTINUOUS
10
8.99703
20
-4.78696
11
9.00605
21
-4.79667
0
LINE
8
BLACK
6
CONTINUOUS
10
9.00605
20
-4.79667
11
9.0139
21
-4.80736
0
LINE
8
BLACK
6
CONTINUOUS
10
9.0139
20
-4.80736
11
9.02047
21
-4.81888
0
LINE
8
BLACK
6
CONTINUOUS
10
9.02047
20
-4.81888
11
9.02567
21
-4.83107
0
LINE
8
BLACK
6
CONTINUOUS
10
9.02567
20
-4.83107
11
9.02944
21
-4.84378
0
LINE
8
BLACK
6
CONTINUOUS
10
9.02944
20
-4.84378
11
9.03172
21
-4.85684
0
LINE
8
BLACK
6
CONTINUOUS
10
9.03172
20
-4.85684
11
9.03248
21
-4.87008
0
LINE
8
BLACK
6
CONTINUOUS
10
9.03248
20
-4.87008
11
9.03225
21
-4.87731
0
LINE
8
BLACK
6
CONTINUOUS
10
9.03225
20
-4.87731
11
9.03066
21
-4.89047
0
LINE
8
BLACK
6
CONTINUOUS
10
9.03066
20
-4.89047
11
9.02757
21
-4.90336
0
LINE
8
BLACK
6
CONTINUOUS
10
9.02757
20
-4.90336
11
9.02301
21
-4.91581
0
LINE
8
BLACK
6
CONTINUOUS
10
9.02301
20
-4.91581
11
9.01705
21
-4.92766
0
LINE
8
BLACK
6
CONTINUOUS
10
9.01705
20
-4.92766
11
9.00977
21
-4.93874
0
LINE
8
BLACK
6
CONTINUOUS
10
9.00977
20
-4.93874
11
9.00127
21
-4.94891
0
LINE
8
BLACK
6
CONTINUOUS
10
9.00127
20
-4.94891
11
8.99165
21
-4.95804
0
LINE
8
BLACK
6
CONTINUOUS
10
8.99165
20
-4.95804
11
8.98105
21
-4.966
0
LINE
8
BLACK
6
CONTINUOUS
10
8.98105
20
-4.966
11
8.9696
21
-4.97268
0
LINE
8
BLACK
6
CONTINUOUS
10
8.9696
20
-4.97268
11
8.95746
21
-4.97801
0
LINE
8
BLACK
6
CONTINUOUS
10
8.95746
20
-4.97801
11
8.94479
21
-4.98191
0
LINE
8
BLACK
6
CONTINUOUS
10
8.94479
20
-4.98191
11
8.93176
21
-4.98433
0
LINE
8
BLACK
6
CONTINUOUS
10
8.93176
20
-4.98433
11
8.91853
21
-4.98523
0
LINE
8
BLACK
6
CONTINUOUS
10
8.91853
20
-4.98523
11
8.90529
21
-4.98461
0
LINE
8
BLACK
6
CONTINUOUS
10
8.90529
20
-4.98461
11
8.8922
21
-4.98246
0
LINE
8
BLACK
6
CONTINUOUS
10
8.8922
20
-4.98246
11
8.87945
21
-4.97883
0
LINE
8
BLACK
6
CONTINUOUS
10
8.87945
20
-4.97883
11
8.8672
21
-4.97376
0
LINE
8
BLACK
6
CONTINUOUS
10
8.8672
20
-4.97376
11
8.85562
21
-4.96731
0
LINE
8
BLACK
6
CONTINUOUS
10
8.85562
20
-4.96731
11
8.84485
21
-4.95957
0
LINE
8
BLACK
6
CONTINUOUS
10
8.84485
20
-4.95957
11
8.83505
21
-4.95065
0
LINE
8
BLACK
6
CONTINUOUS
10
8.83505
20
-4.95065
11
8.82633
21
-4.94066
0
LINE
8
BLACK
6
CONTINUOUS
10
8.82633
20
-4.94066
11
8.81882
21
-4.92973
0
LINE
8
BLACK
6
CONTINUOUS
10
8.81882
20
-4.92973
11
8.81262
21
-4.91802
0
LINE
8
BLACK
6
CONTINUOUS
10
8.81262
20
-4.91802
11
8.8078
21
-4.90566
0
LINE
8
BLACK
6
CONTINUOUS
10
8.8078
20
-4.90566
11
8.80444
21
-4.89284
0
LINE
8
BLACK
6
CONTINUOUS
10
8.80444
20
-4.89284
11
8.80257
21
-4.87971
0
LINE
8
BLACK
6
CONTINUOUS
10
8.80257
20
-4.87971
11
8.80222
21
-4.86652
0
LINE
8
BLACK
6
CONTINUOUS
10
8.80222
20
-4.86652
11
8.80222
21
-4.86646
0
LINE
8
BLACK
6
CONTINUOUS
10
8.80222
20
-4.86646
11
8.8034
21
-4.85326
0
LINE
8
BLACK
6
CONTINUOUS
10
8.80618
20
-4.89249
11
8.80949
21
-4.90512
0
LINE
8
BLACK
6
CONTINUOUS
10
8.80949
20
-4.90512
11
8.81423
21
-4.91728
0
LINE
8
BLACK
6
CONTINUOUS
10
8.81423
20
-4.91728
11
8.82034
21
-4.92881
0
LINE
8
BLACK
6
CONTINUOUS
10
8.82034
20
-4.92881
11
8.82773
21
-4.93957
0
LINE
8
BLACK
6
CONTINUOUS
10
8.82773
20
-4.93957
11
8.83632
21
-4.94941
0
LINE
8
BLACK
6
CONTINUOUS
10
8.83632
20
-4.94941
11
8.84597
21
-4.95819
0
LINE
8
BLACK
6
CONTINUOUS
10
8.84597
20
-4.95819
11
8.85657
21
-4.96581
0
LINE
8
BLACK
6
CONTINUOUS
10
8.85657
20
-4.96581
11
8.86798
21
-4.97216
0
LINE
8
BLACK
6
CONTINUOUS
10
8.86798
20
-4.97216
11
8.88004
21
-4.97715
0
LINE
8
BLACK
6
CONTINUOUS
10
8.88004
20
-4.97715
11
8.89259
21
-4.98073
0
LINE
8
BLACK
6
CONTINUOUS
10
8.89259
20
-4.98073
11
8.90547
21
-4.98284
0
LINE
8
BLACK
6
CONTINUOUS
10
8.90547
20
-4.98284
11
8.91851
21
-4.98345
0
LINE
8
BLACK
6
CONTINUOUS
10
8.91851
20
-4.98345
11
8.93153
21
-4.98257
0
LINE
8
BLACK
6
CONTINUOUS
10
8.93153
20
-4.98257
11
8.94437
21
-4.98019
0
LINE
8
BLACK
6
CONTINUOUS
10
8.94437
20
-4.98019
11
8.95684
21
-4.97635
0
LINE
8
BLACK
6
CONTINUOUS
10
8.95684
20
-4.97635
11
8.9688
21
-4.9711
0
LINE
8
BLACK
6
CONTINUOUS
10
8.9688
20
-4.9711
11
8.98007
21
-4.96452
0
LINE
8
BLACK
6
CONTINUOUS
10
8.98007
20
-4.96452
11
8.99051
21
-4.95668
0
LINE
8
BLACK
6
CONTINUOUS
10
8.99051
20
-4.95668
11
8.99997
21
-4.94769
0
LINE
8
BLACK
6
CONTINUOUS
10
8.99997
20
-4.94769
11
9.00835
21
-4.93768
0
LINE
8
BLACK
6
CONTINUOUS
10
9.00835
20
-4.93768
11
9.01551
21
-4.92677
0
LINE
8
BLACK
6
CONTINUOUS
10
9.01551
20
-4.92677
11
9.02138
21
-4.91511
0
LINE
8
BLACK
6
CONTINUOUS
10
9.02138
20
-4.91511
11
9.02586
21
-4.90285
0
LINE
8
BLACK
6
CONTINUOUS
10
9.02586
20
-4.90285
11
9.02891
21
-4.89016
0
LINE
8
BLACK
6
CONTINUOUS
10
9.02891
20
-4.89016
11
9.03048
21
-4.8772
0
LINE
8
BLACK
6
CONTINUOUS
10
9.03048
20
-4.8772
11
9.0307
21
-4.87008
0
LINE
8
BLACK
6
CONTINUOUS
10
9.0307
20
-4.87008
11
9.02995
21
-4.85705
0
LINE
8
BLACK
6
CONTINUOUS
10
9.02995
20
-4.85705
11
9.02771
21
-4.84419
0
LINE
8
BLACK
6
CONTINUOUS
10
9.02771
20
-4.84419
11
9.024
21
-4.83167
0
LINE
8
BLACK
6
CONTINUOUS
10
9.024
20
-4.83167
11
9.01888
21
-4.81967
0
LINE
8
BLACK
6
CONTINUOUS
10
9.01888
20
-4.81967
11
9.01241
21
-4.80833
0
LINE
8
BLACK
6
CONTINUOUS
10
9.01241
20
-4.80833
11
9.00468
21
-4.79781
0
LINE
8
BLACK
6
CONTINUOUS
10
9.00468
20
-4.79781
11
8.9958
21
-4.78824
0
LINE
8
BLACK
6
CONTINUOUS
10
8.9958
20
-4.78824
11
8.98587
21
-4.77977
0
LINE
8
BLACK
6
CONTINUOUS
10
8.98587
20
-4.77977
11
8.97504
21
-4.77249
0
LINE
8
BLACK
6
CONTINUOUS
10
8.97504
20
-4.77249
11
8.96344
21
-4.7665
0
LINE
8
BLACK
6
CONTINUOUS
10
8.96344
20
-4.7665
11
8.95123
21
-4.76189
0
LINE
8
BLACK
6
CONTINUOUS
10
8.95123
20
-4.76189
11
8.93857
21
-4.75871
0
LINE
8
BLACK
6
CONTINUOUS
10
8.93857
20
-4.75871
11
8.92563
21
-4.757
0
LINE
8
BLACK
6
CONTINUOUS
10
8.92563
20
-4.757
11
8.91257
21
-4.7568
0
LINE
8
BLACK
6
CONTINUOUS
10
8.91257
20
-4.7568
11
8.89959
21
-4.75809
0
LINE
8
BLACK
6
CONTINUOUS
10
8.89959
20
-4.75809
11
8.88683
21
-4.76087
0
LINE
8
BLACK
6
CONTINUOUS
10
8.88683
20
-4.76087
11
8.87448
21
-4.7651
0
LINE
8
BLACK
6
CONTINUOUS
10
8.87448
20
-4.7651
11
8.8627
21
-4.77072
0
LINE
8
BLACK
6
CONTINUOUS
10
8.8627
20
-4.77072
11
8.85164
21
-4.77766
0
LINE
8
BLACK
6
CONTINUOUS
10
8.85164
20
-4.77766
11
8.84146
21
-4.78582
0
LINE
8
BLACK
6
CONTINUOUS
10
8.84146
20
-4.78582
11
8.83227
21
-4.7951
0
LINE
8
BLACK
6
CONTINUOUS
10
8.83227
20
-4.7951
11
8.82422
21
-4.80537
0
LINE
8
BLACK
6
CONTINUOUS
10
8.82422
20
-4.80537
11
8.8174
21
-4.8165
0
LINE
8
BLACK
6
CONTINUOUS
10
8.8174
20
-4.8165
11
8.8119
21
-4.82834
0
LINE
8
BLACK
6
CONTINUOUS
10
8.8119
20
-4.82834
11
8.80781
21
-4.84073
0
LINE
8
BLACK
6
CONTINUOUS
10
8.80781
20
-4.84073
11
8.80516
21
-4.85352
0
LINE
8
BLACK
6
CONTINUOUS
10
8.80516
20
-4.85352
11
8.804
21
-4.86652
0
LINE
8
BLACK
6
CONTINUOUS
10
8.804
20
-4.86652
11
8.80434
21
-4.87957
0
LINE
8
BLACK
6
CONTINUOUS
10
8.80434
20
-4.87957
11
8.80618
21
-4.89249
0
LINE
8
BLACK
6
CONTINUOUS
10
9.3034
20
-4.85326
11
9.30609
21
-4.84027
0
LINE
8
BLACK
6
CONTINUOUS
10
9.30609
20
-4.84027
11
9.31025
21
-4.82769
0
LINE
8
BLACK
6
CONTINUOUS
10
9.31025
20
-4.82769
11
9.31583
21
-4.81566
0
LINE
8
BLACK
6
CONTINUOUS
10
9.31583
20
-4.81566
11
9.32276
21
-4.80436
0
LINE
8
BLACK
6
CONTINUOUS
10
9.32276
20
-4.80436
11
9.33094
21
-4.79392
0
LINE
8
BLACK
6
CONTINUOUS
10
9.33094
20
-4.79392
11
9.34027
21
-4.7845
0
LINE
8
BLACK
6
CONTINUOUS
10
9.34027
20
-4.7845
11
9.35061
21
-4.77621
0
LINE
8
BLACK
6
CONTINUOUS
10
9.35061
20
-4.77621
11
9.36185
21
-4.76917
0
LINE
8
BLACK
6
CONTINUOUS
10
9.36185
20
-4.76917
11
9.37381
21
-4.76346
0
LINE
8
BLACK
6
CONTINUOUS
10
9.37381
20
-4.76346
11
9.38635
21
-4.75916
0
LINE
8
BLACK
6
CONTINUOUS
10
9.38635
20
-4.75916
11
9.39931
21
-4.75634
0
LINE
8
BLACK
6
CONTINUOUS
10
9.39931
20
-4.75634
11
9.4125
21
-4.75502
0
LINE
8
BLACK
6
CONTINUOUS
10
9.4125
20
-4.75502
11
9.42576
21
-4.75523
0
LINE
8
BLACK
6
CONTINUOUS
10
9.42576
20
-4.75523
11
9.4389
21
-4.75696
0
LINE
8
BLACK
6
CONTINUOUS
10
9.4389
20
-4.75696
11
9.45176
21
-4.76019
0
LINE
8
BLACK
6
CONTINUOUS
10
9.45176
20
-4.76019
11
9.46416
21
-4.76488
0
LINE
8
BLACK
6
CONTINUOUS
10
9.46416
20
-4.76488
11
9.47594
21
-4.77096
0
LINE
8
BLACK
6
CONTINUOUS
10
9.47594
20
-4.77096
11
9.48695
21
-4.77835
0
LINE
8
BLACK
6
CONTINUOUS
10
9.48695
20
-4.77835
11
9.49703
21
-4.78696
0
LINE
8
BLACK
6
CONTINUOUS
10
9.49703
20
-4.78696
11
9.50605
21
-4.79667
0
LINE
8
BLACK
6
CONTINUOUS
10
9.50605
20
-4.79667
11
9.5139
21
-4.80736
0
LINE
8
BLACK
6
CONTINUOUS
10
9.5139
20
-4.80736
11
9.52047
21
-4.81888
0
LINE
8
BLACK
6
CONTINUOUS
10
9.52047
20
-4.81888
11
9.52567
21
-4.83107
0
LINE
8
BLACK
6
CONTINUOUS
10
9.52567
20
-4.83107
11
9.52944
21
-4.84378
0
LINE
8
BLACK
6
CONTINUOUS
10
9.52944
20
-4.84378
11
9.53172
21
-4.85684
0
LINE
8
BLACK
6
CONTINUOUS
10
9.53172
20
-4.85684
11
9.53248
21
-4.87008
0
LINE
8
BLACK
6
CONTINUOUS
10
9.53248
20
-4.87008
11
9.53225
21
-4.87731
0
LINE
8
BLACK
6
CONTINUOUS
10
9.53225
20
-4.87731
11
9.53066
21
-4.89047
0
LINE
8
BLACK
6
CONTINUOUS
10
9.53066
20
-4.89047
11
9.52757
21
-4.90336
0
LINE
8
BLACK
6
CONTINUOUS
10
9.52757
20
-4.90336
11
9.52301
21
-4.91581
0
LINE
8
BLACK
6
CONTINUOUS
10
9.52301
20
-4.91581
11
9.51705
21
-4.92766
0
LINE
8
BLACK
6
CONTINUOUS
10
9.51705
20
-4.92766
11
9.50977
21
-4.93874
0
LINE
8
BLACK
6
CONTINUOUS
10
9.50977
20
-4.93874
11
9.50127
21
-4.94891
0
LINE
8
BLACK
6
CONTINUOUS
10
9.50127
20
-4.94891
11
9.49165
21
-4.95804
0
LINE
8
BLACK
6
CONTINUOUS
10
9.49165
20
-4.95804
11
9.48105
21
-4.966
0
LINE
8
BLACK
6
CONTINUOUS
10
9.48105
20
-4.966
11
9.4696
21
-4.97268
0
LINE
8
BLACK
6
CONTINUOUS
10
9.4696
20
-4.97268
11
9.45746
21
-4.97801
0
LINE
8
BLACK
6
CONTINUOUS
10
9.45746
20
-4.97801
11
9.44479
21
-4.98191
0
LINE
8
BLACK
6
CONTINUOUS
10
9.44479
20
-4.98191
11
9.43176
21
-4.98433
0
LINE
8
BLACK
6
CONTINUOUS
10
9.43176
20
-4.98433
11
9.41853
21
-4.98523
0
LINE
8
BLACK
6
CONTINUOUS
10
9.41853
20
-4.98523
11
9.40529
21
-4.98461
0
LINE
8
BLACK
6
CONTINUOUS
10
9.40529
20
-4.98461
11
9.3922
21
-4.98246
0
LINE
8
BLACK
6
CONTINUOUS
10
9.3922
20
-4.98246
11
9.37945
21
-4.97883
0
LINE
8
BLACK
6
CONTINUOUS
10
9.37945
20
-4.97883
11
9.3672
21
-4.97376
0
LINE
8
BLACK
6
CONTINUOUS
10
9.3672
20
-4.97376
11
9.35562
21
-4.96731
0
LINE
8
BLACK
6
CONTINUOUS
10
9.35562
20
-4.96731
11
9.34485
21
-4.95957
0
LINE
8
BLACK
6
CONTINUOUS
10
9.34485
20
-4.95957
11
9.33505
21
-4.95065
0
LINE
8
BLACK
6
CONTINUOUS
10
9.33505
20
-4.95065
11
9.32633
21
-4.94066
0
LINE
8
BLACK
6
CONTINUOUS
10
9.32633
20
-4.94066
11
9.31882
21
-4.92973
0
LINE
8
BLACK
6
CONTINUOUS
10
9.31882
20
-4.92973
11
9.31262
21
-4.91802
0
LINE
8
BLACK
6
CONTINUOUS
10
9.31262
20
-4.91802
11
9.3078
21
-4.90566
0
LINE
8
BLACK
6
CONTINUOUS
10
9.3078
20
-4.90566
11
9.30444
21
-4.89284
0
LINE
8
BLACK
6
CONTINUOUS
10
9.30444
20
-4.89284
11
9.30257
21
-4.87971
0
LINE
8
BLACK
6
CONTINUOUS
10
9.30257
20
-4.87971
11
9.30222
21
-4.86652
0
LINE
8
BLACK
6
CONTINUOUS
10
9.30222
20
-4.86652
11
9.30222
21
-4.86646
0
LINE
8
BLACK
6
CONTINUOUS
10
9.30222
20
-4.86646
11
9.3034
21
-4.85326
0
LINE
8
BLACK
6
CONTINUOUS
10
9.30618
20
-4.89249
11
9.30949
21
-4.90512
0
LINE
8
BLACK
6
CONTINUOUS
10
9.30949
20
-4.90512
11
9.31423
21
-4.91728
0
LINE
8
BLACK
6
CONTINUOUS
10
9.31423
20
-4.91728
11
9.32034
21
-4.92881
0
LINE
8
BLACK
6
CONTINUOUS
10
9.32034
20
-4.92881
11
9.32773
21
-4.93957
0
LINE
8
BLACK
6
CONTINUOUS
10
9.32773
20
-4.93957
11
9.33632
21
-4.94941
0
LINE
8
BLACK
6
CONTINUOUS
10
9.33632
20
-4.94941
11
9.34597
21
-4.95819
0
LINE
8
BLACK
6
CONTINUOUS
10
9.34597
20
-4.95819
11
9.35657
21
-4.96581
0
LINE
8
BLACK
6
CONTINUOUS
10
9.35657
20
-4.96581
11
9.36798
21
-4.97216
0
LINE
8
BLACK
6
CONTINUOUS
10
9.36798
20
-4.97216
11
9.38004
21
-4.97715
0
LINE
8
BLACK
6
CONTINUOUS
10
9.38004
20
-4.97715
11
9.39259
21
-4.98073
0
LINE
8
BLACK
6
CONTINUOUS
10
9.39259
20
-4.98073
11
9.40547
21
-4.98284
0
LINE
8
BLACK
6
CONTINUOUS
10
9.40547
20
-4.98284
11
9.41851
21
-4.98345
0
LINE
8
BLACK
6
CONTINUOUS
10
9.41851
20
-4.98345
11
9.43153
21
-4.98257
0
LINE
8
BLACK
6
CONTINUOUS
10
9.43153
20
-4.98257
11
9.44437
21
-4.98019
0
LINE
8
BLACK
6
CONTINUOUS
10
9.44437
20
-4.98019
11
9.45684
21
-4.97635
0
LINE
8
BLACK
6
CONTINUOUS
10
9.45684
20
-4.97635
11
9.4688
21
-4.9711
0
LINE
8
BLACK
6
CONTINUOUS
10
9.4688
20
-4.9711
11
9.48007
21
-4.96452
0
LINE
8
BLACK
6
CONTINUOUS
10
9.48007
20
-4.96452
11
9.49051
21
-4.95668
0
LINE
8
BLACK
6
CONTINUOUS
10
9.49051
20
-4.95668
11
9.49997
21
-4.94769
0
LINE
8
BLACK
6
CONTINUOUS
10
9.49997
20
-4.94769
11
9.50835
21
-4.93768
0
LINE
8
BLACK
6
CONTINUOUS
10
9.50835
20
-4.93768
11
9.51551
21
-4.92677
0
LINE
8
BLACK
6
CONTINUOUS
10
9.51551
20
-4.92677
11
9.52138
21
-4.91511
0
LINE
8
BLACK
6
CONTINUOUS
10
9.52138
20
-4.91511
11
9.52586
21
-4.90285
0
LINE
8
BLACK
6
CONTINUOUS
10
9.52586
20
-4.90285
11
9.52891
21
-4.89016
0
LINE
8
BLACK
6
CONTINUOUS
10
9.52891
20
-4.89016
11
9.53048
21
-4.8772
0
LINE
8
BLACK
6
CONTINUOUS
10
9.53048
20
-4.8772
11
9.5307
21
-4.87008
0
LINE
8
BLACK
6
CONTINUOUS
10
9.5307
20
-4.87008
11
9.52995
21
-4.85705
0
LINE
8
BLACK
6
CONTINUOUS
10
9.52995
20
-4.85705
11
9.52771
21
-4.84419
0
LINE
8
BLACK
6
CONTINUOUS
10
9.52771
20
-4.84419
11
9.524
21
-4.83167
0
LINE
8
BLACK
6
CONTINUOUS
10
9.524
20
-4.83167
11
9.51888
21
-4.81967
0
LINE
8
BLACK
6
CONTINUOUS
10
9.51888
20
-4.81967
11
9.51241
21
-4.80833
0
LINE
8
BLACK
6
CONTINUOUS
10
9.51241
20
-4.80833
11
9.50468
21
-4.79781
0
LINE
8
BLACK
6
CONTINUOUS
10
9.50468
20
-4.79781
11
9.4958
21
-4.78824
0
LINE
8
BLACK
6
CONTINUOUS
10
9.4958
20
-4.78824
11
9.48587
21
-4.77977
0
LINE
8
BLACK
6
CONTINUOUS
10
9.48587
20
-4.77977
11
9.47504
21
-4.77249
0
LINE
8
BLACK
6
CONTINUOUS
10
9.47504
20
-4.77249
11
9.46344
21
-4.7665
0
LINE
8
BLACK
6
CONTINUOUS
10
9.46344
20
-4.7665
11
9.45123
21
-4.76189
0
LINE
8
BLACK
6
CONTINUOUS
10
9.45123
20
-4.76189
11
9.43857
21
-4.75871
0
LINE
8
BLACK
6
CONTINUOUS
10
9.43857
20
-4.75871
11
9.42563
21
-4.757
0
LINE
8
BLACK
6
CONTINUOUS
10
9.42563
20
-4.757
11
9.41257
21
-4.7568
0
LINE
8
BLACK
6
CONTINUOUS
10
9.41257
20
-4.7568
11
9.39959
21
-4.75809
0
LINE
8
BLACK
6
CONTINUOUS
10
9.39959
20
-4.75809
11
9.38683
21
-4.76087
0
LINE
8
BLACK
6
CONTINUOUS
10
9.38683
20
-4.76087
11
9.37448
21
-4.7651
0
LINE
8
BLACK
6
CONTINUOUS
10
9.37448
20
-4.7651
11
9.3627
21
-4.77072
0
LINE
8
BLACK
6
CONTINUOUS
10
9.3627
20
-4.77072
11
9.35164
21
-4.77766
0
LINE
8
BLACK
6
CONTINUOUS
10
9.35164
20
-4.77766
11
9.34146
21
-4.78582
0
LINE
8
BLACK
6
CONTINUOUS
10
9.34146
20
-4.78582
11
9.33227
21
-4.7951
0
LINE
8
BLACK
6
CONTINUOUS
10
9.33227
20
-4.7951
11
9.32422
21
-4.80537
0
LINE
8
BLACK
6
CONTINUOUS
10
9.32422
20
-4.80537
11
9.3174
21
-4.8165
0
LINE
8
BLACK
6
CONTINUOUS
10
9.3174
20
-4.8165
11
9.3119
21
-4.82834
0
LINE
8
BLACK
6
CONTINUOUS
10
9.3119
20
-4.82834
11
9.30781
21
-4.84073
0
LINE
8
BLACK
6
CONTINUOUS
10
9.30781
20
-4.84073
11
9.30516
21
-4.85352
0
LINE
8
BLACK
6
CONTINUOUS
10
9.30516
20
-4.85352
11
9.304
21
-4.86652
0
LINE
8
BLACK
6
CONTINUOUS
10
9.304
20
-4.86652
11
9.30434
21
-4.87957
0
LINE
8
BLACK
6
CONTINUOUS
10
9.30434
20
-4.87957
11
9.30618
21
-4.89249
0
LINE
8
BLACK
6
CONTINUOUS
10
8.3034
20
-4.85326
11
8.30609
21
-4.84027
0
LINE
8
BLACK
6
CONTINUOUS
10
8.30609
20
-4.84027
11
8.31025
21
-4.82769
0
LINE
8
BLACK
6
CONTINUOUS
10
8.31025
20
-4.82769
11
8.31583
21
-4.81566
0
LINE
8
BLACK
6
CONTINUOUS
10
8.31583
20
-4.81566
11
8.32276
21
-4.80436
0
LINE
8
BLACK
6
CONTINUOUS
10
8.32276
20
-4.80436
11
8.33094
21
-4.79392
0
LINE
8
BLACK
6
CONTINUOUS
10
8.33094
20
-4.79392
11
8.34027
21
-4.7845
0
LINE
8
BLACK
6
CONTINUOUS
10
8.34027
20
-4.7845
11
8.35061
21
-4.77621
0
LINE
8
BLACK
6
CONTINUOUS
10
8.35061
20
-4.77621
11
8.36185
21
-4.76917
0
LINE
8
BLACK
6
CONTINUOUS
10
8.36185
20
-4.76917
11
8.37381
21
-4.76346
0
LINE
8
BLACK
6
CONTINUOUS
10
8.37381
20
-4.76346
11
8.38635
21
-4.75916
0
LINE
8
BLACK
6
CONTINUOUS
10
8.38635
20
-4.75916
11
8.39931
21
-4.75634
0
LINE
8
BLACK
6
CONTINUOUS
10
8.39931
20
-4.75634
11
8.4125
21
-4.75502
0
LINE
8
BLACK
6
CONTINUOUS
10
8.4125
20
-4.75502
11
8.42576
21
-4.75523
0
LINE
8
BLACK
6
CONTINUOUS
10
8.42576
20
-4.75523
11
8.4389
21
-4.75696
0
LINE
8
BLACK
6
CONTINUOUS
10
8.4389
20
-4.75696
11
8.45176
21
-4.76019
0
LINE
8
BLACK
6
CONTINUOUS
10
8.45176
20
-4.76019
11
8.46416
21
-4.76488
0
LINE
8
BLACK
6
CONTINUOUS
10
8.46416
20
-4.76488
11
8.47594
21
-4.77096
0
LINE
8
BLACK
6
CONTINUOUS
10
8.47594
20
-4.77096
11
8.48695
21
-4.77835
0
LINE
8
BLACK
6
CONTINUOUS
10
8.48695
20
-4.77835
11
8.49703
21
-4.78696
0
LINE
8
BLACK
6
CONTINUOUS
10
8.49703
20
-4.78696
11
8.50605
21
-4.79667
0
LINE
8
BLACK
6
CONTINUOUS
10
8.50605
20
-4.79667
11
8.5139
21
-4.80736
0
LINE
8
BLACK
6
CONTINUOUS
10
8.5139
20
-4.80736
11
8.52047
21
-4.81888
0
LINE
8
BLACK
6
CONTINUOUS
10
8.52047
20
-4.81888
11
8.52567
21
-4.83107
0
LINE
8
BLACK
6
CONTINUOUS
10
8.52567
20
-4.83107
11
8.52944
21
-4.84378
0
LINE
8
BLACK
6
CONTINUOUS
10
8.52944
20
-4.84378
11
8.53172
21
-4.85684
0
LINE
8
BLACK
6
CONTINUOUS
10
8.53172
20
-4.85684
11
8.53248
21
-4.87008
0
LINE
8
BLACK
6
CONTINUOUS
10
8.53248
20
-4.87008
11
8.53225
21
-4.87731
0
LINE
8
BLACK
6
CONTINUOUS
10
8.53225
20
-4.87731
11
8.53066
21
-4.89047
0
LINE
8
BLACK
6
CONTINUOUS
10
8.53066
20
-4.89047
11
8.52757
21
-4.90336
0
LINE
8
BLACK
6
CONTINUOUS
10
8.52757
20
-4.90336
11
8.52301
21
-4.91581
0
LINE
8
BLACK
6
CONTINUOUS
10
8.52301
20
-4.91581
11
8.51705
21
-4.92766
0
LINE
8
BLACK
6
CONTINUOUS
10
8.51705
20
-4.92766
11
8.50977
21
-4.93874
0
LINE
8
BLACK
6
CONTINUOUS
10
8.50977
20
-4.93874
11
8.50127
21
-4.94891
0
LINE
8
BLACK
6
CONTINUOUS
10
8.50127
20
-4.94891
11
8.49165
21
-4.95804
0
LINE
8
BLACK
6
CONTINUOUS
10
8.49165
20
-4.95804
11
8.48105
21
-4.966
0
LINE
8
BLACK
6
CONTINUOUS
10
8.48105
20
-4.966
11
8.4696
21
-4.97268
0
LINE
8
BLACK
6
CONTINUOUS
10
8.4696
20
-4.97268
11
8.45746
21
-4.97801
0
LINE
8
BLACK
6
CONTINUOUS
10
8.45746
20
-4.97801
11
8.44479
21
-4.98191
0
LINE
8
BLACK
6
CONTINUOUS
10
8.44479
20
-4.98191
11
8.43176
21
-4.98433
0
LINE
8
BLACK
6
CONTINUOUS
10
8.43176
20
-4.98433
11
8.41853
21
-4.98523
0
LINE
8
BLACK
6
CONTINUOUS
10
8.41853
20
-4.98523
11
8.40529
21
-4.98461
0
LINE
8
BLACK
6
CONTINUOUS
10
8.40529
20
-4.98461
11
8.3922
21
-4.98246
0
LINE
8
BLACK
6
CONTINUOUS
10
8.3922
20
-4.98246
11
8.37945
21
-4.97883
0
LINE
8
BLACK
6
CONTINUOUS
10
8.37945
20
-4.97883
11
8.3672
21
-4.97376
0
LINE
8
BLACK
6
CONTINUOUS
10
8.3672
20
-4.97376
11
8.35562
21
-4.96731
0
LINE
8
BLACK
6
CONTINUOUS
10
8.35562
20
-4.96731
11
8.34485
21
-4.95957
0
LINE
8
BLACK
6
CONTINUOUS
10
8.34485
20
-4.95957
11
8.33505
21
-4.95065
0
LINE
8
BLACK
6
CONTINUOUS
10
8.33505
20
-4.95065
11
8.32633
21
-4.94066
0
LINE
8
BLACK
6
CONTINUOUS
10
8.32633
20
-4.94066
11
8.31882
21
-4.92973
0
LINE
8
BLACK
6
CONTINUOUS
10
8.31882
20
-4.92973
11
8.31262
21
-4.91802
0
LINE
8
BLACK
6
CONTINUOUS
10
8.31262
20
-4.91802
11
8.3078
21
-4.90566
0
LINE
8
BLACK
6
CONTINUOUS
10
8.3078
20
-4.90566
11
8.30444
21
-4.89284
0
LINE
8
BLACK
6
CONTINUOUS
10
8.30444
20
-4.89284
11
8.30257
21
-4.87971
0
LINE
8
BLACK
6
CONTINUOUS
10
8.30257
20
-4.87971
11
8.30222
21
-4.86652
0
LINE
8
BLACK
6
CONTINUOUS
10
8.30222
20
-4.86652
11
8.30222
21
-4.86646
0
LINE
8
BLACK
6
CONTINUOUS
10
8.30222
20
-4.86646
11
8.3034
21
-4.85326
0
LINE
8
BLACK
6
CONTINUOUS
10
8.30618
20
-4.89249
11
8.30949
21
-4.90512
0
LINE
8
BLACK
6
CONTINUOUS
10
8.30949
20
-4.90512
11
8.31423
21
-4.91728
0
LINE
8
BLACK
6
CONTINUOUS
10
8.31423
20
-4.91728
11
8.32034
21
-4.92881
0
LINE
8
BLACK
6
CONTINUOUS
10
8.32034
20
-4.92881
11
8.32773
21
-4.93957
0
LINE
8
BLACK
6
CONTINUOUS
10
8.32773
20
-4.93957
11
8.33632
21
-4.94941
0
LINE
8
BLACK
6
CONTINUOUS
10
8.33632
20
-4.94941
11
8.34597
21
-4.95819
0
LINE
8
BLACK
6
CONTINUOUS
10
8.34597
20
-4.95819
11
8.35657
21
-4.96581
0
LINE
8
BLACK
6
CONTINUOUS
10
8.35657
20
-4.96581
11
8.36798
21
-4.97216
0
LINE
8
BLACK
6
CONTINUOUS
10
8.36798
20
-4.97216
11
8.38004
21
-4.97715
0
LINE
8
BLACK
6
CONTINUOUS
10
8.38004
20
-4.97715
11
8.39259
21
-4.98073
0
LINE
8
BLACK
6
CONTINUOUS
10
8.39259
20
-4.98073
11
8.40547
21
-4.98284
0
LINE
8
BLACK
6
CONTINUOUS
10
8.40547
20
-4.98284
11
8.41851
21
-4.98345
0
LINE
8
BLACK
6
CONTINUOUS
10
8.41851
20
-4.98345
11
8.43153
21
-4.98257
0
LINE
8
BLACK
6
CONTINUOUS
10
8.43153
20
-4.98257
11
8.44437
21
-4.98019
0
LINE
8
BLACK
6
CONTINUOUS
10
8.44437
20
-4.98019
11
8.45684
21
-4.97635
0
LINE
8
BLACK
6
CONTINUOUS
10
8.45684
20
-4.97635
11
8.4688
21
-4.9711
0
LINE
8
BLACK
6
CONTINUOUS
10
8.4688
20
-4.9711
11
8.48007
21
-4.96452
0
LINE
8
BLACK
6
CONTINUOUS
10
8.48007
20
-4.96452
11
8.49051
21
-4.95668
0
LINE
8
BLACK
6
CONTINUOUS
10
8.49051
20
-4.95668
11
8.49997
21
-4.94769
0
LINE
8
BLACK
6
CONTINUOUS
10
8.49997
20
-4.94769
11
8.50835
21
-4.93768
0
LINE
8
BLACK
6
CONTINUOUS
10
8.50835
20
-4.93768
11
8.51551
21
-4.92677
0
LINE
8
BLACK
6
CONTINUOUS
10
8.51551
20
-4.92677
11
8.52138
21
-4.91511
0
LINE
8
BLACK
6
CONTINUOUS
10
8.52138
20
-4.91511
11
8.52586
21
-4.90285
0
LINE
8
BLACK
6
CONTINUOUS
10
8.52586
20
-4.90285
11
8.52891
21
-4.89016
0
LINE
8
BLACK
6
CONTINUOUS
10
8.52891
20
-4.89016
11
8.53048
21
-4.8772
0
LINE
8
BLACK
6
CONTINUOUS
10
8.53048
20
-4.8772
11
8.5307
21
-4.87008
0
LINE
8
BLACK
6
CONTINUOUS
10
8.5307
20
-4.87008
11
8.52995
21
-4.85705
0
LINE
8
BLACK
6
CONTINUOUS
10
8.52995
20
-4.85705
11
8.52771
21
-4.84419
0
LINE
8
BLACK
6
CONTINUOUS
10
8.52771
20
-4.84419
11
8.524
21
-4.83167
0
LINE
8
BLACK
6
CONTINUOUS
10
8.524
20
-4.83167
11
8.51888
21
-4.81967
0
LINE
8
BLACK
6
CONTINUOUS
10
8.51888
20
-4.81967
11
8.51241
21
-4.80833
0
LINE
8
BLACK
6
CONTINUOUS
10
8.51241
20
-4.80833
11
8.50468
21
-4.79781
0
LINE
8
BLACK
6
CONTINUOUS
10
8.50468
20
-4.79781
11
8.4958
21
-4.78824
0
LINE
8
BLACK
6
CONTINUOUS
10
8.4958
20
-4.78824
11
8.48587
21
-4.77977
0
LINE
8
BLACK
6
CONTINUOUS
10
8.48587
20
-4.77977
11
8.47504
21
-4.77249
0
LINE
8
BLACK
6
CONTINUOUS
10
8.47504
20
-4.77249
11
8.46344
21
-4.7665
0
LINE
8
BLACK
6
CONTINUOUS
10
8.46344
20
-4.7665
11
8.45123
21
-4.76189
0
LINE
8
BLACK
6
CONTINUOUS
10
8.45123
20
-4.76189
11
8.43857
21
-4.75871
0
LINE
8
BLACK
6
CONTINUOUS
10
8.43857
20
-4.75871
11
8.42563
21
-4.757
0
LINE
8
BLACK
6
CONTINUOUS
10
8.42563
20
-4.757
11
8.41257
21
-4.7568
0
LINE
8
BLACK
6
CONTINUOUS
10
8.41257
20
-4.7568
11
8.39959
21
-4.75809
0
LINE
8
BLACK
6
CONTINUOUS
10
8.39959
20
-4.75809
11
8.38683
21
-4.76087
0
LINE
8
BLACK
6
CONTINUOUS
10
8.38683
20
-4.76087
11
8.37448
21
-4.7651
0
LINE
8
BLACK
6
CONTINUOUS
10
8.37448
20
-4.7651
11
8.3627
21
-4.77072
0
LINE
8
BLACK
6
CONTINUOUS
10
8.3627
20
-4.77072
11
8.35164
21
-4.77766
0
LINE
8
BLACK
6
CONTINUOUS
10
8.35164
20
-4.77766
11
8.34146
21
-4.78582
0
LINE
8
BLACK
6
CONTINUOUS
10
8.34146
20
-4.78582
11
8.33227
21
-4.7951
0
LINE
8
BLACK
6
CONTINUOUS
10
8.33227
20
-4.7951
11
8.32422
21
-4.80537
0
LINE
8
BLACK
6
CONTINUOUS
10
8.32422
20
-4.80537
11
8.3174
21
-4.8165
0
LINE
8
BLACK
6
CONTINUOUS
10
8.3174
20
-4.8165
11
8.3119
21
-4.82834
0
LINE
8
BLACK
6
CONTINUOUS
10
8.3119
20
-4.82834
11
8.30781
21
-4.84073
0
LINE
8
BLACK
6
CONTINUOUS
10
8.30781
20
-4.84073
11
8.30516
21
-4.85352
0
LINE
8
BLACK
6
CONTINUOUS
10
8.30516
20
-4.85352
11
8.304
21
-4.86652
0
LINE
8
BLACK
6
CONTINUOUS
10
8.304
20
-4.86652
11
8.30434
21
-4.87957
0
LINE
8
BLACK
6
CONTINUOUS
10
8.30434
20
-4.87957
11
8.30618
21
-4.89249
0
LINE
8
BLACK
6
CONTINUOUS
10
9.18115
20
-3.54529
11
9.18363
21
-3.53554
0
LINE
8
BLACK
6
CONTINUOUS
10
9.18363
20
-3.53554
11
9.18752
21
-3.52625
0
LINE
8
BLACK
6
CONTINUOUS
10
9.18752
20
-3.52625
11
9.19274
21
-3.51765
0
LINE
8
BLACK
6
CONTINUOUS
10
9.19274
20
-3.51765
11
9.19918
21
-3.50991
0
LINE
8
BLACK
6
CONTINUOUS
10
9.19918
20
-3.50991
11
9.20669
21
-3.50321
0
LINE
8
BLACK
6
CONTINUOUS
10
9.20669
20
-3.50321
11
9.21511
21
-3.49769
0
LINE
8
BLACK
6
CONTINUOUS
10
9.21511
20
-3.49769
11
9.22425
21
-3.49347
0
LINE
8
BLACK
6
CONTINUOUS
10
9.22425
20
-3.49347
11
9.23391
21
-3.49066
0
LINE
8
BLACK
6
CONTINUOUS
10
9.23391
20
-3.49066
11
9.24389
21
-3.4893
0
LINE
8
BLACK
6
CONTINUOUS
10
9.24389
20
-3.4893
11
9.25395
21
-3.48943
0
LINE
8
BLACK
6
CONTINUOUS
10
9.25395
20
-3.48943
11
9.26389
21
-3.49105
0
LINE
8
BLACK
6
CONTINUOUS
10
9.26389
20
-3.49105
11
9.27347
21
-3.49412
0
LINE
8
BLACK
6
CONTINUOUS
10
9.27347
20
-3.49412
11
9.2825
21
-3.49857
0
LINE
8
BLACK
6
CONTINUOUS
10
9.2825
20
-3.49857
11
9.29077
21
-3.50431
0
LINE
8
BLACK
6
CONTINUOUS
10
9.29077
20
-3.50431
11
9.2981
21
-3.5112
0
LINE
8
BLACK
6
CONTINUOUS
10
9.2981
20
-3.5112
11
9.30433
21
-3.51911
0
LINE
8
BLACK
6
CONTINUOUS
10
9.30433
20
-3.51911
11
9.30933
21
-3.52785
0
LINE
8
BLACK
6
CONTINUOUS
10
9.30933
20
-3.52785
11
9.31298
21
-3.53723
0
LINE
8
BLACK
6
CONTINUOUS
10
9.31298
20
-3.53723
11
9.3152
21
-3.54705
0
LINE
8
BLACK
6
CONTINUOUS
10
9.3152
20
-3.54705
11
9.31594
21
-3.55709
0
LINE
8
BLACK
6
CONTINUOUS
10
9.31594
20
-3.55709
11
9.31585
21
-3.56064
0
LINE
8
BLACK
6
CONTINUOUS
10
9.31585
20
-3.56064
11
9.31458
21
-3.57063
0
LINE
8
BLACK
6
CONTINUOUS
10
9.31458
20
-3.57063
11
9.31185
21
-3.58031
0
LINE
8
BLACK
6
CONTINUOUS
10
9.31185
20
-3.58031
11
9.30771
21
-3.58949
0
LINE
8
BLACK
6
CONTINUOUS
10
9.30771
20
-3.58949
11
9.30227
21
-3.59796
0
LINE
8
BLACK
6
CONTINUOUS
10
9.30227
20
-3.59796
11
9.29563
21
-3.60553
0
LINE
8
BLACK
6
CONTINUOUS
10
9.29563
20
-3.60553
11
9.28795
21
-3.61203
0
LINE
8
BLACK
6
CONTINUOUS
10
9.28795
20
-3.61203
11
9.27939
21
-3.61733
0
LINE
8
BLACK
6
CONTINUOUS
10
9.27939
20
-3.61733
11
9.27014
21
-3.6213
0
LINE
8
BLACK
6
CONTINUOUS
10
9.27014
20
-3.6213
11
9.26041
21
-3.62386
0
LINE
8
BLACK
6
CONTINUOUS
10
9.26041
20
-3.62386
11
9.2504
21
-3.62496
0
LINE
8
BLACK
6
CONTINUOUS
10
9.2504
20
-3.62496
11
9.24034
21
-3.62456
0
LINE
8
BLACK
6
CONTINUOUS
10
9.24034
20
-3.62456
11
9.23045
21
-3.62269
0
LINE
8
BLACK
6
CONTINUOUS
10
9.23045
20
-3.62269
11
9.22095
21
-3.61937
0
LINE
8
BLACK
6
CONTINUOUS
10
9.22095
20
-3.61937
11
9.21204
21
-3.61468
0
LINE
8
BLACK
6
CONTINUOUS
10
9.21204
20
-3.61468
11
9.20393
21
-3.60873
0
LINE
8
BLACK
6
CONTINUOUS
10
9.20393
20
-3.60873
11
9.19678
21
-3.60164
0
LINE
8
BLACK
6
CONTINUOUS
10
9.19678
20
-3.60164
11
9.19075
21
-3.59358
0
LINE
8
BLACK
6
CONTINUOUS
10
9.19075
20
-3.59358
11
9.18599
21
-3.58471
0
LINE
8
BLACK
6
CONTINUOUS
10
9.18599
20
-3.58471
11
9.18259
21
-3.57524
0
LINE
8
BLACK
6
CONTINUOUS
10
9.18259
20
-3.57524
11
9.18062
21
-3.56536
0
LINE
8
BLACK
6
CONTINUOUS
10
9.18062
20
-3.56536
11
9.18014
21
-3.55536
0
LINE
8
BLACK
6
CONTINUOUS
10
9.18014
20
-3.55536
11
9.18014
21
-3.55531
0
LINE
8
BLACK
6
CONTINUOUS
10
9.18014
20
-3.55531
11
9.18115
21
-3.54529
0
LINE
8
BLACK
6
CONTINUOUS
10
9.18431
20
-3.57476
11
9.18762
21
-3.58398
0
LINE
8
BLACK
6
CONTINUOUS
10
9.18762
20
-3.58398
11
9.19226
21
-3.59262
0
LINE
8
BLACK
6
CONTINUOUS
10
9.19226
20
-3.59262
11
9.19812
21
-3.60047
0
LINE
8
BLACK
6
CONTINUOUS
10
9.19812
20
-3.60047
11
9.20508
21
-3.60737
0
LINE
8
BLACK
6
CONTINUOUS
10
9.20508
20
-3.60737
11
9.21299
21
-3.61317
0
LINE
8
BLACK
6
CONTINUOUS
10
9.21299
20
-3.61317
11
9.22166
21
-3.61773
0
LINE
8
BLACK
6
CONTINUOUS
10
9.22166
20
-3.61773
11
9.23092
21
-3.62096
0
LINE
8
BLACK
6
CONTINUOUS
10
9.23092
20
-3.62096
11
9.24055
21
-3.62279
0
LINE
8
BLACK
6
CONTINUOUS
10
9.24055
20
-3.62279
11
9.25034
21
-3.62318
0
LINE
8
BLACK
6
CONTINUOUS
10
9.25034
20
-3.62318
11
9.26008
21
-3.62211
0
LINE
8
BLACK
6
CONTINUOUS
10
9.26008
20
-3.62211
11
9.26956
21
-3.61961
0
LINE
8
BLACK
6
CONTINUOUS
10
9.26956
20
-3.61961
11
9.27857
21
-3.61574
0
LINE
8
BLACK
6
CONTINUOUS
10
9.27857
20
-3.61574
11
9.2869
21
-3.61059
0
LINE
8
BLACK
6
CONTINUOUS
10
9.2869
20
-3.61059
11
9.29438
21
-3.60425
0
LINE
8
BLACK
6
CONTINUOUS
10
9.29438
20
-3.60425
11
9.30085
21
-3.59688
0
LINE
8
BLACK
6
CONTINUOUS
10
9.30085
20
-3.59688
11
9.30615
21
-3.58864
0
LINE
8
BLACK
6
CONTINUOUS
10
9.30615
20
-3.58864
11
9.31017
21
-3.5797
0
LINE
8
BLACK
6
CONTINUOUS
10
9.31017
20
-3.5797
11
9.31283
21
-3.57027
0
LINE
8
BLACK
6
CONTINUOUS
10
9.31283
20
-3.57027
11
9.31407
21
-3.56055
0
LINE
8
BLACK
6
CONTINUOUS
10
9.31407
20
-3.56055
11
9.31416
21
-3.55709
0
LINE
8
BLACK
6
CONTINUOUS
10
9.31416
20
-3.55709
11
9.31343
21
-3.54731
0
LINE
8
BLACK
6
CONTINUOUS
10
9.31343
20
-3.54731
11
9.31127
21
-3.53775
0
LINE
8
BLACK
6
CONTINUOUS
10
9.31127
20
-3.53775
11
9.30772
21
-3.52862
0
LINE
8
BLACK
6
CONTINUOUS
10
9.30772
20
-3.52862
11
9.30286
21
-3.52011
0
LINE
8
BLACK
6
CONTINUOUS
10
9.30286
20
-3.52011
11
9.29679
21
-3.51241
0
LINE
8
BLACK
6
CONTINUOUS
10
9.29679
20
-3.51241
11
9.28965
21
-3.50569
0
LINE
8
BLACK
6
CONTINUOUS
10
9.28965
20
-3.50569
11
9.28159
21
-3.50011
0
LINE
8
BLACK
6
CONTINUOUS
10
9.28159
20
-3.50011
11
9.2728
21
-3.49577
0
LINE
8
BLACK
6
CONTINUOUS
10
9.2728
20
-3.49577
11
9.26347
21
-3.49278
0
LINE
8
BLACK
6
CONTINUOUS
10
9.26347
20
-3.49278
11
9.2538
21
-3.49121
0
LINE
8
BLACK
6
CONTINUOUS
10
9.2538
20
-3.49121
11
9.24399
21
-3.49108
0
LINE
8
BLACK
6
CONTINUOUS
10
9.24399
20
-3.49108
11
9.23428
21
-3.4924
0
LINE
8
BLACK
6
CONTINUOUS
10
9.23428
20
-3.4924
11
9.22487
21
-3.49514
0
LINE
8
BLACK
6
CONTINUOUS
10
9.22487
20
-3.49514
11
9.21597
21
-3.49925
0
LINE
8
BLACK
6
CONTINUOUS
10
9.21597
20
-3.49925
11
9.20777
21
-3.50462
0
LINE
8
BLACK
6
CONTINUOUS
10
9.20777
20
-3.50462
11
9.20046
21
-3.51115
0
LINE
8
BLACK
6
CONTINUOUS
10
9.20046
20
-3.51115
11
9.19419
21
-3.51868
0
LINE
8
BLACK
6
CONTINUOUS
10
9.19419
20
-3.51868
11
9.18911
21
-3.52706
0
LINE
8
BLACK
6
CONTINUOUS
10
9.18911
20
-3.52706
11
9.18532
21
-3.5361
0
LINE
8
BLACK
6
CONTINUOUS
10
9.18532
20
-3.5361
11
9.18291
21
-3.5456
0
LINE
8
BLACK
6
CONTINUOUS
10
9.18291
20
-3.5456
11
9.18192
21
-3.55536
0
LINE
8
BLACK
6
CONTINUOUS
10
9.18192
20
-3.55536
11
9.18239
21
-3.56515
0
LINE
8
BLACK
6
CONTINUOUS
10
9.18239
20
-3.56515
11
9.18431
21
-3.57476
0
LINE
8
BLACK
6
CONTINUOUS
10
9.10441
20
-2.80579
11
9.10817
21
-2.79176
0
LINE
8
BLACK
6
CONTINUOUS
10
9.10817
20
-2.79176
11
9.11338
21
-2.7782
0
LINE
8
BLACK
6
CONTINUOUS
10
9.11338
20
-2.7782
11
9.11997
21
-2.76526
0
LINE
8
BLACK
6
CONTINUOUS
10
9.11997
20
-2.76526
11
9.12788
21
-2.75307
0
LINE
8
BLACK
6
CONTINUOUS
10
9.12788
20
-2.75307
11
9.13702
21
-2.74178
0
LINE
8
BLACK
6
CONTINUOUS
10
9.13702
20
-2.74178
11
9.1473
21
-2.73151
0
LINE
8
BLACK
6
CONTINUOUS
10
9.1473
20
-2.73151
11
9.15858
21
-2.72237
0
LINE
8
BLACK
6
CONTINUOUS
10
9.15858
20
-2.72237
11
9.17077
21
-2.71446
0
LINE
8
BLACK
6
CONTINUOUS
10
9.17077
20
-2.71446
11
9.18371
21
-2.70786
0
LINE
8
BLACK
6
CONTINUOUS
10
9.18371
20
-2.70786
11
9.19727
21
-2.70266
0
LINE
8
BLACK
6
CONTINUOUS
10
9.19727
20
-2.70266
11
9.2113
21
-2.6989
0
LINE
8
BLACK
6
CONTINUOUS
10
9.2113
20
-2.6989
11
9.22565
21
-2.69663
0
LINE
8
BLACK
6
CONTINUOUS
10
9.22565
20
-2.69663
11
9.24016
21
-2.69587
0
LINE
8
BLACK
6
CONTINUOUS
10
9.24016
20
-2.69587
11
9.25466
21
-2.69663
0
LINE
8
BLACK
6
CONTINUOUS
10
9.25466
20
-2.69663
11
9.26901
21
-2.6989
0
LINE
8
BLACK
6
CONTINUOUS
10
9.26901
20
-2.6989
11
9.28304
21
-2.70266
0
LINE
8
BLACK
6
CONTINUOUS
10
9.28304
20
-2.70266
11
9.2966
21
-2.70786
0
LINE
8
BLACK
6
CONTINUOUS
10
9.2966
20
-2.70786
11
9.30955
21
-2.71446
0
LINE
8
BLACK
6
CONTINUOUS
10
9.30955
20
-2.71446
11
9.32173
21
-2.72237
0
LINE
8
BLACK
6
CONTINUOUS
10
9.32173
20
-2.72237
11
9.33302
21
-2.73151
0
LINE
8
BLACK
6
CONTINUOUS
10
9.33302
20
-2.73151
11
9.34329
21
-2.74178
0
LINE
8
BLACK
6
CONTINUOUS
10
9.34329
20
-2.74178
11
9.35243
21
-2.75307
0
LINE
8
BLACK
6
CONTINUOUS
10
9.35243
20
-2.75307
11
9.36034
21
-2.76526
0
LINE
8
BLACK
6
CONTINUOUS
10
9.36034
20
-2.76526
11
9.36694
21
-2.7782
0
LINE
8
BLACK
6
CONTINUOUS
10
9.36694
20
-2.7782
11
9.37214
21
-2.79176
0
LINE
8
BLACK
6
CONTINUOUS
10
9.37214
20
-2.79176
11
9.3759
21
-2.80579
0
LINE
8
BLACK
6
CONTINUOUS
10
9.3759
20
-2.80579
11
9.37818
21
-2.82014
0
LINE
8
BLACK
6
CONTINUOUS
10
9.37818
20
-2.82014
11
9.37894
21
-2.83465
0
LINE
8
BLACK
6
CONTINUOUS
10
9.37894
20
-2.83465
11
9.37818
21
-2.84915
0
LINE
8
BLACK
6
CONTINUOUS
10
9.37818
20
-2.84915
11
9.3759
21
-2.8635
0
LINE
8
BLACK
6
CONTINUOUS
10
9.3759
20
-2.8635
11
9.37214
21
-2.87753
0
LINE
8
BLACK
6
CONTINUOUS
10
9.37214
20
-2.87753
11
9.36694
21
-2.89109
0
LINE
8
BLACK
6
CONTINUOUS
10
9.36694
20
-2.89109
11
9.36034
21
-2.90404
0
LINE
8
BLACK
6
CONTINUOUS
10
9.36034
20
-2.90404
11
9.35243
21
-2.91622
0
LINE
8
BLACK
6
CONTINUOUS
10
9.35243
20
-2.91622
11
9.34329
21
-2.92751
0
LINE
8
BLACK
6
CONTINUOUS
10
9.34329
20
-2.92751
11
9.33302
21
-2.93778
0
LINE
8
BLACK
6
CONTINUOUS
10
9.33302
20
-2.93778
11
9.32173
21
-2.94692
0
LINE
8
BLACK
6
CONTINUOUS
10
9.32173
20
-2.94692
11
9.30955
21
-2.95483
0
LINE
8
BLACK
6
CONTINUOUS
10
9.30955
20
-2.95483
11
9.2966
21
-2.96143
0
LINE
8
BLACK
6
CONTINUOUS
10
9.2966
20
-2.96143
11
9.28304
21
-2.96663
0
LINE
8
BLACK
6
CONTINUOUS
10
9.28304
20
-2.96663
11
9.26901
21
-2.97039
0
LINE
8
BLACK
6
CONTINUOUS
10
9.26901
20
-2.97039
11
9.25466
21
-2.97266
0
LINE
8
BLACK
6
CONTINUOUS
10
9.25466
20
-2.97266
11
9.24016
21
-2.97343
0
LINE
8
BLACK
6
CONTINUOUS
10
9.24016
20
-2.97343
11
9.22565
21
-2.97266
0
LINE
8
BLACK
6
CONTINUOUS
10
9.22565
20
-2.97266
11
9.2113
21
-2.97039
0
LINE
8
BLACK
6
CONTINUOUS
10
9.2113
20
-2.97039
11
9.19727
21
-2.96663
0
LINE
8
BLACK
6
CONTINUOUS
10
9.19727
20
-2.96663
11
9.18371
21
-2.96143
0
LINE
8
BLACK
6
CONTINUOUS
10
9.18371
20
-2.96143
11
9.17077
21
-2.95483
0
LINE
8
BLACK
6
CONTINUOUS
10
9.17077
20
-2.95483
11
9.15858
21
-2.94692
0
LINE
8
BLACK
6
CONTINUOUS
10
9.15858
20
-2.94692
11
9.1473
21
-2.93778
0
LINE
8
BLACK
6
CONTINUOUS
10
9.1473
20
-2.93778
11
9.13702
21
-2.92751
0
LINE
8
BLACK
6
CONTINUOUS
10
9.13702
20
-2.92751
11
9.12788
21
-2.91622
0
LINE
8
BLACK
6
CONTINUOUS
10
9.12788
20
-2.91622
11
9.11997
21
-2.90404
0
LINE
8
BLACK
6
CONTINUOUS
10
9.11997
20
-2.90404
11
9.11338
21
-2.89109
0
LINE
8
BLACK
6
CONTINUOUS
10
9.11338
20
-2.89109
11
9.10817
21
-2.87753
0
LINE
8
BLACK
6
CONTINUOUS
10
9.10817
20
-2.87753
11
9.10441
21
-2.8635
0
LINE
8
BLACK
6
CONTINUOUS
10
9.10441
20
-2.8635
11
9.10214
21
-2.84915
0
LINE
8
BLACK
6
CONTINUOUS
10
9.10214
20
-2.84915
11
9.10138
21
-2.83465
0
LINE
8
BLACK
6
CONTINUOUS
10
9.10138
20
-2.83465
11
9.10214
21
-2.82014
0
LINE
8
BLACK
6
CONTINUOUS
10
9.10214
20
-2.82014
11
9.10441
21
-2.80579
0
LINE
8
BLACK
6
CONTINUOUS
10
9.10615
20
-2.86313
11
9.10986
21
-2.87698
0
LINE
8
BLACK
6
CONTINUOUS
10
9.10986
20
-2.87698
11
9.115
21
-2.89037
0
LINE
8
BLACK
6
CONTINUOUS
10
9.115
20
-2.89037
11
9.12151
21
-2.90315
0
LINE
8
BLACK
6
CONTINUOUS
10
9.12151
20
-2.90315
11
9.12932
21
-2.91517
0
LINE
8
BLACK
6
CONTINUOUS
10
9.12932
20
-2.91517
11
9.13835
21
-2.92632
0
LINE
8
BLACK
6
CONTINUOUS
10
9.13835
20
-2.92632
11
9.14849
21
-2.93646
0
LINE
8
BLACK
6
CONTINUOUS
10
9.14849
20
-2.93646
11
9.15963
21
-2.94548
0
LINE
8
BLACK
6
CONTINUOUS
10
9.15963
20
-2.94548
11
9.17166
21
-2.95329
0
LINE
8
BLACK
6
CONTINUOUS
10
9.17166
20
-2.95329
11
9.18444
21
-2.9598
0
LINE
8
BLACK
6
CONTINUOUS
10
9.18444
20
-2.9598
11
9.19782
21
-2.96494
0
LINE
8
BLACK
6
CONTINUOUS
10
9.19782
20
-2.96494
11
9.21167
21
-2.96865
0
LINE
8
BLACK
6
CONTINUOUS
10
9.21167
20
-2.96865
11
9.22584
21
-2.97089
0
LINE
8
BLACK
6
CONTINUOUS
10
9.22584
20
-2.97089
11
9.24016
21
-2.97164
0
LINE
8
BLACK
6
CONTINUOUS
10
9.24016
20
-2.97164
11
9.25448
21
-2.97089
0
LINE
8
BLACK
6
CONTINUOUS
10
9.25448
20
-2.97089
11
9.26864
21
-2.96865
0
LINE
8
BLACK
6
CONTINUOUS
10
9.26864
20
-2.96865
11
9.28249
21
-2.96494
0
LINE
8
BLACK
6
CONTINUOUS
10
9.28249
20
-2.96494
11
9.29588
21
-2.9598
0
LINE
8
BLACK
6
CONTINUOUS
10
9.29588
20
-2.9598
11
9.30866
21
-2.95329
0
LINE
8
BLACK
6
CONTINUOUS
10
9.30866
20
-2.95329
11
9.32068
21
-2.94548
0
LINE
8
BLACK
6
CONTINUOUS
10
9.32068
20
-2.94548
11
9.33183
21
-2.93646
0
LINE
8
BLACK
6
CONTINUOUS
10
9.33183
20
-2.93646
11
9.34197
21
-2.92632
0
LINE
8
BLACK
6
CONTINUOUS
10
9.34197
20
-2.92632
11
9.35099
21
-2.91517
0
LINE
8
BLACK
6
CONTINUOUS
10
9.35099
20
-2.91517
11
9.3588
21
-2.90315
0
LINE
8
BLACK
6
CONTINUOUS
10
9.3588
20
-2.90315
11
9.36531
21
-2.89037
0
LINE
8
BLACK
6
CONTINUOUS
10
9.36531
20
-2.89037
11
9.37045
21
-2.87698
0
LINE
8
BLACK
6
CONTINUOUS
10
9.37045
20
-2.87698
11
9.37416
21
-2.86313
0
LINE
8
BLACK
6
CONTINUOUS
10
9.37416
20
-2.86313
11
9.37641
21
-2.84897
0
LINE
8
BLACK
6
CONTINUOUS
10
9.37641
20
-2.84897
11
9.37716
21
-2.83465
0
LINE
8
BLACK
6
CONTINUOUS
10
9.37716
20
-2.83465
11
9.37641
21
-2.82033
0
LINE
8
BLACK
6
CONTINUOUS
10
9.37641
20
-2.82033
11
9.37416
21
-2.80616
0
LINE
8
BLACK
6
CONTINUOUS
10
9.37416
20
-2.80616
11
9.37045
21
-2.79231
0
LINE
8
BLACK
6
CONTINUOUS
10
9.37045
20
-2.79231
11
9.36531
21
-2.77892
0
LINE
8
BLACK
6
CONTINUOUS
10
9.36531
20
-2.77892
11
9.3588
21
-2.76615
0
LINE
8
BLACK
6
CONTINUOUS
10
9.3588
20
-2.76615
11
9.35099
21
-2.75412
0
LINE
8
BLACK
6
CONTINUOUS
10
9.35099
20
-2.75412
11
9.34197
21
-2.74298
0
LINE
8
BLACK
6
CONTINUOUS
10
9.34197
20
-2.74298
11
9.33183
21
-2.73284
0
LINE
8
BLACK
6
CONTINUOUS
10
9.33183
20
-2.73284
11
9.32068
21
-2.72381
0
LINE
8
BLACK
6
CONTINUOUS
10
9.32068
20
-2.72381
11
9.30866
21
-2.716
0
LINE
8
BLACK
6
CONTINUOUS
10
9.30866
20
-2.716
11
9.29588
21
-2.70949
0
LINE
8
BLACK
6
CONTINUOUS
10
9.29588
20
-2.70949
11
9.28249
21
-2.70435
0
LINE
8
BLACK
6
CONTINUOUS
10
9.28249
20
-2.70435
11
9.26864
21
-2.70064
0
LINE
8
BLACK
6
CONTINUOUS
10
9.26864
20
-2.70064
11
9.25448
21
-2.6984
0
LINE
8
BLACK
6
CONTINUOUS
10
9.25448
20
-2.6984
11
9.24016
21
-2.69765
0
LINE
8
BLACK
6
CONTINUOUS
10
9.24016
20
-2.69765
11
9.22584
21
-2.6984
0
LINE
8
BLACK
6
CONTINUOUS
10
9.22584
20
-2.6984
11
9.21167
21
-2.70064
0
LINE
8
BLACK
6
CONTINUOUS
10
9.21167
20
-2.70064
11
9.19782
21
-2.70435
0
LINE
8
BLACK
6
CONTINUOUS
10
9.19782
20
-2.70435
11
9.18444
21
-2.70949
0
LINE
8
BLACK
6
CONTINUOUS
10
9.18444
20
-2.70949
11
9.17166
21
-2.716
0
LINE
8
BLACK
6
CONTINUOUS
10
9.17166
20
-2.716
11
9.15963
21
-2.72381
0
LINE
8
BLACK
6
CONTINUOUS
10
9.15963
20
-2.72381
11
9.14849
21
-2.73284
0
LINE
8
BLACK
6
CONTINUOUS
10
9.14849
20
-2.73284
11
9.13835
21
-2.74298
0
LINE
8
BLACK
6
CONTINUOUS
10
9.13835
20
-2.74298
11
9.12932
21
-2.75412
0
LINE
8
BLACK
6
CONTINUOUS
10
9.12932
20
-2.75412
11
9.12151
21
-2.76615
0
LINE
8
BLACK
6
CONTINUOUS
10
9.12151
20
-2.76615
11
9.115
21
-2.77892
0
LINE
8
BLACK
6
CONTINUOUS
10
9.115
20
-2.77892
11
9.10986
21
-2.79231
0
LINE
8
BLACK
6
CONTINUOUS
10
9.10986
20
-2.79231
11
9.10615
21
-2.80616
0
LINE
8
BLACK
6
CONTINUOUS
10
9.10615
20
-2.80616
11
9.10391
21
-2.82033
0
LINE
8
BLACK
6
CONTINUOUS
10
9.10391
20
-2.82033
11
9.10316
21
-2.83465
0
LINE
8
BLACK
6
CONTINUOUS
10
9.10316
20
-2.83465
11
9.10391
21
-2.84897
0
LINE
8
BLACK
6
CONTINUOUS
10
9.10391
20
-2.84897
11
9.10615
21
-2.86313
0
LINE
8
BLACK
6
CONTINUOUS
10
9.30734
20
-1.99893
11
9.31003
21
-1.98594
0
LINE
8
BLACK
6
CONTINUOUS
10
9.31003
20
-1.98594
11
9.31419
21
-1.97336
0
LINE
8
BLACK
6
CONTINUOUS
10
9.31419
20
-1.97336
11
9.31977
21
-1.96133
0
LINE
8
BLACK
6
CONTINUOUS
10
9.31977
20
-1.96133
11
9.3267
21
-1.95003
0
LINE
8
BLACK
6
CONTINUOUS
10
9.3267
20
-1.95003
11
9.33488
21
-1.93959
0
LINE
8
BLACK
6
CONTINUOUS
10
9.33488
20
-1.93959
11
9.3442
21
-1.93017
0
LINE
8
BLACK
6
CONTINUOUS
10
9.3442
20
-1.93017
11
9.35455
21
-1.92188
0
LINE
8
BLACK
6
CONTINUOUS
10
9.35455
20
-1.92188
11
9.36578
21
-1.91483
0
LINE
8
BLACK
6
CONTINUOUS
10
9.36578
20
-1.91483
11
9.37775
21
-1.90913
0
LINE
8
BLACK
6
CONTINUOUS
10
9.37775
20
-1.90913
11
9.39029
21
-1.90483
0
LINE
8
BLACK
6
CONTINUOUS
10
9.39029
20
-1.90483
11
9.40325
21
-1.90201
0
LINE
8
BLACK
6
CONTINUOUS
10
9.40325
20
-1.90201
11
9.41644
21
-1.90069
0
LINE
8
BLACK
6
CONTINUOUS
10
9.41644
20
-1.90069
11
9.42969
21
-1.9009
0
LINE
8
BLACK
6
CONTINUOUS
10
9.42969
20
-1.9009
11
9.44284
21
-1.90263
0
LINE
8
BLACK
6
CONTINUOUS
10
9.44284
20
-1.90263
11
9.4557
21
-1.90586
0
LINE
8
BLACK
6
CONTINUOUS
10
9.4557
20
-1.90586
11
9.4681
21
-1.91055
0
LINE
8
BLACK
6
CONTINUOUS
10
9.4681
20
-1.91055
11
9.47988
21
-1.91663
0
LINE
8
BLACK
6
CONTINUOUS
10
9.47988
20
-1.91663
11
9.49088
21
-1.92402
0
LINE
8
BLACK
6
CONTINUOUS
10
9.49088
20
-1.92402
11
9.50097
21
-1.93263
0
LINE
8
BLACK
6
CONTINUOUS
10
9.50097
20
-1.93263
11
9.50999
21
-1.94234
0
LINE
8
BLACK
6
CONTINUOUS
10
9.50999
20
-1.94234
11
9.51784
21
-1.95303
0
LINE
8
BLACK
6
CONTINUOUS
10
9.51784
20
-1.95303
11
9.52441
21
-1.96454
0
LINE
8
BLACK
6
CONTINUOUS
10
9.52441
20
-1.96454
11
9.52961
21
-1.97674
0
LINE
8
BLACK
6
CONTINUOUS
10
9.52961
20
-1.97674
11
9.53337
21
-1.98945
0
LINE
8
BLACK
6
CONTINUOUS
10
9.53337
20
-1.98945
11
9.53565
21
-2.00251
0
LINE
8
BLACK
6
CONTINUOUS
10
9.53565
20
-2.00251
11
9.53642
21
-2.01575
0
LINE
8
BLACK
6
CONTINUOUS
10
9.53642
20
-2.01575
11
9.53619
21
-2.02298
0
LINE
8
BLACK
6
CONTINUOUS
10
9.53619
20
-2.02298
11
9.5346
21
-2.03614
0
LINE
8
BLACK
6
CONTINUOUS
10
9.5346
20
-2.03614
11
9.5315
21
-2.04903
0
LINE
8
BLACK
6
CONTINUOUS
10
9.5315
20
-2.04903
11
9.52695
21
-2.06148
0
LINE
8
BLACK
6
CONTINUOUS
10
9.52695
20
-2.06148
11
9.52099
21
-2.07333
0
LINE
8
BLACK
6
CONTINUOUS
10
9.52099
20
-2.07333
11
9.51371
21
-2.08441
0
LINE
8
BLACK
6
CONTINUOUS
10
9.51371
20
-2.08441
11
9.50521
21
-2.09458
0
LINE
8
BLACK
6
CONTINUOUS
10
9.50521
20
-2.09458
11
9.49559
21
-2.1037
0
LINE
8
BLACK
6
CONTINUOUS
10
9.49559
20
-2.1037
11
9.48499
21
-2.11167
0
LINE
8
BLACK
6
CONTINUOUS
10
9.48499
20
-2.11167
11
9.47354
21
-2.11835
0
LINE
8
BLACK
6
CONTINUOUS
10
9.47354
20
-2.11835
11
9.4614
21
-2.12368
0
LINE
8
BLACK
6
CONTINUOUS
10
9.4614
20
-2.12368
11
9.44873
21
-2.12758
0
LINE
8
BLACK
6
CONTINUOUS
10
9.44873
20
-2.12758
11
9.43569
21
-2.13
0
LINE
8
BLACK
6
CONTINUOUS
10
9.43569
20
-2.13
11
9.42247
21
-2.1309
0
LINE
8
BLACK
6
CONTINUOUS
10
9.42247
20
-2.1309
11
9.40922
21
-2.13027
0
LINE
8
BLACK
6
CONTINUOUS
10
9.40922
20
-2.13027
11
9.39614
21
-2.12813
0
LINE
8
BLACK
6
CONTINUOUS
10
9.39614
20
-2.12813
11
9.38339
21
-2.1245
0
LINE
8
BLACK
6
CONTINUOUS
10
9.38339
20
-2.1245
11
9.37114
21
-2.11943
0
LINE
8
BLACK
6
CONTINUOUS
10
9.37114
20
-2.11943
11
9.35956
21
-2.11298
0
LINE
8
BLACK
6
CONTINUOUS
10
9.35956
20
-2.11298
11
9.34879
21
-2.10524
0
LINE
8
BLACK
6
CONTINUOUS
10
9.34879
20
-2.10524
11
9.33898
21
-2.09632
0
LINE
8
BLACK
6
CONTINUOUS
10
9.33898
20
-2.09632
11
9.33027
21
-2.08633
0
LINE
8
BLACK
6
CONTINUOUS
10
9.33027
20
-2.08633
11
9.32276
21
-2.0754
0
LINE
8
BLACK
6
CONTINUOUS
10
9.32276
20
-2.0754
11
9.31655
21
-2.06369
0
LINE
8
BLACK
6
CONTINUOUS
10
9.31655
20
-2.06369
11
9.31174
21
-2.05133
0
LINE
8
BLACK
6
CONTINUOUS
10
9.31174
20
-2.05133
11
9.30837
21
-2.03851
0
LINE
8
BLACK
6
CONTINUOUS
10
9.30837
20
-2.03851
11
9.30651
21
-2.02538
0
LINE
8
BLACK
6
CONTINUOUS
10
9.30651
20
-2.02538
11
9.30616
21
-2.01219
0
LINE
8
BLACK
6
CONTINUOUS
10
9.30616
20
-2.01219
11
9.30616
21
-2.01213
0
LINE
8
BLACK
6
CONTINUOUS
10
9.30616
20
-2.01213
11
9.30734
21
-1.99893
0
LINE
8
BLACK
6
CONTINUOUS
10
9.31012
20
-2.03816
11
9.31343
21
-2.05078
0
LINE
8
BLACK
6
CONTINUOUS
10
9.31343
20
-2.05078
11
9.31817
21
-2.06295
0
LINE
8
BLACK
6
CONTINUOUS
10
9.31817
20
-2.06295
11
9.32428
21
-2.07448
0
LINE
8
BLACK
6
CONTINUOUS
10
9.32428
20
-2.07448
11
9.33167
21
-2.08524
0
LINE
8
BLACK
6
CONTINUOUS
10
9.33167
20
-2.08524
11
9.34025
21
-2.09508
0
LINE
8
BLACK
6
CONTINUOUS
10
9.34025
20
-2.09508
11
9.34991
21
-2.10386
0
LINE
8
BLACK
6
CONTINUOUS
10
9.34991
20
-2.10386
11
9.36051
21
-2.11148
0
LINE
8
BLACK
6
CONTINUOUS
10
9.36051
20
-2.11148
11
9.37191
21
-2.11783
0
LINE
8
BLACK
6
CONTINUOUS
10
9.37191
20
-2.11783
11
9.38397
21
-2.12282
0
LINE
8
BLACK
6
CONTINUOUS
10
9.38397
20
-2.12282
11
9.39653
21
-2.1264
0
LINE
8
BLACK
6
CONTINUOUS
10
9.39653
20
-2.1264
11
9.40941
21
-2.12851
0
LINE
8
BLACK
6
CONTINUOUS
10
9.40941
20
-2.12851
11
9.42245
21
-2.12912
0
LINE
8
BLACK
6
CONTINUOUS
10
9.42245
20
-2.12912
11
9.43547
21
-2.12823
0
LINE
8
BLACK
6
CONTINUOUS
10
9.43547
20
-2.12823
11
9.4483
21
-2.12586
0
LINE
8
BLACK
6
CONTINUOUS
10
9.4483
20
-2.12586
11
9.46078
21
-2.12202
0
LINE
8
BLACK
6
CONTINUOUS
10
9.46078
20
-2.12202
11
9.47273
21
-2.11677
0
LINE
8
BLACK
6
CONTINUOUS
10
9.47273
20
-2.11677
11
9.484
21
-2.11019
0
LINE
8
BLACK
6
CONTINUOUS
10
9.484
20
-2.11019
11
9.49444
21
-2.10235
0
LINE
8
BLACK
6
CONTINUOUS
10
9.49444
20
-2.10235
11
9.50391
21
-2.09336
0
LINE
8
BLACK
6
CONTINUOUS
10
9.50391
20
-2.09336
11
9.51228
21
-2.08335
0
LINE
8
BLACK
6
CONTINUOUS
10
9.51228
20
-2.08335
11
9.51945
21
-2.07244
0
LINE
8
BLACK
6
CONTINUOUS
10
9.51945
20
-2.07244
11
9.52532
21
-2.06078
0
LINE
8
BLACK
6
CONTINUOUS
10
9.52532
20
-2.06078
11
9.5298
21
-2.04852
0
LINE
8
BLACK
6
CONTINUOUS
10
9.5298
20
-2.04852
11
9.53285
21
-2.03583
0
LINE
8
BLACK
6
CONTINUOUS
10
9.53285
20
-2.03583
11
9.53442
21
-2.02287
0
LINE
8
BLACK
6
CONTINUOUS
10
9.53442
20
-2.02287
11
9.53464
21
-2.01575
0
LINE
8
BLACK
6
CONTINUOUS
10
9.53464
20
-2.01575
11
9.53389
21
-2.00272
0
LINE
8
BLACK
6
CONTINUOUS
10
9.53389
20
-2.00272
11
9.53164
21
-1.98986
0
LINE
8
BLACK
6
CONTINUOUS
10
9.53164
20
-1.98986
11
9.52794
21
-1.97734
0
LINE
8
BLACK
6
CONTINUOUS
10
9.52794
20
-1.97734
11
9.52282
21
-1.96533
0
LINE
8
BLACK
6
CONTINUOUS
10
9.52282
20
-1.96533
11
9.51635
21
-1.954
0
LINE
8
BLACK
6
CONTINUOUS
10
9.51635
20
-1.954
11
9.50862
21
-1.94348
0
LINE
8
BLACK
6
CONTINUOUS
10
9.50862
20
-1.94348
11
9.49974
21
-1.93391
0
LINE
8
BLACK
6
CONTINUOUS
10
9.49974
20
-1.93391
11
9.48981
21
-1.92544
0
LINE
8
BLACK
6
CONTINUOUS
10
9.48981
20
-1.92544
11
9.47898
21
-1.91816
0
LINE
8
BLACK
6
CONTINUOUS
10
9.47898
20
-1.91816
11
9.46738
21
-1.91217
0
LINE
8
BLACK
6
CONTINUOUS
10
9.46738
20
-1.91217
11
9.45517
21
-1.90756
0
LINE
8
BLACK
6
CONTINUOUS
10
9.45517
20
-1.90756
11
9.44251
21
-1.90438
0
LINE
8
BLACK
6
CONTINUOUS
10
9.44251
20
-1.90438
11
9.42956
21
-1.90267
0
LINE
8
BLACK
6
CONTINUOUS
10
9.42956
20
-1.90267
11
9.41651
21
-1.90247
0
LINE
8
BLACK
6
CONTINUOUS
10
9.41651
20
-1.90247
11
9.40352
21
-1.90376
0
LINE
8
BLACK
6
CONTINUOUS
10
9.40352
20
-1.90376
11
9.39077
21
-1.90654
0
LINE
8
BLACK
6
CONTINUOUS
10
9.39077
20
-1.90654
11
9.37842
21
-1.91077
0
LINE
8
BLACK
6
CONTINUOUS
10
9.37842
20
-1.91077
11
9.36664
21
-1.91639
0
LINE
8
BLACK
6
CONTINUOUS
10
9.36664
20
-1.91639
11
9.35558
21
-1.92333
0
LINE
8
BLACK
6
CONTINUOUS
10
9.35558
20
-1.92333
11
9.34539
21
-1.93149
0
LINE
8
BLACK
6
CONTINUOUS
10
9.34539
20
-1.93149
11
9.33621
21
-1.94077
0
LINE
8
BLACK
6
CONTINUOUS
10
9.33621
20
-1.94077
11
9.32816
21
-1.95104
0
LINE
8
BLACK
6
CONTINUOUS
10
9.32816
20
-1.95104
11
9.32134
21
-1.96217
0
LINE
8
BLACK
6
CONTINUOUS
10
9.32134
20
-1.96217
11
9.31584
21
-1.97401
0
LINE
8
BLACK
6
CONTINUOUS
10
9.31584
20
-1.97401
11
9.31174
21
-1.9864
0
LINE
8
BLACK
6
CONTINUOUS
10
9.31174
20
-1.9864
11
9.3091
21
-1.99919
0
LINE
8
BLACK
6
CONTINUOUS
10
9.3091
20
-1.99919
11
9.30794
21
-2.01219
0
LINE
8
BLACK
6
CONTINUOUS
10
9.30794
20
-2.01219
11
9.30828
21
-2.02524
0
LINE
8
BLACK
6
CONTINUOUS
10
9.30828
20
-2.02524
11
9.31012
21
-2.03816
0
LINE
8
BLACK
6
CONTINUOUS
10
8.28158
20
-1.88059
11
8.28534
21
-1.86656
0
LINE
8
BLACK
6
CONTINUOUS
10
8.28534
20
-1.86656
11
8.29054
21
-1.853
0
LINE
8
BLACK
6
CONTINUOUS
10
8.29054
20
-1.853
11
8.29714
21
-1.84006
0
LINE
8
BLACK
6
CONTINUOUS
10
8.29714
20
-1.84006
11
8.30505
21
-1.82788
0
LINE
8
BLACK
6
CONTINUOUS
10
8.30505
20
-1.82788
11
8.31419
21
-1.81659
0
LINE
8
BLACK
6
CONTINUOUS
10
8.31419
20
-1.81659
11
8.32446
21
-1.80632
0
LINE
8
BLACK
6
CONTINUOUS
10
8.32446
20
-1.80632
11
8.33575
21
-1.79717
0
LINE
8
BLACK
6
CONTINUOUS
10
8.33575
20
-1.79717
11
8.34793
21
-1.78926
0
LINE
8
BLACK
6
CONTINUOUS
10
8.34793
20
-1.78926
11
8.36088
21
-1.78267
0
LINE
8
BLACK
6
CONTINUOUS
10
8.36088
20
-1.78267
11
8.37444
21
-1.77746
0
LINE
8
BLACK
6
CONTINUOUS
10
8.37444
20
-1.77746
11
8.38847
21
-1.7737
0
LINE
8
BLACK
6
CONTINUOUS
10
8.38847
20
-1.7737
11
8.40282
21
-1.77143
0
LINE
8
BLACK
6
CONTINUOUS
10
8.40282
20
-1.77143
11
8.41732
21
-1.77067
0
LINE
8
BLACK
6
CONTINUOUS
10
8.41732
20
-1.77067
11
8.43183
21
-1.77143
0
LINE
8
BLACK
6
CONTINUOUS
10
8.43183
20
-1.77143
11
8.44618
21
-1.7737
0
LINE
8
BLACK
6
CONTINUOUS
10
8.44618
20
-1.7737
11
8.46021
21
-1.77746
0
LINE
8
BLACK
6
CONTINUOUS
10
8.46021
20
-1.77746
11
8.47377
21
-1.78267
0
LINE
8
BLACK
6
CONTINUOUS
10
8.47377
20
-1.78267
11
8.48671
21
-1.78926
0
LINE
8
BLACK
6
CONTINUOUS
10
8.48671
20
-1.78926
11
8.4989
21
-1.79717
0
LINE
8
BLACK
6
CONTINUOUS
10
8.4989
20
-1.79717
11
8.51018
21
-1.80632
0
LINE
8
BLACK
6
CONTINUOUS
10
8.51018
20
-1.80632
11
8.52046
21
-1.81659
0
LINE
8
BLACK
6
CONTINUOUS
10
8.52046
20
-1.81659
11
8.5296
21
-1.82788
0
LINE
8
BLACK
6
CONTINUOUS
10
8.5296
20
-1.82788
11
8.53751
21
-1.84006
0
LINE
8
BLACK
6
CONTINUOUS
10
8.53751
20
-1.84006
11
8.5441
21
-1.853
0
LINE
8
BLACK
6
CONTINUOUS
10
8.5441
20
-1.853
11
8.54931
21
-1.86656
0
LINE
8
BLACK
6
CONTINUOUS
10
8.54931
20
-1.86656
11
8.55307
21
-1.88059
0
LINE
8
BLACK
6
CONTINUOUS
10
8.55307
20
-1.88059
11
8.55534
21
-1.89494
0
LINE
8
BLACK
6
CONTINUOUS
10
8.55534
20
-1.89494
11
8.5561
21
-1.90945
0
LINE
8
BLACK
6
CONTINUOUS
10
8.5561
20
-1.90945
11
8.55534
21
-1.92396
0
LINE
8
BLACK
6
CONTINUOUS
10
8.55534
20
-1.92396
11
8.55307
21
-1.9383
0
LINE
8
BLACK
6
CONTINUOUS
10
8.55307
20
-1.9383
11
8.54931
21
-1.95233
0
LINE
8
BLACK
6
CONTINUOUS
10
8.54931
20
-1.95233
11
8.5441
21
-1.9659
0
LINE
8
BLACK
6
CONTINUOUS
10
8.5441
20
-1.9659
11
8.53751
21
-1.97884
0
LINE
8
BLACK
6
CONTINUOUS
10
8.53751
20
-1.97884
11
8.5296
21
-1.99102
0
LINE
8
BLACK
6
CONTINUOUS
10
8.5296
20
-1.99102
11
8.52046
21
-2.00231
0
LINE
8
BLACK
6
CONTINUOUS
10
8.52046
20
-2.00231
11
8.51018
21
-2.01258
0
LINE
8
BLACK
6
CONTINUOUS
10
8.51018
20
-2.01258
11
8.4989
21
-2.02172
0
LINE
8
BLACK
6
CONTINUOUS
10
8.4989
20
-2.02172
11
8.48671
21
-2.02964
0
LINE
8
BLACK
6
CONTINUOUS
10
8.48671
20
-2.02964
11
8.47377
21
-2.03623
0
LINE
8
BLACK
6
CONTINUOUS
10
8.47377
20
-2.03623
11
8.46021
21
-2.04144
0
LINE
8
BLACK
6
CONTINUOUS
10
8.46021
20
-2.04144
11
8.44618
21
-2.0452
0
LINE
8
BLACK
6
CONTINUOUS
10
8.44618
20
-2.0452
11
8.43183
21
-2.04747
0
LINE
8
BLACK
6
CONTINUOUS
10
8.43183
20
-2.04747
11
8.41732
21
-2.04823
0
LINE
8
BLACK
6
CONTINUOUS
10
8.41732
20
-2.04823
11
8.40282
21
-2.04747
0
LINE
8
BLACK
6
CONTINUOUS
10
8.40282
20
-2.04747
11
8.38847
21
-2.0452
0
LINE
8
BLACK
6
CONTINUOUS
10
8.38847
20
-2.0452
11
8.37444
21
-2.04144
0
LINE
8
BLACK
6
CONTINUOUS
10
8.37444
20
-2.04144
11
8.36088
21
-2.03623
0
LINE
8
BLACK
6
CONTINUOUS
10
8.36088
20
-2.03623
11
8.34793
21
-2.02964
0
LINE
8
BLACK
6
CONTINUOUS
10
8.34793
20
-2.02964
11
8.33575
21
-2.02172
0
LINE
8
BLACK
6
CONTINUOUS
10
8.33575
20
-2.02172
11
8.32446
21
-2.01258
0
LINE
8
BLACK
6
CONTINUOUS
10
8.32446
20
-2.01258
11
8.31419
21
-2.00231
0
LINE
8
BLACK
6
CONTINUOUS
10
8.31419
20
-2.00231
11
8.30505
21
-1.99102
0
LINE
8
BLACK
6
CONTINUOUS
10
8.30505
20
-1.99102
11
8.29714
21
-1.97884
0
LINE
8
BLACK
6
CONTINUOUS
10
8.29714
20
-1.97884
11
8.29054
21
-1.9659
0
LINE
8
BLACK
6
CONTINUOUS
10
8.29054
20
-1.9659
11
8.28534
21
-1.95233
0
LINE
8
BLACK
6
CONTINUOUS
10
8.28534
20
-1.95233
11
8.28158
21
-1.9383
0
LINE
8
BLACK
6
CONTINUOUS
10
8.28158
20
-1.9383
11
8.2793
21
-1.92396
0
LINE
8
BLACK
6
CONTINUOUS
10
8.2793
20
-1.92396
11
8.27854
21
-1.90945
0
LINE
8
BLACK
6
CONTINUOUS
10
8.27854
20
-1.90945
11
8.2793
21
-1.89494
0
LINE
8
BLACK
6
CONTINUOUS
10
8.2793
20
-1.89494
11
8.28158
21
-1.88059
0
LINE
8
BLACK
6
CONTINUOUS
10
8.28332
20
-1.93793
11
8.28703
21
-1.95178
0
LINE
8
BLACK
6
CONTINUOUS
10
8.28703
20
-1.95178
11
8.29217
21
-1.96517
0
LINE
8
BLACK
6
CONTINUOUS
10
8.29217
20
-1.96517
11
8.29868
21
-1.97795
0
LINE
8
BLACK
6
CONTINUOUS
10
8.29868
20
-1.97795
11
8.30649
21
-1.98997
0
LINE
8
BLACK
6
CONTINUOUS
10
8.30649
20
-1.98997
11
8.31551
21
-2.00112
0
LINE
8
BLACK
6
CONTINUOUS
10
8.31551
20
-2.00112
11
8.32565
21
-2.01126
0
LINE
8
BLACK
6
CONTINUOUS
10
8.32565
20
-2.01126
11
8.3368
21
-2.02028
0
LINE
8
BLACK
6
CONTINUOUS
10
8.3368
20
-2.02028
11
8.34882
21
-2.02809
0
LINE
8
BLACK
6
CONTINUOUS
10
8.34882
20
-2.02809
11
8.3616
21
-2.0346
0
LINE
8
BLACK
6
CONTINUOUS
10
8.3616
20
-2.0346
11
8.37499
21
-2.03974
0
LINE
8
BLACK
6
CONTINUOUS
10
8.37499
20
-2.03974
11
8.38884
21
-2.04345
0
LINE
8
BLACK
6
CONTINUOUS
10
8.38884
20
-2.04345
11
8.403
21
-2.0457
0
LINE
8
BLACK
6
CONTINUOUS
10
8.403
20
-2.0457
11
8.41732
21
-2.04645
0
LINE
8
BLACK
6
CONTINUOUS
10
8.41732
20
-2.04645
11
8.43164
21
-2.0457
0
LINE
8
BLACK
6
CONTINUOUS
10
8.43164
20
-2.0457
11
8.44581
21
-2.04345
0
LINE
8
BLACK
6
CONTINUOUS
10
8.44581
20
-2.04345
11
8.45966
21
-2.03974
0
LINE
8
BLACK
6
CONTINUOUS
10
8.45966
20
-2.03974
11
8.47305
21
-2.0346
0
LINE
8
BLACK
6
CONTINUOUS
10
8.47305
20
-2.0346
11
8.48582
21
-2.02809
0
LINE
8
BLACK
6
CONTINUOUS
10
8.48582
20
-2.02809
11
8.49785
21
-2.02028
0
LINE
8
BLACK
6
CONTINUOUS
10
8.49785
20
-2.02028
11
8.50899
21
-2.01126
0
LINE
8
BLACK
6
CONTINUOUS
10
8.50899
20
-2.01126
11
8.51913
21
-2.00112
0
LINE
8
BLACK
6
CONTINUOUS
10
8.51913
20
-2.00112
11
8.52816
21
-1.98997
0
LINE
8
BLACK
6
CONTINUOUS
10
8.52816
20
-1.98997
11
8.53597
21
-1.97795
0
LINE
8
BLACK
6
CONTINUOUS
10
8.53597
20
-1.97795
11
8.54248
21
-1.96517
0
LINE
8
BLACK
6
CONTINUOUS
10
8.54248
20
-1.96517
11
8.54762
21
-1.95178
0
LINE
8
BLACK
6
CONTINUOUS
10
8.54762
20
-1.95178
11
8.55133
21
-1.93793
0
LINE
8
BLACK
6
CONTINUOUS
10
8.55133
20
-1.93793
11
8.55357
21
-1.92377
0
LINE
8
BLACK
6
CONTINUOUS
10
8.55357
20
-1.92377
11
8.55432
21
-1.90945
0
LINE
8
BLACK
6
CONTINUOUS
10
8.55432
20
-1.90945
11
8.55357
21
-1.89513
0
LINE
8
BLACK
6
CONTINUOUS
10
8.55357
20
-1.89513
11
8.55133
21
-1.88097
0
LINE
8
BLACK
6
CONTINUOUS
10
8.55133
20
-1.88097
11
8.54762
21
-1.86711
0
LINE
8
BLACK
6
CONTINUOUS
10
8.54762
20
-1.86711
11
8.54248
21
-1.85373
0
LINE
8
BLACK
6
CONTINUOUS
10
8.54248
20
-1.85373
11
8.53597
21
-1.84095
0
LINE
8
BLACK
6
CONTINUOUS
10
8.53597
20
-1.84095
11
8.52816
21
-1.82892
0
LINE
8
BLACK
6
CONTINUOUS
10
8.52816
20
-1.82892
11
8.51913
21
-1.81778
0
LINE
8
BLACK
6
CONTINUOUS
10
8.51913
20
-1.81778
11
8.50899
21
-1.80764
0
LINE
8
BLACK
6
CONTINUOUS
10
8.50899
20
-1.80764
11
8.49785
21
-1.79861
0
LINE
8
BLACK
6
CONTINUOUS
10
8.49785
20
-1.79861
11
8.48582
21
-1.7908
0
LINE
8
BLACK
6
CONTINUOUS
10
8.48582
20
-1.7908
11
8.47305
21
-1.78429
0
LINE
8
BLACK
6
CONTINUOUS
10
8.47305
20
-1.78429
11
8.45966
21
-1.77916
0
LINE
8
BLACK
6
CONTINUOUS
10
8.45966
20
-1.77916
11
8.44581
21
-1.77544
0
LINE
8
BLACK
6
CONTINUOUS
10
8.44581
20
-1.77544
11
8.43164
21
-1.7732
0
LINE
8
BLACK
6
CONTINUOUS
10
8.43164
20
-1.7732
11
8.41732
21
-1.77245
0
LINE
8
BLACK
6
CONTINUOUS
10
8.41732
20
-1.77245
11
8.403
21
-1.7732
0
LINE
8
BLACK
6
CONTINUOUS
10
8.403
20
-1.7732
11
8.38884
21
-1.77544
0
LINE
8
BLACK
6
CONTINUOUS
10
8.38884
20
-1.77544
11
8.37499
21
-1.77916
0
LINE
8
BLACK
6
CONTINUOUS
10
8.37499
20
-1.77916
11
8.3616
21
-1.78429
0
LINE
8
BLACK
6
CONTINUOUS
10
8.3616
20
-1.78429
11
8.34882
21
-1.7908
0
LINE
8
BLACK
6
CONTINUOUS
10
8.34882
20
-1.7908
11
8.3368
21
-1.79861
0
LINE
8
BLACK
6
CONTINUOUS
10
8.3368
20
-1.79861
11
8.32565
21
-1.80764
0
LINE
8
BLACK
6
CONTINUOUS
10
8.32565
20
-1.80764
11
8.31551
21
-1.81778
0
LINE
8
BLACK
6
CONTINUOUS
10
8.31551
20
-1.81778
11
8.30649
21
-1.82892
0
LINE
8
BLACK
6
CONTINUOUS
10
8.30649
20
-1.82892
11
8.29868
21
-1.84095
0
LINE
8
BLACK
6
CONTINUOUS
10
8.29868
20
-1.84095
11
8.29217
21
-1.85373
0
LINE
8
BLACK
6
CONTINUOUS
10
8.29217
20
-1.85373
11
8.28703
21
-1.86711
0
LINE
8
BLACK
6
CONTINUOUS
10
8.28703
20
-1.86711
11
8.28332
21
-1.88097
0
LINE
8
BLACK
6
CONTINUOUS
10
8.28332
20
-1.88097
11
8.28107
21
-1.89513
0
LINE
8
BLACK
6
CONTINUOUS
10
8.28107
20
-1.89513
11
8.28032
21
-1.90945
0
LINE
8
BLACK
6
CONTINUOUS
10
8.28032
20
-1.90945
11
8.28107
21
-1.92377
0
LINE
8
BLACK
6
CONTINUOUS
10
8.28107
20
-1.92377
11
8.28332
21
-1.93793
0
LINE
8
BLACK
6
CONTINUOUS
10
7.78551
20
-1.88059
11
7.78927
21
-1.86656
0
LINE
8
BLACK
6
CONTINUOUS
10
7.78927
20
-1.86656
11
7.79448
21
-1.853
0
LINE
8
BLACK
6
CONTINUOUS
10
7.79448
20
-1.853
11
7.80107
21
-1.84006
0
LINE
8
BLACK
6
CONTINUOUS
10
7.80107
20
-1.84006
11
7.80898
21
-1.82788
0
LINE
8
BLACK
6
CONTINUOUS
10
7.80898
20
-1.82788
11
7.81813
21
-1.81659
0
LINE
8
BLACK
6
CONTINUOUS
10
7.81813
20
-1.81659
11
7.8284
21
-1.80632
0
LINE
8
BLACK
6
CONTINUOUS
10
7.8284
20
-1.80632
11
7.83969
21
-1.79717
0
LINE
8
BLACK
6
CONTINUOUS
10
7.83969
20
-1.79717
11
7.85187
21
-1.78926
0
LINE
8
BLACK
6
CONTINUOUS
10
7.85187
20
-1.78926
11
7.86481
21
-1.78267
0
LINE
8
BLACK
6
CONTINUOUS
10
7.86481
20
-1.78267
11
7.87837
21
-1.77746
0
LINE
8
BLACK
6
CONTINUOUS
10
7.87837
20
-1.77746
11
7.89241
21
-1.7737
0
LINE
8
BLACK
6
CONTINUOUS
10
7.89241
20
-1.7737
11
7.90675
21
-1.77143
0
LINE
8
BLACK
6
CONTINUOUS
10
7.90675
20
-1.77143
11
7.92126
21
-1.77067
0
LINE
8
BLACK
6
CONTINUOUS
10
7.92126
20
-1.77067
11
7.93577
21
-1.77143
0
LINE
8
BLACK
6
CONTINUOUS
10
7.93577
20
-1.77143
11
7.95011
21
-1.7737
0
LINE
8
BLACK
6
CONTINUOUS
10
7.95011
20
-1.7737
11
7.96415
21
-1.77746
0
LINE
8
BLACK
6
CONTINUOUS
10
7.96415
20
-1.77746
11
7.97771
21
-1.78267
0
LINE
8
BLACK
6
CONTINUOUS
10
7.97771
20
-1.78267
11
7.99065
21
-1.78926
0
LINE
8
BLACK
6
CONTINUOUS
10
7.99065
20
-1.78926
11
8.00283
21
-1.79717
0
LINE
8
BLACK
6
CONTINUOUS
10
8.00283
20
-1.79717
11
8.01412
21
-1.80632
0
LINE
8
BLACK
6
CONTINUOUS
10
8.01412
20
-1.80632
11
8.02439
21
-1.81659
0
LINE
8
BLACK
6
CONTINUOUS
10
8.02439
20
-1.81659
11
8.03353
21
-1.82788
0
LINE
8
BLACK
6
CONTINUOUS
10
8.03353
20
-1.82788
11
8.04145
21
-1.84006
0
LINE
8
BLACK
6
CONTINUOUS
10
8.04145
20
-1.84006
11
8.04804
21
-1.853
0
LINE
8
BLACK
6
CONTINUOUS
10
8.04804
20
-1.853
11
8.05325
21
-1.86656
0
LINE
8
BLACK
6
CONTINUOUS
10
8.05325
20
-1.86656
11
8.05701
21
-1.88059
0
LINE
8
BLACK
6
CONTINUOUS
10
8.05701
20
-1.88059
11
8.05928
21
-1.89494
0
LINE
8
BLACK
6
CONTINUOUS
10
8.05928
20
-1.89494
11
8.06004
21
-1.90945
0
LINE
8
BLACK
6
CONTINUOUS
10
8.06004
20
-1.90945
11
8.05928
21
-1.92396
0
LINE
8
BLACK
6
CONTINUOUS
10
8.05928
20
-1.92396
11
8.05701
21
-1.9383
0
LINE
8
BLACK
6
CONTINUOUS
10
8.05701
20
-1.9383
11
8.05325
21
-1.95233
0
LINE
8
BLACK
6
CONTINUOUS
10
8.05325
20
-1.95233
11
8.04804
21
-1.9659
0
LINE
8
BLACK
6
CONTINUOUS
10
8.04804
20
-1.9659
11
8.04145
21
-1.97884
0
LINE
8
BLACK
6
CONTINUOUS
10
8.04145
20
-1.97884
11
8.03353
21
-1.99102
0
LINE
8
BLACK
6
CONTINUOUS
10
8.03353
20
-1.99102
11
8.02439
21
-2.00231
0
LINE
8
BLACK
6
CONTINUOUS
10
8.02439
20
-2.00231
11
8.01412
21
-2.01258
0
LINE
8
BLACK
6
CONTINUOUS
10
8.01412
20
-2.01258
11
8.00283
21
-2.02172
0
LINE
8
BLACK
6
CONTINUOUS
10
8.00283
20
-2.02172
11
7.99065
21
-2.02964
0
LINE
8
BLACK
6
CONTINUOUS
10
7.99065
20
-2.02964
11
7.97771
21
-2.03623
0
LINE
8
BLACK
6
CONTINUOUS
10
7.97771
20
-2.03623
11
7.96415
21
-2.04144
0
LINE
8
BLACK
6
CONTINUOUS
10
7.96415
20
-2.04144
11
7.95011
21
-2.0452
0
LINE
8
BLACK
6
CONTINUOUS
10
7.95011
20
-2.0452
11
7.93577
21
-2.04747
0
LINE
8
BLACK
6
CONTINUOUS
10
7.93577
20
-2.04747
11
7.92126
21
-2.04823
0
LINE
8
BLACK
6
CONTINUOUS
10
7.92126
20
-2.04823
11
7.90675
21
-2.04747
0
LINE
8
BLACK
6
CONTINUOUS
10
7.90675
20
-2.04747
11
7.89241
21
-2.0452
0
LINE
8
BLACK
6
CONTINUOUS
10
7.89241
20
-2.0452
11
7.87837
21
-2.04144
0
LINE
8
BLACK
6
CONTINUOUS
10
7.87837
20
-2.04144
11
7.86481
21
-2.03623
0
LINE
8
BLACK
6
CONTINUOUS
10
7.86481
20
-2.03623
11
7.85187
21
-2.02964
0
LINE
8
BLACK
6
CONTINUOUS
10
7.85187
20
-2.02964
11
7.83969
21
-2.02172
0
LINE
8
BLACK
6
CONTINUOUS
10
7.83969
20
-2.02172
11
7.8284
21
-2.01258
0
LINE
8
BLACK
6
CONTINUOUS
10
7.8284
20
-2.01258
11
7.81813
21
-2.00231
0
LINE
8
BLACK
6
CONTINUOUS
10
7.81813
20
-2.00231
11
7.80898
21
-1.99102
0
LINE
8
BLACK
6
CONTINUOUS
10
7.80898
20
-1.99102
11
7.80107
21
-1.97884
0
LINE
8
BLACK
6
CONTINUOUS
10
7.80107
20
-1.97884
11
7.79448
21
-1.9659
0
LINE
8
BLACK
6
CONTINUOUS
10
7.79448
20
-1.9659
11
7.78927
21
-1.95233
0
LINE
8
BLACK
6
CONTINUOUS
10
7.78927
20
-1.95233
11
7.78551
21
-1.9383
0
LINE
8
BLACK
6
CONTINUOUS
10
7.78551
20
-1.9383
11
7.78324
21
-1.92396
0
LINE
8
BLACK
6
CONTINUOUS
10
7.78324
20
-1.92396
11
7.78248
21
-1.90945
0
LINE
8
BLACK
6
CONTINUOUS
10
7.78248
20
-1.90945
11
7.78324
21
-1.89494
0
LINE
8
BLACK
6
CONTINUOUS
10
7.78324
20
-1.89494
11
7.78551
21
-1.88059
0
LINE
8
BLACK
6
CONTINUOUS
10
7.78725
20
-1.93793
11
7.79097
21
-1.95178
0
LINE
8
BLACK
6
CONTINUOUS
10
7.79097
20
-1.95178
11
7.79611
21
-1.96517
0
LINE
8
BLACK
6
CONTINUOUS
10
7.79611
20
-1.96517
11
7.80262
21
-1.97795
0
LINE
8
BLACK
6
CONTINUOUS
10
7.80262
20
-1.97795
11
7.81043
21
-1.98997
0
LINE
8
BLACK
6
CONTINUOUS
10
7.81043
20
-1.98997
11
7.81945
21
-2.00112
0
LINE
8
BLACK
6
CONTINUOUS
10
7.81945
20
-2.00112
11
7.82959
21
-2.01126
0
LINE
8
BLACK
6
CONTINUOUS
10
7.82959
20
-2.01126
11
7.84073
21
-2.02028
0
LINE
8
BLACK
6
CONTINUOUS
10
7.84073
20
-2.02028
11
7.85276
21
-2.02809
0
LINE
8
BLACK
6
CONTINUOUS
10
7.85276
20
-2.02809
11
7.86554
21
-2.0346
0
LINE
8
BLACK
6
CONTINUOUS
10
7.86554
20
-2.0346
11
7.87892
21
-2.03974
0
LINE
8
BLACK
6
CONTINUOUS
10
7.87892
20
-2.03974
11
7.89278
21
-2.04345
0
LINE
8
BLACK
6
CONTINUOUS
10
7.89278
20
-2.04345
11
7.90694
21
-2.0457
0
LINE
8
BLACK
6
CONTINUOUS
10
7.90694
20
-2.0457
11
7.92126
21
-2.04645
0
LINE
8
BLACK
6
CONTINUOUS
10
7.92126
20
-2.04645
11
7.93558
21
-2.0457
0
LINE
8
BLACK
6
CONTINUOUS
10
7.93558
20
-2.0457
11
7.94974
21
-2.04345
0
LINE
8
BLACK
6
CONTINUOUS
10
7.94974
20
-2.04345
11
7.96359
21
-2.03974
0
LINE
8
BLACK
6
CONTINUOUS
10
7.96359
20
-2.03974
11
7.97698
21
-2.0346
0
LINE
8
BLACK
6
CONTINUOUS
10
7.97698
20
-2.0346
11
7.98976
21
-2.02809
0
LINE
8
BLACK
6
CONTINUOUS
10
7.98976
20
-2.02809
11
8.00179
21
-2.02028
0
LINE
8
BLACK
6
CONTINUOUS
10
8.00179
20
-2.02028
11
8.01293
21
-2.01126
0
LINE
8
BLACK
6
CONTINUOUS
10
8.01293
20
-2.01126
11
8.02307
21
-2.00112
0
LINE
8
BLACK
6
CONTINUOUS
10
8.02307
20
-2.00112
11
8.03209
21
-1.98997
0
LINE
8
BLACK
6
CONTINUOUS
10
8.03209
20
-1.98997
11
8.0399
21
-1.97795
0
LINE
8
BLACK
6
CONTINUOUS
10
8.0399
20
-1.97795
11
8.04641
21
-1.96517
0
LINE
8
BLACK
6
CONTINUOUS
10
8.04641
20
-1.96517
11
8.05155
21
-1.95178
0
LINE
8
BLACK
6
CONTINUOUS
10
8.05155
20
-1.95178
11
8.05526
21
-1.93793
0
LINE
8
BLACK
6
CONTINUOUS
10
8.05526
20
-1.93793
11
8.05751
21
-1.92377
0
LINE
8
BLACK
6
CONTINUOUS
10
8.05751
20
-1.92377
11
8.05826
21
-1.90945
0
LINE
8
BLACK
6
CONTINUOUS
10
8.05826
20
-1.90945
11
8.05751
21
-1.89513
0
LINE
8
BLACK
6
CONTINUOUS
10
8.05751
20
-1.89513
11
8.05526
21
-1.88097
0
LINE
8
BLACK
6
CONTINUOUS
10
8.05526
20
-1.88097
11
8.05155
21
-1.86711
0
LINE
8
BLACK
6
CONTINUOUS
10
8.05155
20
-1.86711
11
8.04641
21
-1.85373
0
LINE
8
BLACK
6
CONTINUOUS
10
8.04641
20
-1.85373
11
8.0399
21
-1.84095
0
LINE
8
BLACK
6
CONTINUOUS
10
8.0399
20
-1.84095
11
8.03209
21
-1.82892
0
LINE
8
BLACK
6
CONTINUOUS
10
8.03209
20
-1.82892
11
8.02307
21
-1.81778
0
LINE
8
BLACK
6
CONTINUOUS
10
8.02307
20
-1.81778
11
8.01293
21
-1.80764
0
LINE
8
BLACK
6
CONTINUOUS
10
8.01293
20
-1.80764
11
8.00179
21
-1.79861
0
LINE
8
BLACK
6
CONTINUOUS
10
8.00179
20
-1.79861
11
7.98976
21
-1.7908
0
LINE
8
BLACK
6
CONTINUOUS
10
7.98976
20
-1.7908
11
7.97698
21
-1.78429
0
LINE
8
BLACK
6
CONTINUOUS
10
7.97698
20
-1.78429
11
7.96359
21
-1.77916
0
LINE
8
BLACK
6
CONTINUOUS
10
7.96359
20
-1.77916
11
7.94974
21
-1.77544
0
LINE
8
BLACK
6
CONTINUOUS
10
7.94974
20
-1.77544
11
7.93558
21
-1.7732
0
LINE
8
BLACK
6
CONTINUOUS
10
7.93558
20
-1.7732
11
7.92126
21
-1.77245
0
LINE
8
BLACK
6
CONTINUOUS
10
7.92126
20
-1.77245
11
7.90694
21
-1.7732
0
LINE
8
BLACK
6
CONTINUOUS
10
7.90694
20
-1.7732
11
7.89278
21
-1.77544
0
LINE
8
BLACK
6
CONTINUOUS
10
7.89278
20
-1.77544
11
7.87892
21
-1.77916
0
LINE
8
BLACK
6
CONTINUOUS
10
7.87892
20
-1.77916
11
7.86554
21
-1.78429
0
LINE
8
BLACK
6
CONTINUOUS
10
7.86554
20
-1.78429
11
7.85276
21
-1.7908
0
LINE
8
BLACK
6
CONTINUOUS
10
7.85276
20
-1.7908
11
7.84073
21
-1.79861
0
LINE
8
BLACK
6
CONTINUOUS
10
7.84073
20
-1.79861
11
7.82959
21
-1.80764
0
LINE
8
BLACK
6
CONTINUOUS
10
7.82959
20
-1.80764
11
7.81945
21
-1.81778
0
LINE
8
BLACK
6
CONTINUOUS
10
7.81945
20
-1.81778
11
7.81043
21
-1.82892
0
LINE
8
BLACK
6
CONTINUOUS
10
7.81043
20
-1.82892
11
7.80262
21
-1.84095
0
LINE
8
BLACK
6
CONTINUOUS
10
7.80262
20
-1.84095
11
7.79611
21
-1.85373
0
LINE
8
BLACK
6
CONTINUOUS
10
7.79611
20
-1.85373
11
7.79097
21
-1.86711
0
LINE
8
BLACK
6
CONTINUOUS
10
7.79097
20
-1.86711
11
7.78725
21
-1.88097
0
LINE
8
BLACK
6
CONTINUOUS
10
7.78725
20
-1.88097
11
7.78501
21
-1.89513
0
LINE
8
BLACK
6
CONTINUOUS
10
7.78501
20
-1.89513
11
7.78426
21
-1.90945
0
LINE
8
BLACK
6
CONTINUOUS
10
7.78426
20
-1.90945
11
7.78501
21
-1.92377
0
LINE
8
BLACK
6
CONTINUOUS
10
7.78501
20
-1.92377
11
7.78725
21
-1.93793
0
LINE
8
BLACK
6
CONTINUOUS
10
8.78158
20
-1.88059
11
8.78534
21
-1.86656
0
LINE
8
BLACK
6
CONTINUOUS
10
8.78534
20
-1.86656
11
8.79054
21
-1.853
0
LINE
8
BLACK
6
CONTINUOUS
10
8.79054
20
-1.853
11
8.79714
21
-1.84006
0
LINE
8
BLACK
6
CONTINUOUS
10
8.79714
20
-1.84006
11
8.80505
21
-1.82788
0
LINE
8
BLACK
6
CONTINUOUS
10
8.80505
20
-1.82788
11
8.81419
21
-1.81659
0
LINE
8
BLACK
6
CONTINUOUS
10
8.81419
20
-1.81659
11
8.82446
21
-1.80632
0
LINE
8
BLACK
6
CONTINUOUS
10
8.82446
20
-1.80632
11
8.83575
21
-1.79717
0
LINE
8
BLACK
6
CONTINUOUS
10
8.83575
20
-1.79717
11
8.84793
21
-1.78926
0
LINE
8
BLACK
6
CONTINUOUS
10
8.84793
20
-1.78926
11
8.86088
21
-1.78267
0
LINE
8
BLACK
6
CONTINUOUS
10
8.86088
20
-1.78267
11
8.87444
21
-1.77746
0
LINE
8
BLACK
6
CONTINUOUS
10
8.87444
20
-1.77746
11
8.88847
21
-1.7737
0
LINE
8
BLACK
6
CONTINUOUS
10
8.88847
20
-1.7737
11
8.90282
21
-1.77143
0
LINE
8
BLACK
6
CONTINUOUS
10
8.90282
20
-1.77143
11
8.91732
21
-1.77067
0
LINE
8
BLACK
6
CONTINUOUS
10
8.91732
20
-1.77067
11
8.93183
21
-1.77143
0
LINE
8
BLACK
6
CONTINUOUS
10
8.93183
20
-1.77143
11
8.94618
21
-1.7737
0
LINE
8
BLACK
6
CONTINUOUS
10
8.94618
20
-1.7737
11
8.96021
21
-1.77746
0
LINE
8
BLACK
6
CONTINUOUS
10
8.96021
20
-1.77746
11
8.97377
21
-1.78267
0
LINE
8
BLACK
6
CONTINUOUS
10
8.97377
20
-1.78267
11
8.98671
21
-1.78926
0
LINE
8
BLACK
6
CONTINUOUS
10
8.98671
20
-1.78926
11
8.9989
21
-1.79717
0
LINE
8
BLACK
6
CONTINUOUS
10
8.9989
20
-1.79717
11
9.01018
21
-1.80632
0
LINE
8
BLACK
6
CONTINUOUS
10
9.01018
20
-1.80632
11
9.02046
21
-1.81659
0
LINE
8
BLACK
6
CONTINUOUS
10
9.02046
20
-1.81659
11
9.0296
21
-1.82788
0
LINE
8
BLACK
6
CONTINUOUS
10
9.0296
20
-1.82788
11
9.03751
21
-1.84006
0
LINE
8
BLACK
6
CONTINUOUS
10
9.03751
20
-1.84006
11
9.0441
21
-1.853
0
LINE
8
BLACK
6
CONTINUOUS
10
9.0441
20
-1.853
11
9.04931
21
-1.86656
0
LINE
8
BLACK
6
CONTINUOUS
10
9.04931
20
-1.86656
11
9.05307
21
-1.88059
0
LINE
8
BLACK
6
CONTINUOUS
10
9.05307
20
-1.88059
11
9.05534
21
-1.89494
0
LINE
8
BLACK
6
CONTINUOUS
10
9.05534
20
-1.89494
11
9.0561
21
-1.90945
0
LINE
8
BLACK
6
CONTINUOUS
10
9.0561
20
-1.90945
11
9.05534
21
-1.92396
0
LINE
8
BLACK
6
CONTINUOUS
10
9.05534
20
-1.92396
11
9.05307
21
-1.9383
0
LINE
8
BLACK
6
CONTINUOUS
10
9.05307
20
-1.9383
11
9.04931
21
-1.95233
0
LINE
8
BLACK
6
CONTINUOUS
10
9.04931
20
-1.95233
11
9.0441
21
-1.9659
0
LINE
8
BLACK
6
CONTINUOUS
10
9.0441
20
-1.9659
11
9.03751
21
-1.97884
0
LINE
8
BLACK
6
CONTINUOUS
10
9.03751
20
-1.97884
11
9.0296
21
-1.99102
0
LINE
8
BLACK
6
CONTINUOUS
10
9.0296
20
-1.99102
11
9.02046
21
-2.00231
0
LINE
8
BLACK
6
CONTINUOUS
10
9.02046
20
-2.00231
11
9.01018
21
-2.01258
0
LINE
8
BLACK
6
CONTINUOUS
10
9.01018
20
-2.01258
11
8.9989
21
-2.02172
0
LINE
8
BLACK
6
CONTINUOUS
10
8.9989
20
-2.02172
11
8.98671
21
-2.02964
0
LINE
8
BLACK
6
CONTINUOUS
10
8.98671
20
-2.02964
11
8.97377
21
-2.03623
0
LINE
8
BLACK
6
CONTINUOUS
10
8.97377
20
-2.03623
11
8.96021
21
-2.04144
0
LINE
8
BLACK
6
CONTINUOUS
10
8.96021
20
-2.04144
11
8.94618
21
-2.0452
0
LINE
8
BLACK
6
CONTINUOUS
10
8.94618
20
-2.0452
11
8.93183
21
-2.04747
0
LINE
8
BLACK
6
CONTINUOUS
10
8.93183
20
-2.04747
11
8.91732
21
-2.04823
0
LINE
8
BLACK
6
CONTINUOUS
10
8.91732
20
-2.04823
11
8.90282
21
-2.04747
0
LINE
8
BLACK
6
CONTINUOUS
10
8.90282
20
-2.04747
11
8.88847
21
-2.0452
0
LINE
8
BLACK
6
CONTINUOUS
10
8.88847
20
-2.0452
11
8.87444
21
-2.04144
0
LINE
8
BLACK
6
CONTINUOUS
10
8.87444
20
-2.04144
11
8.86088
21
-2.03623
0
LINE
8
BLACK
6
CONTINUOUS
10
8.86088
20
-2.03623
11
8.84793
21
-2.02964
0
LINE
8
BLACK
6
CONTINUOUS
10
8.84793
20
-2.02964
11
8.83575
21
-2.02172
0
LINE
8
BLACK
6
CONTINUOUS
10
8.83575
20
-2.02172
11
8.82446
21
-2.01258
0
LINE
8
BLACK
6
CONTINUOUS
10
8.82446
20
-2.01258
11
8.81419
21
-2.00231
0
LINE
8
BLACK
6
CONTINUOUS
10
8.81419
20
-2.00231
11
8.80505
21
-1.99102
0
LINE
8
BLACK
6
CONTINUOUS
10
8.80505
20
-1.99102
11
8.79714
21
-1.97884
0
LINE
8
BLACK
6
CONTINUOUS
10
8.79714
20
-1.97884
11
8.79054
21
-1.9659
0
LINE
8
BLACK
6
CONTINUOUS
10
8.79054
20
-1.9659
11
8.78534
21
-1.95233
0
LINE
8
BLACK
6
CONTINUOUS
10
8.78534
20
-1.95233
11
8.78158
21
-1.9383
0
LINE
8
BLACK
6
CONTINUOUS
10
8.78158
20
-1.9383
11
8.7793
21
-1.92396
0
LINE
8
BLACK
6
CONTINUOUS
10
8.7793
20
-1.92396
11
8.77854
21
-1.90945
0
LINE
8
BLACK
6
CONTINUOUS
10
8.77854
20
-1.90945
11
8.7793
21
-1.89494
0
LINE
8
BLACK
6
CONTINUOUS
10
8.7793
20
-1.89494
11
8.78158
21
-1.88059
0
LINE
8
BLACK
6
CONTINUOUS
10
8.78332
20
-1.93793
11
8.78703
21
-1.95178
0
LINE
8
BLACK
6
CONTINUOUS
10
8.78703
20
-1.95178
11
8.79217
21
-1.96517
0
LINE
8
BLACK
6
CONTINUOUS
10
8.79217
20
-1.96517
11
8.79868
21
-1.97795
0
LINE
8
BLACK
6
CONTINUOUS
10
8.79868
20
-1.97795
11
8.80649
21
-1.98997
0
LINE
8
BLACK
6
CONTINUOUS
10
8.80649
20
-1.98997
11
8.81551
21
-2.00112
0
LINE
8
BLACK
6
CONTINUOUS
10
8.81551
20
-2.00112
11
8.82565
21
-2.01126
0
LINE
8
BLACK
6
CONTINUOUS
10
8.82565
20
-2.01126
11
8.8368
21
-2.02028
0
LINE
8
BLACK
6
CONTINUOUS
10
8.8368
20
-2.02028
11
8.84882
21
-2.02809
0
LINE
8
BLACK
6
CONTINUOUS
10
8.84882
20
-2.02809
11
8.8616
21
-2.0346
0
LINE
8
BLACK
6
CONTINUOUS
10
8.8616
20
-2.0346
11
8.87499
21
-2.03974
0
LINE
8
BLACK
6
CONTINUOUS
10
8.87499
20
-2.03974
11
8.88884
21
-2.04345
0
LINE
8
BLACK
6
CONTINUOUS
10
8.88884
20
-2.04345
11
8.903
21
-2.0457
0
LINE
8
BLACK
6
CONTINUOUS
10
8.903
20
-2.0457
11
8.91732
21
-2.04645
0
LINE
8
BLACK
6
CONTINUOUS
10
8.91732
20
-2.04645
11
8.93164
21
-2.0457
0
LINE
8
BLACK
6
CONTINUOUS
10
8.93164
20
-2.0457
11
8.94581
21
-2.04345
0
LINE
8
BLACK
6
CONTINUOUS
10
8.94581
20
-2.04345
11
8.95966
21
-2.03974
0
LINE
8
BLACK
6
CONTINUOUS
10
8.95966
20
-2.03974
11
8.97305
21
-2.0346
0
LINE
8
BLACK
6
CONTINUOUS
10
8.97305
20
-2.0346
11
8.98582
21
-2.02809
0
LINE
8
BLACK
6
CONTINUOUS
10
8.98582
20
-2.02809
11
8.99785
21
-2.02028
0
LINE
8
BLACK
6
CONTINUOUS
10
8.99785
20
-2.02028
11
9.00899
21
-2.01126
0
LINE
8
BLACK
6
CONTINUOUS
10
9.00899
20
-2.01126
11
9.01913
21
-2.00112
0
LINE
8
BLACK
6
CONTINUOUS
10
9.01913
20
-2.00112
11
9.02816
21
-1.98997
0
LINE
8
BLACK
6
CONTINUOUS
10
9.02816
20
-1.98997
11
9.03597
21
-1.97795
0
LINE
8
BLACK
6
CONTINUOUS
10
9.03597
20
-1.97795
11
9.04248
21
-1.96517
0
LINE
8
BLACK
6
CONTINUOUS
10
9.04248
20
-1.96517
11
9.04762
21
-1.95178
0
LINE
8
BLACK
6
CONTINUOUS
10
9.04762
20
-1.95178
11
9.05133
21
-1.93793
0
LINE
8
BLACK
6
CONTINUOUS
10
9.05133
20
-1.93793
11
9.05357
21
-1.92377
0
LINE
8
BLACK
6
CONTINUOUS
10
9.05357
20
-1.92377
11
9.05432
21
-1.90945
0
LINE
8
BLACK
6
CONTINUOUS
10
9.05432
20
-1.90945
11
9.05357
21
-1.89513
0
LINE
8
BLACK
6
CONTINUOUS
10
9.05357
20
-1.89513
11
9.05133
21
-1.88097
0
LINE
8
BLACK
6
CONTINUOUS
10
9.05133
20
-1.88097
11
9.04762
21
-1.86711
0
LINE
8
BLACK
6
CONTINUOUS
10
9.04762
20
-1.86711
11
9.04248
21
-1.85373
0
LINE
8
BLACK
6
CONTINUOUS
10
9.04248
20
-1.85373
11
9.03597
21
-1.84095
0
LINE
8
BLACK
6
CONTINUOUS
10
9.03597
20
-1.84095
11
9.02816
21
-1.82892
0
LINE
8
BLACK
6
CONTINUOUS
10
9.02816
20
-1.82892
11
9.01913
21
-1.81778
0
LINE
8
BLACK
6
CONTINUOUS
10
9.01913
20
-1.81778
11
9.00899
21
-1.80764
0
LINE
8
BLACK
6
CONTINUOUS
10
9.00899
20
-1.80764
11
8.99785
21
-1.79861
0
LINE
8
BLACK
6
CONTINUOUS
10
8.99785
20
-1.79861
11
8.98582
21
-1.7908
0
LINE
8
BLACK
6
CONTINUOUS
10
8.98582
20
-1.7908
11
8.97305
21
-1.78429
0
LINE
8
BLACK
6
CONTINUOUS
10
8.97305
20
-1.78429
11
8.95966
21
-1.77916
0
LINE
8
BLACK
6
CONTINUOUS
10
8.95966
20
-1.77916
11
8.94581
21
-1.77544
0
LINE
8
BLACK
6
CONTINUOUS
10
8.94581
20
-1.77544
11
8.93164
21
-1.7732
0
LINE
8
BLACK
6
CONTINUOUS
10
8.93164
20
-1.7732
11
8.91732
21
-1.77245
0
LINE
8
BLACK
6
CONTINUOUS
10
8.91732
20
-1.77245
11
8.903
21
-1.7732
0
LINE
8
BLACK
6
CONTINUOUS
10
8.903
20
-1.7732
11
8.88884
21
-1.77544
0
LINE
8
BLACK
6
CONTINUOUS
10
8.88884
20
-1.77544
11
8.87499
21
-1.77916
0
LINE
8
BLACK
6
CONTINUOUS
10
8.87499
20
-1.77916
11
8.8616
21
-1.78429
0
LINE
8
BLACK
6
CONTINUOUS
10
8.8616
20
-1.78429
11
8.84882
21
-1.7908
0
LINE
8
BLACK
6
CONTINUOUS
10
8.84882
20
-1.7908
11
8.8368
21
-1.79861
0
LINE
8
BLACK
6
CONTINUOUS
10
8.8368
20
-1.79861
11
8.82565
21
-1.80764
0
LINE
8
BLACK
6
CONTINUOUS
10
8.82565
20
-1.80764
11
8.81551
21
-1.81778
0
LINE
8
BLACK
6
CONTINUOUS
10
8.81551
20
-1.81778
11
8.80649
21
-1.82892
0
LINE
8
BLACK
6
CONTINUOUS
10
8.80649
20
-1.82892
11
8.79868
21
-1.84095
0
LINE
8
BLACK
6
CONTINUOUS
10
8.79868
20
-1.84095
11
8.79217
21
-1.85373
0
LINE
8
BLACK
6
CONTINUOUS
10
8.79217
20
-1.85373
11
8.78703
21
-1.86711
0
LINE
8
BLACK
6
CONTINUOUS
10
8.78703
20
-1.86711
11
8.78332
21
-1.88097
0
LINE
8
BLACK
6
CONTINUOUS
10
8.78332
20
-1.88097
11
8.78107
21
-1.89513
0
LINE
8
BLACK
6
CONTINUOUS
10
8.78107
20
-1.89513
11
8.78032
21
-1.90945
0
LINE
8
BLACK
6
CONTINUOUS
10
8.78032
20
-1.90945
11
8.78107
21
-1.92377
0
LINE
8
BLACK
6
CONTINUOUS
10
8.78107
20
-1.92377
11
8.78332
21
-1.93793
0
LINE
8
BLACK
6
CONTINUOUS
10
8.29946
20
-1.432
11
8.30215
21
-1.41901
0
LINE
8
BLACK
6
CONTINUOUS
10
8.30215
20
-1.41901
11
8.30632
21
-1.40643
0
LINE
8
BLACK
6
CONTINUOUS
10
8.30632
20
-1.40643
11
8.3119
21
-1.3944
0
LINE
8
BLACK
6
CONTINUOUS
10
8.3119
20
-1.3944
11
8.31882
21
-1.3831
0
LINE
8
BLACK
6
CONTINUOUS
10
8.31882
20
-1.3831
11
8.327
21
-1.37266
0
LINE
8
BLACK
6
CONTINUOUS
10
8.327
20
-1.37266
11
8.33633
21
-1.36324
0
LINE
8
BLACK
6
CONTINUOUS
10
8.33633
20
-1.36324
11
8.34668
21
-1.35495
0
LINE
8
BLACK
6
CONTINUOUS
10
8.34668
20
-1.35495
11
8.35791
21
-1.34791
0
LINE
8
BLACK
6
CONTINUOUS
10
8.35791
20
-1.34791
11
8.36987
21
-1.3422
0
LINE
8
BLACK
6
CONTINUOUS
10
8.36987
20
-1.3422
11
8.38242
21
-1.3379
0
LINE
8
BLACK
6
CONTINUOUS
10
8.38242
20
-1.3379
11
8.39537
21
-1.33508
0
LINE
8
BLACK
6
CONTINUOUS
10
8.39537
20
-1.33508
11
8.40856
21
-1.33376
0
LINE
8
BLACK
6
CONTINUOUS
10
8.40856
20
-1.33376
11
8.42182
21
-1.33397
0
LINE
8
BLACK
6
CONTINUOUS
10
8.42182
20
-1.33397
11
8.43496
21
-1.3357
0
LINE
8
BLACK
6
CONTINUOUS
10
8.43496
20
-1.3357
11
8.44782
21
-1.33893
0
LINE
8
BLACK
6
CONTINUOUS
10
8.44782
20
-1.33893
11
8.46022
21
-1.34362
0
LINE
8
BLACK
6
CONTINUOUS
10
8.46022
20
-1.34362
11
8.47201
21
-1.3497
0
LINE
8
BLACK
6
CONTINUOUS
10
8.47201
20
-1.3497
11
8.48301
21
-1.35709
0
LINE
8
BLACK
6
CONTINUOUS
10
8.48301
20
-1.35709
11
8.49309
21
-1.3657
0
LINE
8
BLACK
6
CONTINUOUS
10
8.49309
20
-1.3657
11
8.50212
21
-1.37541
0
LINE
8
BLACK
6
CONTINUOUS
10
8.50212
20
-1.37541
11
8.50996
21
-1.3861
0
LINE
8
BLACK
6
CONTINUOUS
10
8.50996
20
-1.3861
11
8.51653
21
-1.39762
0
LINE
8
BLACK
6
CONTINUOUS
10
8.51653
20
-1.39762
11
8.52174
21
-1.40981
0
LINE
8
BLACK
6
CONTINUOUS
10
8.52174
20
-1.40981
11
8.5255
21
-1.42252
0
LINE
8
BLACK
6
CONTINUOUS
10
8.5255
20
-1.42252
11
8.52778
21
-1.43558
0
LINE
8
BLACK
6
CONTINUOUS
10
8.52778
20
-1.43558
11
8.52854
21
-1.44882
0
LINE
8
BLACK
6
CONTINUOUS
10
8.52854
20
-1.44882
11
8.52832
21
-1.45605
0
LINE
8
BLACK
6
CONTINUOUS
10
8.52832
20
-1.45605
11
8.52672
21
-1.46921
0
LINE
8
BLACK
6
CONTINUOUS
10
8.52672
20
-1.46921
11
8.52363
21
-1.4821
0
LINE
8
BLACK
6
CONTINUOUS
10
8.52363
20
-1.4821
11
8.51907
21
-1.49455
0
LINE
8
BLACK
6
CONTINUOUS
10
8.51907
20
-1.49455
11
8.51312
21
-1.5064
0
LINE
8
BLACK
6
CONTINUOUS
10
8.51312
20
-1.5064
11
8.50584
21
-1.51748
0
LINE
8
BLACK
6
CONTINUOUS
10
8.50584
20
-1.51748
11
8.49733
21
-1.52765
0
LINE
8
BLACK
6
CONTINUOUS
10
8.49733
20
-1.52765
11
8.48772
21
-1.53678
0
LINE
8
BLACK
6
CONTINUOUS
10
8.48772
20
-1.53678
11
8.47711
21
-1.54474
0
LINE
8
BLACK
6
CONTINUOUS
10
8.47711
20
-1.54474
11
8.46567
21
-1.55142
0
LINE
8
BLACK
6
CONTINUOUS
10
8.46567
20
-1.55142
11
8.45353
21
-1.55675
0
LINE
8
BLACK
6
CONTINUOUS
10
8.45353
20
-1.55675
11
8.44085
21
-1.56065
0
LINE
8
BLACK
6
CONTINUOUS
10
8.44085
20
-1.56065
11
8.42782
21
-1.56307
0
LINE
8
BLACK
6
CONTINUOUS
10
8.42782
20
-1.56307
11
8.41459
21
-1.56397
0
LINE
8
BLACK
6
CONTINUOUS
10
8.41459
20
-1.56397
11
8.40135
21
-1.56335
0
LINE
8
BLACK
6
CONTINUOUS
10
8.40135
20
-1.56335
11
8.38827
21
-1.5612
0
LINE
8
BLACK
6
CONTINUOUS
10
8.38827
20
-1.5612
11
8.37551
21
-1.55757
0
LINE
8
BLACK
6
CONTINUOUS
10
8.37551
20
-1.55757
11
8.36327
21
-1.5525
0
LINE
8
BLACK
6
CONTINUOUS
10
8.36327
20
-1.5525
11
8.35168
21
-1.54605
0
LINE
8
BLACK
6
CONTINUOUS
10
8.35168
20
-1.54605
11
8.34091
21
-1.53831
0
LINE
8
BLACK
6
CONTINUOUS
10
8.34091
20
-1.53831
11
8.33111
21
-1.52939
0
LINE
8
BLACK
6
CONTINUOUS
10
8.33111
20
-1.52939
11
8.32239
21
-1.5194
0
LINE
8
BLACK
6
CONTINUOUS
10
8.32239
20
-1.5194
11
8.31488
21
-1.50847
0
LINE
8
BLACK
6
CONTINUOUS
10
8.31488
20
-1.50847
11
8.30868
21
-1.49676
0
LINE
8
BLACK
6
CONTINUOUS
10
8.30868
20
-1.49676
11
8.30386
21
-1.4844
0
LINE
8
BLACK
6
CONTINUOUS
10
8.30386
20
-1.4844
11
8.3005
21
-1.47158
0
LINE
8
BLACK
6
CONTINUOUS
10
8.3005
20
-1.47158
11
8.29863
21
-1.45846
0
LINE
8
BLACK
6
CONTINUOUS
10
8.29863
20
-1.45846
11
8.29829
21
-1.44526
0
LINE
8
BLACK
6
CONTINUOUS
10
8.29829
20
-1.44526
11
8.29829
21
-1.4452
0
LINE
8
BLACK
6
CONTINUOUS
10
8.29829
20
-1.4452
11
8.29946
21
-1.432
0
LINE
8
BLACK
6
CONTINUOUS
10
8.30224
20
-1.47123
11
8.30555
21
-1.48386
0
LINE
8
BLACK
6
CONTINUOUS
10
8.30555
20
-1.48386
11
8.3103
21
-1.49602
0
LINE
8
BLACK
6
CONTINUOUS
10
8.3103
20
-1.49602
11
8.3164
21
-1.50755
0
LINE
8
BLACK
6
CONTINUOUS
10
8.3164
20
-1.50755
11
8.3238
21
-1.51831
0
LINE
8
BLACK
6
CONTINUOUS
10
8.3238
20
-1.51831
11
8.33238
21
-1.52815
0
LINE
8
BLACK
6
CONTINUOUS
10
8.33238
20
-1.52815
11
8.34203
21
-1.53693
0
LINE
8
BLACK
6
CONTINUOUS
10
8.34203
20
-1.53693
11
8.35263
21
-1.54455
0
LINE
8
BLACK
6
CONTINUOUS
10
8.35263
20
-1.54455
11
8.36404
21
-1.5509
0
LINE
8
BLACK
6
CONTINUOUS
10
8.36404
20
-1.5509
11
8.3761
21
-1.55589
0
LINE
8
BLACK
6
CONTINUOUS
10
8.3761
20
-1.55589
11
8.38865
21
-1.55947
0
LINE
8
BLACK
6
CONTINUOUS
10
8.38865
20
-1.55947
11
8.40153
21
-1.56158
0
LINE
8
BLACK
6
CONTINUOUS
10
8.40153
20
-1.56158
11
8.41457
21
-1.56219
0
LINE
8
BLACK
6
CONTINUOUS
10
8.41457
20
-1.56219
11
8.4276
21
-1.56131
0
LINE
8
BLACK
6
CONTINUOUS
10
8.4276
20
-1.56131
11
8.44043
21
-1.55893
0
LINE
8
BLACK
6
CONTINUOUS
10
8.44043
20
-1.55893
11
8.45291
21
-1.55509
0
LINE
8
BLACK
6
CONTINUOUS
10
8.45291
20
-1.55509
11
8.46486
21
-1.54984
0
LINE
8
BLACK
6
CONTINUOUS
10
8.46486
20
-1.54984
11
8.47613
21
-1.54326
0
LINE
8
BLACK
6
CONTINUOUS
10
8.47613
20
-1.54326
11
8.48657
21
-1.53542
0
LINE
8
BLACK
6
CONTINUOUS
10
8.48657
20
-1.53542
11
8.49604
21
-1.52643
0
LINE
8
BLACK
6
CONTINUOUS
10
8.49604
20
-1.52643
11
8.50441
21
-1.51642
0
LINE
8
BLACK
6
CONTINUOUS
10
8.50441
20
-1.51642
11
8.51158
21
-1.50551
0
LINE
8
BLACK
6
CONTINUOUS
10
8.51158
20
-1.50551
11
8.51744
21
-1.49385
0
LINE
8
BLACK
6
CONTINUOUS
10
8.51744
20
-1.49385
11
8.52193
21
-1.48159
0
LINE
8
BLACK
6
CONTINUOUS
10
8.52193
20
-1.48159
11
8.52497
21
-1.4689
0
LINE
8
BLACK
6
CONTINUOUS
10
8.52497
20
-1.4689
11
8.52654
21
-1.45594
0
LINE
8
BLACK
6
CONTINUOUS
10
8.52654
20
-1.45594
11
8.52677
21
-1.44882
0
LINE
8
BLACK
6
CONTINUOUS
10
8.52677
20
-1.44882
11
8.52602
21
-1.43579
0
LINE
8
BLACK
6
CONTINUOUS
10
8.52602
20
-1.43579
11
8.52377
21
-1.42293
0
LINE
8
BLACK
6
CONTINUOUS
10
8.52377
20
-1.42293
11
8.52006
21
-1.41041
0
LINE
8
BLACK
6
CONTINUOUS
10
8.52006
20
-1.41041
11
8.51494
21
-1.39841
0
LINE
8
BLACK
6
CONTINUOUS
10
8.51494
20
-1.39841
11
8.50847
21
-1.38707
0
LINE
8
BLACK
6
CONTINUOUS
10
8.50847
20
-1.38707
11
8.50075
21
-1.37655
0
LINE
8
BLACK
6
CONTINUOUS
10
8.50075
20
-1.37655
11
8.49186
21
-1.36699
0
LINE
8
BLACK
6
CONTINUOUS
10
8.49186
20
-1.36699
11
8.48194
21
-1.35851
0
LINE
8
BLACK
6
CONTINUOUS
10
8.48194
20
-1.35851
11
8.4711
21
-1.35123
0
LINE
8
BLACK
6
CONTINUOUS
10
8.4711
20
-1.35123
11
8.4595
21
-1.34524
0
LINE
8
BLACK
6
CONTINUOUS
10
8.4595
20
-1.34524
11
8.44729
21
-1.34063
0
LINE
8
BLACK
6
CONTINUOUS
10
8.44729
20
-1.34063
11
8.43463
21
-1.33745
0
LINE
8
BLACK
6
CONTINUOUS
10
8.43463
20
-1.33745
11
8.42169
21
-1.33574
0
LINE
8
BLACK
6
CONTINUOUS
10
8.42169
20
-1.33574
11
8.40864
21
-1.33554
0
LINE
8
BLACK
6
CONTINUOUS
10
8.40864
20
-1.33554
11
8.39565
21
-1.33683
0
LINE
8
BLACK
6
CONTINUOUS
10
8.39565
20
-1.33683
11
8.3829
21
-1.33961
0
LINE
8
BLACK
6
CONTINUOUS
10
8.3829
20
-1.33961
11
8.37055
21
-1.34384
0
LINE
8
BLACK
6
CONTINUOUS
10
8.37055
20
-1.34384
11
8.35876
21
-1.34946
0
LINE
8
BLACK
6
CONTINUOUS
10
8.35876
20
-1.34946
11
8.34771
21
-1.3564
0
LINE
8
BLACK
6
CONTINUOUS
10
8.34771
20
-1.3564
11
8.33752
21
-1.36456
0
LINE
8
BLACK
6
CONTINUOUS
10
8.33752
20
-1.36456
11
8.32834
21
-1.37384
0
LINE
8
BLACK
6
CONTINUOUS
10
8.32834
20
-1.37384
11
8.32028
21
-1.38411
0
LINE
8
BLACK
6
CONTINUOUS
10
8.32028
20
-1.38411
11
8.31346
21
-1.39524
0
LINE
8
BLACK
6
CONTINUOUS
10
8.31346
20
-1.39524
11
8.30797
21
-1.40708
0
LINE
8
BLACK
6
CONTINUOUS
10
8.30797
20
-1.40708
11
8.30387
21
-1.41947
0
LINE
8
BLACK
6
CONTINUOUS
10
8.30387
20
-1.41947
11
8.30122
21
-1.43226
0
LINE
8
BLACK
6
CONTINUOUS
10
8.30122
20
-1.43226
11
8.30006
21
-1.44526
0
LINE
8
BLACK
6
CONTINUOUS
10
8.30006
20
-1.44526
11
8.3004
21
-1.45831
0
LINE
8
BLACK
6
CONTINUOUS
10
8.3004
20
-1.45831
11
8.30224
21
-1.47123
0
LINE
8
BLACK
6
CONTINUOUS
10
7.80734
20
-1.432
11
7.81003
21
-1.41901
0
LINE
8
BLACK
6
CONTINUOUS
10
7.81003
20
-1.41901
11
7.81419
21
-1.40643
0
LINE
8
BLACK
6
CONTINUOUS
10
7.81419
20
-1.40643
11
7.81977
21
-1.3944
0
LINE
8
BLACK
6
CONTINUOUS
10
7.81977
20
-1.3944
11
7.8267
21
-1.3831
0
LINE
8
BLACK
6
CONTINUOUS
10
7.8267
20
-1.3831
11
7.83488
21
-1.37266
0
LINE
8
BLACK
6
CONTINUOUS
10
7.83488
20
-1.37266
11
7.8442
21
-1.36324
0
LINE
8
BLACK
6
CONTINUOUS
10
7.8442
20
-1.36324
11
7.85455
21
-1.35495
0
LINE
8
BLACK
6
CONTINUOUS
10
7.85455
20
-1.35495
11
7.86578
21
-1.34791
0
LINE
8
BLACK
6
CONTINUOUS
10
7.86578
20
-1.34791
11
7.87775
21
-1.3422
0
LINE
8
BLACK
6
CONTINUOUS
10
7.87775
20
-1.3422
11
7.89029
21
-1.3379
0
LINE
8
BLACK
6
CONTINUOUS
10
7.89029
20
-1.3379
11
7.90325
21
-1.33508
0
LINE
8
BLACK
6
CONTINUOUS
10
7.90325
20
-1.33508
11
7.91644
21
-1.33376
0
LINE
8
BLACK
6
CONTINUOUS
10
7.91644
20
-1.33376
11
7.92969
21
-1.33397
0
LINE
8
BLACK
6
CONTINUOUS
10
7.92969
20
-1.33397
11
7.94284
21
-1.3357
0
LINE
8
BLACK
6
CONTINUOUS
10
7.94284
20
-1.3357
11
7.9557
21
-1.33893
0
LINE
8
BLACK
6
CONTINUOUS
10
7.9557
20
-1.33893
11
7.9681
21
-1.34362
0
LINE
8
BLACK
6
CONTINUOUS
10
7.9681
20
-1.34362
11
7.97988
21
-1.3497
0
LINE
8
BLACK
6
CONTINUOUS
10
7.97988
20
-1.3497
11
7.99088
21
-1.35709
0
LINE
8
BLACK
6
CONTINUOUS
10
7.99088
20
-1.35709
11
8.00097
21
-1.3657
0
LINE
8
BLACK
6
CONTINUOUS
10
8.00097
20
-1.3657
11
8.00999
21
-1.37541
0
LINE
8
BLACK
6
CONTINUOUS
10
8.00999
20
-1.37541
11
8.01784
21
-1.3861
0
LINE
8
BLACK
6
CONTINUOUS
10
8.01784
20
-1.3861
11
8.02441
21
-1.39762
0
LINE
8
BLACK
6
CONTINUOUS
10
8.02441
20
-1.39762
11
8.02961
21
-1.40981
0
LINE
8
BLACK
6
CONTINUOUS
10
8.02961
20
-1.40981
11
8.03337
21
-1.42252
0
LINE
8
BLACK
6
CONTINUOUS
10
8.03337
20
-1.42252
11
8.03565
21
-1.43558
0
LINE
8
BLACK
6
CONTINUOUS
10
8.03565
20
-1.43558
11
8.03642
21
-1.44882
0
LINE
8
BLACK
6
CONTINUOUS
10
8.03642
20
-1.44882
11
8.03619
21
-1.45605
0
LINE
8
BLACK
6
CONTINUOUS
10
8.03619
20
-1.45605
11
8.0346
21
-1.46921
0
LINE
8
BLACK
6
CONTINUOUS
10
8.0346
20
-1.46921
11
8.0315
21
-1.4821
0
LINE
8
BLACK
6
CONTINUOUS
10
8.0315
20
-1.4821
11
8.02695
21
-1.49455
0
LINE
8
BLACK
6
CONTINUOUS
10
8.02695
20
-1.49455
11
8.02099
21
-1.5064
0
LINE
8
BLACK
6
CONTINUOUS
10
8.02099
20
-1.5064
11
8.01371
21
-1.51748
0
LINE
8
BLACK
6
CONTINUOUS
10
8.01371
20
-1.51748
11
8.00521
21
-1.52765
0
LINE
8
BLACK
6
CONTINUOUS
10
8.00521
20
-1.52765
11
7.99559
21
-1.53678
0
LINE
8
BLACK
6
CONTINUOUS
10
7.99559
20
-1.53678
11
7.98499
21
-1.54474
0
LINE
8
BLACK
6
CONTINUOUS
10
7.98499
20
-1.54474
11
7.97354
21
-1.55142
0
LINE
8
BLACK
6
CONTINUOUS
10
7.97354
20
-1.55142
11
7.9614
21
-1.55675
0
LINE
8
BLACK
6
CONTINUOUS
10
7.9614
20
-1.55675
11
7.94873
21
-1.56065
0
LINE
8
BLACK
6
CONTINUOUS
10
7.94873
20
-1.56065
11
7.93569
21
-1.56307
0
LINE
8
BLACK
6
CONTINUOUS
10
7.93569
20
-1.56307
11
7.92247
21
-1.56397
0
LINE
8
BLACK
6
CONTINUOUS
10
7.92247
20
-1.56397
11
7.90922
21
-1.56335
0
LINE
8
BLACK
6
CONTINUOUS
10
7.90922
20
-1.56335
11
7.89614
21
-1.5612
0
LINE
8
BLACK
6
CONTINUOUS
10
7.89614
20
-1.5612
11
7.88339
21
-1.55757
0
LINE
8
BLACK
6
CONTINUOUS
10
7.88339
20
-1.55757
11
7.87114
21
-1.5525
0
LINE
8
BLACK
6
CONTINUOUS
10
7.87114
20
-1.5525
11
7.85956
21
-1.54605
0
LINE
8
BLACK
6
CONTINUOUS
10
7.85956
20
-1.54605
11
7.84879
21
-1.53831
0
LINE
8
BLACK
6
CONTINUOUS
10
7.84879
20
-1.53831
11
7.83898
21
-1.52939
0
LINE
8
BLACK
6
CONTINUOUS
10
7.83898
20
-1.52939
11
7.83027
21
-1.5194
0
LINE
8
BLACK
6
CONTINUOUS
10
7.83027
20
-1.5194
11
7.82276
21
-1.50847
0
LINE
8
BLACK
6
CONTINUOUS
10
7.82276
20
-1.50847
11
7.81655
21
-1.49676
0
LINE
8
BLACK
6
CONTINUOUS
10
7.81655
20
-1.49676
11
7.81174
21
-1.4844
0
LINE
8
BLACK
6
CONTINUOUS
10
7.81174
20
-1.4844
11
7.80837
21
-1.47158
0
LINE
8
BLACK
6
CONTINUOUS
10
7.80837
20
-1.47158
11
7.80651
21
-1.45846
0
LINE
8
BLACK
6
CONTINUOUS
10
7.80651
20
-1.45846
11
7.80616
21
-1.44526
0
LINE
8
BLACK
6
CONTINUOUS
10
7.80616
20
-1.44526
11
7.80616
21
-1.4452
0
LINE
8
BLACK
6
CONTINUOUS
10
7.80616
20
-1.4452
11
7.80734
21
-1.432
0
LINE
8
BLACK
6
CONTINUOUS
10
7.81012
20
-1.47123
11
7.81343
21
-1.48386
0
LINE
8
BLACK
6
CONTINUOUS
10
7.81343
20
-1.48386
11
7.81817
21
-1.49602
0
LINE
8
BLACK
6
CONTINUOUS
10
7.81817
20
-1.49602
11
7.82428
21
-1.50755
0
LINE
8
BLACK
6
CONTINUOUS
10
7.82428
20
-1.50755
11
7.83167
21
-1.51831
0
LINE
8
BLACK
6
CONTINUOUS
10
7.83167
20
-1.51831
11
7.84025
21
-1.52815
0
LINE
8
BLACK
6
CONTINUOUS
10
7.84025
20
-1.52815
11
7.84991
21
-1.53693
0
LINE
8
BLACK
6
CONTINUOUS
10
7.84991
20
-1.53693
11
7.86051
21
-1.54455
0
LINE
8
BLACK
6
CONTINUOUS
10
7.86051
20
-1.54455
11
7.87191
21
-1.5509
0
LINE
8
BLACK
6
CONTINUOUS
10
7.87191
20
-1.5509
11
7.88397
21
-1.55589
0
LINE
8
BLACK
6
CONTINUOUS
10
7.88397
20
-1.55589
11
7.89653
21
-1.55947
0
LINE
8
BLACK
6
CONTINUOUS
10
7.89653
20
-1.55947
11
7.90941
21
-1.56158
0
LINE
8
BLACK
6
CONTINUOUS
10
7.90941
20
-1.56158
11
7.92245
21
-1.56219
0
LINE
8
BLACK
6
CONTINUOUS
10
7.92245
20
-1.56219
11
7.93547
21
-1.56131
0
LINE
8
BLACK
6
CONTINUOUS
10
7.93547
20
-1.56131
11
7.9483
21
-1.55893
0
LINE
8
BLACK
6
CONTINUOUS
10
7.9483
20
-1.55893
11
7.96078
21
-1.55509
0
LINE
8
BLACK
6
CONTINUOUS
10
7.96078
20
-1.55509
11
7.97273
21
-1.54984
0
LINE
8
BLACK
6
CONTINUOUS
10
7.97273
20
-1.54984
11
7.984
21
-1.54326
0
LINE
8
BLACK
6
CONTINUOUS
10
7.984
20
-1.54326
11
7.99444
21
-1.53542
0
LINE
8
BLACK
6
CONTINUOUS
10
7.99444
20
-1.53542
11
8.00391
21
-1.52643
0
LINE
8
BLACK
6
CONTINUOUS
10
8.00391
20
-1.52643
11
8.01228
21
-1.51642
0
LINE
8
BLACK
6
CONTINUOUS
10
8.01228
20
-1.51642
11
8.01945
21
-1.50551
0
LINE
8
BLACK
6
CONTINUOUS
10
8.01945
20
-1.50551
11
8.02532
21
-1.49385
0
LINE
8
BLACK
6
CONTINUOUS
10
8.02532
20
-1.49385
11
8.0298
21
-1.48159
0
LINE
8
BLACK
6
CONTINUOUS
10
8.0298
20
-1.48159
11
8.03285
21
-1.4689
0
LINE
8
BLACK
6
CONTINUOUS
10
8.03285
20
-1.4689
11
8.03442
21
-1.45594
0
LINE
8
BLACK
6
CONTINUOUS
10
8.03442
20
-1.45594
11
8.03464
21
-1.44882
0
LINE
8
BLACK
6
CONTINUOUS
10
8.03464
20
-1.44882
11
8.03389
21
-1.43579
0
LINE
8
BLACK
6
CONTINUOUS
10
8.03389
20
-1.43579
11
8.03164
21
-1.42293
0
LINE
8
BLACK
6
CONTINUOUS
10
8.03164
20
-1.42293
11
8.02794
21
-1.41041
0
LINE
8
BLACK
6
CONTINUOUS
10
8.02794
20
-1.41041
11
8.02282
21
-1.39841
0
LINE
8
BLACK
6
CONTINUOUS
10
8.02282
20
-1.39841
11
8.01635
21
-1.38707
0
LINE
8
BLACK
6
CONTINUOUS
10
8.01635
20
-1.38707
11
8.00862
21
-1.37655
0
LINE
8
BLACK
6
CONTINUOUS
10
8.00862
20
-1.37655
11
7.99974
21
-1.36699
0
LINE
8
BLACK
6
CONTINUOUS
10
7.99974
20
-1.36699
11
7.98981
21
-1.35851
0
LINE
8
BLACK
6
CONTINUOUS
10
7.98981
20
-1.35851
11
7.97898
21
-1.35123
0
LINE
8
BLACK
6
CONTINUOUS
10
7.97898
20
-1.35123
11
7.96738
21
-1.34524
0
LINE
8
BLACK
6
CONTINUOUS
10
7.96738
20
-1.34524
11
7.95517
21
-1.34063
0
LINE
8
BLACK
6
CONTINUOUS
10
7.95517
20
-1.34063
11
7.94251
21
-1.33745
0
LINE
8
BLACK
6
CONTINUOUS
10
7.94251
20
-1.33745
11
7.92956
21
-1.33574
0
LINE
8
BLACK
6
CONTINUOUS
10
7.92956
20
-1.33574
11
7.91651
21
-1.33554
0
LINE
8
BLACK
6
CONTINUOUS
10
7.91651
20
-1.33554
11
7.90352
21
-1.33683
0
LINE
8
BLACK
6
CONTINUOUS
10
7.90352
20
-1.33683
11
7.89077
21
-1.33961
0
LINE
8
BLACK
6
CONTINUOUS
10
7.89077
20
-1.33961
11
7.87842
21
-1.34384
0
LINE
8
BLACK
6
CONTINUOUS
10
7.87842
20
-1.34384
11
7.86664
21
-1.34946
0
LINE
8
BLACK
6
CONTINUOUS
10
7.86664
20
-1.34946
11
7.85558
21
-1.3564
0
LINE
8
BLACK
6
CONTINUOUS
10
7.85558
20
-1.3564
11
7.84539
21
-1.36456
0
LINE
8
BLACK
6
CONTINUOUS
10
7.84539
20
-1.36456
11
7.83621
21
-1.37384
0
LINE
8
BLACK
6
CONTINUOUS
10
7.83621
20
-1.37384
11
7.82816
21
-1.38411
0
LINE
8
BLACK
6
CONTINUOUS
10
7.82816
20
-1.38411
11
7.82134
21
-1.39524
0
LINE
8
BLACK
6
CONTINUOUS
10
7.82134
20
-1.39524
11
7.81584
21
-1.40708
0
LINE
8
BLACK
6
CONTINUOUS
10
7.81584
20
-1.40708
11
7.81174
21
-1.41947
0
LINE
8
BLACK
6
CONTINUOUS
10
7.81174
20
-1.41947
11
7.8091
21
-1.43226
0
LINE
8
BLACK
6
CONTINUOUS
10
7.8091
20
-1.43226
11
7.80793
21
-1.44526
0
LINE
8
BLACK
6
CONTINUOUS
10
7.80793
20
-1.44526
11
7.80828
21
-1.45831
0
LINE
8
BLACK
6
CONTINUOUS
10
7.80828
20
-1.45831
11
7.81012
21
-1.47123
0
LINE
8
BLACK
6
CONTINUOUS
10
9.30734
20
-1.42806
11
9.31003
21
-1.41508
0
LINE
8
BLACK
6
CONTINUOUS
10
9.31003
20
-1.41508
11
9.31419
21
-1.40249
0
LINE
8
BLACK
6
CONTINUOUS
10
9.31419
20
-1.40249
11
9.31977
21
-1.39046
0
LINE
8
BLACK
6
CONTINUOUS
10
9.31977
20
-1.39046
11
9.3267
21
-1.37916
0
LINE
8
BLACK
6
CONTINUOUS
10
9.3267
20
-1.37916
11
9.33488
21
-1.36873
0
LINE
8
BLACK
6
CONTINUOUS
10
9.33488
20
-1.36873
11
9.3442
21
-1.3593
0
LINE
8
BLACK
6
CONTINUOUS
10
9.3442
20
-1.3593
11
9.35455
21
-1.35101
0
LINE
8
BLACK
6
CONTINUOUS
10
9.35455
20
-1.35101
11
9.36578
21
-1.34397
0
LINE
8
BLACK
6
CONTINUOUS
10
9.36578
20
-1.34397
11
9.37775
21
-1.33826
0
LINE
8
BLACK
6
CONTINUOUS
10
9.37775
20
-1.33826
11
9.39029
21
-1.33397
0
LINE
8
BLACK
6
CONTINUOUS
10
9.39029
20
-1.33397
11
9.40325
21
-1.33114
0
LINE
8
BLACK
6
CONTINUOUS
10
9.40325
20
-1.33114
11
9.41644
21
-1.32983
0
LINE
8
BLACK
6
CONTINUOUS
10
9.41644
20
-1.32983
11
9.42969
21
-1.33003
0
LINE
8
BLACK
6
CONTINUOUS
10
9.42969
20
-1.33003
11
9.44284
21
-1.33176
0
LINE
8
BLACK
6
CONTINUOUS
10
9.44284
20
-1.33176
11
9.4557
21
-1.33499
0
LINE
8
BLACK
6
CONTINUOUS
10
9.4557
20
-1.33499
11
9.4681
21
-1.33968
0
LINE
8
BLACK
6
CONTINUOUS
10
9.4681
20
-1.33968
11
9.47988
21
-1.34576
0
LINE
8
BLACK
6
CONTINUOUS
10
9.47988
20
-1.34576
11
9.49088
21
-1.35316
0
LINE
8
BLACK
6
CONTINUOUS
10
9.49088
20
-1.35316
11
9.50097
21
-1.36177
0
LINE
8
BLACK
6
CONTINUOUS
10
9.50097
20
-1.36177
11
9.50999
21
-1.37148
0
LINE
8
BLACK
6
CONTINUOUS
10
9.50999
20
-1.37148
11
9.51784
21
-1.38216
0
LINE
8
BLACK
6
CONTINUOUS
10
9.51784
20
-1.38216
11
9.52441
21
-1.39368
0
LINE
8
BLACK
6
CONTINUOUS
10
9.52441
20
-1.39368
11
9.52961
21
-1.40587
0
LINE
8
BLACK
6
CONTINUOUS
10
9.52961
20
-1.40587
11
9.53337
21
-1.41859
0
LINE
8
BLACK
6
CONTINUOUS
10
9.53337
20
-1.41859
11
9.53565
21
-1.43165
0
LINE
8
BLACK
6
CONTINUOUS
10
9.53565
20
-1.43165
11
9.53642
21
-1.44488
0
LINE
8
BLACK
6
CONTINUOUS
10
9.53642
20
-1.44488
11
9.53619
21
-1.45211
0
LINE
8
BLACK
6
CONTINUOUS
10
9.53619
20
-1.45211
11
9.5346
21
-1.46527
0
LINE
8
BLACK
6
CONTINUOUS
10
9.5346
20
-1.46527
11
9.5315
21
-1.47817
0
LINE
8
BLACK
6
CONTINUOUS
10
9.5315
20
-1.47817
11
9.52695
21
-1.49062
0
LINE
8
BLACK
6
CONTINUOUS
10
9.52695
20
-1.49062
11
9.52099
21
-1.50246
0
LINE
8
BLACK
6
CONTINUOUS
10
9.52099
20
-1.50246
11
9.51371
21
-1.51354
0
LINE
8
BLACK
6
CONTINUOUS
10
9.51371
20
-1.51354
11
9.50521
21
-1.52371
0
LINE
8
BLACK
6
CONTINUOUS
10
9.50521
20
-1.52371
11
9.49559
21
-1.53284
0
LINE
8
BLACK
6
CONTINUOUS
10
9.49559
20
-1.53284
11
9.48499
21
-1.5408
0
LINE
8
BLACK
6
CONTINUOUS
10
9.48499
20
-1.5408
11
9.47354
21
-1.54749
0
LINE
8
BLACK
6
CONTINUOUS
10
9.47354
20
-1.54749
11
9.4614
21
-1.55282
0
LINE
8
BLACK
6
CONTINUOUS
10
9.4614
20
-1.55282
11
9.44873
21
-1.55672
0
LINE
8
BLACK
6
CONTINUOUS
10
9.44873
20
-1.55672
11
9.43569
21
-1.55913
0
LINE
8
BLACK
6
CONTINUOUS
10
9.43569
20
-1.55913
11
9.42247
21
-1.56003
0
LINE
8
BLACK
6
CONTINUOUS
10
9.42247
20
-1.56003
11
9.40922
21
-1.55941
0
LINE
8
BLACK
6
CONTINUOUS
10
9.40922
20
-1.55941
11
9.39614
21
-1.55727
0
LINE
8
BLACK
6
CONTINUOUS
10
9.39614
20
-1.55727
11
9.38339
21
-1.55363
0
LINE
8
BLACK
6
CONTINUOUS
10
9.38339
20
-1.55363
11
9.37114
21
-1.54856
0
LINE
8
BLACK
6
CONTINUOUS
10
9.37114
20
-1.54856
11
9.35956
21
-1.54211
0
LINE
8
BLACK
6
CONTINUOUS
10
9.35956
20
-1.54211
11
9.34879
21
-1.53438
0
LINE
8
BLACK
6
CONTINUOUS
10
9.34879
20
-1.53438
11
9.33898
21
-1.52545
0
LINE
8
BLACK
6
CONTINUOUS
10
9.33898
20
-1.52545
11
9.33027
21
-1.51546
0
LINE
8
BLACK
6
CONTINUOUS
10
9.33027
20
-1.51546
11
9.32276
21
-1.50454
0
LINE
8
BLACK
6
CONTINUOUS
10
9.32276
20
-1.50454
11
9.31655
21
-1.49282
0
LINE
8
BLACK
6
CONTINUOUS
10
9.31655
20
-1.49282
11
9.31174
21
-1.48047
0
LINE
8
BLACK
6
CONTINUOUS
10
9.31174
20
-1.48047
11
9.30837
21
-1.46764
0
LINE
8
BLACK
6
CONTINUOUS
10
9.30837
20
-1.46764
11
9.30651
21
-1.45452
0
LINE
8
BLACK
6
CONTINUOUS
10
9.30651
20
-1.45452
11
9.30616
21
-1.44132
0
LINE
8
BLACK
6
CONTINUOUS
10
9.30616
20
-1.44132
11
9.30616
21
-1.44126
0
LINE
8
BLACK
6
CONTINUOUS
10
9.30616
20
-1.44126
11
9.30734
21
-1.42806
0
LINE
8
BLACK
6
CONTINUOUS
10
9.31012
20
-1.46729
11
9.31343
21
-1.47992
0
LINE
8
BLACK
6
CONTINUOUS
10
9.31343
20
-1.47992
11
9.31817
21
-1.49208
0
LINE
8
BLACK
6
CONTINUOUS
10
9.31817
20
-1.49208
11
9.32428
21
-1.50362
0
LINE
8
BLACK
6
CONTINUOUS
10
9.32428
20
-1.50362
11
9.33167
21
-1.51437
0
LINE
8
BLACK
6
CONTINUOUS
10
9.33167
20
-1.51437
11
9.34025
21
-1.52421
0
LINE
8
BLACK
6
CONTINUOUS
10
9.34025
20
-1.52421
11
9.34991
21
-1.533
0
LINE
8
BLACK
6
CONTINUOUS
10
9.34991
20
-1.533
11
9.36051
21
-1.54061
0
LINE
8
BLACK
6
CONTINUOUS
10
9.36051
20
-1.54061
11
9.37191
21
-1.54696
0
LINE
8
BLACK
6
CONTINUOUS
10
9.37191
20
-1.54696
11
9.38397
21
-1.55196
0
LINE
8
BLACK
6
CONTINUOUS
10
9.38397
20
-1.55196
11
9.39653
21
-1.55553
0
LINE
8
BLACK
6
CONTINUOUS
10
9.39653
20
-1.55553
11
9.40941
21
-1.55764
0
LINE
8
BLACK
6
CONTINUOUS
10
9.40941
20
-1.55764
11
9.42245
21
-1.55826
0
LINE
8
BLACK
6
CONTINUOUS
10
9.42245
20
-1.55826
11
9.43547
21
-1.55737
0
LINE
8
BLACK
6
CONTINUOUS
10
9.43547
20
-1.55737
11
9.4483
21
-1.55499
0
LINE
8
BLACK
6
CONTINUOUS
10
9.4483
20
-1.55499
11
9.46078
21
-1.55115
0
LINE
8
BLACK
6
CONTINUOUS
10
9.46078
20
-1.55115
11
9.47273
21
-1.5459
0
LINE
8
BLACK
6
CONTINUOUS
10
9.47273
20
-1.5459
11
9.484
21
-1.53932
0
LINE
8
BLACK
6
CONTINUOUS
10
9.484
20
-1.53932
11
9.49444
21
-1.53148
0
LINE
8
BLACK
6
CONTINUOUS
10
9.49444
20
-1.53148
11
9.50391
21
-1.5225
0
LINE
8
BLACK
6
CONTINUOUS
10
9.50391
20
-1.5225
11
9.51228
21
-1.51248
0
LINE
8
BLACK
6
CONTINUOUS
10
9.51228
20
-1.51248
11
9.51945
21
-1.50157
0
LINE
8
BLACK
6
CONTINUOUS
10
9.51945
20
-1.50157
11
9.52532
21
-1.48991
0
LINE
8
BLACK
6
CONTINUOUS
10
9.52532
20
-1.48991
11
9.5298
21
-1.47765
0
LINE
8
BLACK
6
CONTINUOUS
10
9.5298
20
-1.47765
11
9.53285
21
-1.46496
0
LINE
8
BLACK
6
CONTINUOUS
10
9.53285
20
-1.46496
11
9.53442
21
-1.452
0
LINE
8
BLACK
6
CONTINUOUS
10
9.53442
20
-1.452
11
9.53464
21
-1.44488
0
LINE
8
BLACK
6
CONTINUOUS
10
9.53464
20
-1.44488
11
9.53389
21
-1.43185
0
LINE
8
BLACK
6
CONTINUOUS
10
9.53389
20
-1.43185
11
9.53164
21
-1.41899
0
LINE
8
BLACK
6
CONTINUOUS
10
9.53164
20
-1.41899
11
9.52794
21
-1.40648
0
LINE
8
BLACK
6
CONTINUOUS
10
9.52794
20
-1.40648
11
9.52282
21
-1.39447
0
LINE
8
BLACK
6
CONTINUOUS
10
9.52282
20
-1.39447
11
9.51635
21
-1.38313
0
LINE
8
BLACK
6
CONTINUOUS
10
9.51635
20
-1.38313
11
9.50862
21
-1.37261
0
LINE
8
BLACK
6
CONTINUOUS
10
9.50862
20
-1.37261
11
9.49974
21
-1.36305
0
LINE
8
BLACK
6
CONTINUOUS
10
9.49974
20
-1.36305
11
9.48981
21
-1.35457
0
LINE
8
BLACK
6
CONTINUOUS
10
9.48981
20
-1.35457
11
9.47898
21
-1.34729
0
LINE
8
BLACK
6
CONTINUOUS
10
9.47898
20
-1.34729
11
9.46738
21
-1.3413
0
LINE
8
BLACK
6
CONTINUOUS
10
9.46738
20
-1.3413
11
9.45517
21
-1.33669
0
LINE
8
BLACK
6
CONTINUOUS
10
9.45517
20
-1.33669
11
9.44251
21
-1.33351
0
LINE
8
BLACK
6
CONTINUOUS
10
9.44251
20
-1.33351
11
9.42956
21
-1.33181
0
LINE
8
BLACK
6
CONTINUOUS
10
9.42956
20
-1.33181
11
9.41651
21
-1.3316
0
LINE
8
BLACK
6
CONTINUOUS
10
9.41651
20
-1.3316
11
9.40352
21
-1.3329
0
LINE
8
BLACK
6
CONTINUOUS
10
9.40352
20
-1.3329
11
9.39077
21
-1.33568
0
LINE
8
BLACK
6
CONTINUOUS
10
9.39077
20
-1.33568
11
9.37842
21
-1.33991
0
LINE
8
BLACK
6
CONTINUOUS
10
9.37842
20
-1.33991
11
9.36664
21
-1.34553
0
LINE
8
BLACK
6
CONTINUOUS
10
9.36664
20
-1.34553
11
9.35558
21
-1.35246
0
LINE
8
BLACK
6
CONTINUOUS
10
9.35558
20
-1.35246
11
9.34539
21
-1.36062
0
LINE
8
BLACK
6
CONTINUOUS
10
9.34539
20
-1.36062
11
9.33621
21
-1.3699
0
LINE
8
BLACK
6
CONTINUOUS
10
9.33621
20
-1.3699
11
9.32816
21
-1.38017
0
LINE
8
BLACK
6
CONTINUOUS
10
9.32816
20
-1.38017
11
9.32134
21
-1.3913
0
LINE
8
BLACK
6
CONTINUOUS
10
9.32134
20
-1.3913
11
9.31584
21
-1.40314
0
LINE
8
BLACK
6
CONTINUOUS
10
9.31584
20
-1.40314
11
9.31174
21
-1.41554
0
LINE
8
BLACK
6
CONTINUOUS
10
9.31174
20
-1.41554
11
9.3091
21
-1.42832
0
LINE
8
BLACK
6
CONTINUOUS
10
9.3091
20
-1.42832
11
9.30794
21
-1.44132
0
LINE
8
BLACK
6
CONTINUOUS
10
9.30794
20
-1.44132
11
9.30828
21
-1.45437
0
LINE
8
BLACK
6
CONTINUOUS
10
9.30828
20
-1.45437
11
9.31012
21
-1.46729
0
LINE
8
BLACK
6
CONTINUOUS
10
8.8034
20
-1.42806
11
8.80609
21
-1.41508
0
LINE
8
BLACK
6
CONTINUOUS
10
8.80609
20
-1.41508
11
8.81025
21
-1.40249
0
LINE
8
BLACK
6
CONTINUOUS
10
8.81025
20
-1.40249
11
8.81583
21
-1.39046
0
LINE
8
BLACK
6
CONTINUOUS
10
8.81583
20
-1.39046
11
8.82276
21
-1.37916
0
LINE
8
BLACK
6
CONTINUOUS
10
8.82276
20
-1.37916
11
8.83094
21
-1.36873
0
LINE
8
BLACK
6
CONTINUOUS
10
8.83094
20
-1.36873
11
8.84027
21
-1.3593
0
LINE
8
BLACK
6
CONTINUOUS
10
8.84027
20
-1.3593
11
8.85061
21
-1.35101
0
LINE
8
BLACK
6
CONTINUOUS
10
8.85061
20
-1.35101
11
8.86185
21
-1.34397
0
LINE
8
BLACK
6
CONTINUOUS
10
8.86185
20
-1.34397
11
8.87381
21
-1.33826
0
LINE
8
BLACK
6
CONTINUOUS
10
8.87381
20
-1.33826
11
8.88635
21
-1.33397
0
LINE
8
BLACK
6
CONTINUOUS
10
8.88635
20
-1.33397
11
8.89931
21
-1.33114
0
LINE
8
BLACK
6
CONTINUOUS
10
8.89931
20
-1.33114
11
8.9125
21
-1.32983
0
LINE
8
BLACK
6
CONTINUOUS
10
8.9125
20
-1.32983
11
8.92576
21
-1.33003
0
LINE
8
BLACK
6
CONTINUOUS
10
8.92576
20
-1.33003
11
8.9389
21
-1.33176
0
LINE
8
BLACK
6
CONTINUOUS
10
8.9389
20
-1.33176
11
8.95176
21
-1.33499
0
LINE
8
BLACK
6
CONTINUOUS
10
8.95176
20
-1.33499
11
8.96416
21
-1.33968
0
LINE
8
BLACK
6
CONTINUOUS
10
8.96416
20
-1.33968
11
8.97594
21
-1.34576
0
LINE
8
BLACK
6
CONTINUOUS
10
8.97594
20
-1.34576
11
8.98695
21
-1.35316
0
LINE
8
BLACK
6
CONTINUOUS
10
8.98695
20
-1.35316
11
8.99703
21
-1.36177
0
LINE
8
BLACK
6
CONTINUOUS
10
8.99703
20
-1.36177
11
9.00605
21
-1.37148
0
LINE
8
BLACK
6
CONTINUOUS
10
9.00605
20
-1.37148
11
9.0139
21
-1.38216
0
LINE
8
BLACK
6
CONTINUOUS
10
9.0139
20
-1.38216
11
9.02047
21
-1.39368
0
LINE
8
BLACK
6
CONTINUOUS
10
9.02047
20
-1.39368
11
9.02567
21
-1.40587
0
LINE
8
BLACK
6
CONTINUOUS
10
9.02567
20
-1.40587
11
9.02944
21
-1.41859
0
LINE
8
BLACK
6
CONTINUOUS
10
9.02944
20
-1.41859
11
9.03172
21
-1.43165
0
LINE
8
BLACK
6
CONTINUOUS
10
9.03172
20
-1.43165
11
9.03248
21
-1.44488
0
LINE
8
BLACK
6
CONTINUOUS
10
9.03248
20
-1.44488
11
9.03225
21
-1.45211
0
LINE
8
BLACK
6
CONTINUOUS
10
9.03225
20
-1.45211
11
9.03066
21
-1.46527
0
LINE
8
BLACK
6
CONTINUOUS
10
9.03066
20
-1.46527
11
9.02757
21
-1.47817
0
LINE
8
BLACK
6
CONTINUOUS
10
9.02757
20
-1.47817
11
9.02301
21
-1.49062
0
LINE
8
BLACK
6
CONTINUOUS
10
9.02301
20
-1.49062
11
9.01705
21
-1.50246
0
LINE
8
BLACK
6
CONTINUOUS
10
9.01705
20
-1.50246
11
9.00977
21
-1.51354
0
LINE
8
BLACK
6
CONTINUOUS
10
9.00977
20
-1.51354
11
9.00127
21
-1.52371
0
LINE
8
BLACK
6
CONTINUOUS
10
9.00127
20
-1.52371
11
8.99165
21
-1.53284
0
LINE
8
BLACK
6
CONTINUOUS
10
8.99165
20
-1.53284
11
8.98105
21
-1.5408
0
LINE
8
BLACK
6
CONTINUOUS
10
8.98105
20
-1.5408
11
8.9696
21
-1.54749
0
LINE
8
BLACK
6
CONTINUOUS
10
8.9696
20
-1.54749
11
8.95746
21
-1.55282
0
LINE
8
BLACK
6
CONTINUOUS
10
8.95746
20
-1.55282
11
8.94479
21
-1.55672
0
LINE
8
BLACK
6
CONTINUOUS
10
8.94479
20
-1.55672
11
8.93176
21
-1.55913
0
LINE
8
BLACK
6
CONTINUOUS
10
8.93176
20
-1.55913
11
8.91853
21
-1.56003
0
LINE
8
BLACK
6
CONTINUOUS
10
8.91853
20
-1.56003
11
8.90529
21
-1.55941
0
LINE
8
BLACK
6
CONTINUOUS
10
8.90529
20
-1.55941
11
8.8922
21
-1.55727
0
LINE
8
BLACK
6
CONTINUOUS
10
8.8922
20
-1.55727
11
8.87945
21
-1.55363
0
LINE
8
BLACK
6
CONTINUOUS
10
8.87945
20
-1.55363
11
8.8672
21
-1.54856
0
LINE
8
BLACK
6
CONTINUOUS
10
8.8672
20
-1.54856
11
8.85562
21
-1.54211
0
LINE
8
BLACK
6
CONTINUOUS
10
8.85562
20
-1.54211
11
8.84485
21
-1.53438
0
LINE
8
BLACK
6
CONTINUOUS
10
8.84485
20
-1.53438
11
8.83505
21
-1.52545
0
LINE
8
BLACK
6
CONTINUOUS
10
8.83505
20
-1.52545
11
8.82633
21
-1.51546
0
LINE
8
BLACK
6
CONTINUOUS
10
8.82633
20
-1.51546
11
8.81882
21
-1.50454
0
LINE
8
BLACK
6
CONTINUOUS
10
8.81882
20
-1.50454
11
8.81262
21
-1.49282
0
LINE
8
BLACK
6
CONTINUOUS
10
8.81262
20
-1.49282
11
8.8078
21
-1.48047
0
LINE
8
BLACK
6
CONTINUOUS
10
8.8078
20
-1.48047
11
8.80444
21
-1.46764
0
LINE
8
BLACK
6
CONTINUOUS
10
8.80444
20
-1.46764
11
8.80257
21
-1.45452
0
LINE
8
BLACK
6
CONTINUOUS
10
8.80257
20
-1.45452
11
8.80222
21
-1.44132
0
LINE
8
BLACK
6
CONTINUOUS
10
8.80222
20
-1.44132
11
8.80222
21
-1.44126
0
LINE
8
BLACK
6
CONTINUOUS
10
8.80222
20
-1.44126
11
8.8034
21
-1.42806
0
LINE
8
BLACK
6
CONTINUOUS
10
8.80618
20
-1.46729
11
8.80949
21
-1.47992
0
LINE
8
BLACK
6
CONTINUOUS
10
8.80949
20
-1.47992
11
8.81423
21
-1.49208
0
LINE
8
BLACK
6
CONTINUOUS
10
8.81423
20
-1.49208
11
8.82034
21
-1.50362
0
LINE
8
BLACK
6
CONTINUOUS
10
8.82034
20
-1.50362
11
8.82773
21
-1.51437
0
LINE
8
BLACK
6
CONTINUOUS
10
8.82773
20
-1.51437
11
8.83632
21
-1.52421
0
LINE
8
BLACK
6
CONTINUOUS
10
8.83632
20
-1.52421
11
8.84597
21
-1.533
0
LINE
8
BLACK
6
CONTINUOUS
10
8.84597
20
-1.533
11
8.85657
21
-1.54061
0
LINE
8
BLACK
6
CONTINUOUS
10
8.85657
20
-1.54061
11
8.86798
21
-1.54696
0
LINE
8
BLACK
6
CONTINUOUS
10
8.86798
20
-1.54696
11
8.88004
21
-1.55196
0
LINE
8
BLACK
6
CONTINUOUS
10
8.88004
20
-1.55196
11
8.89259
21
-1.55553
0
LINE
8
BLACK
6
CONTINUOUS
10
8.89259
20
-1.55553
11
8.90547
21
-1.55764
0
LINE
8
BLACK
6
CONTINUOUS
10
8.90547
20
-1.55764
11
8.91851
21
-1.55826
0
LINE
8
BLACK
6
CONTINUOUS
10
8.91851
20
-1.55826
11
8.93153
21
-1.55737
0
LINE
8
BLACK
6
CONTINUOUS
10
8.93153
20
-1.55737
11
8.94437
21
-1.55499
0
LINE
8
BLACK
6
CONTINUOUS
10
8.94437
20
-1.55499
11
8.95684
21
-1.55115
0
LINE
8
BLACK
6
CONTINUOUS
10
8.95684
20
-1.55115
11
8.9688
21
-1.5459
0
LINE
8
BLACK
6
CONTINUOUS
10
8.9688
20
-1.5459
11
8.98007
21
-1.53932
0
LINE
8
BLACK
6
CONTINUOUS
10
8.98007
20
-1.53932
11
8.99051
21
-1.53148
0
LINE
8
BLACK
6
CONTINUOUS
10
8.99051
20
-1.53148
11
8.99997
21
-1.5225
0
LINE
8
BLACK
6
CONTINUOUS
10
8.99997
20
-1.5225
11
9.00835
21
-1.51248
0
LINE
8
BLACK
6
CONTINUOUS
10
9.00835
20
-1.51248
11
9.01551
21
-1.50157
0
LINE
8
BLACK
6
CONTINUOUS
10
9.01551
20
-1.50157
11
9.02138
21
-1.48991
0
LINE
8
BLACK
6
CONTINUOUS
10
9.02138
20
-1.48991
11
9.02586
21
-1.47765
0
LINE
8
BLACK
6
CONTINUOUS
10
9.02586
20
-1.47765
11
9.02891
21
-1.46496
0
LINE
8
BLACK
6
CONTINUOUS
10
9.02891
20
-1.46496
11
9.03048
21
-1.452
0
LINE
8
BLACK
6
CONTINUOUS
10
9.03048
20
-1.452
11
9.0307
21
-1.44488
0
LINE
8
BLACK
6
CONTINUOUS
10
9.0307
20
-1.44488
11
9.02995
21
-1.43185
0
LINE
8
BLACK
6
CONTINUOUS
10
9.02995
20
-1.43185
11
9.02771
21
-1.41899
0
LINE
8
BLACK
6
CONTINUOUS
10
9.02771
20
-1.41899
11
9.024
21
-1.40648
0
LINE
8
BLACK
6
CONTINUOUS
10
9.024
20
-1.40648
11
9.01888
21
-1.39447
0
LINE
8
BLACK
6
CONTINUOUS
10
9.01888
20
-1.39447
11
9.01241
21
-1.38313
0
LINE
8
BLACK
6
CONTINUOUS
10
9.01241
20
-1.38313
11
9.00468
21
-1.37261
0
LINE
8
BLACK
6
CONTINUOUS
10
9.00468
20
-1.37261
11
8.9958
21
-1.36305
0
LINE
8
BLACK
6
CONTINUOUS
10
8.9958
20
-1.36305
11
8.98587
21
-1.35457
0
LINE
8
BLACK
6
CONTINUOUS
10
8.98587
20
-1.35457
11
8.97504
21
-1.34729
0
LINE
8
BLACK
6
CONTINUOUS
10
8.97504
20
-1.34729
11
8.96344
21
-1.3413
0
LINE
8
BLACK
6
CONTINUOUS
10
8.96344
20
-1.3413
11
8.95123
21
-1.33669
0
LINE
8
BLACK
6
CONTINUOUS
10
8.95123
20
-1.33669
11
8.93857
21
-1.33351
0
LINE
8
BLACK
6
CONTINUOUS
10
8.93857
20
-1.33351
11
8.92563
21
-1.33181
0
LINE
8
BLACK
6
CONTINUOUS
10
8.92563
20
-1.33181
11
8.91257
21
-1.3316
0
LINE
8
BLACK
6
CONTINUOUS
10
8.91257
20
-1.3316
11
8.89959
21
-1.3329
0
LINE
8
BLACK
6
CONTINUOUS
10
8.89959
20
-1.3329
11
8.88683
21
-1.33568
0
LINE
8
BLACK
6
CONTINUOUS
10
8.88683
20
-1.33568
11
8.87448
21
-1.33991
0
LINE
8
BLACK
6
CONTINUOUS
10
8.87448
20
-1.33991
11
8.8627
21
-1.34553
0
LINE
8
BLACK
6
CONTINUOUS
10
8.8627
20
-1.34553
11
8.85164
21
-1.35246
0
LINE
8
BLACK
6
CONTINUOUS
10
8.85164
20
-1.35246
11
8.84146
21
-1.36062
0
LINE
8
BLACK
6
CONTINUOUS
10
8.84146
20
-1.36062
11
8.83227
21
-1.3699
0
LINE
8
BLACK
6
CONTINUOUS
10
8.83227
20
-1.3699
11
8.82422
21
-1.38017
0
LINE
8
BLACK
6
CONTINUOUS
10
8.82422
20
-1.38017
11
8.8174
21
-1.3913
0
LINE
8
BLACK
6
CONTINUOUS
10
8.8174
20
-1.3913
11
8.8119
21
-1.40314
0
LINE
8
BLACK
6
CONTINUOUS
10
8.8119
20
-1.40314
11
8.80781
21
-1.41554
0
LINE
8
BLACK
6
CONTINUOUS
10
8.80781
20
-1.41554
11
8.80516
21
-1.42832
0
LINE
8
BLACK
6
CONTINUOUS
10
8.80516
20
-1.42832
11
8.804
21
-1.44132
0
LINE
8
BLACK
6
CONTINUOUS
10
8.804
20
-1.44132
11
8.80434
21
-1.45437
0
LINE
8
BLACK
6
CONTINUOUS
10
8.80434
20
-1.45437
11
8.80618
21
-1.46729
0
LINE
8
BLACK
6
CONTINUOUS
10
9.30923
20
-0.70464
11
9.31308
21
-0.695365
0
LINE
8
BLACK
6
CONTINUOUS
10
9.31308
20
-0.695365
11
9.31832
21
-0.686805
0
LINE
8
BLACK
6
CONTINUOUS
10
9.31832
20
-0.686805
11
9.32484
21
-0.679171
0
LINE
8
BLACK
6
CONTINUOUS
10
9.32484
20
-0.679171
11
9.33247
21
-0.672651
0
LINE
8
BLACK
6
CONTINUOUS
10
9.33247
20
-0.672651
11
9.34103
21
-0.667406
0
LINE
8
BLACK
6
CONTINUOUS
10
9.34103
20
-0.667406
11
9.35031
21
-0.663564
0
LINE
8
BLACK
6
CONTINUOUS
10
9.35031
20
-0.663564
11
9.36007
21
-0.661221
0
LINE
8
BLACK
6
CONTINUOUS
10
9.36007
20
-0.661221
11
9.37008
21
-0.660433
0
LINE
8
BLACK
6
CONTINUOUS
10
9.37008
20
-0.660433
11
9.38009
21
-0.661221
0
LINE
8
BLACK
6
CONTINUOUS
10
9.38009
20
-0.661221
11
9.38985
21
-0.663564
0
LINE
8
BLACK
6
CONTINUOUS
10
9.38985
20
-0.663564
11
9.39912
21
-0.667406
0
LINE
8
BLACK
6
CONTINUOUS
10
9.39912
20
-0.667406
11
9.40768
21
-0.672651
0
LINE
8
BLACK
6
CONTINUOUS
10
9.40768
20
-0.672651
11
9.41532
21
-0.679171
0
LINE
8
BLACK
6
CONTINUOUS
10
9.41532
20
-0.679171
11
9.42184
21
-0.686805
0
LINE
8
BLACK
6
CONTINUOUS
10
9.42184
20
-0.686805
11
9.42708
21
-0.695365
0
LINE
8
BLACK
6
CONTINUOUS
10
9.42708
20
-0.695365
11
9.43092
21
-0.70464
0
LINE
8
BLACK
6
CONTINUOUS
10
9.43092
20
-0.70464
11
9.43327
21
-0.714401
0
LINE
8
BLACK
6
CONTINUOUS
10
9.43327
20
-0.714401
11
9.43406
21
-0.724409
0
LINE
8
BLACK
6
CONTINUOUS
10
9.43406
20
-0.724409
11
9.43327
21
-0.734418
0
LINE
8
BLACK
6
CONTINUOUS
10
9.43327
20
-0.734418
11
9.43092
21
-0.744179
0
LINE
8
BLACK
6
CONTINUOUS
10
9.43092
20
-0.744179
11
9.42708
21
-0.753454
0
LINE
8
BLACK
6
CONTINUOUS
10
9.42708
20
-0.753454
11
9.42184
21
-0.762014
0
LINE
8
BLACK
6
CONTINUOUS
10
9.42184
20
-0.762014
11
9.41532
21
-0.769648
0
LINE
8
BLACK
6
CONTINUOUS
10
9.41532
20
-0.769648
11
9.40768
21
-0.776167
0
LINE
8
BLACK
6
CONTINUOUS
10
9.40768
20
-0.776167
11
9.39912
21
-0.781413
0
LINE
8
BLACK
6
CONTINUOUS
10
9.39912
20
-0.781413
11
9.38985
21
-0.785255
0
LINE
8
BLACK
6
CONTINUOUS
10
9.38985
20
-0.785255
11
9.38009
21
-0.787598
0
LINE
8
BLACK
6
CONTINUOUS
10
9.38009
20
-0.787598
11
9.37008
21
-0.788386
0
LINE
8
BLACK
6
CONTINUOUS
10
9.37008
20
-0.788386
11
9.36007
21
-0.787598
0
LINE
8
BLACK
6
CONTINUOUS
10
9.36007
20
-0.787598
11
9.35031
21
-0.785255
0
LINE
8
BLACK
6
CONTINUOUS
10
9.35031
20
-0.785255
11
9.34103
21
-0.781413
0
LINE
8
BLACK
6
CONTINUOUS
10
9.34103
20
-0.781413
11
9.33247
21
-0.776167
0
LINE
8
BLACK
6
CONTINUOUS
10
9.33247
20
-0.776167
11
9.32484
21
-0.769648
0
LINE
8
BLACK
6
CONTINUOUS
10
9.32484
20
-0.769648
11
9.31832
21
-0.762014
0
LINE
8
BLACK
6
CONTINUOUS
10
9.31832
20
-0.762014
11
9.31308
21
-0.753454
0
LINE
8
BLACK
6
CONTINUOUS
10
9.31308
20
-0.753454
11
9.30923
21
-0.744179
0
LINE
8
BLACK
6
CONTINUOUS
10
9.30923
20
-0.744179
11
9.30689
21
-0.734418
0
LINE
8
BLACK
6
CONTINUOUS
10
9.30689
20
-0.734418
11
9.3061
21
-0.724409
0
LINE
8
BLACK
6
CONTINUOUS
10
9.3061
20
-0.724409
11
9.30689
21
-0.714401
0
LINE
8
BLACK
6
CONTINUOUS
10
9.30689
20
-0.714401
11
9.30923
21
-0.70464
0
LINE
8
BLACK
6
CONTINUOUS
10
9.31092
20
-0.74363
11
9.31466
21
-0.752647
0
LINE
8
BLACK
6
CONTINUOUS
10
9.31466
20
-0.752647
11
9.31976
21
-0.760969
0
LINE
8
BLACK
6
CONTINUOUS
10
9.31976
20
-0.760969
11
9.3261
21
-0.768391
0
LINE
8
BLACK
6
CONTINUOUS
10
9.3261
20
-0.768391
11
9.33352
21
-0.77473
0
LINE
8
BLACK
6
CONTINUOUS
10
9.33352
20
-0.77473
11
9.34184
21
-0.77983
0
LINE
8
BLACK
6
CONTINUOUS
10
9.34184
20
-0.77983
11
9.35086
21
-0.783565
0
LINE
8
BLACK
6
CONTINUOUS
10
9.35086
20
-0.783565
11
9.36035
21
-0.785843
0
LINE
8
BLACK
6
CONTINUOUS
10
9.36035
20
-0.785843
11
9.37008
21
-0.786609
0
LINE
8
BLACK
6
CONTINUOUS
10
9.37008
20
-0.786609
11
9.37981
21
-0.785843
0
LINE
8
BLACK
6
CONTINUOUS
10
9.37981
20
-0.785843
11
9.3893
21
-0.783565
0
LINE
8
BLACK
6
CONTINUOUS
10
9.3893
20
-0.783565
11
9.39832
21
-0.77983
0
LINE
8
BLACK
6
CONTINUOUS
10
9.39832
20
-0.77983
11
9.40664
21
-0.77473
0
LINE
8
BLACK
6
CONTINUOUS
10
9.40664
20
-0.77473
11
9.41406
21
-0.768391
0
LINE
8
BLACK
6
CONTINUOUS
10
9.41406
20
-0.768391
11
9.4204
21
-0.760969
0
LINE
8
BLACK
6
CONTINUOUS
10
9.4204
20
-0.760969
11
9.4255
21
-0.752647
0
LINE
8
BLACK
6
CONTINUOUS
10
9.4255
20
-0.752647
11
9.42923
21
-0.74363
0
LINE
8
BLACK
6
CONTINUOUS
10
9.42923
20
-0.74363
11
9.43151
21
-0.73414
0
LINE
8
BLACK
6
CONTINUOUS
10
9.43151
20
-0.73414
11
9.43228
21
-0.724409
0
LINE
8
BLACK
6
CONTINUOUS
10
9.43228
20
-0.724409
11
9.43151
21
-0.714679
0
LINE
8
BLACK
6
CONTINUOUS
10
9.43151
20
-0.714679
11
9.42923
21
-0.705189
0
LINE
8
BLACK
6
CONTINUOUS
10
9.42923
20
-0.705189
11
9.4255
21
-0.696171
0
LINE
8
BLACK
6
CONTINUOUS
10
9.4255
20
-0.696171
11
9.4204
21
-0.687849
0
LINE
8
BLACK
6
CONTINUOUS
10
9.4204
20
-0.687849
11
9.41406
21
-0.680428
0
LINE
8
BLACK
6
CONTINUOUS
10
9.41406
20
-0.680428
11
9.40664
21
-0.674089
0
LINE
8
BLACK
6
CONTINUOUS
10
9.40664
20
-0.674089
11
9.39832
21
-0.668989
0
LINE
8
BLACK
6
CONTINUOUS
10
9.39832
20
-0.668989
11
9.3893
21
-0.665254
0
LINE
8
BLACK
6
CONTINUOUS
10
9.3893
20
-0.665254
11
9.37981
21
-0.662976
0
LINE
8
BLACK
6
CONTINUOUS
10
9.37981
20
-0.662976
11
9.37008
21
-0.66221
0
LINE
8
BLACK
6
CONTINUOUS
10
9.37008
20
-0.66221
11
9.36035
21
-0.662976
0
LINE
8
BLACK
6
CONTINUOUS
10
9.36035
20
-0.662976
11
9.35086
21
-0.665254
0
LINE
8
BLACK
6
CONTINUOUS
10
9.35086
20
-0.665254
11
9.34184
21
-0.668989
0
LINE
8
BLACK
6
CONTINUOUS
10
9.34184
20
-0.668989
11
9.33352
21
-0.674089
0
LINE
8
BLACK
6
CONTINUOUS
10
9.33352
20
-0.674089
11
9.3261
21
-0.680428
0
LINE
8
BLACK
6
CONTINUOUS
10
9.3261
20
-0.680428
11
9.31976
21
-0.687849
0
LINE
8
BLACK
6
CONTINUOUS
10
9.31976
20
-0.687849
11
9.31466
21
-0.696171
0
LINE
8
BLACK
6
CONTINUOUS
10
9.31466
20
-0.696171
11
9.31092
21
-0.705189
0
LINE
8
BLACK
6
CONTINUOUS
10
9.31092
20
-0.705189
11
9.30864
21
-0.714679
0
LINE
8
BLACK
6
CONTINUOUS
10
9.30864
20
-0.714679
11
9.30788
21
-0.724409
0
LINE
8
BLACK
6
CONTINUOUS
10
9.30788
20
-0.724409
11
9.30864
21
-0.73414
0
LINE
8
BLACK
6
CONTINUOUS
10
9.30864
20
-0.73414
11
9.31092
21
-0.74363
0
LINE
8
BLACK
6
CONTINUOUS
10
7.9049
20
-0.704246
11
7.90874
21
-0.694971
0
LINE
8
BLACK
6
CONTINUOUS
10
7.90874
20
-0.694971
11
7.91399
21
-0.686411
0
LINE
8
BLACK
6
CONTINUOUS
10
7.91399
20
-0.686411
11
7.92051
21
-0.678778
0
LINE
8
BLACK
6
CONTINUOUS
10
7.92051
20
-0.678778
11
7.92814
21
-0.672258
0
LINE
8
BLACK
6
CONTINUOUS
10
7.92814
20
-0.672258
11
7.9367
21
-0.667012
0
LINE
8
BLACK
6
CONTINUOUS
10
7.9367
20
-0.667012
11
7.94598
21
-0.663171
0
LINE
8
BLACK
6
CONTINUOUS
10
7.94598
20
-0.663171
11
7.95574
21
-0.660827
0
LINE
8
BLACK
6
CONTINUOUS
10
7.95574
20
-0.660827
11
7.96575
21
-0.660039
0
LINE
8
BLACK
6
CONTINUOUS
10
7.96575
20
-0.660039
11
7.97576
21
-0.660827
0
LINE
8
BLACK
6
CONTINUOUS
10
7.97576
20
-0.660827
11
7.98552
21
-0.663171
0
LINE
8
BLACK
6
CONTINUOUS
10
7.98552
20
-0.663171
11
7.99479
21
-0.667012
0
LINE
8
BLACK
6
CONTINUOUS
10
7.99479
20
-0.667012
11
8.00335
21
-0.672258
0
LINE
8
BLACK
6
CONTINUOUS
10
8.00335
20
-0.672258
11
8.01099
21
-0.678778
0
LINE
8
BLACK
6
CONTINUOUS
10
8.01099
20
-0.678778
11
8.01751
21
-0.686411
0
LINE
8
BLACK
6
CONTINUOUS
10
8.01751
20
-0.686411
11
8.02275
21
-0.694971
0
LINE
8
BLACK
6
CONTINUOUS
10
8.02275
20
-0.694971
11
8.02659
21
-0.704246
0
LINE
8
BLACK
6
CONTINUOUS
10
8.02659
20
-0.704246
11
8.02894
21
-0.714008
0
LINE
8
BLACK
6
CONTINUOUS
10
8.02894
20
-0.714008
11
8.02972
21
-0.724016
0
LINE
8
BLACK
6
CONTINUOUS
10
8.02972
20
-0.724016
11
8.02894
21
-0.734024
0
LINE
8
BLACK
6
CONTINUOUS
10
8.02894
20
-0.734024
11
8.02659
21
-0.743786
0
LINE
8
BLACK
6
CONTINUOUS
10
8.02659
20
-0.743786
11
8.02275
21
-0.75306
0
LINE
8
BLACK
6
CONTINUOUS
10
8.02275
20
-0.75306
11
8.01751
21
-0.76162
0
LINE
8
BLACK
6
CONTINUOUS
10
8.01751
20
-0.76162
11
8.01099
21
-0.769254
0
LINE
8
BLACK
6
CONTINUOUS
10
8.01099
20
-0.769254
11
8.00335
21
-0.775774
0
LINE
8
BLACK
6
CONTINUOUS
10
8.00335
20
-0.775774
11
7.99479
21
-0.781019
0
LINE
8
BLACK
6
CONTINUOUS
10
7.99479
20
-0.781019
11
7.98552
21
-0.784861
0
LINE
8
BLACK
6
CONTINUOUS
10
7.98552
20
-0.784861
11
7.97576
21
-0.787204
0
LINE
8
BLACK
6
CONTINUOUS
10
7.97576
20
-0.787204
11
7.96575
21
-0.787992
0
LINE
8
BLACK
6
CONTINUOUS
10
7.96575
20
-0.787992
11
7.95574
21
-0.787204
0
LINE
8
BLACK
6
CONTINUOUS
10
7.95574
20
-0.787204
11
7.94598
21
-0.784861
0
LINE
8
BLACK
6
CONTINUOUS
10
7.94598
20
-0.784861
11
7.9367
21
-0.781019
0
LINE
8
BLACK
6
CONTINUOUS
10
7.9367
20
-0.781019
11
7.92814
21
-0.775774
0
LINE
8
BLACK
6
CONTINUOUS
10
7.92814
20
-0.775774
11
7.92051
21
-0.769254
0
LINE
8
BLACK
6
CONTINUOUS
10
7.92051
20
-0.769254
11
7.91399
21
-0.76162
0
LINE
8
BLACK
6
CONTINUOUS
10
7.91399
20
-0.76162
11
7.90874
21
-0.75306
0
LINE
8
BLACK
6
CONTINUOUS
10
7.90874
20
-0.75306
11
7.9049
21
-0.743786
0
LINE
8
BLACK
6
CONTINUOUS
10
7.9049
20
-0.743786
11
7.90256
21
-0.734024
0
LINE
8
BLACK
6
CONTINUOUS
10
7.90256
20
-0.734024
11
7.90177
21
-0.724016
0
LINE
8
BLACK
6
CONTINUOUS
10
7.90177
20
-0.724016
11
7.90256
21
-0.714008
0
LINE
8
BLACK
6
CONTINUOUS
10
7.90256
20
-0.714008
11
7.9049
21
-0.704246
0
LINE
8
BLACK
6
CONTINUOUS
10
7.90659
20
-0.743236
11
7.91033
21
-0.752254
0
LINE
8
BLACK
6
CONTINUOUS
10
7.91033
20
-0.752254
11
7.91543
21
-0.760576
0
LINE
8
BLACK
6
CONTINUOUS
10
7.91543
20
-0.760576
11
7.92177
21
-0.767998
0
LINE
8
BLACK
6
CONTINUOUS
10
7.92177
20
-0.767998
11
7.92919
21
-0.774336
0
LINE
8
BLACK
6
CONTINUOUS
10
7.92919
20
-0.774336
11
7.93751
21
-0.779436
0
LINE
8
BLACK
6
CONTINUOUS
10
7.93751
20
-0.779436
11
7.94653
21
-0.783171
0
LINE
8
BLACK
6
CONTINUOUS
10
7.94653
20
-0.783171
11
7.95602
21
-0.78545
0
LINE
8
BLACK
6
CONTINUOUS
10
7.95602
20
-0.78545
11
7.96575
21
-0.786215
0
LINE
8
BLACK
6
CONTINUOUS
10
7.96575
20
-0.786215
11
7.97548
21
-0.78545
0
LINE
8
BLACK
6
CONTINUOUS
10
7.97548
20
-0.78545
11
7.98497
21
-0.783171
0
LINE
8
BLACK
6
CONTINUOUS
10
7.98497
20
-0.783171
11
7.99399
21
-0.779436
0
LINE
8
BLACK
6
CONTINUOUS
10
7.99399
20
-0.779436
11
8.00231
21
-0.774336
0
LINE
8
BLACK
6
CONTINUOUS
10
8.00231
20
-0.774336
11
8.00973
21
-0.767998
0
LINE
8
BLACK
6
CONTINUOUS
10
8.00973
20
-0.767998
11
8.01607
21
-0.760576
0
LINE
8
BLACK
6
CONTINUOUS
10
8.01607
20
-0.760576
11
8.02117
21
-0.752254
0
LINE
8
BLACK
6
CONTINUOUS
10
8.02117
20
-0.752254
11
8.0249
21
-0.743236
0
LINE
8
BLACK
6
CONTINUOUS
10
8.0249
20
-0.743236
11
8.02718
21
-0.733746
0
LINE
8
BLACK
6
CONTINUOUS
10
8.02718
20
-0.733746
11
8.02795
21
-0.724016
0
LINE
8
BLACK
6
CONTINUOUS
10
8.02795
20
-0.724016
11
8.02718
21
-0.714286
0
LINE
8
BLACK
6
CONTINUOUS
10
8.02718
20
-0.714286
11
8.0249
21
-0.704795
0
LINE
8
BLACK
6
CONTINUOUS
10
8.0249
20
-0.704795
11
8.02117
21
-0.695778
0
LINE
8
BLACK
6
CONTINUOUS
10
8.02117
20
-0.695778
11
8.01607
21
-0.687456
0
LINE
8
BLACK
6
CONTINUOUS
10
8.01607
20
-0.687456
11
8.00973
21
-0.680034
0
LINE
8
BLACK
6
CONTINUOUS
10
8.00973
20
-0.680034
11
8.00231
21
-0.673695
0
LINE
8
BLACK
6
CONTINUOUS
10
8.00231
20
-0.673695
11
7.99399
21
-0.668596
0
LINE
8
BLACK
6
CONTINUOUS
10
7.99399
20
-0.668596
11
7.98497
21
-0.66486
0
LINE
8
BLACK
6
CONTINUOUS
10
7.98497
20
-0.66486
11
7.97548
21
-0.662582
0
LINE
8
BLACK
6
CONTINUOUS
10
7.97548
20
-0.662582
11
7.96575
21
-0.661816
0
LINE
8
BLACK
6
CONTINUOUS
10
7.96575
20
-0.661816
11
7.95602
21
-0.662582
0
LINE
8
BLACK
6
CONTINUOUS
10
7.95602
20
-0.662582
11
7.94653
21
-0.66486
0
LINE
8
BLACK
6
CONTINUOUS
10
7.94653
20
-0.66486
11
7.93751
21
-0.668596
0
LINE
8
BLACK
6
CONTINUOUS
10
7.93751
20
-0.668596
11
7.92919
21
-0.673695
0
LINE
8
BLACK
6
CONTINUOUS
10
7.92919
20
-0.673695
11
7.92177
21
-0.680034
0
LINE
8
BLACK
6
CONTINUOUS
10
7.92177
20
-0.680034
11
7.91543
21
-0.687456
0
LINE
8
BLACK
6
CONTINUOUS
10
7.91543
20
-0.687456
11
7.91033
21
-0.695778
0
LINE
8
BLACK
6
CONTINUOUS
10
7.91033
20
-0.695778
11
7.90659
21
-0.704795
0
LINE
8
BLACK
6
CONTINUOUS
10
7.90659
20
-0.704795
11
7.90431
21
-0.714286
0
LINE
8
BLACK
6
CONTINUOUS
10
7.90431
20
-0.714286
11
7.90355
21
-0.724016
0
LINE
8
BLACK
6
CONTINUOUS
10
7.90355
20
-0.724016
11
7.90431
21
-0.733746
0
LINE
8
BLACK
6
CONTINUOUS
10
7.90431
20
-0.733746
11
7.90659
21
-0.743236
  0
ENDSEC
  0
EOF
