%TF.GenerationSoftware,KiCad,Pcbnew,5.1.12-1.fc35*%
%TF.CreationDate,2022-03-09T20:46:55-05:00*%
%TF.ProjectId,kassuVCA,6b617373-7556-4434-912e-6b696361645f,rev?*%
%TF.SameCoordinates,Original*%
%TF.FileFunction,Copper,L2,Bot*%
%TF.FilePolarity,Positive*%
%FSLAX46Y46*%
G04 Gerber Fmt 4.6, Leading zero omitted, Abs format (unit mm)*
G04 Created by KiCad (PCBNEW 5.1.12-1.fc35) date 2022-03-09 20:46:55*
%MOMM*%
%LPD*%
G01*
G04 APERTURE LIST*
%TA.AperFunction,WasherPad*%
%ADD10C,4.000000*%
%TD*%
%TA.AperFunction,ComponentPad*%
%ADD11C,1.800000*%
%TD*%
%TA.AperFunction,ComponentPad*%
%ADD12O,2.400000X1.600000*%
%TD*%
%TA.AperFunction,ComponentPad*%
%ADD13R,2.400000X1.600000*%
%TD*%
%TA.AperFunction,ComponentPad*%
%ADD14R,1.500000X1.500000*%
%TD*%
%TA.AperFunction,ComponentPad*%
%ADD15C,1.500000*%
%TD*%
%TA.AperFunction,ComponentPad*%
%ADD16O,1.600000X1.600000*%
%TD*%
%TA.AperFunction,ComponentPad*%
%ADD17C,1.600000*%
%TD*%
%TA.AperFunction,ComponentPad*%
%ADD18C,2.130000*%
%TD*%
%TA.AperFunction,ComponentPad*%
%ADD19R,1.930000X1.830000*%
%TD*%
%TA.AperFunction,ComponentPad*%
%ADD20O,1.700000X1.700000*%
%TD*%
%TA.AperFunction,ComponentPad*%
%ADD21R,1.700000X1.700000*%
%TD*%
%TA.AperFunction,ViaPad*%
%ADD22C,0.800000*%
%TD*%
%TA.AperFunction,Conductor*%
%ADD23C,0.250000*%
%TD*%
%TA.AperFunction,Conductor*%
%ADD24C,0.400000*%
%TD*%
%TA.AperFunction,NonConductor*%
%ADD25C,0.254000*%
%TD*%
%TA.AperFunction,NonConductor*%
%ADD26C,0.100000*%
%TD*%
G04 APERTURE END LIST*
D10*
%TO.P,Trim1,*%
%TO.N,*%
X137900000Y-125750000D03*
X129100000Y-125750000D03*
D11*
%TO.P,Trim1,1*%
%TO.N,+12V*%
X136000000Y-132750000D03*
%TO.P,Trim1,2*%
%TO.N,Net-(R4-Pad2)*%
X133500000Y-132750000D03*
%TO.P,Trim1,3*%
%TO.N,-12V*%
X131000000Y-132750000D03*
%TD*%
D12*
%TO.P,U1,8*%
%TO.N,+12V*%
X131120000Y-87000000D03*
%TO.P,U1,4*%
%TO.N,-12V*%
X123500000Y-94620000D03*
%TO.P,U1,7*%
%TO.N,Net-(U1-Pad5)*%
X131120000Y-89540000D03*
%TO.P,U1,3*%
%TO.N,Net-(R11-Pad1)*%
X123500000Y-92080000D03*
%TO.P,U1,6*%
%TO.N,N/C*%
X131120000Y-92080000D03*
%TO.P,U1,2*%
%TO.N,Net-(R12-Pad1)*%
X123500000Y-89540000D03*
%TO.P,U1,5*%
%TO.N,Net-(U1-Pad5)*%
X131120000Y-94620000D03*
D13*
%TO.P,U1,1*%
%TO.N,Net-(R14-Pad1)*%
X123500000Y-87000000D03*
%TD*%
D14*
%TO.P,Q1,1*%
%TO.N,Net-(Q1-Pad1)*%
X123750000Y-109750000D03*
D15*
%TO.P,Q1,3*%
%TO.N,GND*%
X123750000Y-114830000D03*
%TO.P,Q1,2*%
%TO.N,Net-(Q1-Pad2)*%
X123750000Y-112290000D03*
%TD*%
D16*
%TO.P,R4,2*%
%TO.N,Net-(R4-Pad2)*%
X105590000Y-116000000D03*
D17*
%TO.P,R4,1*%
%TO.N,Net-(Q1-Pad2)*%
X115750000Y-116000000D03*
%TD*%
D16*
%TO.P,R15,2*%
%TO.N,Net-(Out1-PadT)*%
X115800000Y-112700000D03*
D17*
%TO.P,R15,1*%
%TO.N,Net-(R14-Pad1)*%
X105640000Y-112700000D03*
%TD*%
D16*
%TO.P,R14,2*%
%TO.N,Net-(R11-Pad1)*%
X105640000Y-90200000D03*
D17*
%TO.P,R14,1*%
%TO.N,Net-(R14-Pad1)*%
X115800000Y-90200000D03*
%TD*%
D16*
%TO.P,R13,2*%
%TO.N,Net-(R12-Pad1)*%
X115760000Y-96550000D03*
D17*
%TO.P,R13,1*%
%TO.N,GND*%
X105600000Y-96550000D03*
%TD*%
D16*
%TO.P,R12,2*%
%TO.N,Net-(Q2-Pad3)*%
X105640000Y-93350000D03*
D17*
%TO.P,R12,1*%
%TO.N,Net-(R12-Pad1)*%
X115800000Y-93350000D03*
%TD*%
D16*
%TO.P,R11,2*%
%TO.N,Net-(Q2-Pad6)*%
X105640000Y-99750000D03*
D17*
%TO.P,R11,1*%
%TO.N,Net-(R11-Pad1)*%
X115800000Y-99750000D03*
%TD*%
D16*
%TO.P,R10,2*%
%TO.N,Net-(Q2-Pad3)*%
X105590000Y-80500000D03*
D17*
%TO.P,R10,1*%
%TO.N,+12V*%
X115750000Y-80500000D03*
%TD*%
D16*
%TO.P,R9,2*%
%TO.N,Net-(Q1-Pad1)*%
X105590000Y-83750000D03*
D17*
%TO.P,R9,1*%
%TO.N,-12V*%
X115750000Y-83750000D03*
%TD*%
D16*
%TO.P,R8,2*%
%TO.N,Net-(Q1-Pad1)*%
X105640000Y-109400000D03*
D17*
%TO.P,R8,1*%
%TO.N,Net-(Q2-Pad1)*%
X115800000Y-109400000D03*
%TD*%
D16*
%TO.P,R7,2*%
%TO.N,Net-(Q2-Pad6)*%
X105640000Y-87000000D03*
D17*
%TO.P,R7,1*%
%TO.N,+12V*%
X115800000Y-87000000D03*
%TD*%
D16*
%TO.P,R6,2*%
%TO.N,Net-(Q2-Pad2)*%
X115800000Y-106200000D03*
D17*
%TO.P,R6,1*%
%TO.N,GND*%
X105640000Y-106200000D03*
%TD*%
D16*
%TO.P,R5,2*%
%TO.N,Net-(In1-PadT)*%
X105640000Y-103000000D03*
D17*
%TO.P,R5,1*%
%TO.N,Net-(Q2-Pad2)*%
X115800000Y-103000000D03*
%TD*%
D18*
%TO.P,Out1,T*%
%TO.N,Net-(Out1-PadT)*%
X119500000Y-121000000D03*
D19*
%TO.P,Out1,S*%
%TO.N,GND*%
X119500000Y-132400000D03*
D18*
%TO.P,Out1,TN*%
%TO.N,N/C*%
X119500000Y-129300000D03*
%TD*%
D20*
%TO.P,J1,10*%
%TO.N,-12V*%
X141540000Y-95910000D03*
%TO.P,J1,9*%
X139000000Y-95910000D03*
%TO.P,J1,8*%
%TO.N,GND*%
X141540000Y-93370000D03*
%TO.P,J1,7*%
X139000000Y-93370000D03*
%TO.P,J1,6*%
X141540000Y-90830000D03*
%TO.P,J1,5*%
X139000000Y-90830000D03*
%TO.P,J1,4*%
X141540000Y-88290000D03*
%TO.P,J1,3*%
X139000000Y-88290000D03*
%TO.P,J1,2*%
%TO.N,+12V*%
X141540000Y-85750000D03*
D21*
%TO.P,J1,1*%
X139000000Y-85750000D03*
%TD*%
D18*
%TO.P,In1,T*%
%TO.N,Net-(In1-PadT)*%
X107250000Y-120850000D03*
D19*
%TO.P,In1,S*%
%TO.N,GND*%
X107250000Y-132250000D03*
D18*
%TO.P,In1,TN*%
%TO.N,N/C*%
X107250000Y-129150000D03*
%TD*%
D22*
%TO.N,GND*%
X132900000Y-103000000D03*
%TD*%
D23*
%TO.N,GND*%
X105600000Y-96550000D02*
X108400000Y-99350000D01*
X108400000Y-103440000D02*
X105640000Y-106200000D01*
X108400000Y-99350000D02*
X108400000Y-103440000D01*
%TO.N,Net-(Q1-Pad1)*%
X108600000Y-109400000D02*
X105640000Y-109400000D01*
X111800000Y-89960000D02*
X111800000Y-106200000D01*
X111800000Y-106200000D02*
X108600000Y-109400000D01*
X105590000Y-83750000D02*
X111800000Y-89960000D01*
D24*
%TO.N,Net-(Q2-Pad6)*%
X104000000Y-87000000D02*
X105640000Y-87000000D01*
X102750000Y-88250000D02*
X104000000Y-87000000D01*
X102750000Y-96860000D02*
X102750000Y-88250000D01*
X105640000Y-99750000D02*
X102750000Y-96860000D01*
D23*
%TO.N,Net-(R14-Pad1)*%
X105640000Y-112700000D02*
X112000000Y-112700000D01*
X112000000Y-112700000D02*
X113000000Y-111700000D01*
X113000000Y-93000000D02*
X115800000Y-90200000D01*
X113000000Y-111700000D02*
X113000000Y-93000000D01*
%TD*%
D25*
X146873000Y-134873000D02*
X100127000Y-134873000D01*
X100127000Y-128982565D01*
X105550000Y-128982565D01*
X105550000Y-129317435D01*
X105615330Y-129645872D01*
X105743479Y-129955252D01*
X105929523Y-130233687D01*
X106166313Y-130470477D01*
X106444748Y-130656521D01*
X106542299Y-130696928D01*
X106285000Y-130696928D01*
X106160518Y-130709188D01*
X106040820Y-130745498D01*
X105930506Y-130804463D01*
X105833815Y-130883815D01*
X105754463Y-130980506D01*
X105695498Y-131090820D01*
X105659188Y-131210518D01*
X105646928Y-131335000D01*
X105646928Y-133165000D01*
X105659188Y-133289482D01*
X105695498Y-133409180D01*
X105754463Y-133519494D01*
X105833815Y-133616185D01*
X105930506Y-133695537D01*
X106040820Y-133754502D01*
X106160518Y-133790812D01*
X106285000Y-133803072D01*
X108215000Y-133803072D01*
X108339482Y-133790812D01*
X108459180Y-133754502D01*
X108569494Y-133695537D01*
X108666185Y-133616185D01*
X108745537Y-133519494D01*
X108804502Y-133409180D01*
X108840812Y-133289482D01*
X108853072Y-133165000D01*
X108853072Y-131335000D01*
X108840812Y-131210518D01*
X108804502Y-131090820D01*
X108745537Y-130980506D01*
X108666185Y-130883815D01*
X108569494Y-130804463D01*
X108459180Y-130745498D01*
X108339482Y-130709188D01*
X108215000Y-130696928D01*
X107957701Y-130696928D01*
X108055252Y-130656521D01*
X108333687Y-130470477D01*
X108570477Y-130233687D01*
X108756521Y-129955252D01*
X108884670Y-129645872D01*
X108950000Y-129317435D01*
X108950000Y-129132565D01*
X117800000Y-129132565D01*
X117800000Y-129467435D01*
X117865330Y-129795872D01*
X117993479Y-130105252D01*
X118179523Y-130383687D01*
X118416313Y-130620477D01*
X118694748Y-130806521D01*
X118792299Y-130846928D01*
X118535000Y-130846928D01*
X118410518Y-130859188D01*
X118290820Y-130895498D01*
X118180506Y-130954463D01*
X118083815Y-131033815D01*
X118004463Y-131130506D01*
X117945498Y-131240820D01*
X117909188Y-131360518D01*
X117896928Y-131485000D01*
X117896928Y-133315000D01*
X117909188Y-133439482D01*
X117945498Y-133559180D01*
X118004463Y-133669494D01*
X118083815Y-133766185D01*
X118180506Y-133845537D01*
X118290820Y-133904502D01*
X118410518Y-133940812D01*
X118535000Y-133953072D01*
X120465000Y-133953072D01*
X120589482Y-133940812D01*
X120709180Y-133904502D01*
X120819494Y-133845537D01*
X120916185Y-133766185D01*
X120995537Y-133669494D01*
X121054502Y-133559180D01*
X121090812Y-133439482D01*
X121103072Y-133315000D01*
X121103072Y-132598816D01*
X129465000Y-132598816D01*
X129465000Y-132901184D01*
X129523989Y-133197743D01*
X129639701Y-133477095D01*
X129807688Y-133728505D01*
X130021495Y-133942312D01*
X130272905Y-134110299D01*
X130552257Y-134226011D01*
X130848816Y-134285000D01*
X131151184Y-134285000D01*
X131447743Y-134226011D01*
X131727095Y-134110299D01*
X131978505Y-133942312D01*
X132192312Y-133728505D01*
X132250000Y-133642169D01*
X132307688Y-133728505D01*
X132521495Y-133942312D01*
X132772905Y-134110299D01*
X133052257Y-134226011D01*
X133348816Y-134285000D01*
X133651184Y-134285000D01*
X133947743Y-134226011D01*
X134227095Y-134110299D01*
X134478505Y-133942312D01*
X134692312Y-133728505D01*
X134750000Y-133642169D01*
X134807688Y-133728505D01*
X135021495Y-133942312D01*
X135272905Y-134110299D01*
X135552257Y-134226011D01*
X135848816Y-134285000D01*
X136151184Y-134285000D01*
X136447743Y-134226011D01*
X136727095Y-134110299D01*
X136978505Y-133942312D01*
X137192312Y-133728505D01*
X137360299Y-133477095D01*
X137476011Y-133197743D01*
X137535000Y-132901184D01*
X137535000Y-132598816D01*
X137476011Y-132302257D01*
X137360299Y-132022905D01*
X137192312Y-131771495D01*
X136978505Y-131557688D01*
X136727095Y-131389701D01*
X136447743Y-131273989D01*
X136151184Y-131215000D01*
X135848816Y-131215000D01*
X135552257Y-131273989D01*
X135272905Y-131389701D01*
X135021495Y-131557688D01*
X134807688Y-131771495D01*
X134750000Y-131857831D01*
X134692312Y-131771495D01*
X134478505Y-131557688D01*
X134227095Y-131389701D01*
X133947743Y-131273989D01*
X133651184Y-131215000D01*
X133348816Y-131215000D01*
X133052257Y-131273989D01*
X132772905Y-131389701D01*
X132521495Y-131557688D01*
X132307688Y-131771495D01*
X132250000Y-131857831D01*
X132192312Y-131771495D01*
X131978505Y-131557688D01*
X131727095Y-131389701D01*
X131447743Y-131273989D01*
X131151184Y-131215000D01*
X130848816Y-131215000D01*
X130552257Y-131273989D01*
X130272905Y-131389701D01*
X130021495Y-131557688D01*
X129807688Y-131771495D01*
X129639701Y-132022905D01*
X129523989Y-132302257D01*
X129465000Y-132598816D01*
X121103072Y-132598816D01*
X121103072Y-131485000D01*
X121090812Y-131360518D01*
X121054502Y-131240820D01*
X120995537Y-131130506D01*
X120916185Y-131033815D01*
X120819494Y-130954463D01*
X120709180Y-130895498D01*
X120589482Y-130859188D01*
X120465000Y-130846928D01*
X120207701Y-130846928D01*
X120305252Y-130806521D01*
X120583687Y-130620477D01*
X120820477Y-130383687D01*
X121006521Y-130105252D01*
X121134670Y-129795872D01*
X121200000Y-129467435D01*
X121200000Y-129132565D01*
X121134670Y-128804128D01*
X121006521Y-128494748D01*
X120820477Y-128216313D01*
X120583687Y-127979523D01*
X120305252Y-127793479D01*
X119995872Y-127665330D01*
X119667435Y-127600000D01*
X119332565Y-127600000D01*
X119004128Y-127665330D01*
X118694748Y-127793479D01*
X118416313Y-127979523D01*
X118179523Y-128216313D01*
X117993479Y-128494748D01*
X117865330Y-128804128D01*
X117800000Y-129132565D01*
X108950000Y-129132565D01*
X108950000Y-128982565D01*
X108884670Y-128654128D01*
X108756521Y-128344748D01*
X108570477Y-128066313D01*
X108333687Y-127829523D01*
X108055252Y-127643479D01*
X107745872Y-127515330D01*
X107417435Y-127450000D01*
X107082565Y-127450000D01*
X106754128Y-127515330D01*
X106444748Y-127643479D01*
X106166313Y-127829523D01*
X105929523Y-128066313D01*
X105743479Y-128344748D01*
X105615330Y-128654128D01*
X105550000Y-128982565D01*
X100127000Y-128982565D01*
X100127000Y-125490475D01*
X126465000Y-125490475D01*
X126465000Y-126009525D01*
X126566261Y-126518601D01*
X126764893Y-126998141D01*
X127053262Y-127429715D01*
X127420285Y-127796738D01*
X127851859Y-128085107D01*
X128331399Y-128283739D01*
X128840475Y-128385000D01*
X129359525Y-128385000D01*
X129868601Y-128283739D01*
X130348141Y-128085107D01*
X130779715Y-127796738D01*
X131146738Y-127429715D01*
X131435107Y-126998141D01*
X131633739Y-126518601D01*
X131735000Y-126009525D01*
X131735000Y-125490475D01*
X135265000Y-125490475D01*
X135265000Y-126009525D01*
X135366261Y-126518601D01*
X135564893Y-126998141D01*
X135853262Y-127429715D01*
X136220285Y-127796738D01*
X136651859Y-128085107D01*
X137131399Y-128283739D01*
X137640475Y-128385000D01*
X138159525Y-128385000D01*
X138668601Y-128283739D01*
X139148141Y-128085107D01*
X139579715Y-127796738D01*
X139946738Y-127429715D01*
X140235107Y-126998141D01*
X140433739Y-126518601D01*
X140535000Y-126009525D01*
X140535000Y-125490475D01*
X140433739Y-124981399D01*
X140235107Y-124501859D01*
X139946738Y-124070285D01*
X139579715Y-123703262D01*
X139148141Y-123414893D01*
X138668601Y-123216261D01*
X138159525Y-123115000D01*
X137640475Y-123115000D01*
X137131399Y-123216261D01*
X136651859Y-123414893D01*
X136220285Y-123703262D01*
X135853262Y-124070285D01*
X135564893Y-124501859D01*
X135366261Y-124981399D01*
X135265000Y-125490475D01*
X131735000Y-125490475D01*
X131633739Y-124981399D01*
X131435107Y-124501859D01*
X131146738Y-124070285D01*
X130779715Y-123703262D01*
X130348141Y-123414893D01*
X129868601Y-123216261D01*
X129359525Y-123115000D01*
X128840475Y-123115000D01*
X128331399Y-123216261D01*
X127851859Y-123414893D01*
X127420285Y-123703262D01*
X127053262Y-124070285D01*
X126764893Y-124501859D01*
X126566261Y-124981399D01*
X126465000Y-125490475D01*
X100127000Y-125490475D01*
X100127000Y-120682565D01*
X105550000Y-120682565D01*
X105550000Y-121017435D01*
X105615330Y-121345872D01*
X105743479Y-121655252D01*
X105929523Y-121933687D01*
X106166313Y-122170477D01*
X106444748Y-122356521D01*
X106754128Y-122484670D01*
X107082565Y-122550000D01*
X107417435Y-122550000D01*
X107745872Y-122484670D01*
X108055252Y-122356521D01*
X108333687Y-122170477D01*
X108570477Y-121933687D01*
X108756521Y-121655252D01*
X108884670Y-121345872D01*
X108950000Y-121017435D01*
X108950000Y-120832565D01*
X117800000Y-120832565D01*
X117800000Y-121167435D01*
X117865330Y-121495872D01*
X117993479Y-121805252D01*
X118179523Y-122083687D01*
X118416313Y-122320477D01*
X118694748Y-122506521D01*
X119004128Y-122634670D01*
X119332565Y-122700000D01*
X119667435Y-122700000D01*
X119995872Y-122634670D01*
X120305252Y-122506521D01*
X120583687Y-122320477D01*
X120820477Y-122083687D01*
X121006521Y-121805252D01*
X121134670Y-121495872D01*
X121200000Y-121167435D01*
X121200000Y-120832565D01*
X121134670Y-120504128D01*
X121006521Y-120194748D01*
X120820477Y-119916313D01*
X120583687Y-119679523D01*
X120305252Y-119493479D01*
X119995872Y-119365330D01*
X119667435Y-119300000D01*
X119332565Y-119300000D01*
X119004128Y-119365330D01*
X118694748Y-119493479D01*
X118416313Y-119679523D01*
X118179523Y-119916313D01*
X117993479Y-120194748D01*
X117865330Y-120504128D01*
X117800000Y-120832565D01*
X108950000Y-120832565D01*
X108950000Y-120682565D01*
X108884670Y-120354128D01*
X108756521Y-120044748D01*
X108570477Y-119766313D01*
X108333687Y-119529523D01*
X108055252Y-119343479D01*
X107745872Y-119215330D01*
X107417435Y-119150000D01*
X107082565Y-119150000D01*
X106754128Y-119215330D01*
X106444748Y-119343479D01*
X106166313Y-119529523D01*
X105929523Y-119766313D01*
X105743479Y-120044748D01*
X105615330Y-120354128D01*
X105550000Y-120682565D01*
X100127000Y-120682565D01*
X100127000Y-115858665D01*
X104155000Y-115858665D01*
X104155000Y-116141335D01*
X104210147Y-116418574D01*
X104318320Y-116679727D01*
X104475363Y-116914759D01*
X104675241Y-117114637D01*
X104910273Y-117271680D01*
X105171426Y-117379853D01*
X105448665Y-117435000D01*
X105731335Y-117435000D01*
X106008574Y-117379853D01*
X106269727Y-117271680D01*
X106504759Y-117114637D01*
X106704637Y-116914759D01*
X106861680Y-116679727D01*
X106969853Y-116418574D01*
X107025000Y-116141335D01*
X107025000Y-115858665D01*
X114315000Y-115858665D01*
X114315000Y-116141335D01*
X114370147Y-116418574D01*
X114478320Y-116679727D01*
X114635363Y-116914759D01*
X114835241Y-117114637D01*
X115070273Y-117271680D01*
X115331426Y-117379853D01*
X115608665Y-117435000D01*
X115891335Y-117435000D01*
X116168574Y-117379853D01*
X116429727Y-117271680D01*
X116664759Y-117114637D01*
X116864637Y-116914759D01*
X117021680Y-116679727D01*
X117129853Y-116418574D01*
X117185000Y-116141335D01*
X117185000Y-115858665D01*
X117129853Y-115581426D01*
X117021680Y-115320273D01*
X116864637Y-115085241D01*
X116664759Y-114885363D01*
X116429727Y-114728320D01*
X116168574Y-114620147D01*
X115891335Y-114565000D01*
X115608665Y-114565000D01*
X115331426Y-114620147D01*
X115070273Y-114728320D01*
X114835241Y-114885363D01*
X114635363Y-115085241D01*
X114478320Y-115320273D01*
X114370147Y-115581426D01*
X114315000Y-115858665D01*
X107025000Y-115858665D01*
X106969853Y-115581426D01*
X106861680Y-115320273D01*
X106704637Y-115085241D01*
X106504759Y-114885363D01*
X106269727Y-114728320D01*
X106008574Y-114620147D01*
X105731335Y-114565000D01*
X105448665Y-114565000D01*
X105171426Y-114620147D01*
X104910273Y-114728320D01*
X104675241Y-114885363D01*
X104475363Y-115085241D01*
X104318320Y-115320273D01*
X104210147Y-115581426D01*
X104155000Y-115858665D01*
X100127000Y-115858665D01*
X100127000Y-102858665D01*
X104205000Y-102858665D01*
X104205000Y-103141335D01*
X104260147Y-103418574D01*
X104368320Y-103679727D01*
X104525363Y-103914759D01*
X104725241Y-104114637D01*
X104960273Y-104271680D01*
X105221426Y-104379853D01*
X105498665Y-104435000D01*
X105781335Y-104435000D01*
X106058574Y-104379853D01*
X106319727Y-104271680D01*
X106554759Y-104114637D01*
X106754637Y-103914759D01*
X106911680Y-103679727D01*
X107019853Y-103418574D01*
X107075000Y-103141335D01*
X107075000Y-102858665D01*
X107019853Y-102581426D01*
X106911680Y-102320273D01*
X106754637Y-102085241D01*
X106554759Y-101885363D01*
X106319727Y-101728320D01*
X106058574Y-101620147D01*
X105781335Y-101565000D01*
X105498665Y-101565000D01*
X105221426Y-101620147D01*
X104960273Y-101728320D01*
X104725241Y-101885363D01*
X104525363Y-102085241D01*
X104368320Y-102320273D01*
X104260147Y-102581426D01*
X104205000Y-102858665D01*
X100127000Y-102858665D01*
X100127000Y-88250000D01*
X101910960Y-88250000D01*
X101915001Y-88291029D01*
X101915000Y-96818981D01*
X101910960Y-96860000D01*
X101915000Y-96901018D01*
X101927082Y-97023688D01*
X101974828Y-97181086D01*
X102052364Y-97326145D01*
X102156709Y-97453291D01*
X102188579Y-97479446D01*
X104223714Y-99514582D01*
X104205000Y-99608665D01*
X104205000Y-99891335D01*
X104260147Y-100168574D01*
X104368320Y-100429727D01*
X104525363Y-100664759D01*
X104725241Y-100864637D01*
X104960273Y-101021680D01*
X105221426Y-101129853D01*
X105498665Y-101185000D01*
X105781335Y-101185000D01*
X106058574Y-101129853D01*
X106319727Y-101021680D01*
X106554759Y-100864637D01*
X106754637Y-100664759D01*
X106911680Y-100429727D01*
X107019853Y-100168574D01*
X107075000Y-99891335D01*
X107075000Y-99608665D01*
X107019853Y-99331426D01*
X106911680Y-99070273D01*
X106754637Y-98835241D01*
X106554759Y-98635363D01*
X106319727Y-98478320D01*
X106058574Y-98370147D01*
X105781335Y-98315000D01*
X105498665Y-98315000D01*
X105404582Y-98333714D01*
X104836718Y-97765850D01*
X104920273Y-97821680D01*
X105181426Y-97929853D01*
X105458665Y-97985000D01*
X105741335Y-97985000D01*
X105923886Y-97948688D01*
X107640000Y-99664802D01*
X107640001Y-103125196D01*
X105963886Y-104801312D01*
X105781335Y-104765000D01*
X105498665Y-104765000D01*
X105221426Y-104820147D01*
X104960273Y-104928320D01*
X104725241Y-105085363D01*
X104525363Y-105285241D01*
X104368320Y-105520273D01*
X104260147Y-105781426D01*
X104205000Y-106058665D01*
X104205000Y-106341335D01*
X104260147Y-106618574D01*
X104368320Y-106879727D01*
X104525363Y-107114759D01*
X104725241Y-107314637D01*
X104960273Y-107471680D01*
X105221426Y-107579853D01*
X105498665Y-107635000D01*
X105781335Y-107635000D01*
X106058574Y-107579853D01*
X106319727Y-107471680D01*
X106554759Y-107314637D01*
X106754637Y-107114759D01*
X106911680Y-106879727D01*
X107019853Y-106618574D01*
X107075000Y-106341335D01*
X107075000Y-106058665D01*
X107038688Y-105876114D01*
X108911008Y-104003795D01*
X108940001Y-103980001D01*
X108963795Y-103951008D01*
X108963799Y-103951004D01*
X109034973Y-103864277D01*
X109067226Y-103803937D01*
X109105546Y-103732247D01*
X109149003Y-103588986D01*
X109160000Y-103477333D01*
X109160000Y-103477324D01*
X109163676Y-103440001D01*
X109160000Y-103402678D01*
X109160000Y-99387323D01*
X109163676Y-99350000D01*
X109160000Y-99312677D01*
X109160000Y-99312667D01*
X109149003Y-99201014D01*
X109105546Y-99057753D01*
X109034975Y-98925725D01*
X109034974Y-98925723D01*
X108963799Y-98838997D01*
X108940001Y-98809999D01*
X108911004Y-98786202D01*
X106998688Y-96873886D01*
X107035000Y-96691335D01*
X107035000Y-96408665D01*
X106979853Y-96131426D01*
X106871680Y-95870273D01*
X106714637Y-95635241D01*
X106514759Y-95435363D01*
X106279727Y-95278320D01*
X106018574Y-95170147D01*
X105741335Y-95115000D01*
X105458665Y-95115000D01*
X105181426Y-95170147D01*
X104920273Y-95278320D01*
X104685241Y-95435363D01*
X104485363Y-95635241D01*
X104328320Y-95870273D01*
X104220147Y-96131426D01*
X104165000Y-96408665D01*
X104165000Y-96691335D01*
X104220147Y-96968574D01*
X104328320Y-97229727D01*
X104384150Y-97313283D01*
X103585000Y-96514133D01*
X103585000Y-93208665D01*
X104205000Y-93208665D01*
X104205000Y-93491335D01*
X104260147Y-93768574D01*
X104368320Y-94029727D01*
X104525363Y-94264759D01*
X104725241Y-94464637D01*
X104960273Y-94621680D01*
X105221426Y-94729853D01*
X105498665Y-94785000D01*
X105781335Y-94785000D01*
X106058574Y-94729853D01*
X106319727Y-94621680D01*
X106554759Y-94464637D01*
X106754637Y-94264759D01*
X106911680Y-94029727D01*
X107019853Y-93768574D01*
X107075000Y-93491335D01*
X107075000Y-93208665D01*
X107019853Y-92931426D01*
X106911680Y-92670273D01*
X106754637Y-92435241D01*
X106554759Y-92235363D01*
X106319727Y-92078320D01*
X106058574Y-91970147D01*
X105781335Y-91915000D01*
X105498665Y-91915000D01*
X105221426Y-91970147D01*
X104960273Y-92078320D01*
X104725241Y-92235363D01*
X104525363Y-92435241D01*
X104368320Y-92670273D01*
X104260147Y-92931426D01*
X104205000Y-93208665D01*
X103585000Y-93208665D01*
X103585000Y-90058665D01*
X104205000Y-90058665D01*
X104205000Y-90341335D01*
X104260147Y-90618574D01*
X104368320Y-90879727D01*
X104525363Y-91114759D01*
X104725241Y-91314637D01*
X104960273Y-91471680D01*
X105221426Y-91579853D01*
X105498665Y-91635000D01*
X105781335Y-91635000D01*
X106058574Y-91579853D01*
X106319727Y-91471680D01*
X106554759Y-91314637D01*
X106754637Y-91114759D01*
X106911680Y-90879727D01*
X107019853Y-90618574D01*
X107075000Y-90341335D01*
X107075000Y-90058665D01*
X107019853Y-89781426D01*
X106911680Y-89520273D01*
X106754637Y-89285241D01*
X106554759Y-89085363D01*
X106319727Y-88928320D01*
X106058574Y-88820147D01*
X105781335Y-88765000D01*
X105498665Y-88765000D01*
X105221426Y-88820147D01*
X104960273Y-88928320D01*
X104725241Y-89085363D01*
X104525363Y-89285241D01*
X104368320Y-89520273D01*
X104260147Y-89781426D01*
X104205000Y-90058665D01*
X103585000Y-90058665D01*
X103585000Y-88595867D01*
X104345869Y-87835000D01*
X104472070Y-87835000D01*
X104525363Y-87914759D01*
X104725241Y-88114637D01*
X104960273Y-88271680D01*
X105221426Y-88379853D01*
X105498665Y-88435000D01*
X105781335Y-88435000D01*
X106058574Y-88379853D01*
X106319727Y-88271680D01*
X106554759Y-88114637D01*
X106754637Y-87914759D01*
X106911680Y-87679727D01*
X107019853Y-87418574D01*
X107075000Y-87141335D01*
X107075000Y-86858665D01*
X107019853Y-86581426D01*
X106911680Y-86320273D01*
X106754637Y-86085241D01*
X106554759Y-85885363D01*
X106319727Y-85728320D01*
X106058574Y-85620147D01*
X105781335Y-85565000D01*
X105498665Y-85565000D01*
X105221426Y-85620147D01*
X104960273Y-85728320D01*
X104725241Y-85885363D01*
X104525363Y-86085241D01*
X104472070Y-86165000D01*
X104041018Y-86165000D01*
X104000000Y-86160960D01*
X103958981Y-86165000D01*
X103836311Y-86177082D01*
X103678913Y-86224828D01*
X103533854Y-86302364D01*
X103406709Y-86406709D01*
X103380563Y-86438568D01*
X102188574Y-87630559D01*
X102156710Y-87656709D01*
X102075907Y-87755168D01*
X102052364Y-87783855D01*
X101974828Y-87928914D01*
X101927082Y-88086312D01*
X101910960Y-88250000D01*
X100127000Y-88250000D01*
X100127000Y-83608665D01*
X104155000Y-83608665D01*
X104155000Y-83891335D01*
X104210147Y-84168574D01*
X104318320Y-84429727D01*
X104475363Y-84664759D01*
X104675241Y-84864637D01*
X104910273Y-85021680D01*
X105171426Y-85129853D01*
X105448665Y-85185000D01*
X105731335Y-85185000D01*
X105913887Y-85148688D01*
X111040000Y-90274802D01*
X111040001Y-105885196D01*
X108285199Y-108640000D01*
X106858043Y-108640000D01*
X106754637Y-108485241D01*
X106554759Y-108285363D01*
X106319727Y-108128320D01*
X106058574Y-108020147D01*
X105781335Y-107965000D01*
X105498665Y-107965000D01*
X105221426Y-108020147D01*
X104960273Y-108128320D01*
X104725241Y-108285363D01*
X104525363Y-108485241D01*
X104368320Y-108720273D01*
X104260147Y-108981426D01*
X104205000Y-109258665D01*
X104205000Y-109541335D01*
X104260147Y-109818574D01*
X104368320Y-110079727D01*
X104525363Y-110314759D01*
X104725241Y-110514637D01*
X104960273Y-110671680D01*
X105221426Y-110779853D01*
X105498665Y-110835000D01*
X105781335Y-110835000D01*
X106058574Y-110779853D01*
X106319727Y-110671680D01*
X106554759Y-110514637D01*
X106754637Y-110314759D01*
X106858043Y-110160000D01*
X108562678Y-110160000D01*
X108600000Y-110163676D01*
X108637322Y-110160000D01*
X108637333Y-110160000D01*
X108748986Y-110149003D01*
X108892247Y-110105546D01*
X109024276Y-110034974D01*
X109140001Y-109940001D01*
X109163804Y-109910997D01*
X112240000Y-106834803D01*
X112240000Y-111385198D01*
X111685199Y-111940000D01*
X106858043Y-111940000D01*
X106754637Y-111785241D01*
X106554759Y-111585363D01*
X106319727Y-111428320D01*
X106058574Y-111320147D01*
X105781335Y-111265000D01*
X105498665Y-111265000D01*
X105221426Y-111320147D01*
X104960273Y-111428320D01*
X104725241Y-111585363D01*
X104525363Y-111785241D01*
X104368320Y-112020273D01*
X104260147Y-112281426D01*
X104205000Y-112558665D01*
X104205000Y-112841335D01*
X104260147Y-113118574D01*
X104368320Y-113379727D01*
X104525363Y-113614759D01*
X104725241Y-113814637D01*
X104960273Y-113971680D01*
X105221426Y-114079853D01*
X105498665Y-114135000D01*
X105781335Y-114135000D01*
X106058574Y-114079853D01*
X106319727Y-113971680D01*
X106554759Y-113814637D01*
X106754637Y-113614759D01*
X106858043Y-113460000D01*
X111962678Y-113460000D01*
X112000000Y-113463676D01*
X112037322Y-113460000D01*
X112037333Y-113460000D01*
X112148986Y-113449003D01*
X112292247Y-113405546D01*
X112424276Y-113334974D01*
X112540001Y-113240001D01*
X112563804Y-113210998D01*
X113216137Y-112558665D01*
X114365000Y-112558665D01*
X114365000Y-112841335D01*
X114420147Y-113118574D01*
X114528320Y-113379727D01*
X114685363Y-113614759D01*
X114885241Y-113814637D01*
X115120273Y-113971680D01*
X115381426Y-114079853D01*
X115658665Y-114135000D01*
X115941335Y-114135000D01*
X116218574Y-114079853D01*
X116479727Y-113971680D01*
X116714759Y-113814637D01*
X116914637Y-113614759D01*
X117071680Y-113379727D01*
X117179853Y-113118574D01*
X117235000Y-112841335D01*
X117235000Y-112558665D01*
X117179853Y-112281426D01*
X117071680Y-112020273D01*
X116914637Y-111785241D01*
X116714759Y-111585363D01*
X116479727Y-111428320D01*
X116218574Y-111320147D01*
X115941335Y-111265000D01*
X115658665Y-111265000D01*
X115381426Y-111320147D01*
X115120273Y-111428320D01*
X114885241Y-111585363D01*
X114685363Y-111785241D01*
X114528320Y-112020273D01*
X114420147Y-112281426D01*
X114365000Y-112558665D01*
X113216137Y-112558665D01*
X113511004Y-112263798D01*
X113540001Y-112240001D01*
X113634974Y-112124276D01*
X113705546Y-111992247D01*
X113749003Y-111848986D01*
X113760000Y-111737333D01*
X113760000Y-111737332D01*
X113763677Y-111700000D01*
X113760000Y-111662667D01*
X113760000Y-109258665D01*
X114365000Y-109258665D01*
X114365000Y-109541335D01*
X114420147Y-109818574D01*
X114528320Y-110079727D01*
X114685363Y-110314759D01*
X114885241Y-110514637D01*
X115120273Y-110671680D01*
X115381426Y-110779853D01*
X115658665Y-110835000D01*
X115941335Y-110835000D01*
X116218574Y-110779853D01*
X116479727Y-110671680D01*
X116714759Y-110514637D01*
X116914637Y-110314759D01*
X117071680Y-110079727D01*
X117179853Y-109818574D01*
X117235000Y-109541335D01*
X117235000Y-109258665D01*
X117183548Y-109000000D01*
X122361928Y-109000000D01*
X122361928Y-110500000D01*
X122374188Y-110624482D01*
X122410498Y-110744180D01*
X122469463Y-110854494D01*
X122548815Y-110951185D01*
X122645506Y-111030537D01*
X122755820Y-111089502D01*
X122875518Y-111125812D01*
X122983483Y-111136445D01*
X122867114Y-111214201D01*
X122674201Y-111407114D01*
X122522629Y-111633957D01*
X122418225Y-111886011D01*
X122365000Y-112153589D01*
X122365000Y-112426411D01*
X122418225Y-112693989D01*
X122522629Y-112946043D01*
X122674201Y-113172886D01*
X122867114Y-113365799D01*
X123093957Y-113517371D01*
X123196873Y-113560000D01*
X123093957Y-113602629D01*
X122867114Y-113754201D01*
X122674201Y-113947114D01*
X122522629Y-114173957D01*
X122418225Y-114426011D01*
X122365000Y-114693589D01*
X122365000Y-114966411D01*
X122418225Y-115233989D01*
X122522629Y-115486043D01*
X122674201Y-115712886D01*
X122867114Y-115905799D01*
X123093957Y-116057371D01*
X123346011Y-116161775D01*
X123613589Y-116215000D01*
X123886411Y-116215000D01*
X124153989Y-116161775D01*
X124406043Y-116057371D01*
X124632886Y-115905799D01*
X124825799Y-115712886D01*
X124977371Y-115486043D01*
X125081775Y-115233989D01*
X125135000Y-114966411D01*
X125135000Y-114693589D01*
X125081775Y-114426011D01*
X124977371Y-114173957D01*
X124825799Y-113947114D01*
X124632886Y-113754201D01*
X124406043Y-113602629D01*
X124303127Y-113560000D01*
X124406043Y-113517371D01*
X124632886Y-113365799D01*
X124825799Y-113172886D01*
X124977371Y-112946043D01*
X125081775Y-112693989D01*
X125135000Y-112426411D01*
X125135000Y-112153589D01*
X125081775Y-111886011D01*
X124977371Y-111633957D01*
X124825799Y-111407114D01*
X124632886Y-111214201D01*
X124516517Y-111136445D01*
X124624482Y-111125812D01*
X124744180Y-111089502D01*
X124854494Y-111030537D01*
X124951185Y-110951185D01*
X125030537Y-110854494D01*
X125089502Y-110744180D01*
X125125812Y-110624482D01*
X125138072Y-110500000D01*
X125138072Y-109000000D01*
X125125812Y-108875518D01*
X125089502Y-108755820D01*
X125030537Y-108645506D01*
X124951185Y-108548815D01*
X124854494Y-108469463D01*
X124744180Y-108410498D01*
X124624482Y-108374188D01*
X124500000Y-108361928D01*
X123000000Y-108361928D01*
X122875518Y-108374188D01*
X122755820Y-108410498D01*
X122645506Y-108469463D01*
X122548815Y-108548815D01*
X122469463Y-108645506D01*
X122410498Y-108755820D01*
X122374188Y-108875518D01*
X122361928Y-109000000D01*
X117183548Y-109000000D01*
X117179853Y-108981426D01*
X117071680Y-108720273D01*
X116914637Y-108485241D01*
X116714759Y-108285363D01*
X116479727Y-108128320D01*
X116218574Y-108020147D01*
X115941335Y-107965000D01*
X115658665Y-107965000D01*
X115381426Y-108020147D01*
X115120273Y-108128320D01*
X114885241Y-108285363D01*
X114685363Y-108485241D01*
X114528320Y-108720273D01*
X114420147Y-108981426D01*
X114365000Y-109258665D01*
X113760000Y-109258665D01*
X113760000Y-106058665D01*
X114365000Y-106058665D01*
X114365000Y-106341335D01*
X114420147Y-106618574D01*
X114528320Y-106879727D01*
X114685363Y-107114759D01*
X114885241Y-107314637D01*
X115120273Y-107471680D01*
X115381426Y-107579853D01*
X115658665Y-107635000D01*
X115941335Y-107635000D01*
X116218574Y-107579853D01*
X116479727Y-107471680D01*
X116714759Y-107314637D01*
X116914637Y-107114759D01*
X117071680Y-106879727D01*
X117179853Y-106618574D01*
X117235000Y-106341335D01*
X117235000Y-106058665D01*
X117179853Y-105781426D01*
X117071680Y-105520273D01*
X116914637Y-105285241D01*
X116714759Y-105085363D01*
X116479727Y-104928320D01*
X116218574Y-104820147D01*
X115941335Y-104765000D01*
X115658665Y-104765000D01*
X115381426Y-104820147D01*
X115120273Y-104928320D01*
X114885241Y-105085363D01*
X114685363Y-105285241D01*
X114528320Y-105520273D01*
X114420147Y-105781426D01*
X114365000Y-106058665D01*
X113760000Y-106058665D01*
X113760000Y-102858665D01*
X114365000Y-102858665D01*
X114365000Y-103141335D01*
X114420147Y-103418574D01*
X114528320Y-103679727D01*
X114685363Y-103914759D01*
X114885241Y-104114637D01*
X115120273Y-104271680D01*
X115381426Y-104379853D01*
X115658665Y-104435000D01*
X115941335Y-104435000D01*
X116218574Y-104379853D01*
X116479727Y-104271680D01*
X116714759Y-104114637D01*
X116914637Y-103914759D01*
X117071680Y-103679727D01*
X117179853Y-103418574D01*
X117235000Y-103141335D01*
X117235000Y-102898061D01*
X131865000Y-102898061D01*
X131865000Y-103101939D01*
X131904774Y-103301898D01*
X131982795Y-103490256D01*
X132096063Y-103659774D01*
X132240226Y-103803937D01*
X132409744Y-103917205D01*
X132598102Y-103995226D01*
X132798061Y-104035000D01*
X133001939Y-104035000D01*
X133201898Y-103995226D01*
X133390256Y-103917205D01*
X133559774Y-103803937D01*
X133703937Y-103659774D01*
X133817205Y-103490256D01*
X133895226Y-103301898D01*
X133935000Y-103101939D01*
X133935000Y-102898061D01*
X133895226Y-102698102D01*
X133817205Y-102509744D01*
X133703937Y-102340226D01*
X133559774Y-102196063D01*
X133390256Y-102082795D01*
X133201898Y-102004774D01*
X133001939Y-101965000D01*
X132798061Y-101965000D01*
X132598102Y-102004774D01*
X132409744Y-102082795D01*
X132240226Y-102196063D01*
X132096063Y-102340226D01*
X131982795Y-102509744D01*
X131904774Y-102698102D01*
X131865000Y-102898061D01*
X117235000Y-102898061D01*
X117235000Y-102858665D01*
X117179853Y-102581426D01*
X117071680Y-102320273D01*
X116914637Y-102085241D01*
X116714759Y-101885363D01*
X116479727Y-101728320D01*
X116218574Y-101620147D01*
X115941335Y-101565000D01*
X115658665Y-101565000D01*
X115381426Y-101620147D01*
X115120273Y-101728320D01*
X114885241Y-101885363D01*
X114685363Y-102085241D01*
X114528320Y-102320273D01*
X114420147Y-102581426D01*
X114365000Y-102858665D01*
X113760000Y-102858665D01*
X113760000Y-99608665D01*
X114365000Y-99608665D01*
X114365000Y-99891335D01*
X114420147Y-100168574D01*
X114528320Y-100429727D01*
X114685363Y-100664759D01*
X114885241Y-100864637D01*
X115120273Y-101021680D01*
X115381426Y-101129853D01*
X115658665Y-101185000D01*
X115941335Y-101185000D01*
X116218574Y-101129853D01*
X116479727Y-101021680D01*
X116714759Y-100864637D01*
X116914637Y-100664759D01*
X117071680Y-100429727D01*
X117179853Y-100168574D01*
X117235000Y-99891335D01*
X117235000Y-99608665D01*
X117179853Y-99331426D01*
X117071680Y-99070273D01*
X116914637Y-98835241D01*
X116714759Y-98635363D01*
X116479727Y-98478320D01*
X116218574Y-98370147D01*
X115941335Y-98315000D01*
X115658665Y-98315000D01*
X115381426Y-98370147D01*
X115120273Y-98478320D01*
X114885241Y-98635363D01*
X114685363Y-98835241D01*
X114528320Y-99070273D01*
X114420147Y-99331426D01*
X114365000Y-99608665D01*
X113760000Y-99608665D01*
X113760000Y-96408665D01*
X114325000Y-96408665D01*
X114325000Y-96691335D01*
X114380147Y-96968574D01*
X114488320Y-97229727D01*
X114645363Y-97464759D01*
X114845241Y-97664637D01*
X115080273Y-97821680D01*
X115341426Y-97929853D01*
X115618665Y-97985000D01*
X115901335Y-97985000D01*
X116178574Y-97929853D01*
X116439727Y-97821680D01*
X116674759Y-97664637D01*
X116874637Y-97464759D01*
X117031680Y-97229727D01*
X117139853Y-96968574D01*
X117195000Y-96691335D01*
X117195000Y-96408665D01*
X117139853Y-96131426D01*
X117031680Y-95870273D01*
X116874637Y-95635241D01*
X116674759Y-95435363D01*
X116439727Y-95278320D01*
X116178574Y-95170147D01*
X115901335Y-95115000D01*
X115618665Y-95115000D01*
X115341426Y-95170147D01*
X115080273Y-95278320D01*
X114845241Y-95435363D01*
X114645363Y-95635241D01*
X114488320Y-95870273D01*
X114380147Y-96131426D01*
X114325000Y-96408665D01*
X113760000Y-96408665D01*
X113760000Y-93314801D01*
X113866136Y-93208665D01*
X114365000Y-93208665D01*
X114365000Y-93491335D01*
X114420147Y-93768574D01*
X114528320Y-94029727D01*
X114685363Y-94264759D01*
X114885241Y-94464637D01*
X115120273Y-94621680D01*
X115381426Y-94729853D01*
X115658665Y-94785000D01*
X115941335Y-94785000D01*
X116218574Y-94729853D01*
X116479727Y-94621680D01*
X116714759Y-94464637D01*
X116914637Y-94264759D01*
X117071680Y-94029727D01*
X117179853Y-93768574D01*
X117235000Y-93491335D01*
X117235000Y-93208665D01*
X117179853Y-92931426D01*
X117071680Y-92670273D01*
X116914637Y-92435241D01*
X116714759Y-92235363D01*
X116479727Y-92078320D01*
X116218574Y-91970147D01*
X115941335Y-91915000D01*
X115658665Y-91915000D01*
X115381426Y-91970147D01*
X115120273Y-92078320D01*
X114885241Y-92235363D01*
X114685363Y-92435241D01*
X114528320Y-92670273D01*
X114420147Y-92931426D01*
X114365000Y-93208665D01*
X113866136Y-93208665D01*
X115476114Y-91598688D01*
X115658665Y-91635000D01*
X115941335Y-91635000D01*
X116218574Y-91579853D01*
X116479727Y-91471680D01*
X116714759Y-91314637D01*
X116914637Y-91114759D01*
X117071680Y-90879727D01*
X117179853Y-90618574D01*
X117235000Y-90341335D01*
X117235000Y-90058665D01*
X117179853Y-89781426D01*
X117079852Y-89540000D01*
X121658057Y-89540000D01*
X121685764Y-89821309D01*
X121767818Y-90091808D01*
X121901068Y-90341101D01*
X122080392Y-90559608D01*
X122298899Y-90738932D01*
X122431858Y-90810000D01*
X122298899Y-90881068D01*
X122080392Y-91060392D01*
X121901068Y-91278899D01*
X121767818Y-91528192D01*
X121685764Y-91798691D01*
X121658057Y-92080000D01*
X121685764Y-92361309D01*
X121767818Y-92631808D01*
X121901068Y-92881101D01*
X122080392Y-93099608D01*
X122298899Y-93278932D01*
X122431858Y-93350000D01*
X122298899Y-93421068D01*
X122080392Y-93600392D01*
X121901068Y-93818899D01*
X121767818Y-94068192D01*
X121685764Y-94338691D01*
X121658057Y-94620000D01*
X121685764Y-94901309D01*
X121767818Y-95171808D01*
X121901068Y-95421101D01*
X122080392Y-95639608D01*
X122298899Y-95818932D01*
X122548192Y-95952182D01*
X122818691Y-96034236D01*
X123029508Y-96055000D01*
X123970492Y-96055000D01*
X124181309Y-96034236D01*
X124451808Y-95952182D01*
X124701101Y-95818932D01*
X124919608Y-95639608D01*
X125098932Y-95421101D01*
X125232182Y-95171808D01*
X125314236Y-94901309D01*
X125341943Y-94620000D01*
X125314236Y-94338691D01*
X125232182Y-94068192D01*
X125098932Y-93818899D01*
X124919608Y-93600392D01*
X124701101Y-93421068D01*
X124568142Y-93350000D01*
X124701101Y-93278932D01*
X124919608Y-93099608D01*
X125098932Y-92881101D01*
X125232182Y-92631808D01*
X125314236Y-92361309D01*
X125341943Y-92080000D01*
X125314236Y-91798691D01*
X125232182Y-91528192D01*
X125098932Y-91278899D01*
X124919608Y-91060392D01*
X124701101Y-90881068D01*
X124568142Y-90810000D01*
X124701101Y-90738932D01*
X124919608Y-90559608D01*
X125098932Y-90341101D01*
X125232182Y-90091808D01*
X125314236Y-89821309D01*
X125341943Y-89540000D01*
X125314236Y-89258691D01*
X125232182Y-88988192D01*
X125098932Y-88738899D01*
X124919608Y-88520392D01*
X124806518Y-88427581D01*
X124824482Y-88425812D01*
X124944180Y-88389502D01*
X125054494Y-88330537D01*
X125151185Y-88251185D01*
X125230537Y-88154494D01*
X125289502Y-88044180D01*
X125325812Y-87924482D01*
X125338072Y-87800000D01*
X125338072Y-87000000D01*
X129278057Y-87000000D01*
X129305764Y-87281309D01*
X129387818Y-87551808D01*
X129521068Y-87801101D01*
X129700392Y-88019608D01*
X129918899Y-88198932D01*
X130051858Y-88270000D01*
X129918899Y-88341068D01*
X129700392Y-88520392D01*
X129521068Y-88738899D01*
X129387818Y-88988192D01*
X129305764Y-89258691D01*
X129278057Y-89540000D01*
X129305764Y-89821309D01*
X129387818Y-90091808D01*
X129521068Y-90341101D01*
X129700392Y-90559608D01*
X129918899Y-90738932D01*
X130051858Y-90810000D01*
X129918899Y-90881068D01*
X129700392Y-91060392D01*
X129521068Y-91278899D01*
X129387818Y-91528192D01*
X129305764Y-91798691D01*
X129278057Y-92080000D01*
X129305764Y-92361309D01*
X129387818Y-92631808D01*
X129521068Y-92881101D01*
X129700392Y-93099608D01*
X129918899Y-93278932D01*
X130051858Y-93350000D01*
X129918899Y-93421068D01*
X129700392Y-93600392D01*
X129521068Y-93818899D01*
X129387818Y-94068192D01*
X129305764Y-94338691D01*
X129278057Y-94620000D01*
X129305764Y-94901309D01*
X129387818Y-95171808D01*
X129521068Y-95421101D01*
X129700392Y-95639608D01*
X129918899Y-95818932D01*
X130168192Y-95952182D01*
X130438691Y-96034236D01*
X130649508Y-96055000D01*
X131590492Y-96055000D01*
X131801309Y-96034236D01*
X132071808Y-95952182D01*
X132321101Y-95818932D01*
X132539608Y-95639608D01*
X132718932Y-95421101D01*
X132852182Y-95171808D01*
X132934236Y-94901309D01*
X132961943Y-94620000D01*
X132934236Y-94338691D01*
X132852182Y-94068192D01*
X132718932Y-93818899D01*
X132539608Y-93600392D01*
X132321101Y-93421068D01*
X132188142Y-93350000D01*
X132321101Y-93278932D01*
X132539608Y-93099608D01*
X132718932Y-92881101D01*
X132852182Y-92631808D01*
X132934236Y-92361309D01*
X132961943Y-92080000D01*
X132934236Y-91798691D01*
X132852182Y-91528192D01*
X132718932Y-91278899D01*
X132539608Y-91060392D01*
X132321101Y-90881068D01*
X132188142Y-90810000D01*
X132321101Y-90738932D01*
X132539608Y-90559608D01*
X132718932Y-90341101D01*
X132852182Y-90091808D01*
X132934236Y-89821309D01*
X132961943Y-89540000D01*
X132934236Y-89258691D01*
X132852182Y-88988192D01*
X132718932Y-88738899D01*
X132539608Y-88520392D01*
X132321101Y-88341068D01*
X132188142Y-88270000D01*
X132321101Y-88198932D01*
X132539608Y-88019608D01*
X132718932Y-87801101D01*
X132852182Y-87551808D01*
X132934236Y-87281309D01*
X132961943Y-87000000D01*
X132934236Y-86718691D01*
X132852182Y-86448192D01*
X132718932Y-86198899D01*
X132539608Y-85980392D01*
X132321101Y-85801068D01*
X132071808Y-85667818D01*
X131801309Y-85585764D01*
X131590492Y-85565000D01*
X130649508Y-85565000D01*
X130438691Y-85585764D01*
X130168192Y-85667818D01*
X129918899Y-85801068D01*
X129700392Y-85980392D01*
X129521068Y-86198899D01*
X129387818Y-86448192D01*
X129305764Y-86718691D01*
X129278057Y-87000000D01*
X125338072Y-87000000D01*
X125338072Y-86200000D01*
X125325812Y-86075518D01*
X125289502Y-85955820D01*
X125230537Y-85845506D01*
X125151185Y-85748815D01*
X125054494Y-85669463D01*
X124944180Y-85610498D01*
X124824482Y-85574188D01*
X124700000Y-85561928D01*
X122300000Y-85561928D01*
X122175518Y-85574188D01*
X122055820Y-85610498D01*
X121945506Y-85669463D01*
X121848815Y-85748815D01*
X121769463Y-85845506D01*
X121710498Y-85955820D01*
X121674188Y-86075518D01*
X121661928Y-86200000D01*
X121661928Y-87800000D01*
X121674188Y-87924482D01*
X121710498Y-88044180D01*
X121769463Y-88154494D01*
X121848815Y-88251185D01*
X121945506Y-88330537D01*
X122055820Y-88389502D01*
X122175518Y-88425812D01*
X122193482Y-88427581D01*
X122080392Y-88520392D01*
X121901068Y-88738899D01*
X121767818Y-88988192D01*
X121685764Y-89258691D01*
X121658057Y-89540000D01*
X117079852Y-89540000D01*
X117071680Y-89520273D01*
X116914637Y-89285241D01*
X116714759Y-89085363D01*
X116479727Y-88928320D01*
X116218574Y-88820147D01*
X115941335Y-88765000D01*
X115658665Y-88765000D01*
X115381426Y-88820147D01*
X115120273Y-88928320D01*
X114885241Y-89085363D01*
X114685363Y-89285241D01*
X114528320Y-89520273D01*
X114420147Y-89781426D01*
X114365000Y-90058665D01*
X114365000Y-90341335D01*
X114401312Y-90523886D01*
X112560000Y-92365199D01*
X112560000Y-89997322D01*
X112563676Y-89959999D01*
X112560000Y-89922676D01*
X112560000Y-89922667D01*
X112549003Y-89811014D01*
X112505546Y-89667753D01*
X112434974Y-89535724D01*
X112340001Y-89419999D01*
X112311004Y-89396202D01*
X109773467Y-86858665D01*
X114365000Y-86858665D01*
X114365000Y-87141335D01*
X114420147Y-87418574D01*
X114528320Y-87679727D01*
X114685363Y-87914759D01*
X114885241Y-88114637D01*
X115120273Y-88271680D01*
X115381426Y-88379853D01*
X115658665Y-88435000D01*
X115941335Y-88435000D01*
X116218574Y-88379853D01*
X116479727Y-88271680D01*
X116714759Y-88114637D01*
X116914637Y-87914759D01*
X117071680Y-87679727D01*
X117179853Y-87418574D01*
X117235000Y-87141335D01*
X117235000Y-86858665D01*
X117179853Y-86581426D01*
X117071680Y-86320273D01*
X116914637Y-86085241D01*
X116714759Y-85885363D01*
X116479727Y-85728320D01*
X116218574Y-85620147D01*
X115941335Y-85565000D01*
X115658665Y-85565000D01*
X115381426Y-85620147D01*
X115120273Y-85728320D01*
X114885241Y-85885363D01*
X114685363Y-86085241D01*
X114528320Y-86320273D01*
X114420147Y-86581426D01*
X114365000Y-86858665D01*
X109773467Y-86858665D01*
X106988688Y-84073887D01*
X107025000Y-83891335D01*
X107025000Y-83608665D01*
X114315000Y-83608665D01*
X114315000Y-83891335D01*
X114370147Y-84168574D01*
X114478320Y-84429727D01*
X114635363Y-84664759D01*
X114835241Y-84864637D01*
X115070273Y-85021680D01*
X115331426Y-85129853D01*
X115608665Y-85185000D01*
X115891335Y-85185000D01*
X116168574Y-85129853D01*
X116429727Y-85021680D01*
X116611834Y-84900000D01*
X137511928Y-84900000D01*
X137511928Y-86600000D01*
X137524188Y-86724482D01*
X137560498Y-86844180D01*
X137619463Y-86954494D01*
X137698815Y-87051185D01*
X137795506Y-87130537D01*
X137905820Y-87189502D01*
X137978380Y-87211513D01*
X137846525Y-87343368D01*
X137684010Y-87586589D01*
X137572068Y-87856842D01*
X137515000Y-88143740D01*
X137515000Y-88436260D01*
X137572068Y-88723158D01*
X137684010Y-88993411D01*
X137846525Y-89236632D01*
X138053368Y-89443475D01*
X138227760Y-89560000D01*
X138053368Y-89676525D01*
X137846525Y-89883368D01*
X137684010Y-90126589D01*
X137572068Y-90396842D01*
X137515000Y-90683740D01*
X137515000Y-90976260D01*
X137572068Y-91263158D01*
X137684010Y-91533411D01*
X137846525Y-91776632D01*
X138053368Y-91983475D01*
X138227760Y-92100000D01*
X138053368Y-92216525D01*
X137846525Y-92423368D01*
X137684010Y-92666589D01*
X137572068Y-92936842D01*
X137515000Y-93223740D01*
X137515000Y-93516260D01*
X137572068Y-93803158D01*
X137684010Y-94073411D01*
X137846525Y-94316632D01*
X138053368Y-94523475D01*
X138227760Y-94640000D01*
X138053368Y-94756525D01*
X137846525Y-94963368D01*
X137684010Y-95206589D01*
X137572068Y-95476842D01*
X137515000Y-95763740D01*
X137515000Y-96056260D01*
X137572068Y-96343158D01*
X137684010Y-96613411D01*
X137846525Y-96856632D01*
X138053368Y-97063475D01*
X138296589Y-97225990D01*
X138566842Y-97337932D01*
X138853740Y-97395000D01*
X139146260Y-97395000D01*
X139433158Y-97337932D01*
X139703411Y-97225990D01*
X139946632Y-97063475D01*
X140153475Y-96856632D01*
X140270000Y-96682240D01*
X140386525Y-96856632D01*
X140593368Y-97063475D01*
X140836589Y-97225990D01*
X141106842Y-97337932D01*
X141393740Y-97395000D01*
X141686260Y-97395000D01*
X141973158Y-97337932D01*
X142243411Y-97225990D01*
X142486632Y-97063475D01*
X142693475Y-96856632D01*
X142855990Y-96613411D01*
X142967932Y-96343158D01*
X143025000Y-96056260D01*
X143025000Y-95763740D01*
X142967932Y-95476842D01*
X142855990Y-95206589D01*
X142693475Y-94963368D01*
X142486632Y-94756525D01*
X142312240Y-94640000D01*
X142486632Y-94523475D01*
X142693475Y-94316632D01*
X142855990Y-94073411D01*
X142967932Y-93803158D01*
X143025000Y-93516260D01*
X143025000Y-93223740D01*
X142967932Y-92936842D01*
X142855990Y-92666589D01*
X142693475Y-92423368D01*
X142486632Y-92216525D01*
X142312240Y-92100000D01*
X142486632Y-91983475D01*
X142693475Y-91776632D01*
X142855990Y-91533411D01*
X142967932Y-91263158D01*
X143025000Y-90976260D01*
X143025000Y-90683740D01*
X142967932Y-90396842D01*
X142855990Y-90126589D01*
X142693475Y-89883368D01*
X142486632Y-89676525D01*
X142312240Y-89560000D01*
X142486632Y-89443475D01*
X142693475Y-89236632D01*
X142855990Y-88993411D01*
X142967932Y-88723158D01*
X143025000Y-88436260D01*
X143025000Y-88143740D01*
X142967932Y-87856842D01*
X142855990Y-87586589D01*
X142693475Y-87343368D01*
X142486632Y-87136525D01*
X142312240Y-87020000D01*
X142486632Y-86903475D01*
X142693475Y-86696632D01*
X142855990Y-86453411D01*
X142967932Y-86183158D01*
X143025000Y-85896260D01*
X143025000Y-85603740D01*
X142967932Y-85316842D01*
X142855990Y-85046589D01*
X142693475Y-84803368D01*
X142486632Y-84596525D01*
X142243411Y-84434010D01*
X141973158Y-84322068D01*
X141686260Y-84265000D01*
X141393740Y-84265000D01*
X141106842Y-84322068D01*
X140836589Y-84434010D01*
X140593368Y-84596525D01*
X140461513Y-84728380D01*
X140439502Y-84655820D01*
X140380537Y-84545506D01*
X140301185Y-84448815D01*
X140204494Y-84369463D01*
X140094180Y-84310498D01*
X139974482Y-84274188D01*
X139850000Y-84261928D01*
X138150000Y-84261928D01*
X138025518Y-84274188D01*
X137905820Y-84310498D01*
X137795506Y-84369463D01*
X137698815Y-84448815D01*
X137619463Y-84545506D01*
X137560498Y-84655820D01*
X137524188Y-84775518D01*
X137511928Y-84900000D01*
X116611834Y-84900000D01*
X116664759Y-84864637D01*
X116864637Y-84664759D01*
X117021680Y-84429727D01*
X117129853Y-84168574D01*
X117185000Y-83891335D01*
X117185000Y-83608665D01*
X117129853Y-83331426D01*
X117021680Y-83070273D01*
X116864637Y-82835241D01*
X116664759Y-82635363D01*
X116429727Y-82478320D01*
X116168574Y-82370147D01*
X115891335Y-82315000D01*
X115608665Y-82315000D01*
X115331426Y-82370147D01*
X115070273Y-82478320D01*
X114835241Y-82635363D01*
X114635363Y-82835241D01*
X114478320Y-83070273D01*
X114370147Y-83331426D01*
X114315000Y-83608665D01*
X107025000Y-83608665D01*
X106969853Y-83331426D01*
X106861680Y-83070273D01*
X106704637Y-82835241D01*
X106504759Y-82635363D01*
X106269727Y-82478320D01*
X106008574Y-82370147D01*
X105731335Y-82315000D01*
X105448665Y-82315000D01*
X105171426Y-82370147D01*
X104910273Y-82478320D01*
X104675241Y-82635363D01*
X104475363Y-82835241D01*
X104318320Y-83070273D01*
X104210147Y-83331426D01*
X104155000Y-83608665D01*
X100127000Y-83608665D01*
X100127000Y-80358665D01*
X104155000Y-80358665D01*
X104155000Y-80641335D01*
X104210147Y-80918574D01*
X104318320Y-81179727D01*
X104475363Y-81414759D01*
X104675241Y-81614637D01*
X104910273Y-81771680D01*
X105171426Y-81879853D01*
X105448665Y-81935000D01*
X105731335Y-81935000D01*
X106008574Y-81879853D01*
X106269727Y-81771680D01*
X106504759Y-81614637D01*
X106704637Y-81414759D01*
X106861680Y-81179727D01*
X106969853Y-80918574D01*
X107025000Y-80641335D01*
X107025000Y-80358665D01*
X114315000Y-80358665D01*
X114315000Y-80641335D01*
X114370147Y-80918574D01*
X114478320Y-81179727D01*
X114635363Y-81414759D01*
X114835241Y-81614637D01*
X115070273Y-81771680D01*
X115331426Y-81879853D01*
X115608665Y-81935000D01*
X115891335Y-81935000D01*
X116168574Y-81879853D01*
X116429727Y-81771680D01*
X116664759Y-81614637D01*
X116864637Y-81414759D01*
X117021680Y-81179727D01*
X117129853Y-80918574D01*
X117185000Y-80641335D01*
X117185000Y-80358665D01*
X117129853Y-80081426D01*
X117021680Y-79820273D01*
X116864637Y-79585241D01*
X116664759Y-79385363D01*
X116429727Y-79228320D01*
X116168574Y-79120147D01*
X115891335Y-79065000D01*
X115608665Y-79065000D01*
X115331426Y-79120147D01*
X115070273Y-79228320D01*
X114835241Y-79385363D01*
X114635363Y-79585241D01*
X114478320Y-79820273D01*
X114370147Y-80081426D01*
X114315000Y-80358665D01*
X107025000Y-80358665D01*
X106969853Y-80081426D01*
X106861680Y-79820273D01*
X106704637Y-79585241D01*
X106504759Y-79385363D01*
X106269727Y-79228320D01*
X106008574Y-79120147D01*
X105731335Y-79065000D01*
X105448665Y-79065000D01*
X105171426Y-79120147D01*
X104910273Y-79228320D01*
X104675241Y-79385363D01*
X104475363Y-79585241D01*
X104318320Y-79820273D01*
X104210147Y-80081426D01*
X104155000Y-80358665D01*
X100127000Y-80358665D01*
X100127000Y-78127000D01*
X146873000Y-78127000D01*
X146873000Y-134873000D01*
%TA.AperFunction,NonConductor*%
D26*
G36*
X146873000Y-134873000D02*
G01*
X100127000Y-134873000D01*
X100127000Y-128982565D01*
X105550000Y-128982565D01*
X105550000Y-129317435D01*
X105615330Y-129645872D01*
X105743479Y-129955252D01*
X105929523Y-130233687D01*
X106166313Y-130470477D01*
X106444748Y-130656521D01*
X106542299Y-130696928D01*
X106285000Y-130696928D01*
X106160518Y-130709188D01*
X106040820Y-130745498D01*
X105930506Y-130804463D01*
X105833815Y-130883815D01*
X105754463Y-130980506D01*
X105695498Y-131090820D01*
X105659188Y-131210518D01*
X105646928Y-131335000D01*
X105646928Y-133165000D01*
X105659188Y-133289482D01*
X105695498Y-133409180D01*
X105754463Y-133519494D01*
X105833815Y-133616185D01*
X105930506Y-133695537D01*
X106040820Y-133754502D01*
X106160518Y-133790812D01*
X106285000Y-133803072D01*
X108215000Y-133803072D01*
X108339482Y-133790812D01*
X108459180Y-133754502D01*
X108569494Y-133695537D01*
X108666185Y-133616185D01*
X108745537Y-133519494D01*
X108804502Y-133409180D01*
X108840812Y-133289482D01*
X108853072Y-133165000D01*
X108853072Y-131335000D01*
X108840812Y-131210518D01*
X108804502Y-131090820D01*
X108745537Y-130980506D01*
X108666185Y-130883815D01*
X108569494Y-130804463D01*
X108459180Y-130745498D01*
X108339482Y-130709188D01*
X108215000Y-130696928D01*
X107957701Y-130696928D01*
X108055252Y-130656521D01*
X108333687Y-130470477D01*
X108570477Y-130233687D01*
X108756521Y-129955252D01*
X108884670Y-129645872D01*
X108950000Y-129317435D01*
X108950000Y-129132565D01*
X117800000Y-129132565D01*
X117800000Y-129467435D01*
X117865330Y-129795872D01*
X117993479Y-130105252D01*
X118179523Y-130383687D01*
X118416313Y-130620477D01*
X118694748Y-130806521D01*
X118792299Y-130846928D01*
X118535000Y-130846928D01*
X118410518Y-130859188D01*
X118290820Y-130895498D01*
X118180506Y-130954463D01*
X118083815Y-131033815D01*
X118004463Y-131130506D01*
X117945498Y-131240820D01*
X117909188Y-131360518D01*
X117896928Y-131485000D01*
X117896928Y-133315000D01*
X117909188Y-133439482D01*
X117945498Y-133559180D01*
X118004463Y-133669494D01*
X118083815Y-133766185D01*
X118180506Y-133845537D01*
X118290820Y-133904502D01*
X118410518Y-133940812D01*
X118535000Y-133953072D01*
X120465000Y-133953072D01*
X120589482Y-133940812D01*
X120709180Y-133904502D01*
X120819494Y-133845537D01*
X120916185Y-133766185D01*
X120995537Y-133669494D01*
X121054502Y-133559180D01*
X121090812Y-133439482D01*
X121103072Y-133315000D01*
X121103072Y-132598816D01*
X129465000Y-132598816D01*
X129465000Y-132901184D01*
X129523989Y-133197743D01*
X129639701Y-133477095D01*
X129807688Y-133728505D01*
X130021495Y-133942312D01*
X130272905Y-134110299D01*
X130552257Y-134226011D01*
X130848816Y-134285000D01*
X131151184Y-134285000D01*
X131447743Y-134226011D01*
X131727095Y-134110299D01*
X131978505Y-133942312D01*
X132192312Y-133728505D01*
X132250000Y-133642169D01*
X132307688Y-133728505D01*
X132521495Y-133942312D01*
X132772905Y-134110299D01*
X133052257Y-134226011D01*
X133348816Y-134285000D01*
X133651184Y-134285000D01*
X133947743Y-134226011D01*
X134227095Y-134110299D01*
X134478505Y-133942312D01*
X134692312Y-133728505D01*
X134750000Y-133642169D01*
X134807688Y-133728505D01*
X135021495Y-133942312D01*
X135272905Y-134110299D01*
X135552257Y-134226011D01*
X135848816Y-134285000D01*
X136151184Y-134285000D01*
X136447743Y-134226011D01*
X136727095Y-134110299D01*
X136978505Y-133942312D01*
X137192312Y-133728505D01*
X137360299Y-133477095D01*
X137476011Y-133197743D01*
X137535000Y-132901184D01*
X137535000Y-132598816D01*
X137476011Y-132302257D01*
X137360299Y-132022905D01*
X137192312Y-131771495D01*
X136978505Y-131557688D01*
X136727095Y-131389701D01*
X136447743Y-131273989D01*
X136151184Y-131215000D01*
X135848816Y-131215000D01*
X135552257Y-131273989D01*
X135272905Y-131389701D01*
X135021495Y-131557688D01*
X134807688Y-131771495D01*
X134750000Y-131857831D01*
X134692312Y-131771495D01*
X134478505Y-131557688D01*
X134227095Y-131389701D01*
X133947743Y-131273989D01*
X133651184Y-131215000D01*
X133348816Y-131215000D01*
X133052257Y-131273989D01*
X132772905Y-131389701D01*
X132521495Y-131557688D01*
X132307688Y-131771495D01*
X132250000Y-131857831D01*
X132192312Y-131771495D01*
X131978505Y-131557688D01*
X131727095Y-131389701D01*
X131447743Y-131273989D01*
X131151184Y-131215000D01*
X130848816Y-131215000D01*
X130552257Y-131273989D01*
X130272905Y-131389701D01*
X130021495Y-131557688D01*
X129807688Y-131771495D01*
X129639701Y-132022905D01*
X129523989Y-132302257D01*
X129465000Y-132598816D01*
X121103072Y-132598816D01*
X121103072Y-131485000D01*
X121090812Y-131360518D01*
X121054502Y-131240820D01*
X120995537Y-131130506D01*
X120916185Y-131033815D01*
X120819494Y-130954463D01*
X120709180Y-130895498D01*
X120589482Y-130859188D01*
X120465000Y-130846928D01*
X120207701Y-130846928D01*
X120305252Y-130806521D01*
X120583687Y-130620477D01*
X120820477Y-130383687D01*
X121006521Y-130105252D01*
X121134670Y-129795872D01*
X121200000Y-129467435D01*
X121200000Y-129132565D01*
X121134670Y-128804128D01*
X121006521Y-128494748D01*
X120820477Y-128216313D01*
X120583687Y-127979523D01*
X120305252Y-127793479D01*
X119995872Y-127665330D01*
X119667435Y-127600000D01*
X119332565Y-127600000D01*
X119004128Y-127665330D01*
X118694748Y-127793479D01*
X118416313Y-127979523D01*
X118179523Y-128216313D01*
X117993479Y-128494748D01*
X117865330Y-128804128D01*
X117800000Y-129132565D01*
X108950000Y-129132565D01*
X108950000Y-128982565D01*
X108884670Y-128654128D01*
X108756521Y-128344748D01*
X108570477Y-128066313D01*
X108333687Y-127829523D01*
X108055252Y-127643479D01*
X107745872Y-127515330D01*
X107417435Y-127450000D01*
X107082565Y-127450000D01*
X106754128Y-127515330D01*
X106444748Y-127643479D01*
X106166313Y-127829523D01*
X105929523Y-128066313D01*
X105743479Y-128344748D01*
X105615330Y-128654128D01*
X105550000Y-128982565D01*
X100127000Y-128982565D01*
X100127000Y-125490475D01*
X126465000Y-125490475D01*
X126465000Y-126009525D01*
X126566261Y-126518601D01*
X126764893Y-126998141D01*
X127053262Y-127429715D01*
X127420285Y-127796738D01*
X127851859Y-128085107D01*
X128331399Y-128283739D01*
X128840475Y-128385000D01*
X129359525Y-128385000D01*
X129868601Y-128283739D01*
X130348141Y-128085107D01*
X130779715Y-127796738D01*
X131146738Y-127429715D01*
X131435107Y-126998141D01*
X131633739Y-126518601D01*
X131735000Y-126009525D01*
X131735000Y-125490475D01*
X135265000Y-125490475D01*
X135265000Y-126009525D01*
X135366261Y-126518601D01*
X135564893Y-126998141D01*
X135853262Y-127429715D01*
X136220285Y-127796738D01*
X136651859Y-128085107D01*
X137131399Y-128283739D01*
X137640475Y-128385000D01*
X138159525Y-128385000D01*
X138668601Y-128283739D01*
X139148141Y-128085107D01*
X139579715Y-127796738D01*
X139946738Y-127429715D01*
X140235107Y-126998141D01*
X140433739Y-126518601D01*
X140535000Y-126009525D01*
X140535000Y-125490475D01*
X140433739Y-124981399D01*
X140235107Y-124501859D01*
X139946738Y-124070285D01*
X139579715Y-123703262D01*
X139148141Y-123414893D01*
X138668601Y-123216261D01*
X138159525Y-123115000D01*
X137640475Y-123115000D01*
X137131399Y-123216261D01*
X136651859Y-123414893D01*
X136220285Y-123703262D01*
X135853262Y-124070285D01*
X135564893Y-124501859D01*
X135366261Y-124981399D01*
X135265000Y-125490475D01*
X131735000Y-125490475D01*
X131633739Y-124981399D01*
X131435107Y-124501859D01*
X131146738Y-124070285D01*
X130779715Y-123703262D01*
X130348141Y-123414893D01*
X129868601Y-123216261D01*
X129359525Y-123115000D01*
X128840475Y-123115000D01*
X128331399Y-123216261D01*
X127851859Y-123414893D01*
X127420285Y-123703262D01*
X127053262Y-124070285D01*
X126764893Y-124501859D01*
X126566261Y-124981399D01*
X126465000Y-125490475D01*
X100127000Y-125490475D01*
X100127000Y-120682565D01*
X105550000Y-120682565D01*
X105550000Y-121017435D01*
X105615330Y-121345872D01*
X105743479Y-121655252D01*
X105929523Y-121933687D01*
X106166313Y-122170477D01*
X106444748Y-122356521D01*
X106754128Y-122484670D01*
X107082565Y-122550000D01*
X107417435Y-122550000D01*
X107745872Y-122484670D01*
X108055252Y-122356521D01*
X108333687Y-122170477D01*
X108570477Y-121933687D01*
X108756521Y-121655252D01*
X108884670Y-121345872D01*
X108950000Y-121017435D01*
X108950000Y-120832565D01*
X117800000Y-120832565D01*
X117800000Y-121167435D01*
X117865330Y-121495872D01*
X117993479Y-121805252D01*
X118179523Y-122083687D01*
X118416313Y-122320477D01*
X118694748Y-122506521D01*
X119004128Y-122634670D01*
X119332565Y-122700000D01*
X119667435Y-122700000D01*
X119995872Y-122634670D01*
X120305252Y-122506521D01*
X120583687Y-122320477D01*
X120820477Y-122083687D01*
X121006521Y-121805252D01*
X121134670Y-121495872D01*
X121200000Y-121167435D01*
X121200000Y-120832565D01*
X121134670Y-120504128D01*
X121006521Y-120194748D01*
X120820477Y-119916313D01*
X120583687Y-119679523D01*
X120305252Y-119493479D01*
X119995872Y-119365330D01*
X119667435Y-119300000D01*
X119332565Y-119300000D01*
X119004128Y-119365330D01*
X118694748Y-119493479D01*
X118416313Y-119679523D01*
X118179523Y-119916313D01*
X117993479Y-120194748D01*
X117865330Y-120504128D01*
X117800000Y-120832565D01*
X108950000Y-120832565D01*
X108950000Y-120682565D01*
X108884670Y-120354128D01*
X108756521Y-120044748D01*
X108570477Y-119766313D01*
X108333687Y-119529523D01*
X108055252Y-119343479D01*
X107745872Y-119215330D01*
X107417435Y-119150000D01*
X107082565Y-119150000D01*
X106754128Y-119215330D01*
X106444748Y-119343479D01*
X106166313Y-119529523D01*
X105929523Y-119766313D01*
X105743479Y-120044748D01*
X105615330Y-120354128D01*
X105550000Y-120682565D01*
X100127000Y-120682565D01*
X100127000Y-115858665D01*
X104155000Y-115858665D01*
X104155000Y-116141335D01*
X104210147Y-116418574D01*
X104318320Y-116679727D01*
X104475363Y-116914759D01*
X104675241Y-117114637D01*
X104910273Y-117271680D01*
X105171426Y-117379853D01*
X105448665Y-117435000D01*
X105731335Y-117435000D01*
X106008574Y-117379853D01*
X106269727Y-117271680D01*
X106504759Y-117114637D01*
X106704637Y-116914759D01*
X106861680Y-116679727D01*
X106969853Y-116418574D01*
X107025000Y-116141335D01*
X107025000Y-115858665D01*
X114315000Y-115858665D01*
X114315000Y-116141335D01*
X114370147Y-116418574D01*
X114478320Y-116679727D01*
X114635363Y-116914759D01*
X114835241Y-117114637D01*
X115070273Y-117271680D01*
X115331426Y-117379853D01*
X115608665Y-117435000D01*
X115891335Y-117435000D01*
X116168574Y-117379853D01*
X116429727Y-117271680D01*
X116664759Y-117114637D01*
X116864637Y-116914759D01*
X117021680Y-116679727D01*
X117129853Y-116418574D01*
X117185000Y-116141335D01*
X117185000Y-115858665D01*
X117129853Y-115581426D01*
X117021680Y-115320273D01*
X116864637Y-115085241D01*
X116664759Y-114885363D01*
X116429727Y-114728320D01*
X116168574Y-114620147D01*
X115891335Y-114565000D01*
X115608665Y-114565000D01*
X115331426Y-114620147D01*
X115070273Y-114728320D01*
X114835241Y-114885363D01*
X114635363Y-115085241D01*
X114478320Y-115320273D01*
X114370147Y-115581426D01*
X114315000Y-115858665D01*
X107025000Y-115858665D01*
X106969853Y-115581426D01*
X106861680Y-115320273D01*
X106704637Y-115085241D01*
X106504759Y-114885363D01*
X106269727Y-114728320D01*
X106008574Y-114620147D01*
X105731335Y-114565000D01*
X105448665Y-114565000D01*
X105171426Y-114620147D01*
X104910273Y-114728320D01*
X104675241Y-114885363D01*
X104475363Y-115085241D01*
X104318320Y-115320273D01*
X104210147Y-115581426D01*
X104155000Y-115858665D01*
X100127000Y-115858665D01*
X100127000Y-102858665D01*
X104205000Y-102858665D01*
X104205000Y-103141335D01*
X104260147Y-103418574D01*
X104368320Y-103679727D01*
X104525363Y-103914759D01*
X104725241Y-104114637D01*
X104960273Y-104271680D01*
X105221426Y-104379853D01*
X105498665Y-104435000D01*
X105781335Y-104435000D01*
X106058574Y-104379853D01*
X106319727Y-104271680D01*
X106554759Y-104114637D01*
X106754637Y-103914759D01*
X106911680Y-103679727D01*
X107019853Y-103418574D01*
X107075000Y-103141335D01*
X107075000Y-102858665D01*
X107019853Y-102581426D01*
X106911680Y-102320273D01*
X106754637Y-102085241D01*
X106554759Y-101885363D01*
X106319727Y-101728320D01*
X106058574Y-101620147D01*
X105781335Y-101565000D01*
X105498665Y-101565000D01*
X105221426Y-101620147D01*
X104960273Y-101728320D01*
X104725241Y-101885363D01*
X104525363Y-102085241D01*
X104368320Y-102320273D01*
X104260147Y-102581426D01*
X104205000Y-102858665D01*
X100127000Y-102858665D01*
X100127000Y-88250000D01*
X101910960Y-88250000D01*
X101915001Y-88291029D01*
X101915000Y-96818981D01*
X101910960Y-96860000D01*
X101915000Y-96901018D01*
X101927082Y-97023688D01*
X101974828Y-97181086D01*
X102052364Y-97326145D01*
X102156709Y-97453291D01*
X102188579Y-97479446D01*
X104223714Y-99514582D01*
X104205000Y-99608665D01*
X104205000Y-99891335D01*
X104260147Y-100168574D01*
X104368320Y-100429727D01*
X104525363Y-100664759D01*
X104725241Y-100864637D01*
X104960273Y-101021680D01*
X105221426Y-101129853D01*
X105498665Y-101185000D01*
X105781335Y-101185000D01*
X106058574Y-101129853D01*
X106319727Y-101021680D01*
X106554759Y-100864637D01*
X106754637Y-100664759D01*
X106911680Y-100429727D01*
X107019853Y-100168574D01*
X107075000Y-99891335D01*
X107075000Y-99608665D01*
X107019853Y-99331426D01*
X106911680Y-99070273D01*
X106754637Y-98835241D01*
X106554759Y-98635363D01*
X106319727Y-98478320D01*
X106058574Y-98370147D01*
X105781335Y-98315000D01*
X105498665Y-98315000D01*
X105404582Y-98333714D01*
X104836718Y-97765850D01*
X104920273Y-97821680D01*
X105181426Y-97929853D01*
X105458665Y-97985000D01*
X105741335Y-97985000D01*
X105923886Y-97948688D01*
X107640000Y-99664802D01*
X107640001Y-103125196D01*
X105963886Y-104801312D01*
X105781335Y-104765000D01*
X105498665Y-104765000D01*
X105221426Y-104820147D01*
X104960273Y-104928320D01*
X104725241Y-105085363D01*
X104525363Y-105285241D01*
X104368320Y-105520273D01*
X104260147Y-105781426D01*
X104205000Y-106058665D01*
X104205000Y-106341335D01*
X104260147Y-106618574D01*
X104368320Y-106879727D01*
X104525363Y-107114759D01*
X104725241Y-107314637D01*
X104960273Y-107471680D01*
X105221426Y-107579853D01*
X105498665Y-107635000D01*
X105781335Y-107635000D01*
X106058574Y-107579853D01*
X106319727Y-107471680D01*
X106554759Y-107314637D01*
X106754637Y-107114759D01*
X106911680Y-106879727D01*
X107019853Y-106618574D01*
X107075000Y-106341335D01*
X107075000Y-106058665D01*
X107038688Y-105876114D01*
X108911008Y-104003795D01*
X108940001Y-103980001D01*
X108963795Y-103951008D01*
X108963799Y-103951004D01*
X109034973Y-103864277D01*
X109067226Y-103803937D01*
X109105546Y-103732247D01*
X109149003Y-103588986D01*
X109160000Y-103477333D01*
X109160000Y-103477324D01*
X109163676Y-103440001D01*
X109160000Y-103402678D01*
X109160000Y-99387323D01*
X109163676Y-99350000D01*
X109160000Y-99312677D01*
X109160000Y-99312667D01*
X109149003Y-99201014D01*
X109105546Y-99057753D01*
X109034975Y-98925725D01*
X109034974Y-98925723D01*
X108963799Y-98838997D01*
X108940001Y-98809999D01*
X108911004Y-98786202D01*
X106998688Y-96873886D01*
X107035000Y-96691335D01*
X107035000Y-96408665D01*
X106979853Y-96131426D01*
X106871680Y-95870273D01*
X106714637Y-95635241D01*
X106514759Y-95435363D01*
X106279727Y-95278320D01*
X106018574Y-95170147D01*
X105741335Y-95115000D01*
X105458665Y-95115000D01*
X105181426Y-95170147D01*
X104920273Y-95278320D01*
X104685241Y-95435363D01*
X104485363Y-95635241D01*
X104328320Y-95870273D01*
X104220147Y-96131426D01*
X104165000Y-96408665D01*
X104165000Y-96691335D01*
X104220147Y-96968574D01*
X104328320Y-97229727D01*
X104384150Y-97313283D01*
X103585000Y-96514133D01*
X103585000Y-93208665D01*
X104205000Y-93208665D01*
X104205000Y-93491335D01*
X104260147Y-93768574D01*
X104368320Y-94029727D01*
X104525363Y-94264759D01*
X104725241Y-94464637D01*
X104960273Y-94621680D01*
X105221426Y-94729853D01*
X105498665Y-94785000D01*
X105781335Y-94785000D01*
X106058574Y-94729853D01*
X106319727Y-94621680D01*
X106554759Y-94464637D01*
X106754637Y-94264759D01*
X106911680Y-94029727D01*
X107019853Y-93768574D01*
X107075000Y-93491335D01*
X107075000Y-93208665D01*
X107019853Y-92931426D01*
X106911680Y-92670273D01*
X106754637Y-92435241D01*
X106554759Y-92235363D01*
X106319727Y-92078320D01*
X106058574Y-91970147D01*
X105781335Y-91915000D01*
X105498665Y-91915000D01*
X105221426Y-91970147D01*
X104960273Y-92078320D01*
X104725241Y-92235363D01*
X104525363Y-92435241D01*
X104368320Y-92670273D01*
X104260147Y-92931426D01*
X104205000Y-93208665D01*
X103585000Y-93208665D01*
X103585000Y-90058665D01*
X104205000Y-90058665D01*
X104205000Y-90341335D01*
X104260147Y-90618574D01*
X104368320Y-90879727D01*
X104525363Y-91114759D01*
X104725241Y-91314637D01*
X104960273Y-91471680D01*
X105221426Y-91579853D01*
X105498665Y-91635000D01*
X105781335Y-91635000D01*
X106058574Y-91579853D01*
X106319727Y-91471680D01*
X106554759Y-91314637D01*
X106754637Y-91114759D01*
X106911680Y-90879727D01*
X107019853Y-90618574D01*
X107075000Y-90341335D01*
X107075000Y-90058665D01*
X107019853Y-89781426D01*
X106911680Y-89520273D01*
X106754637Y-89285241D01*
X106554759Y-89085363D01*
X106319727Y-88928320D01*
X106058574Y-88820147D01*
X105781335Y-88765000D01*
X105498665Y-88765000D01*
X105221426Y-88820147D01*
X104960273Y-88928320D01*
X104725241Y-89085363D01*
X104525363Y-89285241D01*
X104368320Y-89520273D01*
X104260147Y-89781426D01*
X104205000Y-90058665D01*
X103585000Y-90058665D01*
X103585000Y-88595867D01*
X104345869Y-87835000D01*
X104472070Y-87835000D01*
X104525363Y-87914759D01*
X104725241Y-88114637D01*
X104960273Y-88271680D01*
X105221426Y-88379853D01*
X105498665Y-88435000D01*
X105781335Y-88435000D01*
X106058574Y-88379853D01*
X106319727Y-88271680D01*
X106554759Y-88114637D01*
X106754637Y-87914759D01*
X106911680Y-87679727D01*
X107019853Y-87418574D01*
X107075000Y-87141335D01*
X107075000Y-86858665D01*
X107019853Y-86581426D01*
X106911680Y-86320273D01*
X106754637Y-86085241D01*
X106554759Y-85885363D01*
X106319727Y-85728320D01*
X106058574Y-85620147D01*
X105781335Y-85565000D01*
X105498665Y-85565000D01*
X105221426Y-85620147D01*
X104960273Y-85728320D01*
X104725241Y-85885363D01*
X104525363Y-86085241D01*
X104472070Y-86165000D01*
X104041018Y-86165000D01*
X104000000Y-86160960D01*
X103958981Y-86165000D01*
X103836311Y-86177082D01*
X103678913Y-86224828D01*
X103533854Y-86302364D01*
X103406709Y-86406709D01*
X103380563Y-86438568D01*
X102188574Y-87630559D01*
X102156710Y-87656709D01*
X102075907Y-87755168D01*
X102052364Y-87783855D01*
X101974828Y-87928914D01*
X101927082Y-88086312D01*
X101910960Y-88250000D01*
X100127000Y-88250000D01*
X100127000Y-83608665D01*
X104155000Y-83608665D01*
X104155000Y-83891335D01*
X104210147Y-84168574D01*
X104318320Y-84429727D01*
X104475363Y-84664759D01*
X104675241Y-84864637D01*
X104910273Y-85021680D01*
X105171426Y-85129853D01*
X105448665Y-85185000D01*
X105731335Y-85185000D01*
X105913887Y-85148688D01*
X111040000Y-90274802D01*
X111040001Y-105885196D01*
X108285199Y-108640000D01*
X106858043Y-108640000D01*
X106754637Y-108485241D01*
X106554759Y-108285363D01*
X106319727Y-108128320D01*
X106058574Y-108020147D01*
X105781335Y-107965000D01*
X105498665Y-107965000D01*
X105221426Y-108020147D01*
X104960273Y-108128320D01*
X104725241Y-108285363D01*
X104525363Y-108485241D01*
X104368320Y-108720273D01*
X104260147Y-108981426D01*
X104205000Y-109258665D01*
X104205000Y-109541335D01*
X104260147Y-109818574D01*
X104368320Y-110079727D01*
X104525363Y-110314759D01*
X104725241Y-110514637D01*
X104960273Y-110671680D01*
X105221426Y-110779853D01*
X105498665Y-110835000D01*
X105781335Y-110835000D01*
X106058574Y-110779853D01*
X106319727Y-110671680D01*
X106554759Y-110514637D01*
X106754637Y-110314759D01*
X106858043Y-110160000D01*
X108562678Y-110160000D01*
X108600000Y-110163676D01*
X108637322Y-110160000D01*
X108637333Y-110160000D01*
X108748986Y-110149003D01*
X108892247Y-110105546D01*
X109024276Y-110034974D01*
X109140001Y-109940001D01*
X109163804Y-109910997D01*
X112240000Y-106834803D01*
X112240000Y-111385198D01*
X111685199Y-111940000D01*
X106858043Y-111940000D01*
X106754637Y-111785241D01*
X106554759Y-111585363D01*
X106319727Y-111428320D01*
X106058574Y-111320147D01*
X105781335Y-111265000D01*
X105498665Y-111265000D01*
X105221426Y-111320147D01*
X104960273Y-111428320D01*
X104725241Y-111585363D01*
X104525363Y-111785241D01*
X104368320Y-112020273D01*
X104260147Y-112281426D01*
X104205000Y-112558665D01*
X104205000Y-112841335D01*
X104260147Y-113118574D01*
X104368320Y-113379727D01*
X104525363Y-113614759D01*
X104725241Y-113814637D01*
X104960273Y-113971680D01*
X105221426Y-114079853D01*
X105498665Y-114135000D01*
X105781335Y-114135000D01*
X106058574Y-114079853D01*
X106319727Y-113971680D01*
X106554759Y-113814637D01*
X106754637Y-113614759D01*
X106858043Y-113460000D01*
X111962678Y-113460000D01*
X112000000Y-113463676D01*
X112037322Y-113460000D01*
X112037333Y-113460000D01*
X112148986Y-113449003D01*
X112292247Y-113405546D01*
X112424276Y-113334974D01*
X112540001Y-113240001D01*
X112563804Y-113210998D01*
X113216137Y-112558665D01*
X114365000Y-112558665D01*
X114365000Y-112841335D01*
X114420147Y-113118574D01*
X114528320Y-113379727D01*
X114685363Y-113614759D01*
X114885241Y-113814637D01*
X115120273Y-113971680D01*
X115381426Y-114079853D01*
X115658665Y-114135000D01*
X115941335Y-114135000D01*
X116218574Y-114079853D01*
X116479727Y-113971680D01*
X116714759Y-113814637D01*
X116914637Y-113614759D01*
X117071680Y-113379727D01*
X117179853Y-113118574D01*
X117235000Y-112841335D01*
X117235000Y-112558665D01*
X117179853Y-112281426D01*
X117071680Y-112020273D01*
X116914637Y-111785241D01*
X116714759Y-111585363D01*
X116479727Y-111428320D01*
X116218574Y-111320147D01*
X115941335Y-111265000D01*
X115658665Y-111265000D01*
X115381426Y-111320147D01*
X115120273Y-111428320D01*
X114885241Y-111585363D01*
X114685363Y-111785241D01*
X114528320Y-112020273D01*
X114420147Y-112281426D01*
X114365000Y-112558665D01*
X113216137Y-112558665D01*
X113511004Y-112263798D01*
X113540001Y-112240001D01*
X113634974Y-112124276D01*
X113705546Y-111992247D01*
X113749003Y-111848986D01*
X113760000Y-111737333D01*
X113760000Y-111737332D01*
X113763677Y-111700000D01*
X113760000Y-111662667D01*
X113760000Y-109258665D01*
X114365000Y-109258665D01*
X114365000Y-109541335D01*
X114420147Y-109818574D01*
X114528320Y-110079727D01*
X114685363Y-110314759D01*
X114885241Y-110514637D01*
X115120273Y-110671680D01*
X115381426Y-110779853D01*
X115658665Y-110835000D01*
X115941335Y-110835000D01*
X116218574Y-110779853D01*
X116479727Y-110671680D01*
X116714759Y-110514637D01*
X116914637Y-110314759D01*
X117071680Y-110079727D01*
X117179853Y-109818574D01*
X117235000Y-109541335D01*
X117235000Y-109258665D01*
X117183548Y-109000000D01*
X122361928Y-109000000D01*
X122361928Y-110500000D01*
X122374188Y-110624482D01*
X122410498Y-110744180D01*
X122469463Y-110854494D01*
X122548815Y-110951185D01*
X122645506Y-111030537D01*
X122755820Y-111089502D01*
X122875518Y-111125812D01*
X122983483Y-111136445D01*
X122867114Y-111214201D01*
X122674201Y-111407114D01*
X122522629Y-111633957D01*
X122418225Y-111886011D01*
X122365000Y-112153589D01*
X122365000Y-112426411D01*
X122418225Y-112693989D01*
X122522629Y-112946043D01*
X122674201Y-113172886D01*
X122867114Y-113365799D01*
X123093957Y-113517371D01*
X123196873Y-113560000D01*
X123093957Y-113602629D01*
X122867114Y-113754201D01*
X122674201Y-113947114D01*
X122522629Y-114173957D01*
X122418225Y-114426011D01*
X122365000Y-114693589D01*
X122365000Y-114966411D01*
X122418225Y-115233989D01*
X122522629Y-115486043D01*
X122674201Y-115712886D01*
X122867114Y-115905799D01*
X123093957Y-116057371D01*
X123346011Y-116161775D01*
X123613589Y-116215000D01*
X123886411Y-116215000D01*
X124153989Y-116161775D01*
X124406043Y-116057371D01*
X124632886Y-115905799D01*
X124825799Y-115712886D01*
X124977371Y-115486043D01*
X125081775Y-115233989D01*
X125135000Y-114966411D01*
X125135000Y-114693589D01*
X125081775Y-114426011D01*
X124977371Y-114173957D01*
X124825799Y-113947114D01*
X124632886Y-113754201D01*
X124406043Y-113602629D01*
X124303127Y-113560000D01*
X124406043Y-113517371D01*
X124632886Y-113365799D01*
X124825799Y-113172886D01*
X124977371Y-112946043D01*
X125081775Y-112693989D01*
X125135000Y-112426411D01*
X125135000Y-112153589D01*
X125081775Y-111886011D01*
X124977371Y-111633957D01*
X124825799Y-111407114D01*
X124632886Y-111214201D01*
X124516517Y-111136445D01*
X124624482Y-111125812D01*
X124744180Y-111089502D01*
X124854494Y-111030537D01*
X124951185Y-110951185D01*
X125030537Y-110854494D01*
X125089502Y-110744180D01*
X125125812Y-110624482D01*
X125138072Y-110500000D01*
X125138072Y-109000000D01*
X125125812Y-108875518D01*
X125089502Y-108755820D01*
X125030537Y-108645506D01*
X124951185Y-108548815D01*
X124854494Y-108469463D01*
X124744180Y-108410498D01*
X124624482Y-108374188D01*
X124500000Y-108361928D01*
X123000000Y-108361928D01*
X122875518Y-108374188D01*
X122755820Y-108410498D01*
X122645506Y-108469463D01*
X122548815Y-108548815D01*
X122469463Y-108645506D01*
X122410498Y-108755820D01*
X122374188Y-108875518D01*
X122361928Y-109000000D01*
X117183548Y-109000000D01*
X117179853Y-108981426D01*
X117071680Y-108720273D01*
X116914637Y-108485241D01*
X116714759Y-108285363D01*
X116479727Y-108128320D01*
X116218574Y-108020147D01*
X115941335Y-107965000D01*
X115658665Y-107965000D01*
X115381426Y-108020147D01*
X115120273Y-108128320D01*
X114885241Y-108285363D01*
X114685363Y-108485241D01*
X114528320Y-108720273D01*
X114420147Y-108981426D01*
X114365000Y-109258665D01*
X113760000Y-109258665D01*
X113760000Y-106058665D01*
X114365000Y-106058665D01*
X114365000Y-106341335D01*
X114420147Y-106618574D01*
X114528320Y-106879727D01*
X114685363Y-107114759D01*
X114885241Y-107314637D01*
X115120273Y-107471680D01*
X115381426Y-107579853D01*
X115658665Y-107635000D01*
X115941335Y-107635000D01*
X116218574Y-107579853D01*
X116479727Y-107471680D01*
X116714759Y-107314637D01*
X116914637Y-107114759D01*
X117071680Y-106879727D01*
X117179853Y-106618574D01*
X117235000Y-106341335D01*
X117235000Y-106058665D01*
X117179853Y-105781426D01*
X117071680Y-105520273D01*
X116914637Y-105285241D01*
X116714759Y-105085363D01*
X116479727Y-104928320D01*
X116218574Y-104820147D01*
X115941335Y-104765000D01*
X115658665Y-104765000D01*
X115381426Y-104820147D01*
X115120273Y-104928320D01*
X114885241Y-105085363D01*
X114685363Y-105285241D01*
X114528320Y-105520273D01*
X114420147Y-105781426D01*
X114365000Y-106058665D01*
X113760000Y-106058665D01*
X113760000Y-102858665D01*
X114365000Y-102858665D01*
X114365000Y-103141335D01*
X114420147Y-103418574D01*
X114528320Y-103679727D01*
X114685363Y-103914759D01*
X114885241Y-104114637D01*
X115120273Y-104271680D01*
X115381426Y-104379853D01*
X115658665Y-104435000D01*
X115941335Y-104435000D01*
X116218574Y-104379853D01*
X116479727Y-104271680D01*
X116714759Y-104114637D01*
X116914637Y-103914759D01*
X117071680Y-103679727D01*
X117179853Y-103418574D01*
X117235000Y-103141335D01*
X117235000Y-102898061D01*
X131865000Y-102898061D01*
X131865000Y-103101939D01*
X131904774Y-103301898D01*
X131982795Y-103490256D01*
X132096063Y-103659774D01*
X132240226Y-103803937D01*
X132409744Y-103917205D01*
X132598102Y-103995226D01*
X132798061Y-104035000D01*
X133001939Y-104035000D01*
X133201898Y-103995226D01*
X133390256Y-103917205D01*
X133559774Y-103803937D01*
X133703937Y-103659774D01*
X133817205Y-103490256D01*
X133895226Y-103301898D01*
X133935000Y-103101939D01*
X133935000Y-102898061D01*
X133895226Y-102698102D01*
X133817205Y-102509744D01*
X133703937Y-102340226D01*
X133559774Y-102196063D01*
X133390256Y-102082795D01*
X133201898Y-102004774D01*
X133001939Y-101965000D01*
X132798061Y-101965000D01*
X132598102Y-102004774D01*
X132409744Y-102082795D01*
X132240226Y-102196063D01*
X132096063Y-102340226D01*
X131982795Y-102509744D01*
X131904774Y-102698102D01*
X131865000Y-102898061D01*
X117235000Y-102898061D01*
X117235000Y-102858665D01*
X117179853Y-102581426D01*
X117071680Y-102320273D01*
X116914637Y-102085241D01*
X116714759Y-101885363D01*
X116479727Y-101728320D01*
X116218574Y-101620147D01*
X115941335Y-101565000D01*
X115658665Y-101565000D01*
X115381426Y-101620147D01*
X115120273Y-101728320D01*
X114885241Y-101885363D01*
X114685363Y-102085241D01*
X114528320Y-102320273D01*
X114420147Y-102581426D01*
X114365000Y-102858665D01*
X113760000Y-102858665D01*
X113760000Y-99608665D01*
X114365000Y-99608665D01*
X114365000Y-99891335D01*
X114420147Y-100168574D01*
X114528320Y-100429727D01*
X114685363Y-100664759D01*
X114885241Y-100864637D01*
X115120273Y-101021680D01*
X115381426Y-101129853D01*
X115658665Y-101185000D01*
X115941335Y-101185000D01*
X116218574Y-101129853D01*
X116479727Y-101021680D01*
X116714759Y-100864637D01*
X116914637Y-100664759D01*
X117071680Y-100429727D01*
X117179853Y-100168574D01*
X117235000Y-99891335D01*
X117235000Y-99608665D01*
X117179853Y-99331426D01*
X117071680Y-99070273D01*
X116914637Y-98835241D01*
X116714759Y-98635363D01*
X116479727Y-98478320D01*
X116218574Y-98370147D01*
X115941335Y-98315000D01*
X115658665Y-98315000D01*
X115381426Y-98370147D01*
X115120273Y-98478320D01*
X114885241Y-98635363D01*
X114685363Y-98835241D01*
X114528320Y-99070273D01*
X114420147Y-99331426D01*
X114365000Y-99608665D01*
X113760000Y-99608665D01*
X113760000Y-96408665D01*
X114325000Y-96408665D01*
X114325000Y-96691335D01*
X114380147Y-96968574D01*
X114488320Y-97229727D01*
X114645363Y-97464759D01*
X114845241Y-97664637D01*
X115080273Y-97821680D01*
X115341426Y-97929853D01*
X115618665Y-97985000D01*
X115901335Y-97985000D01*
X116178574Y-97929853D01*
X116439727Y-97821680D01*
X116674759Y-97664637D01*
X116874637Y-97464759D01*
X117031680Y-97229727D01*
X117139853Y-96968574D01*
X117195000Y-96691335D01*
X117195000Y-96408665D01*
X117139853Y-96131426D01*
X117031680Y-95870273D01*
X116874637Y-95635241D01*
X116674759Y-95435363D01*
X116439727Y-95278320D01*
X116178574Y-95170147D01*
X115901335Y-95115000D01*
X115618665Y-95115000D01*
X115341426Y-95170147D01*
X115080273Y-95278320D01*
X114845241Y-95435363D01*
X114645363Y-95635241D01*
X114488320Y-95870273D01*
X114380147Y-96131426D01*
X114325000Y-96408665D01*
X113760000Y-96408665D01*
X113760000Y-93314801D01*
X113866136Y-93208665D01*
X114365000Y-93208665D01*
X114365000Y-93491335D01*
X114420147Y-93768574D01*
X114528320Y-94029727D01*
X114685363Y-94264759D01*
X114885241Y-94464637D01*
X115120273Y-94621680D01*
X115381426Y-94729853D01*
X115658665Y-94785000D01*
X115941335Y-94785000D01*
X116218574Y-94729853D01*
X116479727Y-94621680D01*
X116714759Y-94464637D01*
X116914637Y-94264759D01*
X117071680Y-94029727D01*
X117179853Y-93768574D01*
X117235000Y-93491335D01*
X117235000Y-93208665D01*
X117179853Y-92931426D01*
X117071680Y-92670273D01*
X116914637Y-92435241D01*
X116714759Y-92235363D01*
X116479727Y-92078320D01*
X116218574Y-91970147D01*
X115941335Y-91915000D01*
X115658665Y-91915000D01*
X115381426Y-91970147D01*
X115120273Y-92078320D01*
X114885241Y-92235363D01*
X114685363Y-92435241D01*
X114528320Y-92670273D01*
X114420147Y-92931426D01*
X114365000Y-93208665D01*
X113866136Y-93208665D01*
X115476114Y-91598688D01*
X115658665Y-91635000D01*
X115941335Y-91635000D01*
X116218574Y-91579853D01*
X116479727Y-91471680D01*
X116714759Y-91314637D01*
X116914637Y-91114759D01*
X117071680Y-90879727D01*
X117179853Y-90618574D01*
X117235000Y-90341335D01*
X117235000Y-90058665D01*
X117179853Y-89781426D01*
X117079852Y-89540000D01*
X121658057Y-89540000D01*
X121685764Y-89821309D01*
X121767818Y-90091808D01*
X121901068Y-90341101D01*
X122080392Y-90559608D01*
X122298899Y-90738932D01*
X122431858Y-90810000D01*
X122298899Y-90881068D01*
X122080392Y-91060392D01*
X121901068Y-91278899D01*
X121767818Y-91528192D01*
X121685764Y-91798691D01*
X121658057Y-92080000D01*
X121685764Y-92361309D01*
X121767818Y-92631808D01*
X121901068Y-92881101D01*
X122080392Y-93099608D01*
X122298899Y-93278932D01*
X122431858Y-93350000D01*
X122298899Y-93421068D01*
X122080392Y-93600392D01*
X121901068Y-93818899D01*
X121767818Y-94068192D01*
X121685764Y-94338691D01*
X121658057Y-94620000D01*
X121685764Y-94901309D01*
X121767818Y-95171808D01*
X121901068Y-95421101D01*
X122080392Y-95639608D01*
X122298899Y-95818932D01*
X122548192Y-95952182D01*
X122818691Y-96034236D01*
X123029508Y-96055000D01*
X123970492Y-96055000D01*
X124181309Y-96034236D01*
X124451808Y-95952182D01*
X124701101Y-95818932D01*
X124919608Y-95639608D01*
X125098932Y-95421101D01*
X125232182Y-95171808D01*
X125314236Y-94901309D01*
X125341943Y-94620000D01*
X125314236Y-94338691D01*
X125232182Y-94068192D01*
X125098932Y-93818899D01*
X124919608Y-93600392D01*
X124701101Y-93421068D01*
X124568142Y-93350000D01*
X124701101Y-93278932D01*
X124919608Y-93099608D01*
X125098932Y-92881101D01*
X125232182Y-92631808D01*
X125314236Y-92361309D01*
X125341943Y-92080000D01*
X125314236Y-91798691D01*
X125232182Y-91528192D01*
X125098932Y-91278899D01*
X124919608Y-91060392D01*
X124701101Y-90881068D01*
X124568142Y-90810000D01*
X124701101Y-90738932D01*
X124919608Y-90559608D01*
X125098932Y-90341101D01*
X125232182Y-90091808D01*
X125314236Y-89821309D01*
X125341943Y-89540000D01*
X125314236Y-89258691D01*
X125232182Y-88988192D01*
X125098932Y-88738899D01*
X124919608Y-88520392D01*
X124806518Y-88427581D01*
X124824482Y-88425812D01*
X124944180Y-88389502D01*
X125054494Y-88330537D01*
X125151185Y-88251185D01*
X125230537Y-88154494D01*
X125289502Y-88044180D01*
X125325812Y-87924482D01*
X125338072Y-87800000D01*
X125338072Y-87000000D01*
X129278057Y-87000000D01*
X129305764Y-87281309D01*
X129387818Y-87551808D01*
X129521068Y-87801101D01*
X129700392Y-88019608D01*
X129918899Y-88198932D01*
X130051858Y-88270000D01*
X129918899Y-88341068D01*
X129700392Y-88520392D01*
X129521068Y-88738899D01*
X129387818Y-88988192D01*
X129305764Y-89258691D01*
X129278057Y-89540000D01*
X129305764Y-89821309D01*
X129387818Y-90091808D01*
X129521068Y-90341101D01*
X129700392Y-90559608D01*
X129918899Y-90738932D01*
X130051858Y-90810000D01*
X129918899Y-90881068D01*
X129700392Y-91060392D01*
X129521068Y-91278899D01*
X129387818Y-91528192D01*
X129305764Y-91798691D01*
X129278057Y-92080000D01*
X129305764Y-92361309D01*
X129387818Y-92631808D01*
X129521068Y-92881101D01*
X129700392Y-93099608D01*
X129918899Y-93278932D01*
X130051858Y-93350000D01*
X129918899Y-93421068D01*
X129700392Y-93600392D01*
X129521068Y-93818899D01*
X129387818Y-94068192D01*
X129305764Y-94338691D01*
X129278057Y-94620000D01*
X129305764Y-94901309D01*
X129387818Y-95171808D01*
X129521068Y-95421101D01*
X129700392Y-95639608D01*
X129918899Y-95818932D01*
X130168192Y-95952182D01*
X130438691Y-96034236D01*
X130649508Y-96055000D01*
X131590492Y-96055000D01*
X131801309Y-96034236D01*
X132071808Y-95952182D01*
X132321101Y-95818932D01*
X132539608Y-95639608D01*
X132718932Y-95421101D01*
X132852182Y-95171808D01*
X132934236Y-94901309D01*
X132961943Y-94620000D01*
X132934236Y-94338691D01*
X132852182Y-94068192D01*
X132718932Y-93818899D01*
X132539608Y-93600392D01*
X132321101Y-93421068D01*
X132188142Y-93350000D01*
X132321101Y-93278932D01*
X132539608Y-93099608D01*
X132718932Y-92881101D01*
X132852182Y-92631808D01*
X132934236Y-92361309D01*
X132961943Y-92080000D01*
X132934236Y-91798691D01*
X132852182Y-91528192D01*
X132718932Y-91278899D01*
X132539608Y-91060392D01*
X132321101Y-90881068D01*
X132188142Y-90810000D01*
X132321101Y-90738932D01*
X132539608Y-90559608D01*
X132718932Y-90341101D01*
X132852182Y-90091808D01*
X132934236Y-89821309D01*
X132961943Y-89540000D01*
X132934236Y-89258691D01*
X132852182Y-88988192D01*
X132718932Y-88738899D01*
X132539608Y-88520392D01*
X132321101Y-88341068D01*
X132188142Y-88270000D01*
X132321101Y-88198932D01*
X132539608Y-88019608D01*
X132718932Y-87801101D01*
X132852182Y-87551808D01*
X132934236Y-87281309D01*
X132961943Y-87000000D01*
X132934236Y-86718691D01*
X132852182Y-86448192D01*
X132718932Y-86198899D01*
X132539608Y-85980392D01*
X132321101Y-85801068D01*
X132071808Y-85667818D01*
X131801309Y-85585764D01*
X131590492Y-85565000D01*
X130649508Y-85565000D01*
X130438691Y-85585764D01*
X130168192Y-85667818D01*
X129918899Y-85801068D01*
X129700392Y-85980392D01*
X129521068Y-86198899D01*
X129387818Y-86448192D01*
X129305764Y-86718691D01*
X129278057Y-87000000D01*
X125338072Y-87000000D01*
X125338072Y-86200000D01*
X125325812Y-86075518D01*
X125289502Y-85955820D01*
X125230537Y-85845506D01*
X125151185Y-85748815D01*
X125054494Y-85669463D01*
X124944180Y-85610498D01*
X124824482Y-85574188D01*
X124700000Y-85561928D01*
X122300000Y-85561928D01*
X122175518Y-85574188D01*
X122055820Y-85610498D01*
X121945506Y-85669463D01*
X121848815Y-85748815D01*
X121769463Y-85845506D01*
X121710498Y-85955820D01*
X121674188Y-86075518D01*
X121661928Y-86200000D01*
X121661928Y-87800000D01*
X121674188Y-87924482D01*
X121710498Y-88044180D01*
X121769463Y-88154494D01*
X121848815Y-88251185D01*
X121945506Y-88330537D01*
X122055820Y-88389502D01*
X122175518Y-88425812D01*
X122193482Y-88427581D01*
X122080392Y-88520392D01*
X121901068Y-88738899D01*
X121767818Y-88988192D01*
X121685764Y-89258691D01*
X121658057Y-89540000D01*
X117079852Y-89540000D01*
X117071680Y-89520273D01*
X116914637Y-89285241D01*
X116714759Y-89085363D01*
X116479727Y-88928320D01*
X116218574Y-88820147D01*
X115941335Y-88765000D01*
X115658665Y-88765000D01*
X115381426Y-88820147D01*
X115120273Y-88928320D01*
X114885241Y-89085363D01*
X114685363Y-89285241D01*
X114528320Y-89520273D01*
X114420147Y-89781426D01*
X114365000Y-90058665D01*
X114365000Y-90341335D01*
X114401312Y-90523886D01*
X112560000Y-92365199D01*
X112560000Y-89997322D01*
X112563676Y-89959999D01*
X112560000Y-89922676D01*
X112560000Y-89922667D01*
X112549003Y-89811014D01*
X112505546Y-89667753D01*
X112434974Y-89535724D01*
X112340001Y-89419999D01*
X112311004Y-89396202D01*
X109773467Y-86858665D01*
X114365000Y-86858665D01*
X114365000Y-87141335D01*
X114420147Y-87418574D01*
X114528320Y-87679727D01*
X114685363Y-87914759D01*
X114885241Y-88114637D01*
X115120273Y-88271680D01*
X115381426Y-88379853D01*
X115658665Y-88435000D01*
X115941335Y-88435000D01*
X116218574Y-88379853D01*
X116479727Y-88271680D01*
X116714759Y-88114637D01*
X116914637Y-87914759D01*
X117071680Y-87679727D01*
X117179853Y-87418574D01*
X117235000Y-87141335D01*
X117235000Y-86858665D01*
X117179853Y-86581426D01*
X117071680Y-86320273D01*
X116914637Y-86085241D01*
X116714759Y-85885363D01*
X116479727Y-85728320D01*
X116218574Y-85620147D01*
X115941335Y-85565000D01*
X115658665Y-85565000D01*
X115381426Y-85620147D01*
X115120273Y-85728320D01*
X114885241Y-85885363D01*
X114685363Y-86085241D01*
X114528320Y-86320273D01*
X114420147Y-86581426D01*
X114365000Y-86858665D01*
X109773467Y-86858665D01*
X106988688Y-84073887D01*
X107025000Y-83891335D01*
X107025000Y-83608665D01*
X114315000Y-83608665D01*
X114315000Y-83891335D01*
X114370147Y-84168574D01*
X114478320Y-84429727D01*
X114635363Y-84664759D01*
X114835241Y-84864637D01*
X115070273Y-85021680D01*
X115331426Y-85129853D01*
X115608665Y-85185000D01*
X115891335Y-85185000D01*
X116168574Y-85129853D01*
X116429727Y-85021680D01*
X116611834Y-84900000D01*
X137511928Y-84900000D01*
X137511928Y-86600000D01*
X137524188Y-86724482D01*
X137560498Y-86844180D01*
X137619463Y-86954494D01*
X137698815Y-87051185D01*
X137795506Y-87130537D01*
X137905820Y-87189502D01*
X137978380Y-87211513D01*
X137846525Y-87343368D01*
X137684010Y-87586589D01*
X137572068Y-87856842D01*
X137515000Y-88143740D01*
X137515000Y-88436260D01*
X137572068Y-88723158D01*
X137684010Y-88993411D01*
X137846525Y-89236632D01*
X138053368Y-89443475D01*
X138227760Y-89560000D01*
X138053368Y-89676525D01*
X137846525Y-89883368D01*
X137684010Y-90126589D01*
X137572068Y-90396842D01*
X137515000Y-90683740D01*
X137515000Y-90976260D01*
X137572068Y-91263158D01*
X137684010Y-91533411D01*
X137846525Y-91776632D01*
X138053368Y-91983475D01*
X138227760Y-92100000D01*
X138053368Y-92216525D01*
X137846525Y-92423368D01*
X137684010Y-92666589D01*
X137572068Y-92936842D01*
X137515000Y-93223740D01*
X137515000Y-93516260D01*
X137572068Y-93803158D01*
X137684010Y-94073411D01*
X137846525Y-94316632D01*
X138053368Y-94523475D01*
X138227760Y-94640000D01*
X138053368Y-94756525D01*
X137846525Y-94963368D01*
X137684010Y-95206589D01*
X137572068Y-95476842D01*
X137515000Y-95763740D01*
X137515000Y-96056260D01*
X137572068Y-96343158D01*
X137684010Y-96613411D01*
X137846525Y-96856632D01*
X138053368Y-97063475D01*
X138296589Y-97225990D01*
X138566842Y-97337932D01*
X138853740Y-97395000D01*
X139146260Y-97395000D01*
X139433158Y-97337932D01*
X139703411Y-97225990D01*
X139946632Y-97063475D01*
X140153475Y-96856632D01*
X140270000Y-96682240D01*
X140386525Y-96856632D01*
X140593368Y-97063475D01*
X140836589Y-97225990D01*
X141106842Y-97337932D01*
X141393740Y-97395000D01*
X141686260Y-97395000D01*
X141973158Y-97337932D01*
X142243411Y-97225990D01*
X142486632Y-97063475D01*
X142693475Y-96856632D01*
X142855990Y-96613411D01*
X142967932Y-96343158D01*
X143025000Y-96056260D01*
X143025000Y-95763740D01*
X142967932Y-95476842D01*
X142855990Y-95206589D01*
X142693475Y-94963368D01*
X142486632Y-94756525D01*
X142312240Y-94640000D01*
X142486632Y-94523475D01*
X142693475Y-94316632D01*
X142855990Y-94073411D01*
X142967932Y-93803158D01*
X143025000Y-93516260D01*
X143025000Y-93223740D01*
X142967932Y-92936842D01*
X142855990Y-92666589D01*
X142693475Y-92423368D01*
X142486632Y-92216525D01*
X142312240Y-92100000D01*
X142486632Y-91983475D01*
X142693475Y-91776632D01*
X142855990Y-91533411D01*
X142967932Y-91263158D01*
X143025000Y-90976260D01*
X143025000Y-90683740D01*
X142967932Y-90396842D01*
X142855990Y-90126589D01*
X142693475Y-89883368D01*
X142486632Y-89676525D01*
X142312240Y-89560000D01*
X142486632Y-89443475D01*
X142693475Y-89236632D01*
X142855990Y-88993411D01*
X142967932Y-88723158D01*
X143025000Y-88436260D01*
X143025000Y-88143740D01*
X142967932Y-87856842D01*
X142855990Y-87586589D01*
X142693475Y-87343368D01*
X142486632Y-87136525D01*
X142312240Y-87020000D01*
X142486632Y-86903475D01*
X142693475Y-86696632D01*
X142855990Y-86453411D01*
X142967932Y-86183158D01*
X143025000Y-85896260D01*
X143025000Y-85603740D01*
X142967932Y-85316842D01*
X142855990Y-85046589D01*
X142693475Y-84803368D01*
X142486632Y-84596525D01*
X142243411Y-84434010D01*
X141973158Y-84322068D01*
X141686260Y-84265000D01*
X141393740Y-84265000D01*
X141106842Y-84322068D01*
X140836589Y-84434010D01*
X140593368Y-84596525D01*
X140461513Y-84728380D01*
X140439502Y-84655820D01*
X140380537Y-84545506D01*
X140301185Y-84448815D01*
X140204494Y-84369463D01*
X140094180Y-84310498D01*
X139974482Y-84274188D01*
X139850000Y-84261928D01*
X138150000Y-84261928D01*
X138025518Y-84274188D01*
X137905820Y-84310498D01*
X137795506Y-84369463D01*
X137698815Y-84448815D01*
X137619463Y-84545506D01*
X137560498Y-84655820D01*
X137524188Y-84775518D01*
X137511928Y-84900000D01*
X116611834Y-84900000D01*
X116664759Y-84864637D01*
X116864637Y-84664759D01*
X117021680Y-84429727D01*
X117129853Y-84168574D01*
X117185000Y-83891335D01*
X117185000Y-83608665D01*
X117129853Y-83331426D01*
X117021680Y-83070273D01*
X116864637Y-82835241D01*
X116664759Y-82635363D01*
X116429727Y-82478320D01*
X116168574Y-82370147D01*
X115891335Y-82315000D01*
X115608665Y-82315000D01*
X115331426Y-82370147D01*
X115070273Y-82478320D01*
X114835241Y-82635363D01*
X114635363Y-82835241D01*
X114478320Y-83070273D01*
X114370147Y-83331426D01*
X114315000Y-83608665D01*
X107025000Y-83608665D01*
X106969853Y-83331426D01*
X106861680Y-83070273D01*
X106704637Y-82835241D01*
X106504759Y-82635363D01*
X106269727Y-82478320D01*
X106008574Y-82370147D01*
X105731335Y-82315000D01*
X105448665Y-82315000D01*
X105171426Y-82370147D01*
X104910273Y-82478320D01*
X104675241Y-82635363D01*
X104475363Y-82835241D01*
X104318320Y-83070273D01*
X104210147Y-83331426D01*
X104155000Y-83608665D01*
X100127000Y-83608665D01*
X100127000Y-80358665D01*
X104155000Y-80358665D01*
X104155000Y-80641335D01*
X104210147Y-80918574D01*
X104318320Y-81179727D01*
X104475363Y-81414759D01*
X104675241Y-81614637D01*
X104910273Y-81771680D01*
X105171426Y-81879853D01*
X105448665Y-81935000D01*
X105731335Y-81935000D01*
X106008574Y-81879853D01*
X106269727Y-81771680D01*
X106504759Y-81614637D01*
X106704637Y-81414759D01*
X106861680Y-81179727D01*
X106969853Y-80918574D01*
X107025000Y-80641335D01*
X107025000Y-80358665D01*
X114315000Y-80358665D01*
X114315000Y-80641335D01*
X114370147Y-80918574D01*
X114478320Y-81179727D01*
X114635363Y-81414759D01*
X114835241Y-81614637D01*
X115070273Y-81771680D01*
X115331426Y-81879853D01*
X115608665Y-81935000D01*
X115891335Y-81935000D01*
X116168574Y-81879853D01*
X116429727Y-81771680D01*
X116664759Y-81614637D01*
X116864637Y-81414759D01*
X117021680Y-81179727D01*
X117129853Y-80918574D01*
X117185000Y-80641335D01*
X117185000Y-80358665D01*
X117129853Y-80081426D01*
X117021680Y-79820273D01*
X116864637Y-79585241D01*
X116664759Y-79385363D01*
X116429727Y-79228320D01*
X116168574Y-79120147D01*
X115891335Y-79065000D01*
X115608665Y-79065000D01*
X115331426Y-79120147D01*
X115070273Y-79228320D01*
X114835241Y-79385363D01*
X114635363Y-79585241D01*
X114478320Y-79820273D01*
X114370147Y-80081426D01*
X114315000Y-80358665D01*
X107025000Y-80358665D01*
X106969853Y-80081426D01*
X106861680Y-79820273D01*
X106704637Y-79585241D01*
X106504759Y-79385363D01*
X106269727Y-79228320D01*
X106008574Y-79120147D01*
X105731335Y-79065000D01*
X105448665Y-79065000D01*
X105171426Y-79120147D01*
X104910273Y-79228320D01*
X104675241Y-79385363D01*
X104475363Y-79585241D01*
X104318320Y-79820273D01*
X104210147Y-80081426D01*
X104155000Y-80358665D01*
X100127000Y-80358665D01*
X100127000Y-78127000D01*
X146873000Y-78127000D01*
X146873000Y-134873000D01*
G37*
%TD.AperFunction*%
D25*
X140386525Y-94316632D02*
X140593368Y-94523475D01*
X140767760Y-94640000D01*
X140593368Y-94756525D01*
X140386525Y-94963368D01*
X140270000Y-95137760D01*
X140153475Y-94963368D01*
X139946632Y-94756525D01*
X139772240Y-94640000D01*
X139946632Y-94523475D01*
X140153475Y-94316632D01*
X140270000Y-94142240D01*
X140386525Y-94316632D01*
%TA.AperFunction,NonConductor*%
D26*
G36*
X140386525Y-94316632D02*
G01*
X140593368Y-94523475D01*
X140767760Y-94640000D01*
X140593368Y-94756525D01*
X140386525Y-94963368D01*
X140270000Y-95137760D01*
X140153475Y-94963368D01*
X139946632Y-94756525D01*
X139772240Y-94640000D01*
X139946632Y-94523475D01*
X140153475Y-94316632D01*
X140270000Y-94142240D01*
X140386525Y-94316632D01*
G37*
%TD.AperFunction*%
D25*
X140386525Y-91776632D02*
X140593368Y-91983475D01*
X140767760Y-92100000D01*
X140593368Y-92216525D01*
X140386525Y-92423368D01*
X140270000Y-92597760D01*
X140153475Y-92423368D01*
X139946632Y-92216525D01*
X139772240Y-92100000D01*
X139946632Y-91983475D01*
X140153475Y-91776632D01*
X140270000Y-91602240D01*
X140386525Y-91776632D01*
%TA.AperFunction,NonConductor*%
D26*
G36*
X140386525Y-91776632D02*
G01*
X140593368Y-91983475D01*
X140767760Y-92100000D01*
X140593368Y-92216525D01*
X140386525Y-92423368D01*
X140270000Y-92597760D01*
X140153475Y-92423368D01*
X139946632Y-92216525D01*
X139772240Y-92100000D01*
X139946632Y-91983475D01*
X140153475Y-91776632D01*
X140270000Y-91602240D01*
X140386525Y-91776632D01*
G37*
%TD.AperFunction*%
D25*
X140386525Y-89236632D02*
X140593368Y-89443475D01*
X140767760Y-89560000D01*
X140593368Y-89676525D01*
X140386525Y-89883368D01*
X140270000Y-90057760D01*
X140153475Y-89883368D01*
X139946632Y-89676525D01*
X139772240Y-89560000D01*
X139946632Y-89443475D01*
X140153475Y-89236632D01*
X140270000Y-89062240D01*
X140386525Y-89236632D01*
%TA.AperFunction,NonConductor*%
D26*
G36*
X140386525Y-89236632D02*
G01*
X140593368Y-89443475D01*
X140767760Y-89560000D01*
X140593368Y-89676525D01*
X140386525Y-89883368D01*
X140270000Y-90057760D01*
X140153475Y-89883368D01*
X139946632Y-89676525D01*
X139772240Y-89560000D01*
X139946632Y-89443475D01*
X140153475Y-89236632D01*
X140270000Y-89062240D01*
X140386525Y-89236632D01*
G37*
%TD.AperFunction*%
D25*
X140593368Y-86903475D02*
X140767760Y-87020000D01*
X140593368Y-87136525D01*
X140386525Y-87343368D01*
X140270000Y-87517760D01*
X140153475Y-87343368D01*
X140021620Y-87211513D01*
X140094180Y-87189502D01*
X140204494Y-87130537D01*
X140301185Y-87051185D01*
X140380537Y-86954494D01*
X140439502Y-86844180D01*
X140461513Y-86771620D01*
X140593368Y-86903475D01*
%TA.AperFunction,NonConductor*%
D26*
G36*
X140593368Y-86903475D02*
G01*
X140767760Y-87020000D01*
X140593368Y-87136525D01*
X140386525Y-87343368D01*
X140270000Y-87517760D01*
X140153475Y-87343368D01*
X140021620Y-87211513D01*
X140094180Y-87189502D01*
X140204494Y-87130537D01*
X140301185Y-87051185D01*
X140380537Y-86954494D01*
X140439502Y-86844180D01*
X140461513Y-86771620D01*
X140593368Y-86903475D01*
G37*
%TD.AperFunction*%
M02*
