%TF.GenerationSoftware,KiCad,Pcbnew,(5.1.9)-1*%
%TF.CreationDate,2022-03-06T17:39:52-05:00*%
%TF.ProjectId,kassuVCA,6b617373-7556-4434-912e-6b696361645f,rev?*%
%TF.SameCoordinates,Original*%
%TF.FileFunction,Copper,L1,Top*%
%TF.FilePolarity,Positive*%
%FSLAX46Y46*%
G04 Gerber Fmt 4.6, Leading zero omitted, Abs format (unit mm)*
G04 Created by KiCad (PCBNEW (5.1.9)-1) date 2022-03-06 17:39:52*
%MOMM*%
%LPD*%
G01*
G04 APERTURE LIST*
%TA.AperFunction,WasherPad*%
%ADD10C,4.000000*%
%TD*%
%TA.AperFunction,ComponentPad*%
%ADD11C,1.800000*%
%TD*%
%TA.AperFunction,ComponentPad*%
%ADD12O,2.400000X1.600000*%
%TD*%
%TA.AperFunction,ComponentPad*%
%ADD13R,2.400000X1.600000*%
%TD*%
%TA.AperFunction,ComponentPad*%
%ADD14R,1.500000X1.500000*%
%TD*%
%TA.AperFunction,ComponentPad*%
%ADD15C,1.500000*%
%TD*%
%TA.AperFunction,ComponentPad*%
%ADD16O,1.600000X1.600000*%
%TD*%
%TA.AperFunction,ComponentPad*%
%ADD17C,1.600000*%
%TD*%
%TA.AperFunction,ComponentPad*%
%ADD18C,2.130000*%
%TD*%
%TA.AperFunction,ComponentPad*%
%ADD19R,1.930000X1.830000*%
%TD*%
%TA.AperFunction,ComponentPad*%
%ADD20O,1.700000X1.700000*%
%TD*%
%TA.AperFunction,ComponentPad*%
%ADD21R,1.700000X1.700000*%
%TD*%
%TA.AperFunction,Conductor*%
%ADD22C,0.400000*%
%TD*%
%TA.AperFunction,Conductor*%
%ADD23C,0.254000*%
%TD*%
%TA.AperFunction,Conductor*%
%ADD24C,0.100000*%
%TD*%
G04 APERTURE END LIST*
D10*
%TO.P,Trim1,*%
%TO.N,*%
X137900000Y-125750000D03*
X129100000Y-125750000D03*
D11*
%TO.P,Trim1,1*%
%TO.N,+12V*%
X136000000Y-132750000D03*
%TO.P,Trim1,2*%
%TO.N,Net-(R4-Pad2)*%
X133500000Y-132750000D03*
%TO.P,Trim1,3*%
%TO.N,-12V*%
X131000000Y-132750000D03*
%TD*%
D12*
%TO.P,U1,8*%
%TO.N,+12V*%
X131120000Y-87000000D03*
%TO.P,U1,4*%
%TO.N,-12V*%
X123500000Y-94620000D03*
%TO.P,U1,7*%
%TO.N,Net-(U1-Pad5)*%
X131120000Y-89540000D03*
%TO.P,U1,3*%
%TO.N,Net-(R11-Pad1)*%
X123500000Y-92080000D03*
%TO.P,U1,6*%
%TO.N,N/C*%
X131120000Y-92080000D03*
%TO.P,U1,2*%
%TO.N,Net-(R12-Pad1)*%
X123500000Y-89540000D03*
%TO.P,U1,5*%
%TO.N,Net-(U1-Pad5)*%
X131120000Y-94620000D03*
D13*
%TO.P,U1,1*%
%TO.N,Net-(R14-Pad1)*%
X123500000Y-87000000D03*
%TD*%
D14*
%TO.P,Q3,1*%
%TO.N,Net-(Q2-Pad1)*%
X130850000Y-105300000D03*
D15*
%TO.P,Q3,3*%
%TO.N,Net-(Q3-Pad3)*%
X130850000Y-100220000D03*
%TO.P,Q3,2*%
%TO.N,GND*%
X130850000Y-102760000D03*
%TD*%
D14*
%TO.P,Q2,1*%
%TO.N,Net-(Q2-Pad1)*%
X124450000Y-105300000D03*
D15*
%TO.P,Q2,3*%
%TO.N,Net-(Q2-Pad3)*%
X124450000Y-100220000D03*
%TO.P,Q2,2*%
%TO.N,Net-(Q2-Pad2)*%
X124450000Y-102760000D03*
%TD*%
D14*
%TO.P,Q1,1*%
%TO.N,Net-(Q1-Pad1)*%
X123750000Y-109750000D03*
D15*
%TO.P,Q1,3*%
%TO.N,GND*%
X123750000Y-114830000D03*
%TO.P,Q1,2*%
%TO.N,Net-(Q1-Pad2)*%
X123750000Y-112290000D03*
%TD*%
D16*
%TO.P,R4,2*%
%TO.N,Net-(R4-Pad2)*%
X105590000Y-116000000D03*
D17*
%TO.P,R4,1*%
%TO.N,Net-(Q1-Pad2)*%
X115750000Y-116000000D03*
%TD*%
D16*
%TO.P,R15,2*%
%TO.N,Net-(Out1-PadT)*%
X115800000Y-112700000D03*
D17*
%TO.P,R15,1*%
%TO.N,Net-(R14-Pad1)*%
X105640000Y-112700000D03*
%TD*%
D16*
%TO.P,R14,2*%
%TO.N,Net-(R11-Pad1)*%
X105640000Y-90200000D03*
D17*
%TO.P,R14,1*%
%TO.N,Net-(R14-Pad1)*%
X115800000Y-90200000D03*
%TD*%
D16*
%TO.P,R13,2*%
%TO.N,Net-(R12-Pad1)*%
X115760000Y-96550000D03*
D17*
%TO.P,R13,1*%
%TO.N,GND*%
X105600000Y-96550000D03*
%TD*%
D16*
%TO.P,R12,2*%
%TO.N,Net-(Q3-Pad3)*%
X105640000Y-93350000D03*
D17*
%TO.P,R12,1*%
%TO.N,Net-(R12-Pad1)*%
X115800000Y-93350000D03*
%TD*%
D16*
%TO.P,R11,2*%
%TO.N,Net-(Q2-Pad3)*%
X105640000Y-99750000D03*
D17*
%TO.P,R11,1*%
%TO.N,Net-(R11-Pad1)*%
X115800000Y-99750000D03*
%TD*%
D16*
%TO.P,R10,2*%
%TO.N,Net-(Q3-Pad3)*%
X105590000Y-80500000D03*
D17*
%TO.P,R10,1*%
%TO.N,+12V*%
X115750000Y-80500000D03*
%TD*%
D16*
%TO.P,R9,2*%
%TO.N,Net-(Q1-Pad1)*%
X105590000Y-83750000D03*
D17*
%TO.P,R9,1*%
%TO.N,-12V*%
X115750000Y-83750000D03*
%TD*%
D16*
%TO.P,R8,2*%
%TO.N,Net-(Q1-Pad1)*%
X105640000Y-109400000D03*
D17*
%TO.P,R8,1*%
%TO.N,Net-(Q2-Pad1)*%
X115800000Y-109400000D03*
%TD*%
D16*
%TO.P,R7,2*%
%TO.N,Net-(Q2-Pad3)*%
X105640000Y-87000000D03*
D17*
%TO.P,R7,1*%
%TO.N,+12V*%
X115800000Y-87000000D03*
%TD*%
D16*
%TO.P,R6,2*%
%TO.N,Net-(Q2-Pad2)*%
X115800000Y-106200000D03*
D17*
%TO.P,R6,1*%
%TO.N,GND*%
X105640000Y-106200000D03*
%TD*%
D16*
%TO.P,R5,2*%
%TO.N,Net-(In1-PadT)*%
X105640000Y-103000000D03*
D17*
%TO.P,R5,1*%
%TO.N,Net-(Q2-Pad2)*%
X115800000Y-103000000D03*
%TD*%
D18*
%TO.P,Out1,T*%
%TO.N,Net-(Out1-PadT)*%
X119500000Y-121000000D03*
D19*
%TO.P,Out1,S*%
%TO.N,GND*%
X119500000Y-132400000D03*
D18*
%TO.P,Out1,TN*%
%TO.N,N/C*%
X119500000Y-129300000D03*
%TD*%
D20*
%TO.P,J1,10*%
%TO.N,-12V*%
X141540000Y-95910000D03*
%TO.P,J1,9*%
X139000000Y-95910000D03*
%TO.P,J1,8*%
%TO.N,GND*%
X141540000Y-93370000D03*
%TO.P,J1,7*%
X139000000Y-93370000D03*
%TO.P,J1,6*%
X141540000Y-90830000D03*
%TO.P,J1,5*%
X139000000Y-90830000D03*
%TO.P,J1,4*%
X141540000Y-88290000D03*
%TO.P,J1,3*%
X139000000Y-88290000D03*
%TO.P,J1,2*%
%TO.N,+12V*%
X141540000Y-85750000D03*
D21*
%TO.P,J1,1*%
X139000000Y-85750000D03*
%TD*%
D18*
%TO.P,In1,T*%
%TO.N,Net-(In1-PadT)*%
X107250000Y-120850000D03*
D19*
%TO.P,In1,S*%
%TO.N,GND*%
X107250000Y-132250000D03*
D18*
%TO.P,In1,TN*%
%TO.N,N/C*%
X107250000Y-129150000D03*
%TD*%
D22*
%TO.N,Net-(In1-PadT)*%
X107250000Y-120850000D02*
X103850000Y-120850000D01*
X103850000Y-120850000D02*
X102000000Y-119000000D01*
X102000000Y-119000000D02*
X102000000Y-105000000D01*
X104000000Y-103000000D02*
X105640000Y-103000000D01*
X102000000Y-105000000D02*
X104000000Y-103000000D01*
%TO.N,-12V*%
X139000000Y-95910000D02*
X141540000Y-95910000D01*
X123500000Y-94620000D02*
X125620000Y-94620000D01*
X125620000Y-94620000D02*
X128000000Y-97000000D01*
X137910000Y-97000000D02*
X139000000Y-95910000D01*
X128000000Y-97000000D02*
X137910000Y-97000000D01*
X115750000Y-83750000D02*
X124750000Y-83750000D01*
X124750000Y-83750000D02*
X128000000Y-87000000D01*
X128000000Y-92240000D02*
X125620000Y-94620000D01*
X128000000Y-87000000D02*
X128000000Y-92240000D01*
X141540000Y-95910000D02*
X141540000Y-114960000D01*
X141540000Y-114960000D02*
X133750000Y-122750000D01*
X133750000Y-122750000D02*
X133750000Y-128250000D01*
X131000000Y-131000000D02*
X131000000Y-132750000D01*
X133750000Y-128250000D02*
X131000000Y-131000000D01*
%TO.N,+12V*%
X115800000Y-87000000D02*
X114000000Y-87000000D01*
X114000000Y-87000000D02*
X112000000Y-85000000D01*
X112000000Y-85000000D02*
X112000000Y-82000000D01*
X113500000Y-80500000D02*
X115750000Y-80500000D01*
X112000000Y-82000000D02*
X113500000Y-80500000D01*
X124620000Y-80500000D02*
X131120000Y-87000000D01*
X115750000Y-80500000D02*
X124620000Y-80500000D01*
X131120000Y-87000000D02*
X135000000Y-87000000D01*
X136250000Y-85750000D02*
X139000000Y-85750000D01*
X135000000Y-87000000D02*
X136250000Y-85750000D01*
X139000000Y-85750000D02*
X141540000Y-85750000D01*
X136000000Y-132750000D02*
X140250000Y-132750000D01*
X140250000Y-132750000D02*
X145000000Y-128000000D01*
X145000000Y-128000000D02*
X145000000Y-87750000D01*
X143000000Y-85750000D02*
X141540000Y-85750000D01*
X145000000Y-87750000D02*
X143000000Y-85750000D01*
%TO.N,Net-(Out1-PadT)*%
X115800000Y-112700000D02*
X114000000Y-114500000D01*
X114000000Y-114500000D02*
X114000000Y-118000000D01*
X117000000Y-121000000D02*
X119500000Y-121000000D01*
X114000000Y-118000000D02*
X117000000Y-121000000D01*
%TO.N,Net-(Q1-Pad1)*%
X105640000Y-109400000D02*
X107240000Y-111000000D01*
X107240000Y-111000000D02*
X120000000Y-111000000D01*
X121250000Y-109750000D02*
X123750000Y-109750000D01*
X120000000Y-111000000D02*
X121250000Y-109750000D01*
%TO.N,Net-(Q1-Pad2)*%
X115750000Y-116000000D02*
X117000000Y-116000000D01*
X120710000Y-112290000D02*
X123750000Y-112290000D01*
X117000000Y-116000000D02*
X120710000Y-112290000D01*
%TO.N,Net-(Q2-Pad1)*%
X115800000Y-109400000D02*
X118350000Y-109400000D01*
X122450000Y-105300000D02*
X124450000Y-105300000D01*
X118350000Y-109400000D02*
X122450000Y-105300000D01*
X124450000Y-105300000D02*
X130850000Y-105300000D01*
%TO.N,Net-(Q2-Pad3)*%
X105640000Y-99750000D02*
X111250000Y-99750000D01*
X111250000Y-99750000D02*
X112750000Y-101250000D01*
X123420000Y-101250000D02*
X124450000Y-100220000D01*
X112750000Y-101250000D02*
X123420000Y-101250000D01*
%TO.N,Net-(Q2-Pad2)*%
X124210000Y-103000000D02*
X124450000Y-102760000D01*
X115800000Y-103000000D02*
X124210000Y-103000000D01*
X115800000Y-103000000D02*
X115800000Y-106200000D01*
%TO.N,Net-(Q3-Pad3)*%
X105590000Y-80500000D02*
X101840000Y-84250000D01*
X101840000Y-89550000D02*
X105640000Y-93350000D01*
X101840000Y-84250000D02*
X101840000Y-89550000D01*
%TO.N,Net-(R4-Pad2)*%
X133500000Y-132750000D02*
X133500000Y-133750000D01*
X133500000Y-133750000D02*
X132500000Y-134750000D01*
X132500000Y-134750000D02*
X116750000Y-134750000D01*
X116750000Y-134750000D02*
X111750000Y-129750000D01*
X111750000Y-129750000D02*
X111750000Y-119500000D01*
X108250000Y-116000000D02*
X105590000Y-116000000D01*
X111750000Y-119500000D02*
X108250000Y-116000000D01*
%TO.N,Net-(R11-Pad1)*%
X115800000Y-99750000D02*
X118750000Y-96800000D01*
X118750000Y-96800000D02*
X118750000Y-95250000D01*
X121920000Y-92080000D02*
X123500000Y-92080000D01*
X118750000Y-95250000D02*
X121920000Y-92080000D01*
X115190000Y-99750000D02*
X115800000Y-99750000D01*
X105640000Y-90200000D02*
X115190000Y-99750000D01*
%TO.N,Net-(R12-Pad1)*%
X115800000Y-96510000D02*
X115760000Y-96550000D01*
X115800000Y-93350000D02*
X115800000Y-96510000D01*
X115800000Y-93350000D02*
X117900000Y-93350000D01*
X121710000Y-89540000D02*
X123500000Y-89540000D01*
X117900000Y-93350000D02*
X121710000Y-89540000D01*
%TO.N,Net-(R14-Pad1)*%
X115800000Y-90200000D02*
X117800000Y-90200000D01*
X121000000Y-87000000D02*
X123500000Y-87000000D01*
X117800000Y-90200000D02*
X121000000Y-87000000D01*
%TO.N,Net-(U1-Pad5)*%
X131120000Y-94620000D02*
X132380000Y-94620000D01*
X132380000Y-94620000D02*
X134000000Y-93000000D01*
X134000000Y-93000000D02*
X134000000Y-91000000D01*
X132540000Y-89540000D02*
X131120000Y-89540000D01*
X134000000Y-91000000D02*
X132540000Y-89540000D01*
%TD*%
D23*
%TO.N,GND*%
X146873000Y-134873000D02*
X133557868Y-134873000D01*
X134061432Y-134369437D01*
X134093291Y-134343291D01*
X134197636Y-134216146D01*
X134269279Y-134082113D01*
X134478505Y-133942312D01*
X134692312Y-133728505D01*
X134750000Y-133642169D01*
X134807688Y-133728505D01*
X135021495Y-133942312D01*
X135272905Y-134110299D01*
X135552257Y-134226011D01*
X135848816Y-134285000D01*
X136151184Y-134285000D01*
X136447743Y-134226011D01*
X136727095Y-134110299D01*
X136978505Y-133942312D01*
X137192312Y-133728505D01*
X137288199Y-133585000D01*
X140208982Y-133585000D01*
X140250000Y-133589040D01*
X140291018Y-133585000D01*
X140291019Y-133585000D01*
X140413689Y-133572918D01*
X140571087Y-133525172D01*
X140716146Y-133447636D01*
X140843291Y-133343291D01*
X140869446Y-133311421D01*
X145561428Y-128619440D01*
X145593291Y-128593291D01*
X145697636Y-128466146D01*
X145775172Y-128321087D01*
X145822918Y-128163689D01*
X145835000Y-128041019D01*
X145835000Y-128041009D01*
X145839039Y-128000001D01*
X145835000Y-127958993D01*
X145835000Y-87791018D01*
X145839040Y-87749999D01*
X145822918Y-87586311D01*
X145775172Y-87428913D01*
X145697636Y-87283854D01*
X145695547Y-87281309D01*
X145593291Y-87156709D01*
X145561427Y-87130559D01*
X143619446Y-85188579D01*
X143593291Y-85156709D01*
X143466146Y-85052364D01*
X143321087Y-84974828D01*
X143163689Y-84927082D01*
X143041019Y-84915000D01*
X143041018Y-84915000D01*
X143000000Y-84910960D01*
X142958982Y-84915000D01*
X142768065Y-84915000D01*
X142693475Y-84803368D01*
X142486632Y-84596525D01*
X142243411Y-84434010D01*
X141973158Y-84322068D01*
X141686260Y-84265000D01*
X141393740Y-84265000D01*
X141106842Y-84322068D01*
X140836589Y-84434010D01*
X140593368Y-84596525D01*
X140461513Y-84728380D01*
X140439502Y-84655820D01*
X140380537Y-84545506D01*
X140301185Y-84448815D01*
X140204494Y-84369463D01*
X140094180Y-84310498D01*
X139974482Y-84274188D01*
X139850000Y-84261928D01*
X138150000Y-84261928D01*
X138025518Y-84274188D01*
X137905820Y-84310498D01*
X137795506Y-84369463D01*
X137698815Y-84448815D01*
X137619463Y-84545506D01*
X137560498Y-84655820D01*
X137524188Y-84775518D01*
X137511928Y-84900000D01*
X137511928Y-84915000D01*
X136291018Y-84915000D01*
X136250000Y-84910960D01*
X136208981Y-84915000D01*
X136086311Y-84927082D01*
X135928913Y-84974828D01*
X135783854Y-85052364D01*
X135656709Y-85156709D01*
X135630563Y-85188568D01*
X134654133Y-86165000D01*
X132691112Y-86165000D01*
X132539608Y-85980392D01*
X132321101Y-85801068D01*
X132071808Y-85667818D01*
X131801309Y-85585764D01*
X131590492Y-85565000D01*
X130865868Y-85565000D01*
X125239446Y-79938579D01*
X125213291Y-79906709D01*
X125086146Y-79802364D01*
X124941087Y-79724828D01*
X124783689Y-79677082D01*
X124661019Y-79665000D01*
X124661018Y-79665000D01*
X124620000Y-79660960D01*
X124578982Y-79665000D01*
X116917930Y-79665000D01*
X116864637Y-79585241D01*
X116664759Y-79385363D01*
X116429727Y-79228320D01*
X116168574Y-79120147D01*
X115891335Y-79065000D01*
X115608665Y-79065000D01*
X115331426Y-79120147D01*
X115070273Y-79228320D01*
X114835241Y-79385363D01*
X114635363Y-79585241D01*
X114582070Y-79665000D01*
X113541007Y-79665000D01*
X113499999Y-79660961D01*
X113458991Y-79665000D01*
X113458981Y-79665000D01*
X113336311Y-79677082D01*
X113178913Y-79724828D01*
X113033854Y-79802364D01*
X112906709Y-79906709D01*
X112880559Y-79938574D01*
X111438574Y-81380559D01*
X111406710Y-81406709D01*
X111380562Y-81438571D01*
X111302364Y-81533855D01*
X111224828Y-81678914D01*
X111177082Y-81836312D01*
X111160960Y-82000000D01*
X111165001Y-82041028D01*
X111165000Y-84958981D01*
X111160960Y-85000000D01*
X111165000Y-85041018D01*
X111177082Y-85163688D01*
X111224828Y-85321086D01*
X111302364Y-85466145D01*
X111406709Y-85593291D01*
X111438579Y-85619446D01*
X113380559Y-87561427D01*
X113406709Y-87593291D01*
X113512032Y-87679727D01*
X113533854Y-87697636D01*
X113678913Y-87775172D01*
X113836311Y-87822918D01*
X113999999Y-87839040D01*
X114041018Y-87835000D01*
X114632070Y-87835000D01*
X114685363Y-87914759D01*
X114885241Y-88114637D01*
X115120273Y-88271680D01*
X115381426Y-88379853D01*
X115658665Y-88435000D01*
X115941335Y-88435000D01*
X116218574Y-88379853D01*
X116479727Y-88271680D01*
X116714759Y-88114637D01*
X116914637Y-87914759D01*
X117071680Y-87679727D01*
X117179853Y-87418574D01*
X117235000Y-87141335D01*
X117235000Y-86858665D01*
X117179853Y-86581426D01*
X117071680Y-86320273D01*
X116914637Y-86085241D01*
X116714759Y-85885363D01*
X116479727Y-85728320D01*
X116218574Y-85620147D01*
X115941335Y-85565000D01*
X115658665Y-85565000D01*
X115381426Y-85620147D01*
X115120273Y-85728320D01*
X114885241Y-85885363D01*
X114685363Y-86085241D01*
X114632070Y-86165000D01*
X114345868Y-86165000D01*
X112835000Y-84654133D01*
X112835000Y-82345867D01*
X113845868Y-81335000D01*
X114582070Y-81335000D01*
X114635363Y-81414759D01*
X114835241Y-81614637D01*
X115070273Y-81771680D01*
X115331426Y-81879853D01*
X115608665Y-81935000D01*
X115891335Y-81935000D01*
X116168574Y-81879853D01*
X116429727Y-81771680D01*
X116664759Y-81614637D01*
X116864637Y-81414759D01*
X116917930Y-81335000D01*
X124274133Y-81335000D01*
X129387703Y-86448571D01*
X129305764Y-86718691D01*
X129278057Y-87000000D01*
X129305764Y-87281309D01*
X129387818Y-87551808D01*
X129521068Y-87801101D01*
X129700392Y-88019608D01*
X129918899Y-88198932D01*
X130051858Y-88270000D01*
X129918899Y-88341068D01*
X129700392Y-88520392D01*
X129521068Y-88738899D01*
X129387818Y-88988192D01*
X129305764Y-89258691D01*
X129278057Y-89540000D01*
X129305764Y-89821309D01*
X129387818Y-90091808D01*
X129521068Y-90341101D01*
X129700392Y-90559608D01*
X129918899Y-90738932D01*
X130051858Y-90810000D01*
X129918899Y-90881068D01*
X129700392Y-91060392D01*
X129521068Y-91278899D01*
X129387818Y-91528192D01*
X129305764Y-91798691D01*
X129278057Y-92080000D01*
X129305764Y-92361309D01*
X129387818Y-92631808D01*
X129521068Y-92881101D01*
X129700392Y-93099608D01*
X129918899Y-93278932D01*
X130051858Y-93350000D01*
X129918899Y-93421068D01*
X129700392Y-93600392D01*
X129521068Y-93818899D01*
X129387818Y-94068192D01*
X129305764Y-94338691D01*
X129278057Y-94620000D01*
X129305764Y-94901309D01*
X129387818Y-95171808D01*
X129521068Y-95421101D01*
X129700392Y-95639608D01*
X129918899Y-95818932D01*
X130168192Y-95952182D01*
X130438691Y-96034236D01*
X130649508Y-96055000D01*
X131590492Y-96055000D01*
X131801309Y-96034236D01*
X132071808Y-95952182D01*
X132321101Y-95818932D01*
X132539608Y-95639608D01*
X132718932Y-95421101D01*
X132745472Y-95371447D01*
X132846146Y-95317636D01*
X132973291Y-95213291D01*
X132999446Y-95181421D01*
X134561428Y-93619440D01*
X134593291Y-93593291D01*
X134697636Y-93466146D01*
X134775172Y-93321087D01*
X134822918Y-93163689D01*
X134835000Y-93041019D01*
X134835000Y-93041018D01*
X134839040Y-93000000D01*
X134835000Y-92958982D01*
X134835000Y-91186890D01*
X137558524Y-91186890D01*
X137603175Y-91334099D01*
X137728359Y-91596920D01*
X137902412Y-91830269D01*
X138118645Y-92025178D01*
X138244255Y-92100000D01*
X138118645Y-92174822D01*
X137902412Y-92369731D01*
X137728359Y-92603080D01*
X137603175Y-92865901D01*
X137558524Y-93013110D01*
X137679845Y-93243000D01*
X138873000Y-93243000D01*
X138873000Y-90957000D01*
X139127000Y-90957000D01*
X139127000Y-93243000D01*
X141413000Y-93243000D01*
X141413000Y-90957000D01*
X141667000Y-90957000D01*
X141667000Y-93243000D01*
X142860155Y-93243000D01*
X142981476Y-93013110D01*
X142936825Y-92865901D01*
X142811641Y-92603080D01*
X142637588Y-92369731D01*
X142421355Y-92174822D01*
X142295745Y-92100000D01*
X142421355Y-92025178D01*
X142637588Y-91830269D01*
X142811641Y-91596920D01*
X142936825Y-91334099D01*
X142981476Y-91186890D01*
X142860155Y-90957000D01*
X141667000Y-90957000D01*
X141413000Y-90957000D01*
X139127000Y-90957000D01*
X138873000Y-90957000D01*
X137679845Y-90957000D01*
X137558524Y-91186890D01*
X134835000Y-91186890D01*
X134835000Y-91041018D01*
X134839040Y-91000000D01*
X134822918Y-90836311D01*
X134775172Y-90678913D01*
X134697636Y-90533854D01*
X134619439Y-90438570D01*
X134619437Y-90438568D01*
X134593291Y-90406709D01*
X134561432Y-90380563D01*
X133159446Y-88978578D01*
X133133291Y-88946709D01*
X133006146Y-88842364D01*
X132861087Y-88764828D01*
X132703689Y-88717082D01*
X132700793Y-88716797D01*
X132643422Y-88646890D01*
X137558524Y-88646890D01*
X137603175Y-88794099D01*
X137728359Y-89056920D01*
X137902412Y-89290269D01*
X138118645Y-89485178D01*
X138244255Y-89560000D01*
X138118645Y-89634822D01*
X137902412Y-89829731D01*
X137728359Y-90063080D01*
X137603175Y-90325901D01*
X137558524Y-90473110D01*
X137679845Y-90703000D01*
X138873000Y-90703000D01*
X138873000Y-88417000D01*
X139127000Y-88417000D01*
X139127000Y-90703000D01*
X141413000Y-90703000D01*
X141413000Y-88417000D01*
X141667000Y-88417000D01*
X141667000Y-90703000D01*
X142860155Y-90703000D01*
X142981476Y-90473110D01*
X142936825Y-90325901D01*
X142811641Y-90063080D01*
X142637588Y-89829731D01*
X142421355Y-89634822D01*
X142295745Y-89560000D01*
X142421355Y-89485178D01*
X142637588Y-89290269D01*
X142811641Y-89056920D01*
X142936825Y-88794099D01*
X142981476Y-88646890D01*
X142860155Y-88417000D01*
X141667000Y-88417000D01*
X141413000Y-88417000D01*
X139127000Y-88417000D01*
X138873000Y-88417000D01*
X137679845Y-88417000D01*
X137558524Y-88646890D01*
X132643422Y-88646890D01*
X132539608Y-88520392D01*
X132321101Y-88341068D01*
X132188142Y-88270000D01*
X132321101Y-88198932D01*
X132539608Y-88019608D01*
X132691112Y-87835000D01*
X134958982Y-87835000D01*
X135000000Y-87839040D01*
X135041018Y-87835000D01*
X135041019Y-87835000D01*
X135163689Y-87822918D01*
X135321087Y-87775172D01*
X135466146Y-87697636D01*
X135593291Y-87593291D01*
X135619445Y-87561422D01*
X136595869Y-86585000D01*
X137511928Y-86585000D01*
X137511928Y-86600000D01*
X137524188Y-86724482D01*
X137560498Y-86844180D01*
X137619463Y-86954494D01*
X137698815Y-87051185D01*
X137795506Y-87130537D01*
X137905820Y-87189502D01*
X137986466Y-87213966D01*
X137902412Y-87289731D01*
X137728359Y-87523080D01*
X137603175Y-87785901D01*
X137558524Y-87933110D01*
X137679845Y-88163000D01*
X138873000Y-88163000D01*
X138873000Y-88143000D01*
X139127000Y-88143000D01*
X139127000Y-88163000D01*
X141413000Y-88163000D01*
X141413000Y-88143000D01*
X141667000Y-88143000D01*
X141667000Y-88163000D01*
X142860155Y-88163000D01*
X142981476Y-87933110D01*
X142936825Y-87785901D01*
X142811641Y-87523080D01*
X142637588Y-87289731D01*
X142421355Y-87094822D01*
X142304466Y-87025195D01*
X142486632Y-86903475D01*
X142693475Y-86696632D01*
X142722430Y-86653297D01*
X144165001Y-88095869D01*
X144165000Y-127654132D01*
X139904133Y-131915000D01*
X137288199Y-131915000D01*
X137192312Y-131771495D01*
X136978505Y-131557688D01*
X136727095Y-131389701D01*
X136447743Y-131273989D01*
X136151184Y-131215000D01*
X135848816Y-131215000D01*
X135552257Y-131273989D01*
X135272905Y-131389701D01*
X135021495Y-131557688D01*
X134807688Y-131771495D01*
X134750000Y-131857831D01*
X134692312Y-131771495D01*
X134478505Y-131557688D01*
X134227095Y-131389701D01*
X133947743Y-131273989D01*
X133651184Y-131215000D01*
X133348816Y-131215000D01*
X133052257Y-131273989D01*
X132772905Y-131389701D01*
X132521495Y-131557688D01*
X132307688Y-131771495D01*
X132250000Y-131857831D01*
X132192312Y-131771495D01*
X131978505Y-131557688D01*
X131835000Y-131461801D01*
X131835000Y-131345867D01*
X134311427Y-128869441D01*
X134343291Y-128843291D01*
X134447636Y-128716146D01*
X134525172Y-128571087D01*
X134572918Y-128413689D01*
X134585000Y-128291019D01*
X134585000Y-128291009D01*
X134589039Y-128250001D01*
X134585000Y-128208993D01*
X134585000Y-125490475D01*
X135265000Y-125490475D01*
X135265000Y-126009525D01*
X135366261Y-126518601D01*
X135564893Y-126998141D01*
X135853262Y-127429715D01*
X136220285Y-127796738D01*
X136651859Y-128085107D01*
X137131399Y-128283739D01*
X137640475Y-128385000D01*
X138159525Y-128385000D01*
X138668601Y-128283739D01*
X139148141Y-128085107D01*
X139579715Y-127796738D01*
X139946738Y-127429715D01*
X140235107Y-126998141D01*
X140433739Y-126518601D01*
X140535000Y-126009525D01*
X140535000Y-125490475D01*
X140433739Y-124981399D01*
X140235107Y-124501859D01*
X139946738Y-124070285D01*
X139579715Y-123703262D01*
X139148141Y-123414893D01*
X138668601Y-123216261D01*
X138159525Y-123115000D01*
X137640475Y-123115000D01*
X137131399Y-123216261D01*
X136651859Y-123414893D01*
X136220285Y-123703262D01*
X135853262Y-124070285D01*
X135564893Y-124501859D01*
X135366261Y-124981399D01*
X135265000Y-125490475D01*
X134585000Y-125490475D01*
X134585000Y-123095867D01*
X142101432Y-115579437D01*
X142133291Y-115553291D01*
X142237636Y-115426146D01*
X142315172Y-115281087D01*
X142362918Y-115123689D01*
X142375000Y-115001019D01*
X142375000Y-115001018D01*
X142379040Y-114960000D01*
X142375000Y-114918982D01*
X142375000Y-97138065D01*
X142486632Y-97063475D01*
X142693475Y-96856632D01*
X142855990Y-96613411D01*
X142967932Y-96343158D01*
X143025000Y-96056260D01*
X143025000Y-95763740D01*
X142967932Y-95476842D01*
X142855990Y-95206589D01*
X142693475Y-94963368D01*
X142486632Y-94756525D01*
X142304466Y-94634805D01*
X142421355Y-94565178D01*
X142637588Y-94370269D01*
X142811641Y-94136920D01*
X142936825Y-93874099D01*
X142981476Y-93726890D01*
X142860155Y-93497000D01*
X141667000Y-93497000D01*
X141667000Y-93517000D01*
X141413000Y-93517000D01*
X141413000Y-93497000D01*
X139127000Y-93497000D01*
X139127000Y-93517000D01*
X138873000Y-93517000D01*
X138873000Y-93497000D01*
X137679845Y-93497000D01*
X137558524Y-93726890D01*
X137603175Y-93874099D01*
X137728359Y-94136920D01*
X137902412Y-94370269D01*
X138118645Y-94565178D01*
X138235534Y-94634805D01*
X138053368Y-94756525D01*
X137846525Y-94963368D01*
X137684010Y-95206589D01*
X137572068Y-95476842D01*
X137515000Y-95763740D01*
X137515000Y-96056260D01*
X137536630Y-96165000D01*
X128345868Y-96165000D01*
X126800867Y-94620000D01*
X128561427Y-92859441D01*
X128593291Y-92833291D01*
X128697636Y-92706146D01*
X128775172Y-92561087D01*
X128822918Y-92403689D01*
X128835000Y-92281019D01*
X128835000Y-92281009D01*
X128839039Y-92240001D01*
X128835000Y-92198993D01*
X128835000Y-87041018D01*
X128839040Y-86999999D01*
X128822918Y-86836311D01*
X128775172Y-86678913D01*
X128697636Y-86533854D01*
X128627335Y-86448192D01*
X128593291Y-86406709D01*
X128561428Y-86380560D01*
X125369446Y-83188579D01*
X125343291Y-83156709D01*
X125216146Y-83052364D01*
X125071087Y-82974828D01*
X124913689Y-82927082D01*
X124791019Y-82915000D01*
X124791018Y-82915000D01*
X124750000Y-82910960D01*
X124708982Y-82915000D01*
X116917930Y-82915000D01*
X116864637Y-82835241D01*
X116664759Y-82635363D01*
X116429727Y-82478320D01*
X116168574Y-82370147D01*
X115891335Y-82315000D01*
X115608665Y-82315000D01*
X115331426Y-82370147D01*
X115070273Y-82478320D01*
X114835241Y-82635363D01*
X114635363Y-82835241D01*
X114478320Y-83070273D01*
X114370147Y-83331426D01*
X114315000Y-83608665D01*
X114315000Y-83891335D01*
X114370147Y-84168574D01*
X114478320Y-84429727D01*
X114635363Y-84664759D01*
X114835241Y-84864637D01*
X115070273Y-85021680D01*
X115331426Y-85129853D01*
X115608665Y-85185000D01*
X115891335Y-85185000D01*
X116168574Y-85129853D01*
X116429727Y-85021680D01*
X116664759Y-84864637D01*
X116864637Y-84664759D01*
X116917930Y-84585000D01*
X124404133Y-84585000D01*
X127165000Y-87345868D01*
X127165001Y-91894131D01*
X125274133Y-93785000D01*
X125071112Y-93785000D01*
X124919608Y-93600392D01*
X124701101Y-93421068D01*
X124568142Y-93350000D01*
X124701101Y-93278932D01*
X124919608Y-93099608D01*
X125098932Y-92881101D01*
X125232182Y-92631808D01*
X125314236Y-92361309D01*
X125341943Y-92080000D01*
X125314236Y-91798691D01*
X125232182Y-91528192D01*
X125098932Y-91278899D01*
X124919608Y-91060392D01*
X124701101Y-90881068D01*
X124568142Y-90810000D01*
X124701101Y-90738932D01*
X124919608Y-90559608D01*
X125098932Y-90341101D01*
X125232182Y-90091808D01*
X125314236Y-89821309D01*
X125341943Y-89540000D01*
X125314236Y-89258691D01*
X125232182Y-88988192D01*
X125098932Y-88738899D01*
X124919608Y-88520392D01*
X124806518Y-88427581D01*
X124824482Y-88425812D01*
X124944180Y-88389502D01*
X125054494Y-88330537D01*
X125151185Y-88251185D01*
X125230537Y-88154494D01*
X125289502Y-88044180D01*
X125325812Y-87924482D01*
X125338072Y-87800000D01*
X125338072Y-86200000D01*
X125325812Y-86075518D01*
X125289502Y-85955820D01*
X125230537Y-85845506D01*
X125151185Y-85748815D01*
X125054494Y-85669463D01*
X124944180Y-85610498D01*
X124824482Y-85574188D01*
X124700000Y-85561928D01*
X122300000Y-85561928D01*
X122175518Y-85574188D01*
X122055820Y-85610498D01*
X121945506Y-85669463D01*
X121848815Y-85748815D01*
X121769463Y-85845506D01*
X121710498Y-85955820D01*
X121674188Y-86075518D01*
X121665375Y-86165000D01*
X121041007Y-86165000D01*
X120999999Y-86160961D01*
X120958991Y-86165000D01*
X120958981Y-86165000D01*
X120836311Y-86177082D01*
X120678913Y-86224828D01*
X120533854Y-86302364D01*
X120406709Y-86406709D01*
X120380561Y-86438571D01*
X117454133Y-89365000D01*
X116967930Y-89365000D01*
X116914637Y-89285241D01*
X116714759Y-89085363D01*
X116479727Y-88928320D01*
X116218574Y-88820147D01*
X115941335Y-88765000D01*
X115658665Y-88765000D01*
X115381426Y-88820147D01*
X115120273Y-88928320D01*
X114885241Y-89085363D01*
X114685363Y-89285241D01*
X114528320Y-89520273D01*
X114420147Y-89781426D01*
X114365000Y-90058665D01*
X114365000Y-90341335D01*
X114420147Y-90618574D01*
X114528320Y-90879727D01*
X114685363Y-91114759D01*
X114885241Y-91314637D01*
X115120273Y-91471680D01*
X115381426Y-91579853D01*
X115658665Y-91635000D01*
X115941335Y-91635000D01*
X116218574Y-91579853D01*
X116479727Y-91471680D01*
X116714759Y-91314637D01*
X116914637Y-91114759D01*
X116967930Y-91035000D01*
X117758982Y-91035000D01*
X117800000Y-91039040D01*
X117841018Y-91035000D01*
X117841019Y-91035000D01*
X117963689Y-91022918D01*
X118121087Y-90975172D01*
X118266146Y-90897636D01*
X118393291Y-90793291D01*
X118419446Y-90761421D01*
X121345868Y-87835000D01*
X121665375Y-87835000D01*
X121674188Y-87924482D01*
X121710498Y-88044180D01*
X121769463Y-88154494D01*
X121848815Y-88251185D01*
X121945506Y-88330537D01*
X122055820Y-88389502D01*
X122175518Y-88425812D01*
X122193482Y-88427581D01*
X122080392Y-88520392D01*
X121928888Y-88705000D01*
X121751018Y-88705000D01*
X121710000Y-88700960D01*
X121668982Y-88705000D01*
X121668981Y-88705000D01*
X121546311Y-88717082D01*
X121388913Y-88764828D01*
X121243854Y-88842364D01*
X121116709Y-88946709D01*
X121090563Y-88978568D01*
X117554133Y-92515000D01*
X116967930Y-92515000D01*
X116914637Y-92435241D01*
X116714759Y-92235363D01*
X116479727Y-92078320D01*
X116218574Y-91970147D01*
X115941335Y-91915000D01*
X115658665Y-91915000D01*
X115381426Y-91970147D01*
X115120273Y-92078320D01*
X114885241Y-92235363D01*
X114685363Y-92435241D01*
X114528320Y-92670273D01*
X114420147Y-92931426D01*
X114365000Y-93208665D01*
X114365000Y-93491335D01*
X114420147Y-93768574D01*
X114528320Y-94029727D01*
X114685363Y-94264759D01*
X114885241Y-94464637D01*
X114965000Y-94517930D01*
X114965001Y-95355342D01*
X114845241Y-95435363D01*
X114645363Y-95635241D01*
X114488320Y-95870273D01*
X114380147Y-96131426D01*
X114325000Y-96408665D01*
X114325000Y-96691335D01*
X114380147Y-96968574D01*
X114488320Y-97229727D01*
X114645363Y-97464759D01*
X114845241Y-97664637D01*
X115080273Y-97821680D01*
X115341426Y-97929853D01*
X115618665Y-97985000D01*
X115901335Y-97985000D01*
X116178574Y-97929853D01*
X116439727Y-97821680D01*
X116674759Y-97664637D01*
X116874637Y-97464759D01*
X117031680Y-97229727D01*
X117139853Y-96968574D01*
X117195000Y-96691335D01*
X117195000Y-96408665D01*
X117139853Y-96131426D01*
X117031680Y-95870273D01*
X116874637Y-95635241D01*
X116674759Y-95435363D01*
X116635000Y-95408797D01*
X116635000Y-94517930D01*
X116714759Y-94464637D01*
X116914637Y-94264759D01*
X116967930Y-94185000D01*
X117858982Y-94185000D01*
X117900000Y-94189040D01*
X117941018Y-94185000D01*
X117941019Y-94185000D01*
X118063689Y-94172918D01*
X118221087Y-94125172D01*
X118366146Y-94047636D01*
X118493291Y-93943291D01*
X118519446Y-93911421D01*
X121986125Y-90444744D01*
X122080392Y-90559608D01*
X122298899Y-90738932D01*
X122431858Y-90810000D01*
X122298899Y-90881068D01*
X122080392Y-91060392D01*
X121931291Y-91242072D01*
X121920000Y-91240960D01*
X121878981Y-91245000D01*
X121756311Y-91257082D01*
X121598913Y-91304828D01*
X121453854Y-91382364D01*
X121326709Y-91486709D01*
X121300559Y-91518573D01*
X118188574Y-94630559D01*
X118156710Y-94656709D01*
X118075907Y-94755168D01*
X118052364Y-94783855D01*
X117974828Y-94928914D01*
X117927082Y-95086312D01*
X117910960Y-95250000D01*
X117915001Y-95291028D01*
X117915000Y-96454132D01*
X116035418Y-98333715D01*
X115941335Y-98315000D01*
X115658665Y-98315000D01*
X115381426Y-98370147D01*
X115120273Y-98478320D01*
X115107634Y-98486765D01*
X107056285Y-90435418D01*
X107075000Y-90341335D01*
X107075000Y-90058665D01*
X107019853Y-89781426D01*
X106911680Y-89520273D01*
X106754637Y-89285241D01*
X106554759Y-89085363D01*
X106319727Y-88928320D01*
X106058574Y-88820147D01*
X105781335Y-88765000D01*
X105498665Y-88765000D01*
X105221426Y-88820147D01*
X104960273Y-88928320D01*
X104725241Y-89085363D01*
X104525363Y-89285241D01*
X104368320Y-89520273D01*
X104260147Y-89781426D01*
X104205000Y-90058665D01*
X104205000Y-90341335D01*
X104260147Y-90618574D01*
X104368320Y-90879727D01*
X104404012Y-90933144D01*
X102675000Y-89204133D01*
X102675000Y-86858665D01*
X104205000Y-86858665D01*
X104205000Y-87141335D01*
X104260147Y-87418574D01*
X104368320Y-87679727D01*
X104525363Y-87914759D01*
X104725241Y-88114637D01*
X104960273Y-88271680D01*
X105221426Y-88379853D01*
X105498665Y-88435000D01*
X105781335Y-88435000D01*
X106058574Y-88379853D01*
X106319727Y-88271680D01*
X106554759Y-88114637D01*
X106754637Y-87914759D01*
X106911680Y-87679727D01*
X107019853Y-87418574D01*
X107075000Y-87141335D01*
X107075000Y-86858665D01*
X107019853Y-86581426D01*
X106911680Y-86320273D01*
X106754637Y-86085241D01*
X106554759Y-85885363D01*
X106319727Y-85728320D01*
X106058574Y-85620147D01*
X105781335Y-85565000D01*
X105498665Y-85565000D01*
X105221426Y-85620147D01*
X104960273Y-85728320D01*
X104725241Y-85885363D01*
X104525363Y-86085241D01*
X104368320Y-86320273D01*
X104260147Y-86581426D01*
X104205000Y-86858665D01*
X102675000Y-86858665D01*
X102675000Y-84595867D01*
X103662202Y-83608665D01*
X104155000Y-83608665D01*
X104155000Y-83891335D01*
X104210147Y-84168574D01*
X104318320Y-84429727D01*
X104475363Y-84664759D01*
X104675241Y-84864637D01*
X104910273Y-85021680D01*
X105171426Y-85129853D01*
X105448665Y-85185000D01*
X105731335Y-85185000D01*
X106008574Y-85129853D01*
X106269727Y-85021680D01*
X106504759Y-84864637D01*
X106704637Y-84664759D01*
X106861680Y-84429727D01*
X106969853Y-84168574D01*
X107025000Y-83891335D01*
X107025000Y-83608665D01*
X106969853Y-83331426D01*
X106861680Y-83070273D01*
X106704637Y-82835241D01*
X106504759Y-82635363D01*
X106269727Y-82478320D01*
X106008574Y-82370147D01*
X105731335Y-82315000D01*
X105448665Y-82315000D01*
X105171426Y-82370147D01*
X104910273Y-82478320D01*
X104675241Y-82635363D01*
X104475363Y-82835241D01*
X104318320Y-83070273D01*
X104210147Y-83331426D01*
X104155000Y-83608665D01*
X103662202Y-83608665D01*
X105354583Y-81916286D01*
X105448665Y-81935000D01*
X105731335Y-81935000D01*
X106008574Y-81879853D01*
X106269727Y-81771680D01*
X106504759Y-81614637D01*
X106704637Y-81414759D01*
X106861680Y-81179727D01*
X106969853Y-80918574D01*
X107025000Y-80641335D01*
X107025000Y-80358665D01*
X106969853Y-80081426D01*
X106861680Y-79820273D01*
X106704637Y-79585241D01*
X106504759Y-79385363D01*
X106269727Y-79228320D01*
X106008574Y-79120147D01*
X105731335Y-79065000D01*
X105448665Y-79065000D01*
X105171426Y-79120147D01*
X104910273Y-79228320D01*
X104675241Y-79385363D01*
X104475363Y-79585241D01*
X104318320Y-79820273D01*
X104210147Y-80081426D01*
X104155000Y-80358665D01*
X104155000Y-80641335D01*
X104173714Y-80735417D01*
X101278579Y-83630554D01*
X101246709Y-83656709D01*
X101170148Y-83750000D01*
X101142364Y-83783855D01*
X101064828Y-83928914D01*
X101017082Y-84086312D01*
X101000960Y-84250000D01*
X101005000Y-84291019D01*
X101005001Y-89508972D01*
X101000960Y-89550000D01*
X101017082Y-89713688D01*
X101064828Y-89871086D01*
X101142364Y-90016145D01*
X101142365Y-90016146D01*
X101246710Y-90143291D01*
X101278574Y-90169441D01*
X104223714Y-93114583D01*
X104205000Y-93208665D01*
X104205000Y-93491335D01*
X104260147Y-93768574D01*
X104368320Y-94029727D01*
X104525363Y-94264759D01*
X104725241Y-94464637D01*
X104960273Y-94621680D01*
X105221426Y-94729853D01*
X105498665Y-94785000D01*
X105781335Y-94785000D01*
X106058574Y-94729853D01*
X106319727Y-94621680D01*
X106554759Y-94464637D01*
X106754637Y-94264759D01*
X106911680Y-94029727D01*
X107019853Y-93768574D01*
X107075000Y-93491335D01*
X107075000Y-93208665D01*
X107019853Y-92931426D01*
X106911680Y-92670273D01*
X106875987Y-92616854D01*
X114418270Y-100159139D01*
X114420147Y-100168574D01*
X114522220Y-100415000D01*
X113095868Y-100415000D01*
X111869446Y-99188579D01*
X111843291Y-99156709D01*
X111716146Y-99052364D01*
X111571087Y-98974828D01*
X111413689Y-98927082D01*
X111291019Y-98915000D01*
X111291018Y-98915000D01*
X111250000Y-98910960D01*
X111208982Y-98915000D01*
X106807930Y-98915000D01*
X106754637Y-98835241D01*
X106554759Y-98635363D01*
X106319727Y-98478320D01*
X106058574Y-98370147D01*
X105781335Y-98315000D01*
X105498665Y-98315000D01*
X105221426Y-98370147D01*
X104960273Y-98478320D01*
X104725241Y-98635363D01*
X104525363Y-98835241D01*
X104368320Y-99070273D01*
X104260147Y-99331426D01*
X104205000Y-99608665D01*
X104205000Y-99891335D01*
X104260147Y-100168574D01*
X104368320Y-100429727D01*
X104525363Y-100664759D01*
X104725241Y-100864637D01*
X104960273Y-101021680D01*
X105221426Y-101129853D01*
X105498665Y-101185000D01*
X105781335Y-101185000D01*
X106058574Y-101129853D01*
X106319727Y-101021680D01*
X106554759Y-100864637D01*
X106754637Y-100664759D01*
X106807930Y-100585000D01*
X110904133Y-100585000D01*
X112130559Y-101811426D01*
X112156709Y-101843291D01*
X112283854Y-101947636D01*
X112428913Y-102025172D01*
X112586311Y-102072918D01*
X112708981Y-102085000D01*
X112708991Y-102085000D01*
X112749999Y-102089039D01*
X112791007Y-102085000D01*
X114685604Y-102085000D01*
X114685363Y-102085241D01*
X114528320Y-102320273D01*
X114420147Y-102581426D01*
X114365000Y-102858665D01*
X114365000Y-103141335D01*
X114420147Y-103418574D01*
X114528320Y-103679727D01*
X114685363Y-103914759D01*
X114885241Y-104114637D01*
X114965000Y-104167930D01*
X114965001Y-105032069D01*
X114885241Y-105085363D01*
X114685363Y-105285241D01*
X114528320Y-105520273D01*
X114420147Y-105781426D01*
X114365000Y-106058665D01*
X114365000Y-106341335D01*
X114420147Y-106618574D01*
X114528320Y-106879727D01*
X114685363Y-107114759D01*
X114885241Y-107314637D01*
X115120273Y-107471680D01*
X115381426Y-107579853D01*
X115658665Y-107635000D01*
X115941335Y-107635000D01*
X116218574Y-107579853D01*
X116479727Y-107471680D01*
X116714759Y-107314637D01*
X116914637Y-107114759D01*
X117071680Y-106879727D01*
X117179853Y-106618574D01*
X117235000Y-106341335D01*
X117235000Y-106058665D01*
X117179853Y-105781426D01*
X117071680Y-105520273D01*
X116914637Y-105285241D01*
X116714759Y-105085363D01*
X116635000Y-105032070D01*
X116635000Y-104167930D01*
X116714759Y-104114637D01*
X116914637Y-103914759D01*
X116967930Y-103835000D01*
X123566315Y-103835000D01*
X123567114Y-103835799D01*
X123683483Y-103913555D01*
X123575518Y-103924188D01*
X123455820Y-103960498D01*
X123345506Y-104019463D01*
X123248815Y-104098815D01*
X123169463Y-104195506D01*
X123110498Y-104305820D01*
X123074188Y-104425518D01*
X123070299Y-104465000D01*
X122491018Y-104465000D01*
X122450000Y-104460960D01*
X122408982Y-104465000D01*
X122408981Y-104465000D01*
X122286311Y-104477082D01*
X122128913Y-104524828D01*
X121983854Y-104602364D01*
X121890579Y-104678913D01*
X121856709Y-104706709D01*
X121830563Y-104738568D01*
X118004133Y-108565000D01*
X116967930Y-108565000D01*
X116914637Y-108485241D01*
X116714759Y-108285363D01*
X116479727Y-108128320D01*
X116218574Y-108020147D01*
X115941335Y-107965000D01*
X115658665Y-107965000D01*
X115381426Y-108020147D01*
X115120273Y-108128320D01*
X114885241Y-108285363D01*
X114685363Y-108485241D01*
X114528320Y-108720273D01*
X114420147Y-108981426D01*
X114365000Y-109258665D01*
X114365000Y-109541335D01*
X114420147Y-109818574D01*
X114528320Y-110079727D01*
X114585297Y-110165000D01*
X107585869Y-110165000D01*
X107056286Y-109635418D01*
X107075000Y-109541335D01*
X107075000Y-109258665D01*
X107019853Y-108981426D01*
X106911680Y-108720273D01*
X106754637Y-108485241D01*
X106554759Y-108285363D01*
X106319727Y-108128320D01*
X106058574Y-108020147D01*
X105781335Y-107965000D01*
X105498665Y-107965000D01*
X105221426Y-108020147D01*
X104960273Y-108128320D01*
X104725241Y-108285363D01*
X104525363Y-108485241D01*
X104368320Y-108720273D01*
X104260147Y-108981426D01*
X104205000Y-109258665D01*
X104205000Y-109541335D01*
X104260147Y-109818574D01*
X104368320Y-110079727D01*
X104525363Y-110314759D01*
X104725241Y-110514637D01*
X104960273Y-110671680D01*
X105221426Y-110779853D01*
X105498665Y-110835000D01*
X105781335Y-110835000D01*
X105875418Y-110816286D01*
X106620563Y-111561432D01*
X106646709Y-111593291D01*
X106678568Y-111619437D01*
X106678570Y-111619439D01*
X106740864Y-111670562D01*
X106773854Y-111697636D01*
X106918913Y-111775172D01*
X107076311Y-111822918D01*
X107198981Y-111835000D01*
X107198982Y-111835000D01*
X107240000Y-111839040D01*
X107281018Y-111835000D01*
X114652115Y-111835000D01*
X114528320Y-112020273D01*
X114420147Y-112281426D01*
X114365000Y-112558665D01*
X114365000Y-112841335D01*
X114383715Y-112935418D01*
X113438579Y-113880554D01*
X113406709Y-113906709D01*
X113302365Y-114033854D01*
X113302364Y-114033855D01*
X113224828Y-114178914D01*
X113177082Y-114336312D01*
X113160960Y-114500000D01*
X113165000Y-114541019D01*
X113165001Y-117958972D01*
X113160960Y-118000000D01*
X113177082Y-118163688D01*
X113224828Y-118321086D01*
X113302364Y-118466145D01*
X113302365Y-118466146D01*
X113406710Y-118593291D01*
X113438574Y-118619441D01*
X116380563Y-121561432D01*
X116406709Y-121593291D01*
X116533854Y-121697636D01*
X116678913Y-121775172D01*
X116836311Y-121822918D01*
X116958981Y-121835000D01*
X116958982Y-121835000D01*
X117000000Y-121839040D01*
X117041018Y-121835000D01*
X118013356Y-121835000D01*
X118179523Y-122083687D01*
X118416313Y-122320477D01*
X118694748Y-122506521D01*
X119004128Y-122634670D01*
X119332565Y-122700000D01*
X119667435Y-122700000D01*
X119995872Y-122634670D01*
X120305252Y-122506521D01*
X120583687Y-122320477D01*
X120820477Y-122083687D01*
X121006521Y-121805252D01*
X121134670Y-121495872D01*
X121200000Y-121167435D01*
X121200000Y-120832565D01*
X121134670Y-120504128D01*
X121006521Y-120194748D01*
X120820477Y-119916313D01*
X120583687Y-119679523D01*
X120305252Y-119493479D01*
X119995872Y-119365330D01*
X119667435Y-119300000D01*
X119332565Y-119300000D01*
X119004128Y-119365330D01*
X118694748Y-119493479D01*
X118416313Y-119679523D01*
X118179523Y-119916313D01*
X118013356Y-120165000D01*
X117345869Y-120165000D01*
X114835000Y-117654133D01*
X114835000Y-117114396D01*
X114835241Y-117114637D01*
X115070273Y-117271680D01*
X115331426Y-117379853D01*
X115608665Y-117435000D01*
X115891335Y-117435000D01*
X116168574Y-117379853D01*
X116429727Y-117271680D01*
X116664759Y-117114637D01*
X116864637Y-116914759D01*
X116917930Y-116835000D01*
X116958982Y-116835000D01*
X117000000Y-116839040D01*
X117041018Y-116835000D01*
X117041019Y-116835000D01*
X117163689Y-116822918D01*
X117321087Y-116775172D01*
X117466146Y-116697636D01*
X117593291Y-116593291D01*
X117619446Y-116561421D01*
X118393874Y-115786993D01*
X122972612Y-115786993D01*
X123038137Y-116025860D01*
X123285116Y-116141760D01*
X123549960Y-116207250D01*
X123822492Y-116219812D01*
X124092238Y-116178965D01*
X124348832Y-116086277D01*
X124461863Y-116025860D01*
X124527388Y-115786993D01*
X123750000Y-115009605D01*
X122972612Y-115786993D01*
X118393874Y-115786993D01*
X119278375Y-114902492D01*
X122360188Y-114902492D01*
X122401035Y-115172238D01*
X122493723Y-115428832D01*
X122554140Y-115541863D01*
X122793007Y-115607388D01*
X123570395Y-114830000D01*
X123929605Y-114830000D01*
X124706993Y-115607388D01*
X124945860Y-115541863D01*
X125061760Y-115294884D01*
X125127250Y-115030040D01*
X125139812Y-114757508D01*
X125098965Y-114487762D01*
X125006277Y-114231168D01*
X124945860Y-114118137D01*
X124706993Y-114052612D01*
X123929605Y-114830000D01*
X123570395Y-114830000D01*
X122793007Y-114052612D01*
X122554140Y-114118137D01*
X122438240Y-114365116D01*
X122372750Y-114629960D01*
X122360188Y-114902492D01*
X119278375Y-114902492D01*
X121055868Y-113125000D01*
X122642205Y-113125000D01*
X122674201Y-113172886D01*
X122867114Y-113365799D01*
X123093957Y-113517371D01*
X123193279Y-113558511D01*
X123151168Y-113573723D01*
X123038137Y-113634140D01*
X122972612Y-113873007D01*
X123750000Y-114650395D01*
X124527388Y-113873007D01*
X124461863Y-113634140D01*
X124303523Y-113559836D01*
X124406043Y-113517371D01*
X124632886Y-113365799D01*
X124825799Y-113172886D01*
X124977371Y-112946043D01*
X125081775Y-112693989D01*
X125135000Y-112426411D01*
X125135000Y-112153589D01*
X125081775Y-111886011D01*
X124977371Y-111633957D01*
X124825799Y-111407114D01*
X124632886Y-111214201D01*
X124516517Y-111136445D01*
X124624482Y-111125812D01*
X124744180Y-111089502D01*
X124854494Y-111030537D01*
X124951185Y-110951185D01*
X125030537Y-110854494D01*
X125089502Y-110744180D01*
X125125812Y-110624482D01*
X125138072Y-110500000D01*
X125138072Y-109000000D01*
X125125812Y-108875518D01*
X125089502Y-108755820D01*
X125030537Y-108645506D01*
X124951185Y-108548815D01*
X124854494Y-108469463D01*
X124744180Y-108410498D01*
X124624482Y-108374188D01*
X124500000Y-108361928D01*
X123000000Y-108361928D01*
X122875518Y-108374188D01*
X122755820Y-108410498D01*
X122645506Y-108469463D01*
X122548815Y-108548815D01*
X122469463Y-108645506D01*
X122410498Y-108755820D01*
X122374188Y-108875518D01*
X122370299Y-108915000D01*
X121291018Y-108915000D01*
X121250000Y-108910960D01*
X121208981Y-108915000D01*
X121086311Y-108927082D01*
X120928913Y-108974828D01*
X120783854Y-109052364D01*
X120656709Y-109156709D01*
X120630563Y-109188568D01*
X119654133Y-110165000D01*
X118690117Y-110165000D01*
X118816146Y-110097636D01*
X118943291Y-109993291D01*
X118969446Y-109961421D01*
X122795869Y-106135000D01*
X123070299Y-106135000D01*
X123074188Y-106174482D01*
X123110498Y-106294180D01*
X123169463Y-106404494D01*
X123248815Y-106501185D01*
X123345506Y-106580537D01*
X123455820Y-106639502D01*
X123575518Y-106675812D01*
X123700000Y-106688072D01*
X125200000Y-106688072D01*
X125324482Y-106675812D01*
X125444180Y-106639502D01*
X125554494Y-106580537D01*
X125651185Y-106501185D01*
X125730537Y-106404494D01*
X125789502Y-106294180D01*
X125825812Y-106174482D01*
X125829701Y-106135000D01*
X129470299Y-106135000D01*
X129474188Y-106174482D01*
X129510498Y-106294180D01*
X129569463Y-106404494D01*
X129648815Y-106501185D01*
X129745506Y-106580537D01*
X129855820Y-106639502D01*
X129975518Y-106675812D01*
X130100000Y-106688072D01*
X131600000Y-106688072D01*
X131724482Y-106675812D01*
X131844180Y-106639502D01*
X131954494Y-106580537D01*
X132051185Y-106501185D01*
X132130537Y-106404494D01*
X132189502Y-106294180D01*
X132225812Y-106174482D01*
X132238072Y-106050000D01*
X132238072Y-104550000D01*
X132225812Y-104425518D01*
X132189502Y-104305820D01*
X132130537Y-104195506D01*
X132051185Y-104098815D01*
X131954494Y-104019463D01*
X131844180Y-103960498D01*
X131724482Y-103924188D01*
X131600000Y-103911928D01*
X131573914Y-103911928D01*
X131627388Y-103716993D01*
X130850000Y-102939605D01*
X130072612Y-103716993D01*
X130126086Y-103911928D01*
X130100000Y-103911928D01*
X129975518Y-103924188D01*
X129855820Y-103960498D01*
X129745506Y-104019463D01*
X129648815Y-104098815D01*
X129569463Y-104195506D01*
X129510498Y-104305820D01*
X129474188Y-104425518D01*
X129470299Y-104465000D01*
X125829701Y-104465000D01*
X125825812Y-104425518D01*
X125789502Y-104305820D01*
X125730537Y-104195506D01*
X125651185Y-104098815D01*
X125554494Y-104019463D01*
X125444180Y-103960498D01*
X125324482Y-103924188D01*
X125216517Y-103913555D01*
X125332886Y-103835799D01*
X125525799Y-103642886D01*
X125677371Y-103416043D01*
X125781775Y-103163989D01*
X125835000Y-102896411D01*
X125835000Y-102832492D01*
X129460188Y-102832492D01*
X129501035Y-103102238D01*
X129593723Y-103358832D01*
X129654140Y-103471863D01*
X129893007Y-103537388D01*
X130670395Y-102760000D01*
X131029605Y-102760000D01*
X131806993Y-103537388D01*
X132045860Y-103471863D01*
X132161760Y-103224884D01*
X132227250Y-102960040D01*
X132239812Y-102687508D01*
X132198965Y-102417762D01*
X132106277Y-102161168D01*
X132045860Y-102048137D01*
X131806993Y-101982612D01*
X131029605Y-102760000D01*
X130670395Y-102760000D01*
X129893007Y-101982612D01*
X129654140Y-102048137D01*
X129538240Y-102295116D01*
X129472750Y-102559960D01*
X129460188Y-102832492D01*
X125835000Y-102832492D01*
X125835000Y-102623589D01*
X125781775Y-102356011D01*
X125677371Y-102103957D01*
X125525799Y-101877114D01*
X125332886Y-101684201D01*
X125106043Y-101532629D01*
X125003127Y-101490000D01*
X125106043Y-101447371D01*
X125332886Y-101295799D01*
X125525799Y-101102886D01*
X125677371Y-100876043D01*
X125781775Y-100623989D01*
X125835000Y-100356411D01*
X125835000Y-100083589D01*
X129465000Y-100083589D01*
X129465000Y-100356411D01*
X129518225Y-100623989D01*
X129622629Y-100876043D01*
X129774201Y-101102886D01*
X129967114Y-101295799D01*
X130193957Y-101447371D01*
X130293279Y-101488511D01*
X130251168Y-101503723D01*
X130138137Y-101564140D01*
X130072612Y-101803007D01*
X130850000Y-102580395D01*
X131627388Y-101803007D01*
X131561863Y-101564140D01*
X131403523Y-101489836D01*
X131506043Y-101447371D01*
X131732886Y-101295799D01*
X131925799Y-101102886D01*
X132077371Y-100876043D01*
X132181775Y-100623989D01*
X132235000Y-100356411D01*
X132235000Y-100083589D01*
X132181775Y-99816011D01*
X132077371Y-99563957D01*
X131925799Y-99337114D01*
X131732886Y-99144201D01*
X131506043Y-98992629D01*
X131253989Y-98888225D01*
X130986411Y-98835000D01*
X130713589Y-98835000D01*
X130446011Y-98888225D01*
X130193957Y-98992629D01*
X129967114Y-99144201D01*
X129774201Y-99337114D01*
X129622629Y-99563957D01*
X129518225Y-99816011D01*
X129465000Y-100083589D01*
X125835000Y-100083589D01*
X125781775Y-99816011D01*
X125677371Y-99563957D01*
X125525799Y-99337114D01*
X125332886Y-99144201D01*
X125106043Y-98992629D01*
X124853989Y-98888225D01*
X124586411Y-98835000D01*
X124313589Y-98835000D01*
X124046011Y-98888225D01*
X123793957Y-98992629D01*
X123567114Y-99144201D01*
X123374201Y-99337114D01*
X123222629Y-99563957D01*
X123118225Y-99816011D01*
X123065000Y-100083589D01*
X123065000Y-100356411D01*
X123076236Y-100412897D01*
X123074133Y-100415000D01*
X117077780Y-100415000D01*
X117179853Y-100168574D01*
X117235000Y-99891335D01*
X117235000Y-99608665D01*
X117216285Y-99514582D01*
X119311428Y-97419440D01*
X119343291Y-97393291D01*
X119447636Y-97266146D01*
X119525172Y-97121087D01*
X119572918Y-96963689D01*
X119585000Y-96841019D01*
X119585000Y-96841018D01*
X119589040Y-96800001D01*
X119585000Y-96758982D01*
X119585000Y-95595867D01*
X122080869Y-93099999D01*
X122298899Y-93278932D01*
X122431858Y-93350000D01*
X122298899Y-93421068D01*
X122080392Y-93600392D01*
X121901068Y-93818899D01*
X121767818Y-94068192D01*
X121685764Y-94338691D01*
X121658057Y-94620000D01*
X121685764Y-94901309D01*
X121767818Y-95171808D01*
X121901068Y-95421101D01*
X122080392Y-95639608D01*
X122298899Y-95818932D01*
X122548192Y-95952182D01*
X122818691Y-96034236D01*
X123029508Y-96055000D01*
X123970492Y-96055000D01*
X124181309Y-96034236D01*
X124451808Y-95952182D01*
X124701101Y-95818932D01*
X124919608Y-95639608D01*
X125071112Y-95455000D01*
X125274133Y-95455000D01*
X127380559Y-97561427D01*
X127406709Y-97593291D01*
X127533854Y-97697636D01*
X127678913Y-97775172D01*
X127836311Y-97822918D01*
X127958981Y-97835000D01*
X127958991Y-97835000D01*
X127999999Y-97839039D01*
X128041007Y-97835000D01*
X137868982Y-97835000D01*
X137910000Y-97839040D01*
X137951018Y-97835000D01*
X137951019Y-97835000D01*
X138073689Y-97822918D01*
X138231087Y-97775172D01*
X138376146Y-97697636D01*
X138503291Y-97593291D01*
X138529445Y-97561422D01*
X138722060Y-97368807D01*
X138853740Y-97395000D01*
X139146260Y-97395000D01*
X139433158Y-97337932D01*
X139703411Y-97225990D01*
X139946632Y-97063475D01*
X140153475Y-96856632D01*
X140228065Y-96745000D01*
X140311935Y-96745000D01*
X140386525Y-96856632D01*
X140593368Y-97063475D01*
X140705000Y-97138065D01*
X140705001Y-114614130D01*
X133188579Y-122130554D01*
X133156709Y-122156709D01*
X133052365Y-122283854D01*
X133052364Y-122283855D01*
X132974828Y-122428914D01*
X132927082Y-122586312D01*
X132910960Y-122750000D01*
X132915000Y-122791019D01*
X132915001Y-127904131D01*
X130438579Y-130380554D01*
X130406709Y-130406709D01*
X130309490Y-130525172D01*
X130302364Y-130533855D01*
X130224828Y-130678914D01*
X130177082Y-130836312D01*
X130160960Y-131000000D01*
X130165000Y-131041019D01*
X130165000Y-131461801D01*
X130021495Y-131557688D01*
X129807688Y-131771495D01*
X129639701Y-132022905D01*
X129523989Y-132302257D01*
X129465000Y-132598816D01*
X129465000Y-132901184D01*
X129523989Y-133197743D01*
X129639701Y-133477095D01*
X129807688Y-133728505D01*
X129994183Y-133915000D01*
X120674573Y-133915000D01*
X120709180Y-133904502D01*
X120819494Y-133845537D01*
X120916185Y-133766185D01*
X120995537Y-133669494D01*
X121054502Y-133559180D01*
X121090812Y-133439482D01*
X121103072Y-133315000D01*
X121100000Y-132685750D01*
X120941250Y-132527000D01*
X119627000Y-132527000D01*
X119627000Y-132547000D01*
X119373000Y-132547000D01*
X119373000Y-132527000D01*
X118058750Y-132527000D01*
X117900000Y-132685750D01*
X117896928Y-133315000D01*
X117909188Y-133439482D01*
X117945498Y-133559180D01*
X118004463Y-133669494D01*
X118083815Y-133766185D01*
X118180506Y-133845537D01*
X118290820Y-133904502D01*
X118325427Y-133915000D01*
X117095869Y-133915000D01*
X112585000Y-129404133D01*
X112585000Y-129132565D01*
X117800000Y-129132565D01*
X117800000Y-129467435D01*
X117865330Y-129795872D01*
X117993479Y-130105252D01*
X118179523Y-130383687D01*
X118416313Y-130620477D01*
X118694748Y-130806521D01*
X118795140Y-130848105D01*
X118535000Y-130846928D01*
X118410518Y-130859188D01*
X118290820Y-130895498D01*
X118180506Y-130954463D01*
X118083815Y-131033815D01*
X118004463Y-131130506D01*
X117945498Y-131240820D01*
X117909188Y-131360518D01*
X117896928Y-131485000D01*
X117900000Y-132114250D01*
X118058750Y-132273000D01*
X119373000Y-132273000D01*
X119373000Y-132253000D01*
X119627000Y-132253000D01*
X119627000Y-132273000D01*
X120941250Y-132273000D01*
X121100000Y-132114250D01*
X121103072Y-131485000D01*
X121090812Y-131360518D01*
X121054502Y-131240820D01*
X120995537Y-131130506D01*
X120916185Y-131033815D01*
X120819494Y-130954463D01*
X120709180Y-130895498D01*
X120589482Y-130859188D01*
X120465000Y-130846928D01*
X120204860Y-130848105D01*
X120305252Y-130806521D01*
X120583687Y-130620477D01*
X120820477Y-130383687D01*
X121006521Y-130105252D01*
X121134670Y-129795872D01*
X121200000Y-129467435D01*
X121200000Y-129132565D01*
X121134670Y-128804128D01*
X121006521Y-128494748D01*
X120820477Y-128216313D01*
X120583687Y-127979523D01*
X120305252Y-127793479D01*
X119995872Y-127665330D01*
X119667435Y-127600000D01*
X119332565Y-127600000D01*
X119004128Y-127665330D01*
X118694748Y-127793479D01*
X118416313Y-127979523D01*
X118179523Y-128216313D01*
X117993479Y-128494748D01*
X117865330Y-128804128D01*
X117800000Y-129132565D01*
X112585000Y-129132565D01*
X112585000Y-125490475D01*
X126465000Y-125490475D01*
X126465000Y-126009525D01*
X126566261Y-126518601D01*
X126764893Y-126998141D01*
X127053262Y-127429715D01*
X127420285Y-127796738D01*
X127851859Y-128085107D01*
X128331399Y-128283739D01*
X128840475Y-128385000D01*
X129359525Y-128385000D01*
X129868601Y-128283739D01*
X130348141Y-128085107D01*
X130779715Y-127796738D01*
X131146738Y-127429715D01*
X131435107Y-126998141D01*
X131633739Y-126518601D01*
X131735000Y-126009525D01*
X131735000Y-125490475D01*
X131633739Y-124981399D01*
X131435107Y-124501859D01*
X131146738Y-124070285D01*
X130779715Y-123703262D01*
X130348141Y-123414893D01*
X129868601Y-123216261D01*
X129359525Y-123115000D01*
X128840475Y-123115000D01*
X128331399Y-123216261D01*
X127851859Y-123414893D01*
X127420285Y-123703262D01*
X127053262Y-124070285D01*
X126764893Y-124501859D01*
X126566261Y-124981399D01*
X126465000Y-125490475D01*
X112585000Y-125490475D01*
X112585000Y-119541007D01*
X112589039Y-119499999D01*
X112585000Y-119458991D01*
X112585000Y-119458981D01*
X112572918Y-119336311D01*
X112525172Y-119178913D01*
X112447636Y-119033854D01*
X112343291Y-118906709D01*
X112311427Y-118880559D01*
X108869446Y-115438579D01*
X108843291Y-115406709D01*
X108716146Y-115302364D01*
X108571087Y-115224828D01*
X108413689Y-115177082D01*
X108291019Y-115165000D01*
X108291018Y-115165000D01*
X108250000Y-115160960D01*
X108208982Y-115165000D01*
X106757930Y-115165000D01*
X106704637Y-115085241D01*
X106504759Y-114885363D01*
X106269727Y-114728320D01*
X106008574Y-114620147D01*
X105731335Y-114565000D01*
X105448665Y-114565000D01*
X105171426Y-114620147D01*
X104910273Y-114728320D01*
X104675241Y-114885363D01*
X104475363Y-115085241D01*
X104318320Y-115320273D01*
X104210147Y-115581426D01*
X104155000Y-115858665D01*
X104155000Y-116141335D01*
X104210147Y-116418574D01*
X104318320Y-116679727D01*
X104475363Y-116914759D01*
X104675241Y-117114637D01*
X104910273Y-117271680D01*
X105171426Y-117379853D01*
X105448665Y-117435000D01*
X105731335Y-117435000D01*
X106008574Y-117379853D01*
X106269727Y-117271680D01*
X106504759Y-117114637D01*
X106704637Y-116914759D01*
X106757930Y-116835000D01*
X107904133Y-116835000D01*
X110915001Y-119845869D01*
X110915000Y-129708981D01*
X110910960Y-129750000D01*
X110915000Y-129791018D01*
X110927082Y-129913688D01*
X110974828Y-130071086D01*
X111052364Y-130216145D01*
X111156709Y-130343291D01*
X111188579Y-130369446D01*
X115692131Y-134873000D01*
X100127000Y-134873000D01*
X100127000Y-133165000D01*
X105646928Y-133165000D01*
X105659188Y-133289482D01*
X105695498Y-133409180D01*
X105754463Y-133519494D01*
X105833815Y-133616185D01*
X105930506Y-133695537D01*
X106040820Y-133754502D01*
X106160518Y-133790812D01*
X106285000Y-133803072D01*
X106964250Y-133800000D01*
X107123000Y-133641250D01*
X107123000Y-132377000D01*
X107377000Y-132377000D01*
X107377000Y-133641250D01*
X107535750Y-133800000D01*
X108215000Y-133803072D01*
X108339482Y-133790812D01*
X108459180Y-133754502D01*
X108569494Y-133695537D01*
X108666185Y-133616185D01*
X108745537Y-133519494D01*
X108804502Y-133409180D01*
X108840812Y-133289482D01*
X108853072Y-133165000D01*
X108850000Y-132535750D01*
X108691250Y-132377000D01*
X107377000Y-132377000D01*
X107123000Y-132377000D01*
X105808750Y-132377000D01*
X105650000Y-132535750D01*
X105646928Y-133165000D01*
X100127000Y-133165000D01*
X100127000Y-128982565D01*
X105550000Y-128982565D01*
X105550000Y-129317435D01*
X105615330Y-129645872D01*
X105743479Y-129955252D01*
X105929523Y-130233687D01*
X106166313Y-130470477D01*
X106444748Y-130656521D01*
X106545140Y-130698105D01*
X106285000Y-130696928D01*
X106160518Y-130709188D01*
X106040820Y-130745498D01*
X105930506Y-130804463D01*
X105833815Y-130883815D01*
X105754463Y-130980506D01*
X105695498Y-131090820D01*
X105659188Y-131210518D01*
X105646928Y-131335000D01*
X105650000Y-131964250D01*
X105808750Y-132123000D01*
X107123000Y-132123000D01*
X107123000Y-132103000D01*
X107377000Y-132103000D01*
X107377000Y-132123000D01*
X108691250Y-132123000D01*
X108850000Y-131964250D01*
X108853072Y-131335000D01*
X108840812Y-131210518D01*
X108804502Y-131090820D01*
X108745537Y-130980506D01*
X108666185Y-130883815D01*
X108569494Y-130804463D01*
X108459180Y-130745498D01*
X108339482Y-130709188D01*
X108215000Y-130696928D01*
X107954860Y-130698105D01*
X108055252Y-130656521D01*
X108333687Y-130470477D01*
X108570477Y-130233687D01*
X108756521Y-129955252D01*
X108884670Y-129645872D01*
X108950000Y-129317435D01*
X108950000Y-128982565D01*
X108884670Y-128654128D01*
X108756521Y-128344748D01*
X108570477Y-128066313D01*
X108333687Y-127829523D01*
X108055252Y-127643479D01*
X107745872Y-127515330D01*
X107417435Y-127450000D01*
X107082565Y-127450000D01*
X106754128Y-127515330D01*
X106444748Y-127643479D01*
X106166313Y-127829523D01*
X105929523Y-128066313D01*
X105743479Y-128344748D01*
X105615330Y-128654128D01*
X105550000Y-128982565D01*
X100127000Y-128982565D01*
X100127000Y-105000000D01*
X101160960Y-105000000D01*
X101165001Y-105041029D01*
X101165000Y-118958981D01*
X101160960Y-119000000D01*
X101165000Y-119041018D01*
X101177082Y-119163688D01*
X101224828Y-119321086D01*
X101302364Y-119466145D01*
X101406709Y-119593291D01*
X101438579Y-119619446D01*
X103230559Y-121411427D01*
X103256709Y-121443291D01*
X103383854Y-121547636D01*
X103528913Y-121625172D01*
X103686311Y-121672918D01*
X103849999Y-121689040D01*
X103891018Y-121685000D01*
X105763356Y-121685000D01*
X105929523Y-121933687D01*
X106166313Y-122170477D01*
X106444748Y-122356521D01*
X106754128Y-122484670D01*
X107082565Y-122550000D01*
X107417435Y-122550000D01*
X107745872Y-122484670D01*
X108055252Y-122356521D01*
X108333687Y-122170477D01*
X108570477Y-121933687D01*
X108756521Y-121655252D01*
X108884670Y-121345872D01*
X108950000Y-121017435D01*
X108950000Y-120682565D01*
X108884670Y-120354128D01*
X108756521Y-120044748D01*
X108570477Y-119766313D01*
X108333687Y-119529523D01*
X108055252Y-119343479D01*
X107745872Y-119215330D01*
X107417435Y-119150000D01*
X107082565Y-119150000D01*
X106754128Y-119215330D01*
X106444748Y-119343479D01*
X106166313Y-119529523D01*
X105929523Y-119766313D01*
X105763356Y-120015000D01*
X104195868Y-120015000D01*
X102835000Y-118654133D01*
X102835000Y-112558665D01*
X104205000Y-112558665D01*
X104205000Y-112841335D01*
X104260147Y-113118574D01*
X104368320Y-113379727D01*
X104525363Y-113614759D01*
X104725241Y-113814637D01*
X104960273Y-113971680D01*
X105221426Y-114079853D01*
X105498665Y-114135000D01*
X105781335Y-114135000D01*
X106058574Y-114079853D01*
X106319727Y-113971680D01*
X106554759Y-113814637D01*
X106754637Y-113614759D01*
X106911680Y-113379727D01*
X107019853Y-113118574D01*
X107075000Y-112841335D01*
X107075000Y-112558665D01*
X107019853Y-112281426D01*
X106911680Y-112020273D01*
X106754637Y-111785241D01*
X106554759Y-111585363D01*
X106319727Y-111428320D01*
X106058574Y-111320147D01*
X105781335Y-111265000D01*
X105498665Y-111265000D01*
X105221426Y-111320147D01*
X104960273Y-111428320D01*
X104725241Y-111585363D01*
X104525363Y-111785241D01*
X104368320Y-112020273D01*
X104260147Y-112281426D01*
X104205000Y-112558665D01*
X102835000Y-112558665D01*
X102835000Y-107192702D01*
X104826903Y-107192702D01*
X104898486Y-107436671D01*
X105153996Y-107557571D01*
X105428184Y-107626300D01*
X105710512Y-107640217D01*
X105990130Y-107598787D01*
X106256292Y-107503603D01*
X106381514Y-107436671D01*
X106453097Y-107192702D01*
X105640000Y-106379605D01*
X104826903Y-107192702D01*
X102835000Y-107192702D01*
X102835000Y-106270512D01*
X104199783Y-106270512D01*
X104241213Y-106550130D01*
X104336397Y-106816292D01*
X104403329Y-106941514D01*
X104647298Y-107013097D01*
X105460395Y-106200000D01*
X105819605Y-106200000D01*
X106632702Y-107013097D01*
X106876671Y-106941514D01*
X106997571Y-106686004D01*
X107066300Y-106411816D01*
X107080217Y-106129488D01*
X107038787Y-105849870D01*
X106943603Y-105583708D01*
X106876671Y-105458486D01*
X106632702Y-105386903D01*
X105819605Y-106200000D01*
X105460395Y-106200000D01*
X104647298Y-105386903D01*
X104403329Y-105458486D01*
X104282429Y-105713996D01*
X104213700Y-105988184D01*
X104199783Y-106270512D01*
X102835000Y-106270512D01*
X102835000Y-105345867D01*
X102973569Y-105207298D01*
X104826903Y-105207298D01*
X105640000Y-106020395D01*
X106453097Y-105207298D01*
X106381514Y-104963329D01*
X106126004Y-104842429D01*
X105851816Y-104773700D01*
X105569488Y-104759783D01*
X105289870Y-104801213D01*
X105023708Y-104896397D01*
X104898486Y-104963329D01*
X104826903Y-105207298D01*
X102973569Y-105207298D01*
X104345868Y-103835000D01*
X104472070Y-103835000D01*
X104525363Y-103914759D01*
X104725241Y-104114637D01*
X104960273Y-104271680D01*
X105221426Y-104379853D01*
X105498665Y-104435000D01*
X105781335Y-104435000D01*
X106058574Y-104379853D01*
X106319727Y-104271680D01*
X106554759Y-104114637D01*
X106754637Y-103914759D01*
X106911680Y-103679727D01*
X107019853Y-103418574D01*
X107075000Y-103141335D01*
X107075000Y-102858665D01*
X107019853Y-102581426D01*
X106911680Y-102320273D01*
X106754637Y-102085241D01*
X106554759Y-101885363D01*
X106319727Y-101728320D01*
X106058574Y-101620147D01*
X105781335Y-101565000D01*
X105498665Y-101565000D01*
X105221426Y-101620147D01*
X104960273Y-101728320D01*
X104725241Y-101885363D01*
X104525363Y-102085241D01*
X104472070Y-102165000D01*
X104041018Y-102165000D01*
X103999999Y-102160960D01*
X103958981Y-102165000D01*
X103836311Y-102177082D01*
X103678913Y-102224828D01*
X103533854Y-102302364D01*
X103406709Y-102406709D01*
X103380561Y-102438571D01*
X101438574Y-104380559D01*
X101406710Y-104406709D01*
X101325907Y-104505168D01*
X101302364Y-104533855D01*
X101224828Y-104678914D01*
X101177082Y-104836312D01*
X101160960Y-105000000D01*
X100127000Y-105000000D01*
X100127000Y-97542702D01*
X104786903Y-97542702D01*
X104858486Y-97786671D01*
X105113996Y-97907571D01*
X105388184Y-97976300D01*
X105670512Y-97990217D01*
X105950130Y-97948787D01*
X106216292Y-97853603D01*
X106341514Y-97786671D01*
X106413097Y-97542702D01*
X105600000Y-96729605D01*
X104786903Y-97542702D01*
X100127000Y-97542702D01*
X100127000Y-96620512D01*
X104159783Y-96620512D01*
X104201213Y-96900130D01*
X104296397Y-97166292D01*
X104363329Y-97291514D01*
X104607298Y-97363097D01*
X105420395Y-96550000D01*
X105779605Y-96550000D01*
X106592702Y-97363097D01*
X106836671Y-97291514D01*
X106957571Y-97036004D01*
X107026300Y-96761816D01*
X107040217Y-96479488D01*
X106998787Y-96199870D01*
X106903603Y-95933708D01*
X106836671Y-95808486D01*
X106592702Y-95736903D01*
X105779605Y-96550000D01*
X105420395Y-96550000D01*
X104607298Y-95736903D01*
X104363329Y-95808486D01*
X104242429Y-96063996D01*
X104173700Y-96338184D01*
X104159783Y-96620512D01*
X100127000Y-96620512D01*
X100127000Y-95557298D01*
X104786903Y-95557298D01*
X105600000Y-96370395D01*
X106413097Y-95557298D01*
X106341514Y-95313329D01*
X106086004Y-95192429D01*
X105811816Y-95123700D01*
X105529488Y-95109783D01*
X105249870Y-95151213D01*
X104983708Y-95246397D01*
X104858486Y-95313329D01*
X104786903Y-95557298D01*
X100127000Y-95557298D01*
X100127000Y-78127000D01*
X146873000Y-78127000D01*
X146873000Y-134873000D01*
%TA.AperFunction,Conductor*%
D24*
G36*
X146873000Y-134873000D02*
G01*
X133557868Y-134873000D01*
X134061432Y-134369437D01*
X134093291Y-134343291D01*
X134197636Y-134216146D01*
X134269279Y-134082113D01*
X134478505Y-133942312D01*
X134692312Y-133728505D01*
X134750000Y-133642169D01*
X134807688Y-133728505D01*
X135021495Y-133942312D01*
X135272905Y-134110299D01*
X135552257Y-134226011D01*
X135848816Y-134285000D01*
X136151184Y-134285000D01*
X136447743Y-134226011D01*
X136727095Y-134110299D01*
X136978505Y-133942312D01*
X137192312Y-133728505D01*
X137288199Y-133585000D01*
X140208982Y-133585000D01*
X140250000Y-133589040D01*
X140291018Y-133585000D01*
X140291019Y-133585000D01*
X140413689Y-133572918D01*
X140571087Y-133525172D01*
X140716146Y-133447636D01*
X140843291Y-133343291D01*
X140869446Y-133311421D01*
X145561428Y-128619440D01*
X145593291Y-128593291D01*
X145697636Y-128466146D01*
X145775172Y-128321087D01*
X145822918Y-128163689D01*
X145835000Y-128041019D01*
X145835000Y-128041009D01*
X145839039Y-128000001D01*
X145835000Y-127958993D01*
X145835000Y-87791018D01*
X145839040Y-87749999D01*
X145822918Y-87586311D01*
X145775172Y-87428913D01*
X145697636Y-87283854D01*
X145695547Y-87281309D01*
X145593291Y-87156709D01*
X145561427Y-87130559D01*
X143619446Y-85188579D01*
X143593291Y-85156709D01*
X143466146Y-85052364D01*
X143321087Y-84974828D01*
X143163689Y-84927082D01*
X143041019Y-84915000D01*
X143041018Y-84915000D01*
X143000000Y-84910960D01*
X142958982Y-84915000D01*
X142768065Y-84915000D01*
X142693475Y-84803368D01*
X142486632Y-84596525D01*
X142243411Y-84434010D01*
X141973158Y-84322068D01*
X141686260Y-84265000D01*
X141393740Y-84265000D01*
X141106842Y-84322068D01*
X140836589Y-84434010D01*
X140593368Y-84596525D01*
X140461513Y-84728380D01*
X140439502Y-84655820D01*
X140380537Y-84545506D01*
X140301185Y-84448815D01*
X140204494Y-84369463D01*
X140094180Y-84310498D01*
X139974482Y-84274188D01*
X139850000Y-84261928D01*
X138150000Y-84261928D01*
X138025518Y-84274188D01*
X137905820Y-84310498D01*
X137795506Y-84369463D01*
X137698815Y-84448815D01*
X137619463Y-84545506D01*
X137560498Y-84655820D01*
X137524188Y-84775518D01*
X137511928Y-84900000D01*
X137511928Y-84915000D01*
X136291018Y-84915000D01*
X136250000Y-84910960D01*
X136208981Y-84915000D01*
X136086311Y-84927082D01*
X135928913Y-84974828D01*
X135783854Y-85052364D01*
X135656709Y-85156709D01*
X135630563Y-85188568D01*
X134654133Y-86165000D01*
X132691112Y-86165000D01*
X132539608Y-85980392D01*
X132321101Y-85801068D01*
X132071808Y-85667818D01*
X131801309Y-85585764D01*
X131590492Y-85565000D01*
X130865868Y-85565000D01*
X125239446Y-79938579D01*
X125213291Y-79906709D01*
X125086146Y-79802364D01*
X124941087Y-79724828D01*
X124783689Y-79677082D01*
X124661019Y-79665000D01*
X124661018Y-79665000D01*
X124620000Y-79660960D01*
X124578982Y-79665000D01*
X116917930Y-79665000D01*
X116864637Y-79585241D01*
X116664759Y-79385363D01*
X116429727Y-79228320D01*
X116168574Y-79120147D01*
X115891335Y-79065000D01*
X115608665Y-79065000D01*
X115331426Y-79120147D01*
X115070273Y-79228320D01*
X114835241Y-79385363D01*
X114635363Y-79585241D01*
X114582070Y-79665000D01*
X113541007Y-79665000D01*
X113499999Y-79660961D01*
X113458991Y-79665000D01*
X113458981Y-79665000D01*
X113336311Y-79677082D01*
X113178913Y-79724828D01*
X113033854Y-79802364D01*
X112906709Y-79906709D01*
X112880559Y-79938574D01*
X111438574Y-81380559D01*
X111406710Y-81406709D01*
X111380562Y-81438571D01*
X111302364Y-81533855D01*
X111224828Y-81678914D01*
X111177082Y-81836312D01*
X111160960Y-82000000D01*
X111165001Y-82041028D01*
X111165000Y-84958981D01*
X111160960Y-85000000D01*
X111165000Y-85041018D01*
X111177082Y-85163688D01*
X111224828Y-85321086D01*
X111302364Y-85466145D01*
X111406709Y-85593291D01*
X111438579Y-85619446D01*
X113380559Y-87561427D01*
X113406709Y-87593291D01*
X113512032Y-87679727D01*
X113533854Y-87697636D01*
X113678913Y-87775172D01*
X113836311Y-87822918D01*
X113999999Y-87839040D01*
X114041018Y-87835000D01*
X114632070Y-87835000D01*
X114685363Y-87914759D01*
X114885241Y-88114637D01*
X115120273Y-88271680D01*
X115381426Y-88379853D01*
X115658665Y-88435000D01*
X115941335Y-88435000D01*
X116218574Y-88379853D01*
X116479727Y-88271680D01*
X116714759Y-88114637D01*
X116914637Y-87914759D01*
X117071680Y-87679727D01*
X117179853Y-87418574D01*
X117235000Y-87141335D01*
X117235000Y-86858665D01*
X117179853Y-86581426D01*
X117071680Y-86320273D01*
X116914637Y-86085241D01*
X116714759Y-85885363D01*
X116479727Y-85728320D01*
X116218574Y-85620147D01*
X115941335Y-85565000D01*
X115658665Y-85565000D01*
X115381426Y-85620147D01*
X115120273Y-85728320D01*
X114885241Y-85885363D01*
X114685363Y-86085241D01*
X114632070Y-86165000D01*
X114345868Y-86165000D01*
X112835000Y-84654133D01*
X112835000Y-82345867D01*
X113845868Y-81335000D01*
X114582070Y-81335000D01*
X114635363Y-81414759D01*
X114835241Y-81614637D01*
X115070273Y-81771680D01*
X115331426Y-81879853D01*
X115608665Y-81935000D01*
X115891335Y-81935000D01*
X116168574Y-81879853D01*
X116429727Y-81771680D01*
X116664759Y-81614637D01*
X116864637Y-81414759D01*
X116917930Y-81335000D01*
X124274133Y-81335000D01*
X129387703Y-86448571D01*
X129305764Y-86718691D01*
X129278057Y-87000000D01*
X129305764Y-87281309D01*
X129387818Y-87551808D01*
X129521068Y-87801101D01*
X129700392Y-88019608D01*
X129918899Y-88198932D01*
X130051858Y-88270000D01*
X129918899Y-88341068D01*
X129700392Y-88520392D01*
X129521068Y-88738899D01*
X129387818Y-88988192D01*
X129305764Y-89258691D01*
X129278057Y-89540000D01*
X129305764Y-89821309D01*
X129387818Y-90091808D01*
X129521068Y-90341101D01*
X129700392Y-90559608D01*
X129918899Y-90738932D01*
X130051858Y-90810000D01*
X129918899Y-90881068D01*
X129700392Y-91060392D01*
X129521068Y-91278899D01*
X129387818Y-91528192D01*
X129305764Y-91798691D01*
X129278057Y-92080000D01*
X129305764Y-92361309D01*
X129387818Y-92631808D01*
X129521068Y-92881101D01*
X129700392Y-93099608D01*
X129918899Y-93278932D01*
X130051858Y-93350000D01*
X129918899Y-93421068D01*
X129700392Y-93600392D01*
X129521068Y-93818899D01*
X129387818Y-94068192D01*
X129305764Y-94338691D01*
X129278057Y-94620000D01*
X129305764Y-94901309D01*
X129387818Y-95171808D01*
X129521068Y-95421101D01*
X129700392Y-95639608D01*
X129918899Y-95818932D01*
X130168192Y-95952182D01*
X130438691Y-96034236D01*
X130649508Y-96055000D01*
X131590492Y-96055000D01*
X131801309Y-96034236D01*
X132071808Y-95952182D01*
X132321101Y-95818932D01*
X132539608Y-95639608D01*
X132718932Y-95421101D01*
X132745472Y-95371447D01*
X132846146Y-95317636D01*
X132973291Y-95213291D01*
X132999446Y-95181421D01*
X134561428Y-93619440D01*
X134593291Y-93593291D01*
X134697636Y-93466146D01*
X134775172Y-93321087D01*
X134822918Y-93163689D01*
X134835000Y-93041019D01*
X134835000Y-93041018D01*
X134839040Y-93000000D01*
X134835000Y-92958982D01*
X134835000Y-91186890D01*
X137558524Y-91186890D01*
X137603175Y-91334099D01*
X137728359Y-91596920D01*
X137902412Y-91830269D01*
X138118645Y-92025178D01*
X138244255Y-92100000D01*
X138118645Y-92174822D01*
X137902412Y-92369731D01*
X137728359Y-92603080D01*
X137603175Y-92865901D01*
X137558524Y-93013110D01*
X137679845Y-93243000D01*
X138873000Y-93243000D01*
X138873000Y-90957000D01*
X139127000Y-90957000D01*
X139127000Y-93243000D01*
X141413000Y-93243000D01*
X141413000Y-90957000D01*
X141667000Y-90957000D01*
X141667000Y-93243000D01*
X142860155Y-93243000D01*
X142981476Y-93013110D01*
X142936825Y-92865901D01*
X142811641Y-92603080D01*
X142637588Y-92369731D01*
X142421355Y-92174822D01*
X142295745Y-92100000D01*
X142421355Y-92025178D01*
X142637588Y-91830269D01*
X142811641Y-91596920D01*
X142936825Y-91334099D01*
X142981476Y-91186890D01*
X142860155Y-90957000D01*
X141667000Y-90957000D01*
X141413000Y-90957000D01*
X139127000Y-90957000D01*
X138873000Y-90957000D01*
X137679845Y-90957000D01*
X137558524Y-91186890D01*
X134835000Y-91186890D01*
X134835000Y-91041018D01*
X134839040Y-91000000D01*
X134822918Y-90836311D01*
X134775172Y-90678913D01*
X134697636Y-90533854D01*
X134619439Y-90438570D01*
X134619437Y-90438568D01*
X134593291Y-90406709D01*
X134561432Y-90380563D01*
X133159446Y-88978578D01*
X133133291Y-88946709D01*
X133006146Y-88842364D01*
X132861087Y-88764828D01*
X132703689Y-88717082D01*
X132700793Y-88716797D01*
X132643422Y-88646890D01*
X137558524Y-88646890D01*
X137603175Y-88794099D01*
X137728359Y-89056920D01*
X137902412Y-89290269D01*
X138118645Y-89485178D01*
X138244255Y-89560000D01*
X138118645Y-89634822D01*
X137902412Y-89829731D01*
X137728359Y-90063080D01*
X137603175Y-90325901D01*
X137558524Y-90473110D01*
X137679845Y-90703000D01*
X138873000Y-90703000D01*
X138873000Y-88417000D01*
X139127000Y-88417000D01*
X139127000Y-90703000D01*
X141413000Y-90703000D01*
X141413000Y-88417000D01*
X141667000Y-88417000D01*
X141667000Y-90703000D01*
X142860155Y-90703000D01*
X142981476Y-90473110D01*
X142936825Y-90325901D01*
X142811641Y-90063080D01*
X142637588Y-89829731D01*
X142421355Y-89634822D01*
X142295745Y-89560000D01*
X142421355Y-89485178D01*
X142637588Y-89290269D01*
X142811641Y-89056920D01*
X142936825Y-88794099D01*
X142981476Y-88646890D01*
X142860155Y-88417000D01*
X141667000Y-88417000D01*
X141413000Y-88417000D01*
X139127000Y-88417000D01*
X138873000Y-88417000D01*
X137679845Y-88417000D01*
X137558524Y-88646890D01*
X132643422Y-88646890D01*
X132539608Y-88520392D01*
X132321101Y-88341068D01*
X132188142Y-88270000D01*
X132321101Y-88198932D01*
X132539608Y-88019608D01*
X132691112Y-87835000D01*
X134958982Y-87835000D01*
X135000000Y-87839040D01*
X135041018Y-87835000D01*
X135041019Y-87835000D01*
X135163689Y-87822918D01*
X135321087Y-87775172D01*
X135466146Y-87697636D01*
X135593291Y-87593291D01*
X135619445Y-87561422D01*
X136595869Y-86585000D01*
X137511928Y-86585000D01*
X137511928Y-86600000D01*
X137524188Y-86724482D01*
X137560498Y-86844180D01*
X137619463Y-86954494D01*
X137698815Y-87051185D01*
X137795506Y-87130537D01*
X137905820Y-87189502D01*
X137986466Y-87213966D01*
X137902412Y-87289731D01*
X137728359Y-87523080D01*
X137603175Y-87785901D01*
X137558524Y-87933110D01*
X137679845Y-88163000D01*
X138873000Y-88163000D01*
X138873000Y-88143000D01*
X139127000Y-88143000D01*
X139127000Y-88163000D01*
X141413000Y-88163000D01*
X141413000Y-88143000D01*
X141667000Y-88143000D01*
X141667000Y-88163000D01*
X142860155Y-88163000D01*
X142981476Y-87933110D01*
X142936825Y-87785901D01*
X142811641Y-87523080D01*
X142637588Y-87289731D01*
X142421355Y-87094822D01*
X142304466Y-87025195D01*
X142486632Y-86903475D01*
X142693475Y-86696632D01*
X142722430Y-86653297D01*
X144165001Y-88095869D01*
X144165000Y-127654132D01*
X139904133Y-131915000D01*
X137288199Y-131915000D01*
X137192312Y-131771495D01*
X136978505Y-131557688D01*
X136727095Y-131389701D01*
X136447743Y-131273989D01*
X136151184Y-131215000D01*
X135848816Y-131215000D01*
X135552257Y-131273989D01*
X135272905Y-131389701D01*
X135021495Y-131557688D01*
X134807688Y-131771495D01*
X134750000Y-131857831D01*
X134692312Y-131771495D01*
X134478505Y-131557688D01*
X134227095Y-131389701D01*
X133947743Y-131273989D01*
X133651184Y-131215000D01*
X133348816Y-131215000D01*
X133052257Y-131273989D01*
X132772905Y-131389701D01*
X132521495Y-131557688D01*
X132307688Y-131771495D01*
X132250000Y-131857831D01*
X132192312Y-131771495D01*
X131978505Y-131557688D01*
X131835000Y-131461801D01*
X131835000Y-131345867D01*
X134311427Y-128869441D01*
X134343291Y-128843291D01*
X134447636Y-128716146D01*
X134525172Y-128571087D01*
X134572918Y-128413689D01*
X134585000Y-128291019D01*
X134585000Y-128291009D01*
X134589039Y-128250001D01*
X134585000Y-128208993D01*
X134585000Y-125490475D01*
X135265000Y-125490475D01*
X135265000Y-126009525D01*
X135366261Y-126518601D01*
X135564893Y-126998141D01*
X135853262Y-127429715D01*
X136220285Y-127796738D01*
X136651859Y-128085107D01*
X137131399Y-128283739D01*
X137640475Y-128385000D01*
X138159525Y-128385000D01*
X138668601Y-128283739D01*
X139148141Y-128085107D01*
X139579715Y-127796738D01*
X139946738Y-127429715D01*
X140235107Y-126998141D01*
X140433739Y-126518601D01*
X140535000Y-126009525D01*
X140535000Y-125490475D01*
X140433739Y-124981399D01*
X140235107Y-124501859D01*
X139946738Y-124070285D01*
X139579715Y-123703262D01*
X139148141Y-123414893D01*
X138668601Y-123216261D01*
X138159525Y-123115000D01*
X137640475Y-123115000D01*
X137131399Y-123216261D01*
X136651859Y-123414893D01*
X136220285Y-123703262D01*
X135853262Y-124070285D01*
X135564893Y-124501859D01*
X135366261Y-124981399D01*
X135265000Y-125490475D01*
X134585000Y-125490475D01*
X134585000Y-123095867D01*
X142101432Y-115579437D01*
X142133291Y-115553291D01*
X142237636Y-115426146D01*
X142315172Y-115281087D01*
X142362918Y-115123689D01*
X142375000Y-115001019D01*
X142375000Y-115001018D01*
X142379040Y-114960000D01*
X142375000Y-114918982D01*
X142375000Y-97138065D01*
X142486632Y-97063475D01*
X142693475Y-96856632D01*
X142855990Y-96613411D01*
X142967932Y-96343158D01*
X143025000Y-96056260D01*
X143025000Y-95763740D01*
X142967932Y-95476842D01*
X142855990Y-95206589D01*
X142693475Y-94963368D01*
X142486632Y-94756525D01*
X142304466Y-94634805D01*
X142421355Y-94565178D01*
X142637588Y-94370269D01*
X142811641Y-94136920D01*
X142936825Y-93874099D01*
X142981476Y-93726890D01*
X142860155Y-93497000D01*
X141667000Y-93497000D01*
X141667000Y-93517000D01*
X141413000Y-93517000D01*
X141413000Y-93497000D01*
X139127000Y-93497000D01*
X139127000Y-93517000D01*
X138873000Y-93517000D01*
X138873000Y-93497000D01*
X137679845Y-93497000D01*
X137558524Y-93726890D01*
X137603175Y-93874099D01*
X137728359Y-94136920D01*
X137902412Y-94370269D01*
X138118645Y-94565178D01*
X138235534Y-94634805D01*
X138053368Y-94756525D01*
X137846525Y-94963368D01*
X137684010Y-95206589D01*
X137572068Y-95476842D01*
X137515000Y-95763740D01*
X137515000Y-96056260D01*
X137536630Y-96165000D01*
X128345868Y-96165000D01*
X126800867Y-94620000D01*
X128561427Y-92859441D01*
X128593291Y-92833291D01*
X128697636Y-92706146D01*
X128775172Y-92561087D01*
X128822918Y-92403689D01*
X128835000Y-92281019D01*
X128835000Y-92281009D01*
X128839039Y-92240001D01*
X128835000Y-92198993D01*
X128835000Y-87041018D01*
X128839040Y-86999999D01*
X128822918Y-86836311D01*
X128775172Y-86678913D01*
X128697636Y-86533854D01*
X128627335Y-86448192D01*
X128593291Y-86406709D01*
X128561428Y-86380560D01*
X125369446Y-83188579D01*
X125343291Y-83156709D01*
X125216146Y-83052364D01*
X125071087Y-82974828D01*
X124913689Y-82927082D01*
X124791019Y-82915000D01*
X124791018Y-82915000D01*
X124750000Y-82910960D01*
X124708982Y-82915000D01*
X116917930Y-82915000D01*
X116864637Y-82835241D01*
X116664759Y-82635363D01*
X116429727Y-82478320D01*
X116168574Y-82370147D01*
X115891335Y-82315000D01*
X115608665Y-82315000D01*
X115331426Y-82370147D01*
X115070273Y-82478320D01*
X114835241Y-82635363D01*
X114635363Y-82835241D01*
X114478320Y-83070273D01*
X114370147Y-83331426D01*
X114315000Y-83608665D01*
X114315000Y-83891335D01*
X114370147Y-84168574D01*
X114478320Y-84429727D01*
X114635363Y-84664759D01*
X114835241Y-84864637D01*
X115070273Y-85021680D01*
X115331426Y-85129853D01*
X115608665Y-85185000D01*
X115891335Y-85185000D01*
X116168574Y-85129853D01*
X116429727Y-85021680D01*
X116664759Y-84864637D01*
X116864637Y-84664759D01*
X116917930Y-84585000D01*
X124404133Y-84585000D01*
X127165000Y-87345868D01*
X127165001Y-91894131D01*
X125274133Y-93785000D01*
X125071112Y-93785000D01*
X124919608Y-93600392D01*
X124701101Y-93421068D01*
X124568142Y-93350000D01*
X124701101Y-93278932D01*
X124919608Y-93099608D01*
X125098932Y-92881101D01*
X125232182Y-92631808D01*
X125314236Y-92361309D01*
X125341943Y-92080000D01*
X125314236Y-91798691D01*
X125232182Y-91528192D01*
X125098932Y-91278899D01*
X124919608Y-91060392D01*
X124701101Y-90881068D01*
X124568142Y-90810000D01*
X124701101Y-90738932D01*
X124919608Y-90559608D01*
X125098932Y-90341101D01*
X125232182Y-90091808D01*
X125314236Y-89821309D01*
X125341943Y-89540000D01*
X125314236Y-89258691D01*
X125232182Y-88988192D01*
X125098932Y-88738899D01*
X124919608Y-88520392D01*
X124806518Y-88427581D01*
X124824482Y-88425812D01*
X124944180Y-88389502D01*
X125054494Y-88330537D01*
X125151185Y-88251185D01*
X125230537Y-88154494D01*
X125289502Y-88044180D01*
X125325812Y-87924482D01*
X125338072Y-87800000D01*
X125338072Y-86200000D01*
X125325812Y-86075518D01*
X125289502Y-85955820D01*
X125230537Y-85845506D01*
X125151185Y-85748815D01*
X125054494Y-85669463D01*
X124944180Y-85610498D01*
X124824482Y-85574188D01*
X124700000Y-85561928D01*
X122300000Y-85561928D01*
X122175518Y-85574188D01*
X122055820Y-85610498D01*
X121945506Y-85669463D01*
X121848815Y-85748815D01*
X121769463Y-85845506D01*
X121710498Y-85955820D01*
X121674188Y-86075518D01*
X121665375Y-86165000D01*
X121041007Y-86165000D01*
X120999999Y-86160961D01*
X120958991Y-86165000D01*
X120958981Y-86165000D01*
X120836311Y-86177082D01*
X120678913Y-86224828D01*
X120533854Y-86302364D01*
X120406709Y-86406709D01*
X120380561Y-86438571D01*
X117454133Y-89365000D01*
X116967930Y-89365000D01*
X116914637Y-89285241D01*
X116714759Y-89085363D01*
X116479727Y-88928320D01*
X116218574Y-88820147D01*
X115941335Y-88765000D01*
X115658665Y-88765000D01*
X115381426Y-88820147D01*
X115120273Y-88928320D01*
X114885241Y-89085363D01*
X114685363Y-89285241D01*
X114528320Y-89520273D01*
X114420147Y-89781426D01*
X114365000Y-90058665D01*
X114365000Y-90341335D01*
X114420147Y-90618574D01*
X114528320Y-90879727D01*
X114685363Y-91114759D01*
X114885241Y-91314637D01*
X115120273Y-91471680D01*
X115381426Y-91579853D01*
X115658665Y-91635000D01*
X115941335Y-91635000D01*
X116218574Y-91579853D01*
X116479727Y-91471680D01*
X116714759Y-91314637D01*
X116914637Y-91114759D01*
X116967930Y-91035000D01*
X117758982Y-91035000D01*
X117800000Y-91039040D01*
X117841018Y-91035000D01*
X117841019Y-91035000D01*
X117963689Y-91022918D01*
X118121087Y-90975172D01*
X118266146Y-90897636D01*
X118393291Y-90793291D01*
X118419446Y-90761421D01*
X121345868Y-87835000D01*
X121665375Y-87835000D01*
X121674188Y-87924482D01*
X121710498Y-88044180D01*
X121769463Y-88154494D01*
X121848815Y-88251185D01*
X121945506Y-88330537D01*
X122055820Y-88389502D01*
X122175518Y-88425812D01*
X122193482Y-88427581D01*
X122080392Y-88520392D01*
X121928888Y-88705000D01*
X121751018Y-88705000D01*
X121710000Y-88700960D01*
X121668982Y-88705000D01*
X121668981Y-88705000D01*
X121546311Y-88717082D01*
X121388913Y-88764828D01*
X121243854Y-88842364D01*
X121116709Y-88946709D01*
X121090563Y-88978568D01*
X117554133Y-92515000D01*
X116967930Y-92515000D01*
X116914637Y-92435241D01*
X116714759Y-92235363D01*
X116479727Y-92078320D01*
X116218574Y-91970147D01*
X115941335Y-91915000D01*
X115658665Y-91915000D01*
X115381426Y-91970147D01*
X115120273Y-92078320D01*
X114885241Y-92235363D01*
X114685363Y-92435241D01*
X114528320Y-92670273D01*
X114420147Y-92931426D01*
X114365000Y-93208665D01*
X114365000Y-93491335D01*
X114420147Y-93768574D01*
X114528320Y-94029727D01*
X114685363Y-94264759D01*
X114885241Y-94464637D01*
X114965000Y-94517930D01*
X114965001Y-95355342D01*
X114845241Y-95435363D01*
X114645363Y-95635241D01*
X114488320Y-95870273D01*
X114380147Y-96131426D01*
X114325000Y-96408665D01*
X114325000Y-96691335D01*
X114380147Y-96968574D01*
X114488320Y-97229727D01*
X114645363Y-97464759D01*
X114845241Y-97664637D01*
X115080273Y-97821680D01*
X115341426Y-97929853D01*
X115618665Y-97985000D01*
X115901335Y-97985000D01*
X116178574Y-97929853D01*
X116439727Y-97821680D01*
X116674759Y-97664637D01*
X116874637Y-97464759D01*
X117031680Y-97229727D01*
X117139853Y-96968574D01*
X117195000Y-96691335D01*
X117195000Y-96408665D01*
X117139853Y-96131426D01*
X117031680Y-95870273D01*
X116874637Y-95635241D01*
X116674759Y-95435363D01*
X116635000Y-95408797D01*
X116635000Y-94517930D01*
X116714759Y-94464637D01*
X116914637Y-94264759D01*
X116967930Y-94185000D01*
X117858982Y-94185000D01*
X117900000Y-94189040D01*
X117941018Y-94185000D01*
X117941019Y-94185000D01*
X118063689Y-94172918D01*
X118221087Y-94125172D01*
X118366146Y-94047636D01*
X118493291Y-93943291D01*
X118519446Y-93911421D01*
X121986125Y-90444744D01*
X122080392Y-90559608D01*
X122298899Y-90738932D01*
X122431858Y-90810000D01*
X122298899Y-90881068D01*
X122080392Y-91060392D01*
X121931291Y-91242072D01*
X121920000Y-91240960D01*
X121878981Y-91245000D01*
X121756311Y-91257082D01*
X121598913Y-91304828D01*
X121453854Y-91382364D01*
X121326709Y-91486709D01*
X121300559Y-91518573D01*
X118188574Y-94630559D01*
X118156710Y-94656709D01*
X118075907Y-94755168D01*
X118052364Y-94783855D01*
X117974828Y-94928914D01*
X117927082Y-95086312D01*
X117910960Y-95250000D01*
X117915001Y-95291028D01*
X117915000Y-96454132D01*
X116035418Y-98333715D01*
X115941335Y-98315000D01*
X115658665Y-98315000D01*
X115381426Y-98370147D01*
X115120273Y-98478320D01*
X115107634Y-98486765D01*
X107056285Y-90435418D01*
X107075000Y-90341335D01*
X107075000Y-90058665D01*
X107019853Y-89781426D01*
X106911680Y-89520273D01*
X106754637Y-89285241D01*
X106554759Y-89085363D01*
X106319727Y-88928320D01*
X106058574Y-88820147D01*
X105781335Y-88765000D01*
X105498665Y-88765000D01*
X105221426Y-88820147D01*
X104960273Y-88928320D01*
X104725241Y-89085363D01*
X104525363Y-89285241D01*
X104368320Y-89520273D01*
X104260147Y-89781426D01*
X104205000Y-90058665D01*
X104205000Y-90341335D01*
X104260147Y-90618574D01*
X104368320Y-90879727D01*
X104404012Y-90933144D01*
X102675000Y-89204133D01*
X102675000Y-86858665D01*
X104205000Y-86858665D01*
X104205000Y-87141335D01*
X104260147Y-87418574D01*
X104368320Y-87679727D01*
X104525363Y-87914759D01*
X104725241Y-88114637D01*
X104960273Y-88271680D01*
X105221426Y-88379853D01*
X105498665Y-88435000D01*
X105781335Y-88435000D01*
X106058574Y-88379853D01*
X106319727Y-88271680D01*
X106554759Y-88114637D01*
X106754637Y-87914759D01*
X106911680Y-87679727D01*
X107019853Y-87418574D01*
X107075000Y-87141335D01*
X107075000Y-86858665D01*
X107019853Y-86581426D01*
X106911680Y-86320273D01*
X106754637Y-86085241D01*
X106554759Y-85885363D01*
X106319727Y-85728320D01*
X106058574Y-85620147D01*
X105781335Y-85565000D01*
X105498665Y-85565000D01*
X105221426Y-85620147D01*
X104960273Y-85728320D01*
X104725241Y-85885363D01*
X104525363Y-86085241D01*
X104368320Y-86320273D01*
X104260147Y-86581426D01*
X104205000Y-86858665D01*
X102675000Y-86858665D01*
X102675000Y-84595867D01*
X103662202Y-83608665D01*
X104155000Y-83608665D01*
X104155000Y-83891335D01*
X104210147Y-84168574D01*
X104318320Y-84429727D01*
X104475363Y-84664759D01*
X104675241Y-84864637D01*
X104910273Y-85021680D01*
X105171426Y-85129853D01*
X105448665Y-85185000D01*
X105731335Y-85185000D01*
X106008574Y-85129853D01*
X106269727Y-85021680D01*
X106504759Y-84864637D01*
X106704637Y-84664759D01*
X106861680Y-84429727D01*
X106969853Y-84168574D01*
X107025000Y-83891335D01*
X107025000Y-83608665D01*
X106969853Y-83331426D01*
X106861680Y-83070273D01*
X106704637Y-82835241D01*
X106504759Y-82635363D01*
X106269727Y-82478320D01*
X106008574Y-82370147D01*
X105731335Y-82315000D01*
X105448665Y-82315000D01*
X105171426Y-82370147D01*
X104910273Y-82478320D01*
X104675241Y-82635363D01*
X104475363Y-82835241D01*
X104318320Y-83070273D01*
X104210147Y-83331426D01*
X104155000Y-83608665D01*
X103662202Y-83608665D01*
X105354583Y-81916286D01*
X105448665Y-81935000D01*
X105731335Y-81935000D01*
X106008574Y-81879853D01*
X106269727Y-81771680D01*
X106504759Y-81614637D01*
X106704637Y-81414759D01*
X106861680Y-81179727D01*
X106969853Y-80918574D01*
X107025000Y-80641335D01*
X107025000Y-80358665D01*
X106969853Y-80081426D01*
X106861680Y-79820273D01*
X106704637Y-79585241D01*
X106504759Y-79385363D01*
X106269727Y-79228320D01*
X106008574Y-79120147D01*
X105731335Y-79065000D01*
X105448665Y-79065000D01*
X105171426Y-79120147D01*
X104910273Y-79228320D01*
X104675241Y-79385363D01*
X104475363Y-79585241D01*
X104318320Y-79820273D01*
X104210147Y-80081426D01*
X104155000Y-80358665D01*
X104155000Y-80641335D01*
X104173714Y-80735417D01*
X101278579Y-83630554D01*
X101246709Y-83656709D01*
X101170148Y-83750000D01*
X101142364Y-83783855D01*
X101064828Y-83928914D01*
X101017082Y-84086312D01*
X101000960Y-84250000D01*
X101005000Y-84291019D01*
X101005001Y-89508972D01*
X101000960Y-89550000D01*
X101017082Y-89713688D01*
X101064828Y-89871086D01*
X101142364Y-90016145D01*
X101142365Y-90016146D01*
X101246710Y-90143291D01*
X101278574Y-90169441D01*
X104223714Y-93114583D01*
X104205000Y-93208665D01*
X104205000Y-93491335D01*
X104260147Y-93768574D01*
X104368320Y-94029727D01*
X104525363Y-94264759D01*
X104725241Y-94464637D01*
X104960273Y-94621680D01*
X105221426Y-94729853D01*
X105498665Y-94785000D01*
X105781335Y-94785000D01*
X106058574Y-94729853D01*
X106319727Y-94621680D01*
X106554759Y-94464637D01*
X106754637Y-94264759D01*
X106911680Y-94029727D01*
X107019853Y-93768574D01*
X107075000Y-93491335D01*
X107075000Y-93208665D01*
X107019853Y-92931426D01*
X106911680Y-92670273D01*
X106875987Y-92616854D01*
X114418270Y-100159139D01*
X114420147Y-100168574D01*
X114522220Y-100415000D01*
X113095868Y-100415000D01*
X111869446Y-99188579D01*
X111843291Y-99156709D01*
X111716146Y-99052364D01*
X111571087Y-98974828D01*
X111413689Y-98927082D01*
X111291019Y-98915000D01*
X111291018Y-98915000D01*
X111250000Y-98910960D01*
X111208982Y-98915000D01*
X106807930Y-98915000D01*
X106754637Y-98835241D01*
X106554759Y-98635363D01*
X106319727Y-98478320D01*
X106058574Y-98370147D01*
X105781335Y-98315000D01*
X105498665Y-98315000D01*
X105221426Y-98370147D01*
X104960273Y-98478320D01*
X104725241Y-98635363D01*
X104525363Y-98835241D01*
X104368320Y-99070273D01*
X104260147Y-99331426D01*
X104205000Y-99608665D01*
X104205000Y-99891335D01*
X104260147Y-100168574D01*
X104368320Y-100429727D01*
X104525363Y-100664759D01*
X104725241Y-100864637D01*
X104960273Y-101021680D01*
X105221426Y-101129853D01*
X105498665Y-101185000D01*
X105781335Y-101185000D01*
X106058574Y-101129853D01*
X106319727Y-101021680D01*
X106554759Y-100864637D01*
X106754637Y-100664759D01*
X106807930Y-100585000D01*
X110904133Y-100585000D01*
X112130559Y-101811426D01*
X112156709Y-101843291D01*
X112283854Y-101947636D01*
X112428913Y-102025172D01*
X112586311Y-102072918D01*
X112708981Y-102085000D01*
X112708991Y-102085000D01*
X112749999Y-102089039D01*
X112791007Y-102085000D01*
X114685604Y-102085000D01*
X114685363Y-102085241D01*
X114528320Y-102320273D01*
X114420147Y-102581426D01*
X114365000Y-102858665D01*
X114365000Y-103141335D01*
X114420147Y-103418574D01*
X114528320Y-103679727D01*
X114685363Y-103914759D01*
X114885241Y-104114637D01*
X114965000Y-104167930D01*
X114965001Y-105032069D01*
X114885241Y-105085363D01*
X114685363Y-105285241D01*
X114528320Y-105520273D01*
X114420147Y-105781426D01*
X114365000Y-106058665D01*
X114365000Y-106341335D01*
X114420147Y-106618574D01*
X114528320Y-106879727D01*
X114685363Y-107114759D01*
X114885241Y-107314637D01*
X115120273Y-107471680D01*
X115381426Y-107579853D01*
X115658665Y-107635000D01*
X115941335Y-107635000D01*
X116218574Y-107579853D01*
X116479727Y-107471680D01*
X116714759Y-107314637D01*
X116914637Y-107114759D01*
X117071680Y-106879727D01*
X117179853Y-106618574D01*
X117235000Y-106341335D01*
X117235000Y-106058665D01*
X117179853Y-105781426D01*
X117071680Y-105520273D01*
X116914637Y-105285241D01*
X116714759Y-105085363D01*
X116635000Y-105032070D01*
X116635000Y-104167930D01*
X116714759Y-104114637D01*
X116914637Y-103914759D01*
X116967930Y-103835000D01*
X123566315Y-103835000D01*
X123567114Y-103835799D01*
X123683483Y-103913555D01*
X123575518Y-103924188D01*
X123455820Y-103960498D01*
X123345506Y-104019463D01*
X123248815Y-104098815D01*
X123169463Y-104195506D01*
X123110498Y-104305820D01*
X123074188Y-104425518D01*
X123070299Y-104465000D01*
X122491018Y-104465000D01*
X122450000Y-104460960D01*
X122408982Y-104465000D01*
X122408981Y-104465000D01*
X122286311Y-104477082D01*
X122128913Y-104524828D01*
X121983854Y-104602364D01*
X121890579Y-104678913D01*
X121856709Y-104706709D01*
X121830563Y-104738568D01*
X118004133Y-108565000D01*
X116967930Y-108565000D01*
X116914637Y-108485241D01*
X116714759Y-108285363D01*
X116479727Y-108128320D01*
X116218574Y-108020147D01*
X115941335Y-107965000D01*
X115658665Y-107965000D01*
X115381426Y-108020147D01*
X115120273Y-108128320D01*
X114885241Y-108285363D01*
X114685363Y-108485241D01*
X114528320Y-108720273D01*
X114420147Y-108981426D01*
X114365000Y-109258665D01*
X114365000Y-109541335D01*
X114420147Y-109818574D01*
X114528320Y-110079727D01*
X114585297Y-110165000D01*
X107585869Y-110165000D01*
X107056286Y-109635418D01*
X107075000Y-109541335D01*
X107075000Y-109258665D01*
X107019853Y-108981426D01*
X106911680Y-108720273D01*
X106754637Y-108485241D01*
X106554759Y-108285363D01*
X106319727Y-108128320D01*
X106058574Y-108020147D01*
X105781335Y-107965000D01*
X105498665Y-107965000D01*
X105221426Y-108020147D01*
X104960273Y-108128320D01*
X104725241Y-108285363D01*
X104525363Y-108485241D01*
X104368320Y-108720273D01*
X104260147Y-108981426D01*
X104205000Y-109258665D01*
X104205000Y-109541335D01*
X104260147Y-109818574D01*
X104368320Y-110079727D01*
X104525363Y-110314759D01*
X104725241Y-110514637D01*
X104960273Y-110671680D01*
X105221426Y-110779853D01*
X105498665Y-110835000D01*
X105781335Y-110835000D01*
X105875418Y-110816286D01*
X106620563Y-111561432D01*
X106646709Y-111593291D01*
X106678568Y-111619437D01*
X106678570Y-111619439D01*
X106740864Y-111670562D01*
X106773854Y-111697636D01*
X106918913Y-111775172D01*
X107076311Y-111822918D01*
X107198981Y-111835000D01*
X107198982Y-111835000D01*
X107240000Y-111839040D01*
X107281018Y-111835000D01*
X114652115Y-111835000D01*
X114528320Y-112020273D01*
X114420147Y-112281426D01*
X114365000Y-112558665D01*
X114365000Y-112841335D01*
X114383715Y-112935418D01*
X113438579Y-113880554D01*
X113406709Y-113906709D01*
X113302365Y-114033854D01*
X113302364Y-114033855D01*
X113224828Y-114178914D01*
X113177082Y-114336312D01*
X113160960Y-114500000D01*
X113165000Y-114541019D01*
X113165001Y-117958972D01*
X113160960Y-118000000D01*
X113177082Y-118163688D01*
X113224828Y-118321086D01*
X113302364Y-118466145D01*
X113302365Y-118466146D01*
X113406710Y-118593291D01*
X113438574Y-118619441D01*
X116380563Y-121561432D01*
X116406709Y-121593291D01*
X116533854Y-121697636D01*
X116678913Y-121775172D01*
X116836311Y-121822918D01*
X116958981Y-121835000D01*
X116958982Y-121835000D01*
X117000000Y-121839040D01*
X117041018Y-121835000D01*
X118013356Y-121835000D01*
X118179523Y-122083687D01*
X118416313Y-122320477D01*
X118694748Y-122506521D01*
X119004128Y-122634670D01*
X119332565Y-122700000D01*
X119667435Y-122700000D01*
X119995872Y-122634670D01*
X120305252Y-122506521D01*
X120583687Y-122320477D01*
X120820477Y-122083687D01*
X121006521Y-121805252D01*
X121134670Y-121495872D01*
X121200000Y-121167435D01*
X121200000Y-120832565D01*
X121134670Y-120504128D01*
X121006521Y-120194748D01*
X120820477Y-119916313D01*
X120583687Y-119679523D01*
X120305252Y-119493479D01*
X119995872Y-119365330D01*
X119667435Y-119300000D01*
X119332565Y-119300000D01*
X119004128Y-119365330D01*
X118694748Y-119493479D01*
X118416313Y-119679523D01*
X118179523Y-119916313D01*
X118013356Y-120165000D01*
X117345869Y-120165000D01*
X114835000Y-117654133D01*
X114835000Y-117114396D01*
X114835241Y-117114637D01*
X115070273Y-117271680D01*
X115331426Y-117379853D01*
X115608665Y-117435000D01*
X115891335Y-117435000D01*
X116168574Y-117379853D01*
X116429727Y-117271680D01*
X116664759Y-117114637D01*
X116864637Y-116914759D01*
X116917930Y-116835000D01*
X116958982Y-116835000D01*
X117000000Y-116839040D01*
X117041018Y-116835000D01*
X117041019Y-116835000D01*
X117163689Y-116822918D01*
X117321087Y-116775172D01*
X117466146Y-116697636D01*
X117593291Y-116593291D01*
X117619446Y-116561421D01*
X118393874Y-115786993D01*
X122972612Y-115786993D01*
X123038137Y-116025860D01*
X123285116Y-116141760D01*
X123549960Y-116207250D01*
X123822492Y-116219812D01*
X124092238Y-116178965D01*
X124348832Y-116086277D01*
X124461863Y-116025860D01*
X124527388Y-115786993D01*
X123750000Y-115009605D01*
X122972612Y-115786993D01*
X118393874Y-115786993D01*
X119278375Y-114902492D01*
X122360188Y-114902492D01*
X122401035Y-115172238D01*
X122493723Y-115428832D01*
X122554140Y-115541863D01*
X122793007Y-115607388D01*
X123570395Y-114830000D01*
X123929605Y-114830000D01*
X124706993Y-115607388D01*
X124945860Y-115541863D01*
X125061760Y-115294884D01*
X125127250Y-115030040D01*
X125139812Y-114757508D01*
X125098965Y-114487762D01*
X125006277Y-114231168D01*
X124945860Y-114118137D01*
X124706993Y-114052612D01*
X123929605Y-114830000D01*
X123570395Y-114830000D01*
X122793007Y-114052612D01*
X122554140Y-114118137D01*
X122438240Y-114365116D01*
X122372750Y-114629960D01*
X122360188Y-114902492D01*
X119278375Y-114902492D01*
X121055868Y-113125000D01*
X122642205Y-113125000D01*
X122674201Y-113172886D01*
X122867114Y-113365799D01*
X123093957Y-113517371D01*
X123193279Y-113558511D01*
X123151168Y-113573723D01*
X123038137Y-113634140D01*
X122972612Y-113873007D01*
X123750000Y-114650395D01*
X124527388Y-113873007D01*
X124461863Y-113634140D01*
X124303523Y-113559836D01*
X124406043Y-113517371D01*
X124632886Y-113365799D01*
X124825799Y-113172886D01*
X124977371Y-112946043D01*
X125081775Y-112693989D01*
X125135000Y-112426411D01*
X125135000Y-112153589D01*
X125081775Y-111886011D01*
X124977371Y-111633957D01*
X124825799Y-111407114D01*
X124632886Y-111214201D01*
X124516517Y-111136445D01*
X124624482Y-111125812D01*
X124744180Y-111089502D01*
X124854494Y-111030537D01*
X124951185Y-110951185D01*
X125030537Y-110854494D01*
X125089502Y-110744180D01*
X125125812Y-110624482D01*
X125138072Y-110500000D01*
X125138072Y-109000000D01*
X125125812Y-108875518D01*
X125089502Y-108755820D01*
X125030537Y-108645506D01*
X124951185Y-108548815D01*
X124854494Y-108469463D01*
X124744180Y-108410498D01*
X124624482Y-108374188D01*
X124500000Y-108361928D01*
X123000000Y-108361928D01*
X122875518Y-108374188D01*
X122755820Y-108410498D01*
X122645506Y-108469463D01*
X122548815Y-108548815D01*
X122469463Y-108645506D01*
X122410498Y-108755820D01*
X122374188Y-108875518D01*
X122370299Y-108915000D01*
X121291018Y-108915000D01*
X121250000Y-108910960D01*
X121208981Y-108915000D01*
X121086311Y-108927082D01*
X120928913Y-108974828D01*
X120783854Y-109052364D01*
X120656709Y-109156709D01*
X120630563Y-109188568D01*
X119654133Y-110165000D01*
X118690117Y-110165000D01*
X118816146Y-110097636D01*
X118943291Y-109993291D01*
X118969446Y-109961421D01*
X122795869Y-106135000D01*
X123070299Y-106135000D01*
X123074188Y-106174482D01*
X123110498Y-106294180D01*
X123169463Y-106404494D01*
X123248815Y-106501185D01*
X123345506Y-106580537D01*
X123455820Y-106639502D01*
X123575518Y-106675812D01*
X123700000Y-106688072D01*
X125200000Y-106688072D01*
X125324482Y-106675812D01*
X125444180Y-106639502D01*
X125554494Y-106580537D01*
X125651185Y-106501185D01*
X125730537Y-106404494D01*
X125789502Y-106294180D01*
X125825812Y-106174482D01*
X125829701Y-106135000D01*
X129470299Y-106135000D01*
X129474188Y-106174482D01*
X129510498Y-106294180D01*
X129569463Y-106404494D01*
X129648815Y-106501185D01*
X129745506Y-106580537D01*
X129855820Y-106639502D01*
X129975518Y-106675812D01*
X130100000Y-106688072D01*
X131600000Y-106688072D01*
X131724482Y-106675812D01*
X131844180Y-106639502D01*
X131954494Y-106580537D01*
X132051185Y-106501185D01*
X132130537Y-106404494D01*
X132189502Y-106294180D01*
X132225812Y-106174482D01*
X132238072Y-106050000D01*
X132238072Y-104550000D01*
X132225812Y-104425518D01*
X132189502Y-104305820D01*
X132130537Y-104195506D01*
X132051185Y-104098815D01*
X131954494Y-104019463D01*
X131844180Y-103960498D01*
X131724482Y-103924188D01*
X131600000Y-103911928D01*
X131573914Y-103911928D01*
X131627388Y-103716993D01*
X130850000Y-102939605D01*
X130072612Y-103716993D01*
X130126086Y-103911928D01*
X130100000Y-103911928D01*
X129975518Y-103924188D01*
X129855820Y-103960498D01*
X129745506Y-104019463D01*
X129648815Y-104098815D01*
X129569463Y-104195506D01*
X129510498Y-104305820D01*
X129474188Y-104425518D01*
X129470299Y-104465000D01*
X125829701Y-104465000D01*
X125825812Y-104425518D01*
X125789502Y-104305820D01*
X125730537Y-104195506D01*
X125651185Y-104098815D01*
X125554494Y-104019463D01*
X125444180Y-103960498D01*
X125324482Y-103924188D01*
X125216517Y-103913555D01*
X125332886Y-103835799D01*
X125525799Y-103642886D01*
X125677371Y-103416043D01*
X125781775Y-103163989D01*
X125835000Y-102896411D01*
X125835000Y-102832492D01*
X129460188Y-102832492D01*
X129501035Y-103102238D01*
X129593723Y-103358832D01*
X129654140Y-103471863D01*
X129893007Y-103537388D01*
X130670395Y-102760000D01*
X131029605Y-102760000D01*
X131806993Y-103537388D01*
X132045860Y-103471863D01*
X132161760Y-103224884D01*
X132227250Y-102960040D01*
X132239812Y-102687508D01*
X132198965Y-102417762D01*
X132106277Y-102161168D01*
X132045860Y-102048137D01*
X131806993Y-101982612D01*
X131029605Y-102760000D01*
X130670395Y-102760000D01*
X129893007Y-101982612D01*
X129654140Y-102048137D01*
X129538240Y-102295116D01*
X129472750Y-102559960D01*
X129460188Y-102832492D01*
X125835000Y-102832492D01*
X125835000Y-102623589D01*
X125781775Y-102356011D01*
X125677371Y-102103957D01*
X125525799Y-101877114D01*
X125332886Y-101684201D01*
X125106043Y-101532629D01*
X125003127Y-101490000D01*
X125106043Y-101447371D01*
X125332886Y-101295799D01*
X125525799Y-101102886D01*
X125677371Y-100876043D01*
X125781775Y-100623989D01*
X125835000Y-100356411D01*
X125835000Y-100083589D01*
X129465000Y-100083589D01*
X129465000Y-100356411D01*
X129518225Y-100623989D01*
X129622629Y-100876043D01*
X129774201Y-101102886D01*
X129967114Y-101295799D01*
X130193957Y-101447371D01*
X130293279Y-101488511D01*
X130251168Y-101503723D01*
X130138137Y-101564140D01*
X130072612Y-101803007D01*
X130850000Y-102580395D01*
X131627388Y-101803007D01*
X131561863Y-101564140D01*
X131403523Y-101489836D01*
X131506043Y-101447371D01*
X131732886Y-101295799D01*
X131925799Y-101102886D01*
X132077371Y-100876043D01*
X132181775Y-100623989D01*
X132235000Y-100356411D01*
X132235000Y-100083589D01*
X132181775Y-99816011D01*
X132077371Y-99563957D01*
X131925799Y-99337114D01*
X131732886Y-99144201D01*
X131506043Y-98992629D01*
X131253989Y-98888225D01*
X130986411Y-98835000D01*
X130713589Y-98835000D01*
X130446011Y-98888225D01*
X130193957Y-98992629D01*
X129967114Y-99144201D01*
X129774201Y-99337114D01*
X129622629Y-99563957D01*
X129518225Y-99816011D01*
X129465000Y-100083589D01*
X125835000Y-100083589D01*
X125781775Y-99816011D01*
X125677371Y-99563957D01*
X125525799Y-99337114D01*
X125332886Y-99144201D01*
X125106043Y-98992629D01*
X124853989Y-98888225D01*
X124586411Y-98835000D01*
X124313589Y-98835000D01*
X124046011Y-98888225D01*
X123793957Y-98992629D01*
X123567114Y-99144201D01*
X123374201Y-99337114D01*
X123222629Y-99563957D01*
X123118225Y-99816011D01*
X123065000Y-100083589D01*
X123065000Y-100356411D01*
X123076236Y-100412897D01*
X123074133Y-100415000D01*
X117077780Y-100415000D01*
X117179853Y-100168574D01*
X117235000Y-99891335D01*
X117235000Y-99608665D01*
X117216285Y-99514582D01*
X119311428Y-97419440D01*
X119343291Y-97393291D01*
X119447636Y-97266146D01*
X119525172Y-97121087D01*
X119572918Y-96963689D01*
X119585000Y-96841019D01*
X119585000Y-96841018D01*
X119589040Y-96800001D01*
X119585000Y-96758982D01*
X119585000Y-95595867D01*
X122080869Y-93099999D01*
X122298899Y-93278932D01*
X122431858Y-93350000D01*
X122298899Y-93421068D01*
X122080392Y-93600392D01*
X121901068Y-93818899D01*
X121767818Y-94068192D01*
X121685764Y-94338691D01*
X121658057Y-94620000D01*
X121685764Y-94901309D01*
X121767818Y-95171808D01*
X121901068Y-95421101D01*
X122080392Y-95639608D01*
X122298899Y-95818932D01*
X122548192Y-95952182D01*
X122818691Y-96034236D01*
X123029508Y-96055000D01*
X123970492Y-96055000D01*
X124181309Y-96034236D01*
X124451808Y-95952182D01*
X124701101Y-95818932D01*
X124919608Y-95639608D01*
X125071112Y-95455000D01*
X125274133Y-95455000D01*
X127380559Y-97561427D01*
X127406709Y-97593291D01*
X127533854Y-97697636D01*
X127678913Y-97775172D01*
X127836311Y-97822918D01*
X127958981Y-97835000D01*
X127958991Y-97835000D01*
X127999999Y-97839039D01*
X128041007Y-97835000D01*
X137868982Y-97835000D01*
X137910000Y-97839040D01*
X137951018Y-97835000D01*
X137951019Y-97835000D01*
X138073689Y-97822918D01*
X138231087Y-97775172D01*
X138376146Y-97697636D01*
X138503291Y-97593291D01*
X138529445Y-97561422D01*
X138722060Y-97368807D01*
X138853740Y-97395000D01*
X139146260Y-97395000D01*
X139433158Y-97337932D01*
X139703411Y-97225990D01*
X139946632Y-97063475D01*
X140153475Y-96856632D01*
X140228065Y-96745000D01*
X140311935Y-96745000D01*
X140386525Y-96856632D01*
X140593368Y-97063475D01*
X140705000Y-97138065D01*
X140705001Y-114614130D01*
X133188579Y-122130554D01*
X133156709Y-122156709D01*
X133052365Y-122283854D01*
X133052364Y-122283855D01*
X132974828Y-122428914D01*
X132927082Y-122586312D01*
X132910960Y-122750000D01*
X132915000Y-122791019D01*
X132915001Y-127904131D01*
X130438579Y-130380554D01*
X130406709Y-130406709D01*
X130309490Y-130525172D01*
X130302364Y-130533855D01*
X130224828Y-130678914D01*
X130177082Y-130836312D01*
X130160960Y-131000000D01*
X130165000Y-131041019D01*
X130165000Y-131461801D01*
X130021495Y-131557688D01*
X129807688Y-131771495D01*
X129639701Y-132022905D01*
X129523989Y-132302257D01*
X129465000Y-132598816D01*
X129465000Y-132901184D01*
X129523989Y-133197743D01*
X129639701Y-133477095D01*
X129807688Y-133728505D01*
X129994183Y-133915000D01*
X120674573Y-133915000D01*
X120709180Y-133904502D01*
X120819494Y-133845537D01*
X120916185Y-133766185D01*
X120995537Y-133669494D01*
X121054502Y-133559180D01*
X121090812Y-133439482D01*
X121103072Y-133315000D01*
X121100000Y-132685750D01*
X120941250Y-132527000D01*
X119627000Y-132527000D01*
X119627000Y-132547000D01*
X119373000Y-132547000D01*
X119373000Y-132527000D01*
X118058750Y-132527000D01*
X117900000Y-132685750D01*
X117896928Y-133315000D01*
X117909188Y-133439482D01*
X117945498Y-133559180D01*
X118004463Y-133669494D01*
X118083815Y-133766185D01*
X118180506Y-133845537D01*
X118290820Y-133904502D01*
X118325427Y-133915000D01*
X117095869Y-133915000D01*
X112585000Y-129404133D01*
X112585000Y-129132565D01*
X117800000Y-129132565D01*
X117800000Y-129467435D01*
X117865330Y-129795872D01*
X117993479Y-130105252D01*
X118179523Y-130383687D01*
X118416313Y-130620477D01*
X118694748Y-130806521D01*
X118795140Y-130848105D01*
X118535000Y-130846928D01*
X118410518Y-130859188D01*
X118290820Y-130895498D01*
X118180506Y-130954463D01*
X118083815Y-131033815D01*
X118004463Y-131130506D01*
X117945498Y-131240820D01*
X117909188Y-131360518D01*
X117896928Y-131485000D01*
X117900000Y-132114250D01*
X118058750Y-132273000D01*
X119373000Y-132273000D01*
X119373000Y-132253000D01*
X119627000Y-132253000D01*
X119627000Y-132273000D01*
X120941250Y-132273000D01*
X121100000Y-132114250D01*
X121103072Y-131485000D01*
X121090812Y-131360518D01*
X121054502Y-131240820D01*
X120995537Y-131130506D01*
X120916185Y-131033815D01*
X120819494Y-130954463D01*
X120709180Y-130895498D01*
X120589482Y-130859188D01*
X120465000Y-130846928D01*
X120204860Y-130848105D01*
X120305252Y-130806521D01*
X120583687Y-130620477D01*
X120820477Y-130383687D01*
X121006521Y-130105252D01*
X121134670Y-129795872D01*
X121200000Y-129467435D01*
X121200000Y-129132565D01*
X121134670Y-128804128D01*
X121006521Y-128494748D01*
X120820477Y-128216313D01*
X120583687Y-127979523D01*
X120305252Y-127793479D01*
X119995872Y-127665330D01*
X119667435Y-127600000D01*
X119332565Y-127600000D01*
X119004128Y-127665330D01*
X118694748Y-127793479D01*
X118416313Y-127979523D01*
X118179523Y-128216313D01*
X117993479Y-128494748D01*
X117865330Y-128804128D01*
X117800000Y-129132565D01*
X112585000Y-129132565D01*
X112585000Y-125490475D01*
X126465000Y-125490475D01*
X126465000Y-126009525D01*
X126566261Y-126518601D01*
X126764893Y-126998141D01*
X127053262Y-127429715D01*
X127420285Y-127796738D01*
X127851859Y-128085107D01*
X128331399Y-128283739D01*
X128840475Y-128385000D01*
X129359525Y-128385000D01*
X129868601Y-128283739D01*
X130348141Y-128085107D01*
X130779715Y-127796738D01*
X131146738Y-127429715D01*
X131435107Y-126998141D01*
X131633739Y-126518601D01*
X131735000Y-126009525D01*
X131735000Y-125490475D01*
X131633739Y-124981399D01*
X131435107Y-124501859D01*
X131146738Y-124070285D01*
X130779715Y-123703262D01*
X130348141Y-123414893D01*
X129868601Y-123216261D01*
X129359525Y-123115000D01*
X128840475Y-123115000D01*
X128331399Y-123216261D01*
X127851859Y-123414893D01*
X127420285Y-123703262D01*
X127053262Y-124070285D01*
X126764893Y-124501859D01*
X126566261Y-124981399D01*
X126465000Y-125490475D01*
X112585000Y-125490475D01*
X112585000Y-119541007D01*
X112589039Y-119499999D01*
X112585000Y-119458991D01*
X112585000Y-119458981D01*
X112572918Y-119336311D01*
X112525172Y-119178913D01*
X112447636Y-119033854D01*
X112343291Y-118906709D01*
X112311427Y-118880559D01*
X108869446Y-115438579D01*
X108843291Y-115406709D01*
X108716146Y-115302364D01*
X108571087Y-115224828D01*
X108413689Y-115177082D01*
X108291019Y-115165000D01*
X108291018Y-115165000D01*
X108250000Y-115160960D01*
X108208982Y-115165000D01*
X106757930Y-115165000D01*
X106704637Y-115085241D01*
X106504759Y-114885363D01*
X106269727Y-114728320D01*
X106008574Y-114620147D01*
X105731335Y-114565000D01*
X105448665Y-114565000D01*
X105171426Y-114620147D01*
X104910273Y-114728320D01*
X104675241Y-114885363D01*
X104475363Y-115085241D01*
X104318320Y-115320273D01*
X104210147Y-115581426D01*
X104155000Y-115858665D01*
X104155000Y-116141335D01*
X104210147Y-116418574D01*
X104318320Y-116679727D01*
X104475363Y-116914759D01*
X104675241Y-117114637D01*
X104910273Y-117271680D01*
X105171426Y-117379853D01*
X105448665Y-117435000D01*
X105731335Y-117435000D01*
X106008574Y-117379853D01*
X106269727Y-117271680D01*
X106504759Y-117114637D01*
X106704637Y-116914759D01*
X106757930Y-116835000D01*
X107904133Y-116835000D01*
X110915001Y-119845869D01*
X110915000Y-129708981D01*
X110910960Y-129750000D01*
X110915000Y-129791018D01*
X110927082Y-129913688D01*
X110974828Y-130071086D01*
X111052364Y-130216145D01*
X111156709Y-130343291D01*
X111188579Y-130369446D01*
X115692131Y-134873000D01*
X100127000Y-134873000D01*
X100127000Y-133165000D01*
X105646928Y-133165000D01*
X105659188Y-133289482D01*
X105695498Y-133409180D01*
X105754463Y-133519494D01*
X105833815Y-133616185D01*
X105930506Y-133695537D01*
X106040820Y-133754502D01*
X106160518Y-133790812D01*
X106285000Y-133803072D01*
X106964250Y-133800000D01*
X107123000Y-133641250D01*
X107123000Y-132377000D01*
X107377000Y-132377000D01*
X107377000Y-133641250D01*
X107535750Y-133800000D01*
X108215000Y-133803072D01*
X108339482Y-133790812D01*
X108459180Y-133754502D01*
X108569494Y-133695537D01*
X108666185Y-133616185D01*
X108745537Y-133519494D01*
X108804502Y-133409180D01*
X108840812Y-133289482D01*
X108853072Y-133165000D01*
X108850000Y-132535750D01*
X108691250Y-132377000D01*
X107377000Y-132377000D01*
X107123000Y-132377000D01*
X105808750Y-132377000D01*
X105650000Y-132535750D01*
X105646928Y-133165000D01*
X100127000Y-133165000D01*
X100127000Y-128982565D01*
X105550000Y-128982565D01*
X105550000Y-129317435D01*
X105615330Y-129645872D01*
X105743479Y-129955252D01*
X105929523Y-130233687D01*
X106166313Y-130470477D01*
X106444748Y-130656521D01*
X106545140Y-130698105D01*
X106285000Y-130696928D01*
X106160518Y-130709188D01*
X106040820Y-130745498D01*
X105930506Y-130804463D01*
X105833815Y-130883815D01*
X105754463Y-130980506D01*
X105695498Y-131090820D01*
X105659188Y-131210518D01*
X105646928Y-131335000D01*
X105650000Y-131964250D01*
X105808750Y-132123000D01*
X107123000Y-132123000D01*
X107123000Y-132103000D01*
X107377000Y-132103000D01*
X107377000Y-132123000D01*
X108691250Y-132123000D01*
X108850000Y-131964250D01*
X108853072Y-131335000D01*
X108840812Y-131210518D01*
X108804502Y-131090820D01*
X108745537Y-130980506D01*
X108666185Y-130883815D01*
X108569494Y-130804463D01*
X108459180Y-130745498D01*
X108339482Y-130709188D01*
X108215000Y-130696928D01*
X107954860Y-130698105D01*
X108055252Y-130656521D01*
X108333687Y-130470477D01*
X108570477Y-130233687D01*
X108756521Y-129955252D01*
X108884670Y-129645872D01*
X108950000Y-129317435D01*
X108950000Y-128982565D01*
X108884670Y-128654128D01*
X108756521Y-128344748D01*
X108570477Y-128066313D01*
X108333687Y-127829523D01*
X108055252Y-127643479D01*
X107745872Y-127515330D01*
X107417435Y-127450000D01*
X107082565Y-127450000D01*
X106754128Y-127515330D01*
X106444748Y-127643479D01*
X106166313Y-127829523D01*
X105929523Y-128066313D01*
X105743479Y-128344748D01*
X105615330Y-128654128D01*
X105550000Y-128982565D01*
X100127000Y-128982565D01*
X100127000Y-105000000D01*
X101160960Y-105000000D01*
X101165001Y-105041029D01*
X101165000Y-118958981D01*
X101160960Y-119000000D01*
X101165000Y-119041018D01*
X101177082Y-119163688D01*
X101224828Y-119321086D01*
X101302364Y-119466145D01*
X101406709Y-119593291D01*
X101438579Y-119619446D01*
X103230559Y-121411427D01*
X103256709Y-121443291D01*
X103383854Y-121547636D01*
X103528913Y-121625172D01*
X103686311Y-121672918D01*
X103849999Y-121689040D01*
X103891018Y-121685000D01*
X105763356Y-121685000D01*
X105929523Y-121933687D01*
X106166313Y-122170477D01*
X106444748Y-122356521D01*
X106754128Y-122484670D01*
X107082565Y-122550000D01*
X107417435Y-122550000D01*
X107745872Y-122484670D01*
X108055252Y-122356521D01*
X108333687Y-122170477D01*
X108570477Y-121933687D01*
X108756521Y-121655252D01*
X108884670Y-121345872D01*
X108950000Y-121017435D01*
X108950000Y-120682565D01*
X108884670Y-120354128D01*
X108756521Y-120044748D01*
X108570477Y-119766313D01*
X108333687Y-119529523D01*
X108055252Y-119343479D01*
X107745872Y-119215330D01*
X107417435Y-119150000D01*
X107082565Y-119150000D01*
X106754128Y-119215330D01*
X106444748Y-119343479D01*
X106166313Y-119529523D01*
X105929523Y-119766313D01*
X105763356Y-120015000D01*
X104195868Y-120015000D01*
X102835000Y-118654133D01*
X102835000Y-112558665D01*
X104205000Y-112558665D01*
X104205000Y-112841335D01*
X104260147Y-113118574D01*
X104368320Y-113379727D01*
X104525363Y-113614759D01*
X104725241Y-113814637D01*
X104960273Y-113971680D01*
X105221426Y-114079853D01*
X105498665Y-114135000D01*
X105781335Y-114135000D01*
X106058574Y-114079853D01*
X106319727Y-113971680D01*
X106554759Y-113814637D01*
X106754637Y-113614759D01*
X106911680Y-113379727D01*
X107019853Y-113118574D01*
X107075000Y-112841335D01*
X107075000Y-112558665D01*
X107019853Y-112281426D01*
X106911680Y-112020273D01*
X106754637Y-111785241D01*
X106554759Y-111585363D01*
X106319727Y-111428320D01*
X106058574Y-111320147D01*
X105781335Y-111265000D01*
X105498665Y-111265000D01*
X105221426Y-111320147D01*
X104960273Y-111428320D01*
X104725241Y-111585363D01*
X104525363Y-111785241D01*
X104368320Y-112020273D01*
X104260147Y-112281426D01*
X104205000Y-112558665D01*
X102835000Y-112558665D01*
X102835000Y-107192702D01*
X104826903Y-107192702D01*
X104898486Y-107436671D01*
X105153996Y-107557571D01*
X105428184Y-107626300D01*
X105710512Y-107640217D01*
X105990130Y-107598787D01*
X106256292Y-107503603D01*
X106381514Y-107436671D01*
X106453097Y-107192702D01*
X105640000Y-106379605D01*
X104826903Y-107192702D01*
X102835000Y-107192702D01*
X102835000Y-106270512D01*
X104199783Y-106270512D01*
X104241213Y-106550130D01*
X104336397Y-106816292D01*
X104403329Y-106941514D01*
X104647298Y-107013097D01*
X105460395Y-106200000D01*
X105819605Y-106200000D01*
X106632702Y-107013097D01*
X106876671Y-106941514D01*
X106997571Y-106686004D01*
X107066300Y-106411816D01*
X107080217Y-106129488D01*
X107038787Y-105849870D01*
X106943603Y-105583708D01*
X106876671Y-105458486D01*
X106632702Y-105386903D01*
X105819605Y-106200000D01*
X105460395Y-106200000D01*
X104647298Y-105386903D01*
X104403329Y-105458486D01*
X104282429Y-105713996D01*
X104213700Y-105988184D01*
X104199783Y-106270512D01*
X102835000Y-106270512D01*
X102835000Y-105345867D01*
X102973569Y-105207298D01*
X104826903Y-105207298D01*
X105640000Y-106020395D01*
X106453097Y-105207298D01*
X106381514Y-104963329D01*
X106126004Y-104842429D01*
X105851816Y-104773700D01*
X105569488Y-104759783D01*
X105289870Y-104801213D01*
X105023708Y-104896397D01*
X104898486Y-104963329D01*
X104826903Y-105207298D01*
X102973569Y-105207298D01*
X104345868Y-103835000D01*
X104472070Y-103835000D01*
X104525363Y-103914759D01*
X104725241Y-104114637D01*
X104960273Y-104271680D01*
X105221426Y-104379853D01*
X105498665Y-104435000D01*
X105781335Y-104435000D01*
X106058574Y-104379853D01*
X106319727Y-104271680D01*
X106554759Y-104114637D01*
X106754637Y-103914759D01*
X106911680Y-103679727D01*
X107019853Y-103418574D01*
X107075000Y-103141335D01*
X107075000Y-102858665D01*
X107019853Y-102581426D01*
X106911680Y-102320273D01*
X106754637Y-102085241D01*
X106554759Y-101885363D01*
X106319727Y-101728320D01*
X106058574Y-101620147D01*
X105781335Y-101565000D01*
X105498665Y-101565000D01*
X105221426Y-101620147D01*
X104960273Y-101728320D01*
X104725241Y-101885363D01*
X104525363Y-102085241D01*
X104472070Y-102165000D01*
X104041018Y-102165000D01*
X103999999Y-102160960D01*
X103958981Y-102165000D01*
X103836311Y-102177082D01*
X103678913Y-102224828D01*
X103533854Y-102302364D01*
X103406709Y-102406709D01*
X103380561Y-102438571D01*
X101438574Y-104380559D01*
X101406710Y-104406709D01*
X101325907Y-104505168D01*
X101302364Y-104533855D01*
X101224828Y-104678914D01*
X101177082Y-104836312D01*
X101160960Y-105000000D01*
X100127000Y-105000000D01*
X100127000Y-97542702D01*
X104786903Y-97542702D01*
X104858486Y-97786671D01*
X105113996Y-97907571D01*
X105388184Y-97976300D01*
X105670512Y-97990217D01*
X105950130Y-97948787D01*
X106216292Y-97853603D01*
X106341514Y-97786671D01*
X106413097Y-97542702D01*
X105600000Y-96729605D01*
X104786903Y-97542702D01*
X100127000Y-97542702D01*
X100127000Y-96620512D01*
X104159783Y-96620512D01*
X104201213Y-96900130D01*
X104296397Y-97166292D01*
X104363329Y-97291514D01*
X104607298Y-97363097D01*
X105420395Y-96550000D01*
X105779605Y-96550000D01*
X106592702Y-97363097D01*
X106836671Y-97291514D01*
X106957571Y-97036004D01*
X107026300Y-96761816D01*
X107040217Y-96479488D01*
X106998787Y-96199870D01*
X106903603Y-95933708D01*
X106836671Y-95808486D01*
X106592702Y-95736903D01*
X105779605Y-96550000D01*
X105420395Y-96550000D01*
X104607298Y-95736903D01*
X104363329Y-95808486D01*
X104242429Y-96063996D01*
X104173700Y-96338184D01*
X104159783Y-96620512D01*
X100127000Y-96620512D01*
X100127000Y-95557298D01*
X104786903Y-95557298D01*
X105600000Y-96370395D01*
X106413097Y-95557298D01*
X106341514Y-95313329D01*
X106086004Y-95192429D01*
X105811816Y-95123700D01*
X105529488Y-95109783D01*
X105249870Y-95151213D01*
X104983708Y-95246397D01*
X104858486Y-95313329D01*
X104786903Y-95557298D01*
X100127000Y-95557298D01*
X100127000Y-78127000D01*
X146873000Y-78127000D01*
X146873000Y-134873000D01*
G37*
%TD.AperFunction*%
%TD*%
M02*
