%TF.GenerationSoftware,KiCad,Pcbnew,5.1.7-1.fc31*%
%TF.CreationDate,2021-04-20T15:52:53-04:00*%
%TF.ProjectId,4xmixer,34786d69-7865-4722-9e6b-696361645f70,rev?*%
%TF.SameCoordinates,Original*%
%TF.FileFunction,Copper,L1,Top*%
%TF.FilePolarity,Positive*%
%FSLAX46Y46*%
G04 Gerber Fmt 4.6, Leading zero omitted, Abs format (unit mm)*
G04 Created by KiCad (PCBNEW 5.1.7-1.fc31) date 2021-04-20 15:52:53*
%MOMM*%
%LPD*%
G01*
G04 APERTURE LIST*
%TA.AperFunction,ComponentPad*%
%ADD10O,2.400000X1.600000*%
%TD*%
%TA.AperFunction,ComponentPad*%
%ADD11R,2.400000X1.600000*%
%TD*%
%TA.AperFunction,ComponentPad*%
%ADD12O,1.600000X1.600000*%
%TD*%
%TA.AperFunction,ComponentPad*%
%ADD13C,1.600000*%
%TD*%
%TA.AperFunction,ComponentPad*%
%ADD14O,2.720000X3.240000*%
%TD*%
%TA.AperFunction,ComponentPad*%
%ADD15C,1.800000*%
%TD*%
%TA.AperFunction,ComponentPad*%
%ADD16R,1.800000X1.800000*%
%TD*%
%TA.AperFunction,ComponentPad*%
%ADD17C,2.130000*%
%TD*%
%TA.AperFunction,ComponentPad*%
%ADD18R,1.930000X1.830000*%
%TD*%
%TA.AperFunction,ComponentPad*%
%ADD19O,1.700000X1.700000*%
%TD*%
%TA.AperFunction,ComponentPad*%
%ADD20R,1.700000X1.700000*%
%TD*%
%TA.AperFunction,ComponentPad*%
%ADD21O,2.200000X2.200000*%
%TD*%
%TA.AperFunction,ComponentPad*%
%ADD22R,2.200000X2.200000*%
%TD*%
%TA.AperFunction,ComponentPad*%
%ADD23R,1.600000X1.600000*%
%TD*%
%TA.AperFunction,ViaPad*%
%ADD24C,0.800000*%
%TD*%
%TA.AperFunction,Conductor*%
%ADD25C,0.250000*%
%TD*%
%TA.AperFunction,Conductor*%
%ADD26C,0.254000*%
%TD*%
%TA.AperFunction,Conductor*%
%ADD27C,0.100000*%
%TD*%
G04 APERTURE END LIST*
D10*
%TO.P,U1,8*%
%TO.N,+12V*%
X43434000Y-74930000D03*
%TO.P,U1,4*%
%TO.N,-12V*%
X35814000Y-67310000D03*
%TO.P,U1,7*%
%TO.N,Net-(R7-Pad1)*%
X43434000Y-72390000D03*
%TO.P,U1,3*%
%TO.N,GND*%
X35814000Y-69850000D03*
%TO.P,U1,6*%
%TO.N,Net-(R6-Pad1)*%
X43434000Y-69850000D03*
%TO.P,U1,2*%
%TO.N,Net-(R1-Pad1)*%
X35814000Y-72390000D03*
%TO.P,U1,5*%
%TO.N,GND*%
X43434000Y-67310000D03*
D11*
%TO.P,U1,1*%
%TO.N,Net-(R5-Pad1)*%
X35814000Y-74930000D03*
%TD*%
D12*
%TO.P,R8,2*%
%TO.N,Net-(R7-Pad1)*%
X43180000Y-111760000D03*
D13*
%TO.P,R8,1*%
%TO.N,Net-(J6-PadT)*%
X43180000Y-121920000D03*
%TD*%
D12*
%TO.P,R7,2*%
%TO.N,Net-(R6-Pad1)*%
X43180000Y-52070000D03*
D13*
%TO.P,R7,1*%
%TO.N,Net-(R7-Pad1)*%
X43180000Y-62230000D03*
%TD*%
D12*
%TO.P,R6,2*%
%TO.N,Net-(R5-Pad1)*%
X43815000Y-36830000D03*
D13*
%TO.P,R6,1*%
%TO.N,Net-(R6-Pad1)*%
X43815000Y-46990000D03*
%TD*%
D12*
%TO.P,R5,2*%
%TO.N,Net-(R1-Pad1)*%
X43815000Y-21590000D03*
D13*
%TO.P,R5,1*%
%TO.N,Net-(R5-Pad1)*%
X43815000Y-31750000D03*
%TD*%
D12*
%TO.P,R4,2*%
%TO.N,Net-(P4-Pad2)*%
X27305000Y-67310000D03*
D13*
%TO.P,R4,1*%
%TO.N,Net-(R1-Pad1)*%
X27305000Y-77470000D03*
%TD*%
D12*
%TO.P,R3,2*%
%TO.N,Net-(P3-Pad2)*%
X27305000Y-52070000D03*
D13*
%TO.P,R3,1*%
%TO.N,Net-(R1-Pad1)*%
X27305000Y-62230000D03*
%TD*%
D12*
%TO.P,R2,2*%
%TO.N,Net-(P2-Pad2)*%
X27305000Y-36830000D03*
D13*
%TO.P,R2,1*%
%TO.N,Net-(R1-Pad1)*%
X27305000Y-46990000D03*
%TD*%
D12*
%TO.P,R1,2*%
%TO.N,Net-(P1-Pad2)*%
X27305000Y-21590000D03*
D13*
%TO.P,R1,1*%
%TO.N,Net-(R1-Pad1)*%
X27305000Y-31750000D03*
%TD*%
D14*
%TO.P,P4,*%
%TO.N,*%
X30720000Y-71240000D03*
X40320000Y-71240000D03*
D15*
%TO.P,P4,3*%
%TO.N,Net-(J4-PadT)*%
X38020000Y-78740000D03*
%TO.P,P4,2*%
%TO.N,Net-(P4-Pad2)*%
X35520000Y-78740000D03*
D16*
%TO.P,P4,1*%
%TO.N,GND*%
X33020000Y-78740000D03*
%TD*%
D14*
%TO.P,P3,*%
%TO.N,*%
X30720000Y-56000000D03*
X40320000Y-56000000D03*
D15*
%TO.P,P3,3*%
%TO.N,Net-(J3-PadT)*%
X38020000Y-63500000D03*
%TO.P,P3,2*%
%TO.N,Net-(P3-Pad2)*%
X35520000Y-63500000D03*
D16*
%TO.P,P3,1*%
%TO.N,GND*%
X33020000Y-63500000D03*
%TD*%
D14*
%TO.P,P2,*%
%TO.N,*%
X30720000Y-40760000D03*
X40320000Y-40760000D03*
D15*
%TO.P,P2,3*%
%TO.N,Net-(J2-PadT)*%
X38020000Y-48260000D03*
%TO.P,P2,2*%
%TO.N,Net-(P2-Pad2)*%
X35520000Y-48260000D03*
D16*
%TO.P,P2,1*%
%TO.N,GND*%
X33020000Y-48260000D03*
%TD*%
D14*
%TO.P,P1,*%
%TO.N,*%
X30720000Y-25520000D03*
X40320000Y-25520000D03*
D15*
%TO.P,P1,3*%
%TO.N,Net-(J1-PadT)*%
X38020000Y-33020000D03*
%TO.P,P1,2*%
%TO.N,Net-(P1-Pad2)*%
X35520000Y-33020000D03*
D16*
%TO.P,P1,1*%
%TO.N,GND*%
X33020000Y-33020000D03*
%TD*%
D17*
%TO.P,J6,TN*%
%TO.N,N/C*%
X40640000Y-114860000D03*
D18*
%TO.P,J6,S*%
%TO.N,GND*%
X40640000Y-111760000D03*
D17*
%TO.P,J6,T*%
%TO.N,Net-(J6-PadT)*%
X40640000Y-123160000D03*
%TD*%
D19*
%TO.P,J5,10*%
%TO.N,-12V*%
X30480000Y-121920000D03*
%TO.P,J5,9*%
X33020000Y-121920000D03*
%TO.P,J5,8*%
%TO.N,GND*%
X30480000Y-119380000D03*
%TO.P,J5,7*%
X33020000Y-119380000D03*
%TO.P,J5,6*%
X30480000Y-116840000D03*
%TO.P,J5,5*%
X33020000Y-116840000D03*
%TO.P,J5,4*%
X30480000Y-114300000D03*
%TO.P,J5,3*%
X33020000Y-114300000D03*
%TO.P,J5,2*%
%TO.N,+12V*%
X30480000Y-111760000D03*
D20*
%TO.P,J5,1*%
X33020000Y-111760000D03*
%TD*%
D17*
%TO.P,J4,T*%
%TO.N,Net-(J4-PadT)*%
X40640000Y-107920000D03*
D18*
%TO.P,J4,S*%
%TO.N,GND*%
X40640000Y-96520000D03*
D17*
%TO.P,J4,TN*%
%TO.N,N/C*%
X40640000Y-99620000D03*
%TD*%
%TO.P,J3,TN*%
%TO.N,N/C*%
X30480000Y-99620000D03*
D18*
%TO.P,J3,S*%
%TO.N,GND*%
X30480000Y-96520000D03*
D17*
%TO.P,J3,T*%
%TO.N,Net-(J3-PadT)*%
X30480000Y-107920000D03*
%TD*%
%TO.P,J2,T*%
%TO.N,Net-(J2-PadT)*%
X40640000Y-92680000D03*
D18*
%TO.P,J2,S*%
%TO.N,GND*%
X40640000Y-81280000D03*
D17*
%TO.P,J2,TN*%
%TO.N,N/C*%
X40640000Y-84380000D03*
%TD*%
%TO.P,J1,T*%
%TO.N,Net-(J1-PadT)*%
X30480000Y-92680000D03*
D18*
%TO.P,J1,S*%
%TO.N,GND*%
X30480000Y-81280000D03*
D17*
%TO.P,J1,TN*%
%TO.N,N/C*%
X30480000Y-84380000D03*
%TD*%
D21*
%TO.P,D2,2*%
%TO.N,-12V*%
X37338000Y-104394000D03*
D22*
%TO.P,D2,1*%
%TO.N,GND*%
X37338000Y-94234000D03*
%TD*%
D21*
%TO.P,D1,2*%
%TO.N,GND*%
X33782000Y-94234000D03*
D22*
%TO.P,D1,1*%
%TO.N,+12V*%
X33782000Y-104394000D03*
%TD*%
D13*
%TO.P,C4,2*%
%TO.N,-12V*%
X43100000Y-88265000D03*
D23*
%TO.P,C4,1*%
%TO.N,GND*%
X38100000Y-88265000D03*
%TD*%
D13*
%TO.P,C3,2*%
%TO.N,GND*%
X32940000Y-88265000D03*
D23*
%TO.P,C3,1*%
%TO.N,+12V*%
X27940000Y-88265000D03*
%TD*%
D12*
%TO.P,C2,2*%
%TO.N,-12V*%
X43815000Y-98545000D03*
D13*
%TO.P,C2,1*%
%TO.N,GND*%
X43815000Y-106045000D03*
%TD*%
D12*
%TO.P,C1,2*%
%TO.N,GND*%
X27305000Y-104020000D03*
D13*
%TO.P,C1,1*%
%TO.N,+12V*%
X27305000Y-96520000D03*
%TD*%
D24*
%TO.N,GND*%
X33528000Y-71882000D03*
X30734000Y-74168000D03*
X44450000Y-49276000D03*
X44450000Y-43688000D03*
X43688000Y-65024000D03*
X33528000Y-68580000D03*
%TO.N,+12V*%
X30734000Y-90678000D03*
%TO.N,-12V*%
X38634990Y-68860990D03*
%TD*%
D25*
%TO.N,GND*%
X33020000Y-67056000D02*
X35814000Y-69850000D01*
X33020000Y-63500000D02*
X33020000Y-67056000D01*
%TO.N,+12V*%
X30480000Y-111760000D02*
X33020000Y-111760000D01*
X33020000Y-105156000D02*
X33782000Y-104394000D01*
X33020000Y-111760000D02*
X33020000Y-105156000D01*
X27305000Y-88900000D02*
X27940000Y-88265000D01*
X27305000Y-96520000D02*
X27305000Y-88900000D01*
X32432000Y-104394000D02*
X33782000Y-104394000D01*
X27305000Y-99267000D02*
X32432000Y-104394000D01*
X27305000Y-96520000D02*
X27305000Y-99267000D01*
X44225001Y-75721001D02*
X43434000Y-74930000D01*
X44225001Y-88805001D02*
X44225001Y-75721001D01*
X42352002Y-90678000D02*
X44225001Y-88805001D01*
X42352002Y-90678000D02*
X30734000Y-90678000D01*
X30734000Y-90678000D02*
X30734000Y-90678000D01*
%TO.N,-12V*%
X37966000Y-104394000D02*
X43815000Y-98545000D01*
X37338000Y-104394000D02*
X37966000Y-104394000D01*
X37338000Y-117602000D02*
X33020000Y-121920000D01*
X37338000Y-104394000D02*
X37338000Y-117602000D01*
X30480000Y-121920000D02*
X33020000Y-121920000D01*
X43100000Y-88265000D02*
X43100000Y-80946000D01*
X43100000Y-80946000D02*
X43100000Y-76882000D01*
X38634990Y-72416990D02*
X38634990Y-69622990D01*
X43100000Y-76882000D02*
X38634990Y-72416990D01*
X38634990Y-69622990D02*
X38608000Y-69596000D01*
X38634990Y-69622990D02*
X38634990Y-68860990D01*
X38634990Y-68860990D02*
X38634990Y-68860990D01*
%TO.N,Net-(J6-PadT)*%
X41880000Y-121920000D02*
X43180000Y-121920000D01*
X40640000Y-123160000D02*
X41880000Y-121920000D01*
%TO.N,Net-(P1-Pad2)*%
X29432963Y-21590000D02*
X27305000Y-21590000D01*
X35520000Y-27677037D02*
X29432963Y-21590000D01*
X35520000Y-33020000D02*
X35520000Y-27677037D01*
%TO.N,Net-(P2-Pad2)*%
X29432963Y-36830000D02*
X27305000Y-36830000D01*
X35520000Y-42917037D02*
X29432963Y-36830000D01*
X35520000Y-48260000D02*
X35520000Y-42917037D01*
%TO.N,Net-(P3-Pad2)*%
X35520000Y-58157037D02*
X35520000Y-63500000D01*
X29432963Y-52070000D02*
X35520000Y-58157037D01*
X27305000Y-52070000D02*
X29432963Y-52070000D01*
%TO.N,Net-(P4-Pad2)*%
X27305000Y-67310000D02*
X27305000Y-72771000D01*
X35520000Y-78740000D02*
X35520000Y-77938000D01*
X35520000Y-77938000D02*
X33782000Y-76200000D01*
X30734000Y-76200000D02*
X27305000Y-72771000D01*
X33782000Y-76200000D02*
X30734000Y-76200000D01*
%TO.N,Net-(R1-Pad1)*%
X27305000Y-63881000D02*
X35814000Y-72390000D01*
X27305000Y-62230000D02*
X27305000Y-63881000D01*
X29800001Y-34245001D02*
X27305000Y-31750000D01*
X36108001Y-34245001D02*
X29800001Y-34245001D01*
X36745001Y-33608001D02*
X36108001Y-34245001D01*
X41607037Y-21590000D02*
X36745001Y-26452036D01*
X36745001Y-26452036D02*
X36745001Y-33608001D01*
X43815000Y-21590000D02*
X41607037Y-21590000D01*
X26179999Y-45864999D02*
X27305000Y-46990000D01*
X26179999Y-32875001D02*
X26179999Y-45864999D01*
X27305000Y-31750000D02*
X26179999Y-32875001D01*
X26179999Y-61104999D02*
X27305000Y-62230000D01*
X26179999Y-48115001D02*
X26179999Y-61104999D01*
X27305000Y-46990000D02*
X26179999Y-48115001D01*
X27305000Y-77470000D02*
X25750010Y-75915010D01*
X25750010Y-65435990D02*
X27305000Y-63881000D01*
X25750010Y-75915010D02*
X25750010Y-65435990D01*
%TO.N,Net-(R5-Pad1)*%
X43815000Y-31750000D02*
X43815000Y-36830000D01*
%TO.N,Net-(R6-Pad1)*%
X43180000Y-58674000D02*
X43180000Y-52070000D01*
X41402000Y-60452000D02*
X43180000Y-58674000D01*
X43434000Y-69850000D02*
X41402000Y-67818000D01*
X41402000Y-67818000D02*
X41402000Y-60452000D01*
%TO.N,Net-(R7-Pad1)*%
X43180000Y-111760000D02*
X43180000Y-109377990D01*
X44959010Y-73915010D02*
X43434000Y-72390000D01*
X43180000Y-109377990D02*
X44959010Y-107598980D01*
X44959010Y-107598980D02*
X44959010Y-73915010D01*
X44450000Y-62230000D02*
X43180000Y-62230000D01*
X44959010Y-62739010D02*
X44450000Y-62230000D01*
X43434000Y-72390000D02*
X44959010Y-70864990D01*
X44959010Y-70864990D02*
X44959010Y-62739010D01*
%TD*%
D26*
%TO.N,GND*%
X45060001Y-31030345D02*
X44929637Y-30835241D01*
X44729759Y-30635363D01*
X44494727Y-30478320D01*
X44233574Y-30370147D01*
X43956335Y-30315000D01*
X43673665Y-30315000D01*
X43396426Y-30370147D01*
X43135273Y-30478320D01*
X42900241Y-30635363D01*
X42700363Y-30835241D01*
X42543320Y-31070273D01*
X42435147Y-31331426D01*
X42380000Y-31608665D01*
X42380000Y-31891335D01*
X42435147Y-32168574D01*
X42543320Y-32429727D01*
X42700363Y-32664759D01*
X42900241Y-32864637D01*
X43055000Y-32968044D01*
X43055001Y-35611956D01*
X42900241Y-35715363D01*
X42700363Y-35915241D01*
X42543320Y-36150273D01*
X42435147Y-36411426D01*
X42380000Y-36688665D01*
X42380000Y-36971335D01*
X42435147Y-37248574D01*
X42543320Y-37509727D01*
X42700363Y-37744759D01*
X42900241Y-37944637D01*
X43135273Y-38101680D01*
X43396426Y-38209853D01*
X43673665Y-38265000D01*
X43956335Y-38265000D01*
X44233574Y-38209853D01*
X44494727Y-38101680D01*
X44729759Y-37944637D01*
X44929637Y-37744759D01*
X45060001Y-37549655D01*
X45060001Y-46270345D01*
X44929637Y-46075241D01*
X44729759Y-45875363D01*
X44494727Y-45718320D01*
X44233574Y-45610147D01*
X43956335Y-45555000D01*
X43673665Y-45555000D01*
X43396426Y-45610147D01*
X43135273Y-45718320D01*
X42900241Y-45875363D01*
X42700363Y-46075241D01*
X42543320Y-46310273D01*
X42435147Y-46571426D01*
X42380000Y-46848665D01*
X42380000Y-47131335D01*
X42435147Y-47408574D01*
X42543320Y-47669727D01*
X42700363Y-47904759D01*
X42900241Y-48104637D01*
X43135273Y-48261680D01*
X43396426Y-48369853D01*
X43673665Y-48425000D01*
X43956335Y-48425000D01*
X44233574Y-48369853D01*
X44494727Y-48261680D01*
X44729759Y-48104637D01*
X44929637Y-47904759D01*
X45060001Y-47709655D01*
X45060001Y-61765200D01*
X45013804Y-61719003D01*
X44990001Y-61689999D01*
X44874276Y-61595026D01*
X44742247Y-61524454D01*
X44598986Y-61480997D01*
X44487333Y-61470000D01*
X44487322Y-61470000D01*
X44450000Y-61466324D01*
X44412678Y-61470000D01*
X44398043Y-61470000D01*
X44294637Y-61315241D01*
X44094759Y-61115363D01*
X43859727Y-60958320D01*
X43598574Y-60850147D01*
X43321335Y-60795000D01*
X43038665Y-60795000D01*
X42761426Y-60850147D01*
X42500273Y-60958320D01*
X42265241Y-61115363D01*
X42162000Y-61218604D01*
X42162000Y-60766801D01*
X43691004Y-59237798D01*
X43720001Y-59214001D01*
X43814974Y-59098276D01*
X43885546Y-58966247D01*
X43929003Y-58822986D01*
X43940000Y-58711333D01*
X43940000Y-58711325D01*
X43943676Y-58674000D01*
X43940000Y-58636675D01*
X43940000Y-53288043D01*
X44094759Y-53184637D01*
X44294637Y-52984759D01*
X44451680Y-52749727D01*
X44559853Y-52488574D01*
X44615000Y-52211335D01*
X44615000Y-51928665D01*
X44559853Y-51651426D01*
X44451680Y-51390273D01*
X44294637Y-51155241D01*
X44094759Y-50955363D01*
X43859727Y-50798320D01*
X43598574Y-50690147D01*
X43321335Y-50635000D01*
X43038665Y-50635000D01*
X42761426Y-50690147D01*
X42500273Y-50798320D01*
X42265241Y-50955363D01*
X42065363Y-51155241D01*
X41908320Y-51390273D01*
X41800147Y-51651426D01*
X41745000Y-51928665D01*
X41745000Y-52211335D01*
X41800147Y-52488574D01*
X41908320Y-52749727D01*
X42065363Y-52984759D01*
X42265241Y-53184637D01*
X42420001Y-53288044D01*
X42420000Y-58359198D01*
X40890998Y-59888201D01*
X40862000Y-59911999D01*
X40838202Y-59940997D01*
X40838201Y-59940998D01*
X40767026Y-60027724D01*
X40696454Y-60159754D01*
X40666180Y-60259558D01*
X40652998Y-60303014D01*
X40642001Y-60414667D01*
X40638324Y-60452000D01*
X40642001Y-60489332D01*
X40642000Y-67780678D01*
X40638324Y-67818000D01*
X40642000Y-67855322D01*
X40642000Y-67855332D01*
X40652997Y-67966985D01*
X40692531Y-68097313D01*
X40696454Y-68110246D01*
X40767026Y-68242276D01*
X40806871Y-68290826D01*
X40861999Y-68358001D01*
X40891003Y-68381804D01*
X41738592Y-69229393D01*
X41701818Y-69298192D01*
X41644737Y-69486366D01*
X41433725Y-69313193D01*
X41087147Y-69127943D01*
X40711088Y-69013867D01*
X40320000Y-68975348D01*
X39928913Y-69013867D01*
X39642581Y-69100725D01*
X39669990Y-68962929D01*
X39669990Y-68759051D01*
X39630216Y-68559092D01*
X39552195Y-68370734D01*
X39438927Y-68201216D01*
X39294764Y-68057053D01*
X39125246Y-67943785D01*
X38936888Y-67865764D01*
X38736929Y-67825990D01*
X38533051Y-67825990D01*
X38333092Y-67865764D01*
X38144734Y-67943785D01*
X37975216Y-68057053D01*
X37831053Y-68201216D01*
X37717785Y-68370734D01*
X37639764Y-68559092D01*
X37599990Y-68759051D01*
X37599990Y-68962929D01*
X37639764Y-69162888D01*
X37717785Y-69351246D01*
X37831053Y-69520764D01*
X37849880Y-69539591D01*
X37844324Y-69596000D01*
X37858998Y-69744985D01*
X37874991Y-69797709D01*
X37874990Y-72379667D01*
X37871314Y-72416990D01*
X37874990Y-72454312D01*
X37874990Y-72454322D01*
X37885987Y-72565975D01*
X37917939Y-72671309D01*
X37929444Y-72709236D01*
X38000016Y-72841266D01*
X38039861Y-72889816D01*
X38094989Y-72956991D01*
X38123993Y-72980794D01*
X42340001Y-77196803D01*
X42340000Y-80983332D01*
X42340001Y-80983342D01*
X42340000Y-84212565D01*
X42274670Y-83884128D01*
X42146521Y-83574748D01*
X41960477Y-83296313D01*
X41723687Y-83059523D01*
X41445252Y-82873479D01*
X41344860Y-82831895D01*
X41605000Y-82833072D01*
X41729482Y-82820812D01*
X41849180Y-82784502D01*
X41959494Y-82725537D01*
X42056185Y-82646185D01*
X42135537Y-82549494D01*
X42194502Y-82439180D01*
X42230812Y-82319482D01*
X42243072Y-82195000D01*
X42240000Y-81565750D01*
X42081250Y-81407000D01*
X40767000Y-81407000D01*
X40767000Y-81427000D01*
X40513000Y-81427000D01*
X40513000Y-81407000D01*
X39198750Y-81407000D01*
X39040000Y-81565750D01*
X39036928Y-82195000D01*
X39049188Y-82319482D01*
X39085498Y-82439180D01*
X39144463Y-82549494D01*
X39223815Y-82646185D01*
X39320506Y-82725537D01*
X39430820Y-82784502D01*
X39550518Y-82820812D01*
X39675000Y-82833072D01*
X39935140Y-82831895D01*
X39834748Y-82873479D01*
X39556313Y-83059523D01*
X39319523Y-83296313D01*
X39133479Y-83574748D01*
X39005330Y-83884128D01*
X38940000Y-84212565D01*
X38940000Y-84547435D01*
X39005330Y-84875872D01*
X39133479Y-85185252D01*
X39319523Y-85463687D01*
X39556313Y-85700477D01*
X39834748Y-85886521D01*
X40144128Y-86014670D01*
X40472565Y-86080000D01*
X40807435Y-86080000D01*
X41135872Y-86014670D01*
X41445252Y-85886521D01*
X41723687Y-85700477D01*
X41960477Y-85463687D01*
X42146521Y-85185252D01*
X42274670Y-84875872D01*
X42340000Y-84547435D01*
X42340000Y-87046956D01*
X42185241Y-87150363D01*
X41985363Y-87350241D01*
X41828320Y-87585273D01*
X41720147Y-87846426D01*
X41665000Y-88123665D01*
X41665000Y-88406335D01*
X41720147Y-88683574D01*
X41828320Y-88944727D01*
X41985363Y-89179759D01*
X42185241Y-89379637D01*
X42419223Y-89535978D01*
X42037201Y-89918000D01*
X31437711Y-89918000D01*
X31393774Y-89874063D01*
X31224256Y-89760795D01*
X31035898Y-89682774D01*
X30835939Y-89643000D01*
X30632061Y-89643000D01*
X30432102Y-89682774D01*
X30243744Y-89760795D01*
X30074226Y-89874063D01*
X29930063Y-90018226D01*
X29816795Y-90187744D01*
X29738774Y-90376102D01*
X29699000Y-90576061D01*
X29699000Y-90779939D01*
X29738774Y-90979898D01*
X29797839Y-91122493D01*
X29674748Y-91173479D01*
X29396313Y-91359523D01*
X29159523Y-91596313D01*
X28973479Y-91874748D01*
X28845330Y-92184128D01*
X28780000Y-92512565D01*
X28780000Y-92847435D01*
X28845330Y-93175872D01*
X28973479Y-93485252D01*
X29159523Y-93763687D01*
X29396313Y-94000477D01*
X29674748Y-94186521D01*
X29984128Y-94314670D01*
X30312565Y-94380000D01*
X30647435Y-94380000D01*
X30975872Y-94314670D01*
X31285252Y-94186521D01*
X31563687Y-94000477D01*
X31726287Y-93837877D01*
X32092821Y-93837877D01*
X32210400Y-94107000D01*
X33655000Y-94107000D01*
X33655000Y-92662875D01*
X33909000Y-92662875D01*
X33909000Y-94107000D01*
X35353600Y-94107000D01*
X35471179Y-93837877D01*
X35361442Y-93515946D01*
X35191008Y-93221609D01*
X35113981Y-93134000D01*
X35599928Y-93134000D01*
X35603000Y-93948250D01*
X35761750Y-94107000D01*
X37211000Y-94107000D01*
X37211000Y-92657750D01*
X37052250Y-92499000D01*
X36238000Y-92495928D01*
X36113518Y-92508188D01*
X35993820Y-92544498D01*
X35883506Y-92603463D01*
X35786815Y-92682815D01*
X35707463Y-92779506D01*
X35648498Y-92889820D01*
X35612188Y-93009518D01*
X35599928Y-93134000D01*
X35113981Y-93134000D01*
X34966427Y-92966178D01*
X34696329Y-92759469D01*
X34391094Y-92609425D01*
X34178122Y-92544825D01*
X33909000Y-92662875D01*
X33655000Y-92662875D01*
X33385878Y-92544825D01*
X33172906Y-92609425D01*
X32867671Y-92759469D01*
X32597573Y-92966178D01*
X32372992Y-93221609D01*
X32202558Y-93515946D01*
X32092821Y-93837877D01*
X31726287Y-93837877D01*
X31800477Y-93763687D01*
X31986521Y-93485252D01*
X32114670Y-93175872D01*
X32180000Y-92847435D01*
X32180000Y-92512565D01*
X32114670Y-92184128D01*
X31986521Y-91874748D01*
X31800477Y-91596313D01*
X31642164Y-91438000D01*
X39477836Y-91438000D01*
X39319523Y-91596313D01*
X39133479Y-91874748D01*
X39005330Y-92184128D01*
X38940000Y-92512565D01*
X38940000Y-92744733D01*
X38889185Y-92682815D01*
X38792494Y-92603463D01*
X38682180Y-92544498D01*
X38562482Y-92508188D01*
X38438000Y-92495928D01*
X37623750Y-92499000D01*
X37465000Y-92657750D01*
X37465000Y-94107000D01*
X38914250Y-94107000D01*
X39073000Y-93948250D01*
X39075277Y-93344739D01*
X39133479Y-93485252D01*
X39319523Y-93763687D01*
X39556313Y-94000477D01*
X39834748Y-94186521D01*
X40144128Y-94314670D01*
X40472565Y-94380000D01*
X40807435Y-94380000D01*
X41135872Y-94314670D01*
X41445252Y-94186521D01*
X41723687Y-94000477D01*
X41960477Y-93763687D01*
X42146521Y-93485252D01*
X42274670Y-93175872D01*
X42340000Y-92847435D01*
X42340000Y-92512565D01*
X42274670Y-92184128D01*
X42146521Y-91874748D01*
X41960477Y-91596313D01*
X41802164Y-91438000D01*
X42314680Y-91438000D01*
X42352002Y-91441676D01*
X42389324Y-91438000D01*
X42389335Y-91438000D01*
X42500988Y-91427003D01*
X42644249Y-91383546D01*
X42776278Y-91312974D01*
X42892003Y-91218001D01*
X42915806Y-91188997D01*
X44199011Y-89905793D01*
X44199010Y-97158272D01*
X43956335Y-97110000D01*
X43673665Y-97110000D01*
X43396426Y-97165147D01*
X43135273Y-97273320D01*
X42900241Y-97430363D01*
X42700363Y-97630241D01*
X42543320Y-97865273D01*
X42435147Y-98126426D01*
X42380000Y-98403665D01*
X42380000Y-98686335D01*
X42416312Y-98868886D01*
X42241397Y-99043801D01*
X42146521Y-98814748D01*
X41960477Y-98536313D01*
X41723687Y-98299523D01*
X41445252Y-98113479D01*
X41344860Y-98071895D01*
X41605000Y-98073072D01*
X41729482Y-98060812D01*
X41849180Y-98024502D01*
X41959494Y-97965537D01*
X42056185Y-97886185D01*
X42135537Y-97789494D01*
X42194502Y-97679180D01*
X42230812Y-97559482D01*
X42243072Y-97435000D01*
X42240000Y-96805750D01*
X42081250Y-96647000D01*
X40767000Y-96647000D01*
X40767000Y-96667000D01*
X40513000Y-96667000D01*
X40513000Y-96647000D01*
X39198750Y-96647000D01*
X39040000Y-96805750D01*
X39036928Y-97435000D01*
X39049188Y-97559482D01*
X39085498Y-97679180D01*
X39144463Y-97789494D01*
X39223815Y-97886185D01*
X39320506Y-97965537D01*
X39430820Y-98024502D01*
X39550518Y-98060812D01*
X39675000Y-98073072D01*
X39935140Y-98071895D01*
X39834748Y-98113479D01*
X39556313Y-98299523D01*
X39319523Y-98536313D01*
X39133479Y-98814748D01*
X39005330Y-99124128D01*
X38940000Y-99452565D01*
X38940000Y-99787435D01*
X39005330Y-100115872D01*
X39133479Y-100425252D01*
X39319523Y-100703687D01*
X39556313Y-100940477D01*
X39834748Y-101126521D01*
X40063801Y-101221398D01*
X38321028Y-102964171D01*
X38159831Y-102856463D01*
X37844081Y-102725675D01*
X37508883Y-102659000D01*
X37167117Y-102659000D01*
X36831919Y-102725675D01*
X36516169Y-102856463D01*
X36232002Y-103046337D01*
X35990337Y-103288002D01*
X35800463Y-103572169D01*
X35669675Y-103887919D01*
X35603000Y-104223117D01*
X35603000Y-104564883D01*
X35669675Y-104900081D01*
X35800463Y-105215831D01*
X35990337Y-105499998D01*
X36232002Y-105741663D01*
X36516169Y-105931537D01*
X36578000Y-105957148D01*
X36578001Y-117287197D01*
X34505000Y-119360199D01*
X34505000Y-119252998D01*
X34340156Y-119252998D01*
X34461476Y-119023110D01*
X34416825Y-118875901D01*
X34291641Y-118613080D01*
X34117588Y-118379731D01*
X33901355Y-118184822D01*
X33775745Y-118110000D01*
X33901355Y-118035178D01*
X34117588Y-117840269D01*
X34291641Y-117606920D01*
X34416825Y-117344099D01*
X34461476Y-117196890D01*
X34340155Y-116967000D01*
X33147000Y-116967000D01*
X33147000Y-119253000D01*
X33167000Y-119253000D01*
X33167000Y-119507000D01*
X33147000Y-119507000D01*
X33147000Y-119527000D01*
X32893000Y-119527000D01*
X32893000Y-119507000D01*
X30607000Y-119507000D01*
X30607000Y-119527000D01*
X30353000Y-119527000D01*
X30353000Y-119507000D01*
X29159845Y-119507000D01*
X29038524Y-119736890D01*
X29083175Y-119884099D01*
X29208359Y-120146920D01*
X29382412Y-120380269D01*
X29598645Y-120575178D01*
X29715534Y-120644805D01*
X29533368Y-120766525D01*
X29326525Y-120973368D01*
X29164010Y-121216589D01*
X29052068Y-121486842D01*
X28995000Y-121773740D01*
X28995000Y-122066260D01*
X29052068Y-122353158D01*
X29164010Y-122623411D01*
X29326525Y-122866632D01*
X29533368Y-123073475D01*
X29776589Y-123235990D01*
X30046842Y-123347932D01*
X30333740Y-123405000D01*
X30626260Y-123405000D01*
X30913158Y-123347932D01*
X31183411Y-123235990D01*
X31426632Y-123073475D01*
X31633475Y-122866632D01*
X31750000Y-122692240D01*
X31866525Y-122866632D01*
X32073368Y-123073475D01*
X32316589Y-123235990D01*
X32586842Y-123347932D01*
X32873740Y-123405000D01*
X33166260Y-123405000D01*
X33453158Y-123347932D01*
X33723411Y-123235990D01*
X33966632Y-123073475D01*
X34047542Y-122992565D01*
X38940000Y-122992565D01*
X38940000Y-123327435D01*
X39005330Y-123655872D01*
X39133479Y-123965252D01*
X39319523Y-124243687D01*
X39556313Y-124480477D01*
X39834748Y-124666521D01*
X40144128Y-124794670D01*
X40472565Y-124860000D01*
X40807435Y-124860000D01*
X41135872Y-124794670D01*
X41445252Y-124666521D01*
X41723687Y-124480477D01*
X41960477Y-124243687D01*
X42146521Y-123965252D01*
X42274670Y-123655872D01*
X42340000Y-123327435D01*
X42340000Y-123084589D01*
X42500273Y-123191680D01*
X42761426Y-123299853D01*
X43038665Y-123355000D01*
X43321335Y-123355000D01*
X43598574Y-123299853D01*
X43859727Y-123191680D01*
X44094759Y-123034637D01*
X44294637Y-122834759D01*
X44451680Y-122599727D01*
X44559853Y-122338574D01*
X44615000Y-122061335D01*
X44615000Y-121778665D01*
X44559853Y-121501426D01*
X44451680Y-121240273D01*
X44294637Y-121005241D01*
X44094759Y-120805363D01*
X43859727Y-120648320D01*
X43598574Y-120540147D01*
X43321335Y-120485000D01*
X43038665Y-120485000D01*
X42761426Y-120540147D01*
X42500273Y-120648320D01*
X42265241Y-120805363D01*
X42065363Y-121005241D01*
X41961957Y-121160000D01*
X41917323Y-121160000D01*
X41880000Y-121156324D01*
X41842677Y-121160000D01*
X41842667Y-121160000D01*
X41731014Y-121170997D01*
X41587753Y-121214454D01*
X41455724Y-121285026D01*
X41339999Y-121379999D01*
X41316201Y-121408997D01*
X41181124Y-121544074D01*
X41135872Y-121525330D01*
X40807435Y-121460000D01*
X40472565Y-121460000D01*
X40144128Y-121525330D01*
X39834748Y-121653479D01*
X39556313Y-121839523D01*
X39319523Y-122076313D01*
X39133479Y-122354748D01*
X39005330Y-122664128D01*
X38940000Y-122992565D01*
X34047542Y-122992565D01*
X34173475Y-122866632D01*
X34335990Y-122623411D01*
X34447932Y-122353158D01*
X34505000Y-122066260D01*
X34505000Y-121773740D01*
X34461209Y-121553592D01*
X37849003Y-118165799D01*
X37878001Y-118142001D01*
X37972974Y-118026276D01*
X38043546Y-117894247D01*
X38087003Y-117750986D01*
X38098000Y-117639333D01*
X38098000Y-117639324D01*
X38101676Y-117602001D01*
X38098000Y-117564678D01*
X38098000Y-110845000D01*
X39036928Y-110845000D01*
X39040000Y-111474250D01*
X39198750Y-111633000D01*
X40513000Y-111633000D01*
X40513000Y-110368750D01*
X40354250Y-110210000D01*
X39675000Y-110206928D01*
X39550518Y-110219188D01*
X39430820Y-110255498D01*
X39320506Y-110314463D01*
X39223815Y-110393815D01*
X39144463Y-110490506D01*
X39085498Y-110600820D01*
X39049188Y-110720518D01*
X39036928Y-110845000D01*
X38098000Y-110845000D01*
X38098000Y-107752565D01*
X38940000Y-107752565D01*
X38940000Y-108087435D01*
X39005330Y-108415872D01*
X39133479Y-108725252D01*
X39319523Y-109003687D01*
X39556313Y-109240477D01*
X39834748Y-109426521D01*
X40144128Y-109554670D01*
X40472565Y-109620000D01*
X40807435Y-109620000D01*
X41135872Y-109554670D01*
X41445252Y-109426521D01*
X41723687Y-109240477D01*
X41960477Y-109003687D01*
X42146521Y-108725252D01*
X42274670Y-108415872D01*
X42340000Y-108087435D01*
X42340000Y-107752565D01*
X42274670Y-107424128D01*
X42146521Y-107114748D01*
X41960477Y-106836313D01*
X41723687Y-106599523D01*
X41445252Y-106413479D01*
X41135872Y-106285330D01*
X40807435Y-106220000D01*
X40472565Y-106220000D01*
X40144128Y-106285330D01*
X39834748Y-106413479D01*
X39556313Y-106599523D01*
X39319523Y-106836313D01*
X39133479Y-107114748D01*
X39005330Y-107424128D01*
X38940000Y-107752565D01*
X38098000Y-107752565D01*
X38098000Y-106115512D01*
X42374783Y-106115512D01*
X42416213Y-106395130D01*
X42511397Y-106661292D01*
X42578329Y-106786514D01*
X42822298Y-106858097D01*
X43635395Y-106045000D01*
X42822298Y-105231903D01*
X42578329Y-105303486D01*
X42457429Y-105558996D01*
X42388700Y-105833184D01*
X42374783Y-106115512D01*
X38098000Y-106115512D01*
X38098000Y-105957148D01*
X38159831Y-105931537D01*
X38443998Y-105741663D01*
X38685663Y-105499998D01*
X38875537Y-105215831D01*
X39006325Y-104900081D01*
X39073000Y-104564883D01*
X39073000Y-104361801D01*
X43491114Y-99943688D01*
X43673665Y-99980000D01*
X43956335Y-99980000D01*
X44199010Y-99931728D01*
X44199010Y-104661863D01*
X44026816Y-104618700D01*
X43744488Y-104604783D01*
X43464870Y-104646213D01*
X43198708Y-104741397D01*
X43073486Y-104808329D01*
X43001903Y-105052298D01*
X43815000Y-105865395D01*
X43829143Y-105851253D01*
X44008748Y-106030858D01*
X43994605Y-106045000D01*
X44008748Y-106059143D01*
X43829143Y-106238748D01*
X43815000Y-106224605D01*
X43001903Y-107037702D01*
X43073486Y-107281671D01*
X43328996Y-107402571D01*
X43603184Y-107471300D01*
X43885512Y-107485217D01*
X44017532Y-107465656D01*
X42668998Y-108814191D01*
X42640000Y-108837989D01*
X42616202Y-108866987D01*
X42616201Y-108866988D01*
X42545026Y-108953714D01*
X42474454Y-109085744D01*
X42430998Y-109229005D01*
X42416324Y-109377990D01*
X42420001Y-109415322D01*
X42420001Y-110541956D01*
X42265241Y-110645363D01*
X42221333Y-110689271D01*
X42194502Y-110600820D01*
X42135537Y-110490506D01*
X42056185Y-110393815D01*
X41959494Y-110314463D01*
X41849180Y-110255498D01*
X41729482Y-110219188D01*
X41605000Y-110206928D01*
X40925750Y-110210000D01*
X40767000Y-110368750D01*
X40767000Y-111633000D01*
X40787000Y-111633000D01*
X40787000Y-111887000D01*
X40767000Y-111887000D01*
X40767000Y-111907000D01*
X40513000Y-111907000D01*
X40513000Y-111887000D01*
X39198750Y-111887000D01*
X39040000Y-112045750D01*
X39036928Y-112675000D01*
X39049188Y-112799482D01*
X39085498Y-112919180D01*
X39144463Y-113029494D01*
X39223815Y-113126185D01*
X39320506Y-113205537D01*
X39430820Y-113264502D01*
X39550518Y-113300812D01*
X39675000Y-113313072D01*
X39935140Y-113311895D01*
X39834748Y-113353479D01*
X39556313Y-113539523D01*
X39319523Y-113776313D01*
X39133479Y-114054748D01*
X39005330Y-114364128D01*
X38940000Y-114692565D01*
X38940000Y-115027435D01*
X39005330Y-115355872D01*
X39133479Y-115665252D01*
X39319523Y-115943687D01*
X39556313Y-116180477D01*
X39834748Y-116366521D01*
X40144128Y-116494670D01*
X40472565Y-116560000D01*
X40807435Y-116560000D01*
X41135872Y-116494670D01*
X41445252Y-116366521D01*
X41723687Y-116180477D01*
X41960477Y-115943687D01*
X42146521Y-115665252D01*
X42274670Y-115355872D01*
X42340000Y-115027435D01*
X42340000Y-114692565D01*
X42274670Y-114364128D01*
X42146521Y-114054748D01*
X41960477Y-113776313D01*
X41723687Y-113539523D01*
X41445252Y-113353479D01*
X41344860Y-113311895D01*
X41605000Y-113313072D01*
X41729482Y-113300812D01*
X41849180Y-113264502D01*
X41959494Y-113205537D01*
X42056185Y-113126185D01*
X42135537Y-113029494D01*
X42194502Y-112919180D01*
X42221333Y-112830729D01*
X42265241Y-112874637D01*
X42500273Y-113031680D01*
X42761426Y-113139853D01*
X43038665Y-113195000D01*
X43321335Y-113195000D01*
X43598574Y-113139853D01*
X43859727Y-113031680D01*
X44094759Y-112874637D01*
X44294637Y-112674759D01*
X44451680Y-112439727D01*
X44559853Y-112178574D01*
X44615000Y-111901335D01*
X44615000Y-111618665D01*
X44559853Y-111341426D01*
X44451680Y-111080273D01*
X44294637Y-110845241D01*
X44094759Y-110645363D01*
X43940000Y-110541957D01*
X43940000Y-109692791D01*
X45060000Y-108572792D01*
X45060000Y-126340000D01*
X26060000Y-126340000D01*
X26060000Y-117196890D01*
X29038524Y-117196890D01*
X29083175Y-117344099D01*
X29208359Y-117606920D01*
X29382412Y-117840269D01*
X29598645Y-118035178D01*
X29724255Y-118110000D01*
X29598645Y-118184822D01*
X29382412Y-118379731D01*
X29208359Y-118613080D01*
X29083175Y-118875901D01*
X29038524Y-119023110D01*
X29159845Y-119253000D01*
X30353000Y-119253000D01*
X30353000Y-116967000D01*
X30607000Y-116967000D01*
X30607000Y-119253000D01*
X32893000Y-119253000D01*
X32893000Y-116967000D01*
X30607000Y-116967000D01*
X30353000Y-116967000D01*
X29159845Y-116967000D01*
X29038524Y-117196890D01*
X26060000Y-117196890D01*
X26060000Y-114656890D01*
X29038524Y-114656890D01*
X29083175Y-114804099D01*
X29208359Y-115066920D01*
X29382412Y-115300269D01*
X29598645Y-115495178D01*
X29724255Y-115570000D01*
X29598645Y-115644822D01*
X29382412Y-115839731D01*
X29208359Y-116073080D01*
X29083175Y-116335901D01*
X29038524Y-116483110D01*
X29159845Y-116713000D01*
X30353000Y-116713000D01*
X30353000Y-114427000D01*
X30607000Y-114427000D01*
X30607000Y-116713000D01*
X32893000Y-116713000D01*
X32893000Y-114427000D01*
X33147000Y-114427000D01*
X33147000Y-116713000D01*
X34340155Y-116713000D01*
X34461476Y-116483110D01*
X34416825Y-116335901D01*
X34291641Y-116073080D01*
X34117588Y-115839731D01*
X33901355Y-115644822D01*
X33775745Y-115570000D01*
X33901355Y-115495178D01*
X34117588Y-115300269D01*
X34291641Y-115066920D01*
X34416825Y-114804099D01*
X34461476Y-114656890D01*
X34340155Y-114427000D01*
X33147000Y-114427000D01*
X32893000Y-114427000D01*
X30607000Y-114427000D01*
X30353000Y-114427000D01*
X29159845Y-114427000D01*
X29038524Y-114656890D01*
X26060000Y-114656890D01*
X26060000Y-107752565D01*
X28780000Y-107752565D01*
X28780000Y-108087435D01*
X28845330Y-108415872D01*
X28973479Y-108725252D01*
X29159523Y-109003687D01*
X29396313Y-109240477D01*
X29674748Y-109426521D01*
X29984128Y-109554670D01*
X30312565Y-109620000D01*
X30647435Y-109620000D01*
X30975872Y-109554670D01*
X31285252Y-109426521D01*
X31563687Y-109240477D01*
X31800477Y-109003687D01*
X31986521Y-108725252D01*
X32114670Y-108415872D01*
X32180000Y-108087435D01*
X32180000Y-107752565D01*
X32114670Y-107424128D01*
X31986521Y-107114748D01*
X31800477Y-106836313D01*
X31563687Y-106599523D01*
X31285252Y-106413479D01*
X30975872Y-106285330D01*
X30647435Y-106220000D01*
X30312565Y-106220000D01*
X29984128Y-106285330D01*
X29674748Y-106413479D01*
X29396313Y-106599523D01*
X29159523Y-106836313D01*
X28973479Y-107114748D01*
X28845330Y-107424128D01*
X28780000Y-107752565D01*
X26060000Y-107752565D01*
X26060000Y-104720703D01*
X26152615Y-104875131D01*
X26341586Y-105083519D01*
X26567580Y-105251037D01*
X26821913Y-105371246D01*
X26955961Y-105411904D01*
X27178000Y-105289915D01*
X27178000Y-104147000D01*
X27432000Y-104147000D01*
X27432000Y-105289915D01*
X27654039Y-105411904D01*
X27788087Y-105371246D01*
X28042420Y-105251037D01*
X28268414Y-105083519D01*
X28457385Y-104875131D01*
X28602070Y-104633881D01*
X28696909Y-104369040D01*
X28575624Y-104147000D01*
X27432000Y-104147000D01*
X27178000Y-104147000D01*
X27158000Y-104147000D01*
X27158000Y-103893000D01*
X27178000Y-103893000D01*
X27178000Y-102750085D01*
X27432000Y-102750085D01*
X27432000Y-103893000D01*
X28575624Y-103893000D01*
X28696909Y-103670960D01*
X28602070Y-103406119D01*
X28457385Y-103164869D01*
X28268414Y-102956481D01*
X28042420Y-102788963D01*
X27788087Y-102668754D01*
X27654039Y-102628096D01*
X27432000Y-102750085D01*
X27178000Y-102750085D01*
X26955961Y-102628096D01*
X26821913Y-102668754D01*
X26567580Y-102788963D01*
X26341586Y-102956481D01*
X26152615Y-103164869D01*
X26060000Y-103319297D01*
X26060000Y-97239657D01*
X26190363Y-97434759D01*
X26390241Y-97634637D01*
X26545000Y-97738044D01*
X26545001Y-99229668D01*
X26541324Y-99267000D01*
X26555998Y-99415985D01*
X26599454Y-99559246D01*
X26670026Y-99691276D01*
X26741201Y-99778002D01*
X26765000Y-99807001D01*
X26793998Y-99830799D01*
X31868201Y-104905003D01*
X31891999Y-104934001D01*
X31920997Y-104957799D01*
X32007723Y-105028974D01*
X32043928Y-105048326D01*
X32043928Y-105494000D01*
X32056188Y-105618482D01*
X32092498Y-105738180D01*
X32151463Y-105848494D01*
X32230815Y-105945185D01*
X32260001Y-105969137D01*
X32260000Y-110271928D01*
X32170000Y-110271928D01*
X32045518Y-110284188D01*
X31925820Y-110320498D01*
X31815506Y-110379463D01*
X31718815Y-110458815D01*
X31639463Y-110555506D01*
X31580498Y-110665820D01*
X31558487Y-110738380D01*
X31426632Y-110606525D01*
X31183411Y-110444010D01*
X30913158Y-110332068D01*
X30626260Y-110275000D01*
X30333740Y-110275000D01*
X30046842Y-110332068D01*
X29776589Y-110444010D01*
X29533368Y-110606525D01*
X29326525Y-110813368D01*
X29164010Y-111056589D01*
X29052068Y-111326842D01*
X28995000Y-111613740D01*
X28995000Y-111906260D01*
X29052068Y-112193158D01*
X29164010Y-112463411D01*
X29326525Y-112706632D01*
X29533368Y-112913475D01*
X29715534Y-113035195D01*
X29598645Y-113104822D01*
X29382412Y-113299731D01*
X29208359Y-113533080D01*
X29083175Y-113795901D01*
X29038524Y-113943110D01*
X29159845Y-114173000D01*
X30353000Y-114173000D01*
X30353000Y-114153000D01*
X30607000Y-114153000D01*
X30607000Y-114173000D01*
X32893000Y-114173000D01*
X32893000Y-114153000D01*
X33147000Y-114153000D01*
X33147000Y-114173000D01*
X34340155Y-114173000D01*
X34461476Y-113943110D01*
X34416825Y-113795901D01*
X34291641Y-113533080D01*
X34117588Y-113299731D01*
X34033534Y-113223966D01*
X34114180Y-113199502D01*
X34224494Y-113140537D01*
X34321185Y-113061185D01*
X34400537Y-112964494D01*
X34459502Y-112854180D01*
X34495812Y-112734482D01*
X34508072Y-112610000D01*
X34508072Y-110910000D01*
X34495812Y-110785518D01*
X34459502Y-110665820D01*
X34400537Y-110555506D01*
X34321185Y-110458815D01*
X34224494Y-110379463D01*
X34114180Y-110320498D01*
X33994482Y-110284188D01*
X33870000Y-110271928D01*
X33780000Y-110271928D01*
X33780000Y-106132072D01*
X34882000Y-106132072D01*
X35006482Y-106119812D01*
X35126180Y-106083502D01*
X35236494Y-106024537D01*
X35333185Y-105945185D01*
X35412537Y-105848494D01*
X35471502Y-105738180D01*
X35507812Y-105618482D01*
X35520072Y-105494000D01*
X35520072Y-103294000D01*
X35507812Y-103169518D01*
X35471502Y-103049820D01*
X35412537Y-102939506D01*
X35333185Y-102842815D01*
X35236494Y-102763463D01*
X35126180Y-102704498D01*
X35006482Y-102668188D01*
X34882000Y-102655928D01*
X32682000Y-102655928D01*
X32557518Y-102668188D01*
X32437820Y-102704498D01*
X32327506Y-102763463D01*
X32230815Y-102842815D01*
X32151463Y-102939506D01*
X32116924Y-103004122D01*
X30432802Y-101320000D01*
X30647435Y-101320000D01*
X30975872Y-101254670D01*
X31285252Y-101126521D01*
X31563687Y-100940477D01*
X31800477Y-100703687D01*
X31986521Y-100425252D01*
X32114670Y-100115872D01*
X32180000Y-99787435D01*
X32180000Y-99452565D01*
X32114670Y-99124128D01*
X31986521Y-98814748D01*
X31800477Y-98536313D01*
X31563687Y-98299523D01*
X31285252Y-98113479D01*
X31184860Y-98071895D01*
X31445000Y-98073072D01*
X31569482Y-98060812D01*
X31689180Y-98024502D01*
X31799494Y-97965537D01*
X31896185Y-97886185D01*
X31975537Y-97789494D01*
X32034502Y-97679180D01*
X32070812Y-97559482D01*
X32083072Y-97435000D01*
X32080000Y-96805750D01*
X31921250Y-96647000D01*
X30607000Y-96647000D01*
X30607000Y-96667000D01*
X30353000Y-96667000D01*
X30353000Y-96647000D01*
X29038750Y-96647000D01*
X28880000Y-96805750D01*
X28876928Y-97435000D01*
X28889188Y-97559482D01*
X28925498Y-97679180D01*
X28984463Y-97789494D01*
X29063815Y-97886185D01*
X29160506Y-97965537D01*
X29270820Y-98024502D01*
X29390518Y-98060812D01*
X29515000Y-98073072D01*
X29775140Y-98071895D01*
X29674748Y-98113479D01*
X29396313Y-98299523D01*
X29159523Y-98536313D01*
X28973479Y-98814748D01*
X28845330Y-99124128D01*
X28780000Y-99452565D01*
X28780000Y-99667199D01*
X28065000Y-98952199D01*
X28065000Y-97738043D01*
X28219759Y-97634637D01*
X28419637Y-97434759D01*
X28576680Y-97199727D01*
X28684853Y-96938574D01*
X28740000Y-96661335D01*
X28740000Y-96378665D01*
X28684853Y-96101426D01*
X28576680Y-95840273D01*
X28419637Y-95605241D01*
X28419396Y-95605000D01*
X28876928Y-95605000D01*
X28880000Y-96234250D01*
X29038750Y-96393000D01*
X30353000Y-96393000D01*
X30353000Y-95128750D01*
X30607000Y-95128750D01*
X30607000Y-96393000D01*
X31921250Y-96393000D01*
X32080000Y-96234250D01*
X32083072Y-95605000D01*
X32070812Y-95480518D01*
X32034502Y-95360820D01*
X31975537Y-95250506D01*
X31896185Y-95153815D01*
X31799494Y-95074463D01*
X31689180Y-95015498D01*
X31569482Y-94979188D01*
X31445000Y-94966928D01*
X30765750Y-94970000D01*
X30607000Y-95128750D01*
X30353000Y-95128750D01*
X30194250Y-94970000D01*
X29515000Y-94966928D01*
X29390518Y-94979188D01*
X29270820Y-95015498D01*
X29160506Y-95074463D01*
X29063815Y-95153815D01*
X28984463Y-95250506D01*
X28925498Y-95360820D01*
X28889188Y-95480518D01*
X28876928Y-95605000D01*
X28419396Y-95605000D01*
X28219759Y-95405363D01*
X28065000Y-95301957D01*
X28065000Y-94630123D01*
X32092821Y-94630123D01*
X32202558Y-94952054D01*
X32372992Y-95246391D01*
X32597573Y-95501822D01*
X32867671Y-95708531D01*
X33172906Y-95858575D01*
X33385878Y-95923175D01*
X33655000Y-95805125D01*
X33655000Y-94361000D01*
X33909000Y-94361000D01*
X33909000Y-95805125D01*
X34178122Y-95923175D01*
X34391094Y-95858575D01*
X34696329Y-95708531D01*
X34966427Y-95501822D01*
X35113980Y-95334000D01*
X35599928Y-95334000D01*
X35612188Y-95458482D01*
X35648498Y-95578180D01*
X35707463Y-95688494D01*
X35786815Y-95785185D01*
X35883506Y-95864537D01*
X35993820Y-95923502D01*
X36113518Y-95959812D01*
X36238000Y-95972072D01*
X37052250Y-95969000D01*
X37211000Y-95810250D01*
X37211000Y-94361000D01*
X37465000Y-94361000D01*
X37465000Y-95810250D01*
X37623750Y-95969000D01*
X38438000Y-95972072D01*
X38562482Y-95959812D01*
X38682180Y-95923502D01*
X38792494Y-95864537D01*
X38889185Y-95785185D01*
X38968537Y-95688494D01*
X39027502Y-95578180D01*
X39045371Y-95519274D01*
X39036928Y-95605000D01*
X39040000Y-96234250D01*
X39198750Y-96393000D01*
X40513000Y-96393000D01*
X40513000Y-95128750D01*
X40767000Y-95128750D01*
X40767000Y-96393000D01*
X42081250Y-96393000D01*
X42240000Y-96234250D01*
X42243072Y-95605000D01*
X42230812Y-95480518D01*
X42194502Y-95360820D01*
X42135537Y-95250506D01*
X42056185Y-95153815D01*
X41959494Y-95074463D01*
X41849180Y-95015498D01*
X41729482Y-94979188D01*
X41605000Y-94966928D01*
X40925750Y-94970000D01*
X40767000Y-95128750D01*
X40513000Y-95128750D01*
X40354250Y-94970000D01*
X39675000Y-94966928D01*
X39550518Y-94979188D01*
X39430820Y-95015498D01*
X39320506Y-95074463D01*
X39223815Y-95153815D01*
X39144463Y-95250506D01*
X39085498Y-95360820D01*
X39067629Y-95419726D01*
X39076072Y-95334000D01*
X39073000Y-94519750D01*
X38914250Y-94361000D01*
X37465000Y-94361000D01*
X37211000Y-94361000D01*
X35761750Y-94361000D01*
X35603000Y-94519750D01*
X35599928Y-95334000D01*
X35113980Y-95334000D01*
X35191008Y-95246391D01*
X35361442Y-94952054D01*
X35471179Y-94630123D01*
X35353600Y-94361000D01*
X33909000Y-94361000D01*
X33655000Y-94361000D01*
X32210400Y-94361000D01*
X32092821Y-94630123D01*
X28065000Y-94630123D01*
X28065000Y-89703072D01*
X28740000Y-89703072D01*
X28864482Y-89690812D01*
X28984180Y-89654502D01*
X29094494Y-89595537D01*
X29191185Y-89516185D01*
X29270537Y-89419494D01*
X29329502Y-89309180D01*
X29345117Y-89257702D01*
X32126903Y-89257702D01*
X32198486Y-89501671D01*
X32453996Y-89622571D01*
X32728184Y-89691300D01*
X33010512Y-89705217D01*
X33290130Y-89663787D01*
X33556292Y-89568603D01*
X33681514Y-89501671D01*
X33753097Y-89257702D01*
X32940000Y-88444605D01*
X32126903Y-89257702D01*
X29345117Y-89257702D01*
X29365812Y-89189482D01*
X29378072Y-89065000D01*
X29378072Y-88335512D01*
X31499783Y-88335512D01*
X31541213Y-88615130D01*
X31636397Y-88881292D01*
X31703329Y-89006514D01*
X31947298Y-89078097D01*
X32760395Y-88265000D01*
X33119605Y-88265000D01*
X33932702Y-89078097D01*
X33977339Y-89065000D01*
X36661928Y-89065000D01*
X36674188Y-89189482D01*
X36710498Y-89309180D01*
X36769463Y-89419494D01*
X36848815Y-89516185D01*
X36945506Y-89595537D01*
X37055820Y-89654502D01*
X37175518Y-89690812D01*
X37300000Y-89703072D01*
X37814250Y-89700000D01*
X37973000Y-89541250D01*
X37973000Y-88392000D01*
X38227000Y-88392000D01*
X38227000Y-89541250D01*
X38385750Y-89700000D01*
X38900000Y-89703072D01*
X39024482Y-89690812D01*
X39144180Y-89654502D01*
X39254494Y-89595537D01*
X39351185Y-89516185D01*
X39430537Y-89419494D01*
X39489502Y-89309180D01*
X39525812Y-89189482D01*
X39538072Y-89065000D01*
X39535000Y-88550750D01*
X39376250Y-88392000D01*
X38227000Y-88392000D01*
X37973000Y-88392000D01*
X36823750Y-88392000D01*
X36665000Y-88550750D01*
X36661928Y-89065000D01*
X33977339Y-89065000D01*
X34176671Y-89006514D01*
X34297571Y-88751004D01*
X34366300Y-88476816D01*
X34380217Y-88194488D01*
X34338787Y-87914870D01*
X34243603Y-87648708D01*
X34176671Y-87523486D01*
X33977340Y-87465000D01*
X36661928Y-87465000D01*
X36665000Y-87979250D01*
X36823750Y-88138000D01*
X37973000Y-88138000D01*
X37973000Y-86988750D01*
X38227000Y-86988750D01*
X38227000Y-88138000D01*
X39376250Y-88138000D01*
X39535000Y-87979250D01*
X39538072Y-87465000D01*
X39525812Y-87340518D01*
X39489502Y-87220820D01*
X39430537Y-87110506D01*
X39351185Y-87013815D01*
X39254494Y-86934463D01*
X39144180Y-86875498D01*
X39024482Y-86839188D01*
X38900000Y-86826928D01*
X38385750Y-86830000D01*
X38227000Y-86988750D01*
X37973000Y-86988750D01*
X37814250Y-86830000D01*
X37300000Y-86826928D01*
X37175518Y-86839188D01*
X37055820Y-86875498D01*
X36945506Y-86934463D01*
X36848815Y-87013815D01*
X36769463Y-87110506D01*
X36710498Y-87220820D01*
X36674188Y-87340518D01*
X36661928Y-87465000D01*
X33977340Y-87465000D01*
X33932702Y-87451903D01*
X33119605Y-88265000D01*
X32760395Y-88265000D01*
X31947298Y-87451903D01*
X31703329Y-87523486D01*
X31582429Y-87778996D01*
X31513700Y-88053184D01*
X31499783Y-88335512D01*
X29378072Y-88335512D01*
X29378072Y-87465000D01*
X29365812Y-87340518D01*
X29345118Y-87272298D01*
X32126903Y-87272298D01*
X32940000Y-88085395D01*
X33753097Y-87272298D01*
X33681514Y-87028329D01*
X33426004Y-86907429D01*
X33151816Y-86838700D01*
X32869488Y-86824783D01*
X32589870Y-86866213D01*
X32323708Y-86961397D01*
X32198486Y-87028329D01*
X32126903Y-87272298D01*
X29345118Y-87272298D01*
X29329502Y-87220820D01*
X29270537Y-87110506D01*
X29191185Y-87013815D01*
X29094494Y-86934463D01*
X28984180Y-86875498D01*
X28864482Y-86839188D01*
X28740000Y-86826928D01*
X27140000Y-86826928D01*
X27015518Y-86839188D01*
X26895820Y-86875498D01*
X26785506Y-86934463D01*
X26688815Y-87013815D01*
X26609463Y-87110506D01*
X26550498Y-87220820D01*
X26514188Y-87340518D01*
X26501928Y-87465000D01*
X26501928Y-89065000D01*
X26514188Y-89189482D01*
X26545001Y-89291059D01*
X26545000Y-95301956D01*
X26390241Y-95405363D01*
X26190363Y-95605241D01*
X26060000Y-95800343D01*
X26060000Y-84212565D01*
X28780000Y-84212565D01*
X28780000Y-84547435D01*
X28845330Y-84875872D01*
X28973479Y-85185252D01*
X29159523Y-85463687D01*
X29396313Y-85700477D01*
X29674748Y-85886521D01*
X29984128Y-86014670D01*
X30312565Y-86080000D01*
X30647435Y-86080000D01*
X30975872Y-86014670D01*
X31285252Y-85886521D01*
X31563687Y-85700477D01*
X31800477Y-85463687D01*
X31986521Y-85185252D01*
X32114670Y-84875872D01*
X32180000Y-84547435D01*
X32180000Y-84212565D01*
X32114670Y-83884128D01*
X31986521Y-83574748D01*
X31800477Y-83296313D01*
X31563687Y-83059523D01*
X31285252Y-82873479D01*
X31184860Y-82831895D01*
X31445000Y-82833072D01*
X31569482Y-82820812D01*
X31689180Y-82784502D01*
X31799494Y-82725537D01*
X31896185Y-82646185D01*
X31975537Y-82549494D01*
X32034502Y-82439180D01*
X32070812Y-82319482D01*
X32083072Y-82195000D01*
X32080000Y-81565750D01*
X31921250Y-81407000D01*
X30607000Y-81407000D01*
X30607000Y-81427000D01*
X30353000Y-81427000D01*
X30353000Y-81407000D01*
X29038750Y-81407000D01*
X28880000Y-81565750D01*
X28876928Y-82195000D01*
X28889188Y-82319482D01*
X28925498Y-82439180D01*
X28984463Y-82549494D01*
X29063815Y-82646185D01*
X29160506Y-82725537D01*
X29270820Y-82784502D01*
X29390518Y-82820812D01*
X29515000Y-82833072D01*
X29775140Y-82831895D01*
X29674748Y-82873479D01*
X29396313Y-83059523D01*
X29159523Y-83296313D01*
X28973479Y-83574748D01*
X28845330Y-83884128D01*
X28780000Y-84212565D01*
X26060000Y-84212565D01*
X26060000Y-80365000D01*
X28876928Y-80365000D01*
X28880000Y-80994250D01*
X29038750Y-81153000D01*
X30353000Y-81153000D01*
X30353000Y-79888750D01*
X30607000Y-79888750D01*
X30607000Y-81153000D01*
X31921250Y-81153000D01*
X32080000Y-80994250D01*
X32083072Y-80365000D01*
X39036928Y-80365000D01*
X39040000Y-80994250D01*
X39198750Y-81153000D01*
X40513000Y-81153000D01*
X40513000Y-79888750D01*
X40767000Y-79888750D01*
X40767000Y-81153000D01*
X42081250Y-81153000D01*
X42240000Y-80994250D01*
X42243072Y-80365000D01*
X42230812Y-80240518D01*
X42194502Y-80120820D01*
X42135537Y-80010506D01*
X42056185Y-79913815D01*
X41959494Y-79834463D01*
X41849180Y-79775498D01*
X41729482Y-79739188D01*
X41605000Y-79726928D01*
X40925750Y-79730000D01*
X40767000Y-79888750D01*
X40513000Y-79888750D01*
X40354250Y-79730000D01*
X39675000Y-79726928D01*
X39550518Y-79739188D01*
X39430820Y-79775498D01*
X39320506Y-79834463D01*
X39223815Y-79913815D01*
X39144463Y-80010506D01*
X39085498Y-80120820D01*
X39049188Y-80240518D01*
X39036928Y-80365000D01*
X32083072Y-80365000D01*
X32074065Y-80273548D01*
X32120000Y-80278072D01*
X32734250Y-80275000D01*
X32893000Y-80116250D01*
X32893000Y-78867000D01*
X31643750Y-78867000D01*
X31485000Y-79025750D01*
X31481928Y-79640000D01*
X31490935Y-79731452D01*
X31445000Y-79726928D01*
X30765750Y-79730000D01*
X30607000Y-79888750D01*
X30353000Y-79888750D01*
X30194250Y-79730000D01*
X29515000Y-79726928D01*
X29390518Y-79739188D01*
X29270820Y-79775498D01*
X29160506Y-79834463D01*
X29063815Y-79913815D01*
X28984463Y-80010506D01*
X28925498Y-80120820D01*
X28889188Y-80240518D01*
X28876928Y-80365000D01*
X26060000Y-80365000D01*
X26060000Y-78189657D01*
X26190363Y-78384759D01*
X26390241Y-78584637D01*
X26625273Y-78741680D01*
X26886426Y-78849853D01*
X27163665Y-78905000D01*
X27446335Y-78905000D01*
X27723574Y-78849853D01*
X27984727Y-78741680D01*
X28219759Y-78584637D01*
X28419637Y-78384759D01*
X28576680Y-78149727D01*
X28684853Y-77888574D01*
X28694515Y-77840000D01*
X31481928Y-77840000D01*
X31485000Y-78454250D01*
X31643750Y-78613000D01*
X32893000Y-78613000D01*
X32893000Y-77363750D01*
X32734250Y-77205000D01*
X32120000Y-77201928D01*
X31995518Y-77214188D01*
X31875820Y-77250498D01*
X31765506Y-77309463D01*
X31668815Y-77388815D01*
X31589463Y-77485506D01*
X31530498Y-77595820D01*
X31494188Y-77715518D01*
X31481928Y-77840000D01*
X28694515Y-77840000D01*
X28740000Y-77611335D01*
X28740000Y-77328665D01*
X28684853Y-77051426D01*
X28576680Y-76790273D01*
X28419637Y-76555241D01*
X28219759Y-76355363D01*
X27984727Y-76198320D01*
X27723574Y-76090147D01*
X27446335Y-76035000D01*
X27163665Y-76035000D01*
X26981114Y-76071312D01*
X26510010Y-75600209D01*
X26510010Y-68504664D01*
X26545000Y-68528044D01*
X26545001Y-72733668D01*
X26541324Y-72771000D01*
X26545001Y-72808333D01*
X26555754Y-72917503D01*
X26555998Y-72919985D01*
X26599454Y-73063246D01*
X26670026Y-73195276D01*
X26739588Y-73280036D01*
X26765000Y-73311001D01*
X26793998Y-73334799D01*
X30170200Y-76711002D01*
X30193999Y-76740001D01*
X30309724Y-76834974D01*
X30441753Y-76905546D01*
X30585014Y-76949003D01*
X30696667Y-76960000D01*
X30696676Y-76960000D01*
X30733999Y-76963676D01*
X30771322Y-76960000D01*
X33467199Y-76960000D01*
X33710176Y-77202977D01*
X33305750Y-77205000D01*
X33147000Y-77363750D01*
X33147000Y-78613000D01*
X33167000Y-78613000D01*
X33167000Y-78867000D01*
X33147000Y-78867000D01*
X33147000Y-80116250D01*
X33305750Y-80275000D01*
X33920000Y-80278072D01*
X34044482Y-80265812D01*
X34164180Y-80229502D01*
X34274494Y-80170537D01*
X34371185Y-80091185D01*
X34450537Y-79994494D01*
X34503880Y-79894697D01*
X34541495Y-79932312D01*
X34792905Y-80100299D01*
X35072257Y-80216011D01*
X35368816Y-80275000D01*
X35671184Y-80275000D01*
X35967743Y-80216011D01*
X36247095Y-80100299D01*
X36498505Y-79932312D01*
X36712312Y-79718505D01*
X36770000Y-79632169D01*
X36827688Y-79718505D01*
X37041495Y-79932312D01*
X37292905Y-80100299D01*
X37572257Y-80216011D01*
X37868816Y-80275000D01*
X38171184Y-80275000D01*
X38467743Y-80216011D01*
X38747095Y-80100299D01*
X38998505Y-79932312D01*
X39212312Y-79718505D01*
X39380299Y-79467095D01*
X39496011Y-79187743D01*
X39555000Y-78891184D01*
X39555000Y-78588816D01*
X39496011Y-78292257D01*
X39380299Y-78012905D01*
X39212312Y-77761495D01*
X38998505Y-77547688D01*
X38747095Y-77379701D01*
X38467743Y-77263989D01*
X38171184Y-77205000D01*
X37868816Y-77205000D01*
X37572257Y-77263989D01*
X37292905Y-77379701D01*
X37041495Y-77547688D01*
X36827688Y-77761495D01*
X36770000Y-77847831D01*
X36712312Y-77761495D01*
X36498505Y-77547688D01*
X36247095Y-77379701D01*
X35967743Y-77263989D01*
X35909133Y-77252331D01*
X35024873Y-76368072D01*
X37014000Y-76368072D01*
X37138482Y-76355812D01*
X37258180Y-76319502D01*
X37368494Y-76260537D01*
X37465185Y-76181185D01*
X37544537Y-76084494D01*
X37603502Y-75974180D01*
X37639812Y-75854482D01*
X37652072Y-75730000D01*
X37652072Y-74130000D01*
X37639812Y-74005518D01*
X37603502Y-73885820D01*
X37544537Y-73775506D01*
X37465185Y-73678815D01*
X37368494Y-73599463D01*
X37258180Y-73540498D01*
X37138482Y-73504188D01*
X37120518Y-73502419D01*
X37233608Y-73409608D01*
X37412932Y-73191101D01*
X37546182Y-72941808D01*
X37628236Y-72671309D01*
X37655943Y-72390000D01*
X37628236Y-72108691D01*
X37546182Y-71838192D01*
X37412932Y-71588899D01*
X37233608Y-71370392D01*
X37015101Y-71191068D01*
X36887259Y-71122735D01*
X37116839Y-70972601D01*
X37318500Y-70774895D01*
X37477715Y-70541646D01*
X37588367Y-70281818D01*
X37605904Y-70199039D01*
X37483915Y-69977000D01*
X35941000Y-69977000D01*
X35941000Y-69997000D01*
X35687000Y-69997000D01*
X35687000Y-69977000D01*
X35667000Y-69977000D01*
X35667000Y-69723000D01*
X35687000Y-69723000D01*
X35687000Y-69703000D01*
X35941000Y-69703000D01*
X35941000Y-69723000D01*
X37483915Y-69723000D01*
X37605904Y-69500961D01*
X37588367Y-69418182D01*
X37477715Y-69158354D01*
X37318500Y-68925105D01*
X37116839Y-68727399D01*
X36887259Y-68577265D01*
X37015101Y-68508932D01*
X37233608Y-68329608D01*
X37412932Y-68111101D01*
X37546182Y-67861808D01*
X37628236Y-67591309D01*
X37655943Y-67310000D01*
X37628236Y-67028691D01*
X37546182Y-66758192D01*
X37412932Y-66508899D01*
X37233608Y-66290392D01*
X37015101Y-66111068D01*
X36765808Y-65977818D01*
X36495309Y-65895764D01*
X36284492Y-65875000D01*
X35343508Y-65875000D01*
X35132691Y-65895764D01*
X34862192Y-65977818D01*
X34612899Y-66111068D01*
X34394392Y-66290392D01*
X34215068Y-66508899D01*
X34081818Y-66758192D01*
X33999764Y-67028691D01*
X33972057Y-67310000D01*
X33999764Y-67591309D01*
X34081818Y-67861808D01*
X34215068Y-68111101D01*
X34394392Y-68329608D01*
X34612899Y-68508932D01*
X34740741Y-68577265D01*
X34511161Y-68727399D01*
X34309500Y-68925105D01*
X34150285Y-69158354D01*
X34039633Y-69418182D01*
X34022096Y-69500961D01*
X34049327Y-69550525D01*
X28898802Y-64400000D01*
X31481928Y-64400000D01*
X31494188Y-64524482D01*
X31530498Y-64644180D01*
X31589463Y-64754494D01*
X31668815Y-64851185D01*
X31765506Y-64930537D01*
X31875820Y-64989502D01*
X31995518Y-65025812D01*
X32120000Y-65038072D01*
X32734250Y-65035000D01*
X32893000Y-64876250D01*
X32893000Y-63627000D01*
X31643750Y-63627000D01*
X31485000Y-63785750D01*
X31481928Y-64400000D01*
X28898802Y-64400000D01*
X28065000Y-63566199D01*
X28065000Y-63448043D01*
X28219759Y-63344637D01*
X28419637Y-63144759D01*
X28576680Y-62909727D01*
X28684853Y-62648574D01*
X28694515Y-62600000D01*
X31481928Y-62600000D01*
X31485000Y-63214250D01*
X31643750Y-63373000D01*
X32893000Y-63373000D01*
X32893000Y-62123750D01*
X32734250Y-61965000D01*
X32120000Y-61961928D01*
X31995518Y-61974188D01*
X31875820Y-62010498D01*
X31765506Y-62069463D01*
X31668815Y-62148815D01*
X31589463Y-62245506D01*
X31530498Y-62355820D01*
X31494188Y-62475518D01*
X31481928Y-62600000D01*
X28694515Y-62600000D01*
X28740000Y-62371335D01*
X28740000Y-62088665D01*
X28684853Y-61811426D01*
X28576680Y-61550273D01*
X28419637Y-61315241D01*
X28219759Y-61115363D01*
X27984727Y-60958320D01*
X27723574Y-60850147D01*
X27446335Y-60795000D01*
X27163665Y-60795000D01*
X26981113Y-60831312D01*
X26939999Y-60790198D01*
X26939999Y-53460509D01*
X27163665Y-53505000D01*
X27446335Y-53505000D01*
X27723574Y-53449853D01*
X27984727Y-53341680D01*
X28219759Y-53184637D01*
X28419637Y-52984759D01*
X28523043Y-52830000D01*
X29118162Y-52830000D01*
X30124145Y-53835983D01*
X29952854Y-53887943D01*
X29606276Y-54073193D01*
X29302498Y-54322497D01*
X29053193Y-54626275D01*
X28867943Y-54972853D01*
X28753867Y-55348912D01*
X28725000Y-55642002D01*
X28725000Y-56357997D01*
X28753867Y-56651087D01*
X28867943Y-57027146D01*
X29053193Y-57373725D01*
X29302497Y-57677503D01*
X29606275Y-57926807D01*
X29952853Y-58112057D01*
X30328912Y-58226133D01*
X30720000Y-58264652D01*
X31111087Y-58226133D01*
X31487146Y-58112057D01*
X31833725Y-57926807D01*
X32137503Y-57677503D01*
X32386807Y-57373725D01*
X32572057Y-57027147D01*
X32686133Y-56651088D01*
X32708828Y-56420666D01*
X34760000Y-58471839D01*
X34760001Y-62161687D01*
X34541495Y-62307688D01*
X34503880Y-62345303D01*
X34450537Y-62245506D01*
X34371185Y-62148815D01*
X34274494Y-62069463D01*
X34164180Y-62010498D01*
X34044482Y-61974188D01*
X33920000Y-61961928D01*
X33305750Y-61965000D01*
X33147000Y-62123750D01*
X33147000Y-63373000D01*
X33167000Y-63373000D01*
X33167000Y-63627000D01*
X33147000Y-63627000D01*
X33147000Y-64876250D01*
X33305750Y-65035000D01*
X33920000Y-65038072D01*
X34044482Y-65025812D01*
X34164180Y-64989502D01*
X34274494Y-64930537D01*
X34371185Y-64851185D01*
X34450537Y-64754494D01*
X34503880Y-64654697D01*
X34541495Y-64692312D01*
X34792905Y-64860299D01*
X35072257Y-64976011D01*
X35368816Y-65035000D01*
X35671184Y-65035000D01*
X35967743Y-64976011D01*
X36247095Y-64860299D01*
X36498505Y-64692312D01*
X36712312Y-64478505D01*
X36770000Y-64392169D01*
X36827688Y-64478505D01*
X37041495Y-64692312D01*
X37292905Y-64860299D01*
X37572257Y-64976011D01*
X37868816Y-65035000D01*
X38171184Y-65035000D01*
X38467743Y-64976011D01*
X38747095Y-64860299D01*
X38998505Y-64692312D01*
X39212312Y-64478505D01*
X39380299Y-64227095D01*
X39496011Y-63947743D01*
X39555000Y-63651184D01*
X39555000Y-63348816D01*
X39496011Y-63052257D01*
X39380299Y-62772905D01*
X39212312Y-62521495D01*
X38998505Y-62307688D01*
X38747095Y-62139701D01*
X38467743Y-62023989D01*
X38171184Y-61965000D01*
X37868816Y-61965000D01*
X37572257Y-62023989D01*
X37292905Y-62139701D01*
X37041495Y-62307688D01*
X36827688Y-62521495D01*
X36770000Y-62607831D01*
X36712312Y-62521495D01*
X36498505Y-62307688D01*
X36280000Y-62161687D01*
X36280000Y-58194359D01*
X36283676Y-58157036D01*
X36280000Y-58119713D01*
X36280000Y-58119704D01*
X36269003Y-58008051D01*
X36225546Y-57864790D01*
X36154974Y-57732761D01*
X36060001Y-57617036D01*
X36031004Y-57593239D01*
X34079767Y-55642002D01*
X38325000Y-55642002D01*
X38325000Y-56357997D01*
X38353867Y-56651087D01*
X38467943Y-57027146D01*
X38653193Y-57373725D01*
X38902497Y-57677503D01*
X39206275Y-57926807D01*
X39552853Y-58112057D01*
X39928912Y-58226133D01*
X40320000Y-58264652D01*
X40711087Y-58226133D01*
X41087146Y-58112057D01*
X41433725Y-57926807D01*
X41737503Y-57677503D01*
X41986807Y-57373725D01*
X42172057Y-57027147D01*
X42286133Y-56651088D01*
X42315000Y-56357998D01*
X42315000Y-55642003D01*
X42286133Y-55348913D01*
X42172057Y-54972853D01*
X41986807Y-54626275D01*
X41737503Y-54322497D01*
X41433725Y-54073193D01*
X41087147Y-53887943D01*
X40711088Y-53773867D01*
X40320000Y-53735348D01*
X39928913Y-53773867D01*
X39552854Y-53887943D01*
X39206276Y-54073193D01*
X38902498Y-54322497D01*
X38653193Y-54626275D01*
X38467943Y-54972853D01*
X38353867Y-55348912D01*
X38325000Y-55642002D01*
X34079767Y-55642002D01*
X29996767Y-51559003D01*
X29972964Y-51529999D01*
X29857239Y-51435026D01*
X29725210Y-51364454D01*
X29581949Y-51320997D01*
X29470296Y-51310000D01*
X29470285Y-51310000D01*
X29432963Y-51306324D01*
X29395641Y-51310000D01*
X28523043Y-51310000D01*
X28419637Y-51155241D01*
X28219759Y-50955363D01*
X27984727Y-50798320D01*
X27723574Y-50690147D01*
X27446335Y-50635000D01*
X27163665Y-50635000D01*
X26939999Y-50679491D01*
X26939999Y-49160000D01*
X31481928Y-49160000D01*
X31494188Y-49284482D01*
X31530498Y-49404180D01*
X31589463Y-49514494D01*
X31668815Y-49611185D01*
X31765506Y-49690537D01*
X31875820Y-49749502D01*
X31995518Y-49785812D01*
X32120000Y-49798072D01*
X32734250Y-49795000D01*
X32893000Y-49636250D01*
X32893000Y-48387000D01*
X31643750Y-48387000D01*
X31485000Y-48545750D01*
X31481928Y-49160000D01*
X26939999Y-49160000D01*
X26939999Y-48429802D01*
X26981113Y-48388688D01*
X27163665Y-48425000D01*
X27446335Y-48425000D01*
X27723574Y-48369853D01*
X27984727Y-48261680D01*
X28219759Y-48104637D01*
X28419637Y-47904759D01*
X28576680Y-47669727D01*
X28684853Y-47408574D01*
X28694515Y-47360000D01*
X31481928Y-47360000D01*
X31485000Y-47974250D01*
X31643750Y-48133000D01*
X32893000Y-48133000D01*
X32893000Y-46883750D01*
X32734250Y-46725000D01*
X32120000Y-46721928D01*
X31995518Y-46734188D01*
X31875820Y-46770498D01*
X31765506Y-46829463D01*
X31668815Y-46908815D01*
X31589463Y-47005506D01*
X31530498Y-47115820D01*
X31494188Y-47235518D01*
X31481928Y-47360000D01*
X28694515Y-47360000D01*
X28740000Y-47131335D01*
X28740000Y-46848665D01*
X28684853Y-46571426D01*
X28576680Y-46310273D01*
X28419637Y-46075241D01*
X28219759Y-45875363D01*
X27984727Y-45718320D01*
X27723574Y-45610147D01*
X27446335Y-45555000D01*
X27163665Y-45555000D01*
X26981113Y-45591312D01*
X26939999Y-45550198D01*
X26939999Y-38220509D01*
X27163665Y-38265000D01*
X27446335Y-38265000D01*
X27723574Y-38209853D01*
X27984727Y-38101680D01*
X28219759Y-37944637D01*
X28419637Y-37744759D01*
X28523043Y-37590000D01*
X29118162Y-37590000D01*
X30124145Y-38595983D01*
X29952854Y-38647943D01*
X29606276Y-38833193D01*
X29302498Y-39082497D01*
X29053193Y-39386275D01*
X28867943Y-39732853D01*
X28753867Y-40108912D01*
X28725000Y-40402002D01*
X28725000Y-41117997D01*
X28753867Y-41411087D01*
X28867943Y-41787146D01*
X29053193Y-42133725D01*
X29302497Y-42437503D01*
X29606275Y-42686807D01*
X29952853Y-42872057D01*
X30328912Y-42986133D01*
X30720000Y-43024652D01*
X31111087Y-42986133D01*
X31487146Y-42872057D01*
X31833725Y-42686807D01*
X32137503Y-42437503D01*
X32386807Y-42133725D01*
X32572057Y-41787147D01*
X32686133Y-41411088D01*
X32708828Y-41180666D01*
X34760001Y-43231840D01*
X34760000Y-46921687D01*
X34541495Y-47067688D01*
X34503880Y-47105303D01*
X34450537Y-47005506D01*
X34371185Y-46908815D01*
X34274494Y-46829463D01*
X34164180Y-46770498D01*
X34044482Y-46734188D01*
X33920000Y-46721928D01*
X33305750Y-46725000D01*
X33147000Y-46883750D01*
X33147000Y-48133000D01*
X33167000Y-48133000D01*
X33167000Y-48387000D01*
X33147000Y-48387000D01*
X33147000Y-49636250D01*
X33305750Y-49795000D01*
X33920000Y-49798072D01*
X34044482Y-49785812D01*
X34164180Y-49749502D01*
X34274494Y-49690537D01*
X34371185Y-49611185D01*
X34450537Y-49514494D01*
X34503880Y-49414697D01*
X34541495Y-49452312D01*
X34792905Y-49620299D01*
X35072257Y-49736011D01*
X35368816Y-49795000D01*
X35671184Y-49795000D01*
X35967743Y-49736011D01*
X36247095Y-49620299D01*
X36498505Y-49452312D01*
X36712312Y-49238505D01*
X36770000Y-49152169D01*
X36827688Y-49238505D01*
X37041495Y-49452312D01*
X37292905Y-49620299D01*
X37572257Y-49736011D01*
X37868816Y-49795000D01*
X38171184Y-49795000D01*
X38467743Y-49736011D01*
X38747095Y-49620299D01*
X38998505Y-49452312D01*
X39212312Y-49238505D01*
X39380299Y-48987095D01*
X39496011Y-48707743D01*
X39555000Y-48411184D01*
X39555000Y-48108816D01*
X39496011Y-47812257D01*
X39380299Y-47532905D01*
X39212312Y-47281495D01*
X38998505Y-47067688D01*
X38747095Y-46899701D01*
X38467743Y-46783989D01*
X38171184Y-46725000D01*
X37868816Y-46725000D01*
X37572257Y-46783989D01*
X37292905Y-46899701D01*
X37041495Y-47067688D01*
X36827688Y-47281495D01*
X36770000Y-47367831D01*
X36712312Y-47281495D01*
X36498505Y-47067688D01*
X36280000Y-46921687D01*
X36280000Y-42954359D01*
X36283676Y-42917036D01*
X36280000Y-42879713D01*
X36280000Y-42879704D01*
X36269003Y-42768051D01*
X36225546Y-42624790D01*
X36154974Y-42492761D01*
X36060001Y-42377036D01*
X36031003Y-42353238D01*
X34079767Y-40402002D01*
X38325000Y-40402002D01*
X38325000Y-41117997D01*
X38353867Y-41411087D01*
X38467943Y-41787146D01*
X38653193Y-42133725D01*
X38902497Y-42437503D01*
X39206275Y-42686807D01*
X39552853Y-42872057D01*
X39928912Y-42986133D01*
X40320000Y-43024652D01*
X40711087Y-42986133D01*
X41087146Y-42872057D01*
X41433725Y-42686807D01*
X41737503Y-42437503D01*
X41986807Y-42133725D01*
X42172057Y-41787147D01*
X42286133Y-41411088D01*
X42315000Y-41117998D01*
X42315000Y-40402003D01*
X42286133Y-40108913D01*
X42172057Y-39732853D01*
X41986807Y-39386275D01*
X41737503Y-39082497D01*
X41433725Y-38833193D01*
X41087147Y-38647943D01*
X40711088Y-38533867D01*
X40320000Y-38495348D01*
X39928913Y-38533867D01*
X39552854Y-38647943D01*
X39206276Y-38833193D01*
X38902498Y-39082497D01*
X38653193Y-39386275D01*
X38467943Y-39732853D01*
X38353867Y-40108912D01*
X38325000Y-40402002D01*
X34079767Y-40402002D01*
X29996767Y-36319003D01*
X29972964Y-36289999D01*
X29857239Y-36195026D01*
X29725210Y-36124454D01*
X29581949Y-36080997D01*
X29470296Y-36070000D01*
X29470285Y-36070000D01*
X29432963Y-36066324D01*
X29395641Y-36070000D01*
X28523043Y-36070000D01*
X28419637Y-35915241D01*
X28219759Y-35715363D01*
X27984727Y-35558320D01*
X27723574Y-35450147D01*
X27446335Y-35395000D01*
X27163665Y-35395000D01*
X26939999Y-35439491D01*
X26939999Y-33189802D01*
X26981113Y-33148688D01*
X27163665Y-33185000D01*
X27446335Y-33185000D01*
X27628886Y-33148688D01*
X29236202Y-34756004D01*
X29260000Y-34785002D01*
X29375725Y-34879975D01*
X29507754Y-34950547D01*
X29651015Y-34994004D01*
X29762668Y-35005001D01*
X29762677Y-35005001D01*
X29800000Y-35008677D01*
X29837323Y-35005001D01*
X36070679Y-35005001D01*
X36108001Y-35008677D01*
X36145323Y-35005001D01*
X36145334Y-35005001D01*
X36256987Y-34994004D01*
X36400248Y-34950547D01*
X36532277Y-34879975D01*
X36648002Y-34785002D01*
X36671804Y-34755999D01*
X37145798Y-34282005D01*
X37292905Y-34380299D01*
X37572257Y-34496011D01*
X37868816Y-34555000D01*
X38171184Y-34555000D01*
X38467743Y-34496011D01*
X38747095Y-34380299D01*
X38998505Y-34212312D01*
X39212312Y-33998505D01*
X39380299Y-33747095D01*
X39496011Y-33467743D01*
X39555000Y-33171184D01*
X39555000Y-32868816D01*
X39496011Y-32572257D01*
X39380299Y-32292905D01*
X39212312Y-32041495D01*
X38998505Y-31827688D01*
X38747095Y-31659701D01*
X38467743Y-31543989D01*
X38171184Y-31485000D01*
X37868816Y-31485000D01*
X37572257Y-31543989D01*
X37505001Y-31571847D01*
X37505001Y-26766837D01*
X38331172Y-25940666D01*
X38353867Y-26171087D01*
X38467943Y-26547146D01*
X38653193Y-26893725D01*
X38902497Y-27197503D01*
X39206275Y-27446807D01*
X39552853Y-27632057D01*
X39928912Y-27746133D01*
X40320000Y-27784652D01*
X40711087Y-27746133D01*
X41087146Y-27632057D01*
X41433725Y-27446807D01*
X41737503Y-27197503D01*
X41986807Y-26893725D01*
X42172057Y-26547147D01*
X42286133Y-26171088D01*
X42315000Y-25877998D01*
X42315000Y-25162003D01*
X42286133Y-24868913D01*
X42172057Y-24492853D01*
X41986807Y-24146275D01*
X41737503Y-23842497D01*
X41433725Y-23593193D01*
X41087147Y-23407943D01*
X40915856Y-23355983D01*
X41921839Y-22350000D01*
X42596957Y-22350000D01*
X42700363Y-22504759D01*
X42900241Y-22704637D01*
X43135273Y-22861680D01*
X43396426Y-22969853D01*
X43673665Y-23025000D01*
X43956335Y-23025000D01*
X44233574Y-22969853D01*
X44494727Y-22861680D01*
X44729759Y-22704637D01*
X44929637Y-22504759D01*
X45060001Y-22309655D01*
X45060001Y-31030345D01*
%TA.AperFunction,Conductor*%
D27*
G36*
X45060001Y-31030345D02*
G01*
X44929637Y-30835241D01*
X44729759Y-30635363D01*
X44494727Y-30478320D01*
X44233574Y-30370147D01*
X43956335Y-30315000D01*
X43673665Y-30315000D01*
X43396426Y-30370147D01*
X43135273Y-30478320D01*
X42900241Y-30635363D01*
X42700363Y-30835241D01*
X42543320Y-31070273D01*
X42435147Y-31331426D01*
X42380000Y-31608665D01*
X42380000Y-31891335D01*
X42435147Y-32168574D01*
X42543320Y-32429727D01*
X42700363Y-32664759D01*
X42900241Y-32864637D01*
X43055000Y-32968044D01*
X43055001Y-35611956D01*
X42900241Y-35715363D01*
X42700363Y-35915241D01*
X42543320Y-36150273D01*
X42435147Y-36411426D01*
X42380000Y-36688665D01*
X42380000Y-36971335D01*
X42435147Y-37248574D01*
X42543320Y-37509727D01*
X42700363Y-37744759D01*
X42900241Y-37944637D01*
X43135273Y-38101680D01*
X43396426Y-38209853D01*
X43673665Y-38265000D01*
X43956335Y-38265000D01*
X44233574Y-38209853D01*
X44494727Y-38101680D01*
X44729759Y-37944637D01*
X44929637Y-37744759D01*
X45060001Y-37549655D01*
X45060001Y-46270345D01*
X44929637Y-46075241D01*
X44729759Y-45875363D01*
X44494727Y-45718320D01*
X44233574Y-45610147D01*
X43956335Y-45555000D01*
X43673665Y-45555000D01*
X43396426Y-45610147D01*
X43135273Y-45718320D01*
X42900241Y-45875363D01*
X42700363Y-46075241D01*
X42543320Y-46310273D01*
X42435147Y-46571426D01*
X42380000Y-46848665D01*
X42380000Y-47131335D01*
X42435147Y-47408574D01*
X42543320Y-47669727D01*
X42700363Y-47904759D01*
X42900241Y-48104637D01*
X43135273Y-48261680D01*
X43396426Y-48369853D01*
X43673665Y-48425000D01*
X43956335Y-48425000D01*
X44233574Y-48369853D01*
X44494727Y-48261680D01*
X44729759Y-48104637D01*
X44929637Y-47904759D01*
X45060001Y-47709655D01*
X45060001Y-61765200D01*
X45013804Y-61719003D01*
X44990001Y-61689999D01*
X44874276Y-61595026D01*
X44742247Y-61524454D01*
X44598986Y-61480997D01*
X44487333Y-61470000D01*
X44487322Y-61470000D01*
X44450000Y-61466324D01*
X44412678Y-61470000D01*
X44398043Y-61470000D01*
X44294637Y-61315241D01*
X44094759Y-61115363D01*
X43859727Y-60958320D01*
X43598574Y-60850147D01*
X43321335Y-60795000D01*
X43038665Y-60795000D01*
X42761426Y-60850147D01*
X42500273Y-60958320D01*
X42265241Y-61115363D01*
X42162000Y-61218604D01*
X42162000Y-60766801D01*
X43691004Y-59237798D01*
X43720001Y-59214001D01*
X43814974Y-59098276D01*
X43885546Y-58966247D01*
X43929003Y-58822986D01*
X43940000Y-58711333D01*
X43940000Y-58711325D01*
X43943676Y-58674000D01*
X43940000Y-58636675D01*
X43940000Y-53288043D01*
X44094759Y-53184637D01*
X44294637Y-52984759D01*
X44451680Y-52749727D01*
X44559853Y-52488574D01*
X44615000Y-52211335D01*
X44615000Y-51928665D01*
X44559853Y-51651426D01*
X44451680Y-51390273D01*
X44294637Y-51155241D01*
X44094759Y-50955363D01*
X43859727Y-50798320D01*
X43598574Y-50690147D01*
X43321335Y-50635000D01*
X43038665Y-50635000D01*
X42761426Y-50690147D01*
X42500273Y-50798320D01*
X42265241Y-50955363D01*
X42065363Y-51155241D01*
X41908320Y-51390273D01*
X41800147Y-51651426D01*
X41745000Y-51928665D01*
X41745000Y-52211335D01*
X41800147Y-52488574D01*
X41908320Y-52749727D01*
X42065363Y-52984759D01*
X42265241Y-53184637D01*
X42420001Y-53288044D01*
X42420000Y-58359198D01*
X40890998Y-59888201D01*
X40862000Y-59911999D01*
X40838202Y-59940997D01*
X40838201Y-59940998D01*
X40767026Y-60027724D01*
X40696454Y-60159754D01*
X40666180Y-60259558D01*
X40652998Y-60303014D01*
X40642001Y-60414667D01*
X40638324Y-60452000D01*
X40642001Y-60489332D01*
X40642000Y-67780678D01*
X40638324Y-67818000D01*
X40642000Y-67855322D01*
X40642000Y-67855332D01*
X40652997Y-67966985D01*
X40692531Y-68097313D01*
X40696454Y-68110246D01*
X40767026Y-68242276D01*
X40806871Y-68290826D01*
X40861999Y-68358001D01*
X40891003Y-68381804D01*
X41738592Y-69229393D01*
X41701818Y-69298192D01*
X41644737Y-69486366D01*
X41433725Y-69313193D01*
X41087147Y-69127943D01*
X40711088Y-69013867D01*
X40320000Y-68975348D01*
X39928913Y-69013867D01*
X39642581Y-69100725D01*
X39669990Y-68962929D01*
X39669990Y-68759051D01*
X39630216Y-68559092D01*
X39552195Y-68370734D01*
X39438927Y-68201216D01*
X39294764Y-68057053D01*
X39125246Y-67943785D01*
X38936888Y-67865764D01*
X38736929Y-67825990D01*
X38533051Y-67825990D01*
X38333092Y-67865764D01*
X38144734Y-67943785D01*
X37975216Y-68057053D01*
X37831053Y-68201216D01*
X37717785Y-68370734D01*
X37639764Y-68559092D01*
X37599990Y-68759051D01*
X37599990Y-68962929D01*
X37639764Y-69162888D01*
X37717785Y-69351246D01*
X37831053Y-69520764D01*
X37849880Y-69539591D01*
X37844324Y-69596000D01*
X37858998Y-69744985D01*
X37874991Y-69797709D01*
X37874990Y-72379667D01*
X37871314Y-72416990D01*
X37874990Y-72454312D01*
X37874990Y-72454322D01*
X37885987Y-72565975D01*
X37917939Y-72671309D01*
X37929444Y-72709236D01*
X38000016Y-72841266D01*
X38039861Y-72889816D01*
X38094989Y-72956991D01*
X38123993Y-72980794D01*
X42340001Y-77196803D01*
X42340000Y-80983332D01*
X42340001Y-80983342D01*
X42340000Y-84212565D01*
X42274670Y-83884128D01*
X42146521Y-83574748D01*
X41960477Y-83296313D01*
X41723687Y-83059523D01*
X41445252Y-82873479D01*
X41344860Y-82831895D01*
X41605000Y-82833072D01*
X41729482Y-82820812D01*
X41849180Y-82784502D01*
X41959494Y-82725537D01*
X42056185Y-82646185D01*
X42135537Y-82549494D01*
X42194502Y-82439180D01*
X42230812Y-82319482D01*
X42243072Y-82195000D01*
X42240000Y-81565750D01*
X42081250Y-81407000D01*
X40767000Y-81407000D01*
X40767000Y-81427000D01*
X40513000Y-81427000D01*
X40513000Y-81407000D01*
X39198750Y-81407000D01*
X39040000Y-81565750D01*
X39036928Y-82195000D01*
X39049188Y-82319482D01*
X39085498Y-82439180D01*
X39144463Y-82549494D01*
X39223815Y-82646185D01*
X39320506Y-82725537D01*
X39430820Y-82784502D01*
X39550518Y-82820812D01*
X39675000Y-82833072D01*
X39935140Y-82831895D01*
X39834748Y-82873479D01*
X39556313Y-83059523D01*
X39319523Y-83296313D01*
X39133479Y-83574748D01*
X39005330Y-83884128D01*
X38940000Y-84212565D01*
X38940000Y-84547435D01*
X39005330Y-84875872D01*
X39133479Y-85185252D01*
X39319523Y-85463687D01*
X39556313Y-85700477D01*
X39834748Y-85886521D01*
X40144128Y-86014670D01*
X40472565Y-86080000D01*
X40807435Y-86080000D01*
X41135872Y-86014670D01*
X41445252Y-85886521D01*
X41723687Y-85700477D01*
X41960477Y-85463687D01*
X42146521Y-85185252D01*
X42274670Y-84875872D01*
X42340000Y-84547435D01*
X42340000Y-87046956D01*
X42185241Y-87150363D01*
X41985363Y-87350241D01*
X41828320Y-87585273D01*
X41720147Y-87846426D01*
X41665000Y-88123665D01*
X41665000Y-88406335D01*
X41720147Y-88683574D01*
X41828320Y-88944727D01*
X41985363Y-89179759D01*
X42185241Y-89379637D01*
X42419223Y-89535978D01*
X42037201Y-89918000D01*
X31437711Y-89918000D01*
X31393774Y-89874063D01*
X31224256Y-89760795D01*
X31035898Y-89682774D01*
X30835939Y-89643000D01*
X30632061Y-89643000D01*
X30432102Y-89682774D01*
X30243744Y-89760795D01*
X30074226Y-89874063D01*
X29930063Y-90018226D01*
X29816795Y-90187744D01*
X29738774Y-90376102D01*
X29699000Y-90576061D01*
X29699000Y-90779939D01*
X29738774Y-90979898D01*
X29797839Y-91122493D01*
X29674748Y-91173479D01*
X29396313Y-91359523D01*
X29159523Y-91596313D01*
X28973479Y-91874748D01*
X28845330Y-92184128D01*
X28780000Y-92512565D01*
X28780000Y-92847435D01*
X28845330Y-93175872D01*
X28973479Y-93485252D01*
X29159523Y-93763687D01*
X29396313Y-94000477D01*
X29674748Y-94186521D01*
X29984128Y-94314670D01*
X30312565Y-94380000D01*
X30647435Y-94380000D01*
X30975872Y-94314670D01*
X31285252Y-94186521D01*
X31563687Y-94000477D01*
X31726287Y-93837877D01*
X32092821Y-93837877D01*
X32210400Y-94107000D01*
X33655000Y-94107000D01*
X33655000Y-92662875D01*
X33909000Y-92662875D01*
X33909000Y-94107000D01*
X35353600Y-94107000D01*
X35471179Y-93837877D01*
X35361442Y-93515946D01*
X35191008Y-93221609D01*
X35113981Y-93134000D01*
X35599928Y-93134000D01*
X35603000Y-93948250D01*
X35761750Y-94107000D01*
X37211000Y-94107000D01*
X37211000Y-92657750D01*
X37052250Y-92499000D01*
X36238000Y-92495928D01*
X36113518Y-92508188D01*
X35993820Y-92544498D01*
X35883506Y-92603463D01*
X35786815Y-92682815D01*
X35707463Y-92779506D01*
X35648498Y-92889820D01*
X35612188Y-93009518D01*
X35599928Y-93134000D01*
X35113981Y-93134000D01*
X34966427Y-92966178D01*
X34696329Y-92759469D01*
X34391094Y-92609425D01*
X34178122Y-92544825D01*
X33909000Y-92662875D01*
X33655000Y-92662875D01*
X33385878Y-92544825D01*
X33172906Y-92609425D01*
X32867671Y-92759469D01*
X32597573Y-92966178D01*
X32372992Y-93221609D01*
X32202558Y-93515946D01*
X32092821Y-93837877D01*
X31726287Y-93837877D01*
X31800477Y-93763687D01*
X31986521Y-93485252D01*
X32114670Y-93175872D01*
X32180000Y-92847435D01*
X32180000Y-92512565D01*
X32114670Y-92184128D01*
X31986521Y-91874748D01*
X31800477Y-91596313D01*
X31642164Y-91438000D01*
X39477836Y-91438000D01*
X39319523Y-91596313D01*
X39133479Y-91874748D01*
X39005330Y-92184128D01*
X38940000Y-92512565D01*
X38940000Y-92744733D01*
X38889185Y-92682815D01*
X38792494Y-92603463D01*
X38682180Y-92544498D01*
X38562482Y-92508188D01*
X38438000Y-92495928D01*
X37623750Y-92499000D01*
X37465000Y-92657750D01*
X37465000Y-94107000D01*
X38914250Y-94107000D01*
X39073000Y-93948250D01*
X39075277Y-93344739D01*
X39133479Y-93485252D01*
X39319523Y-93763687D01*
X39556313Y-94000477D01*
X39834748Y-94186521D01*
X40144128Y-94314670D01*
X40472565Y-94380000D01*
X40807435Y-94380000D01*
X41135872Y-94314670D01*
X41445252Y-94186521D01*
X41723687Y-94000477D01*
X41960477Y-93763687D01*
X42146521Y-93485252D01*
X42274670Y-93175872D01*
X42340000Y-92847435D01*
X42340000Y-92512565D01*
X42274670Y-92184128D01*
X42146521Y-91874748D01*
X41960477Y-91596313D01*
X41802164Y-91438000D01*
X42314680Y-91438000D01*
X42352002Y-91441676D01*
X42389324Y-91438000D01*
X42389335Y-91438000D01*
X42500988Y-91427003D01*
X42644249Y-91383546D01*
X42776278Y-91312974D01*
X42892003Y-91218001D01*
X42915806Y-91188997D01*
X44199011Y-89905793D01*
X44199010Y-97158272D01*
X43956335Y-97110000D01*
X43673665Y-97110000D01*
X43396426Y-97165147D01*
X43135273Y-97273320D01*
X42900241Y-97430363D01*
X42700363Y-97630241D01*
X42543320Y-97865273D01*
X42435147Y-98126426D01*
X42380000Y-98403665D01*
X42380000Y-98686335D01*
X42416312Y-98868886D01*
X42241397Y-99043801D01*
X42146521Y-98814748D01*
X41960477Y-98536313D01*
X41723687Y-98299523D01*
X41445252Y-98113479D01*
X41344860Y-98071895D01*
X41605000Y-98073072D01*
X41729482Y-98060812D01*
X41849180Y-98024502D01*
X41959494Y-97965537D01*
X42056185Y-97886185D01*
X42135537Y-97789494D01*
X42194502Y-97679180D01*
X42230812Y-97559482D01*
X42243072Y-97435000D01*
X42240000Y-96805750D01*
X42081250Y-96647000D01*
X40767000Y-96647000D01*
X40767000Y-96667000D01*
X40513000Y-96667000D01*
X40513000Y-96647000D01*
X39198750Y-96647000D01*
X39040000Y-96805750D01*
X39036928Y-97435000D01*
X39049188Y-97559482D01*
X39085498Y-97679180D01*
X39144463Y-97789494D01*
X39223815Y-97886185D01*
X39320506Y-97965537D01*
X39430820Y-98024502D01*
X39550518Y-98060812D01*
X39675000Y-98073072D01*
X39935140Y-98071895D01*
X39834748Y-98113479D01*
X39556313Y-98299523D01*
X39319523Y-98536313D01*
X39133479Y-98814748D01*
X39005330Y-99124128D01*
X38940000Y-99452565D01*
X38940000Y-99787435D01*
X39005330Y-100115872D01*
X39133479Y-100425252D01*
X39319523Y-100703687D01*
X39556313Y-100940477D01*
X39834748Y-101126521D01*
X40063801Y-101221398D01*
X38321028Y-102964171D01*
X38159831Y-102856463D01*
X37844081Y-102725675D01*
X37508883Y-102659000D01*
X37167117Y-102659000D01*
X36831919Y-102725675D01*
X36516169Y-102856463D01*
X36232002Y-103046337D01*
X35990337Y-103288002D01*
X35800463Y-103572169D01*
X35669675Y-103887919D01*
X35603000Y-104223117D01*
X35603000Y-104564883D01*
X35669675Y-104900081D01*
X35800463Y-105215831D01*
X35990337Y-105499998D01*
X36232002Y-105741663D01*
X36516169Y-105931537D01*
X36578000Y-105957148D01*
X36578001Y-117287197D01*
X34505000Y-119360199D01*
X34505000Y-119252998D01*
X34340156Y-119252998D01*
X34461476Y-119023110D01*
X34416825Y-118875901D01*
X34291641Y-118613080D01*
X34117588Y-118379731D01*
X33901355Y-118184822D01*
X33775745Y-118110000D01*
X33901355Y-118035178D01*
X34117588Y-117840269D01*
X34291641Y-117606920D01*
X34416825Y-117344099D01*
X34461476Y-117196890D01*
X34340155Y-116967000D01*
X33147000Y-116967000D01*
X33147000Y-119253000D01*
X33167000Y-119253000D01*
X33167000Y-119507000D01*
X33147000Y-119507000D01*
X33147000Y-119527000D01*
X32893000Y-119527000D01*
X32893000Y-119507000D01*
X30607000Y-119507000D01*
X30607000Y-119527000D01*
X30353000Y-119527000D01*
X30353000Y-119507000D01*
X29159845Y-119507000D01*
X29038524Y-119736890D01*
X29083175Y-119884099D01*
X29208359Y-120146920D01*
X29382412Y-120380269D01*
X29598645Y-120575178D01*
X29715534Y-120644805D01*
X29533368Y-120766525D01*
X29326525Y-120973368D01*
X29164010Y-121216589D01*
X29052068Y-121486842D01*
X28995000Y-121773740D01*
X28995000Y-122066260D01*
X29052068Y-122353158D01*
X29164010Y-122623411D01*
X29326525Y-122866632D01*
X29533368Y-123073475D01*
X29776589Y-123235990D01*
X30046842Y-123347932D01*
X30333740Y-123405000D01*
X30626260Y-123405000D01*
X30913158Y-123347932D01*
X31183411Y-123235990D01*
X31426632Y-123073475D01*
X31633475Y-122866632D01*
X31750000Y-122692240D01*
X31866525Y-122866632D01*
X32073368Y-123073475D01*
X32316589Y-123235990D01*
X32586842Y-123347932D01*
X32873740Y-123405000D01*
X33166260Y-123405000D01*
X33453158Y-123347932D01*
X33723411Y-123235990D01*
X33966632Y-123073475D01*
X34047542Y-122992565D01*
X38940000Y-122992565D01*
X38940000Y-123327435D01*
X39005330Y-123655872D01*
X39133479Y-123965252D01*
X39319523Y-124243687D01*
X39556313Y-124480477D01*
X39834748Y-124666521D01*
X40144128Y-124794670D01*
X40472565Y-124860000D01*
X40807435Y-124860000D01*
X41135872Y-124794670D01*
X41445252Y-124666521D01*
X41723687Y-124480477D01*
X41960477Y-124243687D01*
X42146521Y-123965252D01*
X42274670Y-123655872D01*
X42340000Y-123327435D01*
X42340000Y-123084589D01*
X42500273Y-123191680D01*
X42761426Y-123299853D01*
X43038665Y-123355000D01*
X43321335Y-123355000D01*
X43598574Y-123299853D01*
X43859727Y-123191680D01*
X44094759Y-123034637D01*
X44294637Y-122834759D01*
X44451680Y-122599727D01*
X44559853Y-122338574D01*
X44615000Y-122061335D01*
X44615000Y-121778665D01*
X44559853Y-121501426D01*
X44451680Y-121240273D01*
X44294637Y-121005241D01*
X44094759Y-120805363D01*
X43859727Y-120648320D01*
X43598574Y-120540147D01*
X43321335Y-120485000D01*
X43038665Y-120485000D01*
X42761426Y-120540147D01*
X42500273Y-120648320D01*
X42265241Y-120805363D01*
X42065363Y-121005241D01*
X41961957Y-121160000D01*
X41917323Y-121160000D01*
X41880000Y-121156324D01*
X41842677Y-121160000D01*
X41842667Y-121160000D01*
X41731014Y-121170997D01*
X41587753Y-121214454D01*
X41455724Y-121285026D01*
X41339999Y-121379999D01*
X41316201Y-121408997D01*
X41181124Y-121544074D01*
X41135872Y-121525330D01*
X40807435Y-121460000D01*
X40472565Y-121460000D01*
X40144128Y-121525330D01*
X39834748Y-121653479D01*
X39556313Y-121839523D01*
X39319523Y-122076313D01*
X39133479Y-122354748D01*
X39005330Y-122664128D01*
X38940000Y-122992565D01*
X34047542Y-122992565D01*
X34173475Y-122866632D01*
X34335990Y-122623411D01*
X34447932Y-122353158D01*
X34505000Y-122066260D01*
X34505000Y-121773740D01*
X34461209Y-121553592D01*
X37849003Y-118165799D01*
X37878001Y-118142001D01*
X37972974Y-118026276D01*
X38043546Y-117894247D01*
X38087003Y-117750986D01*
X38098000Y-117639333D01*
X38098000Y-117639324D01*
X38101676Y-117602001D01*
X38098000Y-117564678D01*
X38098000Y-110845000D01*
X39036928Y-110845000D01*
X39040000Y-111474250D01*
X39198750Y-111633000D01*
X40513000Y-111633000D01*
X40513000Y-110368750D01*
X40354250Y-110210000D01*
X39675000Y-110206928D01*
X39550518Y-110219188D01*
X39430820Y-110255498D01*
X39320506Y-110314463D01*
X39223815Y-110393815D01*
X39144463Y-110490506D01*
X39085498Y-110600820D01*
X39049188Y-110720518D01*
X39036928Y-110845000D01*
X38098000Y-110845000D01*
X38098000Y-107752565D01*
X38940000Y-107752565D01*
X38940000Y-108087435D01*
X39005330Y-108415872D01*
X39133479Y-108725252D01*
X39319523Y-109003687D01*
X39556313Y-109240477D01*
X39834748Y-109426521D01*
X40144128Y-109554670D01*
X40472565Y-109620000D01*
X40807435Y-109620000D01*
X41135872Y-109554670D01*
X41445252Y-109426521D01*
X41723687Y-109240477D01*
X41960477Y-109003687D01*
X42146521Y-108725252D01*
X42274670Y-108415872D01*
X42340000Y-108087435D01*
X42340000Y-107752565D01*
X42274670Y-107424128D01*
X42146521Y-107114748D01*
X41960477Y-106836313D01*
X41723687Y-106599523D01*
X41445252Y-106413479D01*
X41135872Y-106285330D01*
X40807435Y-106220000D01*
X40472565Y-106220000D01*
X40144128Y-106285330D01*
X39834748Y-106413479D01*
X39556313Y-106599523D01*
X39319523Y-106836313D01*
X39133479Y-107114748D01*
X39005330Y-107424128D01*
X38940000Y-107752565D01*
X38098000Y-107752565D01*
X38098000Y-106115512D01*
X42374783Y-106115512D01*
X42416213Y-106395130D01*
X42511397Y-106661292D01*
X42578329Y-106786514D01*
X42822298Y-106858097D01*
X43635395Y-106045000D01*
X42822298Y-105231903D01*
X42578329Y-105303486D01*
X42457429Y-105558996D01*
X42388700Y-105833184D01*
X42374783Y-106115512D01*
X38098000Y-106115512D01*
X38098000Y-105957148D01*
X38159831Y-105931537D01*
X38443998Y-105741663D01*
X38685663Y-105499998D01*
X38875537Y-105215831D01*
X39006325Y-104900081D01*
X39073000Y-104564883D01*
X39073000Y-104361801D01*
X43491114Y-99943688D01*
X43673665Y-99980000D01*
X43956335Y-99980000D01*
X44199010Y-99931728D01*
X44199010Y-104661863D01*
X44026816Y-104618700D01*
X43744488Y-104604783D01*
X43464870Y-104646213D01*
X43198708Y-104741397D01*
X43073486Y-104808329D01*
X43001903Y-105052298D01*
X43815000Y-105865395D01*
X43829143Y-105851253D01*
X44008748Y-106030858D01*
X43994605Y-106045000D01*
X44008748Y-106059143D01*
X43829143Y-106238748D01*
X43815000Y-106224605D01*
X43001903Y-107037702D01*
X43073486Y-107281671D01*
X43328996Y-107402571D01*
X43603184Y-107471300D01*
X43885512Y-107485217D01*
X44017532Y-107465656D01*
X42668998Y-108814191D01*
X42640000Y-108837989D01*
X42616202Y-108866987D01*
X42616201Y-108866988D01*
X42545026Y-108953714D01*
X42474454Y-109085744D01*
X42430998Y-109229005D01*
X42416324Y-109377990D01*
X42420001Y-109415322D01*
X42420001Y-110541956D01*
X42265241Y-110645363D01*
X42221333Y-110689271D01*
X42194502Y-110600820D01*
X42135537Y-110490506D01*
X42056185Y-110393815D01*
X41959494Y-110314463D01*
X41849180Y-110255498D01*
X41729482Y-110219188D01*
X41605000Y-110206928D01*
X40925750Y-110210000D01*
X40767000Y-110368750D01*
X40767000Y-111633000D01*
X40787000Y-111633000D01*
X40787000Y-111887000D01*
X40767000Y-111887000D01*
X40767000Y-111907000D01*
X40513000Y-111907000D01*
X40513000Y-111887000D01*
X39198750Y-111887000D01*
X39040000Y-112045750D01*
X39036928Y-112675000D01*
X39049188Y-112799482D01*
X39085498Y-112919180D01*
X39144463Y-113029494D01*
X39223815Y-113126185D01*
X39320506Y-113205537D01*
X39430820Y-113264502D01*
X39550518Y-113300812D01*
X39675000Y-113313072D01*
X39935140Y-113311895D01*
X39834748Y-113353479D01*
X39556313Y-113539523D01*
X39319523Y-113776313D01*
X39133479Y-114054748D01*
X39005330Y-114364128D01*
X38940000Y-114692565D01*
X38940000Y-115027435D01*
X39005330Y-115355872D01*
X39133479Y-115665252D01*
X39319523Y-115943687D01*
X39556313Y-116180477D01*
X39834748Y-116366521D01*
X40144128Y-116494670D01*
X40472565Y-116560000D01*
X40807435Y-116560000D01*
X41135872Y-116494670D01*
X41445252Y-116366521D01*
X41723687Y-116180477D01*
X41960477Y-115943687D01*
X42146521Y-115665252D01*
X42274670Y-115355872D01*
X42340000Y-115027435D01*
X42340000Y-114692565D01*
X42274670Y-114364128D01*
X42146521Y-114054748D01*
X41960477Y-113776313D01*
X41723687Y-113539523D01*
X41445252Y-113353479D01*
X41344860Y-113311895D01*
X41605000Y-113313072D01*
X41729482Y-113300812D01*
X41849180Y-113264502D01*
X41959494Y-113205537D01*
X42056185Y-113126185D01*
X42135537Y-113029494D01*
X42194502Y-112919180D01*
X42221333Y-112830729D01*
X42265241Y-112874637D01*
X42500273Y-113031680D01*
X42761426Y-113139853D01*
X43038665Y-113195000D01*
X43321335Y-113195000D01*
X43598574Y-113139853D01*
X43859727Y-113031680D01*
X44094759Y-112874637D01*
X44294637Y-112674759D01*
X44451680Y-112439727D01*
X44559853Y-112178574D01*
X44615000Y-111901335D01*
X44615000Y-111618665D01*
X44559853Y-111341426D01*
X44451680Y-111080273D01*
X44294637Y-110845241D01*
X44094759Y-110645363D01*
X43940000Y-110541957D01*
X43940000Y-109692791D01*
X45060000Y-108572792D01*
X45060000Y-126340000D01*
X26060000Y-126340000D01*
X26060000Y-117196890D01*
X29038524Y-117196890D01*
X29083175Y-117344099D01*
X29208359Y-117606920D01*
X29382412Y-117840269D01*
X29598645Y-118035178D01*
X29724255Y-118110000D01*
X29598645Y-118184822D01*
X29382412Y-118379731D01*
X29208359Y-118613080D01*
X29083175Y-118875901D01*
X29038524Y-119023110D01*
X29159845Y-119253000D01*
X30353000Y-119253000D01*
X30353000Y-116967000D01*
X30607000Y-116967000D01*
X30607000Y-119253000D01*
X32893000Y-119253000D01*
X32893000Y-116967000D01*
X30607000Y-116967000D01*
X30353000Y-116967000D01*
X29159845Y-116967000D01*
X29038524Y-117196890D01*
X26060000Y-117196890D01*
X26060000Y-114656890D01*
X29038524Y-114656890D01*
X29083175Y-114804099D01*
X29208359Y-115066920D01*
X29382412Y-115300269D01*
X29598645Y-115495178D01*
X29724255Y-115570000D01*
X29598645Y-115644822D01*
X29382412Y-115839731D01*
X29208359Y-116073080D01*
X29083175Y-116335901D01*
X29038524Y-116483110D01*
X29159845Y-116713000D01*
X30353000Y-116713000D01*
X30353000Y-114427000D01*
X30607000Y-114427000D01*
X30607000Y-116713000D01*
X32893000Y-116713000D01*
X32893000Y-114427000D01*
X33147000Y-114427000D01*
X33147000Y-116713000D01*
X34340155Y-116713000D01*
X34461476Y-116483110D01*
X34416825Y-116335901D01*
X34291641Y-116073080D01*
X34117588Y-115839731D01*
X33901355Y-115644822D01*
X33775745Y-115570000D01*
X33901355Y-115495178D01*
X34117588Y-115300269D01*
X34291641Y-115066920D01*
X34416825Y-114804099D01*
X34461476Y-114656890D01*
X34340155Y-114427000D01*
X33147000Y-114427000D01*
X32893000Y-114427000D01*
X30607000Y-114427000D01*
X30353000Y-114427000D01*
X29159845Y-114427000D01*
X29038524Y-114656890D01*
X26060000Y-114656890D01*
X26060000Y-107752565D01*
X28780000Y-107752565D01*
X28780000Y-108087435D01*
X28845330Y-108415872D01*
X28973479Y-108725252D01*
X29159523Y-109003687D01*
X29396313Y-109240477D01*
X29674748Y-109426521D01*
X29984128Y-109554670D01*
X30312565Y-109620000D01*
X30647435Y-109620000D01*
X30975872Y-109554670D01*
X31285252Y-109426521D01*
X31563687Y-109240477D01*
X31800477Y-109003687D01*
X31986521Y-108725252D01*
X32114670Y-108415872D01*
X32180000Y-108087435D01*
X32180000Y-107752565D01*
X32114670Y-107424128D01*
X31986521Y-107114748D01*
X31800477Y-106836313D01*
X31563687Y-106599523D01*
X31285252Y-106413479D01*
X30975872Y-106285330D01*
X30647435Y-106220000D01*
X30312565Y-106220000D01*
X29984128Y-106285330D01*
X29674748Y-106413479D01*
X29396313Y-106599523D01*
X29159523Y-106836313D01*
X28973479Y-107114748D01*
X28845330Y-107424128D01*
X28780000Y-107752565D01*
X26060000Y-107752565D01*
X26060000Y-104720703D01*
X26152615Y-104875131D01*
X26341586Y-105083519D01*
X26567580Y-105251037D01*
X26821913Y-105371246D01*
X26955961Y-105411904D01*
X27178000Y-105289915D01*
X27178000Y-104147000D01*
X27432000Y-104147000D01*
X27432000Y-105289915D01*
X27654039Y-105411904D01*
X27788087Y-105371246D01*
X28042420Y-105251037D01*
X28268414Y-105083519D01*
X28457385Y-104875131D01*
X28602070Y-104633881D01*
X28696909Y-104369040D01*
X28575624Y-104147000D01*
X27432000Y-104147000D01*
X27178000Y-104147000D01*
X27158000Y-104147000D01*
X27158000Y-103893000D01*
X27178000Y-103893000D01*
X27178000Y-102750085D01*
X27432000Y-102750085D01*
X27432000Y-103893000D01*
X28575624Y-103893000D01*
X28696909Y-103670960D01*
X28602070Y-103406119D01*
X28457385Y-103164869D01*
X28268414Y-102956481D01*
X28042420Y-102788963D01*
X27788087Y-102668754D01*
X27654039Y-102628096D01*
X27432000Y-102750085D01*
X27178000Y-102750085D01*
X26955961Y-102628096D01*
X26821913Y-102668754D01*
X26567580Y-102788963D01*
X26341586Y-102956481D01*
X26152615Y-103164869D01*
X26060000Y-103319297D01*
X26060000Y-97239657D01*
X26190363Y-97434759D01*
X26390241Y-97634637D01*
X26545000Y-97738044D01*
X26545001Y-99229668D01*
X26541324Y-99267000D01*
X26555998Y-99415985D01*
X26599454Y-99559246D01*
X26670026Y-99691276D01*
X26741201Y-99778002D01*
X26765000Y-99807001D01*
X26793998Y-99830799D01*
X31868201Y-104905003D01*
X31891999Y-104934001D01*
X31920997Y-104957799D01*
X32007723Y-105028974D01*
X32043928Y-105048326D01*
X32043928Y-105494000D01*
X32056188Y-105618482D01*
X32092498Y-105738180D01*
X32151463Y-105848494D01*
X32230815Y-105945185D01*
X32260001Y-105969137D01*
X32260000Y-110271928D01*
X32170000Y-110271928D01*
X32045518Y-110284188D01*
X31925820Y-110320498D01*
X31815506Y-110379463D01*
X31718815Y-110458815D01*
X31639463Y-110555506D01*
X31580498Y-110665820D01*
X31558487Y-110738380D01*
X31426632Y-110606525D01*
X31183411Y-110444010D01*
X30913158Y-110332068D01*
X30626260Y-110275000D01*
X30333740Y-110275000D01*
X30046842Y-110332068D01*
X29776589Y-110444010D01*
X29533368Y-110606525D01*
X29326525Y-110813368D01*
X29164010Y-111056589D01*
X29052068Y-111326842D01*
X28995000Y-111613740D01*
X28995000Y-111906260D01*
X29052068Y-112193158D01*
X29164010Y-112463411D01*
X29326525Y-112706632D01*
X29533368Y-112913475D01*
X29715534Y-113035195D01*
X29598645Y-113104822D01*
X29382412Y-113299731D01*
X29208359Y-113533080D01*
X29083175Y-113795901D01*
X29038524Y-113943110D01*
X29159845Y-114173000D01*
X30353000Y-114173000D01*
X30353000Y-114153000D01*
X30607000Y-114153000D01*
X30607000Y-114173000D01*
X32893000Y-114173000D01*
X32893000Y-114153000D01*
X33147000Y-114153000D01*
X33147000Y-114173000D01*
X34340155Y-114173000D01*
X34461476Y-113943110D01*
X34416825Y-113795901D01*
X34291641Y-113533080D01*
X34117588Y-113299731D01*
X34033534Y-113223966D01*
X34114180Y-113199502D01*
X34224494Y-113140537D01*
X34321185Y-113061185D01*
X34400537Y-112964494D01*
X34459502Y-112854180D01*
X34495812Y-112734482D01*
X34508072Y-112610000D01*
X34508072Y-110910000D01*
X34495812Y-110785518D01*
X34459502Y-110665820D01*
X34400537Y-110555506D01*
X34321185Y-110458815D01*
X34224494Y-110379463D01*
X34114180Y-110320498D01*
X33994482Y-110284188D01*
X33870000Y-110271928D01*
X33780000Y-110271928D01*
X33780000Y-106132072D01*
X34882000Y-106132072D01*
X35006482Y-106119812D01*
X35126180Y-106083502D01*
X35236494Y-106024537D01*
X35333185Y-105945185D01*
X35412537Y-105848494D01*
X35471502Y-105738180D01*
X35507812Y-105618482D01*
X35520072Y-105494000D01*
X35520072Y-103294000D01*
X35507812Y-103169518D01*
X35471502Y-103049820D01*
X35412537Y-102939506D01*
X35333185Y-102842815D01*
X35236494Y-102763463D01*
X35126180Y-102704498D01*
X35006482Y-102668188D01*
X34882000Y-102655928D01*
X32682000Y-102655928D01*
X32557518Y-102668188D01*
X32437820Y-102704498D01*
X32327506Y-102763463D01*
X32230815Y-102842815D01*
X32151463Y-102939506D01*
X32116924Y-103004122D01*
X30432802Y-101320000D01*
X30647435Y-101320000D01*
X30975872Y-101254670D01*
X31285252Y-101126521D01*
X31563687Y-100940477D01*
X31800477Y-100703687D01*
X31986521Y-100425252D01*
X32114670Y-100115872D01*
X32180000Y-99787435D01*
X32180000Y-99452565D01*
X32114670Y-99124128D01*
X31986521Y-98814748D01*
X31800477Y-98536313D01*
X31563687Y-98299523D01*
X31285252Y-98113479D01*
X31184860Y-98071895D01*
X31445000Y-98073072D01*
X31569482Y-98060812D01*
X31689180Y-98024502D01*
X31799494Y-97965537D01*
X31896185Y-97886185D01*
X31975537Y-97789494D01*
X32034502Y-97679180D01*
X32070812Y-97559482D01*
X32083072Y-97435000D01*
X32080000Y-96805750D01*
X31921250Y-96647000D01*
X30607000Y-96647000D01*
X30607000Y-96667000D01*
X30353000Y-96667000D01*
X30353000Y-96647000D01*
X29038750Y-96647000D01*
X28880000Y-96805750D01*
X28876928Y-97435000D01*
X28889188Y-97559482D01*
X28925498Y-97679180D01*
X28984463Y-97789494D01*
X29063815Y-97886185D01*
X29160506Y-97965537D01*
X29270820Y-98024502D01*
X29390518Y-98060812D01*
X29515000Y-98073072D01*
X29775140Y-98071895D01*
X29674748Y-98113479D01*
X29396313Y-98299523D01*
X29159523Y-98536313D01*
X28973479Y-98814748D01*
X28845330Y-99124128D01*
X28780000Y-99452565D01*
X28780000Y-99667199D01*
X28065000Y-98952199D01*
X28065000Y-97738043D01*
X28219759Y-97634637D01*
X28419637Y-97434759D01*
X28576680Y-97199727D01*
X28684853Y-96938574D01*
X28740000Y-96661335D01*
X28740000Y-96378665D01*
X28684853Y-96101426D01*
X28576680Y-95840273D01*
X28419637Y-95605241D01*
X28419396Y-95605000D01*
X28876928Y-95605000D01*
X28880000Y-96234250D01*
X29038750Y-96393000D01*
X30353000Y-96393000D01*
X30353000Y-95128750D01*
X30607000Y-95128750D01*
X30607000Y-96393000D01*
X31921250Y-96393000D01*
X32080000Y-96234250D01*
X32083072Y-95605000D01*
X32070812Y-95480518D01*
X32034502Y-95360820D01*
X31975537Y-95250506D01*
X31896185Y-95153815D01*
X31799494Y-95074463D01*
X31689180Y-95015498D01*
X31569482Y-94979188D01*
X31445000Y-94966928D01*
X30765750Y-94970000D01*
X30607000Y-95128750D01*
X30353000Y-95128750D01*
X30194250Y-94970000D01*
X29515000Y-94966928D01*
X29390518Y-94979188D01*
X29270820Y-95015498D01*
X29160506Y-95074463D01*
X29063815Y-95153815D01*
X28984463Y-95250506D01*
X28925498Y-95360820D01*
X28889188Y-95480518D01*
X28876928Y-95605000D01*
X28419396Y-95605000D01*
X28219759Y-95405363D01*
X28065000Y-95301957D01*
X28065000Y-94630123D01*
X32092821Y-94630123D01*
X32202558Y-94952054D01*
X32372992Y-95246391D01*
X32597573Y-95501822D01*
X32867671Y-95708531D01*
X33172906Y-95858575D01*
X33385878Y-95923175D01*
X33655000Y-95805125D01*
X33655000Y-94361000D01*
X33909000Y-94361000D01*
X33909000Y-95805125D01*
X34178122Y-95923175D01*
X34391094Y-95858575D01*
X34696329Y-95708531D01*
X34966427Y-95501822D01*
X35113980Y-95334000D01*
X35599928Y-95334000D01*
X35612188Y-95458482D01*
X35648498Y-95578180D01*
X35707463Y-95688494D01*
X35786815Y-95785185D01*
X35883506Y-95864537D01*
X35993820Y-95923502D01*
X36113518Y-95959812D01*
X36238000Y-95972072D01*
X37052250Y-95969000D01*
X37211000Y-95810250D01*
X37211000Y-94361000D01*
X37465000Y-94361000D01*
X37465000Y-95810250D01*
X37623750Y-95969000D01*
X38438000Y-95972072D01*
X38562482Y-95959812D01*
X38682180Y-95923502D01*
X38792494Y-95864537D01*
X38889185Y-95785185D01*
X38968537Y-95688494D01*
X39027502Y-95578180D01*
X39045371Y-95519274D01*
X39036928Y-95605000D01*
X39040000Y-96234250D01*
X39198750Y-96393000D01*
X40513000Y-96393000D01*
X40513000Y-95128750D01*
X40767000Y-95128750D01*
X40767000Y-96393000D01*
X42081250Y-96393000D01*
X42240000Y-96234250D01*
X42243072Y-95605000D01*
X42230812Y-95480518D01*
X42194502Y-95360820D01*
X42135537Y-95250506D01*
X42056185Y-95153815D01*
X41959494Y-95074463D01*
X41849180Y-95015498D01*
X41729482Y-94979188D01*
X41605000Y-94966928D01*
X40925750Y-94970000D01*
X40767000Y-95128750D01*
X40513000Y-95128750D01*
X40354250Y-94970000D01*
X39675000Y-94966928D01*
X39550518Y-94979188D01*
X39430820Y-95015498D01*
X39320506Y-95074463D01*
X39223815Y-95153815D01*
X39144463Y-95250506D01*
X39085498Y-95360820D01*
X39067629Y-95419726D01*
X39076072Y-95334000D01*
X39073000Y-94519750D01*
X38914250Y-94361000D01*
X37465000Y-94361000D01*
X37211000Y-94361000D01*
X35761750Y-94361000D01*
X35603000Y-94519750D01*
X35599928Y-95334000D01*
X35113980Y-95334000D01*
X35191008Y-95246391D01*
X35361442Y-94952054D01*
X35471179Y-94630123D01*
X35353600Y-94361000D01*
X33909000Y-94361000D01*
X33655000Y-94361000D01*
X32210400Y-94361000D01*
X32092821Y-94630123D01*
X28065000Y-94630123D01*
X28065000Y-89703072D01*
X28740000Y-89703072D01*
X28864482Y-89690812D01*
X28984180Y-89654502D01*
X29094494Y-89595537D01*
X29191185Y-89516185D01*
X29270537Y-89419494D01*
X29329502Y-89309180D01*
X29345117Y-89257702D01*
X32126903Y-89257702D01*
X32198486Y-89501671D01*
X32453996Y-89622571D01*
X32728184Y-89691300D01*
X33010512Y-89705217D01*
X33290130Y-89663787D01*
X33556292Y-89568603D01*
X33681514Y-89501671D01*
X33753097Y-89257702D01*
X32940000Y-88444605D01*
X32126903Y-89257702D01*
X29345117Y-89257702D01*
X29365812Y-89189482D01*
X29378072Y-89065000D01*
X29378072Y-88335512D01*
X31499783Y-88335512D01*
X31541213Y-88615130D01*
X31636397Y-88881292D01*
X31703329Y-89006514D01*
X31947298Y-89078097D01*
X32760395Y-88265000D01*
X33119605Y-88265000D01*
X33932702Y-89078097D01*
X33977339Y-89065000D01*
X36661928Y-89065000D01*
X36674188Y-89189482D01*
X36710498Y-89309180D01*
X36769463Y-89419494D01*
X36848815Y-89516185D01*
X36945506Y-89595537D01*
X37055820Y-89654502D01*
X37175518Y-89690812D01*
X37300000Y-89703072D01*
X37814250Y-89700000D01*
X37973000Y-89541250D01*
X37973000Y-88392000D01*
X38227000Y-88392000D01*
X38227000Y-89541250D01*
X38385750Y-89700000D01*
X38900000Y-89703072D01*
X39024482Y-89690812D01*
X39144180Y-89654502D01*
X39254494Y-89595537D01*
X39351185Y-89516185D01*
X39430537Y-89419494D01*
X39489502Y-89309180D01*
X39525812Y-89189482D01*
X39538072Y-89065000D01*
X39535000Y-88550750D01*
X39376250Y-88392000D01*
X38227000Y-88392000D01*
X37973000Y-88392000D01*
X36823750Y-88392000D01*
X36665000Y-88550750D01*
X36661928Y-89065000D01*
X33977339Y-89065000D01*
X34176671Y-89006514D01*
X34297571Y-88751004D01*
X34366300Y-88476816D01*
X34380217Y-88194488D01*
X34338787Y-87914870D01*
X34243603Y-87648708D01*
X34176671Y-87523486D01*
X33977340Y-87465000D01*
X36661928Y-87465000D01*
X36665000Y-87979250D01*
X36823750Y-88138000D01*
X37973000Y-88138000D01*
X37973000Y-86988750D01*
X38227000Y-86988750D01*
X38227000Y-88138000D01*
X39376250Y-88138000D01*
X39535000Y-87979250D01*
X39538072Y-87465000D01*
X39525812Y-87340518D01*
X39489502Y-87220820D01*
X39430537Y-87110506D01*
X39351185Y-87013815D01*
X39254494Y-86934463D01*
X39144180Y-86875498D01*
X39024482Y-86839188D01*
X38900000Y-86826928D01*
X38385750Y-86830000D01*
X38227000Y-86988750D01*
X37973000Y-86988750D01*
X37814250Y-86830000D01*
X37300000Y-86826928D01*
X37175518Y-86839188D01*
X37055820Y-86875498D01*
X36945506Y-86934463D01*
X36848815Y-87013815D01*
X36769463Y-87110506D01*
X36710498Y-87220820D01*
X36674188Y-87340518D01*
X36661928Y-87465000D01*
X33977340Y-87465000D01*
X33932702Y-87451903D01*
X33119605Y-88265000D01*
X32760395Y-88265000D01*
X31947298Y-87451903D01*
X31703329Y-87523486D01*
X31582429Y-87778996D01*
X31513700Y-88053184D01*
X31499783Y-88335512D01*
X29378072Y-88335512D01*
X29378072Y-87465000D01*
X29365812Y-87340518D01*
X29345118Y-87272298D01*
X32126903Y-87272298D01*
X32940000Y-88085395D01*
X33753097Y-87272298D01*
X33681514Y-87028329D01*
X33426004Y-86907429D01*
X33151816Y-86838700D01*
X32869488Y-86824783D01*
X32589870Y-86866213D01*
X32323708Y-86961397D01*
X32198486Y-87028329D01*
X32126903Y-87272298D01*
X29345118Y-87272298D01*
X29329502Y-87220820D01*
X29270537Y-87110506D01*
X29191185Y-87013815D01*
X29094494Y-86934463D01*
X28984180Y-86875498D01*
X28864482Y-86839188D01*
X28740000Y-86826928D01*
X27140000Y-86826928D01*
X27015518Y-86839188D01*
X26895820Y-86875498D01*
X26785506Y-86934463D01*
X26688815Y-87013815D01*
X26609463Y-87110506D01*
X26550498Y-87220820D01*
X26514188Y-87340518D01*
X26501928Y-87465000D01*
X26501928Y-89065000D01*
X26514188Y-89189482D01*
X26545001Y-89291059D01*
X26545000Y-95301956D01*
X26390241Y-95405363D01*
X26190363Y-95605241D01*
X26060000Y-95800343D01*
X26060000Y-84212565D01*
X28780000Y-84212565D01*
X28780000Y-84547435D01*
X28845330Y-84875872D01*
X28973479Y-85185252D01*
X29159523Y-85463687D01*
X29396313Y-85700477D01*
X29674748Y-85886521D01*
X29984128Y-86014670D01*
X30312565Y-86080000D01*
X30647435Y-86080000D01*
X30975872Y-86014670D01*
X31285252Y-85886521D01*
X31563687Y-85700477D01*
X31800477Y-85463687D01*
X31986521Y-85185252D01*
X32114670Y-84875872D01*
X32180000Y-84547435D01*
X32180000Y-84212565D01*
X32114670Y-83884128D01*
X31986521Y-83574748D01*
X31800477Y-83296313D01*
X31563687Y-83059523D01*
X31285252Y-82873479D01*
X31184860Y-82831895D01*
X31445000Y-82833072D01*
X31569482Y-82820812D01*
X31689180Y-82784502D01*
X31799494Y-82725537D01*
X31896185Y-82646185D01*
X31975537Y-82549494D01*
X32034502Y-82439180D01*
X32070812Y-82319482D01*
X32083072Y-82195000D01*
X32080000Y-81565750D01*
X31921250Y-81407000D01*
X30607000Y-81407000D01*
X30607000Y-81427000D01*
X30353000Y-81427000D01*
X30353000Y-81407000D01*
X29038750Y-81407000D01*
X28880000Y-81565750D01*
X28876928Y-82195000D01*
X28889188Y-82319482D01*
X28925498Y-82439180D01*
X28984463Y-82549494D01*
X29063815Y-82646185D01*
X29160506Y-82725537D01*
X29270820Y-82784502D01*
X29390518Y-82820812D01*
X29515000Y-82833072D01*
X29775140Y-82831895D01*
X29674748Y-82873479D01*
X29396313Y-83059523D01*
X29159523Y-83296313D01*
X28973479Y-83574748D01*
X28845330Y-83884128D01*
X28780000Y-84212565D01*
X26060000Y-84212565D01*
X26060000Y-80365000D01*
X28876928Y-80365000D01*
X28880000Y-80994250D01*
X29038750Y-81153000D01*
X30353000Y-81153000D01*
X30353000Y-79888750D01*
X30607000Y-79888750D01*
X30607000Y-81153000D01*
X31921250Y-81153000D01*
X32080000Y-80994250D01*
X32083072Y-80365000D01*
X39036928Y-80365000D01*
X39040000Y-80994250D01*
X39198750Y-81153000D01*
X40513000Y-81153000D01*
X40513000Y-79888750D01*
X40767000Y-79888750D01*
X40767000Y-81153000D01*
X42081250Y-81153000D01*
X42240000Y-80994250D01*
X42243072Y-80365000D01*
X42230812Y-80240518D01*
X42194502Y-80120820D01*
X42135537Y-80010506D01*
X42056185Y-79913815D01*
X41959494Y-79834463D01*
X41849180Y-79775498D01*
X41729482Y-79739188D01*
X41605000Y-79726928D01*
X40925750Y-79730000D01*
X40767000Y-79888750D01*
X40513000Y-79888750D01*
X40354250Y-79730000D01*
X39675000Y-79726928D01*
X39550518Y-79739188D01*
X39430820Y-79775498D01*
X39320506Y-79834463D01*
X39223815Y-79913815D01*
X39144463Y-80010506D01*
X39085498Y-80120820D01*
X39049188Y-80240518D01*
X39036928Y-80365000D01*
X32083072Y-80365000D01*
X32074065Y-80273548D01*
X32120000Y-80278072D01*
X32734250Y-80275000D01*
X32893000Y-80116250D01*
X32893000Y-78867000D01*
X31643750Y-78867000D01*
X31485000Y-79025750D01*
X31481928Y-79640000D01*
X31490935Y-79731452D01*
X31445000Y-79726928D01*
X30765750Y-79730000D01*
X30607000Y-79888750D01*
X30353000Y-79888750D01*
X30194250Y-79730000D01*
X29515000Y-79726928D01*
X29390518Y-79739188D01*
X29270820Y-79775498D01*
X29160506Y-79834463D01*
X29063815Y-79913815D01*
X28984463Y-80010506D01*
X28925498Y-80120820D01*
X28889188Y-80240518D01*
X28876928Y-80365000D01*
X26060000Y-80365000D01*
X26060000Y-78189657D01*
X26190363Y-78384759D01*
X26390241Y-78584637D01*
X26625273Y-78741680D01*
X26886426Y-78849853D01*
X27163665Y-78905000D01*
X27446335Y-78905000D01*
X27723574Y-78849853D01*
X27984727Y-78741680D01*
X28219759Y-78584637D01*
X28419637Y-78384759D01*
X28576680Y-78149727D01*
X28684853Y-77888574D01*
X28694515Y-77840000D01*
X31481928Y-77840000D01*
X31485000Y-78454250D01*
X31643750Y-78613000D01*
X32893000Y-78613000D01*
X32893000Y-77363750D01*
X32734250Y-77205000D01*
X32120000Y-77201928D01*
X31995518Y-77214188D01*
X31875820Y-77250498D01*
X31765506Y-77309463D01*
X31668815Y-77388815D01*
X31589463Y-77485506D01*
X31530498Y-77595820D01*
X31494188Y-77715518D01*
X31481928Y-77840000D01*
X28694515Y-77840000D01*
X28740000Y-77611335D01*
X28740000Y-77328665D01*
X28684853Y-77051426D01*
X28576680Y-76790273D01*
X28419637Y-76555241D01*
X28219759Y-76355363D01*
X27984727Y-76198320D01*
X27723574Y-76090147D01*
X27446335Y-76035000D01*
X27163665Y-76035000D01*
X26981114Y-76071312D01*
X26510010Y-75600209D01*
X26510010Y-68504664D01*
X26545000Y-68528044D01*
X26545001Y-72733668D01*
X26541324Y-72771000D01*
X26545001Y-72808333D01*
X26555754Y-72917503D01*
X26555998Y-72919985D01*
X26599454Y-73063246D01*
X26670026Y-73195276D01*
X26739588Y-73280036D01*
X26765000Y-73311001D01*
X26793998Y-73334799D01*
X30170200Y-76711002D01*
X30193999Y-76740001D01*
X30309724Y-76834974D01*
X30441753Y-76905546D01*
X30585014Y-76949003D01*
X30696667Y-76960000D01*
X30696676Y-76960000D01*
X30733999Y-76963676D01*
X30771322Y-76960000D01*
X33467199Y-76960000D01*
X33710176Y-77202977D01*
X33305750Y-77205000D01*
X33147000Y-77363750D01*
X33147000Y-78613000D01*
X33167000Y-78613000D01*
X33167000Y-78867000D01*
X33147000Y-78867000D01*
X33147000Y-80116250D01*
X33305750Y-80275000D01*
X33920000Y-80278072D01*
X34044482Y-80265812D01*
X34164180Y-80229502D01*
X34274494Y-80170537D01*
X34371185Y-80091185D01*
X34450537Y-79994494D01*
X34503880Y-79894697D01*
X34541495Y-79932312D01*
X34792905Y-80100299D01*
X35072257Y-80216011D01*
X35368816Y-80275000D01*
X35671184Y-80275000D01*
X35967743Y-80216011D01*
X36247095Y-80100299D01*
X36498505Y-79932312D01*
X36712312Y-79718505D01*
X36770000Y-79632169D01*
X36827688Y-79718505D01*
X37041495Y-79932312D01*
X37292905Y-80100299D01*
X37572257Y-80216011D01*
X37868816Y-80275000D01*
X38171184Y-80275000D01*
X38467743Y-80216011D01*
X38747095Y-80100299D01*
X38998505Y-79932312D01*
X39212312Y-79718505D01*
X39380299Y-79467095D01*
X39496011Y-79187743D01*
X39555000Y-78891184D01*
X39555000Y-78588816D01*
X39496011Y-78292257D01*
X39380299Y-78012905D01*
X39212312Y-77761495D01*
X38998505Y-77547688D01*
X38747095Y-77379701D01*
X38467743Y-77263989D01*
X38171184Y-77205000D01*
X37868816Y-77205000D01*
X37572257Y-77263989D01*
X37292905Y-77379701D01*
X37041495Y-77547688D01*
X36827688Y-77761495D01*
X36770000Y-77847831D01*
X36712312Y-77761495D01*
X36498505Y-77547688D01*
X36247095Y-77379701D01*
X35967743Y-77263989D01*
X35909133Y-77252331D01*
X35024873Y-76368072D01*
X37014000Y-76368072D01*
X37138482Y-76355812D01*
X37258180Y-76319502D01*
X37368494Y-76260537D01*
X37465185Y-76181185D01*
X37544537Y-76084494D01*
X37603502Y-75974180D01*
X37639812Y-75854482D01*
X37652072Y-75730000D01*
X37652072Y-74130000D01*
X37639812Y-74005518D01*
X37603502Y-73885820D01*
X37544537Y-73775506D01*
X37465185Y-73678815D01*
X37368494Y-73599463D01*
X37258180Y-73540498D01*
X37138482Y-73504188D01*
X37120518Y-73502419D01*
X37233608Y-73409608D01*
X37412932Y-73191101D01*
X37546182Y-72941808D01*
X37628236Y-72671309D01*
X37655943Y-72390000D01*
X37628236Y-72108691D01*
X37546182Y-71838192D01*
X37412932Y-71588899D01*
X37233608Y-71370392D01*
X37015101Y-71191068D01*
X36887259Y-71122735D01*
X37116839Y-70972601D01*
X37318500Y-70774895D01*
X37477715Y-70541646D01*
X37588367Y-70281818D01*
X37605904Y-70199039D01*
X37483915Y-69977000D01*
X35941000Y-69977000D01*
X35941000Y-69997000D01*
X35687000Y-69997000D01*
X35687000Y-69977000D01*
X35667000Y-69977000D01*
X35667000Y-69723000D01*
X35687000Y-69723000D01*
X35687000Y-69703000D01*
X35941000Y-69703000D01*
X35941000Y-69723000D01*
X37483915Y-69723000D01*
X37605904Y-69500961D01*
X37588367Y-69418182D01*
X37477715Y-69158354D01*
X37318500Y-68925105D01*
X37116839Y-68727399D01*
X36887259Y-68577265D01*
X37015101Y-68508932D01*
X37233608Y-68329608D01*
X37412932Y-68111101D01*
X37546182Y-67861808D01*
X37628236Y-67591309D01*
X37655943Y-67310000D01*
X37628236Y-67028691D01*
X37546182Y-66758192D01*
X37412932Y-66508899D01*
X37233608Y-66290392D01*
X37015101Y-66111068D01*
X36765808Y-65977818D01*
X36495309Y-65895764D01*
X36284492Y-65875000D01*
X35343508Y-65875000D01*
X35132691Y-65895764D01*
X34862192Y-65977818D01*
X34612899Y-66111068D01*
X34394392Y-66290392D01*
X34215068Y-66508899D01*
X34081818Y-66758192D01*
X33999764Y-67028691D01*
X33972057Y-67310000D01*
X33999764Y-67591309D01*
X34081818Y-67861808D01*
X34215068Y-68111101D01*
X34394392Y-68329608D01*
X34612899Y-68508932D01*
X34740741Y-68577265D01*
X34511161Y-68727399D01*
X34309500Y-68925105D01*
X34150285Y-69158354D01*
X34039633Y-69418182D01*
X34022096Y-69500961D01*
X34049327Y-69550525D01*
X28898802Y-64400000D01*
X31481928Y-64400000D01*
X31494188Y-64524482D01*
X31530498Y-64644180D01*
X31589463Y-64754494D01*
X31668815Y-64851185D01*
X31765506Y-64930537D01*
X31875820Y-64989502D01*
X31995518Y-65025812D01*
X32120000Y-65038072D01*
X32734250Y-65035000D01*
X32893000Y-64876250D01*
X32893000Y-63627000D01*
X31643750Y-63627000D01*
X31485000Y-63785750D01*
X31481928Y-64400000D01*
X28898802Y-64400000D01*
X28065000Y-63566199D01*
X28065000Y-63448043D01*
X28219759Y-63344637D01*
X28419637Y-63144759D01*
X28576680Y-62909727D01*
X28684853Y-62648574D01*
X28694515Y-62600000D01*
X31481928Y-62600000D01*
X31485000Y-63214250D01*
X31643750Y-63373000D01*
X32893000Y-63373000D01*
X32893000Y-62123750D01*
X32734250Y-61965000D01*
X32120000Y-61961928D01*
X31995518Y-61974188D01*
X31875820Y-62010498D01*
X31765506Y-62069463D01*
X31668815Y-62148815D01*
X31589463Y-62245506D01*
X31530498Y-62355820D01*
X31494188Y-62475518D01*
X31481928Y-62600000D01*
X28694515Y-62600000D01*
X28740000Y-62371335D01*
X28740000Y-62088665D01*
X28684853Y-61811426D01*
X28576680Y-61550273D01*
X28419637Y-61315241D01*
X28219759Y-61115363D01*
X27984727Y-60958320D01*
X27723574Y-60850147D01*
X27446335Y-60795000D01*
X27163665Y-60795000D01*
X26981113Y-60831312D01*
X26939999Y-60790198D01*
X26939999Y-53460509D01*
X27163665Y-53505000D01*
X27446335Y-53505000D01*
X27723574Y-53449853D01*
X27984727Y-53341680D01*
X28219759Y-53184637D01*
X28419637Y-52984759D01*
X28523043Y-52830000D01*
X29118162Y-52830000D01*
X30124145Y-53835983D01*
X29952854Y-53887943D01*
X29606276Y-54073193D01*
X29302498Y-54322497D01*
X29053193Y-54626275D01*
X28867943Y-54972853D01*
X28753867Y-55348912D01*
X28725000Y-55642002D01*
X28725000Y-56357997D01*
X28753867Y-56651087D01*
X28867943Y-57027146D01*
X29053193Y-57373725D01*
X29302497Y-57677503D01*
X29606275Y-57926807D01*
X29952853Y-58112057D01*
X30328912Y-58226133D01*
X30720000Y-58264652D01*
X31111087Y-58226133D01*
X31487146Y-58112057D01*
X31833725Y-57926807D01*
X32137503Y-57677503D01*
X32386807Y-57373725D01*
X32572057Y-57027147D01*
X32686133Y-56651088D01*
X32708828Y-56420666D01*
X34760000Y-58471839D01*
X34760001Y-62161687D01*
X34541495Y-62307688D01*
X34503880Y-62345303D01*
X34450537Y-62245506D01*
X34371185Y-62148815D01*
X34274494Y-62069463D01*
X34164180Y-62010498D01*
X34044482Y-61974188D01*
X33920000Y-61961928D01*
X33305750Y-61965000D01*
X33147000Y-62123750D01*
X33147000Y-63373000D01*
X33167000Y-63373000D01*
X33167000Y-63627000D01*
X33147000Y-63627000D01*
X33147000Y-64876250D01*
X33305750Y-65035000D01*
X33920000Y-65038072D01*
X34044482Y-65025812D01*
X34164180Y-64989502D01*
X34274494Y-64930537D01*
X34371185Y-64851185D01*
X34450537Y-64754494D01*
X34503880Y-64654697D01*
X34541495Y-64692312D01*
X34792905Y-64860299D01*
X35072257Y-64976011D01*
X35368816Y-65035000D01*
X35671184Y-65035000D01*
X35967743Y-64976011D01*
X36247095Y-64860299D01*
X36498505Y-64692312D01*
X36712312Y-64478505D01*
X36770000Y-64392169D01*
X36827688Y-64478505D01*
X37041495Y-64692312D01*
X37292905Y-64860299D01*
X37572257Y-64976011D01*
X37868816Y-65035000D01*
X38171184Y-65035000D01*
X38467743Y-64976011D01*
X38747095Y-64860299D01*
X38998505Y-64692312D01*
X39212312Y-64478505D01*
X39380299Y-64227095D01*
X39496011Y-63947743D01*
X39555000Y-63651184D01*
X39555000Y-63348816D01*
X39496011Y-63052257D01*
X39380299Y-62772905D01*
X39212312Y-62521495D01*
X38998505Y-62307688D01*
X38747095Y-62139701D01*
X38467743Y-62023989D01*
X38171184Y-61965000D01*
X37868816Y-61965000D01*
X37572257Y-62023989D01*
X37292905Y-62139701D01*
X37041495Y-62307688D01*
X36827688Y-62521495D01*
X36770000Y-62607831D01*
X36712312Y-62521495D01*
X36498505Y-62307688D01*
X36280000Y-62161687D01*
X36280000Y-58194359D01*
X36283676Y-58157036D01*
X36280000Y-58119713D01*
X36280000Y-58119704D01*
X36269003Y-58008051D01*
X36225546Y-57864790D01*
X36154974Y-57732761D01*
X36060001Y-57617036D01*
X36031004Y-57593239D01*
X34079767Y-55642002D01*
X38325000Y-55642002D01*
X38325000Y-56357997D01*
X38353867Y-56651087D01*
X38467943Y-57027146D01*
X38653193Y-57373725D01*
X38902497Y-57677503D01*
X39206275Y-57926807D01*
X39552853Y-58112057D01*
X39928912Y-58226133D01*
X40320000Y-58264652D01*
X40711087Y-58226133D01*
X41087146Y-58112057D01*
X41433725Y-57926807D01*
X41737503Y-57677503D01*
X41986807Y-57373725D01*
X42172057Y-57027147D01*
X42286133Y-56651088D01*
X42315000Y-56357998D01*
X42315000Y-55642003D01*
X42286133Y-55348913D01*
X42172057Y-54972853D01*
X41986807Y-54626275D01*
X41737503Y-54322497D01*
X41433725Y-54073193D01*
X41087147Y-53887943D01*
X40711088Y-53773867D01*
X40320000Y-53735348D01*
X39928913Y-53773867D01*
X39552854Y-53887943D01*
X39206276Y-54073193D01*
X38902498Y-54322497D01*
X38653193Y-54626275D01*
X38467943Y-54972853D01*
X38353867Y-55348912D01*
X38325000Y-55642002D01*
X34079767Y-55642002D01*
X29996767Y-51559003D01*
X29972964Y-51529999D01*
X29857239Y-51435026D01*
X29725210Y-51364454D01*
X29581949Y-51320997D01*
X29470296Y-51310000D01*
X29470285Y-51310000D01*
X29432963Y-51306324D01*
X29395641Y-51310000D01*
X28523043Y-51310000D01*
X28419637Y-51155241D01*
X28219759Y-50955363D01*
X27984727Y-50798320D01*
X27723574Y-50690147D01*
X27446335Y-50635000D01*
X27163665Y-50635000D01*
X26939999Y-50679491D01*
X26939999Y-49160000D01*
X31481928Y-49160000D01*
X31494188Y-49284482D01*
X31530498Y-49404180D01*
X31589463Y-49514494D01*
X31668815Y-49611185D01*
X31765506Y-49690537D01*
X31875820Y-49749502D01*
X31995518Y-49785812D01*
X32120000Y-49798072D01*
X32734250Y-49795000D01*
X32893000Y-49636250D01*
X32893000Y-48387000D01*
X31643750Y-48387000D01*
X31485000Y-48545750D01*
X31481928Y-49160000D01*
X26939999Y-49160000D01*
X26939999Y-48429802D01*
X26981113Y-48388688D01*
X27163665Y-48425000D01*
X27446335Y-48425000D01*
X27723574Y-48369853D01*
X27984727Y-48261680D01*
X28219759Y-48104637D01*
X28419637Y-47904759D01*
X28576680Y-47669727D01*
X28684853Y-47408574D01*
X28694515Y-47360000D01*
X31481928Y-47360000D01*
X31485000Y-47974250D01*
X31643750Y-48133000D01*
X32893000Y-48133000D01*
X32893000Y-46883750D01*
X32734250Y-46725000D01*
X32120000Y-46721928D01*
X31995518Y-46734188D01*
X31875820Y-46770498D01*
X31765506Y-46829463D01*
X31668815Y-46908815D01*
X31589463Y-47005506D01*
X31530498Y-47115820D01*
X31494188Y-47235518D01*
X31481928Y-47360000D01*
X28694515Y-47360000D01*
X28740000Y-47131335D01*
X28740000Y-46848665D01*
X28684853Y-46571426D01*
X28576680Y-46310273D01*
X28419637Y-46075241D01*
X28219759Y-45875363D01*
X27984727Y-45718320D01*
X27723574Y-45610147D01*
X27446335Y-45555000D01*
X27163665Y-45555000D01*
X26981113Y-45591312D01*
X26939999Y-45550198D01*
X26939999Y-38220509D01*
X27163665Y-38265000D01*
X27446335Y-38265000D01*
X27723574Y-38209853D01*
X27984727Y-38101680D01*
X28219759Y-37944637D01*
X28419637Y-37744759D01*
X28523043Y-37590000D01*
X29118162Y-37590000D01*
X30124145Y-38595983D01*
X29952854Y-38647943D01*
X29606276Y-38833193D01*
X29302498Y-39082497D01*
X29053193Y-39386275D01*
X28867943Y-39732853D01*
X28753867Y-40108912D01*
X28725000Y-40402002D01*
X28725000Y-41117997D01*
X28753867Y-41411087D01*
X28867943Y-41787146D01*
X29053193Y-42133725D01*
X29302497Y-42437503D01*
X29606275Y-42686807D01*
X29952853Y-42872057D01*
X30328912Y-42986133D01*
X30720000Y-43024652D01*
X31111087Y-42986133D01*
X31487146Y-42872057D01*
X31833725Y-42686807D01*
X32137503Y-42437503D01*
X32386807Y-42133725D01*
X32572057Y-41787147D01*
X32686133Y-41411088D01*
X32708828Y-41180666D01*
X34760001Y-43231840D01*
X34760000Y-46921687D01*
X34541495Y-47067688D01*
X34503880Y-47105303D01*
X34450537Y-47005506D01*
X34371185Y-46908815D01*
X34274494Y-46829463D01*
X34164180Y-46770498D01*
X34044482Y-46734188D01*
X33920000Y-46721928D01*
X33305750Y-46725000D01*
X33147000Y-46883750D01*
X33147000Y-48133000D01*
X33167000Y-48133000D01*
X33167000Y-48387000D01*
X33147000Y-48387000D01*
X33147000Y-49636250D01*
X33305750Y-49795000D01*
X33920000Y-49798072D01*
X34044482Y-49785812D01*
X34164180Y-49749502D01*
X34274494Y-49690537D01*
X34371185Y-49611185D01*
X34450537Y-49514494D01*
X34503880Y-49414697D01*
X34541495Y-49452312D01*
X34792905Y-49620299D01*
X35072257Y-49736011D01*
X35368816Y-49795000D01*
X35671184Y-49795000D01*
X35967743Y-49736011D01*
X36247095Y-49620299D01*
X36498505Y-49452312D01*
X36712312Y-49238505D01*
X36770000Y-49152169D01*
X36827688Y-49238505D01*
X37041495Y-49452312D01*
X37292905Y-49620299D01*
X37572257Y-49736011D01*
X37868816Y-49795000D01*
X38171184Y-49795000D01*
X38467743Y-49736011D01*
X38747095Y-49620299D01*
X38998505Y-49452312D01*
X39212312Y-49238505D01*
X39380299Y-48987095D01*
X39496011Y-48707743D01*
X39555000Y-48411184D01*
X39555000Y-48108816D01*
X39496011Y-47812257D01*
X39380299Y-47532905D01*
X39212312Y-47281495D01*
X38998505Y-47067688D01*
X38747095Y-46899701D01*
X38467743Y-46783989D01*
X38171184Y-46725000D01*
X37868816Y-46725000D01*
X37572257Y-46783989D01*
X37292905Y-46899701D01*
X37041495Y-47067688D01*
X36827688Y-47281495D01*
X36770000Y-47367831D01*
X36712312Y-47281495D01*
X36498505Y-47067688D01*
X36280000Y-46921687D01*
X36280000Y-42954359D01*
X36283676Y-42917036D01*
X36280000Y-42879713D01*
X36280000Y-42879704D01*
X36269003Y-42768051D01*
X36225546Y-42624790D01*
X36154974Y-42492761D01*
X36060001Y-42377036D01*
X36031003Y-42353238D01*
X34079767Y-40402002D01*
X38325000Y-40402002D01*
X38325000Y-41117997D01*
X38353867Y-41411087D01*
X38467943Y-41787146D01*
X38653193Y-42133725D01*
X38902497Y-42437503D01*
X39206275Y-42686807D01*
X39552853Y-42872057D01*
X39928912Y-42986133D01*
X40320000Y-43024652D01*
X40711087Y-42986133D01*
X41087146Y-42872057D01*
X41433725Y-42686807D01*
X41737503Y-42437503D01*
X41986807Y-42133725D01*
X42172057Y-41787147D01*
X42286133Y-41411088D01*
X42315000Y-41117998D01*
X42315000Y-40402003D01*
X42286133Y-40108913D01*
X42172057Y-39732853D01*
X41986807Y-39386275D01*
X41737503Y-39082497D01*
X41433725Y-38833193D01*
X41087147Y-38647943D01*
X40711088Y-38533867D01*
X40320000Y-38495348D01*
X39928913Y-38533867D01*
X39552854Y-38647943D01*
X39206276Y-38833193D01*
X38902498Y-39082497D01*
X38653193Y-39386275D01*
X38467943Y-39732853D01*
X38353867Y-40108912D01*
X38325000Y-40402002D01*
X34079767Y-40402002D01*
X29996767Y-36319003D01*
X29972964Y-36289999D01*
X29857239Y-36195026D01*
X29725210Y-36124454D01*
X29581949Y-36080997D01*
X29470296Y-36070000D01*
X29470285Y-36070000D01*
X29432963Y-36066324D01*
X29395641Y-36070000D01*
X28523043Y-36070000D01*
X28419637Y-35915241D01*
X28219759Y-35715363D01*
X27984727Y-35558320D01*
X27723574Y-35450147D01*
X27446335Y-35395000D01*
X27163665Y-35395000D01*
X26939999Y-35439491D01*
X26939999Y-33189802D01*
X26981113Y-33148688D01*
X27163665Y-33185000D01*
X27446335Y-33185000D01*
X27628886Y-33148688D01*
X29236202Y-34756004D01*
X29260000Y-34785002D01*
X29375725Y-34879975D01*
X29507754Y-34950547D01*
X29651015Y-34994004D01*
X29762668Y-35005001D01*
X29762677Y-35005001D01*
X29800000Y-35008677D01*
X29837323Y-35005001D01*
X36070679Y-35005001D01*
X36108001Y-35008677D01*
X36145323Y-35005001D01*
X36145334Y-35005001D01*
X36256987Y-34994004D01*
X36400248Y-34950547D01*
X36532277Y-34879975D01*
X36648002Y-34785002D01*
X36671804Y-34755999D01*
X37145798Y-34282005D01*
X37292905Y-34380299D01*
X37572257Y-34496011D01*
X37868816Y-34555000D01*
X38171184Y-34555000D01*
X38467743Y-34496011D01*
X38747095Y-34380299D01*
X38998505Y-34212312D01*
X39212312Y-33998505D01*
X39380299Y-33747095D01*
X39496011Y-33467743D01*
X39555000Y-33171184D01*
X39555000Y-32868816D01*
X39496011Y-32572257D01*
X39380299Y-32292905D01*
X39212312Y-32041495D01*
X38998505Y-31827688D01*
X38747095Y-31659701D01*
X38467743Y-31543989D01*
X38171184Y-31485000D01*
X37868816Y-31485000D01*
X37572257Y-31543989D01*
X37505001Y-31571847D01*
X37505001Y-26766837D01*
X38331172Y-25940666D01*
X38353867Y-26171087D01*
X38467943Y-26547146D01*
X38653193Y-26893725D01*
X38902497Y-27197503D01*
X39206275Y-27446807D01*
X39552853Y-27632057D01*
X39928912Y-27746133D01*
X40320000Y-27784652D01*
X40711087Y-27746133D01*
X41087146Y-27632057D01*
X41433725Y-27446807D01*
X41737503Y-27197503D01*
X41986807Y-26893725D01*
X42172057Y-26547147D01*
X42286133Y-26171088D01*
X42315000Y-25877998D01*
X42315000Y-25162003D01*
X42286133Y-24868913D01*
X42172057Y-24492853D01*
X41986807Y-24146275D01*
X41737503Y-23842497D01*
X41433725Y-23593193D01*
X41087147Y-23407943D01*
X40915856Y-23355983D01*
X41921839Y-22350000D01*
X42596957Y-22350000D01*
X42700363Y-22504759D01*
X42900241Y-22704637D01*
X43135273Y-22861680D01*
X43396426Y-22969853D01*
X43673665Y-23025000D01*
X43956335Y-23025000D01*
X44233574Y-22969853D01*
X44494727Y-22861680D01*
X44729759Y-22704637D01*
X44929637Y-22504759D01*
X45060001Y-22309655D01*
X45060001Y-31030345D01*
G37*
%TD.AperFunction*%
D26*
X31472785Y-69123586D02*
X31111088Y-69013867D01*
X30720000Y-68975348D01*
X30328913Y-69013867D01*
X29952854Y-69127943D01*
X29606276Y-69313193D01*
X29302498Y-69562497D01*
X29053193Y-69866275D01*
X28867943Y-70212853D01*
X28753867Y-70588912D01*
X28725000Y-70882002D01*
X28725000Y-71597997D01*
X28753867Y-71891087D01*
X28867943Y-72267146D01*
X29053193Y-72613725D01*
X29302497Y-72917503D01*
X29606275Y-73166807D01*
X29952853Y-73352057D01*
X30328912Y-73466133D01*
X30720000Y-73504652D01*
X31111087Y-73466133D01*
X31487146Y-73352057D01*
X31833725Y-73166807D01*
X32137503Y-72917503D01*
X32386807Y-72613725D01*
X32572057Y-72267147D01*
X32686133Y-71891088D01*
X32715000Y-71597998D01*
X32715000Y-70882003D01*
X32686133Y-70588913D01*
X32576414Y-70227215D01*
X34118592Y-71769393D01*
X34081818Y-71838192D01*
X33999764Y-72108691D01*
X33972057Y-72390000D01*
X33999764Y-72671309D01*
X34081818Y-72941808D01*
X34215068Y-73191101D01*
X34394392Y-73409608D01*
X34507482Y-73502419D01*
X34489518Y-73504188D01*
X34369820Y-73540498D01*
X34259506Y-73599463D01*
X34162815Y-73678815D01*
X34083463Y-73775506D01*
X34024498Y-73885820D01*
X33988188Y-74005518D01*
X33975928Y-74130000D01*
X33975928Y-75464630D01*
X33930986Y-75450997D01*
X33819333Y-75440000D01*
X33819322Y-75440000D01*
X33782000Y-75436324D01*
X33744678Y-75440000D01*
X31048802Y-75440000D01*
X28065000Y-72456199D01*
X28065000Y-68528043D01*
X28219759Y-68424637D01*
X28419637Y-68224759D01*
X28576680Y-67989727D01*
X28684853Y-67728574D01*
X28740000Y-67451335D01*
X28740000Y-67168665D01*
X28684853Y-66891426D01*
X28576680Y-66630273D01*
X28419637Y-66395241D01*
X28219759Y-66195363D01*
X27984727Y-66038320D01*
X27723574Y-65930147D01*
X27446335Y-65875000D01*
X27163665Y-65875000D01*
X26886426Y-65930147D01*
X26625273Y-66038320D01*
X26510010Y-66115336D01*
X26510010Y-65750791D01*
X27305000Y-64955801D01*
X31472785Y-69123586D01*
%TA.AperFunction,Conductor*%
D27*
G36*
X31472785Y-69123586D02*
G01*
X31111088Y-69013867D01*
X30720000Y-68975348D01*
X30328913Y-69013867D01*
X29952854Y-69127943D01*
X29606276Y-69313193D01*
X29302498Y-69562497D01*
X29053193Y-69866275D01*
X28867943Y-70212853D01*
X28753867Y-70588912D01*
X28725000Y-70882002D01*
X28725000Y-71597997D01*
X28753867Y-71891087D01*
X28867943Y-72267146D01*
X29053193Y-72613725D01*
X29302497Y-72917503D01*
X29606275Y-73166807D01*
X29952853Y-73352057D01*
X30328912Y-73466133D01*
X30720000Y-73504652D01*
X31111087Y-73466133D01*
X31487146Y-73352057D01*
X31833725Y-73166807D01*
X32137503Y-72917503D01*
X32386807Y-72613725D01*
X32572057Y-72267147D01*
X32686133Y-71891088D01*
X32715000Y-71597998D01*
X32715000Y-70882003D01*
X32686133Y-70588913D01*
X32576414Y-70227215D01*
X34118592Y-71769393D01*
X34081818Y-71838192D01*
X33999764Y-72108691D01*
X33972057Y-72390000D01*
X33999764Y-72671309D01*
X34081818Y-72941808D01*
X34215068Y-73191101D01*
X34394392Y-73409608D01*
X34507482Y-73502419D01*
X34489518Y-73504188D01*
X34369820Y-73540498D01*
X34259506Y-73599463D01*
X34162815Y-73678815D01*
X34083463Y-73775506D01*
X34024498Y-73885820D01*
X33988188Y-74005518D01*
X33975928Y-74130000D01*
X33975928Y-75464630D01*
X33930986Y-75450997D01*
X33819333Y-75440000D01*
X33819322Y-75440000D01*
X33782000Y-75436324D01*
X33744678Y-75440000D01*
X31048802Y-75440000D01*
X28065000Y-72456199D01*
X28065000Y-68528043D01*
X28219759Y-68424637D01*
X28419637Y-68224759D01*
X28576680Y-67989727D01*
X28684853Y-67728574D01*
X28740000Y-67451335D01*
X28740000Y-67168665D01*
X28684853Y-66891426D01*
X28576680Y-66630273D01*
X28419637Y-66395241D01*
X28219759Y-66195363D01*
X27984727Y-66038320D01*
X27723574Y-65930147D01*
X27446335Y-65875000D01*
X27163665Y-65875000D01*
X26886426Y-65930147D01*
X26625273Y-66038320D01*
X26510010Y-66115336D01*
X26510010Y-65750791D01*
X27305000Y-64955801D01*
X31472785Y-69123586D01*
G37*
%TD.AperFunction*%
D26*
X44199011Y-65919898D02*
X43961000Y-65875000D01*
X43561000Y-65875000D01*
X43561000Y-67183000D01*
X43581000Y-67183000D01*
X43581000Y-67437000D01*
X43561000Y-67437000D01*
X43561000Y-67457000D01*
X43307000Y-67457000D01*
X43307000Y-67437000D01*
X43287000Y-67437000D01*
X43287000Y-67183000D01*
X43307000Y-67183000D01*
X43307000Y-65875000D01*
X42907000Y-65875000D01*
X42629486Y-65927350D01*
X42367517Y-66032834D01*
X42162000Y-66167232D01*
X42162000Y-63241396D01*
X42265241Y-63344637D01*
X42500273Y-63501680D01*
X42761426Y-63609853D01*
X43038665Y-63665000D01*
X43321335Y-63665000D01*
X43598574Y-63609853D01*
X43859727Y-63501680D01*
X44094759Y-63344637D01*
X44199011Y-63240385D01*
X44199011Y-65919898D01*
%TA.AperFunction,Conductor*%
D27*
G36*
X44199011Y-65919898D02*
G01*
X43961000Y-65875000D01*
X43561000Y-65875000D01*
X43561000Y-67183000D01*
X43581000Y-67183000D01*
X43581000Y-67437000D01*
X43561000Y-67437000D01*
X43561000Y-67457000D01*
X43307000Y-67457000D01*
X43307000Y-67437000D01*
X43287000Y-67437000D01*
X43287000Y-67183000D01*
X43307000Y-67183000D01*
X43307000Y-65875000D01*
X42907000Y-65875000D01*
X42629486Y-65927350D01*
X42367517Y-66032834D01*
X42162000Y-66167232D01*
X42162000Y-63241396D01*
X42265241Y-63344637D01*
X42500273Y-63501680D01*
X42761426Y-63609853D01*
X43038665Y-63665000D01*
X43321335Y-63665000D01*
X43598574Y-63609853D01*
X43859727Y-63501680D01*
X44094759Y-63344637D01*
X44199011Y-63240385D01*
X44199011Y-65919898D01*
G37*
%TD.AperFunction*%
D26*
X26190363Y-22504759D02*
X26390241Y-22704637D01*
X26625273Y-22861680D01*
X26886426Y-22969853D01*
X27163665Y-23025000D01*
X27446335Y-23025000D01*
X27723574Y-22969853D01*
X27984727Y-22861680D01*
X28219759Y-22704637D01*
X28419637Y-22504759D01*
X28523043Y-22350000D01*
X29118162Y-22350000D01*
X30124145Y-23355983D01*
X29952854Y-23407943D01*
X29606276Y-23593193D01*
X29302498Y-23842497D01*
X29053193Y-24146275D01*
X28867943Y-24492853D01*
X28753867Y-24868912D01*
X28725000Y-25162002D01*
X28725000Y-25877997D01*
X28753867Y-26171087D01*
X28867943Y-26547146D01*
X29053193Y-26893725D01*
X29302497Y-27197503D01*
X29606275Y-27446807D01*
X29952853Y-27632057D01*
X30328912Y-27746133D01*
X30720000Y-27784652D01*
X31111087Y-27746133D01*
X31487146Y-27632057D01*
X31833725Y-27446807D01*
X32137503Y-27197503D01*
X32386807Y-26893725D01*
X32572057Y-26547147D01*
X32686133Y-26171088D01*
X32708828Y-25940666D01*
X34760001Y-27991840D01*
X34760000Y-31681687D01*
X34541495Y-31827688D01*
X34503880Y-31865303D01*
X34450537Y-31765506D01*
X34371185Y-31668815D01*
X34274494Y-31589463D01*
X34164180Y-31530498D01*
X34044482Y-31494188D01*
X33920000Y-31481928D01*
X33305750Y-31485000D01*
X33147000Y-31643750D01*
X33147000Y-32893000D01*
X33167000Y-32893000D01*
X33167000Y-33147000D01*
X33147000Y-33147000D01*
X33147000Y-33167000D01*
X32893000Y-33167000D01*
X32893000Y-33147000D01*
X31643750Y-33147000D01*
X31485000Y-33305750D01*
X31484104Y-33485001D01*
X30114803Y-33485001D01*
X28749802Y-32120000D01*
X31481928Y-32120000D01*
X31485000Y-32734250D01*
X31643750Y-32893000D01*
X32893000Y-32893000D01*
X32893000Y-31643750D01*
X32734250Y-31485000D01*
X32120000Y-31481928D01*
X31995518Y-31494188D01*
X31875820Y-31530498D01*
X31765506Y-31589463D01*
X31668815Y-31668815D01*
X31589463Y-31765506D01*
X31530498Y-31875820D01*
X31494188Y-31995518D01*
X31481928Y-32120000D01*
X28749802Y-32120000D01*
X28703688Y-32073886D01*
X28740000Y-31891335D01*
X28740000Y-31608665D01*
X28684853Y-31331426D01*
X28576680Y-31070273D01*
X28419637Y-30835241D01*
X28219759Y-30635363D01*
X27984727Y-30478320D01*
X27723574Y-30370147D01*
X27446335Y-30315000D01*
X27163665Y-30315000D01*
X26886426Y-30370147D01*
X26625273Y-30478320D01*
X26390241Y-30635363D01*
X26190363Y-30835241D01*
X26060000Y-31030343D01*
X26060000Y-22309657D01*
X26190363Y-22504759D01*
%TA.AperFunction,Conductor*%
D27*
G36*
X26190363Y-22504759D02*
G01*
X26390241Y-22704637D01*
X26625273Y-22861680D01*
X26886426Y-22969853D01*
X27163665Y-23025000D01*
X27446335Y-23025000D01*
X27723574Y-22969853D01*
X27984727Y-22861680D01*
X28219759Y-22704637D01*
X28419637Y-22504759D01*
X28523043Y-22350000D01*
X29118162Y-22350000D01*
X30124145Y-23355983D01*
X29952854Y-23407943D01*
X29606276Y-23593193D01*
X29302498Y-23842497D01*
X29053193Y-24146275D01*
X28867943Y-24492853D01*
X28753867Y-24868912D01*
X28725000Y-25162002D01*
X28725000Y-25877997D01*
X28753867Y-26171087D01*
X28867943Y-26547146D01*
X29053193Y-26893725D01*
X29302497Y-27197503D01*
X29606275Y-27446807D01*
X29952853Y-27632057D01*
X30328912Y-27746133D01*
X30720000Y-27784652D01*
X31111087Y-27746133D01*
X31487146Y-27632057D01*
X31833725Y-27446807D01*
X32137503Y-27197503D01*
X32386807Y-26893725D01*
X32572057Y-26547147D01*
X32686133Y-26171088D01*
X32708828Y-25940666D01*
X34760001Y-27991840D01*
X34760000Y-31681687D01*
X34541495Y-31827688D01*
X34503880Y-31865303D01*
X34450537Y-31765506D01*
X34371185Y-31668815D01*
X34274494Y-31589463D01*
X34164180Y-31530498D01*
X34044482Y-31494188D01*
X33920000Y-31481928D01*
X33305750Y-31485000D01*
X33147000Y-31643750D01*
X33147000Y-32893000D01*
X33167000Y-32893000D01*
X33167000Y-33147000D01*
X33147000Y-33147000D01*
X33147000Y-33167000D01*
X32893000Y-33167000D01*
X32893000Y-33147000D01*
X31643750Y-33147000D01*
X31485000Y-33305750D01*
X31484104Y-33485001D01*
X30114803Y-33485001D01*
X28749802Y-32120000D01*
X31481928Y-32120000D01*
X31485000Y-32734250D01*
X31643750Y-32893000D01*
X32893000Y-32893000D01*
X32893000Y-31643750D01*
X32734250Y-31485000D01*
X32120000Y-31481928D01*
X31995518Y-31494188D01*
X31875820Y-31530498D01*
X31765506Y-31589463D01*
X31668815Y-31668815D01*
X31589463Y-31765506D01*
X31530498Y-31875820D01*
X31494188Y-31995518D01*
X31481928Y-32120000D01*
X28749802Y-32120000D01*
X28703688Y-32073886D01*
X28740000Y-31891335D01*
X28740000Y-31608665D01*
X28684853Y-31331426D01*
X28576680Y-31070273D01*
X28419637Y-30835241D01*
X28219759Y-30635363D01*
X27984727Y-30478320D01*
X27723574Y-30370147D01*
X27446335Y-30315000D01*
X27163665Y-30315000D01*
X26886426Y-30370147D01*
X26625273Y-30478320D01*
X26390241Y-30635363D01*
X26190363Y-30835241D01*
X26060000Y-31030343D01*
X26060000Y-22309657D01*
X26190363Y-22504759D01*
G37*
%TD.AperFunction*%
%TD*%
M02*
