M48
; DRILL file {KiCad 5.1.6-1.fc31} date Thu Jun 18 16:48:20 2020
; FORMAT={-:-/ absolute / inch / decimal}
; #@! TF.CreationDate,2020-06-18T16:48:20-04:00
; #@! TF.GenerationSoftware,Kicad,Pcbnew,5.1.6-1.fc31
; #@! TF.FileFunction,Plated,1,2,PTH
FMAT,2
INCH
T1C0.0394
T2C0.0433
T3C0.0480
T4C0.0559
T5C0.0563
%
G90
G05
T1
X4.952Y-4.311
X4.352Y-1.3976
X4.6929Y-4.7165
X4.6929Y-4.815
X4.6929Y-4.9134
X4.7087Y-2.752
X4.7087Y-2.8504
X4.7087Y-2.9488
X4.252Y-4.311
X4.352Y-4.311
X4.452Y-4.311
X4.552Y-4.311
X4.652Y-4.311
X4.752Y-4.311
X4.852Y-4.311
X4.7008Y-3.7244
X4.7008Y-3.8228
X4.7008Y-3.9213
X4.6969Y-1.7795
X4.6969Y-1.878
X4.6969Y-1.9764
X4.252Y-1.3976
X4.452Y-1.3976
X4.552Y-1.3976
X4.652Y-1.3976
X4.752Y-1.3976
X4.852Y-1.3976
X4.952Y-1.3976
T3
X4.4606Y-1.874
X4.4528Y-3.8543
X4.4528Y-4.8307
X5.1969Y-0.9055
X4.46Y-2.8622
X4.4587Y-0.9055
T4
X4.3307Y-3.8543
X4.3307Y-4.8307
X4.338Y-2.8622
X4.3366Y-0.9055
X4.3386Y-1.874
X5.0748Y-0.9055
T5
X4.0118Y-1.874
X4.0039Y-3.8543
X4.0039Y-4.8307
X4.748Y-0.9055
X4.0112Y-2.8622
X4.0098Y-0.9055
T2
G00X4.9744Y-4.626
M15
G01X5.002Y-4.626
M16
G05
G00X4.9744Y-5.0039
M15
G01X5.002Y-5.0039
M16
G05
G00X4.9902Y-2.6614
M15
G01X5.0177Y-2.6614
M16
G05
G00X4.9902Y-3.0394
M15
G01X5.0177Y-3.0394
M16
G05
G00X4.9823Y-3.6339
M15
G01X5.0098Y-3.6339
M16
G05
G00X4.9823Y-4.0118
M15
G01X5.0098Y-4.0118
M16
G05
G00X4.9783Y-1.689
M15
G01X5.0059Y-1.689
M16
G05
G00X4.9783Y-2.0669
M15
G01X5.0059Y-2.0669
M16
G05
T0
M30
