G04 #@! TF.GenerationSoftware,KiCad,Pcbnew,5.1.6-1.fc31*
G04 #@! TF.CreationDate,2020-06-18T16:59:41-04:00*
G04 #@! TF.ProjectId,ChordArrayGUI,43686f72-6441-4727-9261-794755492e6b,rev?*
G04 #@! TF.SameCoordinates,Original*
G04 #@! TF.FileFunction,Copper,L1,Top*
G04 #@! TF.FilePolarity,Positive*
%FSLAX46Y46*%
G04 Gerber Fmt 4.6, Leading zero omitted, Abs format (unit mm)*
G04 Created by KiCad (PCBNEW 5.1.6-1.fc31) date 2020-06-18 16:59:41*
%MOMM*%
%LPD*%
G01*
G04 APERTURE LIST*
G04 #@! TA.AperFunction,ComponentPad*
%ADD10O,1.700000X1.700000*%
G04 #@! TD*
G04 #@! TA.AperFunction,ComponentPad*
%ADD11R,1.700000X1.700000*%
G04 #@! TD*
G04 #@! TA.AperFunction,ComponentPad*
%ADD12C,2.130000*%
G04 #@! TD*
G04 #@! TA.AperFunction,ComponentPad*
%ADD13R,1.830000X1.930000*%
G04 #@! TD*
G04 #@! TA.AperFunction,ComponentPad*
%ADD14R,1.800000X1.800000*%
G04 #@! TD*
G04 #@! TA.AperFunction,ComponentPad*
%ADD15C,1.800000*%
G04 #@! TD*
G04 #@! TA.AperFunction,ComponentPad*
%ADD16O,3.240000X2.720000*%
G04 #@! TD*
G04 #@! TA.AperFunction,Conductor*
%ADD17C,0.250000*%
G04 #@! TD*
G04 #@! TA.AperFunction,Conductor*
%ADD18C,0.254000*%
G04 #@! TD*
G04 APERTURE END LIST*
D10*
G04 #@! TO.P,J9,8*
G04 #@! TO.N,GND*
X125780000Y-109500000D03*
G04 #@! TO.P,J9,7*
G04 #@! TO.N,OFFS4*
X123240000Y-109500000D03*
G04 #@! TO.P,J9,6*
G04 #@! TO.N,OFFP4*
X120700000Y-109500000D03*
G04 #@! TO.P,J9,5*
G04 #@! TO.N,OFFS3*
X118160000Y-109500000D03*
G04 #@! TO.P,J9,4*
G04 #@! TO.N,OFFP3*
X115620000Y-109500000D03*
G04 #@! TO.P,J9,3*
G04 #@! TO.N,OFFS2*
X113080000Y-109500000D03*
G04 #@! TO.P,J9,2*
G04 #@! TO.N,OFFP2*
X110540000Y-109500000D03*
D11*
G04 #@! TO.P,J9,1*
G04 #@! TO.N,GND*
X108000000Y-109500000D03*
G04 #@! TD*
D10*
G04 #@! TO.P,J8,8*
G04 #@! TO.N,GND*
X125780000Y-35500000D03*
G04 #@! TO.P,J8,7*
X123240000Y-35500000D03*
G04 #@! TO.P,J8,6*
G04 #@! TO.N,OFFS1*
X120700000Y-35500000D03*
G04 #@! TO.P,J8,5*
G04 #@! TO.N,OFFP1*
X118160000Y-35500000D03*
G04 #@! TO.P,J8,4*
G04 #@! TO.N,1V*
X115620000Y-35500000D03*
G04 #@! TO.P,J8,3*
G04 #@! TO.N,BUFFOUT*
X113080000Y-35500000D03*
G04 #@! TO.P,J8,2*
G04 #@! TO.N,CVIN*
X110540000Y-35500000D03*
D11*
G04 #@! TO.P,J8,1*
G04 #@! TO.N,GND*
X108000000Y-35500000D03*
G04 #@! TD*
D12*
G04 #@! TO.P,J1,T*
G04 #@! TO.N,CVIN*
X101850000Y-23000000D03*
D13*
G04 #@! TO.P,J1,S*
G04 #@! TO.N,GND*
X113250000Y-23000000D03*
D12*
G04 #@! TO.P,J1,TN*
G04 #@! TO.N,N/C*
X110150000Y-23000000D03*
G04 #@! TD*
G04 #@! TO.P,J3,TN*
G04 #@! TO.N,N/C*
X128900000Y-23000000D03*
D13*
G04 #@! TO.P,J3,S*
G04 #@! TO.N,GND*
X132000000Y-23000000D03*
D12*
G04 #@! TO.P,J3,T*
G04 #@! TO.N,BUFFOUT*
X120600000Y-23000000D03*
G04 #@! TD*
G04 #@! TO.P,J4,T*
G04 #@! TO.N,OFFS1*
X101900000Y-47600000D03*
D13*
G04 #@! TO.P,J4,S*
G04 #@! TO.N,GND*
X113300000Y-47600000D03*
D12*
G04 #@! TO.P,J4,TN*
G04 #@! TO.N,N/C*
X110200000Y-47600000D03*
G04 #@! TD*
G04 #@! TO.P,J5,T*
G04 #@! TO.N,OFFS2*
X101884000Y-72700000D03*
D13*
G04 #@! TO.P,J5,S*
G04 #@! TO.N,GND*
X113284000Y-72700000D03*
D12*
G04 #@! TO.P,J5,TN*
G04 #@! TO.N,N/C*
X110184000Y-72700000D03*
G04 #@! TD*
G04 #@! TO.P,J6,TN*
G04 #@! TO.N,N/C*
X110000000Y-97900000D03*
D13*
G04 #@! TO.P,J6,S*
G04 #@! TO.N,GND*
X113100000Y-97900000D03*
D12*
G04 #@! TO.P,J6,T*
G04 #@! TO.N,OFFS3*
X101700000Y-97900000D03*
G04 #@! TD*
G04 #@! TO.P,J7,TN*
G04 #@! TO.N,N/C*
X110000000Y-122700000D03*
D13*
G04 #@! TO.P,J7,S*
G04 #@! TO.N,Net-(J7-PadS)*
X113100000Y-122700000D03*
D12*
G04 #@! TO.P,J7,T*
G04 #@! TO.N,OFFS4*
X101700000Y-122700000D03*
G04 #@! TD*
D14*
G04 #@! TO.P,RV2,1*
G04 #@! TO.N,GND*
X119300000Y-45200000D03*
D15*
G04 #@! TO.P,RV2,2*
G04 #@! TO.N,OFFP1*
X119300000Y-47700000D03*
G04 #@! TO.P,RV2,3*
G04 #@! TO.N,1V*
X119300000Y-50200000D03*
D16*
G04 #@! TO.P,RV2,*
G04 #@! TO.N,*
X126800000Y-52500000D03*
X126800000Y-42900000D03*
G04 #@! TD*
D14*
G04 #@! TO.P,RV3,1*
G04 #@! TO.N,GND*
X119600000Y-69900000D03*
D15*
G04 #@! TO.P,RV3,2*
G04 #@! TO.N,OFFP2*
X119600000Y-72400000D03*
G04 #@! TO.P,RV3,3*
G04 #@! TO.N,1V*
X119600000Y-74900000D03*
D16*
G04 #@! TO.P,RV3,*
G04 #@! TO.N,*
X127100000Y-77200000D03*
X127100000Y-67600000D03*
G04 #@! TD*
G04 #@! TO.P,RV4,*
G04 #@! TO.N,*
X126900000Y-92300000D03*
X126900000Y-101900000D03*
D15*
G04 #@! TO.P,RV4,3*
G04 #@! TO.N,1V*
X119400000Y-99600000D03*
G04 #@! TO.P,RV4,2*
G04 #@! TO.N,OFFP4*
X119400000Y-97100000D03*
D14*
G04 #@! TO.P,RV4,1*
G04 #@! TO.N,GND*
X119400000Y-94600000D03*
G04 #@! TD*
D16*
G04 #@! TO.P,RV5,*
G04 #@! TO.N,*
X126700000Y-117500000D03*
X126700000Y-127100000D03*
D15*
G04 #@! TO.P,RV5,3*
G04 #@! TO.N,1V*
X119200000Y-124800000D03*
G04 #@! TO.P,RV5,2*
G04 #@! TO.N,OFFP3*
X119200000Y-122300000D03*
D14*
G04 #@! TO.P,RV5,1*
G04 #@! TO.N,GND*
X119200000Y-119800000D03*
G04 #@! TD*
D17*
G04 #@! TO.N,1V*
X116984999Y-36864999D02*
X116984999Y-38244999D01*
X115620000Y-35500000D02*
X116984999Y-36864999D01*
X122042963Y-124800000D02*
X119200000Y-124800000D01*
X130175000Y-116667963D02*
X122042963Y-124800000D01*
X125190000Y-99600000D02*
X130175000Y-94615000D01*
X119400000Y-99600000D02*
X125190000Y-99600000D01*
X130175000Y-94615000D02*
X130175000Y-116667963D01*
X119600000Y-74900000D02*
X125125000Y-74900000D01*
X125125000Y-74900000D02*
X130175000Y-69850000D01*
X130175000Y-69850000D02*
X130175000Y-65405000D01*
X130175000Y-51435000D02*
X130175000Y-65405000D01*
X130175000Y-65405000D02*
X130175000Y-94615000D01*
X123780000Y-45720000D02*
X124460000Y-45720000D01*
X119300000Y-50200000D02*
X123780000Y-45720000D01*
X116984999Y-38244999D02*
X124460000Y-45720000D01*
X124460000Y-45720000D02*
X130175000Y-51435000D01*
G04 #@! TO.N,CVIN*
X110540000Y-31690000D02*
X101850000Y-23000000D01*
X110540000Y-35500000D02*
X110540000Y-31690000D01*
G04 #@! TO.N,BUFFOUT*
X113080000Y-30520000D02*
X120600000Y-23000000D01*
X113080000Y-35500000D02*
X113080000Y-30520000D01*
G04 #@! TO.N,OFFS3*
X101700000Y-97900000D02*
X101700000Y-109955000D01*
X101700000Y-109955000D02*
X106045000Y-114300000D01*
X106045000Y-114300000D02*
X114300000Y-114300000D01*
X118160000Y-110440000D02*
X118160000Y-109500000D01*
X114300000Y-114300000D02*
X118160000Y-110440000D01*
G04 #@! TO.N,OFFP4*
X120700000Y-109500000D02*
X120700000Y-108000000D01*
X118174999Y-98325001D02*
X119400000Y-97100000D01*
X118174999Y-105474999D02*
X118174999Y-98325001D01*
X120700000Y-108000000D02*
X118174999Y-105474999D01*
G04 #@! TO.N,OFFP2*
X111390001Y-108649999D02*
X110540000Y-109500000D01*
X111390001Y-80609999D02*
X111390001Y-108649999D01*
X119600000Y-72400000D02*
X111390001Y-80609999D01*
G04 #@! TD*
D18*
G04 #@! TO.N,GND*
G36*
X132588000Y-21398524D02*
G01*
X132285750Y-21400000D01*
X132127000Y-21558750D01*
X132127000Y-22873000D01*
X132147000Y-22873000D01*
X132147000Y-23127000D01*
X132127000Y-23127000D01*
X132127000Y-24441250D01*
X132285750Y-24600000D01*
X132588000Y-24601476D01*
X132588000Y-128143000D01*
X128664610Y-128143000D01*
X128812057Y-127867147D01*
X128926133Y-127491088D01*
X128964652Y-127100000D01*
X128926133Y-126708912D01*
X128812057Y-126332853D01*
X128626807Y-125986275D01*
X128377503Y-125682497D01*
X128073725Y-125433193D01*
X127727147Y-125247943D01*
X127351088Y-125133867D01*
X127057998Y-125105000D01*
X126342002Y-125105000D01*
X126048912Y-125133867D01*
X125672853Y-125247943D01*
X125326275Y-125433193D01*
X125022497Y-125682497D01*
X124773193Y-125986275D01*
X124587943Y-126332853D01*
X124473867Y-126708912D01*
X124435348Y-127100000D01*
X124473867Y-127491088D01*
X124587943Y-127867147D01*
X124735390Y-128143000D01*
X100457000Y-128143000D01*
X100457000Y-123861164D01*
X100616313Y-124020477D01*
X100894748Y-124206521D01*
X101204128Y-124334670D01*
X101532565Y-124400000D01*
X101867435Y-124400000D01*
X102195872Y-124334670D01*
X102505252Y-124206521D01*
X102783687Y-124020477D01*
X103020477Y-123783687D01*
X103206521Y-123505252D01*
X103334670Y-123195872D01*
X103400000Y-122867435D01*
X103400000Y-122532565D01*
X108300000Y-122532565D01*
X108300000Y-122867435D01*
X108365330Y-123195872D01*
X108493479Y-123505252D01*
X108679523Y-123783687D01*
X108916313Y-124020477D01*
X109194748Y-124206521D01*
X109504128Y-124334670D01*
X109832565Y-124400000D01*
X110167435Y-124400000D01*
X110495872Y-124334670D01*
X110805252Y-124206521D01*
X111083687Y-124020477D01*
X111320477Y-123783687D01*
X111506521Y-123505252D01*
X111546928Y-123407701D01*
X111546928Y-123665000D01*
X111559188Y-123789482D01*
X111595498Y-123909180D01*
X111654463Y-124019494D01*
X111733815Y-124116185D01*
X111830506Y-124195537D01*
X111940820Y-124254502D01*
X112060518Y-124290812D01*
X112185000Y-124303072D01*
X114015000Y-124303072D01*
X114139482Y-124290812D01*
X114259180Y-124254502D01*
X114369494Y-124195537D01*
X114466185Y-124116185D01*
X114545537Y-124019494D01*
X114604502Y-123909180D01*
X114640812Y-123789482D01*
X114653072Y-123665000D01*
X114653072Y-121735000D01*
X114640812Y-121610518D01*
X114604502Y-121490820D01*
X114545537Y-121380506D01*
X114466185Y-121283815D01*
X114369494Y-121204463D01*
X114259180Y-121145498D01*
X114139482Y-121109188D01*
X114015000Y-121096928D01*
X112185000Y-121096928D01*
X112060518Y-121109188D01*
X111940820Y-121145498D01*
X111830506Y-121204463D01*
X111733815Y-121283815D01*
X111654463Y-121380506D01*
X111595498Y-121490820D01*
X111559188Y-121610518D01*
X111546928Y-121735000D01*
X111546928Y-121992299D01*
X111506521Y-121894748D01*
X111320477Y-121616313D01*
X111083687Y-121379523D01*
X110805252Y-121193479D01*
X110495872Y-121065330D01*
X110167435Y-121000000D01*
X109832565Y-121000000D01*
X109504128Y-121065330D01*
X109194748Y-121193479D01*
X108916313Y-121379523D01*
X108679523Y-121616313D01*
X108493479Y-121894748D01*
X108365330Y-122204128D01*
X108300000Y-122532565D01*
X103400000Y-122532565D01*
X103334670Y-122204128D01*
X103206521Y-121894748D01*
X103020477Y-121616313D01*
X102783687Y-121379523D01*
X102505252Y-121193479D01*
X102195872Y-121065330D01*
X101867435Y-121000000D01*
X101532565Y-121000000D01*
X101204128Y-121065330D01*
X100894748Y-121193479D01*
X100616313Y-121379523D01*
X100457000Y-121538836D01*
X100457000Y-118900000D01*
X117661928Y-118900000D01*
X117665000Y-119514250D01*
X117823750Y-119673000D01*
X119073000Y-119673000D01*
X119073000Y-118423750D01*
X119327000Y-118423750D01*
X119327000Y-119673000D01*
X120576250Y-119673000D01*
X120735000Y-119514250D01*
X120738072Y-118900000D01*
X120725812Y-118775518D01*
X120689502Y-118655820D01*
X120630537Y-118545506D01*
X120551185Y-118448815D01*
X120454494Y-118369463D01*
X120344180Y-118310498D01*
X120224482Y-118274188D01*
X120100000Y-118261928D01*
X119485750Y-118265000D01*
X119327000Y-118423750D01*
X119073000Y-118423750D01*
X118914250Y-118265000D01*
X118300000Y-118261928D01*
X118175518Y-118274188D01*
X118055820Y-118310498D01*
X117945506Y-118369463D01*
X117848815Y-118448815D01*
X117769463Y-118545506D01*
X117710498Y-118655820D01*
X117674188Y-118775518D01*
X117661928Y-118900000D01*
X100457000Y-118900000D01*
X100457000Y-99061164D01*
X100616313Y-99220477D01*
X100894748Y-99406521D01*
X100940000Y-99425265D01*
X100940001Y-109917668D01*
X100936324Y-109955000D01*
X100950998Y-110103985D01*
X100994454Y-110247246D01*
X101065026Y-110379276D01*
X101136201Y-110466002D01*
X101160000Y-110495001D01*
X101188998Y-110518799D01*
X105481201Y-114811003D01*
X105504999Y-114840001D01*
X105533997Y-114863799D01*
X105620723Y-114934974D01*
X105752753Y-115005546D01*
X105896014Y-115049003D01*
X106007667Y-115060000D01*
X106007677Y-115060000D01*
X106045000Y-115063676D01*
X106082323Y-115060000D01*
X114262678Y-115060000D01*
X114300000Y-115063676D01*
X114337322Y-115060000D01*
X114337333Y-115060000D01*
X114448986Y-115049003D01*
X114592247Y-115005546D01*
X114724276Y-114934974D01*
X114840001Y-114840001D01*
X114863804Y-114810997D01*
X118671004Y-111003798D01*
X118700001Y-110980001D01*
X118794974Y-110864276D01*
X118808662Y-110838668D01*
X118863411Y-110815990D01*
X119106632Y-110653475D01*
X119313475Y-110446632D01*
X119430000Y-110272240D01*
X119546525Y-110446632D01*
X119753368Y-110653475D01*
X119996589Y-110815990D01*
X120266842Y-110927932D01*
X120553740Y-110985000D01*
X120846260Y-110985000D01*
X121133158Y-110927932D01*
X121403411Y-110815990D01*
X121646632Y-110653475D01*
X121853475Y-110446632D01*
X121970000Y-110272240D01*
X122086525Y-110446632D01*
X122293368Y-110653475D01*
X122536589Y-110815990D01*
X122806842Y-110927932D01*
X123093740Y-110985000D01*
X123386260Y-110985000D01*
X123673158Y-110927932D01*
X123943411Y-110815990D01*
X124186632Y-110653475D01*
X124393475Y-110446632D01*
X124515195Y-110264466D01*
X124584822Y-110381355D01*
X124779731Y-110597588D01*
X125013080Y-110771641D01*
X125275901Y-110896825D01*
X125423110Y-110941476D01*
X125653000Y-110820155D01*
X125653000Y-109627000D01*
X125907000Y-109627000D01*
X125907000Y-110820155D01*
X126136890Y-110941476D01*
X126284099Y-110896825D01*
X126546920Y-110771641D01*
X126780269Y-110597588D01*
X126975178Y-110381355D01*
X127124157Y-110131252D01*
X127221481Y-109856891D01*
X127100814Y-109627000D01*
X125907000Y-109627000D01*
X125653000Y-109627000D01*
X125633000Y-109627000D01*
X125633000Y-109373000D01*
X125653000Y-109373000D01*
X125653000Y-108179845D01*
X125907000Y-108179845D01*
X125907000Y-109373000D01*
X127100814Y-109373000D01*
X127221481Y-109143109D01*
X127124157Y-108868748D01*
X126975178Y-108618645D01*
X126780269Y-108402412D01*
X126546920Y-108228359D01*
X126284099Y-108103175D01*
X126136890Y-108058524D01*
X125907000Y-108179845D01*
X125653000Y-108179845D01*
X125423110Y-108058524D01*
X125275901Y-108103175D01*
X125013080Y-108228359D01*
X124779731Y-108402412D01*
X124584822Y-108618645D01*
X124515195Y-108735534D01*
X124393475Y-108553368D01*
X124186632Y-108346525D01*
X123943411Y-108184010D01*
X123673158Y-108072068D01*
X123386260Y-108015000D01*
X123093740Y-108015000D01*
X122806842Y-108072068D01*
X122536589Y-108184010D01*
X122293368Y-108346525D01*
X122086525Y-108553368D01*
X121970000Y-108727760D01*
X121853475Y-108553368D01*
X121646632Y-108346525D01*
X121460000Y-108221822D01*
X121460000Y-108037325D01*
X121463676Y-108000000D01*
X121460000Y-107962675D01*
X121460000Y-107962667D01*
X121449003Y-107851014D01*
X121405546Y-107707753D01*
X121334974Y-107575724D01*
X121240001Y-107459999D01*
X121211003Y-107436201D01*
X118934999Y-105160198D01*
X118934999Y-101068862D01*
X118952257Y-101076011D01*
X119248816Y-101135000D01*
X119551184Y-101135000D01*
X119847743Y-101076011D01*
X120127095Y-100960299D01*
X120378505Y-100792312D01*
X120592312Y-100578505D01*
X120738313Y-100360000D01*
X125152678Y-100360000D01*
X125190000Y-100363676D01*
X125227322Y-100360000D01*
X125227333Y-100360000D01*
X125338986Y-100349003D01*
X125412234Y-100326784D01*
X125222497Y-100482497D01*
X124973193Y-100786275D01*
X124787943Y-101132853D01*
X124673867Y-101508912D01*
X124635348Y-101900000D01*
X124673867Y-102291088D01*
X124787943Y-102667147D01*
X124973193Y-103013725D01*
X125222497Y-103317503D01*
X125526275Y-103566807D01*
X125872853Y-103752057D01*
X126248912Y-103866133D01*
X126542002Y-103895000D01*
X127257998Y-103895000D01*
X127551088Y-103866133D01*
X127927147Y-103752057D01*
X128273725Y-103566807D01*
X128577503Y-103317503D01*
X128826807Y-103013725D01*
X129012057Y-102667147D01*
X129126133Y-102291088D01*
X129164652Y-101900000D01*
X129126133Y-101508912D01*
X129012057Y-101132853D01*
X128826807Y-100786275D01*
X128577503Y-100482497D01*
X128273725Y-100233193D01*
X127927147Y-100047943D01*
X127551088Y-99933867D01*
X127257998Y-99905000D01*
X126542002Y-99905000D01*
X126248912Y-99933867D01*
X125872853Y-100047943D01*
X125752957Y-100112029D01*
X125753804Y-100110997D01*
X129415000Y-96449802D01*
X129415001Y-116353160D01*
X128864017Y-116904144D01*
X128812057Y-116732853D01*
X128626807Y-116386275D01*
X128377503Y-116082497D01*
X128073725Y-115833193D01*
X127727147Y-115647943D01*
X127351088Y-115533867D01*
X127057998Y-115505000D01*
X126342002Y-115505000D01*
X126048912Y-115533867D01*
X125672853Y-115647943D01*
X125326275Y-115833193D01*
X125022497Y-116082497D01*
X124773193Y-116386275D01*
X124587943Y-116732853D01*
X124473867Y-117108912D01*
X124435348Y-117500000D01*
X124473867Y-117891088D01*
X124587943Y-118267147D01*
X124773193Y-118613725D01*
X125022497Y-118917503D01*
X125326275Y-119166807D01*
X125672853Y-119352057D01*
X126048912Y-119466133D01*
X126279334Y-119488828D01*
X121728162Y-124040000D01*
X120538313Y-124040000D01*
X120392312Y-123821495D01*
X120178505Y-123607688D01*
X120092169Y-123550000D01*
X120178505Y-123492312D01*
X120392312Y-123278505D01*
X120560299Y-123027095D01*
X120676011Y-122747743D01*
X120735000Y-122451184D01*
X120735000Y-122148816D01*
X120676011Y-121852257D01*
X120560299Y-121572905D01*
X120392312Y-121321495D01*
X120354697Y-121283880D01*
X120454494Y-121230537D01*
X120551185Y-121151185D01*
X120630537Y-121054494D01*
X120689502Y-120944180D01*
X120725812Y-120824482D01*
X120738072Y-120700000D01*
X120735000Y-120085750D01*
X120576250Y-119927000D01*
X119327000Y-119927000D01*
X119327000Y-119947000D01*
X119073000Y-119947000D01*
X119073000Y-119927000D01*
X117823750Y-119927000D01*
X117665000Y-120085750D01*
X117661928Y-120700000D01*
X117674188Y-120824482D01*
X117710498Y-120944180D01*
X117769463Y-121054494D01*
X117848815Y-121151185D01*
X117945506Y-121230537D01*
X118045303Y-121283880D01*
X118007688Y-121321495D01*
X117839701Y-121572905D01*
X117723989Y-121852257D01*
X117665000Y-122148816D01*
X117665000Y-122451184D01*
X117723989Y-122747743D01*
X117839701Y-123027095D01*
X118007688Y-123278505D01*
X118221495Y-123492312D01*
X118307831Y-123550000D01*
X118221495Y-123607688D01*
X118007688Y-123821495D01*
X117839701Y-124072905D01*
X117723989Y-124352257D01*
X117665000Y-124648816D01*
X117665000Y-124951184D01*
X117723989Y-125247743D01*
X117839701Y-125527095D01*
X118007688Y-125778505D01*
X118221495Y-125992312D01*
X118472905Y-126160299D01*
X118752257Y-126276011D01*
X119048816Y-126335000D01*
X119351184Y-126335000D01*
X119647743Y-126276011D01*
X119927095Y-126160299D01*
X120178505Y-125992312D01*
X120392312Y-125778505D01*
X120538313Y-125560000D01*
X122005641Y-125560000D01*
X122042963Y-125563676D01*
X122080285Y-125560000D01*
X122080296Y-125560000D01*
X122191949Y-125549003D01*
X122335210Y-125505546D01*
X122467239Y-125434974D01*
X122582964Y-125340001D01*
X122606767Y-125310997D01*
X130686003Y-117231762D01*
X130715001Y-117207964D01*
X130796291Y-117108912D01*
X130809974Y-117092240D01*
X130880546Y-116960210D01*
X130924003Y-116816949D01*
X130935000Y-116705296D01*
X130935000Y-116705286D01*
X130938676Y-116667964D01*
X130935000Y-116630641D01*
X130935000Y-94652333D01*
X130938677Y-94615000D01*
X130935000Y-94577667D01*
X130935000Y-69887324D01*
X130938676Y-69850001D01*
X130935000Y-69812678D01*
X130935000Y-51472333D01*
X130938677Y-51435000D01*
X130924003Y-51286014D01*
X130880546Y-51142753D01*
X130809974Y-51010724D01*
X130738799Y-50923997D01*
X130715001Y-50894999D01*
X130686004Y-50871202D01*
X125023804Y-45209003D01*
X125000001Y-45179999D01*
X124971003Y-45156201D01*
X122714802Y-42900000D01*
X124535348Y-42900000D01*
X124573867Y-43291088D01*
X124687943Y-43667147D01*
X124873193Y-44013725D01*
X125122497Y-44317503D01*
X125426275Y-44566807D01*
X125772853Y-44752057D01*
X126148912Y-44866133D01*
X126442002Y-44895000D01*
X127157998Y-44895000D01*
X127451088Y-44866133D01*
X127827147Y-44752057D01*
X128173725Y-44566807D01*
X128477503Y-44317503D01*
X128726807Y-44013725D01*
X128912057Y-43667147D01*
X129026133Y-43291088D01*
X129064652Y-42900000D01*
X129026133Y-42508912D01*
X128912057Y-42132853D01*
X128726807Y-41786275D01*
X128477503Y-41482497D01*
X128173725Y-41233193D01*
X127827147Y-41047943D01*
X127451088Y-40933867D01*
X127157998Y-40905000D01*
X126442002Y-40905000D01*
X126148912Y-40933867D01*
X125772853Y-41047943D01*
X125426275Y-41233193D01*
X125122497Y-41482497D01*
X124873193Y-41786275D01*
X124687943Y-42132853D01*
X124573867Y-42508912D01*
X124535348Y-42900000D01*
X122714802Y-42900000D01*
X117744999Y-37930198D01*
X117744999Y-36931544D01*
X118013740Y-36985000D01*
X118306260Y-36985000D01*
X118593158Y-36927932D01*
X118863411Y-36815990D01*
X119106632Y-36653475D01*
X119313475Y-36446632D01*
X119430000Y-36272240D01*
X119546525Y-36446632D01*
X119753368Y-36653475D01*
X119996589Y-36815990D01*
X120266842Y-36927932D01*
X120553740Y-36985000D01*
X120846260Y-36985000D01*
X121133158Y-36927932D01*
X121403411Y-36815990D01*
X121646632Y-36653475D01*
X121853475Y-36446632D01*
X121975195Y-36264466D01*
X122044822Y-36381355D01*
X122239731Y-36597588D01*
X122473080Y-36771641D01*
X122735901Y-36896825D01*
X122883110Y-36941476D01*
X123113000Y-36820155D01*
X123113000Y-35627000D01*
X123367000Y-35627000D01*
X123367000Y-36820155D01*
X123596890Y-36941476D01*
X123744099Y-36896825D01*
X124006920Y-36771641D01*
X124240269Y-36597588D01*
X124435178Y-36381355D01*
X124510000Y-36255745D01*
X124584822Y-36381355D01*
X124779731Y-36597588D01*
X125013080Y-36771641D01*
X125275901Y-36896825D01*
X125423110Y-36941476D01*
X125653000Y-36820155D01*
X125653000Y-35627000D01*
X125907000Y-35627000D01*
X125907000Y-36820155D01*
X126136890Y-36941476D01*
X126284099Y-36896825D01*
X126546920Y-36771641D01*
X126780269Y-36597588D01*
X126975178Y-36381355D01*
X127124157Y-36131252D01*
X127221481Y-35856891D01*
X127100814Y-35627000D01*
X125907000Y-35627000D01*
X125653000Y-35627000D01*
X123367000Y-35627000D01*
X123113000Y-35627000D01*
X123093000Y-35627000D01*
X123093000Y-35373000D01*
X123113000Y-35373000D01*
X123113000Y-34179845D01*
X123367000Y-34179845D01*
X123367000Y-35373000D01*
X125653000Y-35373000D01*
X125653000Y-34179845D01*
X125907000Y-34179845D01*
X125907000Y-35373000D01*
X127100814Y-35373000D01*
X127221481Y-35143109D01*
X127124157Y-34868748D01*
X126975178Y-34618645D01*
X126780269Y-34402412D01*
X126546920Y-34228359D01*
X126284099Y-34103175D01*
X126136890Y-34058524D01*
X125907000Y-34179845D01*
X125653000Y-34179845D01*
X125423110Y-34058524D01*
X125275901Y-34103175D01*
X125013080Y-34228359D01*
X124779731Y-34402412D01*
X124584822Y-34618645D01*
X124510000Y-34744255D01*
X124435178Y-34618645D01*
X124240269Y-34402412D01*
X124006920Y-34228359D01*
X123744099Y-34103175D01*
X123596890Y-34058524D01*
X123367000Y-34179845D01*
X123113000Y-34179845D01*
X122883110Y-34058524D01*
X122735901Y-34103175D01*
X122473080Y-34228359D01*
X122239731Y-34402412D01*
X122044822Y-34618645D01*
X121975195Y-34735534D01*
X121853475Y-34553368D01*
X121646632Y-34346525D01*
X121403411Y-34184010D01*
X121133158Y-34072068D01*
X120846260Y-34015000D01*
X120553740Y-34015000D01*
X120266842Y-34072068D01*
X119996589Y-34184010D01*
X119753368Y-34346525D01*
X119546525Y-34553368D01*
X119430000Y-34727760D01*
X119313475Y-34553368D01*
X119106632Y-34346525D01*
X118863411Y-34184010D01*
X118593158Y-34072068D01*
X118306260Y-34015000D01*
X118013740Y-34015000D01*
X117726842Y-34072068D01*
X117456589Y-34184010D01*
X117213368Y-34346525D01*
X117006525Y-34553368D01*
X116890000Y-34727760D01*
X116773475Y-34553368D01*
X116566632Y-34346525D01*
X116323411Y-34184010D01*
X116053158Y-34072068D01*
X115766260Y-34015000D01*
X115473740Y-34015000D01*
X115186842Y-34072068D01*
X114916589Y-34184010D01*
X114673368Y-34346525D01*
X114466525Y-34553368D01*
X114350000Y-34727760D01*
X114233475Y-34553368D01*
X114026632Y-34346525D01*
X113840000Y-34221822D01*
X113840000Y-30834801D01*
X120058876Y-24615926D01*
X120104128Y-24634670D01*
X120432565Y-24700000D01*
X120767435Y-24700000D01*
X121095872Y-24634670D01*
X121405252Y-24506521D01*
X121683687Y-24320477D01*
X121920477Y-24083687D01*
X122106521Y-23805252D01*
X122234670Y-23495872D01*
X122300000Y-23167435D01*
X122300000Y-22832565D01*
X127200000Y-22832565D01*
X127200000Y-23167435D01*
X127265330Y-23495872D01*
X127393479Y-23805252D01*
X127579523Y-24083687D01*
X127816313Y-24320477D01*
X128094748Y-24506521D01*
X128404128Y-24634670D01*
X128732565Y-24700000D01*
X129067435Y-24700000D01*
X129395872Y-24634670D01*
X129705252Y-24506521D01*
X129983687Y-24320477D01*
X130220477Y-24083687D01*
X130406521Y-23805252D01*
X130448105Y-23704860D01*
X130446928Y-23965000D01*
X130459188Y-24089482D01*
X130495498Y-24209180D01*
X130554463Y-24319494D01*
X130633815Y-24416185D01*
X130730506Y-24495537D01*
X130840820Y-24554502D01*
X130960518Y-24590812D01*
X131085000Y-24603072D01*
X131714250Y-24600000D01*
X131873000Y-24441250D01*
X131873000Y-23127000D01*
X131853000Y-23127000D01*
X131853000Y-22873000D01*
X131873000Y-22873000D01*
X131873000Y-21558750D01*
X131714250Y-21400000D01*
X131085000Y-21396928D01*
X130960518Y-21409188D01*
X130840820Y-21445498D01*
X130730506Y-21504463D01*
X130633815Y-21583815D01*
X130554463Y-21680506D01*
X130495498Y-21790820D01*
X130459188Y-21910518D01*
X130446928Y-22035000D01*
X130448105Y-22295140D01*
X130406521Y-22194748D01*
X130220477Y-21916313D01*
X129983687Y-21679523D01*
X129705252Y-21493479D01*
X129395872Y-21365330D01*
X129067435Y-21300000D01*
X128732565Y-21300000D01*
X128404128Y-21365330D01*
X128094748Y-21493479D01*
X127816313Y-21679523D01*
X127579523Y-21916313D01*
X127393479Y-22194748D01*
X127265330Y-22504128D01*
X127200000Y-22832565D01*
X122300000Y-22832565D01*
X122234670Y-22504128D01*
X122106521Y-22194748D01*
X121920477Y-21916313D01*
X121683687Y-21679523D01*
X121405252Y-21493479D01*
X121095872Y-21365330D01*
X120767435Y-21300000D01*
X120432565Y-21300000D01*
X120104128Y-21365330D01*
X119794748Y-21493479D01*
X119516313Y-21679523D01*
X119279523Y-21916313D01*
X119093479Y-22194748D01*
X118965330Y-22504128D01*
X118900000Y-22832565D01*
X118900000Y-23167435D01*
X118965330Y-23495872D01*
X118984074Y-23541124D01*
X112568998Y-29956201D01*
X112540000Y-29979999D01*
X112516202Y-30008997D01*
X112516201Y-30008998D01*
X112445026Y-30095724D01*
X112374454Y-30227754D01*
X112330998Y-30371015D01*
X112316324Y-30520000D01*
X112320001Y-30557332D01*
X112320000Y-34221821D01*
X112133368Y-34346525D01*
X111926525Y-34553368D01*
X111810000Y-34727760D01*
X111693475Y-34553368D01*
X111486632Y-34346525D01*
X111300000Y-34221822D01*
X111300000Y-31727323D01*
X111303676Y-31690000D01*
X111300000Y-31652677D01*
X111300000Y-31652667D01*
X111289003Y-31541014D01*
X111245546Y-31397753D01*
X111174974Y-31265724D01*
X111080001Y-31149999D01*
X111051003Y-31126201D01*
X103465926Y-23541125D01*
X103484670Y-23495872D01*
X103550000Y-23167435D01*
X103550000Y-22832565D01*
X108450000Y-22832565D01*
X108450000Y-23167435D01*
X108515330Y-23495872D01*
X108643479Y-23805252D01*
X108829523Y-24083687D01*
X109066313Y-24320477D01*
X109344748Y-24506521D01*
X109654128Y-24634670D01*
X109982565Y-24700000D01*
X110317435Y-24700000D01*
X110645872Y-24634670D01*
X110955252Y-24506521D01*
X111233687Y-24320477D01*
X111470477Y-24083687D01*
X111656521Y-23805252D01*
X111698105Y-23704860D01*
X111696928Y-23965000D01*
X111709188Y-24089482D01*
X111745498Y-24209180D01*
X111804463Y-24319494D01*
X111883815Y-24416185D01*
X111980506Y-24495537D01*
X112090820Y-24554502D01*
X112210518Y-24590812D01*
X112335000Y-24603072D01*
X112964250Y-24600000D01*
X113123000Y-24441250D01*
X113123000Y-23127000D01*
X113377000Y-23127000D01*
X113377000Y-24441250D01*
X113535750Y-24600000D01*
X114165000Y-24603072D01*
X114289482Y-24590812D01*
X114409180Y-24554502D01*
X114519494Y-24495537D01*
X114616185Y-24416185D01*
X114695537Y-24319494D01*
X114754502Y-24209180D01*
X114790812Y-24089482D01*
X114803072Y-23965000D01*
X114800000Y-23285750D01*
X114641250Y-23127000D01*
X113377000Y-23127000D01*
X113123000Y-23127000D01*
X113103000Y-23127000D01*
X113103000Y-22873000D01*
X113123000Y-22873000D01*
X113123000Y-21558750D01*
X113377000Y-21558750D01*
X113377000Y-22873000D01*
X114641250Y-22873000D01*
X114800000Y-22714250D01*
X114803072Y-22035000D01*
X114790812Y-21910518D01*
X114754502Y-21790820D01*
X114695537Y-21680506D01*
X114616185Y-21583815D01*
X114519494Y-21504463D01*
X114409180Y-21445498D01*
X114289482Y-21409188D01*
X114165000Y-21396928D01*
X113535750Y-21400000D01*
X113377000Y-21558750D01*
X113123000Y-21558750D01*
X112964250Y-21400000D01*
X112335000Y-21396928D01*
X112210518Y-21409188D01*
X112090820Y-21445498D01*
X111980506Y-21504463D01*
X111883815Y-21583815D01*
X111804463Y-21680506D01*
X111745498Y-21790820D01*
X111709188Y-21910518D01*
X111696928Y-22035000D01*
X111698105Y-22295140D01*
X111656521Y-22194748D01*
X111470477Y-21916313D01*
X111233687Y-21679523D01*
X110955252Y-21493479D01*
X110645872Y-21365330D01*
X110317435Y-21300000D01*
X109982565Y-21300000D01*
X109654128Y-21365330D01*
X109344748Y-21493479D01*
X109066313Y-21679523D01*
X108829523Y-21916313D01*
X108643479Y-22194748D01*
X108515330Y-22504128D01*
X108450000Y-22832565D01*
X103550000Y-22832565D01*
X103484670Y-22504128D01*
X103356521Y-22194748D01*
X103170477Y-21916313D01*
X102933687Y-21679523D01*
X102655252Y-21493479D01*
X102345872Y-21365330D01*
X102017435Y-21300000D01*
X101682565Y-21300000D01*
X101354128Y-21365330D01*
X101044748Y-21493479D01*
X100766313Y-21679523D01*
X100529523Y-21916313D01*
X100457000Y-22024852D01*
X100457000Y-18542000D01*
X132588000Y-18542000D01*
X132588000Y-21398524D01*
G37*
X132588000Y-21398524D02*
X132285750Y-21400000D01*
X132127000Y-21558750D01*
X132127000Y-22873000D01*
X132147000Y-22873000D01*
X132147000Y-23127000D01*
X132127000Y-23127000D01*
X132127000Y-24441250D01*
X132285750Y-24600000D01*
X132588000Y-24601476D01*
X132588000Y-128143000D01*
X128664610Y-128143000D01*
X128812057Y-127867147D01*
X128926133Y-127491088D01*
X128964652Y-127100000D01*
X128926133Y-126708912D01*
X128812057Y-126332853D01*
X128626807Y-125986275D01*
X128377503Y-125682497D01*
X128073725Y-125433193D01*
X127727147Y-125247943D01*
X127351088Y-125133867D01*
X127057998Y-125105000D01*
X126342002Y-125105000D01*
X126048912Y-125133867D01*
X125672853Y-125247943D01*
X125326275Y-125433193D01*
X125022497Y-125682497D01*
X124773193Y-125986275D01*
X124587943Y-126332853D01*
X124473867Y-126708912D01*
X124435348Y-127100000D01*
X124473867Y-127491088D01*
X124587943Y-127867147D01*
X124735390Y-128143000D01*
X100457000Y-128143000D01*
X100457000Y-123861164D01*
X100616313Y-124020477D01*
X100894748Y-124206521D01*
X101204128Y-124334670D01*
X101532565Y-124400000D01*
X101867435Y-124400000D01*
X102195872Y-124334670D01*
X102505252Y-124206521D01*
X102783687Y-124020477D01*
X103020477Y-123783687D01*
X103206521Y-123505252D01*
X103334670Y-123195872D01*
X103400000Y-122867435D01*
X103400000Y-122532565D01*
X108300000Y-122532565D01*
X108300000Y-122867435D01*
X108365330Y-123195872D01*
X108493479Y-123505252D01*
X108679523Y-123783687D01*
X108916313Y-124020477D01*
X109194748Y-124206521D01*
X109504128Y-124334670D01*
X109832565Y-124400000D01*
X110167435Y-124400000D01*
X110495872Y-124334670D01*
X110805252Y-124206521D01*
X111083687Y-124020477D01*
X111320477Y-123783687D01*
X111506521Y-123505252D01*
X111546928Y-123407701D01*
X111546928Y-123665000D01*
X111559188Y-123789482D01*
X111595498Y-123909180D01*
X111654463Y-124019494D01*
X111733815Y-124116185D01*
X111830506Y-124195537D01*
X111940820Y-124254502D01*
X112060518Y-124290812D01*
X112185000Y-124303072D01*
X114015000Y-124303072D01*
X114139482Y-124290812D01*
X114259180Y-124254502D01*
X114369494Y-124195537D01*
X114466185Y-124116185D01*
X114545537Y-124019494D01*
X114604502Y-123909180D01*
X114640812Y-123789482D01*
X114653072Y-123665000D01*
X114653072Y-121735000D01*
X114640812Y-121610518D01*
X114604502Y-121490820D01*
X114545537Y-121380506D01*
X114466185Y-121283815D01*
X114369494Y-121204463D01*
X114259180Y-121145498D01*
X114139482Y-121109188D01*
X114015000Y-121096928D01*
X112185000Y-121096928D01*
X112060518Y-121109188D01*
X111940820Y-121145498D01*
X111830506Y-121204463D01*
X111733815Y-121283815D01*
X111654463Y-121380506D01*
X111595498Y-121490820D01*
X111559188Y-121610518D01*
X111546928Y-121735000D01*
X111546928Y-121992299D01*
X111506521Y-121894748D01*
X111320477Y-121616313D01*
X111083687Y-121379523D01*
X110805252Y-121193479D01*
X110495872Y-121065330D01*
X110167435Y-121000000D01*
X109832565Y-121000000D01*
X109504128Y-121065330D01*
X109194748Y-121193479D01*
X108916313Y-121379523D01*
X108679523Y-121616313D01*
X108493479Y-121894748D01*
X108365330Y-122204128D01*
X108300000Y-122532565D01*
X103400000Y-122532565D01*
X103334670Y-122204128D01*
X103206521Y-121894748D01*
X103020477Y-121616313D01*
X102783687Y-121379523D01*
X102505252Y-121193479D01*
X102195872Y-121065330D01*
X101867435Y-121000000D01*
X101532565Y-121000000D01*
X101204128Y-121065330D01*
X100894748Y-121193479D01*
X100616313Y-121379523D01*
X100457000Y-121538836D01*
X100457000Y-118900000D01*
X117661928Y-118900000D01*
X117665000Y-119514250D01*
X117823750Y-119673000D01*
X119073000Y-119673000D01*
X119073000Y-118423750D01*
X119327000Y-118423750D01*
X119327000Y-119673000D01*
X120576250Y-119673000D01*
X120735000Y-119514250D01*
X120738072Y-118900000D01*
X120725812Y-118775518D01*
X120689502Y-118655820D01*
X120630537Y-118545506D01*
X120551185Y-118448815D01*
X120454494Y-118369463D01*
X120344180Y-118310498D01*
X120224482Y-118274188D01*
X120100000Y-118261928D01*
X119485750Y-118265000D01*
X119327000Y-118423750D01*
X119073000Y-118423750D01*
X118914250Y-118265000D01*
X118300000Y-118261928D01*
X118175518Y-118274188D01*
X118055820Y-118310498D01*
X117945506Y-118369463D01*
X117848815Y-118448815D01*
X117769463Y-118545506D01*
X117710498Y-118655820D01*
X117674188Y-118775518D01*
X117661928Y-118900000D01*
X100457000Y-118900000D01*
X100457000Y-99061164D01*
X100616313Y-99220477D01*
X100894748Y-99406521D01*
X100940000Y-99425265D01*
X100940001Y-109917668D01*
X100936324Y-109955000D01*
X100950998Y-110103985D01*
X100994454Y-110247246D01*
X101065026Y-110379276D01*
X101136201Y-110466002D01*
X101160000Y-110495001D01*
X101188998Y-110518799D01*
X105481201Y-114811003D01*
X105504999Y-114840001D01*
X105533997Y-114863799D01*
X105620723Y-114934974D01*
X105752753Y-115005546D01*
X105896014Y-115049003D01*
X106007667Y-115060000D01*
X106007677Y-115060000D01*
X106045000Y-115063676D01*
X106082323Y-115060000D01*
X114262678Y-115060000D01*
X114300000Y-115063676D01*
X114337322Y-115060000D01*
X114337333Y-115060000D01*
X114448986Y-115049003D01*
X114592247Y-115005546D01*
X114724276Y-114934974D01*
X114840001Y-114840001D01*
X114863804Y-114810997D01*
X118671004Y-111003798D01*
X118700001Y-110980001D01*
X118794974Y-110864276D01*
X118808662Y-110838668D01*
X118863411Y-110815990D01*
X119106632Y-110653475D01*
X119313475Y-110446632D01*
X119430000Y-110272240D01*
X119546525Y-110446632D01*
X119753368Y-110653475D01*
X119996589Y-110815990D01*
X120266842Y-110927932D01*
X120553740Y-110985000D01*
X120846260Y-110985000D01*
X121133158Y-110927932D01*
X121403411Y-110815990D01*
X121646632Y-110653475D01*
X121853475Y-110446632D01*
X121970000Y-110272240D01*
X122086525Y-110446632D01*
X122293368Y-110653475D01*
X122536589Y-110815990D01*
X122806842Y-110927932D01*
X123093740Y-110985000D01*
X123386260Y-110985000D01*
X123673158Y-110927932D01*
X123943411Y-110815990D01*
X124186632Y-110653475D01*
X124393475Y-110446632D01*
X124515195Y-110264466D01*
X124584822Y-110381355D01*
X124779731Y-110597588D01*
X125013080Y-110771641D01*
X125275901Y-110896825D01*
X125423110Y-110941476D01*
X125653000Y-110820155D01*
X125653000Y-109627000D01*
X125907000Y-109627000D01*
X125907000Y-110820155D01*
X126136890Y-110941476D01*
X126284099Y-110896825D01*
X126546920Y-110771641D01*
X126780269Y-110597588D01*
X126975178Y-110381355D01*
X127124157Y-110131252D01*
X127221481Y-109856891D01*
X127100814Y-109627000D01*
X125907000Y-109627000D01*
X125653000Y-109627000D01*
X125633000Y-109627000D01*
X125633000Y-109373000D01*
X125653000Y-109373000D01*
X125653000Y-108179845D01*
X125907000Y-108179845D01*
X125907000Y-109373000D01*
X127100814Y-109373000D01*
X127221481Y-109143109D01*
X127124157Y-108868748D01*
X126975178Y-108618645D01*
X126780269Y-108402412D01*
X126546920Y-108228359D01*
X126284099Y-108103175D01*
X126136890Y-108058524D01*
X125907000Y-108179845D01*
X125653000Y-108179845D01*
X125423110Y-108058524D01*
X125275901Y-108103175D01*
X125013080Y-108228359D01*
X124779731Y-108402412D01*
X124584822Y-108618645D01*
X124515195Y-108735534D01*
X124393475Y-108553368D01*
X124186632Y-108346525D01*
X123943411Y-108184010D01*
X123673158Y-108072068D01*
X123386260Y-108015000D01*
X123093740Y-108015000D01*
X122806842Y-108072068D01*
X122536589Y-108184010D01*
X122293368Y-108346525D01*
X122086525Y-108553368D01*
X121970000Y-108727760D01*
X121853475Y-108553368D01*
X121646632Y-108346525D01*
X121460000Y-108221822D01*
X121460000Y-108037325D01*
X121463676Y-108000000D01*
X121460000Y-107962675D01*
X121460000Y-107962667D01*
X121449003Y-107851014D01*
X121405546Y-107707753D01*
X121334974Y-107575724D01*
X121240001Y-107459999D01*
X121211003Y-107436201D01*
X118934999Y-105160198D01*
X118934999Y-101068862D01*
X118952257Y-101076011D01*
X119248816Y-101135000D01*
X119551184Y-101135000D01*
X119847743Y-101076011D01*
X120127095Y-100960299D01*
X120378505Y-100792312D01*
X120592312Y-100578505D01*
X120738313Y-100360000D01*
X125152678Y-100360000D01*
X125190000Y-100363676D01*
X125227322Y-100360000D01*
X125227333Y-100360000D01*
X125338986Y-100349003D01*
X125412234Y-100326784D01*
X125222497Y-100482497D01*
X124973193Y-100786275D01*
X124787943Y-101132853D01*
X124673867Y-101508912D01*
X124635348Y-101900000D01*
X124673867Y-102291088D01*
X124787943Y-102667147D01*
X124973193Y-103013725D01*
X125222497Y-103317503D01*
X125526275Y-103566807D01*
X125872853Y-103752057D01*
X126248912Y-103866133D01*
X126542002Y-103895000D01*
X127257998Y-103895000D01*
X127551088Y-103866133D01*
X127927147Y-103752057D01*
X128273725Y-103566807D01*
X128577503Y-103317503D01*
X128826807Y-103013725D01*
X129012057Y-102667147D01*
X129126133Y-102291088D01*
X129164652Y-101900000D01*
X129126133Y-101508912D01*
X129012057Y-101132853D01*
X128826807Y-100786275D01*
X128577503Y-100482497D01*
X128273725Y-100233193D01*
X127927147Y-100047943D01*
X127551088Y-99933867D01*
X127257998Y-99905000D01*
X126542002Y-99905000D01*
X126248912Y-99933867D01*
X125872853Y-100047943D01*
X125752957Y-100112029D01*
X125753804Y-100110997D01*
X129415000Y-96449802D01*
X129415001Y-116353160D01*
X128864017Y-116904144D01*
X128812057Y-116732853D01*
X128626807Y-116386275D01*
X128377503Y-116082497D01*
X128073725Y-115833193D01*
X127727147Y-115647943D01*
X127351088Y-115533867D01*
X127057998Y-115505000D01*
X126342002Y-115505000D01*
X126048912Y-115533867D01*
X125672853Y-115647943D01*
X125326275Y-115833193D01*
X125022497Y-116082497D01*
X124773193Y-116386275D01*
X124587943Y-116732853D01*
X124473867Y-117108912D01*
X124435348Y-117500000D01*
X124473867Y-117891088D01*
X124587943Y-118267147D01*
X124773193Y-118613725D01*
X125022497Y-118917503D01*
X125326275Y-119166807D01*
X125672853Y-119352057D01*
X126048912Y-119466133D01*
X126279334Y-119488828D01*
X121728162Y-124040000D01*
X120538313Y-124040000D01*
X120392312Y-123821495D01*
X120178505Y-123607688D01*
X120092169Y-123550000D01*
X120178505Y-123492312D01*
X120392312Y-123278505D01*
X120560299Y-123027095D01*
X120676011Y-122747743D01*
X120735000Y-122451184D01*
X120735000Y-122148816D01*
X120676011Y-121852257D01*
X120560299Y-121572905D01*
X120392312Y-121321495D01*
X120354697Y-121283880D01*
X120454494Y-121230537D01*
X120551185Y-121151185D01*
X120630537Y-121054494D01*
X120689502Y-120944180D01*
X120725812Y-120824482D01*
X120738072Y-120700000D01*
X120735000Y-120085750D01*
X120576250Y-119927000D01*
X119327000Y-119927000D01*
X119327000Y-119947000D01*
X119073000Y-119947000D01*
X119073000Y-119927000D01*
X117823750Y-119927000D01*
X117665000Y-120085750D01*
X117661928Y-120700000D01*
X117674188Y-120824482D01*
X117710498Y-120944180D01*
X117769463Y-121054494D01*
X117848815Y-121151185D01*
X117945506Y-121230537D01*
X118045303Y-121283880D01*
X118007688Y-121321495D01*
X117839701Y-121572905D01*
X117723989Y-121852257D01*
X117665000Y-122148816D01*
X117665000Y-122451184D01*
X117723989Y-122747743D01*
X117839701Y-123027095D01*
X118007688Y-123278505D01*
X118221495Y-123492312D01*
X118307831Y-123550000D01*
X118221495Y-123607688D01*
X118007688Y-123821495D01*
X117839701Y-124072905D01*
X117723989Y-124352257D01*
X117665000Y-124648816D01*
X117665000Y-124951184D01*
X117723989Y-125247743D01*
X117839701Y-125527095D01*
X118007688Y-125778505D01*
X118221495Y-125992312D01*
X118472905Y-126160299D01*
X118752257Y-126276011D01*
X119048816Y-126335000D01*
X119351184Y-126335000D01*
X119647743Y-126276011D01*
X119927095Y-126160299D01*
X120178505Y-125992312D01*
X120392312Y-125778505D01*
X120538313Y-125560000D01*
X122005641Y-125560000D01*
X122042963Y-125563676D01*
X122080285Y-125560000D01*
X122080296Y-125560000D01*
X122191949Y-125549003D01*
X122335210Y-125505546D01*
X122467239Y-125434974D01*
X122582964Y-125340001D01*
X122606767Y-125310997D01*
X130686003Y-117231762D01*
X130715001Y-117207964D01*
X130796291Y-117108912D01*
X130809974Y-117092240D01*
X130880546Y-116960210D01*
X130924003Y-116816949D01*
X130935000Y-116705296D01*
X130935000Y-116705286D01*
X130938676Y-116667964D01*
X130935000Y-116630641D01*
X130935000Y-94652333D01*
X130938677Y-94615000D01*
X130935000Y-94577667D01*
X130935000Y-69887324D01*
X130938676Y-69850001D01*
X130935000Y-69812678D01*
X130935000Y-51472333D01*
X130938677Y-51435000D01*
X130924003Y-51286014D01*
X130880546Y-51142753D01*
X130809974Y-51010724D01*
X130738799Y-50923997D01*
X130715001Y-50894999D01*
X130686004Y-50871202D01*
X125023804Y-45209003D01*
X125000001Y-45179999D01*
X124971003Y-45156201D01*
X122714802Y-42900000D01*
X124535348Y-42900000D01*
X124573867Y-43291088D01*
X124687943Y-43667147D01*
X124873193Y-44013725D01*
X125122497Y-44317503D01*
X125426275Y-44566807D01*
X125772853Y-44752057D01*
X126148912Y-44866133D01*
X126442002Y-44895000D01*
X127157998Y-44895000D01*
X127451088Y-44866133D01*
X127827147Y-44752057D01*
X128173725Y-44566807D01*
X128477503Y-44317503D01*
X128726807Y-44013725D01*
X128912057Y-43667147D01*
X129026133Y-43291088D01*
X129064652Y-42900000D01*
X129026133Y-42508912D01*
X128912057Y-42132853D01*
X128726807Y-41786275D01*
X128477503Y-41482497D01*
X128173725Y-41233193D01*
X127827147Y-41047943D01*
X127451088Y-40933867D01*
X127157998Y-40905000D01*
X126442002Y-40905000D01*
X126148912Y-40933867D01*
X125772853Y-41047943D01*
X125426275Y-41233193D01*
X125122497Y-41482497D01*
X124873193Y-41786275D01*
X124687943Y-42132853D01*
X124573867Y-42508912D01*
X124535348Y-42900000D01*
X122714802Y-42900000D01*
X117744999Y-37930198D01*
X117744999Y-36931544D01*
X118013740Y-36985000D01*
X118306260Y-36985000D01*
X118593158Y-36927932D01*
X118863411Y-36815990D01*
X119106632Y-36653475D01*
X119313475Y-36446632D01*
X119430000Y-36272240D01*
X119546525Y-36446632D01*
X119753368Y-36653475D01*
X119996589Y-36815990D01*
X120266842Y-36927932D01*
X120553740Y-36985000D01*
X120846260Y-36985000D01*
X121133158Y-36927932D01*
X121403411Y-36815990D01*
X121646632Y-36653475D01*
X121853475Y-36446632D01*
X121975195Y-36264466D01*
X122044822Y-36381355D01*
X122239731Y-36597588D01*
X122473080Y-36771641D01*
X122735901Y-36896825D01*
X122883110Y-36941476D01*
X123113000Y-36820155D01*
X123113000Y-35627000D01*
X123367000Y-35627000D01*
X123367000Y-36820155D01*
X123596890Y-36941476D01*
X123744099Y-36896825D01*
X124006920Y-36771641D01*
X124240269Y-36597588D01*
X124435178Y-36381355D01*
X124510000Y-36255745D01*
X124584822Y-36381355D01*
X124779731Y-36597588D01*
X125013080Y-36771641D01*
X125275901Y-36896825D01*
X125423110Y-36941476D01*
X125653000Y-36820155D01*
X125653000Y-35627000D01*
X125907000Y-35627000D01*
X125907000Y-36820155D01*
X126136890Y-36941476D01*
X126284099Y-36896825D01*
X126546920Y-36771641D01*
X126780269Y-36597588D01*
X126975178Y-36381355D01*
X127124157Y-36131252D01*
X127221481Y-35856891D01*
X127100814Y-35627000D01*
X125907000Y-35627000D01*
X125653000Y-35627000D01*
X123367000Y-35627000D01*
X123113000Y-35627000D01*
X123093000Y-35627000D01*
X123093000Y-35373000D01*
X123113000Y-35373000D01*
X123113000Y-34179845D01*
X123367000Y-34179845D01*
X123367000Y-35373000D01*
X125653000Y-35373000D01*
X125653000Y-34179845D01*
X125907000Y-34179845D01*
X125907000Y-35373000D01*
X127100814Y-35373000D01*
X127221481Y-35143109D01*
X127124157Y-34868748D01*
X126975178Y-34618645D01*
X126780269Y-34402412D01*
X126546920Y-34228359D01*
X126284099Y-34103175D01*
X126136890Y-34058524D01*
X125907000Y-34179845D01*
X125653000Y-34179845D01*
X125423110Y-34058524D01*
X125275901Y-34103175D01*
X125013080Y-34228359D01*
X124779731Y-34402412D01*
X124584822Y-34618645D01*
X124510000Y-34744255D01*
X124435178Y-34618645D01*
X124240269Y-34402412D01*
X124006920Y-34228359D01*
X123744099Y-34103175D01*
X123596890Y-34058524D01*
X123367000Y-34179845D01*
X123113000Y-34179845D01*
X122883110Y-34058524D01*
X122735901Y-34103175D01*
X122473080Y-34228359D01*
X122239731Y-34402412D01*
X122044822Y-34618645D01*
X121975195Y-34735534D01*
X121853475Y-34553368D01*
X121646632Y-34346525D01*
X121403411Y-34184010D01*
X121133158Y-34072068D01*
X120846260Y-34015000D01*
X120553740Y-34015000D01*
X120266842Y-34072068D01*
X119996589Y-34184010D01*
X119753368Y-34346525D01*
X119546525Y-34553368D01*
X119430000Y-34727760D01*
X119313475Y-34553368D01*
X119106632Y-34346525D01*
X118863411Y-34184010D01*
X118593158Y-34072068D01*
X118306260Y-34015000D01*
X118013740Y-34015000D01*
X117726842Y-34072068D01*
X117456589Y-34184010D01*
X117213368Y-34346525D01*
X117006525Y-34553368D01*
X116890000Y-34727760D01*
X116773475Y-34553368D01*
X116566632Y-34346525D01*
X116323411Y-34184010D01*
X116053158Y-34072068D01*
X115766260Y-34015000D01*
X115473740Y-34015000D01*
X115186842Y-34072068D01*
X114916589Y-34184010D01*
X114673368Y-34346525D01*
X114466525Y-34553368D01*
X114350000Y-34727760D01*
X114233475Y-34553368D01*
X114026632Y-34346525D01*
X113840000Y-34221822D01*
X113840000Y-30834801D01*
X120058876Y-24615926D01*
X120104128Y-24634670D01*
X120432565Y-24700000D01*
X120767435Y-24700000D01*
X121095872Y-24634670D01*
X121405252Y-24506521D01*
X121683687Y-24320477D01*
X121920477Y-24083687D01*
X122106521Y-23805252D01*
X122234670Y-23495872D01*
X122300000Y-23167435D01*
X122300000Y-22832565D01*
X127200000Y-22832565D01*
X127200000Y-23167435D01*
X127265330Y-23495872D01*
X127393479Y-23805252D01*
X127579523Y-24083687D01*
X127816313Y-24320477D01*
X128094748Y-24506521D01*
X128404128Y-24634670D01*
X128732565Y-24700000D01*
X129067435Y-24700000D01*
X129395872Y-24634670D01*
X129705252Y-24506521D01*
X129983687Y-24320477D01*
X130220477Y-24083687D01*
X130406521Y-23805252D01*
X130448105Y-23704860D01*
X130446928Y-23965000D01*
X130459188Y-24089482D01*
X130495498Y-24209180D01*
X130554463Y-24319494D01*
X130633815Y-24416185D01*
X130730506Y-24495537D01*
X130840820Y-24554502D01*
X130960518Y-24590812D01*
X131085000Y-24603072D01*
X131714250Y-24600000D01*
X131873000Y-24441250D01*
X131873000Y-23127000D01*
X131853000Y-23127000D01*
X131853000Y-22873000D01*
X131873000Y-22873000D01*
X131873000Y-21558750D01*
X131714250Y-21400000D01*
X131085000Y-21396928D01*
X130960518Y-21409188D01*
X130840820Y-21445498D01*
X130730506Y-21504463D01*
X130633815Y-21583815D01*
X130554463Y-21680506D01*
X130495498Y-21790820D01*
X130459188Y-21910518D01*
X130446928Y-22035000D01*
X130448105Y-22295140D01*
X130406521Y-22194748D01*
X130220477Y-21916313D01*
X129983687Y-21679523D01*
X129705252Y-21493479D01*
X129395872Y-21365330D01*
X129067435Y-21300000D01*
X128732565Y-21300000D01*
X128404128Y-21365330D01*
X128094748Y-21493479D01*
X127816313Y-21679523D01*
X127579523Y-21916313D01*
X127393479Y-22194748D01*
X127265330Y-22504128D01*
X127200000Y-22832565D01*
X122300000Y-22832565D01*
X122234670Y-22504128D01*
X122106521Y-22194748D01*
X121920477Y-21916313D01*
X121683687Y-21679523D01*
X121405252Y-21493479D01*
X121095872Y-21365330D01*
X120767435Y-21300000D01*
X120432565Y-21300000D01*
X120104128Y-21365330D01*
X119794748Y-21493479D01*
X119516313Y-21679523D01*
X119279523Y-21916313D01*
X119093479Y-22194748D01*
X118965330Y-22504128D01*
X118900000Y-22832565D01*
X118900000Y-23167435D01*
X118965330Y-23495872D01*
X118984074Y-23541124D01*
X112568998Y-29956201D01*
X112540000Y-29979999D01*
X112516202Y-30008997D01*
X112516201Y-30008998D01*
X112445026Y-30095724D01*
X112374454Y-30227754D01*
X112330998Y-30371015D01*
X112316324Y-30520000D01*
X112320001Y-30557332D01*
X112320000Y-34221821D01*
X112133368Y-34346525D01*
X111926525Y-34553368D01*
X111810000Y-34727760D01*
X111693475Y-34553368D01*
X111486632Y-34346525D01*
X111300000Y-34221822D01*
X111300000Y-31727323D01*
X111303676Y-31690000D01*
X111300000Y-31652677D01*
X111300000Y-31652667D01*
X111289003Y-31541014D01*
X111245546Y-31397753D01*
X111174974Y-31265724D01*
X111080001Y-31149999D01*
X111051003Y-31126201D01*
X103465926Y-23541125D01*
X103484670Y-23495872D01*
X103550000Y-23167435D01*
X103550000Y-22832565D01*
X108450000Y-22832565D01*
X108450000Y-23167435D01*
X108515330Y-23495872D01*
X108643479Y-23805252D01*
X108829523Y-24083687D01*
X109066313Y-24320477D01*
X109344748Y-24506521D01*
X109654128Y-24634670D01*
X109982565Y-24700000D01*
X110317435Y-24700000D01*
X110645872Y-24634670D01*
X110955252Y-24506521D01*
X111233687Y-24320477D01*
X111470477Y-24083687D01*
X111656521Y-23805252D01*
X111698105Y-23704860D01*
X111696928Y-23965000D01*
X111709188Y-24089482D01*
X111745498Y-24209180D01*
X111804463Y-24319494D01*
X111883815Y-24416185D01*
X111980506Y-24495537D01*
X112090820Y-24554502D01*
X112210518Y-24590812D01*
X112335000Y-24603072D01*
X112964250Y-24600000D01*
X113123000Y-24441250D01*
X113123000Y-23127000D01*
X113377000Y-23127000D01*
X113377000Y-24441250D01*
X113535750Y-24600000D01*
X114165000Y-24603072D01*
X114289482Y-24590812D01*
X114409180Y-24554502D01*
X114519494Y-24495537D01*
X114616185Y-24416185D01*
X114695537Y-24319494D01*
X114754502Y-24209180D01*
X114790812Y-24089482D01*
X114803072Y-23965000D01*
X114800000Y-23285750D01*
X114641250Y-23127000D01*
X113377000Y-23127000D01*
X113123000Y-23127000D01*
X113103000Y-23127000D01*
X113103000Y-22873000D01*
X113123000Y-22873000D01*
X113123000Y-21558750D01*
X113377000Y-21558750D01*
X113377000Y-22873000D01*
X114641250Y-22873000D01*
X114800000Y-22714250D01*
X114803072Y-22035000D01*
X114790812Y-21910518D01*
X114754502Y-21790820D01*
X114695537Y-21680506D01*
X114616185Y-21583815D01*
X114519494Y-21504463D01*
X114409180Y-21445498D01*
X114289482Y-21409188D01*
X114165000Y-21396928D01*
X113535750Y-21400000D01*
X113377000Y-21558750D01*
X113123000Y-21558750D01*
X112964250Y-21400000D01*
X112335000Y-21396928D01*
X112210518Y-21409188D01*
X112090820Y-21445498D01*
X111980506Y-21504463D01*
X111883815Y-21583815D01*
X111804463Y-21680506D01*
X111745498Y-21790820D01*
X111709188Y-21910518D01*
X111696928Y-22035000D01*
X111698105Y-22295140D01*
X111656521Y-22194748D01*
X111470477Y-21916313D01*
X111233687Y-21679523D01*
X110955252Y-21493479D01*
X110645872Y-21365330D01*
X110317435Y-21300000D01*
X109982565Y-21300000D01*
X109654128Y-21365330D01*
X109344748Y-21493479D01*
X109066313Y-21679523D01*
X108829523Y-21916313D01*
X108643479Y-22194748D01*
X108515330Y-22504128D01*
X108450000Y-22832565D01*
X103550000Y-22832565D01*
X103484670Y-22504128D01*
X103356521Y-22194748D01*
X103170477Y-21916313D01*
X102933687Y-21679523D01*
X102655252Y-21493479D01*
X102345872Y-21365330D01*
X102017435Y-21300000D01*
X101682565Y-21300000D01*
X101354128Y-21365330D01*
X101044748Y-21493479D01*
X100766313Y-21679523D01*
X100529523Y-21916313D01*
X100457000Y-22024852D01*
X100457000Y-18542000D01*
X132588000Y-18542000D01*
X132588000Y-21398524D01*
G36*
X100529523Y-24083687D02*
G01*
X100766313Y-24320477D01*
X101044748Y-24506521D01*
X101354128Y-24634670D01*
X101682565Y-24700000D01*
X102017435Y-24700000D01*
X102345872Y-24634670D01*
X102391125Y-24615926D01*
X109780001Y-32004803D01*
X109780000Y-34221821D01*
X109593368Y-34346525D01*
X109461513Y-34478380D01*
X109439502Y-34405820D01*
X109380537Y-34295506D01*
X109301185Y-34198815D01*
X109204494Y-34119463D01*
X109094180Y-34060498D01*
X108974482Y-34024188D01*
X108850000Y-34011928D01*
X108285750Y-34015000D01*
X108127000Y-34173750D01*
X108127000Y-35373000D01*
X108147000Y-35373000D01*
X108147000Y-35627000D01*
X108127000Y-35627000D01*
X108127000Y-36826250D01*
X108285750Y-36985000D01*
X108850000Y-36988072D01*
X108974482Y-36975812D01*
X109094180Y-36939502D01*
X109204494Y-36880537D01*
X109301185Y-36801185D01*
X109380537Y-36704494D01*
X109439502Y-36594180D01*
X109461513Y-36521620D01*
X109593368Y-36653475D01*
X109836589Y-36815990D01*
X110106842Y-36927932D01*
X110393740Y-36985000D01*
X110686260Y-36985000D01*
X110973158Y-36927932D01*
X111243411Y-36815990D01*
X111486632Y-36653475D01*
X111693475Y-36446632D01*
X111810000Y-36272240D01*
X111926525Y-36446632D01*
X112133368Y-36653475D01*
X112376589Y-36815990D01*
X112646842Y-36927932D01*
X112933740Y-36985000D01*
X113226260Y-36985000D01*
X113513158Y-36927932D01*
X113783411Y-36815990D01*
X114026632Y-36653475D01*
X114233475Y-36446632D01*
X114350000Y-36272240D01*
X114466525Y-36446632D01*
X114673368Y-36653475D01*
X114916589Y-36815990D01*
X115186842Y-36927932D01*
X115473740Y-36985000D01*
X115766260Y-36985000D01*
X115986408Y-36941210D01*
X116224999Y-37179801D01*
X116225000Y-38207667D01*
X116221323Y-38244999D01*
X116235997Y-38393984D01*
X116279453Y-38537245D01*
X116350025Y-38669275D01*
X116421200Y-38756001D01*
X116444999Y-38785000D01*
X116473997Y-38808798D01*
X123045198Y-45380000D01*
X120835000Y-47590199D01*
X120835000Y-47548816D01*
X120776011Y-47252257D01*
X120660299Y-46972905D01*
X120492312Y-46721495D01*
X120454697Y-46683880D01*
X120554494Y-46630537D01*
X120651185Y-46551185D01*
X120730537Y-46454494D01*
X120789502Y-46344180D01*
X120825812Y-46224482D01*
X120838072Y-46100000D01*
X120835000Y-45485750D01*
X120676250Y-45327000D01*
X119427000Y-45327000D01*
X119427000Y-45347000D01*
X119173000Y-45347000D01*
X119173000Y-45327000D01*
X117923750Y-45327000D01*
X117765000Y-45485750D01*
X117761928Y-46100000D01*
X117774188Y-46224482D01*
X117810498Y-46344180D01*
X117869463Y-46454494D01*
X117948815Y-46551185D01*
X118045506Y-46630537D01*
X118145303Y-46683880D01*
X118107688Y-46721495D01*
X117939701Y-46972905D01*
X117823989Y-47252257D01*
X117765000Y-47548816D01*
X117765000Y-47851184D01*
X117823989Y-48147743D01*
X117939701Y-48427095D01*
X118107688Y-48678505D01*
X118321495Y-48892312D01*
X118407831Y-48950000D01*
X118321495Y-49007688D01*
X118107688Y-49221495D01*
X117939701Y-49472905D01*
X117823989Y-49752257D01*
X117765000Y-50048816D01*
X117765000Y-50351184D01*
X117823989Y-50647743D01*
X117939701Y-50927095D01*
X118107688Y-51178505D01*
X118321495Y-51392312D01*
X118572905Y-51560299D01*
X118852257Y-51676011D01*
X119148816Y-51735000D01*
X119451184Y-51735000D01*
X119747743Y-51676011D01*
X120027095Y-51560299D01*
X120278505Y-51392312D01*
X120492312Y-51178505D01*
X120660299Y-50927095D01*
X120776011Y-50647743D01*
X120835000Y-50351184D01*
X120835000Y-50048816D01*
X120783731Y-49791070D01*
X124094802Y-46480000D01*
X124145199Y-46480000D01*
X129415000Y-51749802D01*
X129415001Y-65367658D01*
X129415000Y-65367668D01*
X129415000Y-69535197D01*
X124810199Y-74140000D01*
X120938313Y-74140000D01*
X120792312Y-73921495D01*
X120578505Y-73707688D01*
X120492169Y-73650000D01*
X120578505Y-73592312D01*
X120792312Y-73378505D01*
X120960299Y-73127095D01*
X121076011Y-72847743D01*
X121135000Y-72551184D01*
X121135000Y-72248816D01*
X121076011Y-71952257D01*
X120960299Y-71672905D01*
X120792312Y-71421495D01*
X120754697Y-71383880D01*
X120854494Y-71330537D01*
X120951185Y-71251185D01*
X121030537Y-71154494D01*
X121089502Y-71044180D01*
X121125812Y-70924482D01*
X121138072Y-70800000D01*
X121135000Y-70185750D01*
X120976250Y-70027000D01*
X119727000Y-70027000D01*
X119727000Y-70047000D01*
X119473000Y-70047000D01*
X119473000Y-70027000D01*
X118223750Y-70027000D01*
X118065000Y-70185750D01*
X118061928Y-70800000D01*
X118074188Y-70924482D01*
X118110498Y-71044180D01*
X118169463Y-71154494D01*
X118248815Y-71251185D01*
X118345506Y-71330537D01*
X118445303Y-71383880D01*
X118407688Y-71421495D01*
X118239701Y-71672905D01*
X118123989Y-71952257D01*
X118065000Y-72248816D01*
X118065000Y-72551184D01*
X118116269Y-72808930D01*
X110879004Y-80046195D01*
X110850000Y-80069998D01*
X110794872Y-80137173D01*
X110755027Y-80185723D01*
X110684456Y-80317752D01*
X110684455Y-80317753D01*
X110640998Y-80461014D01*
X110630001Y-80572667D01*
X110630001Y-80572677D01*
X110626325Y-80609999D01*
X110630001Y-80647321D01*
X110630002Y-96320888D01*
X110495872Y-96265330D01*
X110167435Y-96200000D01*
X109832565Y-96200000D01*
X109504128Y-96265330D01*
X109194748Y-96393479D01*
X108916313Y-96579523D01*
X108679523Y-96816313D01*
X108493479Y-97094748D01*
X108365330Y-97404128D01*
X108300000Y-97732565D01*
X108300000Y-98067435D01*
X108365330Y-98395872D01*
X108493479Y-98705252D01*
X108679523Y-98983687D01*
X108916313Y-99220477D01*
X109194748Y-99406521D01*
X109504128Y-99534670D01*
X109832565Y-99600000D01*
X110167435Y-99600000D01*
X110495872Y-99534670D01*
X110630002Y-99479112D01*
X110630002Y-108015000D01*
X110393740Y-108015000D01*
X110106842Y-108072068D01*
X109836589Y-108184010D01*
X109593368Y-108346525D01*
X109461513Y-108478380D01*
X109439502Y-108405820D01*
X109380537Y-108295506D01*
X109301185Y-108198815D01*
X109204494Y-108119463D01*
X109094180Y-108060498D01*
X108974482Y-108024188D01*
X108850000Y-108011928D01*
X108285750Y-108015000D01*
X108127000Y-108173750D01*
X108127000Y-109373000D01*
X108147000Y-109373000D01*
X108147000Y-109627000D01*
X108127000Y-109627000D01*
X108127000Y-110826250D01*
X108285750Y-110985000D01*
X108850000Y-110988072D01*
X108974482Y-110975812D01*
X109094180Y-110939502D01*
X109204494Y-110880537D01*
X109301185Y-110801185D01*
X109380537Y-110704494D01*
X109439502Y-110594180D01*
X109461513Y-110521620D01*
X109593368Y-110653475D01*
X109836589Y-110815990D01*
X110106842Y-110927932D01*
X110393740Y-110985000D01*
X110686260Y-110985000D01*
X110973158Y-110927932D01*
X111243411Y-110815990D01*
X111486632Y-110653475D01*
X111693475Y-110446632D01*
X111810000Y-110272240D01*
X111926525Y-110446632D01*
X112133368Y-110653475D01*
X112376589Y-110815990D01*
X112646842Y-110927932D01*
X112933740Y-110985000D01*
X113226260Y-110985000D01*
X113513158Y-110927932D01*
X113783411Y-110815990D01*
X114026632Y-110653475D01*
X114233475Y-110446632D01*
X114350000Y-110272240D01*
X114466525Y-110446632D01*
X114673368Y-110653475D01*
X114916589Y-110815990D01*
X115186842Y-110927932D01*
X115473740Y-110985000D01*
X115766260Y-110985000D01*
X116053158Y-110927932D01*
X116323411Y-110815990D01*
X116566632Y-110653475D01*
X116773475Y-110446632D01*
X116890000Y-110272240D01*
X117006525Y-110446632D01*
X117042546Y-110482653D01*
X113985199Y-113540000D01*
X106359802Y-113540000D01*
X103169802Y-110350000D01*
X106511928Y-110350000D01*
X106524188Y-110474482D01*
X106560498Y-110594180D01*
X106619463Y-110704494D01*
X106698815Y-110801185D01*
X106795506Y-110880537D01*
X106905820Y-110939502D01*
X107025518Y-110975812D01*
X107150000Y-110988072D01*
X107714250Y-110985000D01*
X107873000Y-110826250D01*
X107873000Y-109627000D01*
X106673750Y-109627000D01*
X106515000Y-109785750D01*
X106511928Y-110350000D01*
X103169802Y-110350000D01*
X102460000Y-109640199D01*
X102460000Y-108650000D01*
X106511928Y-108650000D01*
X106515000Y-109214250D01*
X106673750Y-109373000D01*
X107873000Y-109373000D01*
X107873000Y-108173750D01*
X107714250Y-108015000D01*
X107150000Y-108011928D01*
X107025518Y-108024188D01*
X106905820Y-108060498D01*
X106795506Y-108119463D01*
X106698815Y-108198815D01*
X106619463Y-108295506D01*
X106560498Y-108405820D01*
X106524188Y-108525518D01*
X106511928Y-108650000D01*
X102460000Y-108650000D01*
X102460000Y-99425265D01*
X102505252Y-99406521D01*
X102783687Y-99220477D01*
X103020477Y-98983687D01*
X103206521Y-98705252D01*
X103334670Y-98395872D01*
X103400000Y-98067435D01*
X103400000Y-97732565D01*
X103334670Y-97404128D01*
X103206521Y-97094748D01*
X103020477Y-96816313D01*
X102783687Y-96579523D01*
X102505252Y-96393479D01*
X102195872Y-96265330D01*
X101867435Y-96200000D01*
X101532565Y-96200000D01*
X101204128Y-96265330D01*
X100894748Y-96393479D01*
X100616313Y-96579523D01*
X100457000Y-96738836D01*
X100457000Y-73624264D01*
X100563523Y-73783687D01*
X100800313Y-74020477D01*
X101078748Y-74206521D01*
X101388128Y-74334670D01*
X101716565Y-74400000D01*
X102051435Y-74400000D01*
X102379872Y-74334670D01*
X102689252Y-74206521D01*
X102967687Y-74020477D01*
X103204477Y-73783687D01*
X103390521Y-73505252D01*
X103518670Y-73195872D01*
X103584000Y-72867435D01*
X103584000Y-72532565D01*
X108484000Y-72532565D01*
X108484000Y-72867435D01*
X108549330Y-73195872D01*
X108677479Y-73505252D01*
X108863523Y-73783687D01*
X109100313Y-74020477D01*
X109378748Y-74206521D01*
X109688128Y-74334670D01*
X110016565Y-74400000D01*
X110351435Y-74400000D01*
X110679872Y-74334670D01*
X110989252Y-74206521D01*
X111267687Y-74020477D01*
X111504477Y-73783687D01*
X111690521Y-73505252D01*
X111732105Y-73404860D01*
X111730928Y-73665000D01*
X111743188Y-73789482D01*
X111779498Y-73909180D01*
X111838463Y-74019494D01*
X111917815Y-74116185D01*
X112014506Y-74195537D01*
X112124820Y-74254502D01*
X112244518Y-74290812D01*
X112369000Y-74303072D01*
X112998250Y-74300000D01*
X113157000Y-74141250D01*
X113157000Y-72827000D01*
X113411000Y-72827000D01*
X113411000Y-74141250D01*
X113569750Y-74300000D01*
X114199000Y-74303072D01*
X114323482Y-74290812D01*
X114443180Y-74254502D01*
X114553494Y-74195537D01*
X114650185Y-74116185D01*
X114729537Y-74019494D01*
X114788502Y-73909180D01*
X114824812Y-73789482D01*
X114837072Y-73665000D01*
X114834000Y-72985750D01*
X114675250Y-72827000D01*
X113411000Y-72827000D01*
X113157000Y-72827000D01*
X113137000Y-72827000D01*
X113137000Y-72573000D01*
X113157000Y-72573000D01*
X113157000Y-71258750D01*
X113411000Y-71258750D01*
X113411000Y-72573000D01*
X114675250Y-72573000D01*
X114834000Y-72414250D01*
X114837072Y-71735000D01*
X114824812Y-71610518D01*
X114788502Y-71490820D01*
X114729537Y-71380506D01*
X114650185Y-71283815D01*
X114553494Y-71204463D01*
X114443180Y-71145498D01*
X114323482Y-71109188D01*
X114199000Y-71096928D01*
X113569750Y-71100000D01*
X113411000Y-71258750D01*
X113157000Y-71258750D01*
X112998250Y-71100000D01*
X112369000Y-71096928D01*
X112244518Y-71109188D01*
X112124820Y-71145498D01*
X112014506Y-71204463D01*
X111917815Y-71283815D01*
X111838463Y-71380506D01*
X111779498Y-71490820D01*
X111743188Y-71610518D01*
X111730928Y-71735000D01*
X111732105Y-71995140D01*
X111690521Y-71894748D01*
X111504477Y-71616313D01*
X111267687Y-71379523D01*
X110989252Y-71193479D01*
X110679872Y-71065330D01*
X110351435Y-71000000D01*
X110016565Y-71000000D01*
X109688128Y-71065330D01*
X109378748Y-71193479D01*
X109100313Y-71379523D01*
X108863523Y-71616313D01*
X108677479Y-71894748D01*
X108549330Y-72204128D01*
X108484000Y-72532565D01*
X103584000Y-72532565D01*
X103518670Y-72204128D01*
X103390521Y-71894748D01*
X103204477Y-71616313D01*
X102967687Y-71379523D01*
X102689252Y-71193479D01*
X102379872Y-71065330D01*
X102051435Y-71000000D01*
X101716565Y-71000000D01*
X101388128Y-71065330D01*
X101078748Y-71193479D01*
X100800313Y-71379523D01*
X100563523Y-71616313D01*
X100457000Y-71775736D01*
X100457000Y-69000000D01*
X118061928Y-69000000D01*
X118065000Y-69614250D01*
X118223750Y-69773000D01*
X119473000Y-69773000D01*
X119473000Y-68523750D01*
X119727000Y-68523750D01*
X119727000Y-69773000D01*
X120976250Y-69773000D01*
X121135000Y-69614250D01*
X121138072Y-69000000D01*
X121125812Y-68875518D01*
X121089502Y-68755820D01*
X121030537Y-68645506D01*
X120951185Y-68548815D01*
X120854494Y-68469463D01*
X120744180Y-68410498D01*
X120624482Y-68374188D01*
X120500000Y-68361928D01*
X119885750Y-68365000D01*
X119727000Y-68523750D01*
X119473000Y-68523750D01*
X119314250Y-68365000D01*
X118700000Y-68361928D01*
X118575518Y-68374188D01*
X118455820Y-68410498D01*
X118345506Y-68469463D01*
X118248815Y-68548815D01*
X118169463Y-68645506D01*
X118110498Y-68755820D01*
X118074188Y-68875518D01*
X118061928Y-69000000D01*
X100457000Y-69000000D01*
X100457000Y-67600000D01*
X124835348Y-67600000D01*
X124873867Y-67991088D01*
X124987943Y-68367147D01*
X125173193Y-68713725D01*
X125422497Y-69017503D01*
X125726275Y-69266807D01*
X126072853Y-69452057D01*
X126448912Y-69566133D01*
X126742002Y-69595000D01*
X127457998Y-69595000D01*
X127751088Y-69566133D01*
X128127147Y-69452057D01*
X128473725Y-69266807D01*
X128777503Y-69017503D01*
X129026807Y-68713725D01*
X129212057Y-68367147D01*
X129326133Y-67991088D01*
X129364652Y-67600000D01*
X129326133Y-67208912D01*
X129212057Y-66832853D01*
X129026807Y-66486275D01*
X128777503Y-66182497D01*
X128473725Y-65933193D01*
X128127147Y-65747943D01*
X127751088Y-65633867D01*
X127457998Y-65605000D01*
X126742002Y-65605000D01*
X126448912Y-65633867D01*
X126072853Y-65747943D01*
X125726275Y-65933193D01*
X125422497Y-66182497D01*
X125173193Y-66486275D01*
X124987943Y-66832853D01*
X124873867Y-67208912D01*
X124835348Y-67600000D01*
X100457000Y-67600000D01*
X100457000Y-52500000D01*
X124535348Y-52500000D01*
X124573867Y-52891088D01*
X124687943Y-53267147D01*
X124873193Y-53613725D01*
X125122497Y-53917503D01*
X125426275Y-54166807D01*
X125772853Y-54352057D01*
X126148912Y-54466133D01*
X126442002Y-54495000D01*
X127157998Y-54495000D01*
X127451088Y-54466133D01*
X127827147Y-54352057D01*
X128173725Y-54166807D01*
X128477503Y-53917503D01*
X128726807Y-53613725D01*
X128912057Y-53267147D01*
X129026133Y-52891088D01*
X129064652Y-52500000D01*
X129026133Y-52108912D01*
X128912057Y-51732853D01*
X128726807Y-51386275D01*
X128477503Y-51082497D01*
X128173725Y-50833193D01*
X127827147Y-50647943D01*
X127451088Y-50533867D01*
X127157998Y-50505000D01*
X126442002Y-50505000D01*
X126148912Y-50533867D01*
X125772853Y-50647943D01*
X125426275Y-50833193D01*
X125122497Y-51082497D01*
X124873193Y-51386275D01*
X124687943Y-51732853D01*
X124573867Y-52108912D01*
X124535348Y-52500000D01*
X100457000Y-52500000D01*
X100457000Y-48500318D01*
X100579523Y-48683687D01*
X100816313Y-48920477D01*
X101094748Y-49106521D01*
X101404128Y-49234670D01*
X101732565Y-49300000D01*
X102067435Y-49300000D01*
X102395872Y-49234670D01*
X102705252Y-49106521D01*
X102983687Y-48920477D01*
X103220477Y-48683687D01*
X103406521Y-48405252D01*
X103534670Y-48095872D01*
X103600000Y-47767435D01*
X103600000Y-47432565D01*
X108500000Y-47432565D01*
X108500000Y-47767435D01*
X108565330Y-48095872D01*
X108693479Y-48405252D01*
X108879523Y-48683687D01*
X109116313Y-48920477D01*
X109394748Y-49106521D01*
X109704128Y-49234670D01*
X110032565Y-49300000D01*
X110367435Y-49300000D01*
X110695872Y-49234670D01*
X111005252Y-49106521D01*
X111283687Y-48920477D01*
X111520477Y-48683687D01*
X111706521Y-48405252D01*
X111748105Y-48304860D01*
X111746928Y-48565000D01*
X111759188Y-48689482D01*
X111795498Y-48809180D01*
X111854463Y-48919494D01*
X111933815Y-49016185D01*
X112030506Y-49095537D01*
X112140820Y-49154502D01*
X112260518Y-49190812D01*
X112385000Y-49203072D01*
X113014250Y-49200000D01*
X113173000Y-49041250D01*
X113173000Y-47727000D01*
X113427000Y-47727000D01*
X113427000Y-49041250D01*
X113585750Y-49200000D01*
X114215000Y-49203072D01*
X114339482Y-49190812D01*
X114459180Y-49154502D01*
X114569494Y-49095537D01*
X114666185Y-49016185D01*
X114745537Y-48919494D01*
X114804502Y-48809180D01*
X114840812Y-48689482D01*
X114853072Y-48565000D01*
X114850000Y-47885750D01*
X114691250Y-47727000D01*
X113427000Y-47727000D01*
X113173000Y-47727000D01*
X113153000Y-47727000D01*
X113153000Y-47473000D01*
X113173000Y-47473000D01*
X113173000Y-46158750D01*
X113427000Y-46158750D01*
X113427000Y-47473000D01*
X114691250Y-47473000D01*
X114850000Y-47314250D01*
X114853072Y-46635000D01*
X114840812Y-46510518D01*
X114804502Y-46390820D01*
X114745537Y-46280506D01*
X114666185Y-46183815D01*
X114569494Y-46104463D01*
X114459180Y-46045498D01*
X114339482Y-46009188D01*
X114215000Y-45996928D01*
X113585750Y-46000000D01*
X113427000Y-46158750D01*
X113173000Y-46158750D01*
X113014250Y-46000000D01*
X112385000Y-45996928D01*
X112260518Y-46009188D01*
X112140820Y-46045498D01*
X112030506Y-46104463D01*
X111933815Y-46183815D01*
X111854463Y-46280506D01*
X111795498Y-46390820D01*
X111759188Y-46510518D01*
X111746928Y-46635000D01*
X111748105Y-46895140D01*
X111706521Y-46794748D01*
X111520477Y-46516313D01*
X111283687Y-46279523D01*
X111005252Y-46093479D01*
X110695872Y-45965330D01*
X110367435Y-45900000D01*
X110032565Y-45900000D01*
X109704128Y-45965330D01*
X109394748Y-46093479D01*
X109116313Y-46279523D01*
X108879523Y-46516313D01*
X108693479Y-46794748D01*
X108565330Y-47104128D01*
X108500000Y-47432565D01*
X103600000Y-47432565D01*
X103534670Y-47104128D01*
X103406521Y-46794748D01*
X103220477Y-46516313D01*
X102983687Y-46279523D01*
X102705252Y-46093479D01*
X102395872Y-45965330D01*
X102067435Y-45900000D01*
X101732565Y-45900000D01*
X101404128Y-45965330D01*
X101094748Y-46093479D01*
X100816313Y-46279523D01*
X100579523Y-46516313D01*
X100457000Y-46699682D01*
X100457000Y-44300000D01*
X117761928Y-44300000D01*
X117765000Y-44914250D01*
X117923750Y-45073000D01*
X119173000Y-45073000D01*
X119173000Y-43823750D01*
X119427000Y-43823750D01*
X119427000Y-45073000D01*
X120676250Y-45073000D01*
X120835000Y-44914250D01*
X120838072Y-44300000D01*
X120825812Y-44175518D01*
X120789502Y-44055820D01*
X120730537Y-43945506D01*
X120651185Y-43848815D01*
X120554494Y-43769463D01*
X120444180Y-43710498D01*
X120324482Y-43674188D01*
X120200000Y-43661928D01*
X119585750Y-43665000D01*
X119427000Y-43823750D01*
X119173000Y-43823750D01*
X119014250Y-43665000D01*
X118400000Y-43661928D01*
X118275518Y-43674188D01*
X118155820Y-43710498D01*
X118045506Y-43769463D01*
X117948815Y-43848815D01*
X117869463Y-43945506D01*
X117810498Y-44055820D01*
X117774188Y-44175518D01*
X117761928Y-44300000D01*
X100457000Y-44300000D01*
X100457000Y-36350000D01*
X106511928Y-36350000D01*
X106524188Y-36474482D01*
X106560498Y-36594180D01*
X106619463Y-36704494D01*
X106698815Y-36801185D01*
X106795506Y-36880537D01*
X106905820Y-36939502D01*
X107025518Y-36975812D01*
X107150000Y-36988072D01*
X107714250Y-36985000D01*
X107873000Y-36826250D01*
X107873000Y-35627000D01*
X106673750Y-35627000D01*
X106515000Y-35785750D01*
X106511928Y-36350000D01*
X100457000Y-36350000D01*
X100457000Y-34650000D01*
X106511928Y-34650000D01*
X106515000Y-35214250D01*
X106673750Y-35373000D01*
X107873000Y-35373000D01*
X107873000Y-34173750D01*
X107714250Y-34015000D01*
X107150000Y-34011928D01*
X107025518Y-34024188D01*
X106905820Y-34060498D01*
X106795506Y-34119463D01*
X106698815Y-34198815D01*
X106619463Y-34295506D01*
X106560498Y-34405820D01*
X106524188Y-34525518D01*
X106511928Y-34650000D01*
X100457000Y-34650000D01*
X100457000Y-23975148D01*
X100529523Y-24083687D01*
G37*
X100529523Y-24083687D02*
X100766313Y-24320477D01*
X101044748Y-24506521D01*
X101354128Y-24634670D01*
X101682565Y-24700000D01*
X102017435Y-24700000D01*
X102345872Y-24634670D01*
X102391125Y-24615926D01*
X109780001Y-32004803D01*
X109780000Y-34221821D01*
X109593368Y-34346525D01*
X109461513Y-34478380D01*
X109439502Y-34405820D01*
X109380537Y-34295506D01*
X109301185Y-34198815D01*
X109204494Y-34119463D01*
X109094180Y-34060498D01*
X108974482Y-34024188D01*
X108850000Y-34011928D01*
X108285750Y-34015000D01*
X108127000Y-34173750D01*
X108127000Y-35373000D01*
X108147000Y-35373000D01*
X108147000Y-35627000D01*
X108127000Y-35627000D01*
X108127000Y-36826250D01*
X108285750Y-36985000D01*
X108850000Y-36988072D01*
X108974482Y-36975812D01*
X109094180Y-36939502D01*
X109204494Y-36880537D01*
X109301185Y-36801185D01*
X109380537Y-36704494D01*
X109439502Y-36594180D01*
X109461513Y-36521620D01*
X109593368Y-36653475D01*
X109836589Y-36815990D01*
X110106842Y-36927932D01*
X110393740Y-36985000D01*
X110686260Y-36985000D01*
X110973158Y-36927932D01*
X111243411Y-36815990D01*
X111486632Y-36653475D01*
X111693475Y-36446632D01*
X111810000Y-36272240D01*
X111926525Y-36446632D01*
X112133368Y-36653475D01*
X112376589Y-36815990D01*
X112646842Y-36927932D01*
X112933740Y-36985000D01*
X113226260Y-36985000D01*
X113513158Y-36927932D01*
X113783411Y-36815990D01*
X114026632Y-36653475D01*
X114233475Y-36446632D01*
X114350000Y-36272240D01*
X114466525Y-36446632D01*
X114673368Y-36653475D01*
X114916589Y-36815990D01*
X115186842Y-36927932D01*
X115473740Y-36985000D01*
X115766260Y-36985000D01*
X115986408Y-36941210D01*
X116224999Y-37179801D01*
X116225000Y-38207667D01*
X116221323Y-38244999D01*
X116235997Y-38393984D01*
X116279453Y-38537245D01*
X116350025Y-38669275D01*
X116421200Y-38756001D01*
X116444999Y-38785000D01*
X116473997Y-38808798D01*
X123045198Y-45380000D01*
X120835000Y-47590199D01*
X120835000Y-47548816D01*
X120776011Y-47252257D01*
X120660299Y-46972905D01*
X120492312Y-46721495D01*
X120454697Y-46683880D01*
X120554494Y-46630537D01*
X120651185Y-46551185D01*
X120730537Y-46454494D01*
X120789502Y-46344180D01*
X120825812Y-46224482D01*
X120838072Y-46100000D01*
X120835000Y-45485750D01*
X120676250Y-45327000D01*
X119427000Y-45327000D01*
X119427000Y-45347000D01*
X119173000Y-45347000D01*
X119173000Y-45327000D01*
X117923750Y-45327000D01*
X117765000Y-45485750D01*
X117761928Y-46100000D01*
X117774188Y-46224482D01*
X117810498Y-46344180D01*
X117869463Y-46454494D01*
X117948815Y-46551185D01*
X118045506Y-46630537D01*
X118145303Y-46683880D01*
X118107688Y-46721495D01*
X117939701Y-46972905D01*
X117823989Y-47252257D01*
X117765000Y-47548816D01*
X117765000Y-47851184D01*
X117823989Y-48147743D01*
X117939701Y-48427095D01*
X118107688Y-48678505D01*
X118321495Y-48892312D01*
X118407831Y-48950000D01*
X118321495Y-49007688D01*
X118107688Y-49221495D01*
X117939701Y-49472905D01*
X117823989Y-49752257D01*
X117765000Y-50048816D01*
X117765000Y-50351184D01*
X117823989Y-50647743D01*
X117939701Y-50927095D01*
X118107688Y-51178505D01*
X118321495Y-51392312D01*
X118572905Y-51560299D01*
X118852257Y-51676011D01*
X119148816Y-51735000D01*
X119451184Y-51735000D01*
X119747743Y-51676011D01*
X120027095Y-51560299D01*
X120278505Y-51392312D01*
X120492312Y-51178505D01*
X120660299Y-50927095D01*
X120776011Y-50647743D01*
X120835000Y-50351184D01*
X120835000Y-50048816D01*
X120783731Y-49791070D01*
X124094802Y-46480000D01*
X124145199Y-46480000D01*
X129415000Y-51749802D01*
X129415001Y-65367658D01*
X129415000Y-65367668D01*
X129415000Y-69535197D01*
X124810199Y-74140000D01*
X120938313Y-74140000D01*
X120792312Y-73921495D01*
X120578505Y-73707688D01*
X120492169Y-73650000D01*
X120578505Y-73592312D01*
X120792312Y-73378505D01*
X120960299Y-73127095D01*
X121076011Y-72847743D01*
X121135000Y-72551184D01*
X121135000Y-72248816D01*
X121076011Y-71952257D01*
X120960299Y-71672905D01*
X120792312Y-71421495D01*
X120754697Y-71383880D01*
X120854494Y-71330537D01*
X120951185Y-71251185D01*
X121030537Y-71154494D01*
X121089502Y-71044180D01*
X121125812Y-70924482D01*
X121138072Y-70800000D01*
X121135000Y-70185750D01*
X120976250Y-70027000D01*
X119727000Y-70027000D01*
X119727000Y-70047000D01*
X119473000Y-70047000D01*
X119473000Y-70027000D01*
X118223750Y-70027000D01*
X118065000Y-70185750D01*
X118061928Y-70800000D01*
X118074188Y-70924482D01*
X118110498Y-71044180D01*
X118169463Y-71154494D01*
X118248815Y-71251185D01*
X118345506Y-71330537D01*
X118445303Y-71383880D01*
X118407688Y-71421495D01*
X118239701Y-71672905D01*
X118123989Y-71952257D01*
X118065000Y-72248816D01*
X118065000Y-72551184D01*
X118116269Y-72808930D01*
X110879004Y-80046195D01*
X110850000Y-80069998D01*
X110794872Y-80137173D01*
X110755027Y-80185723D01*
X110684456Y-80317752D01*
X110684455Y-80317753D01*
X110640998Y-80461014D01*
X110630001Y-80572667D01*
X110630001Y-80572677D01*
X110626325Y-80609999D01*
X110630001Y-80647321D01*
X110630002Y-96320888D01*
X110495872Y-96265330D01*
X110167435Y-96200000D01*
X109832565Y-96200000D01*
X109504128Y-96265330D01*
X109194748Y-96393479D01*
X108916313Y-96579523D01*
X108679523Y-96816313D01*
X108493479Y-97094748D01*
X108365330Y-97404128D01*
X108300000Y-97732565D01*
X108300000Y-98067435D01*
X108365330Y-98395872D01*
X108493479Y-98705252D01*
X108679523Y-98983687D01*
X108916313Y-99220477D01*
X109194748Y-99406521D01*
X109504128Y-99534670D01*
X109832565Y-99600000D01*
X110167435Y-99600000D01*
X110495872Y-99534670D01*
X110630002Y-99479112D01*
X110630002Y-108015000D01*
X110393740Y-108015000D01*
X110106842Y-108072068D01*
X109836589Y-108184010D01*
X109593368Y-108346525D01*
X109461513Y-108478380D01*
X109439502Y-108405820D01*
X109380537Y-108295506D01*
X109301185Y-108198815D01*
X109204494Y-108119463D01*
X109094180Y-108060498D01*
X108974482Y-108024188D01*
X108850000Y-108011928D01*
X108285750Y-108015000D01*
X108127000Y-108173750D01*
X108127000Y-109373000D01*
X108147000Y-109373000D01*
X108147000Y-109627000D01*
X108127000Y-109627000D01*
X108127000Y-110826250D01*
X108285750Y-110985000D01*
X108850000Y-110988072D01*
X108974482Y-110975812D01*
X109094180Y-110939502D01*
X109204494Y-110880537D01*
X109301185Y-110801185D01*
X109380537Y-110704494D01*
X109439502Y-110594180D01*
X109461513Y-110521620D01*
X109593368Y-110653475D01*
X109836589Y-110815990D01*
X110106842Y-110927932D01*
X110393740Y-110985000D01*
X110686260Y-110985000D01*
X110973158Y-110927932D01*
X111243411Y-110815990D01*
X111486632Y-110653475D01*
X111693475Y-110446632D01*
X111810000Y-110272240D01*
X111926525Y-110446632D01*
X112133368Y-110653475D01*
X112376589Y-110815990D01*
X112646842Y-110927932D01*
X112933740Y-110985000D01*
X113226260Y-110985000D01*
X113513158Y-110927932D01*
X113783411Y-110815990D01*
X114026632Y-110653475D01*
X114233475Y-110446632D01*
X114350000Y-110272240D01*
X114466525Y-110446632D01*
X114673368Y-110653475D01*
X114916589Y-110815990D01*
X115186842Y-110927932D01*
X115473740Y-110985000D01*
X115766260Y-110985000D01*
X116053158Y-110927932D01*
X116323411Y-110815990D01*
X116566632Y-110653475D01*
X116773475Y-110446632D01*
X116890000Y-110272240D01*
X117006525Y-110446632D01*
X117042546Y-110482653D01*
X113985199Y-113540000D01*
X106359802Y-113540000D01*
X103169802Y-110350000D01*
X106511928Y-110350000D01*
X106524188Y-110474482D01*
X106560498Y-110594180D01*
X106619463Y-110704494D01*
X106698815Y-110801185D01*
X106795506Y-110880537D01*
X106905820Y-110939502D01*
X107025518Y-110975812D01*
X107150000Y-110988072D01*
X107714250Y-110985000D01*
X107873000Y-110826250D01*
X107873000Y-109627000D01*
X106673750Y-109627000D01*
X106515000Y-109785750D01*
X106511928Y-110350000D01*
X103169802Y-110350000D01*
X102460000Y-109640199D01*
X102460000Y-108650000D01*
X106511928Y-108650000D01*
X106515000Y-109214250D01*
X106673750Y-109373000D01*
X107873000Y-109373000D01*
X107873000Y-108173750D01*
X107714250Y-108015000D01*
X107150000Y-108011928D01*
X107025518Y-108024188D01*
X106905820Y-108060498D01*
X106795506Y-108119463D01*
X106698815Y-108198815D01*
X106619463Y-108295506D01*
X106560498Y-108405820D01*
X106524188Y-108525518D01*
X106511928Y-108650000D01*
X102460000Y-108650000D01*
X102460000Y-99425265D01*
X102505252Y-99406521D01*
X102783687Y-99220477D01*
X103020477Y-98983687D01*
X103206521Y-98705252D01*
X103334670Y-98395872D01*
X103400000Y-98067435D01*
X103400000Y-97732565D01*
X103334670Y-97404128D01*
X103206521Y-97094748D01*
X103020477Y-96816313D01*
X102783687Y-96579523D01*
X102505252Y-96393479D01*
X102195872Y-96265330D01*
X101867435Y-96200000D01*
X101532565Y-96200000D01*
X101204128Y-96265330D01*
X100894748Y-96393479D01*
X100616313Y-96579523D01*
X100457000Y-96738836D01*
X100457000Y-73624264D01*
X100563523Y-73783687D01*
X100800313Y-74020477D01*
X101078748Y-74206521D01*
X101388128Y-74334670D01*
X101716565Y-74400000D01*
X102051435Y-74400000D01*
X102379872Y-74334670D01*
X102689252Y-74206521D01*
X102967687Y-74020477D01*
X103204477Y-73783687D01*
X103390521Y-73505252D01*
X103518670Y-73195872D01*
X103584000Y-72867435D01*
X103584000Y-72532565D01*
X108484000Y-72532565D01*
X108484000Y-72867435D01*
X108549330Y-73195872D01*
X108677479Y-73505252D01*
X108863523Y-73783687D01*
X109100313Y-74020477D01*
X109378748Y-74206521D01*
X109688128Y-74334670D01*
X110016565Y-74400000D01*
X110351435Y-74400000D01*
X110679872Y-74334670D01*
X110989252Y-74206521D01*
X111267687Y-74020477D01*
X111504477Y-73783687D01*
X111690521Y-73505252D01*
X111732105Y-73404860D01*
X111730928Y-73665000D01*
X111743188Y-73789482D01*
X111779498Y-73909180D01*
X111838463Y-74019494D01*
X111917815Y-74116185D01*
X112014506Y-74195537D01*
X112124820Y-74254502D01*
X112244518Y-74290812D01*
X112369000Y-74303072D01*
X112998250Y-74300000D01*
X113157000Y-74141250D01*
X113157000Y-72827000D01*
X113411000Y-72827000D01*
X113411000Y-74141250D01*
X113569750Y-74300000D01*
X114199000Y-74303072D01*
X114323482Y-74290812D01*
X114443180Y-74254502D01*
X114553494Y-74195537D01*
X114650185Y-74116185D01*
X114729537Y-74019494D01*
X114788502Y-73909180D01*
X114824812Y-73789482D01*
X114837072Y-73665000D01*
X114834000Y-72985750D01*
X114675250Y-72827000D01*
X113411000Y-72827000D01*
X113157000Y-72827000D01*
X113137000Y-72827000D01*
X113137000Y-72573000D01*
X113157000Y-72573000D01*
X113157000Y-71258750D01*
X113411000Y-71258750D01*
X113411000Y-72573000D01*
X114675250Y-72573000D01*
X114834000Y-72414250D01*
X114837072Y-71735000D01*
X114824812Y-71610518D01*
X114788502Y-71490820D01*
X114729537Y-71380506D01*
X114650185Y-71283815D01*
X114553494Y-71204463D01*
X114443180Y-71145498D01*
X114323482Y-71109188D01*
X114199000Y-71096928D01*
X113569750Y-71100000D01*
X113411000Y-71258750D01*
X113157000Y-71258750D01*
X112998250Y-71100000D01*
X112369000Y-71096928D01*
X112244518Y-71109188D01*
X112124820Y-71145498D01*
X112014506Y-71204463D01*
X111917815Y-71283815D01*
X111838463Y-71380506D01*
X111779498Y-71490820D01*
X111743188Y-71610518D01*
X111730928Y-71735000D01*
X111732105Y-71995140D01*
X111690521Y-71894748D01*
X111504477Y-71616313D01*
X111267687Y-71379523D01*
X110989252Y-71193479D01*
X110679872Y-71065330D01*
X110351435Y-71000000D01*
X110016565Y-71000000D01*
X109688128Y-71065330D01*
X109378748Y-71193479D01*
X109100313Y-71379523D01*
X108863523Y-71616313D01*
X108677479Y-71894748D01*
X108549330Y-72204128D01*
X108484000Y-72532565D01*
X103584000Y-72532565D01*
X103518670Y-72204128D01*
X103390521Y-71894748D01*
X103204477Y-71616313D01*
X102967687Y-71379523D01*
X102689252Y-71193479D01*
X102379872Y-71065330D01*
X102051435Y-71000000D01*
X101716565Y-71000000D01*
X101388128Y-71065330D01*
X101078748Y-71193479D01*
X100800313Y-71379523D01*
X100563523Y-71616313D01*
X100457000Y-71775736D01*
X100457000Y-69000000D01*
X118061928Y-69000000D01*
X118065000Y-69614250D01*
X118223750Y-69773000D01*
X119473000Y-69773000D01*
X119473000Y-68523750D01*
X119727000Y-68523750D01*
X119727000Y-69773000D01*
X120976250Y-69773000D01*
X121135000Y-69614250D01*
X121138072Y-69000000D01*
X121125812Y-68875518D01*
X121089502Y-68755820D01*
X121030537Y-68645506D01*
X120951185Y-68548815D01*
X120854494Y-68469463D01*
X120744180Y-68410498D01*
X120624482Y-68374188D01*
X120500000Y-68361928D01*
X119885750Y-68365000D01*
X119727000Y-68523750D01*
X119473000Y-68523750D01*
X119314250Y-68365000D01*
X118700000Y-68361928D01*
X118575518Y-68374188D01*
X118455820Y-68410498D01*
X118345506Y-68469463D01*
X118248815Y-68548815D01*
X118169463Y-68645506D01*
X118110498Y-68755820D01*
X118074188Y-68875518D01*
X118061928Y-69000000D01*
X100457000Y-69000000D01*
X100457000Y-67600000D01*
X124835348Y-67600000D01*
X124873867Y-67991088D01*
X124987943Y-68367147D01*
X125173193Y-68713725D01*
X125422497Y-69017503D01*
X125726275Y-69266807D01*
X126072853Y-69452057D01*
X126448912Y-69566133D01*
X126742002Y-69595000D01*
X127457998Y-69595000D01*
X127751088Y-69566133D01*
X128127147Y-69452057D01*
X128473725Y-69266807D01*
X128777503Y-69017503D01*
X129026807Y-68713725D01*
X129212057Y-68367147D01*
X129326133Y-67991088D01*
X129364652Y-67600000D01*
X129326133Y-67208912D01*
X129212057Y-66832853D01*
X129026807Y-66486275D01*
X128777503Y-66182497D01*
X128473725Y-65933193D01*
X128127147Y-65747943D01*
X127751088Y-65633867D01*
X127457998Y-65605000D01*
X126742002Y-65605000D01*
X126448912Y-65633867D01*
X126072853Y-65747943D01*
X125726275Y-65933193D01*
X125422497Y-66182497D01*
X125173193Y-66486275D01*
X124987943Y-66832853D01*
X124873867Y-67208912D01*
X124835348Y-67600000D01*
X100457000Y-67600000D01*
X100457000Y-52500000D01*
X124535348Y-52500000D01*
X124573867Y-52891088D01*
X124687943Y-53267147D01*
X124873193Y-53613725D01*
X125122497Y-53917503D01*
X125426275Y-54166807D01*
X125772853Y-54352057D01*
X126148912Y-54466133D01*
X126442002Y-54495000D01*
X127157998Y-54495000D01*
X127451088Y-54466133D01*
X127827147Y-54352057D01*
X128173725Y-54166807D01*
X128477503Y-53917503D01*
X128726807Y-53613725D01*
X128912057Y-53267147D01*
X129026133Y-52891088D01*
X129064652Y-52500000D01*
X129026133Y-52108912D01*
X128912057Y-51732853D01*
X128726807Y-51386275D01*
X128477503Y-51082497D01*
X128173725Y-50833193D01*
X127827147Y-50647943D01*
X127451088Y-50533867D01*
X127157998Y-50505000D01*
X126442002Y-50505000D01*
X126148912Y-50533867D01*
X125772853Y-50647943D01*
X125426275Y-50833193D01*
X125122497Y-51082497D01*
X124873193Y-51386275D01*
X124687943Y-51732853D01*
X124573867Y-52108912D01*
X124535348Y-52500000D01*
X100457000Y-52500000D01*
X100457000Y-48500318D01*
X100579523Y-48683687D01*
X100816313Y-48920477D01*
X101094748Y-49106521D01*
X101404128Y-49234670D01*
X101732565Y-49300000D01*
X102067435Y-49300000D01*
X102395872Y-49234670D01*
X102705252Y-49106521D01*
X102983687Y-48920477D01*
X103220477Y-48683687D01*
X103406521Y-48405252D01*
X103534670Y-48095872D01*
X103600000Y-47767435D01*
X103600000Y-47432565D01*
X108500000Y-47432565D01*
X108500000Y-47767435D01*
X108565330Y-48095872D01*
X108693479Y-48405252D01*
X108879523Y-48683687D01*
X109116313Y-48920477D01*
X109394748Y-49106521D01*
X109704128Y-49234670D01*
X110032565Y-49300000D01*
X110367435Y-49300000D01*
X110695872Y-49234670D01*
X111005252Y-49106521D01*
X111283687Y-48920477D01*
X111520477Y-48683687D01*
X111706521Y-48405252D01*
X111748105Y-48304860D01*
X111746928Y-48565000D01*
X111759188Y-48689482D01*
X111795498Y-48809180D01*
X111854463Y-48919494D01*
X111933815Y-49016185D01*
X112030506Y-49095537D01*
X112140820Y-49154502D01*
X112260518Y-49190812D01*
X112385000Y-49203072D01*
X113014250Y-49200000D01*
X113173000Y-49041250D01*
X113173000Y-47727000D01*
X113427000Y-47727000D01*
X113427000Y-49041250D01*
X113585750Y-49200000D01*
X114215000Y-49203072D01*
X114339482Y-49190812D01*
X114459180Y-49154502D01*
X114569494Y-49095537D01*
X114666185Y-49016185D01*
X114745537Y-48919494D01*
X114804502Y-48809180D01*
X114840812Y-48689482D01*
X114853072Y-48565000D01*
X114850000Y-47885750D01*
X114691250Y-47727000D01*
X113427000Y-47727000D01*
X113173000Y-47727000D01*
X113153000Y-47727000D01*
X113153000Y-47473000D01*
X113173000Y-47473000D01*
X113173000Y-46158750D01*
X113427000Y-46158750D01*
X113427000Y-47473000D01*
X114691250Y-47473000D01*
X114850000Y-47314250D01*
X114853072Y-46635000D01*
X114840812Y-46510518D01*
X114804502Y-46390820D01*
X114745537Y-46280506D01*
X114666185Y-46183815D01*
X114569494Y-46104463D01*
X114459180Y-46045498D01*
X114339482Y-46009188D01*
X114215000Y-45996928D01*
X113585750Y-46000000D01*
X113427000Y-46158750D01*
X113173000Y-46158750D01*
X113014250Y-46000000D01*
X112385000Y-45996928D01*
X112260518Y-46009188D01*
X112140820Y-46045498D01*
X112030506Y-46104463D01*
X111933815Y-46183815D01*
X111854463Y-46280506D01*
X111795498Y-46390820D01*
X111759188Y-46510518D01*
X111746928Y-46635000D01*
X111748105Y-46895140D01*
X111706521Y-46794748D01*
X111520477Y-46516313D01*
X111283687Y-46279523D01*
X111005252Y-46093479D01*
X110695872Y-45965330D01*
X110367435Y-45900000D01*
X110032565Y-45900000D01*
X109704128Y-45965330D01*
X109394748Y-46093479D01*
X109116313Y-46279523D01*
X108879523Y-46516313D01*
X108693479Y-46794748D01*
X108565330Y-47104128D01*
X108500000Y-47432565D01*
X103600000Y-47432565D01*
X103534670Y-47104128D01*
X103406521Y-46794748D01*
X103220477Y-46516313D01*
X102983687Y-46279523D01*
X102705252Y-46093479D01*
X102395872Y-45965330D01*
X102067435Y-45900000D01*
X101732565Y-45900000D01*
X101404128Y-45965330D01*
X101094748Y-46093479D01*
X100816313Y-46279523D01*
X100579523Y-46516313D01*
X100457000Y-46699682D01*
X100457000Y-44300000D01*
X117761928Y-44300000D01*
X117765000Y-44914250D01*
X117923750Y-45073000D01*
X119173000Y-45073000D01*
X119173000Y-43823750D01*
X119427000Y-43823750D01*
X119427000Y-45073000D01*
X120676250Y-45073000D01*
X120835000Y-44914250D01*
X120838072Y-44300000D01*
X120825812Y-44175518D01*
X120789502Y-44055820D01*
X120730537Y-43945506D01*
X120651185Y-43848815D01*
X120554494Y-43769463D01*
X120444180Y-43710498D01*
X120324482Y-43674188D01*
X120200000Y-43661928D01*
X119585750Y-43665000D01*
X119427000Y-43823750D01*
X119173000Y-43823750D01*
X119014250Y-43665000D01*
X118400000Y-43661928D01*
X118275518Y-43674188D01*
X118155820Y-43710498D01*
X118045506Y-43769463D01*
X117948815Y-43848815D01*
X117869463Y-43945506D01*
X117810498Y-44055820D01*
X117774188Y-44175518D01*
X117761928Y-44300000D01*
X100457000Y-44300000D01*
X100457000Y-36350000D01*
X106511928Y-36350000D01*
X106524188Y-36474482D01*
X106560498Y-36594180D01*
X106619463Y-36704494D01*
X106698815Y-36801185D01*
X106795506Y-36880537D01*
X106905820Y-36939502D01*
X107025518Y-36975812D01*
X107150000Y-36988072D01*
X107714250Y-36985000D01*
X107873000Y-36826250D01*
X107873000Y-35627000D01*
X106673750Y-35627000D01*
X106515000Y-35785750D01*
X106511928Y-36350000D01*
X100457000Y-36350000D01*
X100457000Y-34650000D01*
X106511928Y-34650000D01*
X106515000Y-35214250D01*
X106673750Y-35373000D01*
X107873000Y-35373000D01*
X107873000Y-34173750D01*
X107714250Y-34015000D01*
X107150000Y-34011928D01*
X107025518Y-34024188D01*
X106905820Y-34060498D01*
X106795506Y-34119463D01*
X106698815Y-34198815D01*
X106619463Y-34295506D01*
X106560498Y-34405820D01*
X106524188Y-34525518D01*
X106511928Y-34650000D01*
X100457000Y-34650000D01*
X100457000Y-23975148D01*
X100529523Y-24083687D01*
G36*
X129415001Y-94300197D02*
G01*
X124875199Y-98840000D01*
X120738313Y-98840000D01*
X120592312Y-98621495D01*
X120378505Y-98407688D01*
X120292169Y-98350000D01*
X120378505Y-98292312D01*
X120592312Y-98078505D01*
X120760299Y-97827095D01*
X120876011Y-97547743D01*
X120935000Y-97251184D01*
X120935000Y-96948816D01*
X120876011Y-96652257D01*
X120760299Y-96372905D01*
X120592312Y-96121495D01*
X120554697Y-96083880D01*
X120654494Y-96030537D01*
X120751185Y-95951185D01*
X120830537Y-95854494D01*
X120889502Y-95744180D01*
X120925812Y-95624482D01*
X120938072Y-95500000D01*
X120935000Y-94885750D01*
X120776250Y-94727000D01*
X119527000Y-94727000D01*
X119527000Y-94747000D01*
X119273000Y-94747000D01*
X119273000Y-94727000D01*
X118023750Y-94727000D01*
X117865000Y-94885750D01*
X117861928Y-95500000D01*
X117874188Y-95624482D01*
X117910498Y-95744180D01*
X117969463Y-95854494D01*
X118048815Y-95951185D01*
X118145506Y-96030537D01*
X118245303Y-96083880D01*
X118207688Y-96121495D01*
X118039701Y-96372905D01*
X117923989Y-96652257D01*
X117865000Y-96948816D01*
X117865000Y-97251184D01*
X117916269Y-97508930D01*
X117663997Y-97761202D01*
X117634999Y-97785000D01*
X117611201Y-97813998D01*
X117611200Y-97813999D01*
X117540025Y-97900725D01*
X117469453Y-98032755D01*
X117425997Y-98176016D01*
X117411323Y-98325001D01*
X117415000Y-98362333D01*
X117414999Y-105437676D01*
X117411323Y-105474999D01*
X117414999Y-105512321D01*
X117414999Y-105512331D01*
X117425996Y-105623984D01*
X117469453Y-105767245D01*
X117540025Y-105899275D01*
X117579870Y-105947825D01*
X117634998Y-106015000D01*
X117664002Y-106038803D01*
X119884262Y-108259064D01*
X119753368Y-108346525D01*
X119546525Y-108553368D01*
X119430000Y-108727760D01*
X119313475Y-108553368D01*
X119106632Y-108346525D01*
X118863411Y-108184010D01*
X118593158Y-108072068D01*
X118306260Y-108015000D01*
X118013740Y-108015000D01*
X117726842Y-108072068D01*
X117456589Y-108184010D01*
X117213368Y-108346525D01*
X117006525Y-108553368D01*
X116890000Y-108727760D01*
X116773475Y-108553368D01*
X116566632Y-108346525D01*
X116323411Y-108184010D01*
X116053158Y-108072068D01*
X115766260Y-108015000D01*
X115473740Y-108015000D01*
X115186842Y-108072068D01*
X114916589Y-108184010D01*
X114673368Y-108346525D01*
X114466525Y-108553368D01*
X114350000Y-108727760D01*
X114233475Y-108553368D01*
X114026632Y-108346525D01*
X113783411Y-108184010D01*
X113513158Y-108072068D01*
X113226260Y-108015000D01*
X112933740Y-108015000D01*
X112646842Y-108072068D01*
X112376589Y-108184010D01*
X112150001Y-108335411D01*
X112150001Y-99499625D01*
X112185000Y-99503072D01*
X112814250Y-99500000D01*
X112973000Y-99341250D01*
X112973000Y-98027000D01*
X113227000Y-98027000D01*
X113227000Y-99341250D01*
X113385750Y-99500000D01*
X114015000Y-99503072D01*
X114139482Y-99490812D01*
X114259180Y-99454502D01*
X114369494Y-99395537D01*
X114466185Y-99316185D01*
X114545537Y-99219494D01*
X114604502Y-99109180D01*
X114640812Y-98989482D01*
X114653072Y-98865000D01*
X114650000Y-98185750D01*
X114491250Y-98027000D01*
X113227000Y-98027000D01*
X112973000Y-98027000D01*
X112953000Y-98027000D01*
X112953000Y-97773000D01*
X112973000Y-97773000D01*
X112973000Y-96458750D01*
X113227000Y-96458750D01*
X113227000Y-97773000D01*
X114491250Y-97773000D01*
X114650000Y-97614250D01*
X114653072Y-96935000D01*
X114640812Y-96810518D01*
X114604502Y-96690820D01*
X114545537Y-96580506D01*
X114466185Y-96483815D01*
X114369494Y-96404463D01*
X114259180Y-96345498D01*
X114139482Y-96309188D01*
X114015000Y-96296928D01*
X113385750Y-96300000D01*
X113227000Y-96458750D01*
X112973000Y-96458750D01*
X112814250Y-96300000D01*
X112185000Y-96296928D01*
X112150001Y-96300375D01*
X112150001Y-93700000D01*
X117861928Y-93700000D01*
X117865000Y-94314250D01*
X118023750Y-94473000D01*
X119273000Y-94473000D01*
X119273000Y-93223750D01*
X119527000Y-93223750D01*
X119527000Y-94473000D01*
X120776250Y-94473000D01*
X120935000Y-94314250D01*
X120938072Y-93700000D01*
X120925812Y-93575518D01*
X120889502Y-93455820D01*
X120830537Y-93345506D01*
X120751185Y-93248815D01*
X120654494Y-93169463D01*
X120544180Y-93110498D01*
X120424482Y-93074188D01*
X120300000Y-93061928D01*
X119685750Y-93065000D01*
X119527000Y-93223750D01*
X119273000Y-93223750D01*
X119114250Y-93065000D01*
X118500000Y-93061928D01*
X118375518Y-93074188D01*
X118255820Y-93110498D01*
X118145506Y-93169463D01*
X118048815Y-93248815D01*
X117969463Y-93345506D01*
X117910498Y-93455820D01*
X117874188Y-93575518D01*
X117861928Y-93700000D01*
X112150001Y-93700000D01*
X112150001Y-92300000D01*
X124635348Y-92300000D01*
X124673867Y-92691088D01*
X124787943Y-93067147D01*
X124973193Y-93413725D01*
X125222497Y-93717503D01*
X125526275Y-93966807D01*
X125872853Y-94152057D01*
X126248912Y-94266133D01*
X126542002Y-94295000D01*
X127257998Y-94295000D01*
X127551088Y-94266133D01*
X127927147Y-94152057D01*
X128273725Y-93966807D01*
X128577503Y-93717503D01*
X128826807Y-93413725D01*
X129012057Y-93067147D01*
X129126133Y-92691088D01*
X129164652Y-92300000D01*
X129126133Y-91908912D01*
X129012057Y-91532853D01*
X128826807Y-91186275D01*
X128577503Y-90882497D01*
X128273725Y-90633193D01*
X127927147Y-90447943D01*
X127551088Y-90333867D01*
X127257998Y-90305000D01*
X126542002Y-90305000D01*
X126248912Y-90333867D01*
X125872853Y-90447943D01*
X125526275Y-90633193D01*
X125222497Y-90882497D01*
X124973193Y-91186275D01*
X124787943Y-91532853D01*
X124673867Y-91908912D01*
X124635348Y-92300000D01*
X112150001Y-92300000D01*
X112150001Y-80924800D01*
X115874801Y-77200000D01*
X124835348Y-77200000D01*
X124873867Y-77591088D01*
X124987943Y-77967147D01*
X125173193Y-78313725D01*
X125422497Y-78617503D01*
X125726275Y-78866807D01*
X126072853Y-79052057D01*
X126448912Y-79166133D01*
X126742002Y-79195000D01*
X127457998Y-79195000D01*
X127751088Y-79166133D01*
X128127147Y-79052057D01*
X128473725Y-78866807D01*
X128777503Y-78617503D01*
X129026807Y-78313725D01*
X129212057Y-77967147D01*
X129326133Y-77591088D01*
X129364652Y-77200000D01*
X129326133Y-76808912D01*
X129212057Y-76432853D01*
X129026807Y-76086275D01*
X128777503Y-75782497D01*
X128473725Y-75533193D01*
X128127147Y-75347943D01*
X127751088Y-75233867D01*
X127457998Y-75205000D01*
X126742002Y-75205000D01*
X126448912Y-75233867D01*
X126072853Y-75347943D01*
X125726275Y-75533193D01*
X125422497Y-75782497D01*
X125173193Y-76086275D01*
X124987943Y-76432853D01*
X124873867Y-76808912D01*
X124835348Y-77200000D01*
X115874801Y-77200000D01*
X118065000Y-75009802D01*
X118065000Y-75051184D01*
X118123989Y-75347743D01*
X118239701Y-75627095D01*
X118407688Y-75878505D01*
X118621495Y-76092312D01*
X118872905Y-76260299D01*
X119152257Y-76376011D01*
X119448816Y-76435000D01*
X119751184Y-76435000D01*
X120047743Y-76376011D01*
X120327095Y-76260299D01*
X120578505Y-76092312D01*
X120792312Y-75878505D01*
X120938313Y-75660000D01*
X125087678Y-75660000D01*
X125125000Y-75663676D01*
X125162322Y-75660000D01*
X125162333Y-75660000D01*
X125273986Y-75649003D01*
X125417247Y-75605546D01*
X125549276Y-75534974D01*
X125665001Y-75440001D01*
X125688804Y-75410997D01*
X129415000Y-71684802D01*
X129415001Y-94300197D01*
G37*
X129415001Y-94300197D02*
X124875199Y-98840000D01*
X120738313Y-98840000D01*
X120592312Y-98621495D01*
X120378505Y-98407688D01*
X120292169Y-98350000D01*
X120378505Y-98292312D01*
X120592312Y-98078505D01*
X120760299Y-97827095D01*
X120876011Y-97547743D01*
X120935000Y-97251184D01*
X120935000Y-96948816D01*
X120876011Y-96652257D01*
X120760299Y-96372905D01*
X120592312Y-96121495D01*
X120554697Y-96083880D01*
X120654494Y-96030537D01*
X120751185Y-95951185D01*
X120830537Y-95854494D01*
X120889502Y-95744180D01*
X120925812Y-95624482D01*
X120938072Y-95500000D01*
X120935000Y-94885750D01*
X120776250Y-94727000D01*
X119527000Y-94727000D01*
X119527000Y-94747000D01*
X119273000Y-94747000D01*
X119273000Y-94727000D01*
X118023750Y-94727000D01*
X117865000Y-94885750D01*
X117861928Y-95500000D01*
X117874188Y-95624482D01*
X117910498Y-95744180D01*
X117969463Y-95854494D01*
X118048815Y-95951185D01*
X118145506Y-96030537D01*
X118245303Y-96083880D01*
X118207688Y-96121495D01*
X118039701Y-96372905D01*
X117923989Y-96652257D01*
X117865000Y-96948816D01*
X117865000Y-97251184D01*
X117916269Y-97508930D01*
X117663997Y-97761202D01*
X117634999Y-97785000D01*
X117611201Y-97813998D01*
X117611200Y-97813999D01*
X117540025Y-97900725D01*
X117469453Y-98032755D01*
X117425997Y-98176016D01*
X117411323Y-98325001D01*
X117415000Y-98362333D01*
X117414999Y-105437676D01*
X117411323Y-105474999D01*
X117414999Y-105512321D01*
X117414999Y-105512331D01*
X117425996Y-105623984D01*
X117469453Y-105767245D01*
X117540025Y-105899275D01*
X117579870Y-105947825D01*
X117634998Y-106015000D01*
X117664002Y-106038803D01*
X119884262Y-108259064D01*
X119753368Y-108346525D01*
X119546525Y-108553368D01*
X119430000Y-108727760D01*
X119313475Y-108553368D01*
X119106632Y-108346525D01*
X118863411Y-108184010D01*
X118593158Y-108072068D01*
X118306260Y-108015000D01*
X118013740Y-108015000D01*
X117726842Y-108072068D01*
X117456589Y-108184010D01*
X117213368Y-108346525D01*
X117006525Y-108553368D01*
X116890000Y-108727760D01*
X116773475Y-108553368D01*
X116566632Y-108346525D01*
X116323411Y-108184010D01*
X116053158Y-108072068D01*
X115766260Y-108015000D01*
X115473740Y-108015000D01*
X115186842Y-108072068D01*
X114916589Y-108184010D01*
X114673368Y-108346525D01*
X114466525Y-108553368D01*
X114350000Y-108727760D01*
X114233475Y-108553368D01*
X114026632Y-108346525D01*
X113783411Y-108184010D01*
X113513158Y-108072068D01*
X113226260Y-108015000D01*
X112933740Y-108015000D01*
X112646842Y-108072068D01*
X112376589Y-108184010D01*
X112150001Y-108335411D01*
X112150001Y-99499625D01*
X112185000Y-99503072D01*
X112814250Y-99500000D01*
X112973000Y-99341250D01*
X112973000Y-98027000D01*
X113227000Y-98027000D01*
X113227000Y-99341250D01*
X113385750Y-99500000D01*
X114015000Y-99503072D01*
X114139482Y-99490812D01*
X114259180Y-99454502D01*
X114369494Y-99395537D01*
X114466185Y-99316185D01*
X114545537Y-99219494D01*
X114604502Y-99109180D01*
X114640812Y-98989482D01*
X114653072Y-98865000D01*
X114650000Y-98185750D01*
X114491250Y-98027000D01*
X113227000Y-98027000D01*
X112973000Y-98027000D01*
X112953000Y-98027000D01*
X112953000Y-97773000D01*
X112973000Y-97773000D01*
X112973000Y-96458750D01*
X113227000Y-96458750D01*
X113227000Y-97773000D01*
X114491250Y-97773000D01*
X114650000Y-97614250D01*
X114653072Y-96935000D01*
X114640812Y-96810518D01*
X114604502Y-96690820D01*
X114545537Y-96580506D01*
X114466185Y-96483815D01*
X114369494Y-96404463D01*
X114259180Y-96345498D01*
X114139482Y-96309188D01*
X114015000Y-96296928D01*
X113385750Y-96300000D01*
X113227000Y-96458750D01*
X112973000Y-96458750D01*
X112814250Y-96300000D01*
X112185000Y-96296928D01*
X112150001Y-96300375D01*
X112150001Y-93700000D01*
X117861928Y-93700000D01*
X117865000Y-94314250D01*
X118023750Y-94473000D01*
X119273000Y-94473000D01*
X119273000Y-93223750D01*
X119527000Y-93223750D01*
X119527000Y-94473000D01*
X120776250Y-94473000D01*
X120935000Y-94314250D01*
X120938072Y-93700000D01*
X120925812Y-93575518D01*
X120889502Y-93455820D01*
X120830537Y-93345506D01*
X120751185Y-93248815D01*
X120654494Y-93169463D01*
X120544180Y-93110498D01*
X120424482Y-93074188D01*
X120300000Y-93061928D01*
X119685750Y-93065000D01*
X119527000Y-93223750D01*
X119273000Y-93223750D01*
X119114250Y-93065000D01*
X118500000Y-93061928D01*
X118375518Y-93074188D01*
X118255820Y-93110498D01*
X118145506Y-93169463D01*
X118048815Y-93248815D01*
X117969463Y-93345506D01*
X117910498Y-93455820D01*
X117874188Y-93575518D01*
X117861928Y-93700000D01*
X112150001Y-93700000D01*
X112150001Y-92300000D01*
X124635348Y-92300000D01*
X124673867Y-92691088D01*
X124787943Y-93067147D01*
X124973193Y-93413725D01*
X125222497Y-93717503D01*
X125526275Y-93966807D01*
X125872853Y-94152057D01*
X126248912Y-94266133D01*
X126542002Y-94295000D01*
X127257998Y-94295000D01*
X127551088Y-94266133D01*
X127927147Y-94152057D01*
X128273725Y-93966807D01*
X128577503Y-93717503D01*
X128826807Y-93413725D01*
X129012057Y-93067147D01*
X129126133Y-92691088D01*
X129164652Y-92300000D01*
X129126133Y-91908912D01*
X129012057Y-91532853D01*
X128826807Y-91186275D01*
X128577503Y-90882497D01*
X128273725Y-90633193D01*
X127927147Y-90447943D01*
X127551088Y-90333867D01*
X127257998Y-90305000D01*
X126542002Y-90305000D01*
X126248912Y-90333867D01*
X125872853Y-90447943D01*
X125526275Y-90633193D01*
X125222497Y-90882497D01*
X124973193Y-91186275D01*
X124787943Y-91532853D01*
X124673867Y-91908912D01*
X124635348Y-92300000D01*
X112150001Y-92300000D01*
X112150001Y-80924800D01*
X115874801Y-77200000D01*
X124835348Y-77200000D01*
X124873867Y-77591088D01*
X124987943Y-77967147D01*
X125173193Y-78313725D01*
X125422497Y-78617503D01*
X125726275Y-78866807D01*
X126072853Y-79052057D01*
X126448912Y-79166133D01*
X126742002Y-79195000D01*
X127457998Y-79195000D01*
X127751088Y-79166133D01*
X128127147Y-79052057D01*
X128473725Y-78866807D01*
X128777503Y-78617503D01*
X129026807Y-78313725D01*
X129212057Y-77967147D01*
X129326133Y-77591088D01*
X129364652Y-77200000D01*
X129326133Y-76808912D01*
X129212057Y-76432853D01*
X129026807Y-76086275D01*
X128777503Y-75782497D01*
X128473725Y-75533193D01*
X128127147Y-75347943D01*
X127751088Y-75233867D01*
X127457998Y-75205000D01*
X126742002Y-75205000D01*
X126448912Y-75233867D01*
X126072853Y-75347943D01*
X125726275Y-75533193D01*
X125422497Y-75782497D01*
X125173193Y-76086275D01*
X124987943Y-76432853D01*
X124873867Y-76808912D01*
X124835348Y-77200000D01*
X115874801Y-77200000D01*
X118065000Y-75009802D01*
X118065000Y-75051184D01*
X118123989Y-75347743D01*
X118239701Y-75627095D01*
X118407688Y-75878505D01*
X118621495Y-76092312D01*
X118872905Y-76260299D01*
X119152257Y-76376011D01*
X119448816Y-76435000D01*
X119751184Y-76435000D01*
X120047743Y-76376011D01*
X120327095Y-76260299D01*
X120578505Y-76092312D01*
X120792312Y-75878505D01*
X120938313Y-75660000D01*
X125087678Y-75660000D01*
X125125000Y-75663676D01*
X125162322Y-75660000D01*
X125162333Y-75660000D01*
X125273986Y-75649003D01*
X125417247Y-75605546D01*
X125549276Y-75534974D01*
X125665001Y-75440001D01*
X125688804Y-75410997D01*
X129415000Y-71684802D01*
X129415001Y-94300197D01*
G04 #@! TD*
M02*
