G04 #@! TF.GenerationSoftware,KiCad,Pcbnew,5.1.6-1.fc31*
G04 #@! TF.CreationDate,2020-06-18T16:59:41-04:00*
G04 #@! TF.ProjectId,ChordArrayGUI,43686f72-6441-4727-9261-794755492e6b,rev?*
G04 #@! TF.SameCoordinates,Original*
G04 #@! TF.FileFunction,Soldermask,Top*
G04 #@! TF.FilePolarity,Negative*
%FSLAX46Y46*%
G04 Gerber Fmt 4.6, Leading zero omitted, Abs format (unit mm)*
G04 Created by KiCad (PCBNEW 5.1.6-1.fc31) date 2020-06-18 16:59:41*
%MOMM*%
%LPD*%
G01*
G04 APERTURE LIST*
%ADD10O,1.800000X1.800000*%
%ADD11R,1.800000X1.800000*%
%ADD12C,2.230000*%
%ADD13R,1.930000X2.030000*%
%ADD14R,1.900000X1.900000*%
%ADD15C,1.900000*%
%ADD16O,3.340000X2.820000*%
G04 APERTURE END LIST*
D10*
G04 #@! TO.C,J9*
X125780000Y-109500000D03*
X123240000Y-109500000D03*
X120700000Y-109500000D03*
X118160000Y-109500000D03*
X115620000Y-109500000D03*
X113080000Y-109500000D03*
X110540000Y-109500000D03*
D11*
X108000000Y-109500000D03*
G04 #@! TD*
D10*
G04 #@! TO.C,J8*
X125780000Y-35500000D03*
X123240000Y-35500000D03*
X120700000Y-35500000D03*
X118160000Y-35500000D03*
X115620000Y-35500000D03*
X113080000Y-35500000D03*
X110540000Y-35500000D03*
D11*
X108000000Y-35500000D03*
G04 #@! TD*
D12*
G04 #@! TO.C,J1*
X101850000Y-23000000D03*
D13*
X113250000Y-23000000D03*
D12*
X110150000Y-23000000D03*
G04 #@! TD*
G04 #@! TO.C,J3*
X128900000Y-23000000D03*
D13*
X132000000Y-23000000D03*
D12*
X120600000Y-23000000D03*
G04 #@! TD*
G04 #@! TO.C,J4*
X101900000Y-47600000D03*
D13*
X113300000Y-47600000D03*
D12*
X110200000Y-47600000D03*
G04 #@! TD*
G04 #@! TO.C,J5*
X101884000Y-72700000D03*
D13*
X113284000Y-72700000D03*
D12*
X110184000Y-72700000D03*
G04 #@! TD*
G04 #@! TO.C,J6*
X110000000Y-97900000D03*
D13*
X113100000Y-97900000D03*
D12*
X101700000Y-97900000D03*
G04 #@! TD*
G04 #@! TO.C,J7*
X110000000Y-122700000D03*
D13*
X113100000Y-122700000D03*
D12*
X101700000Y-122700000D03*
G04 #@! TD*
D14*
G04 #@! TO.C,RV2*
X119300000Y-45200000D03*
D15*
X119300000Y-47700000D03*
X119300000Y-50200000D03*
D16*
X126800000Y-52500000D03*
X126800000Y-42900000D03*
G04 #@! TD*
D14*
G04 #@! TO.C,RV3*
X119600000Y-69900000D03*
D15*
X119600000Y-72400000D03*
X119600000Y-74900000D03*
D16*
X127100000Y-77200000D03*
X127100000Y-67600000D03*
G04 #@! TD*
G04 #@! TO.C,RV4*
X126900000Y-92300000D03*
X126900000Y-101900000D03*
D15*
X119400000Y-99600000D03*
X119400000Y-97100000D03*
D14*
X119400000Y-94600000D03*
G04 #@! TD*
D16*
G04 #@! TO.C,RV5*
X126700000Y-117500000D03*
X126700000Y-127100000D03*
D15*
X119200000Y-124800000D03*
X119200000Y-122300000D03*
D14*
X119200000Y-119800000D03*
G04 #@! TD*
M02*
