%TF.GenerationSoftware,KiCad,Pcbnew,6.0.4-1.fc35*%
%TF.CreationDate,2022-05-28T16:25:33-04:00*%
%TF.ProjectId,kassuVCA,6b617373-7556-4434-912e-6b696361645f,rev?*%
%TF.SameCoordinates,Original*%
%TF.FileFunction,Legend,Top*%
%TF.FilePolarity,Positive*%
%FSLAX46Y46*%
G04 Gerber Fmt 4.6, Leading zero omitted, Abs format (unit mm)*
G04 Created by KiCad (PCBNEW 6.0.4-1.fc35) date 2022-05-28 16:25:33*
%MOMM*%
%LPD*%
G01*
G04 APERTURE LIST*
%ADD10C,0.150000*%
%ADD11C,0.120000*%
G04 APERTURE END LIST*
D10*
%TO.C,Level8*%
X192936580Y-116732666D02*
X192936580Y-117208857D01*
X191936580Y-117208857D01*
X192888961Y-116018380D02*
X192936580Y-116113619D01*
X192936580Y-116304095D01*
X192888961Y-116399333D01*
X192793723Y-116446952D01*
X192412771Y-116446952D01*
X192317533Y-116399333D01*
X192269914Y-116304095D01*
X192269914Y-116113619D01*
X192317533Y-116018380D01*
X192412771Y-115970761D01*
X192508009Y-115970761D01*
X192603247Y-116446952D01*
X192269914Y-115637428D02*
X192936580Y-115399333D01*
X192269914Y-115161238D01*
X192888961Y-114399333D02*
X192936580Y-114494571D01*
X192936580Y-114685047D01*
X192888961Y-114780285D01*
X192793723Y-114827904D01*
X192412771Y-114827904D01*
X192317533Y-114780285D01*
X192269914Y-114685047D01*
X192269914Y-114494571D01*
X192317533Y-114399333D01*
X192412771Y-114351714D01*
X192508009Y-114351714D01*
X192603247Y-114827904D01*
X192936580Y-113780285D02*
X192888961Y-113875523D01*
X192793723Y-113923142D01*
X191936580Y-113923142D01*
X192365152Y-113256476D02*
X192317533Y-113351714D01*
X192269914Y-113399333D01*
X192174676Y-113446952D01*
X192127057Y-113446952D01*
X192031819Y-113399333D01*
X191984200Y-113351714D01*
X191936580Y-113256476D01*
X191936580Y-113066000D01*
X191984200Y-112970761D01*
X192031819Y-112923142D01*
X192127057Y-112875523D01*
X192174676Y-112875523D01*
X192269914Y-112923142D01*
X192317533Y-112970761D01*
X192365152Y-113066000D01*
X192365152Y-113256476D01*
X192412771Y-113351714D01*
X192460390Y-113399333D01*
X192555628Y-113446952D01*
X192746104Y-113446952D01*
X192841342Y-113399333D01*
X192888961Y-113351714D01*
X192936580Y-113256476D01*
X192936580Y-113066000D01*
X192888961Y-112970761D01*
X192841342Y-112923142D01*
X192746104Y-112875523D01*
X192555628Y-112875523D01*
X192460390Y-112923142D01*
X192412771Y-112970761D01*
X192365152Y-113066000D01*
%TO.C,Level7*%
X179506580Y-116707266D02*
X179506580Y-117183457D01*
X178506580Y-117183457D01*
X179458961Y-115992980D02*
X179506580Y-116088219D01*
X179506580Y-116278695D01*
X179458961Y-116373933D01*
X179363723Y-116421552D01*
X178982771Y-116421552D01*
X178887533Y-116373933D01*
X178839914Y-116278695D01*
X178839914Y-116088219D01*
X178887533Y-115992980D01*
X178982771Y-115945361D01*
X179078009Y-115945361D01*
X179173247Y-116421552D01*
X178839914Y-115612028D02*
X179506580Y-115373933D01*
X178839914Y-115135838D01*
X179458961Y-114373933D02*
X179506580Y-114469171D01*
X179506580Y-114659647D01*
X179458961Y-114754885D01*
X179363723Y-114802504D01*
X178982771Y-114802504D01*
X178887533Y-114754885D01*
X178839914Y-114659647D01*
X178839914Y-114469171D01*
X178887533Y-114373933D01*
X178982771Y-114326314D01*
X179078009Y-114326314D01*
X179173247Y-114802504D01*
X179506580Y-113754885D02*
X179458961Y-113850123D01*
X179363723Y-113897742D01*
X178506580Y-113897742D01*
X178506580Y-113469171D02*
X178506580Y-112802504D01*
X179506580Y-113231076D01*
%TO.C,Level6*%
X166088780Y-116707266D02*
X166088780Y-117183457D01*
X165088780Y-117183457D01*
X166041161Y-115992980D02*
X166088780Y-116088219D01*
X166088780Y-116278695D01*
X166041161Y-116373933D01*
X165945923Y-116421552D01*
X165564971Y-116421552D01*
X165469733Y-116373933D01*
X165422114Y-116278695D01*
X165422114Y-116088219D01*
X165469733Y-115992980D01*
X165564971Y-115945361D01*
X165660209Y-115945361D01*
X165755447Y-116421552D01*
X165422114Y-115612028D02*
X166088780Y-115373933D01*
X165422114Y-115135838D01*
X166041161Y-114373933D02*
X166088780Y-114469171D01*
X166088780Y-114659647D01*
X166041161Y-114754885D01*
X165945923Y-114802504D01*
X165564971Y-114802504D01*
X165469733Y-114754885D01*
X165422114Y-114659647D01*
X165422114Y-114469171D01*
X165469733Y-114373933D01*
X165564971Y-114326314D01*
X165660209Y-114326314D01*
X165755447Y-114802504D01*
X166088780Y-113754885D02*
X166041161Y-113850123D01*
X165945923Y-113897742D01*
X165088780Y-113897742D01*
X165088780Y-112945361D02*
X165088780Y-113135838D01*
X165136400Y-113231076D01*
X165184019Y-113278695D01*
X165326876Y-113373933D01*
X165517352Y-113421552D01*
X165898304Y-113421552D01*
X165993542Y-113373933D01*
X166041161Y-113326314D01*
X166088780Y-113231076D01*
X166088780Y-113040600D01*
X166041161Y-112945361D01*
X165993542Y-112897742D01*
X165898304Y-112850123D01*
X165660209Y-112850123D01*
X165564971Y-112897742D01*
X165517352Y-112945361D01*
X165469733Y-113040600D01*
X165469733Y-113231076D01*
X165517352Y-113326314D01*
X165564971Y-113373933D01*
X165660209Y-113421552D01*
%TO.C,Level5*%
X152677580Y-116732666D02*
X152677580Y-117208857D01*
X151677580Y-117208857D01*
X152629961Y-116018380D02*
X152677580Y-116113619D01*
X152677580Y-116304095D01*
X152629961Y-116399333D01*
X152534723Y-116446952D01*
X152153771Y-116446952D01*
X152058533Y-116399333D01*
X152010914Y-116304095D01*
X152010914Y-116113619D01*
X152058533Y-116018380D01*
X152153771Y-115970761D01*
X152249009Y-115970761D01*
X152344247Y-116446952D01*
X152010914Y-115637428D02*
X152677580Y-115399333D01*
X152010914Y-115161238D01*
X152629961Y-114399333D02*
X152677580Y-114494571D01*
X152677580Y-114685047D01*
X152629961Y-114780285D01*
X152534723Y-114827904D01*
X152153771Y-114827904D01*
X152058533Y-114780285D01*
X152010914Y-114685047D01*
X152010914Y-114494571D01*
X152058533Y-114399333D01*
X152153771Y-114351714D01*
X152249009Y-114351714D01*
X152344247Y-114827904D01*
X152677580Y-113780285D02*
X152629961Y-113875523D01*
X152534723Y-113923142D01*
X151677580Y-113923142D01*
X151677580Y-112923142D02*
X151677580Y-113399333D01*
X152153771Y-113446952D01*
X152106152Y-113399333D01*
X152058533Y-113304095D01*
X152058533Y-113066000D01*
X152106152Y-112970761D01*
X152153771Y-112923142D01*
X152249009Y-112875523D01*
X152487104Y-112875523D01*
X152582342Y-112923142D01*
X152629961Y-112970761D01*
X152677580Y-113066000D01*
X152677580Y-113304095D01*
X152629961Y-113399333D01*
X152582342Y-113446952D01*
%TO.C,Level4*%
X139266380Y-116732666D02*
X139266380Y-117208857D01*
X138266380Y-117208857D01*
X139218761Y-116018380D02*
X139266380Y-116113619D01*
X139266380Y-116304095D01*
X139218761Y-116399333D01*
X139123523Y-116446952D01*
X138742571Y-116446952D01*
X138647333Y-116399333D01*
X138599714Y-116304095D01*
X138599714Y-116113619D01*
X138647333Y-116018380D01*
X138742571Y-115970761D01*
X138837809Y-115970761D01*
X138933047Y-116446952D01*
X138599714Y-115637428D02*
X139266380Y-115399333D01*
X138599714Y-115161238D01*
X139218761Y-114399333D02*
X139266380Y-114494571D01*
X139266380Y-114685047D01*
X139218761Y-114780285D01*
X139123523Y-114827904D01*
X138742571Y-114827904D01*
X138647333Y-114780285D01*
X138599714Y-114685047D01*
X138599714Y-114494571D01*
X138647333Y-114399333D01*
X138742571Y-114351714D01*
X138837809Y-114351714D01*
X138933047Y-114827904D01*
X139266380Y-113780285D02*
X139218761Y-113875523D01*
X139123523Y-113923142D01*
X138266380Y-113923142D01*
X138599714Y-112970761D02*
X139266380Y-112970761D01*
X138218761Y-113208857D02*
X138933047Y-113446952D01*
X138933047Y-112827904D01*
%TO.C,Level3*%
X125785580Y-116732666D02*
X125785580Y-117208857D01*
X124785580Y-117208857D01*
X125737961Y-116018380D02*
X125785580Y-116113619D01*
X125785580Y-116304095D01*
X125737961Y-116399333D01*
X125642723Y-116446952D01*
X125261771Y-116446952D01*
X125166533Y-116399333D01*
X125118914Y-116304095D01*
X125118914Y-116113619D01*
X125166533Y-116018380D01*
X125261771Y-115970761D01*
X125357009Y-115970761D01*
X125452247Y-116446952D01*
X125118914Y-115637428D02*
X125785580Y-115399333D01*
X125118914Y-115161238D01*
X125737961Y-114399333D02*
X125785580Y-114494571D01*
X125785580Y-114685047D01*
X125737961Y-114780285D01*
X125642723Y-114827904D01*
X125261771Y-114827904D01*
X125166533Y-114780285D01*
X125118914Y-114685047D01*
X125118914Y-114494571D01*
X125166533Y-114399333D01*
X125261771Y-114351714D01*
X125357009Y-114351714D01*
X125452247Y-114827904D01*
X125785580Y-113780285D02*
X125737961Y-113875523D01*
X125642723Y-113923142D01*
X124785580Y-113923142D01*
X124785580Y-113494571D02*
X124785580Y-112875523D01*
X125166533Y-113208857D01*
X125166533Y-113066000D01*
X125214152Y-112970761D01*
X125261771Y-112923142D01*
X125357009Y-112875523D01*
X125595104Y-112875523D01*
X125690342Y-112923142D01*
X125737961Y-112970761D01*
X125785580Y-113066000D01*
X125785580Y-113351714D01*
X125737961Y-113446952D01*
X125690342Y-113494571D01*
%TO.C,Level2*%
X112374380Y-116732666D02*
X112374380Y-117208857D01*
X111374380Y-117208857D01*
X112326761Y-116018380D02*
X112374380Y-116113619D01*
X112374380Y-116304095D01*
X112326761Y-116399333D01*
X112231523Y-116446952D01*
X111850571Y-116446952D01*
X111755333Y-116399333D01*
X111707714Y-116304095D01*
X111707714Y-116113619D01*
X111755333Y-116018380D01*
X111850571Y-115970761D01*
X111945809Y-115970761D01*
X112041047Y-116446952D01*
X111707714Y-115637428D02*
X112374380Y-115399333D01*
X111707714Y-115161238D01*
X112326761Y-114399333D02*
X112374380Y-114494571D01*
X112374380Y-114685047D01*
X112326761Y-114780285D01*
X112231523Y-114827904D01*
X111850571Y-114827904D01*
X111755333Y-114780285D01*
X111707714Y-114685047D01*
X111707714Y-114494571D01*
X111755333Y-114399333D01*
X111850571Y-114351714D01*
X111945809Y-114351714D01*
X112041047Y-114827904D01*
X112374380Y-113780285D02*
X112326761Y-113875523D01*
X112231523Y-113923142D01*
X111374380Y-113923142D01*
X111469619Y-113446952D02*
X111422000Y-113399333D01*
X111374380Y-113304095D01*
X111374380Y-113066000D01*
X111422000Y-112970761D01*
X111469619Y-112923142D01*
X111564857Y-112875523D01*
X111660095Y-112875523D01*
X111802952Y-112923142D01*
X112374380Y-113494571D01*
X112374380Y-112875523D01*
%TO.C,Level1*%
X98912380Y-116732666D02*
X98912380Y-117208857D01*
X97912380Y-117208857D01*
X98864761Y-116018380D02*
X98912380Y-116113619D01*
X98912380Y-116304095D01*
X98864761Y-116399333D01*
X98769523Y-116446952D01*
X98388571Y-116446952D01*
X98293333Y-116399333D01*
X98245714Y-116304095D01*
X98245714Y-116113619D01*
X98293333Y-116018380D01*
X98388571Y-115970761D01*
X98483809Y-115970761D01*
X98579047Y-116446952D01*
X98245714Y-115637428D02*
X98912380Y-115399333D01*
X98245714Y-115161238D01*
X98864761Y-114399333D02*
X98912380Y-114494571D01*
X98912380Y-114685047D01*
X98864761Y-114780285D01*
X98769523Y-114827904D01*
X98388571Y-114827904D01*
X98293333Y-114780285D01*
X98245714Y-114685047D01*
X98245714Y-114494571D01*
X98293333Y-114399333D01*
X98388571Y-114351714D01*
X98483809Y-114351714D01*
X98579047Y-114827904D01*
X98912380Y-113780285D02*
X98864761Y-113875523D01*
X98769523Y-113923142D01*
X97912380Y-113923142D01*
X98912380Y-112875523D02*
X98912380Y-113446952D01*
X98912380Y-113161238D02*
X97912380Y-113161238D01*
X98055238Y-113256476D01*
X98150476Y-113351714D01*
X98198095Y-113446952D01*
%TO.C,Trim8*%
X68332203Y-126848200D02*
X68332203Y-126276771D01*
X69332203Y-126562486D02*
X68332203Y-126562486D01*
X69332203Y-125943438D02*
X68665537Y-125943438D01*
X68856013Y-125943438D02*
X68760775Y-125895819D01*
X68713156Y-125848200D01*
X68665537Y-125752962D01*
X68665537Y-125657724D01*
X69332203Y-125324390D02*
X68665537Y-125324390D01*
X68332203Y-125324390D02*
X68379823Y-125372010D01*
X68427442Y-125324390D01*
X68379823Y-125276771D01*
X68332203Y-125324390D01*
X68427442Y-125324390D01*
X69332203Y-124848200D02*
X68665537Y-124848200D01*
X68760775Y-124848200D02*
X68713156Y-124800581D01*
X68665537Y-124705343D01*
X68665537Y-124562486D01*
X68713156Y-124467248D01*
X68808394Y-124419629D01*
X69332203Y-124419629D01*
X68808394Y-124419629D02*
X68713156Y-124372010D01*
X68665537Y-124276771D01*
X68665537Y-124133914D01*
X68713156Y-124038676D01*
X68808394Y-123991057D01*
X69332203Y-123991057D01*
X68760775Y-123372010D02*
X68713156Y-123467248D01*
X68665537Y-123514867D01*
X68570299Y-123562486D01*
X68522680Y-123562486D01*
X68427442Y-123514867D01*
X68379823Y-123467248D01*
X68332203Y-123372010D01*
X68332203Y-123181533D01*
X68379823Y-123086295D01*
X68427442Y-123038676D01*
X68522680Y-122991057D01*
X68570299Y-122991057D01*
X68665537Y-123038676D01*
X68713156Y-123086295D01*
X68760775Y-123181533D01*
X68760775Y-123372010D01*
X68808394Y-123467248D01*
X68856013Y-123514867D01*
X68951251Y-123562486D01*
X69141727Y-123562486D01*
X69236965Y-123514867D01*
X69284584Y-123467248D01*
X69332203Y-123372010D01*
X69332203Y-123181533D01*
X69284584Y-123086295D01*
X69236965Y-123038676D01*
X69141727Y-122991057D01*
X68951251Y-122991057D01*
X68856013Y-123038676D01*
X68808394Y-123086295D01*
X68760775Y-123181533D01*
%TO.C,Trim7*%
X68332203Y-113405872D02*
X68332203Y-112834443D01*
X69332203Y-113120158D02*
X68332203Y-113120158D01*
X69332203Y-112501110D02*
X68665537Y-112501110D01*
X68856013Y-112501110D02*
X68760775Y-112453491D01*
X68713156Y-112405872D01*
X68665537Y-112310634D01*
X68665537Y-112215396D01*
X69332203Y-111882062D02*
X68665537Y-111882062D01*
X68332203Y-111882062D02*
X68379823Y-111929682D01*
X68427442Y-111882062D01*
X68379823Y-111834443D01*
X68332203Y-111882062D01*
X68427442Y-111882062D01*
X69332203Y-111405872D02*
X68665537Y-111405872D01*
X68760775Y-111405872D02*
X68713156Y-111358253D01*
X68665537Y-111263015D01*
X68665537Y-111120158D01*
X68713156Y-111024920D01*
X68808394Y-110977301D01*
X69332203Y-110977301D01*
X68808394Y-110977301D02*
X68713156Y-110929682D01*
X68665537Y-110834443D01*
X68665537Y-110691586D01*
X68713156Y-110596348D01*
X68808394Y-110548729D01*
X69332203Y-110548729D01*
X68332203Y-110167777D02*
X68332203Y-109501110D01*
X69332203Y-109929682D01*
%TO.C,Trim6*%
X68305483Y-99921709D02*
X68305483Y-99350280D01*
X69305483Y-99635995D02*
X68305483Y-99635995D01*
X69305483Y-99016947D02*
X68638817Y-99016947D01*
X68829293Y-99016947D02*
X68734055Y-98969328D01*
X68686436Y-98921709D01*
X68638817Y-98826471D01*
X68638817Y-98731233D01*
X69305483Y-98397899D02*
X68638817Y-98397899D01*
X68305483Y-98397899D02*
X68353103Y-98445519D01*
X68400722Y-98397899D01*
X68353103Y-98350280D01*
X68305483Y-98397899D01*
X68400722Y-98397899D01*
X69305483Y-97921709D02*
X68638817Y-97921709D01*
X68734055Y-97921709D02*
X68686436Y-97874090D01*
X68638817Y-97778852D01*
X68638817Y-97635995D01*
X68686436Y-97540757D01*
X68781674Y-97493138D01*
X69305483Y-97493138D01*
X68781674Y-97493138D02*
X68686436Y-97445519D01*
X68638817Y-97350280D01*
X68638817Y-97207423D01*
X68686436Y-97112185D01*
X68781674Y-97064566D01*
X69305483Y-97064566D01*
X68305483Y-96159804D02*
X68305483Y-96350280D01*
X68353103Y-96445519D01*
X68400722Y-96493138D01*
X68543579Y-96588376D01*
X68734055Y-96635995D01*
X69115007Y-96635995D01*
X69210245Y-96588376D01*
X69257864Y-96540757D01*
X69305483Y-96445519D01*
X69305483Y-96255042D01*
X69257864Y-96159804D01*
X69210245Y-96112185D01*
X69115007Y-96064566D01*
X68876912Y-96064566D01*
X68781674Y-96112185D01*
X68734055Y-96159804D01*
X68686436Y-96255042D01*
X68686436Y-96445519D01*
X68734055Y-96540757D01*
X68781674Y-96588376D01*
X68876912Y-96635995D01*
%TO.C,Trim5*%
X68305483Y-86447147D02*
X68305483Y-85875718D01*
X69305483Y-86161433D02*
X68305483Y-86161433D01*
X69305483Y-85542385D02*
X68638817Y-85542385D01*
X68829293Y-85542385D02*
X68734055Y-85494766D01*
X68686436Y-85447147D01*
X68638817Y-85351909D01*
X68638817Y-85256671D01*
X69305483Y-84923337D02*
X68638817Y-84923337D01*
X68305483Y-84923337D02*
X68353103Y-84970957D01*
X68400722Y-84923337D01*
X68353103Y-84875718D01*
X68305483Y-84923337D01*
X68400722Y-84923337D01*
X69305483Y-84447147D02*
X68638817Y-84447147D01*
X68734055Y-84447147D02*
X68686436Y-84399528D01*
X68638817Y-84304290D01*
X68638817Y-84161433D01*
X68686436Y-84066195D01*
X68781674Y-84018576D01*
X69305483Y-84018576D01*
X68781674Y-84018576D02*
X68686436Y-83970957D01*
X68638817Y-83875718D01*
X68638817Y-83732861D01*
X68686436Y-83637623D01*
X68781674Y-83590004D01*
X69305483Y-83590004D01*
X68305483Y-82637623D02*
X68305483Y-83113814D01*
X68781674Y-83161433D01*
X68734055Y-83113814D01*
X68686436Y-83018576D01*
X68686436Y-82780480D01*
X68734055Y-82685242D01*
X68781674Y-82637623D01*
X68876912Y-82590004D01*
X69115007Y-82590004D01*
X69210245Y-82637623D01*
X69257864Y-82685242D01*
X69305483Y-82780480D01*
X69305483Y-83018576D01*
X69257864Y-83113814D01*
X69210245Y-83161433D01*
%TO.C,Trim4*%
X68309380Y-72969190D02*
X68309380Y-72397761D01*
X69309380Y-72683476D02*
X68309380Y-72683476D01*
X69309380Y-72064428D02*
X68642714Y-72064428D01*
X68833190Y-72064428D02*
X68737952Y-72016809D01*
X68690333Y-71969190D01*
X68642714Y-71873952D01*
X68642714Y-71778714D01*
X69309380Y-71445380D02*
X68642714Y-71445380D01*
X68309380Y-71445380D02*
X68357000Y-71493000D01*
X68404619Y-71445380D01*
X68357000Y-71397761D01*
X68309380Y-71445380D01*
X68404619Y-71445380D01*
X69309380Y-70969190D02*
X68642714Y-70969190D01*
X68737952Y-70969190D02*
X68690333Y-70921571D01*
X68642714Y-70826333D01*
X68642714Y-70683476D01*
X68690333Y-70588238D01*
X68785571Y-70540619D01*
X69309380Y-70540619D01*
X68785571Y-70540619D02*
X68690333Y-70493000D01*
X68642714Y-70397761D01*
X68642714Y-70254904D01*
X68690333Y-70159666D01*
X68785571Y-70112047D01*
X69309380Y-70112047D01*
X68642714Y-69207285D02*
X69309380Y-69207285D01*
X68261761Y-69445380D02*
X68976047Y-69683476D01*
X68976047Y-69064428D01*
%TO.C,Trim3*%
X68309380Y-59507190D02*
X68309380Y-58935761D01*
X69309380Y-59221476D02*
X68309380Y-59221476D01*
X69309380Y-58602428D02*
X68642714Y-58602428D01*
X68833190Y-58602428D02*
X68737952Y-58554809D01*
X68690333Y-58507190D01*
X68642714Y-58411952D01*
X68642714Y-58316714D01*
X69309380Y-57983380D02*
X68642714Y-57983380D01*
X68309380Y-57983380D02*
X68357000Y-58031000D01*
X68404619Y-57983380D01*
X68357000Y-57935761D01*
X68309380Y-57983380D01*
X68404619Y-57983380D01*
X69309380Y-57507190D02*
X68642714Y-57507190D01*
X68737952Y-57507190D02*
X68690333Y-57459571D01*
X68642714Y-57364333D01*
X68642714Y-57221476D01*
X68690333Y-57126238D01*
X68785571Y-57078619D01*
X69309380Y-57078619D01*
X68785571Y-57078619D02*
X68690333Y-57031000D01*
X68642714Y-56935761D01*
X68642714Y-56792904D01*
X68690333Y-56697666D01*
X68785571Y-56650047D01*
X69309380Y-56650047D01*
X68309380Y-56269095D02*
X68309380Y-55650047D01*
X68690333Y-55983380D01*
X68690333Y-55840523D01*
X68737952Y-55745285D01*
X68785571Y-55697666D01*
X68880809Y-55650047D01*
X69118904Y-55650047D01*
X69214142Y-55697666D01*
X69261761Y-55745285D01*
X69309380Y-55840523D01*
X69309380Y-56126238D01*
X69261761Y-56221476D01*
X69214142Y-56269095D01*
%TO.C,Trim2*%
X68309380Y-46172190D02*
X68309380Y-45600761D01*
X69309380Y-45886476D02*
X68309380Y-45886476D01*
X69309380Y-45267428D02*
X68642714Y-45267428D01*
X68833190Y-45267428D02*
X68737952Y-45219809D01*
X68690333Y-45172190D01*
X68642714Y-45076952D01*
X68642714Y-44981714D01*
X69309380Y-44648380D02*
X68642714Y-44648380D01*
X68309380Y-44648380D02*
X68357000Y-44696000D01*
X68404619Y-44648380D01*
X68357000Y-44600761D01*
X68309380Y-44648380D01*
X68404619Y-44648380D01*
X69309380Y-44172190D02*
X68642714Y-44172190D01*
X68737952Y-44172190D02*
X68690333Y-44124571D01*
X68642714Y-44029333D01*
X68642714Y-43886476D01*
X68690333Y-43791238D01*
X68785571Y-43743619D01*
X69309380Y-43743619D01*
X68785571Y-43743619D02*
X68690333Y-43696000D01*
X68642714Y-43600761D01*
X68642714Y-43457904D01*
X68690333Y-43362666D01*
X68785571Y-43315047D01*
X69309380Y-43315047D01*
X68404619Y-42886476D02*
X68357000Y-42838857D01*
X68309380Y-42743619D01*
X68309380Y-42505523D01*
X68357000Y-42410285D01*
X68404619Y-42362666D01*
X68499857Y-42315047D01*
X68595095Y-42315047D01*
X68737952Y-42362666D01*
X69309380Y-42934095D01*
X69309380Y-42315047D01*
%TO.C,Trim1*%
X68309380Y-32710190D02*
X68309380Y-32138761D01*
X69309380Y-32424476D02*
X68309380Y-32424476D01*
X69309380Y-31805428D02*
X68642714Y-31805428D01*
X68833190Y-31805428D02*
X68737952Y-31757809D01*
X68690333Y-31710190D01*
X68642714Y-31614952D01*
X68642714Y-31519714D01*
X69309380Y-31186380D02*
X68642714Y-31186380D01*
X68309380Y-31186380D02*
X68357000Y-31234000D01*
X68404619Y-31186380D01*
X68357000Y-31138761D01*
X68309380Y-31186380D01*
X68404619Y-31186380D01*
X69309380Y-30710190D02*
X68642714Y-30710190D01*
X68737952Y-30710190D02*
X68690333Y-30662571D01*
X68642714Y-30567333D01*
X68642714Y-30424476D01*
X68690333Y-30329238D01*
X68785571Y-30281619D01*
X69309380Y-30281619D01*
X68785571Y-30281619D02*
X68690333Y-30234000D01*
X68642714Y-30138761D01*
X68642714Y-29995904D01*
X68690333Y-29900666D01*
X68785571Y-29853047D01*
X69309380Y-29853047D01*
X69309380Y-28853047D02*
X69309380Y-29424476D01*
X69309380Y-29138761D02*
X68309380Y-29138761D01*
X68452238Y-29234000D01*
X68547476Y-29329238D01*
X68595095Y-29424476D01*
%TO.C,Pan8*%
X179517780Y-84497657D02*
X178517780Y-84497657D01*
X178517780Y-84116704D01*
X178565400Y-84021466D01*
X178613019Y-83973847D01*
X178708257Y-83926228D01*
X178851114Y-83926228D01*
X178946352Y-83973847D01*
X178993971Y-84021466D01*
X179041590Y-84116704D01*
X179041590Y-84497657D01*
X179517780Y-83069085D02*
X178993971Y-83069085D01*
X178898733Y-83116704D01*
X178851114Y-83211942D01*
X178851114Y-83402419D01*
X178898733Y-83497657D01*
X179470161Y-83069085D02*
X179517780Y-83164323D01*
X179517780Y-83402419D01*
X179470161Y-83497657D01*
X179374923Y-83545276D01*
X179279685Y-83545276D01*
X179184447Y-83497657D01*
X179136828Y-83402419D01*
X179136828Y-83164323D01*
X179089209Y-83069085D01*
X178851114Y-82592895D02*
X179517780Y-82592895D01*
X178946352Y-82592895D02*
X178898733Y-82545276D01*
X178851114Y-82450038D01*
X178851114Y-82307180D01*
X178898733Y-82211942D01*
X178993971Y-82164323D01*
X179517780Y-82164323D01*
X178946352Y-81545276D02*
X178898733Y-81640514D01*
X178851114Y-81688133D01*
X178755876Y-81735752D01*
X178708257Y-81735752D01*
X178613019Y-81688133D01*
X178565400Y-81640514D01*
X178517780Y-81545276D01*
X178517780Y-81354800D01*
X178565400Y-81259561D01*
X178613019Y-81211942D01*
X178708257Y-81164323D01*
X178755876Y-81164323D01*
X178851114Y-81211942D01*
X178898733Y-81259561D01*
X178946352Y-81354800D01*
X178946352Y-81545276D01*
X178993971Y-81640514D01*
X179041590Y-81688133D01*
X179136828Y-81735752D01*
X179327304Y-81735752D01*
X179422542Y-81688133D01*
X179470161Y-81640514D01*
X179517780Y-81545276D01*
X179517780Y-81354800D01*
X179470161Y-81259561D01*
X179422542Y-81211942D01*
X179327304Y-81164323D01*
X179136828Y-81164323D01*
X179041590Y-81211942D01*
X178993971Y-81259561D01*
X178946352Y-81354800D01*
%TO.C,Pan7*%
X166121180Y-84492857D02*
X165121180Y-84492857D01*
X165121180Y-84111904D01*
X165168800Y-84016666D01*
X165216419Y-83969047D01*
X165311657Y-83921428D01*
X165454514Y-83921428D01*
X165549752Y-83969047D01*
X165597371Y-84016666D01*
X165644990Y-84111904D01*
X165644990Y-84492857D01*
X166121180Y-83064285D02*
X165597371Y-83064285D01*
X165502133Y-83111904D01*
X165454514Y-83207142D01*
X165454514Y-83397619D01*
X165502133Y-83492857D01*
X166073561Y-83064285D02*
X166121180Y-83159523D01*
X166121180Y-83397619D01*
X166073561Y-83492857D01*
X165978323Y-83540476D01*
X165883085Y-83540476D01*
X165787847Y-83492857D01*
X165740228Y-83397619D01*
X165740228Y-83159523D01*
X165692609Y-83064285D01*
X165454514Y-82588095D02*
X166121180Y-82588095D01*
X165549752Y-82588095D02*
X165502133Y-82540476D01*
X165454514Y-82445238D01*
X165454514Y-82302380D01*
X165502133Y-82207142D01*
X165597371Y-82159523D01*
X166121180Y-82159523D01*
X165121180Y-81778571D02*
X165121180Y-81111904D01*
X166121180Y-81540476D01*
%TO.C,Pan6*%
X152709980Y-84492857D02*
X151709980Y-84492857D01*
X151709980Y-84111904D01*
X151757600Y-84016666D01*
X151805219Y-83969047D01*
X151900457Y-83921428D01*
X152043314Y-83921428D01*
X152138552Y-83969047D01*
X152186171Y-84016666D01*
X152233790Y-84111904D01*
X152233790Y-84492857D01*
X152709980Y-83064285D02*
X152186171Y-83064285D01*
X152090933Y-83111904D01*
X152043314Y-83207142D01*
X152043314Y-83397619D01*
X152090933Y-83492857D01*
X152662361Y-83064285D02*
X152709980Y-83159523D01*
X152709980Y-83397619D01*
X152662361Y-83492857D01*
X152567123Y-83540476D01*
X152471885Y-83540476D01*
X152376647Y-83492857D01*
X152329028Y-83397619D01*
X152329028Y-83159523D01*
X152281409Y-83064285D01*
X152043314Y-82588095D02*
X152709980Y-82588095D01*
X152138552Y-82588095D02*
X152090933Y-82540476D01*
X152043314Y-82445238D01*
X152043314Y-82302380D01*
X152090933Y-82207142D01*
X152186171Y-82159523D01*
X152709980Y-82159523D01*
X151709980Y-81254761D02*
X151709980Y-81445238D01*
X151757600Y-81540476D01*
X151805219Y-81588095D01*
X151948076Y-81683333D01*
X152138552Y-81730952D01*
X152519504Y-81730952D01*
X152614742Y-81683333D01*
X152662361Y-81635714D01*
X152709980Y-81540476D01*
X152709980Y-81350000D01*
X152662361Y-81254761D01*
X152614742Y-81207142D01*
X152519504Y-81159523D01*
X152281409Y-81159523D01*
X152186171Y-81207142D01*
X152138552Y-81254761D01*
X152090933Y-81350000D01*
X152090933Y-81540476D01*
X152138552Y-81635714D01*
X152186171Y-81683333D01*
X152281409Y-81730952D01*
%TO.C,Pan5*%
X139284180Y-84492857D02*
X138284180Y-84492857D01*
X138284180Y-84111904D01*
X138331800Y-84016666D01*
X138379419Y-83969047D01*
X138474657Y-83921428D01*
X138617514Y-83921428D01*
X138712752Y-83969047D01*
X138760371Y-84016666D01*
X138807990Y-84111904D01*
X138807990Y-84492857D01*
X139284180Y-83064285D02*
X138760371Y-83064285D01*
X138665133Y-83111904D01*
X138617514Y-83207142D01*
X138617514Y-83397619D01*
X138665133Y-83492857D01*
X139236561Y-83064285D02*
X139284180Y-83159523D01*
X139284180Y-83397619D01*
X139236561Y-83492857D01*
X139141323Y-83540476D01*
X139046085Y-83540476D01*
X138950847Y-83492857D01*
X138903228Y-83397619D01*
X138903228Y-83159523D01*
X138855609Y-83064285D01*
X138617514Y-82588095D02*
X139284180Y-82588095D01*
X138712752Y-82588095D02*
X138665133Y-82540476D01*
X138617514Y-82445238D01*
X138617514Y-82302380D01*
X138665133Y-82207142D01*
X138760371Y-82159523D01*
X139284180Y-82159523D01*
X138284180Y-81207142D02*
X138284180Y-81683333D01*
X138760371Y-81730952D01*
X138712752Y-81683333D01*
X138665133Y-81588095D01*
X138665133Y-81350000D01*
X138712752Y-81254761D01*
X138760371Y-81207142D01*
X138855609Y-81159523D01*
X139093704Y-81159523D01*
X139188942Y-81207142D01*
X139236561Y-81254761D01*
X139284180Y-81350000D01*
X139284180Y-81588095D01*
X139236561Y-81683333D01*
X139188942Y-81730952D01*
%TO.C,Pan4*%
X125811380Y-84492857D02*
X124811380Y-84492857D01*
X124811380Y-84111904D01*
X124859000Y-84016666D01*
X124906619Y-83969047D01*
X125001857Y-83921428D01*
X125144714Y-83921428D01*
X125239952Y-83969047D01*
X125287571Y-84016666D01*
X125335190Y-84111904D01*
X125335190Y-84492857D01*
X125811380Y-83064285D02*
X125287571Y-83064285D01*
X125192333Y-83111904D01*
X125144714Y-83207142D01*
X125144714Y-83397619D01*
X125192333Y-83492857D01*
X125763761Y-83064285D02*
X125811380Y-83159523D01*
X125811380Y-83397619D01*
X125763761Y-83492857D01*
X125668523Y-83540476D01*
X125573285Y-83540476D01*
X125478047Y-83492857D01*
X125430428Y-83397619D01*
X125430428Y-83159523D01*
X125382809Y-83064285D01*
X125144714Y-82588095D02*
X125811380Y-82588095D01*
X125239952Y-82588095D02*
X125192333Y-82540476D01*
X125144714Y-82445238D01*
X125144714Y-82302380D01*
X125192333Y-82207142D01*
X125287571Y-82159523D01*
X125811380Y-82159523D01*
X125144714Y-81254761D02*
X125811380Y-81254761D01*
X124763761Y-81492857D02*
X125478047Y-81730952D01*
X125478047Y-81111904D01*
%TO.C,Pan3*%
X112360180Y-84497657D02*
X111360180Y-84497657D01*
X111360180Y-84116704D01*
X111407800Y-84021466D01*
X111455419Y-83973847D01*
X111550657Y-83926228D01*
X111693514Y-83926228D01*
X111788752Y-83973847D01*
X111836371Y-84021466D01*
X111883990Y-84116704D01*
X111883990Y-84497657D01*
X112360180Y-83069085D02*
X111836371Y-83069085D01*
X111741133Y-83116704D01*
X111693514Y-83211942D01*
X111693514Y-83402419D01*
X111741133Y-83497657D01*
X112312561Y-83069085D02*
X112360180Y-83164323D01*
X112360180Y-83402419D01*
X112312561Y-83497657D01*
X112217323Y-83545276D01*
X112122085Y-83545276D01*
X112026847Y-83497657D01*
X111979228Y-83402419D01*
X111979228Y-83164323D01*
X111931609Y-83069085D01*
X111693514Y-82592895D02*
X112360180Y-82592895D01*
X111788752Y-82592895D02*
X111741133Y-82545276D01*
X111693514Y-82450038D01*
X111693514Y-82307180D01*
X111741133Y-82211942D01*
X111836371Y-82164323D01*
X112360180Y-82164323D01*
X111360180Y-81783371D02*
X111360180Y-81164323D01*
X111741133Y-81497657D01*
X111741133Y-81354800D01*
X111788752Y-81259561D01*
X111836371Y-81211942D01*
X111931609Y-81164323D01*
X112169704Y-81164323D01*
X112264942Y-81211942D01*
X112312561Y-81259561D01*
X112360180Y-81354800D01*
X112360180Y-81640514D01*
X112312561Y-81735752D01*
X112264942Y-81783371D01*
%TO.C,Pan2*%
X98923580Y-84497657D02*
X97923580Y-84497657D01*
X97923580Y-84116704D01*
X97971200Y-84021466D01*
X98018819Y-83973847D01*
X98114057Y-83926228D01*
X98256914Y-83926228D01*
X98352152Y-83973847D01*
X98399771Y-84021466D01*
X98447390Y-84116704D01*
X98447390Y-84497657D01*
X98923580Y-83069085D02*
X98399771Y-83069085D01*
X98304533Y-83116704D01*
X98256914Y-83211942D01*
X98256914Y-83402419D01*
X98304533Y-83497657D01*
X98875961Y-83069085D02*
X98923580Y-83164323D01*
X98923580Y-83402419D01*
X98875961Y-83497657D01*
X98780723Y-83545276D01*
X98685485Y-83545276D01*
X98590247Y-83497657D01*
X98542628Y-83402419D01*
X98542628Y-83164323D01*
X98495009Y-83069085D01*
X98256914Y-82592895D02*
X98923580Y-82592895D01*
X98352152Y-82592895D02*
X98304533Y-82545276D01*
X98256914Y-82450038D01*
X98256914Y-82307180D01*
X98304533Y-82211942D01*
X98399771Y-82164323D01*
X98923580Y-82164323D01*
X98018819Y-81735752D02*
X97971200Y-81688133D01*
X97923580Y-81592895D01*
X97923580Y-81354800D01*
X97971200Y-81259561D01*
X98018819Y-81211942D01*
X98114057Y-81164323D01*
X98209295Y-81164323D01*
X98352152Y-81211942D01*
X98923580Y-81783371D01*
X98923580Y-81164323D01*
%TO.C,Pan1*%
X85512380Y-84492857D02*
X84512380Y-84492857D01*
X84512380Y-84111904D01*
X84560000Y-84016666D01*
X84607619Y-83969047D01*
X84702857Y-83921428D01*
X84845714Y-83921428D01*
X84940952Y-83969047D01*
X84988571Y-84016666D01*
X85036190Y-84111904D01*
X85036190Y-84492857D01*
X85512380Y-83064285D02*
X84988571Y-83064285D01*
X84893333Y-83111904D01*
X84845714Y-83207142D01*
X84845714Y-83397619D01*
X84893333Y-83492857D01*
X85464761Y-83064285D02*
X85512380Y-83159523D01*
X85512380Y-83397619D01*
X85464761Y-83492857D01*
X85369523Y-83540476D01*
X85274285Y-83540476D01*
X85179047Y-83492857D01*
X85131428Y-83397619D01*
X85131428Y-83159523D01*
X85083809Y-83064285D01*
X84845714Y-82588095D02*
X85512380Y-82588095D01*
X84940952Y-82588095D02*
X84893333Y-82540476D01*
X84845714Y-82445238D01*
X84845714Y-82302380D01*
X84893333Y-82207142D01*
X84988571Y-82159523D01*
X85512380Y-82159523D01*
X85512380Y-81159523D02*
X85512380Y-81730952D01*
X85512380Y-81445238D02*
X84512380Y-81445238D01*
X84655238Y-81540476D01*
X84750476Y-81635714D01*
X84798095Y-81730952D01*
%TO.C,OutR301*%
X193907095Y-28445380D02*
X194097571Y-28445380D01*
X194192809Y-28493000D01*
X194288047Y-28588238D01*
X194335666Y-28778714D01*
X194335666Y-29112047D01*
X194288047Y-29302523D01*
X194192809Y-29397761D01*
X194097571Y-29445380D01*
X193907095Y-29445380D01*
X193811857Y-29397761D01*
X193716619Y-29302523D01*
X193669000Y-29112047D01*
X193669000Y-28778714D01*
X193716619Y-28588238D01*
X193811857Y-28493000D01*
X193907095Y-28445380D01*
X195192809Y-28778714D02*
X195192809Y-29445380D01*
X194764238Y-28778714D02*
X194764238Y-29302523D01*
X194811857Y-29397761D01*
X194907095Y-29445380D01*
X195049952Y-29445380D01*
X195145190Y-29397761D01*
X195192809Y-29350142D01*
X195526142Y-28778714D02*
X195907095Y-28778714D01*
X195669000Y-28445380D02*
X195669000Y-29302523D01*
X195716619Y-29397761D01*
X195811857Y-29445380D01*
X195907095Y-29445380D01*
X196811857Y-29445380D02*
X196478523Y-28969190D01*
X196240428Y-29445380D02*
X196240428Y-28445380D01*
X196621380Y-28445380D01*
X196716619Y-28493000D01*
X196764238Y-28540619D01*
X196811857Y-28635857D01*
X196811857Y-28778714D01*
X196764238Y-28873952D01*
X196716619Y-28921571D01*
X196621380Y-28969190D01*
X196240428Y-28969190D01*
X197145190Y-28445380D02*
X197764238Y-28445380D01*
X197430904Y-28826333D01*
X197573761Y-28826333D01*
X197669000Y-28873952D01*
X197716619Y-28921571D01*
X197764238Y-29016809D01*
X197764238Y-29254904D01*
X197716619Y-29350142D01*
X197669000Y-29397761D01*
X197573761Y-29445380D01*
X197288047Y-29445380D01*
X197192809Y-29397761D01*
X197145190Y-29350142D01*
X198383285Y-28445380D02*
X198478523Y-28445380D01*
X198573761Y-28493000D01*
X198621380Y-28540619D01*
X198669000Y-28635857D01*
X198716619Y-28826333D01*
X198716619Y-29064428D01*
X198669000Y-29254904D01*
X198621380Y-29350142D01*
X198573761Y-29397761D01*
X198478523Y-29445380D01*
X198383285Y-29445380D01*
X198288047Y-29397761D01*
X198240428Y-29350142D01*
X198192809Y-29254904D01*
X198145190Y-29064428D01*
X198145190Y-28826333D01*
X198192809Y-28635857D01*
X198240428Y-28540619D01*
X198288047Y-28493000D01*
X198383285Y-28445380D01*
X199669000Y-29445380D02*
X199097571Y-29445380D01*
X199383285Y-29445380D02*
X199383285Y-28445380D01*
X199288047Y-28588238D01*
X199192809Y-28683476D01*
X199097571Y-28731095D01*
%TO.C,OutL301*%
X183676333Y-28445380D02*
X183866809Y-28445380D01*
X183962047Y-28493000D01*
X184057285Y-28588238D01*
X184104904Y-28778714D01*
X184104904Y-29112047D01*
X184057285Y-29302523D01*
X183962047Y-29397761D01*
X183866809Y-29445380D01*
X183676333Y-29445380D01*
X183581095Y-29397761D01*
X183485857Y-29302523D01*
X183438238Y-29112047D01*
X183438238Y-28778714D01*
X183485857Y-28588238D01*
X183581095Y-28493000D01*
X183676333Y-28445380D01*
X184962047Y-28778714D02*
X184962047Y-29445380D01*
X184533476Y-28778714D02*
X184533476Y-29302523D01*
X184581095Y-29397761D01*
X184676333Y-29445380D01*
X184819190Y-29445380D01*
X184914428Y-29397761D01*
X184962047Y-29350142D01*
X185295380Y-28778714D02*
X185676333Y-28778714D01*
X185438238Y-28445380D02*
X185438238Y-29302523D01*
X185485857Y-29397761D01*
X185581095Y-29445380D01*
X185676333Y-29445380D01*
X186485857Y-29445380D02*
X186009666Y-29445380D01*
X186009666Y-28445380D01*
X186723952Y-28445380D02*
X187343000Y-28445380D01*
X187009666Y-28826333D01*
X187152523Y-28826333D01*
X187247761Y-28873952D01*
X187295380Y-28921571D01*
X187343000Y-29016809D01*
X187343000Y-29254904D01*
X187295380Y-29350142D01*
X187247761Y-29397761D01*
X187152523Y-29445380D01*
X186866809Y-29445380D01*
X186771571Y-29397761D01*
X186723952Y-29350142D01*
X187962047Y-28445380D02*
X188057285Y-28445380D01*
X188152523Y-28493000D01*
X188200142Y-28540619D01*
X188247761Y-28635857D01*
X188295380Y-28826333D01*
X188295380Y-29064428D01*
X188247761Y-29254904D01*
X188200142Y-29350142D01*
X188152523Y-29397761D01*
X188057285Y-29445380D01*
X187962047Y-29445380D01*
X187866809Y-29397761D01*
X187819190Y-29350142D01*
X187771571Y-29254904D01*
X187723952Y-29064428D01*
X187723952Y-28826333D01*
X187771571Y-28635857D01*
X187819190Y-28540619D01*
X187866809Y-28493000D01*
X187962047Y-28445380D01*
X189247761Y-29445380D02*
X188676333Y-29445380D01*
X188962047Y-29445380D02*
X188962047Y-28445380D01*
X188866809Y-28588238D01*
X188771571Y-28683476D01*
X188676333Y-28731095D01*
%TO.C,mute8*%
X184618571Y-90671580D02*
X184618571Y-90004914D01*
X184618571Y-90100152D02*
X184666190Y-90052533D01*
X184761428Y-90004914D01*
X184904285Y-90004914D01*
X184999523Y-90052533D01*
X185047142Y-90147771D01*
X185047142Y-90671580D01*
X185047142Y-90147771D02*
X185094761Y-90052533D01*
X185190000Y-90004914D01*
X185332857Y-90004914D01*
X185428095Y-90052533D01*
X185475714Y-90147771D01*
X185475714Y-90671580D01*
X186380476Y-90004914D02*
X186380476Y-90671580D01*
X185951904Y-90004914D02*
X185951904Y-90528723D01*
X185999523Y-90623961D01*
X186094761Y-90671580D01*
X186237619Y-90671580D01*
X186332857Y-90623961D01*
X186380476Y-90576342D01*
X186713809Y-90004914D02*
X187094761Y-90004914D01*
X186856666Y-89671580D02*
X186856666Y-90528723D01*
X186904285Y-90623961D01*
X186999523Y-90671580D01*
X187094761Y-90671580D01*
X187809047Y-90623961D02*
X187713809Y-90671580D01*
X187523333Y-90671580D01*
X187428095Y-90623961D01*
X187380476Y-90528723D01*
X187380476Y-90147771D01*
X187428095Y-90052533D01*
X187523333Y-90004914D01*
X187713809Y-90004914D01*
X187809047Y-90052533D01*
X187856666Y-90147771D01*
X187856666Y-90243009D01*
X187380476Y-90338247D01*
X188428095Y-90100152D02*
X188332857Y-90052533D01*
X188285238Y-90004914D01*
X188237619Y-89909676D01*
X188237619Y-89862057D01*
X188285238Y-89766819D01*
X188332857Y-89719200D01*
X188428095Y-89671580D01*
X188618571Y-89671580D01*
X188713809Y-89719200D01*
X188761428Y-89766819D01*
X188809047Y-89862057D01*
X188809047Y-89909676D01*
X188761428Y-90004914D01*
X188713809Y-90052533D01*
X188618571Y-90100152D01*
X188428095Y-90100152D01*
X188332857Y-90147771D01*
X188285238Y-90195390D01*
X188237619Y-90290628D01*
X188237619Y-90481104D01*
X188285238Y-90576342D01*
X188332857Y-90623961D01*
X188428095Y-90671580D01*
X188618571Y-90671580D01*
X188713809Y-90623961D01*
X188761428Y-90576342D01*
X188809047Y-90481104D01*
X188809047Y-90290628D01*
X188761428Y-90195390D01*
X188713809Y-90147771D01*
X188618571Y-90100152D01*
%TO.C,mute7*%
X171207371Y-90635580D02*
X171207371Y-89968914D01*
X171207371Y-90064152D02*
X171254990Y-90016533D01*
X171350228Y-89968914D01*
X171493085Y-89968914D01*
X171588323Y-90016533D01*
X171635942Y-90111771D01*
X171635942Y-90635580D01*
X171635942Y-90111771D02*
X171683561Y-90016533D01*
X171778800Y-89968914D01*
X171921657Y-89968914D01*
X172016895Y-90016533D01*
X172064514Y-90111771D01*
X172064514Y-90635580D01*
X172969276Y-89968914D02*
X172969276Y-90635580D01*
X172540704Y-89968914D02*
X172540704Y-90492723D01*
X172588323Y-90587961D01*
X172683561Y-90635580D01*
X172826419Y-90635580D01*
X172921657Y-90587961D01*
X172969276Y-90540342D01*
X173302609Y-89968914D02*
X173683561Y-89968914D01*
X173445466Y-89635580D02*
X173445466Y-90492723D01*
X173493085Y-90587961D01*
X173588323Y-90635580D01*
X173683561Y-90635580D01*
X174397847Y-90587961D02*
X174302609Y-90635580D01*
X174112133Y-90635580D01*
X174016895Y-90587961D01*
X173969276Y-90492723D01*
X173969276Y-90111771D01*
X174016895Y-90016533D01*
X174112133Y-89968914D01*
X174302609Y-89968914D01*
X174397847Y-90016533D01*
X174445466Y-90111771D01*
X174445466Y-90207009D01*
X173969276Y-90302247D01*
X174778800Y-89635580D02*
X175445466Y-89635580D01*
X175016895Y-90635580D01*
%TO.C,mute6*%
X157796171Y-90646180D02*
X157796171Y-89979514D01*
X157796171Y-90074752D02*
X157843790Y-90027133D01*
X157939028Y-89979514D01*
X158081885Y-89979514D01*
X158177123Y-90027133D01*
X158224742Y-90122371D01*
X158224742Y-90646180D01*
X158224742Y-90122371D02*
X158272361Y-90027133D01*
X158367600Y-89979514D01*
X158510457Y-89979514D01*
X158605695Y-90027133D01*
X158653314Y-90122371D01*
X158653314Y-90646180D01*
X159558076Y-89979514D02*
X159558076Y-90646180D01*
X159129504Y-89979514D02*
X159129504Y-90503323D01*
X159177123Y-90598561D01*
X159272361Y-90646180D01*
X159415219Y-90646180D01*
X159510457Y-90598561D01*
X159558076Y-90550942D01*
X159891409Y-89979514D02*
X160272361Y-89979514D01*
X160034266Y-89646180D02*
X160034266Y-90503323D01*
X160081885Y-90598561D01*
X160177123Y-90646180D01*
X160272361Y-90646180D01*
X160986647Y-90598561D02*
X160891409Y-90646180D01*
X160700933Y-90646180D01*
X160605695Y-90598561D01*
X160558076Y-90503323D01*
X160558076Y-90122371D01*
X160605695Y-90027133D01*
X160700933Y-89979514D01*
X160891409Y-89979514D01*
X160986647Y-90027133D01*
X161034266Y-90122371D01*
X161034266Y-90217609D01*
X160558076Y-90312847D01*
X161891409Y-89646180D02*
X161700933Y-89646180D01*
X161605695Y-89693800D01*
X161558076Y-89741419D01*
X161462838Y-89884276D01*
X161415219Y-90074752D01*
X161415219Y-90455704D01*
X161462838Y-90550942D01*
X161510457Y-90598561D01*
X161605695Y-90646180D01*
X161796171Y-90646180D01*
X161891409Y-90598561D01*
X161939028Y-90550942D01*
X161986647Y-90455704D01*
X161986647Y-90217609D01*
X161939028Y-90122371D01*
X161891409Y-90074752D01*
X161796171Y-90027133D01*
X161605695Y-90027133D01*
X161510457Y-90074752D01*
X161462838Y-90122371D01*
X161415219Y-90217609D01*
%TO.C,mute5*%
X144359571Y-90671580D02*
X144359571Y-90004914D01*
X144359571Y-90100152D02*
X144407190Y-90052533D01*
X144502428Y-90004914D01*
X144645285Y-90004914D01*
X144740523Y-90052533D01*
X144788142Y-90147771D01*
X144788142Y-90671580D01*
X144788142Y-90147771D02*
X144835761Y-90052533D01*
X144931000Y-90004914D01*
X145073857Y-90004914D01*
X145169095Y-90052533D01*
X145216714Y-90147771D01*
X145216714Y-90671580D01*
X146121476Y-90004914D02*
X146121476Y-90671580D01*
X145692904Y-90004914D02*
X145692904Y-90528723D01*
X145740523Y-90623961D01*
X145835761Y-90671580D01*
X145978619Y-90671580D01*
X146073857Y-90623961D01*
X146121476Y-90576342D01*
X146454809Y-90004914D02*
X146835761Y-90004914D01*
X146597666Y-89671580D02*
X146597666Y-90528723D01*
X146645285Y-90623961D01*
X146740523Y-90671580D01*
X146835761Y-90671580D01*
X147550047Y-90623961D02*
X147454809Y-90671580D01*
X147264333Y-90671580D01*
X147169095Y-90623961D01*
X147121476Y-90528723D01*
X147121476Y-90147771D01*
X147169095Y-90052533D01*
X147264333Y-90004914D01*
X147454809Y-90004914D01*
X147550047Y-90052533D01*
X147597666Y-90147771D01*
X147597666Y-90243009D01*
X147121476Y-90338247D01*
X148502428Y-89671580D02*
X148026238Y-89671580D01*
X147978619Y-90147771D01*
X148026238Y-90100152D01*
X148121476Y-90052533D01*
X148359571Y-90052533D01*
X148454809Y-90100152D01*
X148502428Y-90147771D01*
X148550047Y-90243009D01*
X148550047Y-90481104D01*
X148502428Y-90576342D01*
X148454809Y-90623961D01*
X148359571Y-90671580D01*
X148121476Y-90671580D01*
X148026238Y-90623961D01*
X147978619Y-90576342D01*
%TO.C,mute4*%
X130999171Y-90660980D02*
X130999171Y-89994314D01*
X130999171Y-90089552D02*
X131046790Y-90041933D01*
X131142028Y-89994314D01*
X131284885Y-89994314D01*
X131380123Y-90041933D01*
X131427742Y-90137171D01*
X131427742Y-90660980D01*
X131427742Y-90137171D02*
X131475361Y-90041933D01*
X131570600Y-89994314D01*
X131713457Y-89994314D01*
X131808695Y-90041933D01*
X131856314Y-90137171D01*
X131856314Y-90660980D01*
X132761076Y-89994314D02*
X132761076Y-90660980D01*
X132332504Y-89994314D02*
X132332504Y-90518123D01*
X132380123Y-90613361D01*
X132475361Y-90660980D01*
X132618219Y-90660980D01*
X132713457Y-90613361D01*
X132761076Y-90565742D01*
X133094409Y-89994314D02*
X133475361Y-89994314D01*
X133237266Y-89660980D02*
X133237266Y-90518123D01*
X133284885Y-90613361D01*
X133380123Y-90660980D01*
X133475361Y-90660980D01*
X134189647Y-90613361D02*
X134094409Y-90660980D01*
X133903933Y-90660980D01*
X133808695Y-90613361D01*
X133761076Y-90518123D01*
X133761076Y-90137171D01*
X133808695Y-90041933D01*
X133903933Y-89994314D01*
X134094409Y-89994314D01*
X134189647Y-90041933D01*
X134237266Y-90137171D01*
X134237266Y-90232409D01*
X133761076Y-90327647D01*
X135094409Y-89994314D02*
X135094409Y-90660980D01*
X134856314Y-89613361D02*
X134618219Y-90327647D01*
X135237266Y-90327647D01*
%TO.C,mute3*%
X117486371Y-90671580D02*
X117486371Y-90004914D01*
X117486371Y-90100152D02*
X117533990Y-90052533D01*
X117629228Y-90004914D01*
X117772085Y-90004914D01*
X117867323Y-90052533D01*
X117914942Y-90147771D01*
X117914942Y-90671580D01*
X117914942Y-90147771D02*
X117962561Y-90052533D01*
X118057800Y-90004914D01*
X118200657Y-90004914D01*
X118295895Y-90052533D01*
X118343514Y-90147771D01*
X118343514Y-90671580D01*
X119248276Y-90004914D02*
X119248276Y-90671580D01*
X118819704Y-90004914D02*
X118819704Y-90528723D01*
X118867323Y-90623961D01*
X118962561Y-90671580D01*
X119105419Y-90671580D01*
X119200657Y-90623961D01*
X119248276Y-90576342D01*
X119581609Y-90004914D02*
X119962561Y-90004914D01*
X119724466Y-89671580D02*
X119724466Y-90528723D01*
X119772085Y-90623961D01*
X119867323Y-90671580D01*
X119962561Y-90671580D01*
X120676847Y-90623961D02*
X120581609Y-90671580D01*
X120391133Y-90671580D01*
X120295895Y-90623961D01*
X120248276Y-90528723D01*
X120248276Y-90147771D01*
X120295895Y-90052533D01*
X120391133Y-90004914D01*
X120581609Y-90004914D01*
X120676847Y-90052533D01*
X120724466Y-90147771D01*
X120724466Y-90243009D01*
X120248276Y-90338247D01*
X121057800Y-89671580D02*
X121676847Y-89671580D01*
X121343514Y-90052533D01*
X121486371Y-90052533D01*
X121581609Y-90100152D01*
X121629228Y-90147771D01*
X121676847Y-90243009D01*
X121676847Y-90481104D01*
X121629228Y-90576342D01*
X121581609Y-90623961D01*
X121486371Y-90671580D01*
X121200657Y-90671580D01*
X121105419Y-90623961D01*
X121057800Y-90576342D01*
%TO.C,mute2*%
X104100571Y-90660980D02*
X104100571Y-89994314D01*
X104100571Y-90089552D02*
X104148190Y-90041933D01*
X104243428Y-89994314D01*
X104386285Y-89994314D01*
X104481523Y-90041933D01*
X104529142Y-90137171D01*
X104529142Y-90660980D01*
X104529142Y-90137171D02*
X104576761Y-90041933D01*
X104672000Y-89994314D01*
X104814857Y-89994314D01*
X104910095Y-90041933D01*
X104957714Y-90137171D01*
X104957714Y-90660980D01*
X105862476Y-89994314D02*
X105862476Y-90660980D01*
X105433904Y-89994314D02*
X105433904Y-90518123D01*
X105481523Y-90613361D01*
X105576761Y-90660980D01*
X105719619Y-90660980D01*
X105814857Y-90613361D01*
X105862476Y-90565742D01*
X106195809Y-89994314D02*
X106576761Y-89994314D01*
X106338666Y-89660980D02*
X106338666Y-90518123D01*
X106386285Y-90613361D01*
X106481523Y-90660980D01*
X106576761Y-90660980D01*
X107291047Y-90613361D02*
X107195809Y-90660980D01*
X107005333Y-90660980D01*
X106910095Y-90613361D01*
X106862476Y-90518123D01*
X106862476Y-90137171D01*
X106910095Y-90041933D01*
X107005333Y-89994314D01*
X107195809Y-89994314D01*
X107291047Y-90041933D01*
X107338666Y-90137171D01*
X107338666Y-90232409D01*
X106862476Y-90327647D01*
X107719619Y-89756219D02*
X107767238Y-89708600D01*
X107862476Y-89660980D01*
X108100571Y-89660980D01*
X108195809Y-89708600D01*
X108243428Y-89756219D01*
X108291047Y-89851457D01*
X108291047Y-89946695D01*
X108243428Y-90089552D01*
X107672000Y-90660980D01*
X108291047Y-90660980D01*
%TO.C,mute1*%
X90638571Y-90660980D02*
X90638571Y-89994314D01*
X90638571Y-90089552D02*
X90686190Y-90041933D01*
X90781428Y-89994314D01*
X90924285Y-89994314D01*
X91019523Y-90041933D01*
X91067142Y-90137171D01*
X91067142Y-90660980D01*
X91067142Y-90137171D02*
X91114761Y-90041933D01*
X91210000Y-89994314D01*
X91352857Y-89994314D01*
X91448095Y-90041933D01*
X91495714Y-90137171D01*
X91495714Y-90660980D01*
X92400476Y-89994314D02*
X92400476Y-90660980D01*
X91971904Y-89994314D02*
X91971904Y-90518123D01*
X92019523Y-90613361D01*
X92114761Y-90660980D01*
X92257619Y-90660980D01*
X92352857Y-90613361D01*
X92400476Y-90565742D01*
X92733809Y-89994314D02*
X93114761Y-89994314D01*
X92876666Y-89660980D02*
X92876666Y-90518123D01*
X92924285Y-90613361D01*
X93019523Y-90660980D01*
X93114761Y-90660980D01*
X93829047Y-90613361D02*
X93733809Y-90660980D01*
X93543333Y-90660980D01*
X93448095Y-90613361D01*
X93400476Y-90518123D01*
X93400476Y-90137171D01*
X93448095Y-90041933D01*
X93543333Y-89994314D01*
X93733809Y-89994314D01*
X93829047Y-90041933D01*
X93876666Y-90137171D01*
X93876666Y-90232409D01*
X93400476Y-90327647D01*
X94829047Y-90660980D02*
X94257619Y-90660980D01*
X94543333Y-90660980D02*
X94543333Y-89660980D01*
X94448095Y-89803838D01*
X94352857Y-89899076D01*
X94257619Y-89946695D01*
%TO.C,J201*%
X200136285Y-109898380D02*
X200136285Y-110612666D01*
X200088666Y-110755523D01*
X199993428Y-110850761D01*
X199850571Y-110898380D01*
X199755333Y-110898380D01*
X200564857Y-109993619D02*
X200612476Y-109946000D01*
X200707714Y-109898380D01*
X200945809Y-109898380D01*
X201041047Y-109946000D01*
X201088666Y-109993619D01*
X201136285Y-110088857D01*
X201136285Y-110184095D01*
X201088666Y-110326952D01*
X200517238Y-110898380D01*
X201136285Y-110898380D01*
X201755333Y-109898380D02*
X201850571Y-109898380D01*
X201945809Y-109946000D01*
X201993428Y-109993619D01*
X202041047Y-110088857D01*
X202088666Y-110279333D01*
X202088666Y-110517428D01*
X202041047Y-110707904D01*
X201993428Y-110803142D01*
X201945809Y-110850761D01*
X201850571Y-110898380D01*
X201755333Y-110898380D01*
X201660095Y-110850761D01*
X201612476Y-110803142D01*
X201564857Y-110707904D01*
X201517238Y-110517428D01*
X201517238Y-110279333D01*
X201564857Y-110088857D01*
X201612476Y-109993619D01*
X201660095Y-109946000D01*
X201755333Y-109898380D01*
X203041047Y-110898380D02*
X202469619Y-110898380D01*
X202755333Y-110898380D02*
X202755333Y-109898380D01*
X202660095Y-110041238D01*
X202564857Y-110136476D01*
X202469619Y-110184095D01*
%TO.C,In8*%
X28710380Y-131450571D02*
X27710380Y-131450571D01*
X28043714Y-130974380D02*
X28710380Y-130974380D01*
X28138952Y-130974380D02*
X28091333Y-130926761D01*
X28043714Y-130831523D01*
X28043714Y-130688666D01*
X28091333Y-130593428D01*
X28186571Y-130545809D01*
X28710380Y-130545809D01*
X28138952Y-129926761D02*
X28091333Y-130022000D01*
X28043714Y-130069619D01*
X27948476Y-130117238D01*
X27900857Y-130117238D01*
X27805619Y-130069619D01*
X27758000Y-130022000D01*
X27710380Y-129926761D01*
X27710380Y-129736285D01*
X27758000Y-129641047D01*
X27805619Y-129593428D01*
X27900857Y-129545809D01*
X27948476Y-129545809D01*
X28043714Y-129593428D01*
X28091333Y-129641047D01*
X28138952Y-129736285D01*
X28138952Y-129926761D01*
X28186571Y-130022000D01*
X28234190Y-130069619D01*
X28329428Y-130117238D01*
X28519904Y-130117238D01*
X28615142Y-130069619D01*
X28662761Y-130022000D01*
X28710380Y-129926761D01*
X28710380Y-129736285D01*
X28662761Y-129641047D01*
X28615142Y-129593428D01*
X28519904Y-129545809D01*
X28329428Y-129545809D01*
X28234190Y-129593428D01*
X28186571Y-129641047D01*
X28138952Y-129736285D01*
%TO.C,In7*%
X28710380Y-117988571D02*
X27710380Y-117988571D01*
X28043714Y-117512380D02*
X28710380Y-117512380D01*
X28138952Y-117512380D02*
X28091333Y-117464761D01*
X28043714Y-117369523D01*
X28043714Y-117226666D01*
X28091333Y-117131428D01*
X28186571Y-117083809D01*
X28710380Y-117083809D01*
X27710380Y-116702857D02*
X27710380Y-116036190D01*
X28710380Y-116464761D01*
%TO.C,In6*%
X28710380Y-104526571D02*
X27710380Y-104526571D01*
X28043714Y-104050380D02*
X28710380Y-104050380D01*
X28138952Y-104050380D02*
X28091333Y-104002761D01*
X28043714Y-103907523D01*
X28043714Y-103764666D01*
X28091333Y-103669428D01*
X28186571Y-103621809D01*
X28710380Y-103621809D01*
X27710380Y-102717047D02*
X27710380Y-102907523D01*
X27758000Y-103002761D01*
X27805619Y-103050380D01*
X27948476Y-103145619D01*
X28138952Y-103193238D01*
X28519904Y-103193238D01*
X28615142Y-103145619D01*
X28662761Y-103098000D01*
X28710380Y-103002761D01*
X28710380Y-102812285D01*
X28662761Y-102717047D01*
X28615142Y-102669428D01*
X28519904Y-102621809D01*
X28281809Y-102621809D01*
X28186571Y-102669428D01*
X28138952Y-102717047D01*
X28091333Y-102812285D01*
X28091333Y-103002761D01*
X28138952Y-103098000D01*
X28186571Y-103145619D01*
X28281809Y-103193238D01*
%TO.C,In5*%
X28658380Y-91064571D02*
X27658380Y-91064571D01*
X27991714Y-90588380D02*
X28658380Y-90588380D01*
X28086952Y-90588380D02*
X28039333Y-90540761D01*
X27991714Y-90445523D01*
X27991714Y-90302666D01*
X28039333Y-90207428D01*
X28134571Y-90159809D01*
X28658380Y-90159809D01*
X27658380Y-89207428D02*
X27658380Y-89683619D01*
X28134571Y-89731238D01*
X28086952Y-89683619D01*
X28039333Y-89588380D01*
X28039333Y-89350285D01*
X28086952Y-89255047D01*
X28134571Y-89207428D01*
X28229809Y-89159809D01*
X28467904Y-89159809D01*
X28563142Y-89207428D01*
X28610761Y-89255047D01*
X28658380Y-89350285D01*
X28658380Y-89588380D01*
X28610761Y-89683619D01*
X28563142Y-89731238D01*
%TO.C,IN4*%
X28740380Y-77674000D02*
X27740380Y-77674000D01*
X28740380Y-77197809D02*
X27740380Y-77197809D01*
X28740380Y-76626380D01*
X27740380Y-76626380D01*
X28073714Y-75721619D02*
X28740380Y-75721619D01*
X27692761Y-75959714D02*
X28407047Y-76197809D01*
X28407047Y-75578761D01*
%TO.C,IN3*%
X28740380Y-64339000D02*
X27740380Y-64339000D01*
X28740380Y-63862809D02*
X27740380Y-63862809D01*
X28740380Y-63291380D01*
X27740380Y-63291380D01*
X27740380Y-62910428D02*
X27740380Y-62291380D01*
X28121333Y-62624714D01*
X28121333Y-62481857D01*
X28168952Y-62386619D01*
X28216571Y-62339000D01*
X28311809Y-62291380D01*
X28549904Y-62291380D01*
X28645142Y-62339000D01*
X28692761Y-62386619D01*
X28740380Y-62481857D01*
X28740380Y-62767571D01*
X28692761Y-62862809D01*
X28645142Y-62910428D01*
%TO.C,IN2*%
X28710380Y-50750000D02*
X27710380Y-50750000D01*
X28710380Y-50273809D02*
X27710380Y-50273809D01*
X28710380Y-49702380D01*
X27710380Y-49702380D01*
X27805619Y-49273809D02*
X27758000Y-49226190D01*
X27710380Y-49130952D01*
X27710380Y-48892857D01*
X27758000Y-48797619D01*
X27805619Y-48750000D01*
X27900857Y-48702380D01*
X27996095Y-48702380D01*
X28138952Y-48750000D01*
X28710380Y-49321428D01*
X28710380Y-48702380D01*
%TO.C,IN1*%
X28710380Y-37288000D02*
X27710380Y-37288000D01*
X28710380Y-36811809D02*
X27710380Y-36811809D01*
X28710380Y-36240380D01*
X27710380Y-36240380D01*
X28710380Y-35240380D02*
X28710380Y-35811809D01*
X28710380Y-35526095D02*
X27710380Y-35526095D01*
X27853238Y-35621333D01*
X27948476Y-35716571D01*
X27996095Y-35811809D01*
%TO.C,CVAtten8*%
X59961809Y-119112142D02*
X59914190Y-119159761D01*
X59771333Y-119207380D01*
X59676095Y-119207380D01*
X59533238Y-119159761D01*
X59438000Y-119064523D01*
X59390380Y-118969285D01*
X59342761Y-118778809D01*
X59342761Y-118635952D01*
X59390380Y-118445476D01*
X59438000Y-118350238D01*
X59533238Y-118255000D01*
X59676095Y-118207380D01*
X59771333Y-118207380D01*
X59914190Y-118255000D01*
X59961809Y-118302619D01*
X60247523Y-118207380D02*
X60580857Y-119207380D01*
X60914190Y-118207380D01*
X61199904Y-118921666D02*
X61676095Y-118921666D01*
X61104666Y-119207380D02*
X61438000Y-118207380D01*
X61771333Y-119207380D01*
X61961809Y-118540714D02*
X62342761Y-118540714D01*
X62104666Y-118207380D02*
X62104666Y-119064523D01*
X62152285Y-119159761D01*
X62247523Y-119207380D01*
X62342761Y-119207380D01*
X62533238Y-118540714D02*
X62914190Y-118540714D01*
X62676095Y-118207380D02*
X62676095Y-119064523D01*
X62723714Y-119159761D01*
X62818952Y-119207380D01*
X62914190Y-119207380D01*
X63628476Y-119159761D02*
X63533238Y-119207380D01*
X63342761Y-119207380D01*
X63247523Y-119159761D01*
X63199904Y-119064523D01*
X63199904Y-118683571D01*
X63247523Y-118588333D01*
X63342761Y-118540714D01*
X63533238Y-118540714D01*
X63628476Y-118588333D01*
X63676095Y-118683571D01*
X63676095Y-118778809D01*
X63199904Y-118874047D01*
X64104666Y-118540714D02*
X64104666Y-119207380D01*
X64104666Y-118635952D02*
X64152285Y-118588333D01*
X64247523Y-118540714D01*
X64390380Y-118540714D01*
X64485619Y-118588333D01*
X64533238Y-118683571D01*
X64533238Y-119207380D01*
X65152285Y-118635952D02*
X65057047Y-118588333D01*
X65009428Y-118540714D01*
X64961809Y-118445476D01*
X64961809Y-118397857D01*
X65009428Y-118302619D01*
X65057047Y-118255000D01*
X65152285Y-118207380D01*
X65342761Y-118207380D01*
X65438000Y-118255000D01*
X65485619Y-118302619D01*
X65533238Y-118397857D01*
X65533238Y-118445476D01*
X65485619Y-118540714D01*
X65438000Y-118588333D01*
X65342761Y-118635952D01*
X65152285Y-118635952D01*
X65057047Y-118683571D01*
X65009428Y-118731190D01*
X64961809Y-118826428D01*
X64961809Y-119016904D01*
X65009428Y-119112142D01*
X65057047Y-119159761D01*
X65152285Y-119207380D01*
X65342761Y-119207380D01*
X65438000Y-119159761D01*
X65485619Y-119112142D01*
X65533238Y-119016904D01*
X65533238Y-118826428D01*
X65485619Y-118731190D01*
X65438000Y-118683571D01*
X65342761Y-118635952D01*
%TO.C,CVAtten7*%
X59961809Y-105650142D02*
X59914190Y-105697761D01*
X59771333Y-105745380D01*
X59676095Y-105745380D01*
X59533238Y-105697761D01*
X59438000Y-105602523D01*
X59390380Y-105507285D01*
X59342761Y-105316809D01*
X59342761Y-105173952D01*
X59390380Y-104983476D01*
X59438000Y-104888238D01*
X59533238Y-104793000D01*
X59676095Y-104745380D01*
X59771333Y-104745380D01*
X59914190Y-104793000D01*
X59961809Y-104840619D01*
X60247523Y-104745380D02*
X60580857Y-105745380D01*
X60914190Y-104745380D01*
X61199904Y-105459666D02*
X61676095Y-105459666D01*
X61104666Y-105745380D02*
X61438000Y-104745380D01*
X61771333Y-105745380D01*
X61961809Y-105078714D02*
X62342761Y-105078714D01*
X62104666Y-104745380D02*
X62104666Y-105602523D01*
X62152285Y-105697761D01*
X62247523Y-105745380D01*
X62342761Y-105745380D01*
X62533238Y-105078714D02*
X62914190Y-105078714D01*
X62676095Y-104745380D02*
X62676095Y-105602523D01*
X62723714Y-105697761D01*
X62818952Y-105745380D01*
X62914190Y-105745380D01*
X63628476Y-105697761D02*
X63533238Y-105745380D01*
X63342761Y-105745380D01*
X63247523Y-105697761D01*
X63199904Y-105602523D01*
X63199904Y-105221571D01*
X63247523Y-105126333D01*
X63342761Y-105078714D01*
X63533238Y-105078714D01*
X63628476Y-105126333D01*
X63676095Y-105221571D01*
X63676095Y-105316809D01*
X63199904Y-105412047D01*
X64104666Y-105078714D02*
X64104666Y-105745380D01*
X64104666Y-105173952D02*
X64152285Y-105126333D01*
X64247523Y-105078714D01*
X64390380Y-105078714D01*
X64485619Y-105126333D01*
X64533238Y-105221571D01*
X64533238Y-105745380D01*
X64914190Y-104745380D02*
X65580857Y-104745380D01*
X65152285Y-105745380D01*
%TO.C,CVAtten6*%
X59961809Y-92188142D02*
X59914190Y-92235761D01*
X59771333Y-92283380D01*
X59676095Y-92283380D01*
X59533238Y-92235761D01*
X59438000Y-92140523D01*
X59390380Y-92045285D01*
X59342761Y-91854809D01*
X59342761Y-91711952D01*
X59390380Y-91521476D01*
X59438000Y-91426238D01*
X59533238Y-91331000D01*
X59676095Y-91283380D01*
X59771333Y-91283380D01*
X59914190Y-91331000D01*
X59961809Y-91378619D01*
X60247523Y-91283380D02*
X60580857Y-92283380D01*
X60914190Y-91283380D01*
X61199904Y-91997666D02*
X61676095Y-91997666D01*
X61104666Y-92283380D02*
X61438000Y-91283380D01*
X61771333Y-92283380D01*
X61961809Y-91616714D02*
X62342761Y-91616714D01*
X62104666Y-91283380D02*
X62104666Y-92140523D01*
X62152285Y-92235761D01*
X62247523Y-92283380D01*
X62342761Y-92283380D01*
X62533238Y-91616714D02*
X62914190Y-91616714D01*
X62676095Y-91283380D02*
X62676095Y-92140523D01*
X62723714Y-92235761D01*
X62818952Y-92283380D01*
X62914190Y-92283380D01*
X63628476Y-92235761D02*
X63533238Y-92283380D01*
X63342761Y-92283380D01*
X63247523Y-92235761D01*
X63199904Y-92140523D01*
X63199904Y-91759571D01*
X63247523Y-91664333D01*
X63342761Y-91616714D01*
X63533238Y-91616714D01*
X63628476Y-91664333D01*
X63676095Y-91759571D01*
X63676095Y-91854809D01*
X63199904Y-91950047D01*
X64104666Y-91616714D02*
X64104666Y-92283380D01*
X64104666Y-91711952D02*
X64152285Y-91664333D01*
X64247523Y-91616714D01*
X64390380Y-91616714D01*
X64485619Y-91664333D01*
X64533238Y-91759571D01*
X64533238Y-92283380D01*
X65438000Y-91283380D02*
X65247523Y-91283380D01*
X65152285Y-91331000D01*
X65104666Y-91378619D01*
X65009428Y-91521476D01*
X64961809Y-91711952D01*
X64961809Y-92092904D01*
X65009428Y-92188142D01*
X65057047Y-92235761D01*
X65152285Y-92283380D01*
X65342761Y-92283380D01*
X65438000Y-92235761D01*
X65485619Y-92188142D01*
X65533238Y-92092904D01*
X65533238Y-91854809D01*
X65485619Y-91759571D01*
X65438000Y-91711952D01*
X65342761Y-91664333D01*
X65152285Y-91664333D01*
X65057047Y-91711952D01*
X65009428Y-91759571D01*
X64961809Y-91854809D01*
%TO.C,CVAtten5*%
X59946809Y-78726142D02*
X59899190Y-78773761D01*
X59756333Y-78821380D01*
X59661095Y-78821380D01*
X59518238Y-78773761D01*
X59423000Y-78678523D01*
X59375380Y-78583285D01*
X59327761Y-78392809D01*
X59327761Y-78249952D01*
X59375380Y-78059476D01*
X59423000Y-77964238D01*
X59518238Y-77869000D01*
X59661095Y-77821380D01*
X59756333Y-77821380D01*
X59899190Y-77869000D01*
X59946809Y-77916619D01*
X60232523Y-77821380D02*
X60565857Y-78821380D01*
X60899190Y-77821380D01*
X61184904Y-78535666D02*
X61661095Y-78535666D01*
X61089666Y-78821380D02*
X61423000Y-77821380D01*
X61756333Y-78821380D01*
X61946809Y-78154714D02*
X62327761Y-78154714D01*
X62089666Y-77821380D02*
X62089666Y-78678523D01*
X62137285Y-78773761D01*
X62232523Y-78821380D01*
X62327761Y-78821380D01*
X62518238Y-78154714D02*
X62899190Y-78154714D01*
X62661095Y-77821380D02*
X62661095Y-78678523D01*
X62708714Y-78773761D01*
X62803952Y-78821380D01*
X62899190Y-78821380D01*
X63613476Y-78773761D02*
X63518238Y-78821380D01*
X63327761Y-78821380D01*
X63232523Y-78773761D01*
X63184904Y-78678523D01*
X63184904Y-78297571D01*
X63232523Y-78202333D01*
X63327761Y-78154714D01*
X63518238Y-78154714D01*
X63613476Y-78202333D01*
X63661095Y-78297571D01*
X63661095Y-78392809D01*
X63184904Y-78488047D01*
X64089666Y-78154714D02*
X64089666Y-78821380D01*
X64089666Y-78249952D02*
X64137285Y-78202333D01*
X64232523Y-78154714D01*
X64375380Y-78154714D01*
X64470619Y-78202333D01*
X64518238Y-78297571D01*
X64518238Y-78821380D01*
X65470619Y-77821380D02*
X64994428Y-77821380D01*
X64946809Y-78297571D01*
X64994428Y-78249952D01*
X65089666Y-78202333D01*
X65327761Y-78202333D01*
X65423000Y-78249952D01*
X65470619Y-78297571D01*
X65518238Y-78392809D01*
X65518238Y-78630904D01*
X65470619Y-78726142D01*
X65423000Y-78773761D01*
X65327761Y-78821380D01*
X65089666Y-78821380D01*
X64994428Y-78773761D01*
X64946809Y-78726142D01*
%TO.C,CVAtten4*%
X59946809Y-65264142D02*
X59899190Y-65311761D01*
X59756333Y-65359380D01*
X59661095Y-65359380D01*
X59518238Y-65311761D01*
X59423000Y-65216523D01*
X59375380Y-65121285D01*
X59327761Y-64930809D01*
X59327761Y-64787952D01*
X59375380Y-64597476D01*
X59423000Y-64502238D01*
X59518238Y-64407000D01*
X59661095Y-64359380D01*
X59756333Y-64359380D01*
X59899190Y-64407000D01*
X59946809Y-64454619D01*
X60232523Y-64359380D02*
X60565857Y-65359380D01*
X60899190Y-64359380D01*
X61184904Y-65073666D02*
X61661095Y-65073666D01*
X61089666Y-65359380D02*
X61423000Y-64359380D01*
X61756333Y-65359380D01*
X61946809Y-64692714D02*
X62327761Y-64692714D01*
X62089666Y-64359380D02*
X62089666Y-65216523D01*
X62137285Y-65311761D01*
X62232523Y-65359380D01*
X62327761Y-65359380D01*
X62518238Y-64692714D02*
X62899190Y-64692714D01*
X62661095Y-64359380D02*
X62661095Y-65216523D01*
X62708714Y-65311761D01*
X62803952Y-65359380D01*
X62899190Y-65359380D01*
X63613476Y-65311761D02*
X63518238Y-65359380D01*
X63327761Y-65359380D01*
X63232523Y-65311761D01*
X63184904Y-65216523D01*
X63184904Y-64835571D01*
X63232523Y-64740333D01*
X63327761Y-64692714D01*
X63518238Y-64692714D01*
X63613476Y-64740333D01*
X63661095Y-64835571D01*
X63661095Y-64930809D01*
X63184904Y-65026047D01*
X64089666Y-64692714D02*
X64089666Y-65359380D01*
X64089666Y-64787952D02*
X64137285Y-64740333D01*
X64232523Y-64692714D01*
X64375380Y-64692714D01*
X64470619Y-64740333D01*
X64518238Y-64835571D01*
X64518238Y-65359380D01*
X65423000Y-64692714D02*
X65423000Y-65359380D01*
X65184904Y-64311761D02*
X64946809Y-65026047D01*
X65565857Y-65026047D01*
%TO.C,CVAtten3*%
X59946809Y-51844142D02*
X59899190Y-51891761D01*
X59756333Y-51939380D01*
X59661095Y-51939380D01*
X59518238Y-51891761D01*
X59423000Y-51796523D01*
X59375380Y-51701285D01*
X59327761Y-51510809D01*
X59327761Y-51367952D01*
X59375380Y-51177476D01*
X59423000Y-51082238D01*
X59518238Y-50987000D01*
X59661095Y-50939380D01*
X59756333Y-50939380D01*
X59899190Y-50987000D01*
X59946809Y-51034619D01*
X60232523Y-50939380D02*
X60565857Y-51939380D01*
X60899190Y-50939380D01*
X61184904Y-51653666D02*
X61661095Y-51653666D01*
X61089666Y-51939380D02*
X61423000Y-50939380D01*
X61756333Y-51939380D01*
X61946809Y-51272714D02*
X62327761Y-51272714D01*
X62089666Y-50939380D02*
X62089666Y-51796523D01*
X62137285Y-51891761D01*
X62232523Y-51939380D01*
X62327761Y-51939380D01*
X62518238Y-51272714D02*
X62899190Y-51272714D01*
X62661095Y-50939380D02*
X62661095Y-51796523D01*
X62708714Y-51891761D01*
X62803952Y-51939380D01*
X62899190Y-51939380D01*
X63613476Y-51891761D02*
X63518238Y-51939380D01*
X63327761Y-51939380D01*
X63232523Y-51891761D01*
X63184904Y-51796523D01*
X63184904Y-51415571D01*
X63232523Y-51320333D01*
X63327761Y-51272714D01*
X63518238Y-51272714D01*
X63613476Y-51320333D01*
X63661095Y-51415571D01*
X63661095Y-51510809D01*
X63184904Y-51606047D01*
X64089666Y-51272714D02*
X64089666Y-51939380D01*
X64089666Y-51367952D02*
X64137285Y-51320333D01*
X64232523Y-51272714D01*
X64375380Y-51272714D01*
X64470619Y-51320333D01*
X64518238Y-51415571D01*
X64518238Y-51939380D01*
X64899190Y-50939380D02*
X65518238Y-50939380D01*
X65184904Y-51320333D01*
X65327761Y-51320333D01*
X65423000Y-51367952D01*
X65470619Y-51415571D01*
X65518238Y-51510809D01*
X65518238Y-51748904D01*
X65470619Y-51844142D01*
X65423000Y-51891761D01*
X65327761Y-51939380D01*
X65042047Y-51939380D01*
X64946809Y-51891761D01*
X64899190Y-51844142D01*
%TO.C,CVAtten2*%
X59961809Y-38427142D02*
X59914190Y-38474761D01*
X59771333Y-38522380D01*
X59676095Y-38522380D01*
X59533238Y-38474761D01*
X59438000Y-38379523D01*
X59390380Y-38284285D01*
X59342761Y-38093809D01*
X59342761Y-37950952D01*
X59390380Y-37760476D01*
X59438000Y-37665238D01*
X59533238Y-37570000D01*
X59676095Y-37522380D01*
X59771333Y-37522380D01*
X59914190Y-37570000D01*
X59961809Y-37617619D01*
X60247523Y-37522380D02*
X60580857Y-38522380D01*
X60914190Y-37522380D01*
X61199904Y-38236666D02*
X61676095Y-38236666D01*
X61104666Y-38522380D02*
X61438000Y-37522380D01*
X61771333Y-38522380D01*
X61961809Y-37855714D02*
X62342761Y-37855714D01*
X62104666Y-37522380D02*
X62104666Y-38379523D01*
X62152285Y-38474761D01*
X62247523Y-38522380D01*
X62342761Y-38522380D01*
X62533238Y-37855714D02*
X62914190Y-37855714D01*
X62676095Y-37522380D02*
X62676095Y-38379523D01*
X62723714Y-38474761D01*
X62818952Y-38522380D01*
X62914190Y-38522380D01*
X63628476Y-38474761D02*
X63533238Y-38522380D01*
X63342761Y-38522380D01*
X63247523Y-38474761D01*
X63199904Y-38379523D01*
X63199904Y-37998571D01*
X63247523Y-37903333D01*
X63342761Y-37855714D01*
X63533238Y-37855714D01*
X63628476Y-37903333D01*
X63676095Y-37998571D01*
X63676095Y-38093809D01*
X63199904Y-38189047D01*
X64104666Y-37855714D02*
X64104666Y-38522380D01*
X64104666Y-37950952D02*
X64152285Y-37903333D01*
X64247523Y-37855714D01*
X64390380Y-37855714D01*
X64485619Y-37903333D01*
X64533238Y-37998571D01*
X64533238Y-38522380D01*
X64961809Y-37617619D02*
X65009428Y-37570000D01*
X65104666Y-37522380D01*
X65342761Y-37522380D01*
X65438000Y-37570000D01*
X65485619Y-37617619D01*
X65533238Y-37712857D01*
X65533238Y-37808095D01*
X65485619Y-37950952D01*
X64914190Y-38522380D01*
X65533238Y-38522380D01*
%TO.C,CVAtten1*%
X56070809Y-26709642D02*
X56023190Y-26757261D01*
X55880333Y-26804880D01*
X55785095Y-26804880D01*
X55642238Y-26757261D01*
X55547000Y-26662023D01*
X55499380Y-26566785D01*
X55451761Y-26376309D01*
X55451761Y-26233452D01*
X55499380Y-26042976D01*
X55547000Y-25947738D01*
X55642238Y-25852500D01*
X55785095Y-25804880D01*
X55880333Y-25804880D01*
X56023190Y-25852500D01*
X56070809Y-25900119D01*
X56356523Y-25804880D02*
X56689857Y-26804880D01*
X57023190Y-25804880D01*
X57308904Y-26519166D02*
X57785095Y-26519166D01*
X57213666Y-26804880D02*
X57547000Y-25804880D01*
X57880333Y-26804880D01*
X58070809Y-26138214D02*
X58451761Y-26138214D01*
X58213666Y-25804880D02*
X58213666Y-26662023D01*
X58261285Y-26757261D01*
X58356523Y-26804880D01*
X58451761Y-26804880D01*
X58642238Y-26138214D02*
X59023190Y-26138214D01*
X58785095Y-25804880D02*
X58785095Y-26662023D01*
X58832714Y-26757261D01*
X58927952Y-26804880D01*
X59023190Y-26804880D01*
X59737476Y-26757261D02*
X59642238Y-26804880D01*
X59451761Y-26804880D01*
X59356523Y-26757261D01*
X59308904Y-26662023D01*
X59308904Y-26281071D01*
X59356523Y-26185833D01*
X59451761Y-26138214D01*
X59642238Y-26138214D01*
X59737476Y-26185833D01*
X59785095Y-26281071D01*
X59785095Y-26376309D01*
X59308904Y-26471547D01*
X60213666Y-26138214D02*
X60213666Y-26804880D01*
X60213666Y-26233452D02*
X60261285Y-26185833D01*
X60356523Y-26138214D01*
X60499380Y-26138214D01*
X60594619Y-26185833D01*
X60642238Y-26281071D01*
X60642238Y-26804880D01*
X61642238Y-26804880D02*
X61070809Y-26804880D01*
X61356523Y-26804880D02*
X61356523Y-25804880D01*
X61261285Y-25947738D01*
X61166047Y-26042976D01*
X61070809Y-26090595D01*
%TO.C,CV8*%
X43347142Y-131117238D02*
X43394761Y-131164857D01*
X43442380Y-131307714D01*
X43442380Y-131402952D01*
X43394761Y-131545809D01*
X43299523Y-131641047D01*
X43204285Y-131688666D01*
X43013809Y-131736285D01*
X42870952Y-131736285D01*
X42680476Y-131688666D01*
X42585238Y-131641047D01*
X42490000Y-131545809D01*
X42442380Y-131402952D01*
X42442380Y-131307714D01*
X42490000Y-131164857D01*
X42537619Y-131117238D01*
X42442380Y-130831523D02*
X43442380Y-130498190D01*
X42442380Y-130164857D01*
X42870952Y-129688666D02*
X42823333Y-129783904D01*
X42775714Y-129831523D01*
X42680476Y-129879142D01*
X42632857Y-129879142D01*
X42537619Y-129831523D01*
X42490000Y-129783904D01*
X42442380Y-129688666D01*
X42442380Y-129498190D01*
X42490000Y-129402952D01*
X42537619Y-129355333D01*
X42632857Y-129307714D01*
X42680476Y-129307714D01*
X42775714Y-129355333D01*
X42823333Y-129402952D01*
X42870952Y-129498190D01*
X42870952Y-129688666D01*
X42918571Y-129783904D01*
X42966190Y-129831523D01*
X43061428Y-129879142D01*
X43251904Y-129879142D01*
X43347142Y-129831523D01*
X43394761Y-129783904D01*
X43442380Y-129688666D01*
X43442380Y-129498190D01*
X43394761Y-129402952D01*
X43347142Y-129355333D01*
X43251904Y-129307714D01*
X43061428Y-129307714D01*
X42966190Y-129355333D01*
X42918571Y-129402952D01*
X42870952Y-129498190D01*
%TO.C,CV7*%
X43347142Y-117655238D02*
X43394761Y-117702857D01*
X43442380Y-117845714D01*
X43442380Y-117940952D01*
X43394761Y-118083809D01*
X43299523Y-118179047D01*
X43204285Y-118226666D01*
X43013809Y-118274285D01*
X42870952Y-118274285D01*
X42680476Y-118226666D01*
X42585238Y-118179047D01*
X42490000Y-118083809D01*
X42442380Y-117940952D01*
X42442380Y-117845714D01*
X42490000Y-117702857D01*
X42537619Y-117655238D01*
X42442380Y-117369523D02*
X43442380Y-117036190D01*
X42442380Y-116702857D01*
X42442380Y-116464761D02*
X42442380Y-115798095D01*
X43442380Y-116226666D01*
%TO.C,CV6*%
X43295142Y-104193238D02*
X43342761Y-104240857D01*
X43390380Y-104383714D01*
X43390380Y-104478952D01*
X43342761Y-104621809D01*
X43247523Y-104717047D01*
X43152285Y-104764666D01*
X42961809Y-104812285D01*
X42818952Y-104812285D01*
X42628476Y-104764666D01*
X42533238Y-104717047D01*
X42438000Y-104621809D01*
X42390380Y-104478952D01*
X42390380Y-104383714D01*
X42438000Y-104240857D01*
X42485619Y-104193238D01*
X42390380Y-103907523D02*
X43390380Y-103574190D01*
X42390380Y-103240857D01*
X42390380Y-102478952D02*
X42390380Y-102669428D01*
X42438000Y-102764666D01*
X42485619Y-102812285D01*
X42628476Y-102907523D01*
X42818952Y-102955142D01*
X43199904Y-102955142D01*
X43295142Y-102907523D01*
X43342761Y-102859904D01*
X43390380Y-102764666D01*
X43390380Y-102574190D01*
X43342761Y-102478952D01*
X43295142Y-102431333D01*
X43199904Y-102383714D01*
X42961809Y-102383714D01*
X42866571Y-102431333D01*
X42818952Y-102478952D01*
X42771333Y-102574190D01*
X42771333Y-102764666D01*
X42818952Y-102859904D01*
X42866571Y-102907523D01*
X42961809Y-102955142D01*
%TO.C,CV5*%
X43347142Y-90731238D02*
X43394761Y-90778857D01*
X43442380Y-90921714D01*
X43442380Y-91016952D01*
X43394761Y-91159809D01*
X43299523Y-91255047D01*
X43204285Y-91302666D01*
X43013809Y-91350285D01*
X42870952Y-91350285D01*
X42680476Y-91302666D01*
X42585238Y-91255047D01*
X42490000Y-91159809D01*
X42442380Y-91016952D01*
X42442380Y-90921714D01*
X42490000Y-90778857D01*
X42537619Y-90731238D01*
X42442380Y-90445523D02*
X43442380Y-90112190D01*
X42442380Y-89778857D01*
X42442380Y-88969333D02*
X42442380Y-89445523D01*
X42918571Y-89493142D01*
X42870952Y-89445523D01*
X42823333Y-89350285D01*
X42823333Y-89112190D01*
X42870952Y-89016952D01*
X42918571Y-88969333D01*
X43013809Y-88921714D01*
X43251904Y-88921714D01*
X43347142Y-88969333D01*
X43394761Y-89016952D01*
X43442380Y-89112190D01*
X43442380Y-89350285D01*
X43394761Y-89445523D01*
X43347142Y-89493142D01*
%TO.C,CV4*%
X43347142Y-77269238D02*
X43394761Y-77316857D01*
X43442380Y-77459714D01*
X43442380Y-77554952D01*
X43394761Y-77697809D01*
X43299523Y-77793047D01*
X43204285Y-77840666D01*
X43013809Y-77888285D01*
X42870952Y-77888285D01*
X42680476Y-77840666D01*
X42585238Y-77793047D01*
X42490000Y-77697809D01*
X42442380Y-77554952D01*
X42442380Y-77459714D01*
X42490000Y-77316857D01*
X42537619Y-77269238D01*
X42442380Y-76983523D02*
X43442380Y-76650190D01*
X42442380Y-76316857D01*
X42775714Y-75554952D02*
X43442380Y-75554952D01*
X42394761Y-75793047D02*
X43109047Y-76031142D01*
X43109047Y-75412095D01*
%TO.C,CV3*%
X43347142Y-63934238D02*
X43394761Y-63981857D01*
X43442380Y-64124714D01*
X43442380Y-64219952D01*
X43394761Y-64362809D01*
X43299523Y-64458047D01*
X43204285Y-64505666D01*
X43013809Y-64553285D01*
X42870952Y-64553285D01*
X42680476Y-64505666D01*
X42585238Y-64458047D01*
X42490000Y-64362809D01*
X42442380Y-64219952D01*
X42442380Y-64124714D01*
X42490000Y-63981857D01*
X42537619Y-63934238D01*
X42442380Y-63648523D02*
X43442380Y-63315190D01*
X42442380Y-62981857D01*
X42442380Y-62743761D02*
X42442380Y-62124714D01*
X42823333Y-62458047D01*
X42823333Y-62315190D01*
X42870952Y-62219952D01*
X42918571Y-62172333D01*
X43013809Y-62124714D01*
X43251904Y-62124714D01*
X43347142Y-62172333D01*
X43394761Y-62219952D01*
X43442380Y-62315190D01*
X43442380Y-62600904D01*
X43394761Y-62696142D01*
X43347142Y-62743761D01*
%TO.C,CV2*%
X43347142Y-50345238D02*
X43394761Y-50392857D01*
X43442380Y-50535714D01*
X43442380Y-50630952D01*
X43394761Y-50773809D01*
X43299523Y-50869047D01*
X43204285Y-50916666D01*
X43013809Y-50964285D01*
X42870952Y-50964285D01*
X42680476Y-50916666D01*
X42585238Y-50869047D01*
X42490000Y-50773809D01*
X42442380Y-50630952D01*
X42442380Y-50535714D01*
X42490000Y-50392857D01*
X42537619Y-50345238D01*
X42442380Y-50059523D02*
X43442380Y-49726190D01*
X42442380Y-49392857D01*
X42537619Y-49107142D02*
X42490000Y-49059523D01*
X42442380Y-48964285D01*
X42442380Y-48726190D01*
X42490000Y-48630952D01*
X42537619Y-48583333D01*
X42632857Y-48535714D01*
X42728095Y-48535714D01*
X42870952Y-48583333D01*
X43442380Y-49154761D01*
X43442380Y-48535714D01*
%TO.C,CV1*%
X43377142Y-36883238D02*
X43424761Y-36930857D01*
X43472380Y-37073714D01*
X43472380Y-37168952D01*
X43424761Y-37311809D01*
X43329523Y-37407047D01*
X43234285Y-37454666D01*
X43043809Y-37502285D01*
X42900952Y-37502285D01*
X42710476Y-37454666D01*
X42615238Y-37407047D01*
X42520000Y-37311809D01*
X42472380Y-37168952D01*
X42472380Y-37073714D01*
X42520000Y-36930857D01*
X42567619Y-36883238D01*
X42472380Y-36597523D02*
X43472380Y-36264190D01*
X42472380Y-35930857D01*
X43472380Y-35073714D02*
X43472380Y-35645142D01*
X43472380Y-35359428D02*
X42472380Y-35359428D01*
X42615238Y-35454666D01*
X42710476Y-35549904D01*
X42758095Y-35645142D01*
D11*
%TO.C,Level8*%
X191484200Y-132816000D02*
X191484200Y-97816000D01*
X181984200Y-97816000D02*
X181984200Y-132816000D01*
X181984200Y-132816000D02*
X191484200Y-132816000D01*
X181984200Y-97816000D02*
X191484200Y-97816000D01*
%TO.C,Level7*%
X168554200Y-97790600D02*
X178054200Y-97790600D01*
X168554200Y-132790600D02*
X178054200Y-132790600D01*
X168554200Y-97790600D02*
X168554200Y-132790600D01*
X178054200Y-132790600D02*
X178054200Y-97790600D01*
%TO.C,Level6*%
X155136400Y-97790600D02*
X164636400Y-97790600D01*
X155136400Y-132790600D02*
X164636400Y-132790600D01*
X155136400Y-97790600D02*
X155136400Y-132790600D01*
X164636400Y-132790600D02*
X164636400Y-97790600D01*
%TO.C,Level5*%
X151225200Y-132816000D02*
X151225200Y-97816000D01*
X141725200Y-97816000D02*
X141725200Y-132816000D01*
X141725200Y-132816000D02*
X151225200Y-132816000D01*
X141725200Y-97816000D02*
X151225200Y-97816000D01*
%TO.C,Level4*%
X128314000Y-97816000D02*
X137814000Y-97816000D01*
X128314000Y-132816000D02*
X137814000Y-132816000D01*
X128314000Y-97816000D02*
X128314000Y-132816000D01*
X137814000Y-132816000D02*
X137814000Y-97816000D01*
%TO.C,Level3*%
X114833200Y-97816000D02*
X124333200Y-97816000D01*
X114833200Y-132816000D02*
X124333200Y-132816000D01*
X114833200Y-97816000D02*
X114833200Y-132816000D01*
X124333200Y-132816000D02*
X124333200Y-97816000D01*
%TO.C,Level2*%
X101422000Y-97816000D02*
X110922000Y-97816000D01*
X101422000Y-132816000D02*
X110922000Y-132816000D01*
X101422000Y-97816000D02*
X101422000Y-132816000D01*
X110922000Y-132816000D02*
X110922000Y-97816000D01*
%TO.C,Level1*%
X87960000Y-97816000D02*
X97460000Y-97816000D01*
X87960000Y-132816000D02*
X97460000Y-132816000D01*
X87960000Y-97816000D02*
X87960000Y-132816000D01*
X97460000Y-132816000D02*
X97460000Y-97816000D01*
%TO.C,Trim8*%
X70009823Y-129757010D02*
X70009823Y-119987010D01*
X75079823Y-129757010D02*
X75079823Y-119987010D01*
X70009823Y-129757010D02*
X75079823Y-129757010D01*
X70009823Y-119987010D02*
X75079823Y-119987010D01*
%TO.C,Trim7*%
X70009823Y-116314682D02*
X70009823Y-106544682D01*
X75079823Y-116314682D02*
X75079823Y-106544682D01*
X70009823Y-116314682D02*
X75079823Y-116314682D01*
X70009823Y-106544682D02*
X75079823Y-106544682D01*
%TO.C,Trim6*%
X69983103Y-102830519D02*
X69983103Y-93060519D01*
X75053103Y-102830519D02*
X75053103Y-93060519D01*
X69983103Y-102830519D02*
X75053103Y-102830519D01*
X69983103Y-93060519D02*
X75053103Y-93060519D01*
%TO.C,Trim5*%
X69983103Y-89355957D02*
X69983103Y-79585957D01*
X75053103Y-89355957D02*
X75053103Y-79585957D01*
X69983103Y-89355957D02*
X75053103Y-89355957D01*
X69983103Y-79585957D02*
X75053103Y-79585957D01*
%TO.C,Trim4*%
X69987000Y-75878000D02*
X69987000Y-66108000D01*
X75057000Y-75878000D02*
X75057000Y-66108000D01*
X69987000Y-75878000D02*
X75057000Y-75878000D01*
X69987000Y-66108000D02*
X75057000Y-66108000D01*
%TO.C,Trim3*%
X69987000Y-62416000D02*
X69987000Y-52646000D01*
X75057000Y-62416000D02*
X75057000Y-52646000D01*
X69987000Y-62416000D02*
X75057000Y-62416000D01*
X69987000Y-52646000D02*
X75057000Y-52646000D01*
%TO.C,Trim2*%
X69987000Y-49081000D02*
X69987000Y-39311000D01*
X75057000Y-49081000D02*
X75057000Y-39311000D01*
X69987000Y-49081000D02*
X75057000Y-49081000D01*
X69987000Y-39311000D02*
X75057000Y-39311000D01*
%TO.C,Trim1*%
X69987000Y-35619000D02*
X69987000Y-25849000D01*
X75057000Y-35619000D02*
X75057000Y-25849000D01*
X69987000Y-35619000D02*
X75057000Y-35619000D01*
X69987000Y-25849000D02*
X75057000Y-25849000D01*
%TO.C,Pan8*%
X181694400Y-88024800D02*
X181694400Y-84087800D01*
X181694400Y-79720800D02*
X181694400Y-75784800D01*
X191735400Y-88024800D02*
X191735400Y-84087800D01*
X191735400Y-79720800D02*
X191735400Y-75784800D01*
X181694400Y-88024800D02*
X183344400Y-88024800D01*
X185086400Y-88024800D02*
X185845400Y-88024800D01*
X187586400Y-88024800D02*
X188345400Y-88024800D01*
X190085400Y-88024800D02*
X191735400Y-88024800D01*
X181694400Y-75784800D02*
X191735400Y-75784800D01*
%TO.C,Pan7*%
X168297800Y-88020000D02*
X168297800Y-84083000D01*
X168297800Y-79716000D02*
X168297800Y-75780000D01*
X178338800Y-88020000D02*
X178338800Y-84083000D01*
X178338800Y-79716000D02*
X178338800Y-75780000D01*
X168297800Y-88020000D02*
X169947800Y-88020000D01*
X171689800Y-88020000D02*
X172448800Y-88020000D01*
X174189800Y-88020000D02*
X174948800Y-88020000D01*
X176688800Y-88020000D02*
X178338800Y-88020000D01*
X168297800Y-75780000D02*
X178338800Y-75780000D01*
%TO.C,Pan6*%
X154886600Y-88020000D02*
X154886600Y-84083000D01*
X154886600Y-79716000D02*
X154886600Y-75780000D01*
X164927600Y-88020000D02*
X164927600Y-84083000D01*
X164927600Y-79716000D02*
X164927600Y-75780000D01*
X154886600Y-88020000D02*
X156536600Y-88020000D01*
X158278600Y-88020000D02*
X159037600Y-88020000D01*
X160778600Y-88020000D02*
X161537600Y-88020000D01*
X163277600Y-88020000D02*
X164927600Y-88020000D01*
X154886600Y-75780000D02*
X164927600Y-75780000D01*
%TO.C,Pan5*%
X141460800Y-75780000D02*
X151501800Y-75780000D01*
X149851800Y-88020000D02*
X151501800Y-88020000D01*
X147352800Y-88020000D02*
X148111800Y-88020000D01*
X144852800Y-88020000D02*
X145611800Y-88020000D01*
X141460800Y-88020000D02*
X143110800Y-88020000D01*
X151501800Y-79716000D02*
X151501800Y-75780000D01*
X151501800Y-88020000D02*
X151501800Y-84083000D01*
X141460800Y-79716000D02*
X141460800Y-75780000D01*
X141460800Y-88020000D02*
X141460800Y-84083000D01*
%TO.C,Pan4*%
X127988000Y-88020000D02*
X127988000Y-84083000D01*
X127988000Y-79716000D02*
X127988000Y-75780000D01*
X138029000Y-88020000D02*
X138029000Y-84083000D01*
X138029000Y-79716000D02*
X138029000Y-75780000D01*
X127988000Y-88020000D02*
X129638000Y-88020000D01*
X131380000Y-88020000D02*
X132139000Y-88020000D01*
X133880000Y-88020000D02*
X134639000Y-88020000D01*
X136379000Y-88020000D02*
X138029000Y-88020000D01*
X127988000Y-75780000D02*
X138029000Y-75780000D01*
%TO.C,Pan3*%
X114536800Y-88024800D02*
X114536800Y-84087800D01*
X114536800Y-79720800D02*
X114536800Y-75784800D01*
X124577800Y-88024800D02*
X124577800Y-84087800D01*
X124577800Y-79720800D02*
X124577800Y-75784800D01*
X114536800Y-88024800D02*
X116186800Y-88024800D01*
X117928800Y-88024800D02*
X118687800Y-88024800D01*
X120428800Y-88024800D02*
X121187800Y-88024800D01*
X122927800Y-88024800D02*
X124577800Y-88024800D01*
X114536800Y-75784800D02*
X124577800Y-75784800D01*
%TO.C,Pan2*%
X101100200Y-88024800D02*
X101100200Y-84087800D01*
X101100200Y-79720800D02*
X101100200Y-75784800D01*
X111141200Y-88024800D02*
X111141200Y-84087800D01*
X111141200Y-79720800D02*
X111141200Y-75784800D01*
X101100200Y-88024800D02*
X102750200Y-88024800D01*
X104492200Y-88024800D02*
X105251200Y-88024800D01*
X106992200Y-88024800D02*
X107751200Y-88024800D01*
X109491200Y-88024800D02*
X111141200Y-88024800D01*
X101100200Y-75784800D02*
X111141200Y-75784800D01*
%TO.C,Pan1*%
X87689000Y-88020000D02*
X87689000Y-84083000D01*
X87689000Y-79716000D02*
X87689000Y-75780000D01*
X97730000Y-88020000D02*
X97730000Y-84083000D01*
X97730000Y-79716000D02*
X97730000Y-75780000D01*
X87689000Y-88020000D02*
X89339000Y-88020000D01*
X91081000Y-88020000D02*
X91840000Y-88020000D01*
X93581000Y-88020000D02*
X94340000Y-88020000D01*
X96080000Y-88020000D02*
X97730000Y-88020000D01*
X87689000Y-75780000D02*
X97730000Y-75780000D01*
%TO.C,OutR301*%
X196199000Y-29893000D02*
X196199000Y-40393000D01*
X205199000Y-29893000D02*
X205199000Y-40393000D01*
X205199000Y-40393000D02*
X201199000Y-40393000D01*
X200199000Y-40393000D02*
X196199000Y-40393000D01*
X205199000Y-29893000D02*
X201049000Y-29893000D01*
X200349000Y-29893000D02*
X196199000Y-29893000D01*
X202499000Y-34393000D02*
G75*
G03*
X202499000Y-34393000I-1800000J0D01*
G01*
X199639000Y-26913000D02*
X199639000Y-27713000D01*
X199639000Y-26913000D02*
X200499000Y-26913000D01*
%TO.C,OutL301*%
X185873000Y-29893000D02*
X185873000Y-40393000D01*
X194873000Y-29893000D02*
X194873000Y-40393000D01*
X194873000Y-40393000D02*
X190873000Y-40393000D01*
X189873000Y-40393000D02*
X185873000Y-40393000D01*
X194873000Y-29893000D02*
X190723000Y-29893000D01*
X190023000Y-29893000D02*
X185873000Y-29893000D01*
X192173000Y-34393000D02*
G75*
G03*
X192173000Y-34393000I-1800000J0D01*
G01*
X189313000Y-26913000D02*
X189313000Y-27713000D01*
X189313000Y-26913000D02*
X190173000Y-26913000D01*
%TO.C,mute8*%
X183690000Y-91219200D02*
X189690000Y-91219200D01*
X189690000Y-91219200D02*
X189690000Y-97219200D01*
X189690000Y-97219200D02*
X183690000Y-97219200D01*
X183690000Y-97219200D02*
X183690000Y-91219200D01*
%TO.C,mute7*%
X170278800Y-91183200D02*
X176278800Y-91183200D01*
X176278800Y-91183200D02*
X176278800Y-97183200D01*
X176278800Y-97183200D02*
X170278800Y-97183200D01*
X170278800Y-97183200D02*
X170278800Y-91183200D01*
%TO.C,mute6*%
X156867600Y-91193800D02*
X162867600Y-91193800D01*
X162867600Y-91193800D02*
X162867600Y-97193800D01*
X162867600Y-97193800D02*
X156867600Y-97193800D01*
X156867600Y-97193800D02*
X156867600Y-91193800D01*
%TO.C,mute5*%
X143431000Y-91219200D02*
X149431000Y-91219200D01*
X149431000Y-91219200D02*
X149431000Y-97219200D01*
X149431000Y-97219200D02*
X143431000Y-97219200D01*
X143431000Y-97219200D02*
X143431000Y-91219200D01*
%TO.C,mute4*%
X130070600Y-91208600D02*
X136070600Y-91208600D01*
X136070600Y-91208600D02*
X136070600Y-97208600D01*
X136070600Y-97208600D02*
X130070600Y-97208600D01*
X130070600Y-97208600D02*
X130070600Y-91208600D01*
%TO.C,mute3*%
X116557800Y-91219200D02*
X122557800Y-91219200D01*
X122557800Y-91219200D02*
X122557800Y-97219200D01*
X122557800Y-97219200D02*
X116557800Y-97219200D01*
X116557800Y-97219200D02*
X116557800Y-91219200D01*
%TO.C,mute2*%
X103172000Y-91208600D02*
X109172000Y-91208600D01*
X109172000Y-91208600D02*
X109172000Y-97208600D01*
X109172000Y-97208600D02*
X103172000Y-97208600D01*
X103172000Y-97208600D02*
X103172000Y-91208600D01*
%TO.C,mute1*%
X89710000Y-91208600D02*
X95710000Y-91208600D01*
X95710000Y-91208600D02*
X95710000Y-97208600D01*
X95710000Y-97208600D02*
X89710000Y-97208600D01*
X89710000Y-97208600D02*
X89710000Y-91208600D01*
%TO.C,J201*%
X198822000Y-124266000D02*
X204022000Y-124266000D01*
X198822000Y-114046000D02*
X198822000Y-124266000D01*
X204022000Y-111446000D02*
X204022000Y-124266000D01*
X198822000Y-114046000D02*
X201422000Y-114046000D01*
X201422000Y-114046000D02*
X201422000Y-111446000D01*
X201422000Y-111446000D02*
X204022000Y-111446000D01*
X198822000Y-112776000D02*
X198822000Y-111446000D01*
X198822000Y-111446000D02*
X200152000Y-111446000D01*
%TO.C,In8*%
X29158000Y-130992000D02*
X39658000Y-130992000D01*
X29158000Y-121992000D02*
X39658000Y-121992000D01*
X39658000Y-121992000D02*
X39658000Y-125992000D01*
X39658000Y-126992000D02*
X39658000Y-130992000D01*
X29158000Y-121992000D02*
X29158000Y-126142000D01*
X29158000Y-126842000D02*
X29158000Y-130992000D01*
X35458000Y-126492000D02*
G75*
G03*
X35458000Y-126492000I-1800000J0D01*
G01*
X26178000Y-127552000D02*
X26978000Y-127552000D01*
X26178000Y-127552000D02*
X26178000Y-126692000D01*
%TO.C,In7*%
X29158000Y-117530000D02*
X39658000Y-117530000D01*
X29158000Y-108530000D02*
X39658000Y-108530000D01*
X39658000Y-108530000D02*
X39658000Y-112530000D01*
X39658000Y-113530000D02*
X39658000Y-117530000D01*
X29158000Y-108530000D02*
X29158000Y-112680000D01*
X29158000Y-113380000D02*
X29158000Y-117530000D01*
X35458000Y-113030000D02*
G75*
G03*
X35458000Y-113030000I-1800000J0D01*
G01*
X26178000Y-114090000D02*
X26978000Y-114090000D01*
X26178000Y-114090000D02*
X26178000Y-113230000D01*
%TO.C,In6*%
X29158000Y-104068000D02*
X39658000Y-104068000D01*
X29158000Y-95068000D02*
X39658000Y-95068000D01*
X39658000Y-95068000D02*
X39658000Y-99068000D01*
X39658000Y-100068000D02*
X39658000Y-104068000D01*
X29158000Y-95068000D02*
X29158000Y-99218000D01*
X29158000Y-99918000D02*
X29158000Y-104068000D01*
X35458000Y-99568000D02*
G75*
G03*
X35458000Y-99568000I-1800000J0D01*
G01*
X26178000Y-100628000D02*
X26978000Y-100628000D01*
X26178000Y-100628000D02*
X26178000Y-99768000D01*
%TO.C,In5*%
X29106000Y-90606000D02*
X39606000Y-90606000D01*
X29106000Y-81606000D02*
X39606000Y-81606000D01*
X39606000Y-81606000D02*
X39606000Y-85606000D01*
X39606000Y-86606000D02*
X39606000Y-90606000D01*
X29106000Y-81606000D02*
X29106000Y-85756000D01*
X29106000Y-86456000D02*
X29106000Y-90606000D01*
X35406000Y-86106000D02*
G75*
G03*
X35406000Y-86106000I-1800000J0D01*
G01*
X26126000Y-87166000D02*
X26926000Y-87166000D01*
X26126000Y-87166000D02*
X26126000Y-86306000D01*
%TO.C,IN4*%
X29188000Y-77144000D02*
X39688000Y-77144000D01*
X29188000Y-68144000D02*
X39688000Y-68144000D01*
X39688000Y-68144000D02*
X39688000Y-72144000D01*
X39688000Y-73144000D02*
X39688000Y-77144000D01*
X29188000Y-68144000D02*
X29188000Y-72294000D01*
X29188000Y-72994000D02*
X29188000Y-77144000D01*
X35488000Y-72644000D02*
G75*
G03*
X35488000Y-72644000I-1800000J0D01*
G01*
X26208000Y-73704000D02*
X27008000Y-73704000D01*
X26208000Y-73704000D02*
X26208000Y-72844000D01*
%TO.C,IN3*%
X29188000Y-63809000D02*
X39688000Y-63809000D01*
X29188000Y-54809000D02*
X39688000Y-54809000D01*
X39688000Y-54809000D02*
X39688000Y-58809000D01*
X39688000Y-59809000D02*
X39688000Y-63809000D01*
X29188000Y-54809000D02*
X29188000Y-58959000D01*
X29188000Y-59659000D02*
X29188000Y-63809000D01*
X35488000Y-59309000D02*
G75*
G03*
X35488000Y-59309000I-1800000J0D01*
G01*
X26208000Y-60369000D02*
X27008000Y-60369000D01*
X26208000Y-60369000D02*
X26208000Y-59509000D01*
%TO.C,IN2*%
X29158000Y-50220000D02*
X39658000Y-50220000D01*
X29158000Y-41220000D02*
X39658000Y-41220000D01*
X39658000Y-41220000D02*
X39658000Y-45220000D01*
X39658000Y-46220000D02*
X39658000Y-50220000D01*
X29158000Y-41220000D02*
X29158000Y-45370000D01*
X29158000Y-46070000D02*
X29158000Y-50220000D01*
X35458000Y-45720000D02*
G75*
G03*
X35458000Y-45720000I-1800000J0D01*
G01*
X26178000Y-46780000D02*
X26978000Y-46780000D01*
X26178000Y-46780000D02*
X26178000Y-45920000D01*
%TO.C,IN1*%
X29158000Y-36758000D02*
X39658000Y-36758000D01*
X29158000Y-27758000D02*
X39658000Y-27758000D01*
X39658000Y-27758000D02*
X39658000Y-31758000D01*
X39658000Y-32758000D02*
X39658000Y-36758000D01*
X29158000Y-27758000D02*
X29158000Y-31908000D01*
X29158000Y-32608000D02*
X29158000Y-36758000D01*
X35458000Y-32258000D02*
G75*
G03*
X35458000Y-32258000I-1800000J0D01*
G01*
X26178000Y-33318000D02*
X26978000Y-33318000D01*
X26178000Y-33318000D02*
X26178000Y-32458000D01*
%TO.C,CVAtten8*%
X57268000Y-121384000D02*
X61205000Y-121384000D01*
X65572000Y-121384000D02*
X69508000Y-121384000D01*
X57268000Y-131425000D02*
X61205000Y-131425000D01*
X65572000Y-131425000D02*
X69508000Y-131425000D01*
X57268000Y-121384000D02*
X57268000Y-123034000D01*
X57268000Y-124776000D02*
X57268000Y-125535000D01*
X57268000Y-127276000D02*
X57268000Y-128035000D01*
X57268000Y-129775000D02*
X57268000Y-131425000D01*
X69508000Y-121384000D02*
X69508000Y-131425000D01*
%TO.C,CVAtten7*%
X57268000Y-107922000D02*
X61205000Y-107922000D01*
X65572000Y-107922000D02*
X69508000Y-107922000D01*
X57268000Y-117963000D02*
X61205000Y-117963000D01*
X65572000Y-117963000D02*
X69508000Y-117963000D01*
X57268000Y-107922000D02*
X57268000Y-109572000D01*
X57268000Y-111314000D02*
X57268000Y-112073000D01*
X57268000Y-113814000D02*
X57268000Y-114573000D01*
X57268000Y-116313000D02*
X57268000Y-117963000D01*
X69508000Y-107922000D02*
X69508000Y-117963000D01*
%TO.C,CVAtten6*%
X57268000Y-94460000D02*
X61205000Y-94460000D01*
X65572000Y-94460000D02*
X69508000Y-94460000D01*
X57268000Y-104501000D02*
X61205000Y-104501000D01*
X65572000Y-104501000D02*
X69508000Y-104501000D01*
X57268000Y-94460000D02*
X57268000Y-96110000D01*
X57268000Y-97852000D02*
X57268000Y-98611000D01*
X57268000Y-100352000D02*
X57268000Y-101111000D01*
X57268000Y-102851000D02*
X57268000Y-104501000D01*
X69508000Y-94460000D02*
X69508000Y-104501000D01*
%TO.C,CVAtten5*%
X57253000Y-80998000D02*
X61190000Y-80998000D01*
X65557000Y-80998000D02*
X69493000Y-80998000D01*
X57253000Y-91039000D02*
X61190000Y-91039000D01*
X65557000Y-91039000D02*
X69493000Y-91039000D01*
X57253000Y-80998000D02*
X57253000Y-82648000D01*
X57253000Y-84390000D02*
X57253000Y-85149000D01*
X57253000Y-86890000D02*
X57253000Y-87649000D01*
X57253000Y-89389000D02*
X57253000Y-91039000D01*
X69493000Y-80998000D02*
X69493000Y-91039000D01*
%TO.C,CVAtten4*%
X57253000Y-67536000D02*
X61190000Y-67536000D01*
X65557000Y-67536000D02*
X69493000Y-67536000D01*
X57253000Y-77577000D02*
X61190000Y-77577000D01*
X65557000Y-77577000D02*
X69493000Y-77577000D01*
X57253000Y-67536000D02*
X57253000Y-69186000D01*
X57253000Y-70928000D02*
X57253000Y-71687000D01*
X57253000Y-73428000D02*
X57253000Y-74187000D01*
X57253000Y-75927000D02*
X57253000Y-77577000D01*
X69493000Y-67536000D02*
X69493000Y-77577000D01*
%TO.C,CVAtten3*%
X57253000Y-54116000D02*
X61190000Y-54116000D01*
X65557000Y-54116000D02*
X69493000Y-54116000D01*
X57253000Y-64157000D02*
X61190000Y-64157000D01*
X65557000Y-64157000D02*
X69493000Y-64157000D01*
X57253000Y-54116000D02*
X57253000Y-55766000D01*
X57253000Y-57508000D02*
X57253000Y-58267000D01*
X57253000Y-60008000D02*
X57253000Y-60767000D01*
X57253000Y-62507000D02*
X57253000Y-64157000D01*
X69493000Y-54116000D02*
X69493000Y-64157000D01*
%TO.C,CVAtten2*%
X57268000Y-40699000D02*
X61205000Y-40699000D01*
X65572000Y-40699000D02*
X69508000Y-40699000D01*
X57268000Y-50740000D02*
X61205000Y-50740000D01*
X65572000Y-50740000D02*
X69508000Y-50740000D01*
X57268000Y-40699000D02*
X57268000Y-42349000D01*
X57268000Y-44091000D02*
X57268000Y-44850000D01*
X57268000Y-46591000D02*
X57268000Y-47350000D01*
X57268000Y-49090000D02*
X57268000Y-50740000D01*
X69508000Y-40699000D02*
X69508000Y-50740000D01*
%TO.C,CVAtten1*%
X57268000Y-27277000D02*
X61205000Y-27277000D01*
X65572000Y-27277000D02*
X69508000Y-27277000D01*
X57268000Y-37318000D02*
X61205000Y-37318000D01*
X65572000Y-37318000D02*
X69508000Y-37318000D01*
X57268000Y-27277000D02*
X57268000Y-28927000D01*
X57268000Y-30669000D02*
X57268000Y-31428000D01*
X57268000Y-33169000D02*
X57268000Y-33928000D01*
X57268000Y-35668000D02*
X57268000Y-37318000D01*
X69508000Y-27277000D02*
X69508000Y-37318000D01*
%TO.C,CV8*%
X43890000Y-130992000D02*
X54390000Y-130992000D01*
X43890000Y-121992000D02*
X54390000Y-121992000D01*
X54390000Y-121992000D02*
X54390000Y-125992000D01*
X54390000Y-126992000D02*
X54390000Y-130992000D01*
X43890000Y-121992000D02*
X43890000Y-126142000D01*
X43890000Y-126842000D02*
X43890000Y-130992000D01*
X50190000Y-126492000D02*
G75*
G03*
X50190000Y-126492000I-1800000J0D01*
G01*
X40910000Y-127552000D02*
X41710000Y-127552000D01*
X40910000Y-127552000D02*
X40910000Y-126692000D01*
%TO.C,CV7*%
X43890000Y-117530000D02*
X54390000Y-117530000D01*
X43890000Y-108530000D02*
X54390000Y-108530000D01*
X54390000Y-108530000D02*
X54390000Y-112530000D01*
X54390000Y-113530000D02*
X54390000Y-117530000D01*
X43890000Y-108530000D02*
X43890000Y-112680000D01*
X43890000Y-113380000D02*
X43890000Y-117530000D01*
X50190000Y-113030000D02*
G75*
G03*
X50190000Y-113030000I-1800000J0D01*
G01*
X40910000Y-114090000D02*
X41710000Y-114090000D01*
X40910000Y-114090000D02*
X40910000Y-113230000D01*
%TO.C,CV6*%
X43838000Y-104068000D02*
X54338000Y-104068000D01*
X43838000Y-95068000D02*
X54338000Y-95068000D01*
X54338000Y-95068000D02*
X54338000Y-99068000D01*
X54338000Y-100068000D02*
X54338000Y-104068000D01*
X43838000Y-95068000D02*
X43838000Y-99218000D01*
X43838000Y-99918000D02*
X43838000Y-104068000D01*
X50138000Y-99568000D02*
G75*
G03*
X50138000Y-99568000I-1800000J0D01*
G01*
X40858000Y-100628000D02*
X41658000Y-100628000D01*
X40858000Y-100628000D02*
X40858000Y-99768000D01*
%TO.C,CV5*%
X43890000Y-90606000D02*
X54390000Y-90606000D01*
X43890000Y-81606000D02*
X54390000Y-81606000D01*
X54390000Y-81606000D02*
X54390000Y-85606000D01*
X54390000Y-86606000D02*
X54390000Y-90606000D01*
X43890000Y-81606000D02*
X43890000Y-85756000D01*
X43890000Y-86456000D02*
X43890000Y-90606000D01*
X50190000Y-86106000D02*
G75*
G03*
X50190000Y-86106000I-1800000J0D01*
G01*
X40910000Y-87166000D02*
X41710000Y-87166000D01*
X40910000Y-87166000D02*
X40910000Y-86306000D01*
%TO.C,CV4*%
X43890000Y-77144000D02*
X54390000Y-77144000D01*
X43890000Y-68144000D02*
X54390000Y-68144000D01*
X54390000Y-68144000D02*
X54390000Y-72144000D01*
X54390000Y-73144000D02*
X54390000Y-77144000D01*
X43890000Y-68144000D02*
X43890000Y-72294000D01*
X43890000Y-72994000D02*
X43890000Y-77144000D01*
X50190000Y-72644000D02*
G75*
G03*
X50190000Y-72644000I-1800000J0D01*
G01*
X40910000Y-73704000D02*
X41710000Y-73704000D01*
X40910000Y-73704000D02*
X40910000Y-72844000D01*
%TO.C,CV3*%
X43890000Y-63809000D02*
X54390000Y-63809000D01*
X43890000Y-54809000D02*
X54390000Y-54809000D01*
X54390000Y-54809000D02*
X54390000Y-58809000D01*
X54390000Y-59809000D02*
X54390000Y-63809000D01*
X43890000Y-54809000D02*
X43890000Y-58959000D01*
X43890000Y-59659000D02*
X43890000Y-63809000D01*
X50190000Y-59309000D02*
G75*
G03*
X50190000Y-59309000I-1800000J0D01*
G01*
X40910000Y-60369000D02*
X41710000Y-60369000D01*
X40910000Y-60369000D02*
X40910000Y-59509000D01*
%TO.C,CV2*%
X43890000Y-50220000D02*
X54390000Y-50220000D01*
X43890000Y-41220000D02*
X54390000Y-41220000D01*
X54390000Y-41220000D02*
X54390000Y-45220000D01*
X54390000Y-46220000D02*
X54390000Y-50220000D01*
X43890000Y-41220000D02*
X43890000Y-45370000D01*
X43890000Y-46070000D02*
X43890000Y-50220000D01*
X50190000Y-45720000D02*
G75*
G03*
X50190000Y-45720000I-1800000J0D01*
G01*
X40910000Y-46780000D02*
X41710000Y-46780000D01*
X40910000Y-46780000D02*
X40910000Y-45920000D01*
%TO.C,CV1*%
X43920000Y-36758000D02*
X54420000Y-36758000D01*
X43920000Y-27758000D02*
X54420000Y-27758000D01*
X54420000Y-27758000D02*
X54420000Y-31758000D01*
X54420000Y-32758000D02*
X54420000Y-36758000D01*
X43920000Y-27758000D02*
X43920000Y-31908000D01*
X43920000Y-32608000D02*
X43920000Y-36758000D01*
X50220000Y-32258000D02*
G75*
G03*
X50220000Y-32258000I-1800000J0D01*
G01*
X40940000Y-33318000D02*
X41740000Y-33318000D01*
X40940000Y-33318000D02*
X40940000Y-32458000D01*
%TD*%
M02*
