M48
; DRILL file {KiCad 5.1.12-1.fc35} date Mon 18 Apr 2022 11:49:58 AM EDT
; FORMAT={-:-/ absolute / metric / decimal}
; #@! TF.CreationDate,2022-04-18T11:49:58-04:00
; #@! TF.GenerationSoftware,Kicad,Pcbnew,5.1.12-1.fc35
; #@! TF.FileFunction,NonPlated,1,2,NPTH
FMAT,2
METRIC
T1C2.000
%
G90
G05
T1
X63.373Y-54.737
X63.373Y-63.537
X63.373Y-68.157
X63.373Y-76.957
X63.373Y-81.619
X63.373Y-90.419
X63.388Y-27.898
X63.388Y-36.698
X63.388Y-41.32
X63.388Y-50.12
X63.388Y-95.081
X63.388Y-103.881
X63.388Y-108.543
X63.388Y-117.343
X63.388Y-122.005
X63.388Y-130.805
X88.392Y-82.423
X97.192Y-82.423
X101.854Y-82.423
X110.654Y-82.423
X115.316Y-82.408
X124.116Y-82.408
X128.778Y-82.408
X137.578Y-82.408
X142.24Y-82.408
X151.04Y-82.408
X155.702Y-82.408
X164.502Y-82.408
X169.164Y-82.408
X177.964Y-82.408
X182.626Y-82.408
X191.426Y-82.408
T0
M30
