M48
; DRILL file {KiCad 5.1.12-1.fc35} date Mon 18 Apr 2022 11:49:58 AM EDT
; FORMAT={-:-/ absolute / metric / decimal}
; #@! TF.CreationDate,2022-04-18T11:49:58-04:00
; #@! TF.GenerationSoftware,Kicad,Pcbnew,5.1.12-1.fc35
; #@! TF.FileFunction,Plated,1,2,PTH
FMAT,2
METRIC
T1C0.400
T2C0.762
T3C0.800
T4C1.000
T5C1.220
T6C1.420
T7C1.430
%
G90
G05
T1
X26.162Y-93.472
X26.924Y-108.712
X26.924Y-110.744
X26.924Y-120.65
X26.924Y-122.682
X28.829Y-77.216
X28.956Y-64.008
X28.956Y-90.678
X28.956Y-117.348
X28.956Y-130.81
X29.591Y-37.592
X29.718Y-50.673
X30.982Y-63.936
X31.131Y-77.343
X31.242Y-129.286
X31.496Y-92.71
X31.496Y-116.078
X31.512Y-106.172
X31.782Y-39.624
X31.909Y-50.673
X32.893Y-65.913
X32.982Y-63.936
X33.02Y-83.058
X33.036Y-95.758
X33.131Y-77.343
X33.147Y-79.502
X33.242Y-131.318
X33.274Y-129.286
X33.512Y-90.694
X33.512Y-104.14
X33.512Y-116.094
X33.528Y-92.71
X33.528Y-106.172
X33.528Y-118.11
X33.655Y-39.624
X33.782Y-37.592
X33.909Y-50.673
X33.909Y-52.578
X35.441Y-128.913
X36.322Y-100.584
X36.83Y-54.102
X36.846Y-41.148
X38.989Y-77.851
X39.021Y-92.006
X39.116Y-109.982
X39.116Y-117.703
X39.116Y-122.428
X39.116Y-131.318
X39.243Y-65.278
X39.37Y-51.435
X39.37Y-105.664
X39.497Y-38.1
X40.386Y-89.916
X40.402Y-91.964
X40.513Y-76.327
X40.64Y-117.602
X40.64Y-119.634
X40.64Y-129.286
X40.767Y-50.038
X40.894Y-63.119
X40.894Y-65.151
X40.894Y-82.042
X40.91Y-103.124
X41.148Y-37.084
X41.148Y-122.428
X41.18Y-39.116
X42.037Y-28.194
X42.418Y-91.948
X42.513Y-76.2
X42.767Y-50.038
X42.767Y-52.07
X42.894Y-65.151
X42.926Y-48.387
X42.926Y-67.056
X42.926Y-103.124
X43.148Y-37.084
X43.307Y-42.418
X44.45Y-95.758
X45.083Y-119.509
X45.085Y-65.659
X45.466Y-69.088
X45.466Y-94.488
X46.736Y-68.072
X46.863Y-62.992
X46.99Y-92.456
X47.117Y-41.021
X47.371Y-49.276
X47.561Y-93.663
X47.752Y-115.57
X48.006Y-131.064
X48.514Y-54.737
X48.53Y-75.311
X48.927Y-31.242
X54.483Y-38.227
X56.134Y-92.964
X58.737Y-72.453
X59.436Y-32.131
X59.436Y-68.77
X65.532Y-113.03
X65.786Y-126.492
X66.929Y-56.642
X67.056Y-51.562
X67.183Y-68.453
X67.564Y-94.234
X67.818Y-69.596
X68.605Y-61.112
X68.834Y-47.117
X68.834Y-103.378
X69.304Y-60.287
X69.596Y-80.264
X69.85Y-111.76
X70.045Y-119.185
X70.143Y-66.079
X70.358Y-27.432
X70.358Y-37.211
X70.485Y-60.642
X71.372Y-63.629
X71.374Y-29.464
X74.93Y-82.296
X75.057Y-58.547
X75.184Y-40.386
X75.692Y-99.314
X75.944Y-69.598
X76.216Y-86.376
X76.216Y-112.538
X76.47Y-33.147
X76.708Y-51.054
X76.724Y-57.023
X77.486Y-123.936
X77.724Y-97.79
X77.978Y-58.674
X78.264Y-44.958
X78.518Y-68.707
X81.28Y-82.296
X82.042Y-70.358
X82.296Y-40.386
X82.296Y-99.314
X82.296Y-128.524
X83.312Y-124.46
X84.074Y-44.196
X86.106Y-121.92
X86.36Y-118.364
X86.36Y-126.746
X87.376Y-113.284
X87.376Y-116.078
X88.646Y-100.838
X90.678Y-103.632
X90.678Y-107.696
X91.44Y-126.746
X93.472Y-76.708
X94.488Y-102.806
X98.044Y-113.284
X102.362Y-100.33
X103.124Y-78.168
X104.394Y-103.632
X104.394Y-107.696
X106.172Y-76.708
X110.49Y-116.078
X116.078Y-100.076
X118.11Y-103.378
X118.11Y-107.442
X119.888Y-77.216
X125.222Y-118.364
X129.286Y-99.822
X131.318Y-103.378
X131.318Y-107.442
X134.112Y-78.74
X138.684Y-121.92
X139.446Y-100.584
X143.002Y-99.822
X145.034Y-103.378
X145.034Y-107.442
X146.304Y-94.742
X148.082Y-78.994
X148.336Y-102.616
X152.4Y-124.46
X156.21Y-99.822
X158.242Y-103.378
X158.242Y-107.442
X162.077Y-77.495
X165.354Y-128.524
X169.672Y-99.568
X171.704Y-103.378
X171.704Y-107.442
X175.26Y-77.978
X176.022Y-128.27
X182.88Y-99.568
X184.912Y-103.378
X184.912Y-107.442
X188.341Y-56.928
X188.659Y-55.245
X188.976Y-77.724
X192.659Y-61.214
X194.945Y-53.657
X200.237Y-55.16
X200.279Y-62.23
X202.311Y-51.435
X202.311Y-60.706
X204.153Y-65.215
T2
X90.71Y-92.492
X90.71Y-96.992
X90.71Y-132.32
X92.71Y-92.492
X92.71Y-96.992
X94.71Y-92.492
X94.71Y-96.992
X94.71Y-98.82
X94.71Y-132.32
X104.172Y-92.528
X104.172Y-97.028
X104.172Y-132.32
X106.172Y-92.528
X106.172Y-97.028
X108.172Y-92.528
X108.172Y-97.028
X108.172Y-98.82
X108.172Y-132.32
X117.634Y-92.528
X117.634Y-97.028
X117.888Y-132.32
X119.634Y-92.528
X119.634Y-97.028
X121.634Y-92.528
X121.634Y-97.028
X121.888Y-98.82
X121.888Y-132.32
X131.096Y-132.32
X131.128Y-92.528
X131.128Y-97.028
X133.128Y-92.528
X133.128Y-97.028
X135.096Y-98.82
X135.096Y-132.32
X135.128Y-92.528
X135.128Y-97.028
X144.59Y-92.528
X144.59Y-97.028
X144.812Y-132.32
X146.59Y-92.528
X146.59Y-97.028
X148.59Y-92.528
X148.59Y-97.028
X148.812Y-98.82
X148.812Y-132.32
X158.02Y-92.528
X158.02Y-97.028
X158.02Y-132.32
X160.02Y-92.528
X160.02Y-97.028
X162.02Y-92.528
X162.02Y-97.028
X162.02Y-98.82
X162.02Y-132.32
X171.482Y-92.528
X171.482Y-97.028
X171.482Y-132.32
X173.482Y-92.528
X173.482Y-97.028
X175.482Y-92.528
X175.482Y-97.028
X175.482Y-98.82
X175.482Y-132.32
X184.69Y-132.32
X184.944Y-92.528
X184.944Y-97.028
X186.944Y-92.528
X186.944Y-97.028
X188.69Y-98.82
X188.69Y-132.32
X188.944Y-92.528
X188.944Y-97.028
T3
X72.513Y-81.931
X72.513Y-84.471
X72.513Y-87.011
X72.513Y-95.406
X72.513Y-97.946
X72.513Y-100.486
X72.517Y-28.194
X72.517Y-30.734
X72.517Y-33.274
X72.517Y-41.656
X72.517Y-44.196
X72.517Y-46.736
X72.517Y-54.991
X72.517Y-57.531
X72.517Y-60.071
X72.517Y-68.453
X72.517Y-70.993
X72.517Y-73.533
X72.54Y-108.89
X72.54Y-111.43
X72.54Y-113.97
X72.54Y-122.332
X72.54Y-124.872
X72.54Y-127.412
X87.376Y-91.774
X87.376Y-96.774
X101.346Y-91.774
X101.346Y-96.774
X114.808Y-91.774
X114.808Y-96.774
X128.27Y-91.774
X128.27Y-96.774
X141.732Y-91.774
X141.732Y-96.774
X155.194Y-91.774
X155.194Y-96.774
X168.656Y-91.774
X168.656Y-96.774
X182.118Y-91.774
X182.118Y-96.774
T4
X56.373Y-56.637
X56.373Y-59.137
X56.373Y-61.637
X56.373Y-70.057
X56.373Y-72.557
X56.373Y-75.057
X56.373Y-83.519
X56.373Y-86.019
X56.373Y-88.519
X56.388Y-29.798
X56.388Y-32.298
X56.388Y-34.798
X56.388Y-43.22
X56.388Y-45.72
X56.388Y-48.22
X56.388Y-96.981
X56.388Y-99.481
X56.388Y-101.981
X56.388Y-110.443
X56.388Y-112.943
X56.388Y-115.443
X56.388Y-123.905
X56.388Y-126.405
X56.388Y-128.905
X90.292Y-89.423
X92.792Y-89.423
X95.292Y-89.423
X103.754Y-89.423
X106.254Y-89.423
X108.754Y-89.423
X117.216Y-89.408
X119.716Y-89.408
X122.216Y-89.408
X130.678Y-89.408
X133.178Y-89.408
X135.678Y-89.408
X144.14Y-89.408
X146.64Y-89.408
X149.14Y-89.408
X157.602Y-89.408
X160.102Y-89.408
X162.602Y-89.408
X171.064Y-89.408
X173.564Y-89.408
X176.064Y-89.408
X184.526Y-89.408
X187.026Y-89.408
X189.526Y-89.408
X200.152Y-112.776
X200.152Y-115.316
X200.152Y-117.856
X200.152Y-120.396
X200.152Y-122.936
X202.692Y-112.776
X202.692Y-115.316
X202.692Y-117.856
X202.692Y-120.396
X202.692Y-122.936
T5
X27.126Y-86.106
X27.178Y-32.258
X27.178Y-45.72
X27.178Y-99.568
X27.178Y-113.03
X27.178Y-126.492
X27.208Y-59.309
X27.208Y-72.644
X41.858Y-99.568
X41.91Y-45.72
X41.91Y-59.309
X41.91Y-72.644
X41.91Y-86.106
X41.91Y-113.03
X41.91Y-126.492
X41.94Y-32.258
X190.373Y-27.913
X200.699Y-27.913
T6
X30.226Y-86.106
X30.278Y-32.258
X30.278Y-45.72
X30.278Y-99.568
X30.278Y-113.03
X30.278Y-126.492
X30.308Y-59.309
X30.308Y-72.644
X44.958Y-99.568
X45.01Y-45.72
X45.01Y-59.309
X45.01Y-72.644
X45.01Y-86.106
X45.01Y-113.03
X45.01Y-126.492
X45.04Y-32.258
X190.373Y-31.013
X200.699Y-31.013
T7
X38.526Y-86.106
X38.578Y-32.258
X38.578Y-45.72
X38.578Y-99.568
X38.578Y-113.03
X38.578Y-126.492
X38.608Y-59.309
X38.608Y-72.644
X53.258Y-99.568
X53.31Y-45.72
X53.31Y-59.309
X53.31Y-72.644
X53.31Y-86.106
X53.31Y-113.03
X53.31Y-126.492
X53.34Y-32.258
X190.373Y-39.313
X200.699Y-39.313
T0
M30
