%TF.GenerationSoftware,KiCad,Pcbnew,6.0.4-1.fc35*%
%TF.CreationDate,2022-05-28T16:25:33-04:00*%
%TF.ProjectId,kassuVCA,6b617373-7556-4434-912e-6b696361645f,rev?*%
%TF.SameCoordinates,Original*%
%TF.FileFunction,Paste,Bot*%
%TF.FilePolarity,Positive*%
%FSLAX46Y46*%
G04 Gerber Fmt 4.6, Leading zero omitted, Abs format (unit mm)*
G04 Created by KiCad (PCBNEW 6.0.4-1.fc35) date 2022-05-28 16:25:33*
%MOMM*%
%LPD*%
G01*
G04 APERTURE LIST*
G04 Aperture macros list*
%AMRoundRect*
0 Rectangle with rounded corners*
0 $1 Rounding radius*
0 $2 $3 $4 $5 $6 $7 $8 $9 X,Y pos of 4 corners*
0 Add a 4 corners polygon primitive as box body*
4,1,4,$2,$3,$4,$5,$6,$7,$8,$9,$2,$3,0*
0 Add four circle primitives for the rounded corners*
1,1,$1+$1,$2,$3*
1,1,$1+$1,$4,$5*
1,1,$1+$1,$6,$7*
1,1,$1+$1,$8,$9*
0 Add four rect primitives between the rounded corners*
20,1,$1+$1,$2,$3,$4,$5,0*
20,1,$1+$1,$4,$5,$6,$7,0*
20,1,$1+$1,$6,$7,$8,$9,0*
20,1,$1+$1,$8,$9,$2,$3,0*%
G04 Aperture macros list end*
%ADD10RoundRect,0.249999X0.350001X0.450001X-0.350001X0.450001X-0.350001X-0.450001X0.350001X-0.450001X0*%
%ADD11RoundRect,0.150000X-0.150000X0.825000X-0.150000X-0.825000X0.150000X-0.825000X0.150000X0.825000X0*%
%ADD12RoundRect,0.150000X-0.825000X-0.150000X0.825000X-0.150000X0.825000X0.150000X-0.825000X0.150000X0*%
%ADD13RoundRect,0.249999X-0.350001X-0.450001X0.350001X-0.450001X0.350001X0.450001X-0.350001X0.450001X0*%
%ADD14RoundRect,0.249999X-0.450001X0.350001X-0.450001X-0.350001X0.450001X-0.350001X0.450001X0.350001X0*%
%ADD15RoundRect,0.249999X0.450001X-0.350001X0.450001X0.350001X-0.450001X0.350001X-0.450001X-0.350001X0*%
%ADD16R,0.650000X0.400000*%
%ADD17R,0.900000X0.800000*%
G04 APERTURE END LIST*
D10*
%TO.C,R517*%
X40894000Y-65151000D03*
X42894000Y-65151000D03*
%TD*%
D11*
%TO.C,U502*%
X76708000Y-65213000D03*
X77978000Y-65213000D03*
X79248000Y-65213000D03*
X80518000Y-65213000D03*
X80518000Y-60263000D03*
X79248000Y-60263000D03*
X77978000Y-60263000D03*
X76708000Y-60263000D03*
%TD*%
%TO.C,U501*%
X48768000Y-68577000D03*
X50038000Y-68577000D03*
X51308000Y-68577000D03*
X52578000Y-68577000D03*
X52578000Y-63627000D03*
X51308000Y-63627000D03*
X50038000Y-63627000D03*
X48768000Y-63627000D03*
%TD*%
%TO.C,U402*%
X76454000Y-41780000D03*
X77724000Y-41780000D03*
X78994000Y-41780000D03*
X80264000Y-41780000D03*
X80264000Y-36830000D03*
X78994000Y-36830000D03*
X77724000Y-36830000D03*
X76454000Y-36830000D03*
%TD*%
%TO.C,U401*%
X48768000Y-41402000D03*
X50038000Y-41402000D03*
X51308000Y-41402000D03*
X52578000Y-41402000D03*
X52578000Y-36452000D03*
X51308000Y-36452000D03*
X50038000Y-36452000D03*
X48768000Y-36452000D03*
%TD*%
D12*
%TO.C,U301*%
X196923000Y-58970000D03*
X196923000Y-57700000D03*
X196923000Y-56430000D03*
X196923000Y-55160000D03*
X196923000Y-53890000D03*
X196923000Y-52620000D03*
X196923000Y-51350000D03*
X191973000Y-51350000D03*
X191973000Y-52620000D03*
X191973000Y-53890000D03*
X191973000Y-55160000D03*
X191973000Y-56430000D03*
X191973000Y-57700000D03*
X191973000Y-58970000D03*
%TD*%
D11*
%TO.C,U4*%
X76073000Y-120585000D03*
X77343000Y-120585000D03*
X78613000Y-120585000D03*
X79883000Y-120585000D03*
X79883000Y-115635000D03*
X78613000Y-115635000D03*
X77343000Y-115635000D03*
X76073000Y-115635000D03*
%TD*%
%TO.C,U3*%
X49403000Y-122109000D03*
X50673000Y-122109000D03*
X51943000Y-122109000D03*
X53213000Y-122109000D03*
X53213000Y-117159000D03*
X51943000Y-117159000D03*
X50673000Y-117159000D03*
X49403000Y-117159000D03*
%TD*%
%TO.C,U2*%
X76073000Y-94931000D03*
X77343000Y-94931000D03*
X78613000Y-94931000D03*
X79883000Y-94931000D03*
X79883000Y-89981000D03*
X78613000Y-89981000D03*
X77343000Y-89981000D03*
X76073000Y-89981000D03*
%TD*%
%TO.C,U1*%
X49403000Y-95693000D03*
X50673000Y-95693000D03*
X51943000Y-95693000D03*
X53213000Y-95693000D03*
X53213000Y-90743000D03*
X51943000Y-90743000D03*
X50673000Y-90743000D03*
X49403000Y-90743000D03*
%TD*%
D13*
%TO.C,R542*%
X131318000Y-103378000D03*
X129318000Y-103378000D03*
%TD*%
%TO.C,R541*%
X131318000Y-107442000D03*
X129318000Y-107442000D03*
%TD*%
%TO.C,R540*%
X118110000Y-103378000D03*
X116110000Y-103378000D03*
%TD*%
%TO.C,R539*%
X118094000Y-107442000D03*
X116094000Y-107442000D03*
%TD*%
D10*
%TO.C,R538*%
X129318000Y-105410000D03*
X131318000Y-105410000D03*
%TD*%
%TO.C,R537*%
X129318000Y-109474000D03*
X131318000Y-109474000D03*
%TD*%
%TO.C,R536*%
X116094000Y-105410000D03*
X118094000Y-105410000D03*
%TD*%
%TO.C,R535*%
X116078000Y-109474000D03*
X118078000Y-109474000D03*
%TD*%
D13*
%TO.C,R534*%
X131302000Y-111506000D03*
X129302000Y-111506000D03*
%TD*%
%TO.C,R533*%
X118110000Y-111506000D03*
X116110000Y-111506000D03*
%TD*%
%TO.C,R532*%
X80518000Y-68707000D03*
X78518000Y-68707000D03*
%TD*%
%TO.C,R531*%
X78724000Y-57023000D03*
X76724000Y-57023000D03*
%TD*%
D10*
%TO.C,R530*%
X31147000Y-79375000D03*
X33147000Y-79375000D03*
%TD*%
%TO.C,R529*%
X30988000Y-65913000D03*
X32988000Y-65913000D03*
%TD*%
D13*
%TO.C,R528*%
X33131000Y-77343000D03*
X31131000Y-77343000D03*
%TD*%
D10*
%TO.C,R527*%
X78502000Y-70739000D03*
X80502000Y-70739000D03*
%TD*%
D13*
%TO.C,R526*%
X32982000Y-63936000D03*
X30982000Y-63936000D03*
%TD*%
D10*
%TO.C,R525*%
X76708000Y-54864000D03*
X78708000Y-54864000D03*
%TD*%
%TO.C,R524*%
X40513000Y-76200000D03*
X42513000Y-76200000D03*
%TD*%
%TO.C,R523*%
X40894000Y-63119000D03*
X42894000Y-63119000D03*
%TD*%
%TO.C,R522*%
X41545000Y-68961000D03*
X43545000Y-68961000D03*
%TD*%
%TO.C,R521*%
X35576000Y-75946000D03*
X37576000Y-75946000D03*
%TD*%
%TO.C,R520*%
X46498000Y-54737000D03*
X48498000Y-54737000D03*
%TD*%
%TO.C,R519*%
X35941000Y-62484000D03*
X37941000Y-62484000D03*
%TD*%
%TO.C,R518*%
X40513000Y-78284000D03*
X42513000Y-78284000D03*
%TD*%
D13*
%TO.C,R516*%
X131302000Y-99822000D03*
X129302000Y-99822000D03*
%TD*%
D10*
%TO.C,R515*%
X26924000Y-77216000D03*
X28924000Y-77216000D03*
%TD*%
D13*
%TO.C,R514*%
X118110000Y-100076000D03*
X116110000Y-100076000D03*
%TD*%
D10*
%TO.C,R513*%
X26924000Y-64008000D03*
X28924000Y-64008000D03*
%TD*%
D13*
%TO.C,R512*%
X50546000Y-77978000D03*
X48546000Y-77978000D03*
%TD*%
%TO.C,R511*%
X61341000Y-58166000D03*
X59341000Y-58166000D03*
%TD*%
%TO.C,R510*%
X50530000Y-75311000D03*
X48530000Y-75311000D03*
%TD*%
%TO.C,R509*%
X50800000Y-57531000D03*
X48800000Y-57531000D03*
%TD*%
D14*
%TO.C,R508*%
X59182000Y-66659000D03*
X59182000Y-64659000D03*
%TD*%
D10*
%TO.C,R507*%
X48784000Y-59563000D03*
X50784000Y-59563000D03*
%TD*%
D13*
%TO.C,R506*%
X28956000Y-75184000D03*
X26956000Y-75184000D03*
%TD*%
%TO.C,R505*%
X28956000Y-61976000D03*
X26956000Y-61976000D03*
%TD*%
D10*
%TO.C,R504*%
X36084000Y-69977000D03*
X38084000Y-69977000D03*
%TD*%
%TO.C,R503*%
X36846000Y-56261000D03*
X38846000Y-56261000D03*
%TD*%
D13*
%TO.C,R502*%
X38084000Y-67945000D03*
X36084000Y-67945000D03*
%TD*%
%TO.C,R501*%
X38830000Y-54229000D03*
X36830000Y-54229000D03*
%TD*%
%TO.C,R442*%
X104378000Y-103632000D03*
X102378000Y-103632000D03*
%TD*%
%TO.C,R441*%
X104394000Y-107696000D03*
X102394000Y-107696000D03*
%TD*%
%TO.C,R440*%
X90646000Y-103632000D03*
X88646000Y-103632000D03*
%TD*%
%TO.C,R439*%
X90662000Y-107696000D03*
X88662000Y-107696000D03*
%TD*%
D10*
%TO.C,R438*%
X102362000Y-105664000D03*
X104362000Y-105664000D03*
%TD*%
%TO.C,R437*%
X102394000Y-109728000D03*
X104394000Y-109728000D03*
%TD*%
%TO.C,R436*%
X88662000Y-105664000D03*
X90662000Y-105664000D03*
%TD*%
%TO.C,R435*%
X88662000Y-109728000D03*
X90662000Y-109728000D03*
%TD*%
D13*
%TO.C,R434*%
X104394000Y-111760000D03*
X102394000Y-111760000D03*
%TD*%
%TO.C,R433*%
X90662000Y-111760000D03*
X88662000Y-111760000D03*
%TD*%
%TO.C,R432*%
X80264000Y-44958000D03*
X78264000Y-44958000D03*
%TD*%
%TO.C,R431*%
X78470000Y-33147000D03*
X76470000Y-33147000D03*
%TD*%
D10*
%TO.C,R430*%
X31877000Y-52705000D03*
X33877000Y-52705000D03*
%TD*%
%TO.C,R429*%
X31782000Y-39624000D03*
X33782000Y-39624000D03*
%TD*%
D13*
%TO.C,R428*%
X33909000Y-50673000D03*
X31909000Y-50673000D03*
%TD*%
D10*
%TO.C,R427*%
X78264000Y-46990000D03*
X80264000Y-46990000D03*
%TD*%
D13*
%TO.C,R426*%
X33782000Y-37592000D03*
X31782000Y-37592000D03*
%TD*%
D10*
%TO.C,R425*%
X76454000Y-31115000D03*
X78454000Y-31115000D03*
%TD*%
%TO.C,R424*%
X40767000Y-50038000D03*
X42767000Y-50038000D03*
%TD*%
%TO.C,R423*%
X41148000Y-37084000D03*
X43148000Y-37084000D03*
%TD*%
D13*
%TO.C,R422*%
X45339000Y-42418000D03*
X43339000Y-42418000D03*
%TD*%
D10*
%TO.C,R421*%
X36354000Y-48641000D03*
X38354000Y-48641000D03*
%TD*%
%TO.C,R420*%
X47260000Y-28321000D03*
X49260000Y-28321000D03*
%TD*%
%TO.C,R419*%
X37338000Y-35814000D03*
X39338000Y-35814000D03*
%TD*%
%TO.C,R418*%
X40767000Y-52070000D03*
X42767000Y-52070000D03*
%TD*%
%TO.C,R417*%
X41180000Y-39116000D03*
X43180000Y-39116000D03*
%TD*%
D13*
%TO.C,R416*%
X104394000Y-100330000D03*
X102394000Y-100330000D03*
%TD*%
D10*
%TO.C,R415*%
X27686000Y-50673000D03*
X29686000Y-50673000D03*
%TD*%
D13*
%TO.C,R414*%
X90678000Y-100838000D03*
X88678000Y-100838000D03*
%TD*%
D10*
%TO.C,R413*%
X27718000Y-37592000D03*
X29718000Y-37592000D03*
%TD*%
D13*
%TO.C,R412*%
X69072000Y-44196000D03*
X67072000Y-44196000D03*
%TD*%
%TO.C,R411*%
X61452000Y-32131000D03*
X59452000Y-32131000D03*
%TD*%
%TO.C,R410*%
X51419000Y-49149000D03*
X49419000Y-49149000D03*
%TD*%
%TO.C,R409*%
X50927000Y-31242000D03*
X48927000Y-31242000D03*
%TD*%
D14*
%TO.C,R408*%
X59436000Y-42132000D03*
X59436000Y-40132000D03*
%TD*%
D10*
%TO.C,R407*%
X48927000Y-33401000D03*
X50927000Y-33401000D03*
%TD*%
D13*
%TO.C,R406*%
X29686000Y-48514000D03*
X27686000Y-48514000D03*
%TD*%
%TO.C,R405*%
X29718000Y-35306000D03*
X27718000Y-35306000D03*
%TD*%
D10*
%TO.C,R404*%
X36862000Y-43307000D03*
X38862000Y-43307000D03*
%TD*%
D15*
%TO.C,R403*%
X44069000Y-28099000D03*
X44069000Y-30099000D03*
%TD*%
D13*
%TO.C,R402*%
X38846000Y-41148000D03*
X36846000Y-41148000D03*
%TD*%
D14*
%TO.C,R401*%
X42037000Y-30092400D03*
X42037000Y-28092400D03*
%TD*%
%TO.C,R308*%
X200279000Y-49387000D03*
X200279000Y-47387000D03*
%TD*%
%TO.C,R307*%
X202311000Y-58896000D03*
X202311000Y-56896000D03*
%TD*%
D15*
%TO.C,R306*%
X200152000Y-56912000D03*
X200152000Y-58912000D03*
%TD*%
D14*
%TO.C,R305*%
X200279000Y-53340000D03*
X200279000Y-51340000D03*
%TD*%
D10*
%TO.C,R304*%
X192024000Y-48006000D03*
X194024000Y-48006000D03*
%TD*%
D15*
%TO.C,R303*%
X202438000Y-51324000D03*
X202438000Y-53324000D03*
%TD*%
%TO.C,R302*%
X188341000Y-56928000D03*
X188341000Y-58928000D03*
%TD*%
D14*
%TO.C,R301*%
X188341000Y-53324000D03*
X188341000Y-51324000D03*
%TD*%
D13*
%TO.C,R84*%
X184912000Y-103378000D03*
X182912000Y-103378000D03*
%TD*%
%TO.C,R83*%
X184912000Y-107442000D03*
X182912000Y-107442000D03*
%TD*%
%TO.C,R82*%
X171704000Y-103378000D03*
X169704000Y-103378000D03*
%TD*%
%TO.C,R81*%
X171688000Y-107442000D03*
X169688000Y-107442000D03*
%TD*%
D10*
%TO.C,R80*%
X182880000Y-105410000D03*
X184880000Y-105410000D03*
%TD*%
%TO.C,R79*%
X182896000Y-109474000D03*
X184896000Y-109474000D03*
%TD*%
%TO.C,R78*%
X169688000Y-105410000D03*
X171688000Y-105410000D03*
%TD*%
%TO.C,R77*%
X169688000Y-109474000D03*
X171688000Y-109474000D03*
%TD*%
D13*
%TO.C,R76*%
X184912000Y-111506000D03*
X182912000Y-111506000D03*
%TD*%
%TO.C,R75*%
X171704000Y-111506000D03*
X169704000Y-111506000D03*
%TD*%
%TO.C,R74*%
X79502000Y-123952000D03*
X77502000Y-123952000D03*
%TD*%
%TO.C,R73*%
X78232000Y-112522000D03*
X76232000Y-112522000D03*
%TD*%
D10*
%TO.C,R72*%
X31242000Y-129286000D03*
X33242000Y-129286000D03*
%TD*%
%TO.C,R71*%
X31496000Y-118110000D03*
X33496000Y-118110000D03*
%TD*%
D13*
%TO.C,R70*%
X33242000Y-131318000D03*
X31242000Y-131318000D03*
%TD*%
D10*
%TO.C,R69*%
X77486000Y-125984000D03*
X79486000Y-125984000D03*
%TD*%
D13*
%TO.C,R68*%
X33496000Y-116078000D03*
X31496000Y-116078000D03*
%TD*%
D10*
%TO.C,R67*%
X76232000Y-110490000D03*
X78232000Y-110490000D03*
%TD*%
%TO.C,R66*%
X40640000Y-129286000D03*
X42640000Y-129286000D03*
%TD*%
%TO.C,R65*%
X40640000Y-117602000D03*
X42640000Y-117602000D03*
%TD*%
D13*
%TO.C,R64*%
X41132000Y-122428000D03*
X39132000Y-122428000D03*
%TD*%
D10*
%TO.C,R63*%
X35322000Y-129032000D03*
X37322000Y-129032000D03*
%TD*%
D13*
%TO.C,R62*%
X41132000Y-109982000D03*
X39132000Y-109982000D03*
%TD*%
D10*
%TO.C,R61*%
X35814000Y-115824000D03*
X37814000Y-115824000D03*
%TD*%
%TO.C,R60*%
X40640000Y-131318000D03*
X42640000Y-131318000D03*
%TD*%
%TO.C,R59*%
X40640000Y-119634000D03*
X42640000Y-119634000D03*
%TD*%
D13*
%TO.C,R58*%
X184896000Y-99568000D03*
X182896000Y-99568000D03*
%TD*%
D10*
%TO.C,R57*%
X26924000Y-130810000D03*
X28924000Y-130810000D03*
%TD*%
D13*
%TO.C,R56*%
X171688000Y-99568000D03*
X169688000Y-99568000D03*
%TD*%
D10*
%TO.C,R55*%
X26956000Y-117348000D03*
X28956000Y-117348000D03*
%TD*%
D13*
%TO.C,R54*%
X67818000Y-126492000D03*
X65818000Y-126492000D03*
%TD*%
%TO.C,R53*%
X67548000Y-113030000D03*
X65548000Y-113030000D03*
%TD*%
D10*
%TO.C,R52*%
X49546000Y-130810000D03*
X51546000Y-130810000D03*
%TD*%
%TO.C,R51*%
X49022000Y-110236000D03*
X51022000Y-110236000D03*
%TD*%
D13*
%TO.C,R50*%
X51546000Y-128524000D03*
X49546000Y-128524000D03*
%TD*%
%TO.C,R49*%
X51038000Y-112268000D03*
X49038000Y-112268000D03*
%TD*%
%TO.C,R48*%
X28924000Y-128778000D03*
X26924000Y-128778000D03*
%TD*%
%TO.C,R47*%
X28956000Y-115316000D03*
X26956000Y-115316000D03*
%TD*%
D10*
%TO.C,R46*%
X26940000Y-122682000D03*
X28940000Y-122682000D03*
%TD*%
%TO.C,R45*%
X26940000Y-110744000D03*
X28940000Y-110744000D03*
%TD*%
D13*
%TO.C,R44*%
X28956000Y-120650000D03*
X26956000Y-120650000D03*
%TD*%
%TO.C,R43*%
X28940000Y-108712000D03*
X26940000Y-108712000D03*
%TD*%
%TO.C,R42*%
X158226000Y-103378000D03*
X156226000Y-103378000D03*
%TD*%
%TO.C,R41*%
X158226000Y-107442000D03*
X156226000Y-107442000D03*
%TD*%
%TO.C,R40*%
X145034000Y-103378000D03*
X143034000Y-103378000D03*
%TD*%
%TO.C,R39*%
X145018000Y-107442000D03*
X143018000Y-107442000D03*
%TD*%
D10*
%TO.C,R38*%
X156226000Y-105410000D03*
X158226000Y-105410000D03*
%TD*%
%TO.C,R37*%
X156210000Y-109474000D03*
X158210000Y-109474000D03*
%TD*%
%TO.C,R36*%
X143002000Y-105410000D03*
X145002000Y-105410000D03*
%TD*%
%TO.C,R35*%
X143002000Y-109474000D03*
X145002000Y-109474000D03*
%TD*%
D13*
%TO.C,R34*%
X158226000Y-111506000D03*
X156226000Y-111506000D03*
%TD*%
%TO.C,R33*%
X145034000Y-111506000D03*
X143034000Y-111506000D03*
%TD*%
%TO.C,R32*%
X79724000Y-97790000D03*
X77724000Y-97790000D03*
%TD*%
%TO.C,R31*%
X78232000Y-86360000D03*
X76232000Y-86360000D03*
%TD*%
D10*
%TO.C,R30*%
X31512000Y-106172000D03*
X33512000Y-106172000D03*
%TD*%
%TO.C,R29*%
X31496000Y-92710000D03*
X33496000Y-92710000D03*
%TD*%
D13*
%TO.C,R28*%
X33512000Y-104140000D03*
X31512000Y-104140000D03*
%TD*%
D10*
%TO.C,R27*%
X77724000Y-99822000D03*
X79724000Y-99822000D03*
%TD*%
D13*
%TO.C,R26*%
X33496000Y-90678000D03*
X31496000Y-90678000D03*
%TD*%
D10*
%TO.C,R25*%
X76200000Y-84328000D03*
X78200000Y-84328000D03*
%TD*%
D13*
%TO.C,R24*%
X42910000Y-103124000D03*
X40910000Y-103124000D03*
%TD*%
D10*
%TO.C,R23*%
X40402000Y-89916000D03*
X42402000Y-89916000D03*
%TD*%
%TO.C,R22*%
X39386000Y-96266000D03*
X41386000Y-96266000D03*
%TD*%
%TO.C,R21*%
X36100000Y-102616000D03*
X38100000Y-102616000D03*
%TD*%
%TO.C,R20*%
X38894000Y-82042000D03*
X40894000Y-82042000D03*
%TD*%
%TO.C,R19*%
X35830000Y-88900000D03*
X37830000Y-88900000D03*
%TD*%
D13*
%TO.C,R18*%
X42894000Y-105156000D03*
X40894000Y-105156000D03*
%TD*%
D10*
%TO.C,R17*%
X40418000Y-91948000D03*
X42418000Y-91948000D03*
%TD*%
D13*
%TO.C,R16*%
X158242000Y-99822000D03*
X156242000Y-99822000D03*
%TD*%
D10*
%TO.C,R15*%
X26940000Y-104140000D03*
X28940000Y-104140000D03*
%TD*%
D13*
%TO.C,R14*%
X145034000Y-99822000D03*
X143034000Y-99822000D03*
%TD*%
D10*
%TO.C,R13*%
X26956000Y-90678000D03*
X28956000Y-90678000D03*
%TD*%
D13*
%TO.C,R12*%
X67294000Y-99314000D03*
X65294000Y-99314000D03*
%TD*%
%TO.C,R11*%
X67294000Y-85598000D03*
X65294000Y-85598000D03*
%TD*%
%TO.C,R10*%
X51022000Y-104394000D03*
X49022000Y-104394000D03*
%TD*%
%TO.C,R9*%
X50784000Y-84328000D03*
X48784000Y-84328000D03*
%TD*%
%TO.C,R8*%
X51022000Y-102362000D03*
X49022000Y-102362000D03*
%TD*%
D10*
%TO.C,R7*%
X48768000Y-86614000D03*
X50768000Y-86614000D03*
%TD*%
D13*
%TO.C,R6*%
X28940000Y-102108000D03*
X26940000Y-102108000D03*
%TD*%
%TO.C,R5*%
X28956000Y-88646000D03*
X26956000Y-88646000D03*
%TD*%
D10*
%TO.C,R4*%
X33036000Y-97790000D03*
X35036000Y-97790000D03*
%TD*%
%TO.C,R3*%
X33020000Y-85344000D03*
X35020000Y-85344000D03*
%TD*%
D13*
%TO.C,R2*%
X35036000Y-95758000D03*
X33036000Y-95758000D03*
%TD*%
%TO.C,R1*%
X35052000Y-83058000D03*
X33052000Y-83058000D03*
%TD*%
D16*
%TO.C,Q504*%
X37780000Y-79263000D03*
X37780000Y-77963000D03*
X35880000Y-78613000D03*
X37780000Y-78613000D03*
X35880000Y-77963000D03*
X35880000Y-79263000D03*
%TD*%
%TO.C,Q503*%
X37907000Y-65928000D03*
X37907000Y-64628000D03*
X36007000Y-65278000D03*
X37907000Y-65278000D03*
X36007000Y-64628000D03*
X36007000Y-65928000D03*
%TD*%
D17*
%TO.C,Q502*%
X46593000Y-76327000D03*
X44593000Y-75377000D03*
X44593000Y-77277000D03*
%TD*%
%TO.C,Q501*%
X46847000Y-62992000D03*
X44847000Y-62042000D03*
X44847000Y-63942000D03*
%TD*%
%TO.C,Q404*%
X47355000Y-49276000D03*
X45355000Y-48326000D03*
X45355000Y-50226000D03*
%TD*%
D16*
%TO.C,Q403*%
X38349000Y-51958000D03*
X38349000Y-50658000D03*
X36449000Y-51308000D03*
X38349000Y-51308000D03*
X36449000Y-50658000D03*
X36449000Y-51958000D03*
%TD*%
%TO.C,Q402*%
X38227000Y-39004000D03*
X38227000Y-37704000D03*
X36327000Y-38354000D03*
X38227000Y-38354000D03*
X36327000Y-37704000D03*
X36327000Y-39004000D03*
%TD*%
D17*
%TO.C,Q401*%
X46974000Y-36322000D03*
X44974000Y-35372000D03*
X44974000Y-37272000D03*
%TD*%
D16*
%TO.C,Q8*%
X37846000Y-132222000D03*
X37846000Y-130922000D03*
X35946000Y-131572000D03*
X37846000Y-131572000D03*
X35946000Y-130922000D03*
X35946000Y-132222000D03*
%TD*%
%TO.C,Q7*%
X37780000Y-119014000D03*
X37780000Y-117714000D03*
X35880000Y-118364000D03*
X37780000Y-118364000D03*
X35880000Y-117714000D03*
X35880000Y-119014000D03*
%TD*%
D17*
%TO.C,Q6*%
X46736000Y-129794000D03*
X44736000Y-128844000D03*
X44736000Y-130744000D03*
%TD*%
%TO.C,Q5*%
X46736000Y-117094000D03*
X44736000Y-116144000D03*
X44736000Y-118044000D03*
%TD*%
D16*
%TO.C,Q4*%
X37846000Y-106060000D03*
X37846000Y-104760000D03*
X35946000Y-105410000D03*
X37846000Y-105410000D03*
X35946000Y-104760000D03*
X35946000Y-106060000D03*
%TD*%
%TO.C,Q3*%
X37780000Y-92090000D03*
X37780000Y-90790000D03*
X35880000Y-91440000D03*
X37780000Y-91440000D03*
X35880000Y-90790000D03*
X35880000Y-92090000D03*
%TD*%
D17*
%TO.C,Q2*%
X46974000Y-103886000D03*
X44974000Y-102936000D03*
X44974000Y-104836000D03*
%TD*%
%TO.C,Q1*%
X46720000Y-90424000D03*
X44720000Y-89474000D03*
X44720000Y-91374000D03*
%TD*%
M02*
