M48
; DRILL file {KiCad 6.0.4-1.fc35} date Sat 28 May 2022 04:26:38 PM EDT
; FORMAT={-:-/ absolute / inch / decimal}
; #@! TF.CreationDate,2022-05-28T16:26:38-04:00
; #@! TF.GenerationSoftware,Kicad,Pcbnew,6.0.4-1.fc35
; #@! TF.FileFunction,MixedPlating,1,2
FMAT,2
INCH
; #@! TA.AperFunction,Plated,PTH,ViaDrill
T1C0.0157
; #@! TA.AperFunction,Plated,PTH,ComponentDrill
T2C0.0300
; #@! TA.AperFunction,Plated,PTH,ComponentDrill
T3C0.0315
; #@! TA.AperFunction,Plated,PTH,ComponentDrill
T4C0.0394
; #@! TA.AperFunction,Plated,PTH,ComponentDrill
T5C0.0480
; #@! TA.AperFunction,Plated,PTH,ComponentDrill
T6C0.0559
; #@! TA.AperFunction,Plated,PTH,ComponentDrill
T7C0.0563
; #@! TA.AperFunction,Plated,PTH,ComponentDrill
T8C0.0630
; #@! TA.AperFunction,NonPlated,NPTH,ComponentDrill
T9C0.0787
%
G90
G05
T1
X1.03Y-3.68
X1.06Y-4.28
X1.06Y-4.36
X1.06Y-4.75
X1.06Y-4.83
X1.135Y-3.04
X1.14Y-2.52
X1.14Y-3.57
X1.14Y-4.62
X1.14Y-5.15
X1.165Y-1.48
X1.17Y-1.995
X1.2198Y-2.5172
X1.2256Y-3.045
X1.23Y-5.09
X1.24Y-3.65
X1.24Y-4.57
X1.2406Y-4.18
X1.2513Y-1.56
X1.2563Y-1.995
X1.295Y-2.595
X1.2985Y-2.5172
X1.3Y-3.27
X1.3006Y-3.77
X1.3044Y-3.045
X1.305Y-3.13
X1.3087Y-5.17
X1.31Y-5.09
X1.3194Y-3.5706
X1.3194Y-4.1
X1.3194Y-4.5706
X1.32Y-3.65
X1.32Y-4.18
X1.32Y-4.65
X1.325Y-1.56
X1.33Y-1.48
X1.335Y-1.995
X1.335Y-2.07
X1.3953Y-5.0753
X1.43Y-3.96
X1.45Y-2.13
X1.4506Y-1.62
X1.535Y-3.065
X1.5362Y-3.6223
X1.54Y-4.33
X1.54Y-4.634
X1.54Y-4.82
X1.54Y-5.17
X1.545Y-2.57
X1.55Y-2.025
X1.55Y-4.16
X1.555Y-1.5
X1.59Y-3.54
X1.5906Y-3.6206
X1.595Y-3.005
X1.6Y-4.63
X1.6Y-4.71
X1.6Y-5.09
X1.605Y-1.97
X1.61Y-2.485
X1.61Y-2.565
X1.61Y-3.23
X1.6106Y-4.06
X1.62Y-1.46
X1.62Y-4.82
X1.6213Y-1.54
X1.655Y-1.11
X1.67Y-3.62
X1.6737Y-3.0
X1.6837Y-1.97
X1.6837Y-2.05
X1.6887Y-2.565
X1.69Y-1.905
X1.69Y-2.64
X1.69Y-4.06
X1.6987Y-1.46
X1.705Y-1.67
X1.75Y-3.77
X1.7749Y-4.7051
X1.775Y-2.585
X1.79Y-2.72
X1.79Y-3.72
X1.84Y-2.68
X1.845Y-2.48
X1.85Y-3.64
X1.855Y-1.615
X1.865Y-1.94
X1.8725Y-3.6875
X1.88Y-4.55
X1.89Y-5.16
X1.91Y-2.155
X1.9106Y-2.965
X1.9263Y-1.23
X2.145Y-1.505
X2.21Y-3.66
X2.3125Y-2.8525
X2.34Y-1.265
X2.34Y-2.7075
X2.58Y-4.45
X2.59Y-4.98
X2.635Y-2.23
X2.64Y-2.03
X2.645Y-2.695
X2.66Y-3.71
X2.67Y-2.74
X2.701Y-2.406
X2.71Y-1.855
X2.71Y-4.07
X2.7285Y-2.3735
X2.74Y-3.16
X2.75Y-4.4
X2.7577Y-4.6923
X2.7615Y-2.6015
X2.77Y-1.08
X2.77Y-1.465
X2.775Y-2.3875
X2.8099Y-2.5051
X2.81Y-1.16
X2.95Y-3.24
X2.955Y-2.305
X2.96Y-1.59
X2.98Y-3.91
X2.9899Y-2.7401
X3.0006Y-3.4006
X3.0006Y-4.4306
X3.0106Y-1.305
X3.02Y-2.01
X3.0206Y-2.245
X3.0506Y-4.8794
X3.06Y-3.85
X3.07Y-2.31
X3.0813Y-1.77
X3.0913Y-2.705
X3.2Y-3.24
X3.23Y-2.77
X3.24Y-1.59
X3.24Y-3.91
X3.24Y-5.06
X3.28Y-4.9
X3.31Y-1.74
X3.39Y-4.8
X3.4Y-4.66
X3.4Y-4.99
X3.44Y-4.46
X3.44Y-4.57
X3.49Y-3.97
X3.57Y-4.08
X3.57Y-4.24
X3.6Y-4.99
X3.68Y-3.02
X3.72Y-4.0475
X3.86Y-4.46
X4.03Y-3.95
X4.06Y-3.0775
X4.11Y-4.08
X4.11Y-4.24
X4.18Y-3.02
X4.35Y-4.57
X4.57Y-3.94
X4.65Y-4.07
X4.65Y-4.23
X4.72Y-3.04
X4.93Y-4.66
X5.09Y-3.93
X5.17Y-4.07
X5.17Y-4.23
X5.28Y-3.1
X5.46Y-4.8
X5.49Y-3.96
X5.63Y-3.93
X5.71Y-4.07
X5.71Y-4.23
X5.76Y-3.73
X5.83Y-3.11
X5.84Y-4.04
X6.0Y-4.9
X6.15Y-3.93
X6.23Y-4.07
X6.23Y-4.23
X6.381Y-3.051
X6.51Y-5.06
X6.68Y-3.92
X6.76Y-4.07
X6.76Y-4.23
X6.9Y-3.07
X6.93Y-5.05
X7.2Y-3.92
X7.28Y-4.07
X7.28Y-4.23
X7.415Y-2.2413
X7.4275Y-2.175
X7.44Y-3.06
X7.585Y-2.41
X7.675Y-2.1125
X7.8833Y-2.1717
X7.885Y-2.45
X7.965Y-2.025
X7.965Y-2.39
X8.0375Y-2.5675
T2
X3.5713Y-3.6204
X3.5713Y-3.7976
X3.65Y-3.6204
X3.65Y-3.7976
X3.7287Y-3.6204
X3.7287Y-3.7976
X4.1013Y-3.6204
X4.1013Y-3.7976
X4.18Y-3.6204
X4.18Y-3.7976
X4.2587Y-3.6204
X4.2587Y-3.7976
X4.6283Y-3.6208
X4.6283Y-3.798
X4.707Y-3.6208
X4.707Y-3.798
X4.7857Y-3.6208
X4.7857Y-3.798
X5.1603Y-3.6204
X5.1603Y-3.7976
X5.239Y-3.6204
X5.239Y-3.7976
X5.3177Y-3.6204
X5.3177Y-3.7976
X5.6863Y-3.6208
X5.6863Y-3.798
X5.765Y-3.6208
X5.765Y-3.798
X5.8437Y-3.6208
X5.8437Y-3.798
X6.2153Y-3.6198
X6.2153Y-3.797
X6.294Y-3.6198
X6.294Y-3.797
X6.3727Y-3.6198
X6.3727Y-3.797
X6.7433Y-3.6194
X6.7433Y-3.7966
X6.822Y-3.6194
X6.822Y-3.7966
X6.9007Y-3.6194
X6.9007Y-3.7966
X7.2713Y-3.6208
X7.2713Y-3.798
X7.35Y-3.6208
X7.35Y-3.798
X7.4287Y-3.6208
X7.4287Y-3.798
T3
X2.8548Y-3.2256
X2.8548Y-3.3256
X2.8548Y-3.4256
X2.8548Y-3.7561
X2.8548Y-3.8561
X2.8548Y-3.9561
X2.855Y-1.11
X2.855Y-1.21
X2.855Y-1.31
X2.855Y-1.64
X2.855Y-1.74
X2.855Y-1.84
X2.855Y-2.165
X2.855Y-2.265
X2.855Y-2.365
X2.855Y-2.695
X2.855Y-2.795
X2.855Y-2.895
X2.8559Y-4.287
X2.8559Y-4.387
X2.8559Y-4.487
X2.8559Y-4.8162
X2.8559Y-4.9162
X2.8559Y-5.0162
X3.44Y-3.6131
X3.44Y-3.81
X3.99Y-3.6131
X3.99Y-3.81
X4.52Y-3.6131
X4.52Y-3.81
X5.05Y-3.6131
X5.05Y-3.81
X5.58Y-3.6131
X5.58Y-3.81
X6.11Y-3.6131
X6.11Y-3.81
X6.64Y-3.6131
X6.64Y-3.81
X7.17Y-3.6131
X7.17Y-3.81
T4
X2.2194Y-2.2298
X2.2194Y-2.3282
X2.2194Y-2.4267
X2.2194Y-2.7581
X2.2194Y-2.8566
X2.2194Y-2.955
X2.2194Y-3.2881
X2.2194Y-3.3866
X2.2194Y-3.485
X2.22Y-1.1731
X2.22Y-1.2716
X2.22Y-1.37
X2.22Y-1.7016
X2.22Y-1.8
X2.22Y-1.8984
X2.22Y-3.8181
X2.22Y-3.9166
X2.22Y-4.015
X2.22Y-4.3481
X2.22Y-4.4466
X2.22Y-4.545
X2.22Y-4.8781
X2.22Y-4.9766
X2.22Y-5.075
X3.5516Y-3.5
X3.65Y-3.5
X3.7484Y-3.5
X4.0796Y-3.5002
X4.178Y-3.5002
X4.2764Y-3.5002
X4.6086Y-3.5002
X4.707Y-3.5002
X4.8054Y-3.5002
X5.1381Y-3.5
X5.2366Y-3.5
X5.335Y-3.5
X5.6686Y-3.5
X5.767Y-3.5
X5.8654Y-3.5
X6.1971Y-3.5
X6.2956Y-3.5
X6.394Y-3.5
X6.7251Y-3.5
X6.8236Y-3.5
X6.922Y-3.5
X7.2526Y-3.5002
X7.351Y-3.5002
X7.4494Y-3.5002
X7.88Y-4.44
X7.88Y-4.54
X7.88Y-4.64
X7.88Y-4.74
X7.88Y-4.84
X7.98Y-4.44
X7.98Y-4.54
X7.98Y-4.64
X7.98Y-4.74
X7.98Y-4.84
T5
X1.068Y-3.39
X1.07Y-1.27
X1.07Y-1.8
X1.07Y-3.92
X1.07Y-4.45
X1.07Y-4.98
X1.0712Y-2.335
X1.0712Y-2.86
X1.648Y-3.92
X1.65Y-1.8
X1.65Y-2.335
X1.65Y-2.86
X1.65Y-3.39
X1.65Y-4.45
X1.65Y-4.98
X1.6512Y-1.27
X7.495Y-1.0989
X7.9015Y-1.0989
T6
X1.19Y-3.39
X1.192Y-1.27
X1.192Y-1.8
X1.192Y-3.92
X1.192Y-4.45
X1.192Y-4.98
X1.1932Y-2.335
X1.1932Y-2.86
X1.77Y-3.92
X1.772Y-1.8
X1.772Y-2.335
X1.772Y-2.86
X1.772Y-3.39
X1.772Y-4.45
X1.772Y-4.98
X1.7732Y-1.27
X7.495Y-1.221
X7.9015Y-1.221
T7
X1.5168Y-3.39
X1.5188Y-1.27
X1.5188Y-1.8
X1.5188Y-3.92
X1.5188Y-4.45
X1.5188Y-4.98
X1.52Y-2.335
X1.52Y-2.86
X2.0968Y-3.92
X2.0988Y-1.8
X2.0988Y-2.335
X2.0988Y-2.86
X2.0988Y-3.39
X2.0988Y-4.45
X2.0988Y-4.98
X2.1Y-1.27
X7.495Y-1.5478
X7.9015Y-1.5478
T8
X3.5713Y-5.1994
X3.7287Y-3.8806
X3.7287Y-5.1994
X4.1013Y-5.1994
X4.2587Y-3.8806
X4.2587Y-5.1994
X4.6293Y-5.1994
X4.7867Y-3.8806
X4.7867Y-5.1994
X5.16Y-5.1994
X5.3175Y-3.8806
X5.3175Y-5.1994
X5.688Y-5.1994
X5.8455Y-3.8806
X5.8455Y-5.1994
X6.216Y-5.1984
X6.3735Y-3.8796
X6.3735Y-5.1984
X6.7443Y-5.1984
X6.9017Y-3.8796
X6.9017Y-5.1984
X7.273Y-5.1994
X7.4305Y-3.8806
X7.4305Y-5.1994
T9
X2.495Y-2.155
X2.495Y-2.5015
X2.495Y-2.6833
X2.495Y-3.0298
X2.495Y-3.2133
X2.495Y-3.5598
X2.4956Y-1.0983
X2.4956Y-1.4448
X2.4956Y-1.6268
X2.4956Y-1.9732
X2.4956Y-3.7433
X2.4956Y-4.0898
X2.4956Y-4.2733
X2.4956Y-4.6198
X2.4956Y-4.8033
X2.4956Y-5.1498
X3.4768Y-3.2244
X3.8232Y-3.2244
X4.0048Y-3.2246
X4.3512Y-3.2246
X4.5338Y-3.2246
X4.8802Y-3.2246
X5.0633Y-3.2244
X5.4098Y-3.2244
X5.5938Y-3.2244
X5.9402Y-3.2244
X6.1223Y-3.2244
X6.4688Y-3.2244
X6.6503Y-3.2244
X6.9968Y-3.2244
X7.1778Y-3.2246
X7.5242Y-3.2246
T0
M30
