%TF.GenerationSoftware,KiCad,Pcbnew,6.0.4-1.fc35*%
%TF.CreationDate,2022-05-28T16:25:33-04:00*%
%TF.ProjectId,kassuVCA,6b617373-7556-4434-912e-6b696361645f,rev?*%
%TF.SameCoordinates,Original*%
%TF.FileFunction,Soldermask,Top*%
%TF.FilePolarity,Negative*%
%FSLAX46Y46*%
G04 Gerber Fmt 4.6, Leading zero omitted, Abs format (unit mm)*
G04 Created by KiCad (PCBNEW 6.0.4-1.fc35) date 2022-05-28 16:25:33*
%MOMM*%
%LPD*%
G01*
G04 APERTURE LIST*
%ADD10C,2.000000*%
%ADD11C,1.440000*%
%ADD12C,4.000000*%
%ADD13C,1.800000*%
%ADD14C,2.130000*%
%ADD15R,1.930000X1.830000*%
%ADD16C,1.524000*%
%ADD17O,1.700000X1.700000*%
%ADD18R,1.700000X1.700000*%
%ADD19R,1.830000X1.930000*%
%ADD20C,1.600000*%
G04 APERTURE END LIST*
D10*
%TO.C,Level8*%
X188734200Y-98566000D03*
X184734200Y-132066000D03*
X188734200Y-132066000D03*
%TD*%
%TO.C,Level7*%
X175304200Y-132040600D03*
X171304200Y-132040600D03*
X175304200Y-98540600D03*
%TD*%
%TO.C,Level6*%
X161886400Y-132040600D03*
X157886400Y-132040600D03*
X161886400Y-98540600D03*
%TD*%
%TO.C,Level5*%
X148475200Y-98566000D03*
X144475200Y-132066000D03*
X148475200Y-132066000D03*
%TD*%
%TO.C,Level4*%
X135064000Y-132066000D03*
X131064000Y-132066000D03*
X135064000Y-98566000D03*
%TD*%
%TO.C,Level3*%
X121583200Y-132066000D03*
X117583200Y-132066000D03*
X121583200Y-98566000D03*
%TD*%
%TO.C,Level2*%
X108172000Y-132066000D03*
X104172000Y-132066000D03*
X108172000Y-98566000D03*
%TD*%
%TO.C,Level1*%
X94710000Y-132066000D03*
X90710000Y-132066000D03*
X94710000Y-98566000D03*
%TD*%
D11*
%TO.C,Trim8*%
X72539823Y-127412010D03*
X72539823Y-124872010D03*
X72539823Y-122332010D03*
%TD*%
%TO.C,Trim7*%
X72539823Y-113969682D03*
X72539823Y-111429682D03*
X72539823Y-108889682D03*
%TD*%
%TO.C,Trim6*%
X72513103Y-100485519D03*
X72513103Y-97945519D03*
X72513103Y-95405519D03*
%TD*%
%TO.C,Trim5*%
X72513103Y-87010957D03*
X72513103Y-84470957D03*
X72513103Y-81930957D03*
%TD*%
%TO.C,Trim4*%
X72517000Y-73533000D03*
X72517000Y-70993000D03*
X72517000Y-68453000D03*
%TD*%
%TO.C,Trim3*%
X72517000Y-60071000D03*
X72517000Y-57531000D03*
X72517000Y-54991000D03*
%TD*%
%TO.C,Trim2*%
X72517000Y-46736000D03*
X72517000Y-44196000D03*
X72517000Y-41656000D03*
%TD*%
%TO.C,Trim1*%
X72517000Y-33274000D03*
X72517000Y-30734000D03*
X72517000Y-28194000D03*
%TD*%
D12*
%TO.C,Pan8*%
X191115400Y-81904800D03*
X182315400Y-81904800D03*
D13*
X189215400Y-88904800D03*
X186715400Y-88904800D03*
X184215400Y-88904800D03*
%TD*%
D12*
%TO.C,Pan7*%
X177718800Y-81900000D03*
X168918800Y-81900000D03*
D13*
X175818800Y-88900000D03*
X173318800Y-88900000D03*
X170818800Y-88900000D03*
%TD*%
D12*
%TO.C,Pan6*%
X164307600Y-81900000D03*
X155507600Y-81900000D03*
D13*
X162407600Y-88900000D03*
X159907600Y-88900000D03*
X157407600Y-88900000D03*
%TD*%
%TO.C,Pan5*%
X143981800Y-88900000D03*
X146481800Y-88900000D03*
X148981800Y-88900000D03*
D12*
X142081800Y-81900000D03*
X150881800Y-81900000D03*
%TD*%
%TO.C,Pan4*%
X137409000Y-81900000D03*
X128609000Y-81900000D03*
D13*
X135509000Y-88900000D03*
X133009000Y-88900000D03*
X130509000Y-88900000D03*
%TD*%
D12*
%TO.C,Pan3*%
X123957800Y-81904800D03*
X115157800Y-81904800D03*
D13*
X122057800Y-88904800D03*
X119557800Y-88904800D03*
X117057800Y-88904800D03*
%TD*%
D12*
%TO.C,Pan2*%
X110521200Y-81904800D03*
X101721200Y-81904800D03*
D13*
X108621200Y-88904800D03*
X106121200Y-88904800D03*
X103621200Y-88904800D03*
%TD*%
D12*
%TO.C,Pan1*%
X97110000Y-81900000D03*
X88310000Y-81900000D03*
D13*
X95210000Y-88900000D03*
X92710000Y-88900000D03*
X90210000Y-88900000D03*
%TD*%
D14*
%TO.C,OutR301*%
X200699000Y-39313000D03*
D15*
X200699000Y-27913000D03*
D14*
X200699000Y-31013000D03*
%TD*%
%TO.C,OutL301*%
X190373000Y-39313000D03*
D15*
X190373000Y-27913000D03*
D14*
X190373000Y-31013000D03*
%TD*%
D16*
%TO.C,mute8*%
X184690000Y-91969200D03*
X186690000Y-91969200D03*
X188690000Y-91969200D03*
X188690000Y-96469200D03*
X186690000Y-96469200D03*
X184690000Y-96469200D03*
%TD*%
%TO.C,mute7*%
X171278800Y-91933200D03*
X173278800Y-91933200D03*
X175278800Y-91933200D03*
X175278800Y-96433200D03*
X173278800Y-96433200D03*
X171278800Y-96433200D03*
%TD*%
%TO.C,mute6*%
X157867600Y-91943800D03*
X159867600Y-91943800D03*
X161867600Y-91943800D03*
X161867600Y-96443800D03*
X159867600Y-96443800D03*
X157867600Y-96443800D03*
%TD*%
%TO.C,mute5*%
X144431000Y-91969200D03*
X146431000Y-91969200D03*
X148431000Y-91969200D03*
X148431000Y-96469200D03*
X146431000Y-96469200D03*
X144431000Y-96469200D03*
%TD*%
%TO.C,mute4*%
X131070600Y-91958600D03*
X133070600Y-91958600D03*
X135070600Y-91958600D03*
X135070600Y-96458600D03*
X133070600Y-96458600D03*
X131070600Y-96458600D03*
%TD*%
%TO.C,mute3*%
X117557800Y-91969200D03*
X119557800Y-91969200D03*
X121557800Y-91969200D03*
X121557800Y-96469200D03*
X119557800Y-96469200D03*
X117557800Y-96469200D03*
%TD*%
%TO.C,mute2*%
X104172000Y-91958600D03*
X106172000Y-91958600D03*
X108172000Y-91958600D03*
X108172000Y-96458600D03*
X106172000Y-96458600D03*
X104172000Y-96458600D03*
%TD*%
%TO.C,mute1*%
X90710000Y-91958600D03*
X92710000Y-91958600D03*
X94710000Y-91958600D03*
X94710000Y-96458600D03*
X92710000Y-96458600D03*
X90710000Y-96458600D03*
%TD*%
D17*
%TO.C,J201*%
X202692000Y-122936000D03*
X200152000Y-122936000D03*
X202692000Y-120396000D03*
X200152000Y-120396000D03*
X202692000Y-117856000D03*
X200152000Y-117856000D03*
X202692000Y-115316000D03*
X200152000Y-115316000D03*
X202692000Y-112776000D03*
D18*
X200152000Y-112776000D03*
%TD*%
D14*
%TO.C,In8*%
X38578000Y-126492000D03*
D19*
X27178000Y-126492000D03*
D14*
X30278000Y-126492000D03*
%TD*%
%TO.C,In7*%
X38578000Y-113030000D03*
D19*
X27178000Y-113030000D03*
D14*
X30278000Y-113030000D03*
%TD*%
%TO.C,In6*%
X38578000Y-99568000D03*
D19*
X27178000Y-99568000D03*
D14*
X30278000Y-99568000D03*
%TD*%
%TO.C,In5*%
X38526000Y-86106000D03*
D19*
X27126000Y-86106000D03*
D14*
X30226000Y-86106000D03*
%TD*%
%TO.C,IN4*%
X38608000Y-72644000D03*
D19*
X27208000Y-72644000D03*
D14*
X30308000Y-72644000D03*
%TD*%
%TO.C,IN3*%
X38608000Y-59309000D03*
D19*
X27208000Y-59309000D03*
D14*
X30308000Y-59309000D03*
%TD*%
%TO.C,IN2*%
X38578000Y-45720000D03*
D19*
X27178000Y-45720000D03*
D14*
X30278000Y-45720000D03*
%TD*%
%TO.C,IN1*%
X38578000Y-32258000D03*
D19*
X27178000Y-32258000D03*
D14*
X30278000Y-32258000D03*
%TD*%
D12*
%TO.C,CVAtten8*%
X63388000Y-130805000D03*
X63388000Y-122005000D03*
D13*
X56388000Y-128905000D03*
X56388000Y-126405000D03*
X56388000Y-123905000D03*
%TD*%
D12*
%TO.C,CVAtten7*%
X63388000Y-117343000D03*
X63388000Y-108543000D03*
D13*
X56388000Y-115443000D03*
X56388000Y-112943000D03*
X56388000Y-110443000D03*
%TD*%
D12*
%TO.C,CVAtten6*%
X63388000Y-103881000D03*
X63388000Y-95081000D03*
D13*
X56388000Y-101981000D03*
X56388000Y-99481000D03*
X56388000Y-96981000D03*
%TD*%
D12*
%TO.C,CVAtten5*%
X63373000Y-90419000D03*
X63373000Y-81619000D03*
D13*
X56373000Y-88519000D03*
X56373000Y-86019000D03*
X56373000Y-83519000D03*
%TD*%
D12*
%TO.C,CVAtten4*%
X63373000Y-76957000D03*
X63373000Y-68157000D03*
D13*
X56373000Y-75057000D03*
X56373000Y-72557000D03*
X56373000Y-70057000D03*
%TD*%
D12*
%TO.C,CVAtten3*%
X63373000Y-63537000D03*
X63373000Y-54737000D03*
D13*
X56373000Y-61637000D03*
X56373000Y-59137000D03*
X56373000Y-56637000D03*
%TD*%
D12*
%TO.C,CVAtten2*%
X63388000Y-50120000D03*
X63388000Y-41320000D03*
D13*
X56388000Y-48220000D03*
X56388000Y-45720000D03*
X56388000Y-43220000D03*
%TD*%
D12*
%TO.C,CVAtten1*%
X63388000Y-36698000D03*
X63388000Y-27898000D03*
D13*
X56388000Y-34798000D03*
X56388000Y-32298000D03*
X56388000Y-29798000D03*
%TD*%
D14*
%TO.C,CV8*%
X53310000Y-126492000D03*
D19*
X41910000Y-126492000D03*
D14*
X45010000Y-126492000D03*
%TD*%
%TO.C,CV7*%
X53310000Y-113030000D03*
D19*
X41910000Y-113030000D03*
D14*
X45010000Y-113030000D03*
%TD*%
%TO.C,CV6*%
X53258000Y-99568000D03*
D19*
X41858000Y-99568000D03*
D14*
X44958000Y-99568000D03*
%TD*%
%TO.C,CV5*%
X53310000Y-86106000D03*
D19*
X41910000Y-86106000D03*
D14*
X45010000Y-86106000D03*
%TD*%
%TO.C,CV4*%
X53310000Y-72644000D03*
D19*
X41910000Y-72644000D03*
D14*
X45010000Y-72644000D03*
%TD*%
%TO.C,CV3*%
X53310000Y-59309000D03*
D19*
X41910000Y-59309000D03*
D14*
X45010000Y-59309000D03*
%TD*%
%TO.C,CV2*%
X53310000Y-45720000D03*
D19*
X41910000Y-45720000D03*
D14*
X45010000Y-45720000D03*
%TD*%
%TO.C,CV1*%
X53340000Y-32258000D03*
D19*
X41940000Y-32258000D03*
D14*
X45040000Y-32258000D03*
%TD*%
D20*
%TO.C,C502*%
X128270000Y-91774000D03*
X128270000Y-96774000D03*
%TD*%
%TO.C,C501*%
X114808000Y-91774000D03*
X114808000Y-96774000D03*
%TD*%
%TO.C,C402*%
X101346000Y-91774000D03*
X101346000Y-96774000D03*
%TD*%
%TO.C,C401*%
X87376000Y-91774000D03*
X87376000Y-96774000D03*
%TD*%
%TO.C,C4*%
X182118000Y-91774000D03*
X182118000Y-96774000D03*
%TD*%
%TO.C,C3*%
X168656000Y-91774000D03*
X168656000Y-96774000D03*
%TD*%
%TO.C,C2*%
X155194000Y-91774000D03*
X155194000Y-96774000D03*
%TD*%
%TO.C,C1*%
X141732000Y-91774000D03*
X141732000Y-96774000D03*
%TD*%
M02*
