G04 #@! TF.GenerationSoftware,KiCad,Pcbnew,5.1.10-1.fc33*
G04 #@! TF.CreationDate,2021-06-23T22:13:54-04:00*
G04 #@! TF.ProjectId,4xmixerFace,34786d69-7865-4724-9661-63652e6b6963,rev?*
G04 #@! TF.SameCoordinates,Original*
G04 #@! TF.FileFunction,Legend,Top*
G04 #@! TF.FilePolarity,Positive*
%FSLAX46Y46*%
G04 Gerber Fmt 4.6, Leading zero omitted, Abs format (unit mm)*
G04 Created by KiCad (PCBNEW 5.1.10-1.fc33) date 2021-06-23 22:13:54*
%MOMM*%
%LPD*%
G01*
G04 APERTURE LIST*
%ADD10C,0.120000*%
%ADD11C,0.150000*%
%ADD12C,0.010000*%
G04 APERTURE END LIST*
D10*
X92710000Y-129540000D02*
X91440000Y-129540000D01*
D11*
X90176190Y-29771428D02*
X90176190Y-31104761D01*
X89700000Y-29009523D02*
X89223809Y-30438095D01*
X90461904Y-30438095D01*
X91223809Y-31104761D02*
X91223809Y-29104761D01*
X91890476Y-30533333D01*
X92557142Y-29104761D01*
X92557142Y-31104761D01*
X93509523Y-31104761D02*
X93509523Y-29771428D01*
X93509523Y-29104761D02*
X93414285Y-29200000D01*
X93509523Y-29295238D01*
X93604761Y-29200000D01*
X93509523Y-29104761D01*
X93509523Y-29295238D01*
X94271428Y-31104761D02*
X95319047Y-29771428D01*
X94271428Y-29771428D02*
X95319047Y-31104761D01*
X96842857Y-31009523D02*
X96652380Y-31104761D01*
X96271428Y-31104761D01*
X96080952Y-31009523D01*
X95985714Y-30819047D01*
X95985714Y-30057142D01*
X96080952Y-29866666D01*
X96271428Y-29771428D01*
X96652380Y-29771428D01*
X96842857Y-29866666D01*
X96938095Y-30057142D01*
X96938095Y-30247619D01*
X95985714Y-30438095D01*
X97795238Y-31104761D02*
X97795238Y-29771428D01*
X97795238Y-30152380D02*
X97890476Y-29961904D01*
X97985714Y-29866666D01*
X98176190Y-29771428D01*
X98366666Y-29771428D01*
D10*
X93980000Y-130810000D02*
X93980000Y-135255000D01*
X92710000Y-129540000D02*
X93980000Y-130810000D01*
X93980000Y-116205000D02*
X93980000Y-119380000D01*
X92075000Y-114300000D02*
X93980000Y-116205000D01*
X90805000Y-114300000D02*
X92075000Y-114300000D01*
X83820000Y-116205000D02*
X83820000Y-120015000D01*
X81915000Y-114300000D02*
X83820000Y-116205000D01*
X80645000Y-114300000D02*
X81915000Y-114300000D01*
X93980000Y-100965000D02*
X93980000Y-104140000D01*
X92075000Y-99060000D02*
X93980000Y-100965000D01*
X90805000Y-99060000D02*
X92075000Y-99060000D01*
X83820000Y-100965000D02*
X83820000Y-104775000D01*
X83185000Y-100330000D02*
X83820000Y-100965000D01*
X81915000Y-99060000D02*
X83185000Y-100330000D01*
X80645000Y-99060000D02*
X81915000Y-99060000D01*
X81915000Y-89535000D02*
X86360000Y-89535000D01*
X81915000Y-73660000D02*
X86360000Y-73660000D01*
X81915000Y-58420000D02*
X86995000Y-58420000D01*
X81915000Y-43180000D02*
X85725000Y-43180000D01*
D11*
X80835476Y-89320714D02*
X80835476Y-89987380D01*
X80597380Y-88939761D02*
X80359285Y-89654047D01*
X80978333Y-89654047D01*
X80311666Y-73112380D02*
X80930714Y-73112380D01*
X80597380Y-73493333D01*
X80740238Y-73493333D01*
X80835476Y-73540952D01*
X80883095Y-73588571D01*
X80930714Y-73683809D01*
X80930714Y-73921904D01*
X80883095Y-74017142D01*
X80835476Y-74064761D01*
X80740238Y-74112380D01*
X80454523Y-74112380D01*
X80359285Y-74064761D01*
X80311666Y-74017142D01*
X80359285Y-57967619D02*
X80406904Y-57920000D01*
X80502142Y-57872380D01*
X80740238Y-57872380D01*
X80835476Y-57920000D01*
X80883095Y-57967619D01*
X80930714Y-58062857D01*
X80930714Y-58158095D01*
X80883095Y-58300952D01*
X80311666Y-58872380D01*
X80930714Y-58872380D01*
X80930714Y-43632380D02*
X80359285Y-43632380D01*
X80645000Y-43632380D02*
X80645000Y-42632380D01*
X80549761Y-42775238D01*
X80454523Y-42870476D01*
X80359285Y-42918095D01*
X88842433Y-128777889D02*
X89032909Y-128777889D01*
X89128147Y-128825509D01*
X89223385Y-128920747D01*
X89271004Y-129111223D01*
X89271004Y-129444556D01*
X89223385Y-129635032D01*
X89128147Y-129730270D01*
X89032909Y-129777889D01*
X88842433Y-129777889D01*
X88747194Y-129730270D01*
X88651956Y-129635032D01*
X88604337Y-129444556D01*
X88604337Y-129111223D01*
X88651956Y-128920747D01*
X88747194Y-128825509D01*
X88842433Y-128777889D01*
X89699575Y-128777889D02*
X89699575Y-129587413D01*
X89747194Y-129682651D01*
X89794813Y-129730270D01*
X89890052Y-129777889D01*
X90080528Y-129777889D01*
X90175766Y-129730270D01*
X90223385Y-129682651D01*
X90271004Y-129587413D01*
X90271004Y-128777889D01*
X90604337Y-128777889D02*
X91175766Y-128777889D01*
X90890052Y-129777889D02*
X90890052Y-128777889D01*
X90423976Y-113958714D02*
X90423976Y-114625380D01*
X90185880Y-113577761D02*
X89947785Y-114292047D01*
X90566833Y-114292047D01*
X79676666Y-113688880D02*
X80295714Y-113688880D01*
X79962380Y-114069833D01*
X80105238Y-114069833D01*
X80200476Y-114117452D01*
X80248095Y-114165071D01*
X80295714Y-114260309D01*
X80295714Y-114498404D01*
X80248095Y-114593642D01*
X80200476Y-114641261D01*
X80105238Y-114688880D01*
X79819523Y-114688880D01*
X79724285Y-114641261D01*
X79676666Y-114593642D01*
X89820785Y-98353619D02*
X89868404Y-98306000D01*
X89963642Y-98258380D01*
X90201738Y-98258380D01*
X90296976Y-98306000D01*
X90344595Y-98353619D01*
X90392214Y-98448857D01*
X90392214Y-98544095D01*
X90344595Y-98686952D01*
X89773166Y-99258380D01*
X90392214Y-99258380D01*
X80284120Y-99251836D02*
X79712691Y-99251836D01*
X79998406Y-99251836D02*
X79998406Y-98251836D01*
X79903167Y-98394694D01*
X79807929Y-98489932D01*
X79712691Y-98537551D01*
D12*
G04 #@! TO.C,G\u002A\u002A\u002A*
G36*
X91802246Y-146153037D02*
G01*
X92021225Y-146184178D01*
X92221041Y-146234381D01*
X92398521Y-146303328D01*
X92417712Y-146312621D01*
X92550396Y-146391907D01*
X92670883Y-146490313D01*
X92772504Y-146601607D01*
X92844221Y-146711191D01*
X92876320Y-146775115D01*
X92894906Y-146824608D01*
X92903447Y-146872069D01*
X92905409Y-146929896D01*
X92905409Y-146930000D01*
X92890482Y-147038386D01*
X92848380Y-147134529D01*
X92782226Y-147215677D01*
X92695144Y-147279078D01*
X92590255Y-147321980D01*
X92470685Y-147341632D01*
X92437148Y-147342594D01*
X92380487Y-147341353D01*
X92330848Y-147335924D01*
X92284816Y-147323988D01*
X92238978Y-147303226D01*
X92189920Y-147271318D01*
X92134230Y-147225946D01*
X92068494Y-147164790D01*
X91989298Y-147085531D01*
X91893229Y-146985849D01*
X91858575Y-146949479D01*
X91750530Y-146836091D01*
X91661539Y-146743350D01*
X91588899Y-146668781D01*
X91529910Y-146609906D01*
X91481870Y-146564247D01*
X91442077Y-146529329D01*
X91407830Y-146502673D01*
X91376427Y-146481802D01*
X91345166Y-146464241D01*
X91311347Y-146447510D01*
X91310875Y-146447286D01*
X91259506Y-146424224D01*
X91216155Y-146409753D01*
X91170338Y-146401910D01*
X91111575Y-146398731D01*
X91048937Y-146398227D01*
X90972357Y-146399157D01*
X90916996Y-146403211D01*
X90872340Y-146412351D01*
X90827880Y-146428543D01*
X90786894Y-146447179D01*
X90676180Y-146512663D01*
X90594319Y-146590944D01*
X90540780Y-146682792D01*
X90515033Y-146788974D01*
X90512387Y-146844812D01*
X90518565Y-146921781D01*
X90537786Y-146993706D01*
X90572886Y-147065838D01*
X90626702Y-147143429D01*
X90702070Y-147231728D01*
X90747753Y-147280522D01*
X90833546Y-147374497D01*
X90896522Y-147454663D01*
X90939457Y-147526003D01*
X90965126Y-147593500D01*
X90976303Y-147662137D01*
X90977344Y-147692851D01*
X90962492Y-147796378D01*
X90917200Y-147896198D01*
X90840925Y-147993370D01*
X90805019Y-148028609D01*
X90768104Y-148061930D01*
X90711416Y-148112091D01*
X90639307Y-148175291D01*
X90556128Y-148247727D01*
X90466229Y-148325597D01*
X90385933Y-148394809D01*
X90297101Y-148471837D01*
X90214466Y-148544702D01*
X90141656Y-148610110D01*
X90082300Y-148664765D01*
X90040025Y-148705373D01*
X90018804Y-148728184D01*
X89972395Y-148813644D01*
X89953214Y-148907476D01*
X89960194Y-149003646D01*
X89992269Y-149096121D01*
X90048374Y-149178865D01*
X90107918Y-149232616D01*
X90192203Y-149276872D01*
X90278840Y-149290253D01*
X90365251Y-149272421D01*
X90376429Y-149267751D01*
X90404825Y-149251190D01*
X90455030Y-149217626D01*
X90523716Y-149169454D01*
X90607557Y-149109069D01*
X90703228Y-149038866D01*
X90807400Y-148961241D01*
X90914000Y-148880681D01*
X91143477Y-148706036D01*
X91349085Y-148549553D01*
X91532245Y-148410198D01*
X91694379Y-148286938D01*
X91836907Y-148178738D01*
X91961251Y-148084565D01*
X92068832Y-148003384D01*
X92161070Y-147934162D01*
X92239387Y-147875866D01*
X92305205Y-147827461D01*
X92359943Y-147787913D01*
X92405024Y-147756188D01*
X92441869Y-147731254D01*
X92471897Y-147712075D01*
X92496532Y-147697618D01*
X92517193Y-147686849D01*
X92535302Y-147678735D01*
X92552280Y-147672241D01*
X92569548Y-147666334D01*
X92588528Y-147659980D01*
X92595064Y-147657729D01*
X92715894Y-147628818D01*
X92829295Y-147627283D01*
X92932002Y-147651955D01*
X93020748Y-147701666D01*
X93092267Y-147775247D01*
X93135027Y-147850845D01*
X93149111Y-147894372D01*
X93166315Y-147964797D01*
X93185900Y-148057507D01*
X93207127Y-148167884D01*
X93229255Y-148291313D01*
X93251546Y-148423179D01*
X93273260Y-148558866D01*
X93293656Y-148693760D01*
X93311997Y-148823243D01*
X93327542Y-148942701D01*
X93339551Y-149047518D01*
X93347285Y-149133078D01*
X93350001Y-149192524D01*
X93349812Y-149271097D01*
X93347254Y-149327204D01*
X93340627Y-149370122D01*
X93328234Y-149409129D01*
X93308377Y-149453501D01*
X93298552Y-149473639D01*
X93230022Y-149582038D01*
X93143570Y-149664625D01*
X93038553Y-149721779D01*
X92914327Y-149753881D01*
X92811062Y-149761715D01*
X92702135Y-149754660D01*
X92612208Y-149728137D01*
X92532735Y-149678467D01*
X92464460Y-149612467D01*
X92405374Y-149530807D01*
X92369553Y-149440077D01*
X92354488Y-149332898D01*
X92353681Y-149286548D01*
X92355198Y-149244635D01*
X92359805Y-149203583D01*
X92368809Y-149160081D01*
X92383521Y-149110816D01*
X92405249Y-149052478D01*
X92435303Y-148981754D01*
X92474992Y-148895333D01*
X92525624Y-148789904D01*
X92588509Y-148662154D01*
X92646658Y-148545383D01*
X92715455Y-148406957D01*
X92770700Y-148293665D01*
X92813454Y-148202455D01*
X92844776Y-148130273D01*
X92865728Y-148074067D01*
X92877368Y-148030783D01*
X92880757Y-147997367D01*
X92876955Y-147970767D01*
X92867023Y-147947930D01*
X92858638Y-147934872D01*
X92813542Y-147896222D01*
X92750775Y-147876381D01*
X92679972Y-147877948D01*
X92662498Y-147881894D01*
X92633332Y-147892397D01*
X92604004Y-147909472D01*
X92572817Y-147935419D01*
X92538074Y-147972538D01*
X92498079Y-148023129D01*
X92451135Y-148089494D01*
X92395547Y-148173931D01*
X92329617Y-148278741D01*
X92251650Y-148406225D01*
X92159948Y-148558683D01*
X92145331Y-148583132D01*
X92034242Y-148768845D01*
X91937838Y-148929478D01*
X91854691Y-149067306D01*
X91783369Y-149184604D01*
X91722444Y-149283648D01*
X91670485Y-149366713D01*
X91626062Y-149436075D01*
X91587745Y-149494009D01*
X91554105Y-149542790D01*
X91523712Y-149584694D01*
X91495135Y-149621997D01*
X91482594Y-149637756D01*
X91365254Y-149763442D01*
X91237814Y-149859940D01*
X91097474Y-149928641D01*
X90941429Y-149970943D01*
X90779062Y-149987838D01*
X90665600Y-149988122D01*
X90576740Y-149979175D01*
X90534783Y-149969764D01*
X90383030Y-149910952D01*
X90239970Y-149822931D01*
X90106702Y-149707318D01*
X89984322Y-149565732D01*
X89873929Y-149399790D01*
X89776620Y-149211112D01*
X89693493Y-149001315D01*
X89625646Y-148772017D01*
X89580933Y-148563679D01*
X89541422Y-148287577D01*
X89526003Y-148029194D01*
X89534844Y-147785374D01*
X89568114Y-147552961D01*
X89625980Y-147328800D01*
X89650732Y-147255459D01*
X89739592Y-147052576D01*
X89854150Y-146867194D01*
X89992874Y-146700481D01*
X90154236Y-146553608D01*
X90336704Y-146427743D01*
X90538749Y-146324056D01*
X90758841Y-146243715D01*
X90995449Y-146187889D01*
X91062076Y-146177155D01*
X91319498Y-146149208D01*
X91567280Y-146141274D01*
X91802246Y-146153037D01*
G37*
X91802246Y-146153037D02*
X92021225Y-146184178D01*
X92221041Y-146234381D01*
X92398521Y-146303328D01*
X92417712Y-146312621D01*
X92550396Y-146391907D01*
X92670883Y-146490313D01*
X92772504Y-146601607D01*
X92844221Y-146711191D01*
X92876320Y-146775115D01*
X92894906Y-146824608D01*
X92903447Y-146872069D01*
X92905409Y-146929896D01*
X92905409Y-146930000D01*
X92890482Y-147038386D01*
X92848380Y-147134529D01*
X92782226Y-147215677D01*
X92695144Y-147279078D01*
X92590255Y-147321980D01*
X92470685Y-147341632D01*
X92437148Y-147342594D01*
X92380487Y-147341353D01*
X92330848Y-147335924D01*
X92284816Y-147323988D01*
X92238978Y-147303226D01*
X92189920Y-147271318D01*
X92134230Y-147225946D01*
X92068494Y-147164790D01*
X91989298Y-147085531D01*
X91893229Y-146985849D01*
X91858575Y-146949479D01*
X91750530Y-146836091D01*
X91661539Y-146743350D01*
X91588899Y-146668781D01*
X91529910Y-146609906D01*
X91481870Y-146564247D01*
X91442077Y-146529329D01*
X91407830Y-146502673D01*
X91376427Y-146481802D01*
X91345166Y-146464241D01*
X91311347Y-146447510D01*
X91310875Y-146447286D01*
X91259506Y-146424224D01*
X91216155Y-146409753D01*
X91170338Y-146401910D01*
X91111575Y-146398731D01*
X91048937Y-146398227D01*
X90972357Y-146399157D01*
X90916996Y-146403211D01*
X90872340Y-146412351D01*
X90827880Y-146428543D01*
X90786894Y-146447179D01*
X90676180Y-146512663D01*
X90594319Y-146590944D01*
X90540780Y-146682792D01*
X90515033Y-146788974D01*
X90512387Y-146844812D01*
X90518565Y-146921781D01*
X90537786Y-146993706D01*
X90572886Y-147065838D01*
X90626702Y-147143429D01*
X90702070Y-147231728D01*
X90747753Y-147280522D01*
X90833546Y-147374497D01*
X90896522Y-147454663D01*
X90939457Y-147526003D01*
X90965126Y-147593500D01*
X90976303Y-147662137D01*
X90977344Y-147692851D01*
X90962492Y-147796378D01*
X90917200Y-147896198D01*
X90840925Y-147993370D01*
X90805019Y-148028609D01*
X90768104Y-148061930D01*
X90711416Y-148112091D01*
X90639307Y-148175291D01*
X90556128Y-148247727D01*
X90466229Y-148325597D01*
X90385933Y-148394809D01*
X90297101Y-148471837D01*
X90214466Y-148544702D01*
X90141656Y-148610110D01*
X90082300Y-148664765D01*
X90040025Y-148705373D01*
X90018804Y-148728184D01*
X89972395Y-148813644D01*
X89953214Y-148907476D01*
X89960194Y-149003646D01*
X89992269Y-149096121D01*
X90048374Y-149178865D01*
X90107918Y-149232616D01*
X90192203Y-149276872D01*
X90278840Y-149290253D01*
X90365251Y-149272421D01*
X90376429Y-149267751D01*
X90404825Y-149251190D01*
X90455030Y-149217626D01*
X90523716Y-149169454D01*
X90607557Y-149109069D01*
X90703228Y-149038866D01*
X90807400Y-148961241D01*
X90914000Y-148880681D01*
X91143477Y-148706036D01*
X91349085Y-148549553D01*
X91532245Y-148410198D01*
X91694379Y-148286938D01*
X91836907Y-148178738D01*
X91961251Y-148084565D01*
X92068832Y-148003384D01*
X92161070Y-147934162D01*
X92239387Y-147875866D01*
X92305205Y-147827461D01*
X92359943Y-147787913D01*
X92405024Y-147756188D01*
X92441869Y-147731254D01*
X92471897Y-147712075D01*
X92496532Y-147697618D01*
X92517193Y-147686849D01*
X92535302Y-147678735D01*
X92552280Y-147672241D01*
X92569548Y-147666334D01*
X92588528Y-147659980D01*
X92595064Y-147657729D01*
X92715894Y-147628818D01*
X92829295Y-147627283D01*
X92932002Y-147651955D01*
X93020748Y-147701666D01*
X93092267Y-147775247D01*
X93135027Y-147850845D01*
X93149111Y-147894372D01*
X93166315Y-147964797D01*
X93185900Y-148057507D01*
X93207127Y-148167884D01*
X93229255Y-148291313D01*
X93251546Y-148423179D01*
X93273260Y-148558866D01*
X93293656Y-148693760D01*
X93311997Y-148823243D01*
X93327542Y-148942701D01*
X93339551Y-149047518D01*
X93347285Y-149133078D01*
X93350001Y-149192524D01*
X93349812Y-149271097D01*
X93347254Y-149327204D01*
X93340627Y-149370122D01*
X93328234Y-149409129D01*
X93308377Y-149453501D01*
X93298552Y-149473639D01*
X93230022Y-149582038D01*
X93143570Y-149664625D01*
X93038553Y-149721779D01*
X92914327Y-149753881D01*
X92811062Y-149761715D01*
X92702135Y-149754660D01*
X92612208Y-149728137D01*
X92532735Y-149678467D01*
X92464460Y-149612467D01*
X92405374Y-149530807D01*
X92369553Y-149440077D01*
X92354488Y-149332898D01*
X92353681Y-149286548D01*
X92355198Y-149244635D01*
X92359805Y-149203583D01*
X92368809Y-149160081D01*
X92383521Y-149110816D01*
X92405249Y-149052478D01*
X92435303Y-148981754D01*
X92474992Y-148895333D01*
X92525624Y-148789904D01*
X92588509Y-148662154D01*
X92646658Y-148545383D01*
X92715455Y-148406957D01*
X92770700Y-148293665D01*
X92813454Y-148202455D01*
X92844776Y-148130273D01*
X92865728Y-148074067D01*
X92877368Y-148030783D01*
X92880757Y-147997367D01*
X92876955Y-147970767D01*
X92867023Y-147947930D01*
X92858638Y-147934872D01*
X92813542Y-147896222D01*
X92750775Y-147876381D01*
X92679972Y-147877948D01*
X92662498Y-147881894D01*
X92633332Y-147892397D01*
X92604004Y-147909472D01*
X92572817Y-147935419D01*
X92538074Y-147972538D01*
X92498079Y-148023129D01*
X92451135Y-148089494D01*
X92395547Y-148173931D01*
X92329617Y-148278741D01*
X92251650Y-148406225D01*
X92159948Y-148558683D01*
X92145331Y-148583132D01*
X92034242Y-148768845D01*
X91937838Y-148929478D01*
X91854691Y-149067306D01*
X91783369Y-149184604D01*
X91722444Y-149283648D01*
X91670485Y-149366713D01*
X91626062Y-149436075D01*
X91587745Y-149494009D01*
X91554105Y-149542790D01*
X91523712Y-149584694D01*
X91495135Y-149621997D01*
X91482594Y-149637756D01*
X91365254Y-149763442D01*
X91237814Y-149859940D01*
X91097474Y-149928641D01*
X90941429Y-149970943D01*
X90779062Y-149987838D01*
X90665600Y-149988122D01*
X90576740Y-149979175D01*
X90534783Y-149969764D01*
X90383030Y-149910952D01*
X90239970Y-149822931D01*
X90106702Y-149707318D01*
X89984322Y-149565732D01*
X89873929Y-149399790D01*
X89776620Y-149211112D01*
X89693493Y-149001315D01*
X89625646Y-148772017D01*
X89580933Y-148563679D01*
X89541422Y-148287577D01*
X89526003Y-148029194D01*
X89534844Y-147785374D01*
X89568114Y-147552961D01*
X89625980Y-147328800D01*
X89650732Y-147255459D01*
X89739592Y-147052576D01*
X89854150Y-146867194D01*
X89992874Y-146700481D01*
X90154236Y-146553608D01*
X90336704Y-146427743D01*
X90538749Y-146324056D01*
X90758841Y-146243715D01*
X90995449Y-146187889D01*
X91062076Y-146177155D01*
X91319498Y-146149208D01*
X91567280Y-146141274D01*
X91802246Y-146153037D01*
G36*
X96302981Y-146304082D02*
G01*
X96358897Y-146308434D01*
X96400757Y-146317369D01*
X96437379Y-146332263D01*
X96448286Y-146337897D01*
X96561590Y-146416333D01*
X96656099Y-146520354D01*
X96731807Y-146649951D01*
X96788709Y-146805115D01*
X96818983Y-146937937D01*
X96823783Y-146974309D01*
X96830390Y-147038439D01*
X96838475Y-147126406D01*
X96847704Y-147234290D01*
X96857747Y-147358169D01*
X96868274Y-147494125D01*
X96878951Y-147638235D01*
X96883379Y-147699937D01*
X96895603Y-147871529D01*
X96908959Y-148058229D01*
X96922868Y-148251994D01*
X96936751Y-148444786D01*
X96950028Y-148628564D01*
X96962122Y-148795287D01*
X96970730Y-148913365D01*
X96981820Y-149068383D01*
X96990286Y-149195603D01*
X96996259Y-149298859D01*
X96999866Y-149381984D01*
X97001238Y-149448809D01*
X97000503Y-149503170D01*
X96997791Y-149548897D01*
X96993472Y-149588052D01*
X96966654Y-149720230D01*
X96924231Y-149826799D01*
X96864294Y-149910791D01*
X96784936Y-149975240D01*
X96732046Y-150003583D01*
X96623912Y-150041504D01*
X96516810Y-150053657D01*
X96408317Y-150039341D01*
X96296011Y-149997859D01*
X96177470Y-149928513D01*
X96050270Y-149830604D01*
X96009875Y-149795392D01*
X95978794Y-149766927D01*
X95927301Y-149718907D01*
X95857928Y-149653727D01*
X95773204Y-149573780D01*
X95675660Y-149481459D01*
X95567827Y-149379159D01*
X95452236Y-149269272D01*
X95331417Y-149154192D01*
X95269874Y-149095487D01*
X95104225Y-148936815D01*
X94960208Y-148797290D01*
X94835991Y-148674674D01*
X94729741Y-148566726D01*
X94639626Y-148471205D01*
X94563813Y-148385873D01*
X94500469Y-148308488D01*
X94447763Y-148236810D01*
X94403862Y-148168601D01*
X94366932Y-148101618D01*
X94335143Y-148033623D01*
X94306660Y-147962375D01*
X94279651Y-147885635D01*
X94279308Y-147884609D01*
X94260087Y-147824418D01*
X94245986Y-147771155D01*
X94235854Y-147717101D01*
X94228538Y-147654536D01*
X94222885Y-147575740D01*
X94217744Y-147472996D01*
X94217693Y-147471859D01*
X94212091Y-147364089D01*
X94205867Y-147282915D01*
X94198371Y-147223183D01*
X94188953Y-147179739D01*
X94176962Y-147147430D01*
X94176693Y-147146864D01*
X94128504Y-147078108D01*
X94064165Y-147032172D01*
X93988469Y-147008014D01*
X93906211Y-147004593D01*
X93822186Y-147020869D01*
X93741189Y-147055799D01*
X93668014Y-147108343D01*
X93607457Y-147177460D01*
X93564312Y-147262109D01*
X93558083Y-147281185D01*
X93537120Y-147382580D01*
X93537463Y-147482384D01*
X93557550Y-147587646D01*
X93573894Y-147646745D01*
X93591986Y-147703089D01*
X93613459Y-147759676D01*
X93639941Y-147819505D01*
X93673065Y-147885572D01*
X93714459Y-147960876D01*
X93765756Y-148048416D01*
X93828585Y-148151189D01*
X93904577Y-148272194D01*
X93995363Y-148414428D01*
X94071907Y-148533375D01*
X94211058Y-148749423D01*
X94333042Y-148939472D01*
X94438178Y-149104022D01*
X94526782Y-149243576D01*
X94599172Y-149358638D01*
X94655665Y-149449709D01*
X94696578Y-149517292D01*
X94722228Y-149561889D01*
X94728177Y-149573187D01*
X94781586Y-149699101D01*
X94817971Y-149827028D01*
X94836544Y-149950846D01*
X94836514Y-150064436D01*
X94817093Y-150161678D01*
X94807316Y-150186861D01*
X94762522Y-150258106D01*
X94696390Y-150326625D01*
X94618679Y-150383266D01*
X94572898Y-150406748D01*
X94454025Y-150445158D01*
X94326222Y-150464863D01*
X94200782Y-150464856D01*
X94104090Y-150448503D01*
X94002751Y-150409108D01*
X93917035Y-150348207D01*
X93843137Y-150262387D01*
X93783362Y-150160562D01*
X93759301Y-150109300D01*
X93736504Y-150052746D01*
X93714282Y-149988058D01*
X93691946Y-149912389D01*
X93668808Y-149822895D01*
X93644179Y-149716734D01*
X93617372Y-149591058D01*
X93587697Y-149443026D01*
X93554466Y-149269791D01*
X93516990Y-149068510D01*
X93510540Y-149033437D01*
X93468095Y-148802020D01*
X93431082Y-148599333D01*
X93399129Y-148422893D01*
X93371864Y-148270214D01*
X93348915Y-148138814D01*
X93329910Y-148026207D01*
X93314476Y-147929908D01*
X93302241Y-147847435D01*
X93292833Y-147776303D01*
X93285881Y-147714026D01*
X93281010Y-147658122D01*
X93277851Y-147606105D01*
X93276030Y-147555491D01*
X93275174Y-147503797D01*
X93274938Y-147460831D01*
X93282584Y-147293978D01*
X93307298Y-147152545D01*
X93350367Y-147034405D01*
X93413075Y-146937428D01*
X93496710Y-146859488D01*
X93602556Y-146798454D01*
X93696654Y-146762695D01*
X93849901Y-146727255D01*
X93994042Y-146721695D01*
X94131554Y-146746329D01*
X94264911Y-146801474D01*
X94336593Y-146844398D01*
X94369373Y-146867235D01*
X94404728Y-146894278D01*
X94444127Y-146927014D01*
X94489039Y-146966928D01*
X94540934Y-147015507D01*
X94601279Y-147074236D01*
X94671544Y-147144601D01*
X94753197Y-147228088D01*
X94847707Y-147326182D01*
X94956544Y-147440369D01*
X95081175Y-147572136D01*
X95223071Y-147722968D01*
X95383698Y-147894350D01*
X95543316Y-148065062D01*
X95676866Y-148207727D01*
X95805222Y-148344287D01*
X95926583Y-148472860D01*
X96039146Y-148591563D01*
X96141110Y-148698511D01*
X96230672Y-148791822D01*
X96306032Y-148869613D01*
X96365385Y-148929998D01*
X96406932Y-148971097D01*
X96428870Y-148991024D01*
X96430009Y-148991843D01*
X96496305Y-149019250D01*
X96568846Y-149021804D01*
X96636825Y-149000228D01*
X96671198Y-148975744D01*
X96696051Y-148947444D01*
X96705957Y-148916393D01*
X96704870Y-148869118D01*
X96704308Y-148862962D01*
X96702321Y-148842804D01*
X96699657Y-148823787D01*
X96695199Y-148803940D01*
X96687827Y-148781295D01*
X96676423Y-148753885D01*
X96659868Y-148719741D01*
X96637044Y-148676894D01*
X96606832Y-148623375D01*
X96568112Y-148557216D01*
X96519767Y-148476449D01*
X96460679Y-148379106D01*
X96389727Y-148263217D01*
X96305794Y-148126814D01*
X96207761Y-147967929D01*
X96094510Y-147784594D01*
X96056916Y-147723750D01*
X95996103Y-147624400D01*
X95938398Y-147528413D01*
X95886750Y-147440828D01*
X95844111Y-147366685D01*
X95813429Y-147311024D01*
X95801051Y-147286622D01*
X95749653Y-147155720D01*
X95714496Y-147019989D01*
X95696066Y-146885604D01*
X95694852Y-146758741D01*
X95711338Y-146645575D01*
X95743549Y-146556937D01*
X95792621Y-146478262D01*
X95852023Y-146417730D01*
X95930636Y-146367132D01*
X95970187Y-146347491D01*
X96019078Y-146326318D01*
X96062520Y-146313095D01*
X96110834Y-146306013D01*
X96174338Y-146303262D01*
X96224187Y-146302937D01*
X96302981Y-146304082D01*
G37*
X96302981Y-146304082D02*
X96358897Y-146308434D01*
X96400757Y-146317369D01*
X96437379Y-146332263D01*
X96448286Y-146337897D01*
X96561590Y-146416333D01*
X96656099Y-146520354D01*
X96731807Y-146649951D01*
X96788709Y-146805115D01*
X96818983Y-146937937D01*
X96823783Y-146974309D01*
X96830390Y-147038439D01*
X96838475Y-147126406D01*
X96847704Y-147234290D01*
X96857747Y-147358169D01*
X96868274Y-147494125D01*
X96878951Y-147638235D01*
X96883379Y-147699937D01*
X96895603Y-147871529D01*
X96908959Y-148058229D01*
X96922868Y-148251994D01*
X96936751Y-148444786D01*
X96950028Y-148628564D01*
X96962122Y-148795287D01*
X96970730Y-148913365D01*
X96981820Y-149068383D01*
X96990286Y-149195603D01*
X96996259Y-149298859D01*
X96999866Y-149381984D01*
X97001238Y-149448809D01*
X97000503Y-149503170D01*
X96997791Y-149548897D01*
X96993472Y-149588052D01*
X96966654Y-149720230D01*
X96924231Y-149826799D01*
X96864294Y-149910791D01*
X96784936Y-149975240D01*
X96732046Y-150003583D01*
X96623912Y-150041504D01*
X96516810Y-150053657D01*
X96408317Y-150039341D01*
X96296011Y-149997859D01*
X96177470Y-149928513D01*
X96050270Y-149830604D01*
X96009875Y-149795392D01*
X95978794Y-149766927D01*
X95927301Y-149718907D01*
X95857928Y-149653727D01*
X95773204Y-149573780D01*
X95675660Y-149481459D01*
X95567827Y-149379159D01*
X95452236Y-149269272D01*
X95331417Y-149154192D01*
X95269874Y-149095487D01*
X95104225Y-148936815D01*
X94960208Y-148797290D01*
X94835991Y-148674674D01*
X94729741Y-148566726D01*
X94639626Y-148471205D01*
X94563813Y-148385873D01*
X94500469Y-148308488D01*
X94447763Y-148236810D01*
X94403862Y-148168601D01*
X94366932Y-148101618D01*
X94335143Y-148033623D01*
X94306660Y-147962375D01*
X94279651Y-147885635D01*
X94279308Y-147884609D01*
X94260087Y-147824418D01*
X94245986Y-147771155D01*
X94235854Y-147717101D01*
X94228538Y-147654536D01*
X94222885Y-147575740D01*
X94217744Y-147472996D01*
X94217693Y-147471859D01*
X94212091Y-147364089D01*
X94205867Y-147282915D01*
X94198371Y-147223183D01*
X94188953Y-147179739D01*
X94176962Y-147147430D01*
X94176693Y-147146864D01*
X94128504Y-147078108D01*
X94064165Y-147032172D01*
X93988469Y-147008014D01*
X93906211Y-147004593D01*
X93822186Y-147020869D01*
X93741189Y-147055799D01*
X93668014Y-147108343D01*
X93607457Y-147177460D01*
X93564312Y-147262109D01*
X93558083Y-147281185D01*
X93537120Y-147382580D01*
X93537463Y-147482384D01*
X93557550Y-147587646D01*
X93573894Y-147646745D01*
X93591986Y-147703089D01*
X93613459Y-147759676D01*
X93639941Y-147819505D01*
X93673065Y-147885572D01*
X93714459Y-147960876D01*
X93765756Y-148048416D01*
X93828585Y-148151189D01*
X93904577Y-148272194D01*
X93995363Y-148414428D01*
X94071907Y-148533375D01*
X94211058Y-148749423D01*
X94333042Y-148939472D01*
X94438178Y-149104022D01*
X94526782Y-149243576D01*
X94599172Y-149358638D01*
X94655665Y-149449709D01*
X94696578Y-149517292D01*
X94722228Y-149561889D01*
X94728177Y-149573187D01*
X94781586Y-149699101D01*
X94817971Y-149827028D01*
X94836544Y-149950846D01*
X94836514Y-150064436D01*
X94817093Y-150161678D01*
X94807316Y-150186861D01*
X94762522Y-150258106D01*
X94696390Y-150326625D01*
X94618679Y-150383266D01*
X94572898Y-150406748D01*
X94454025Y-150445158D01*
X94326222Y-150464863D01*
X94200782Y-150464856D01*
X94104090Y-150448503D01*
X94002751Y-150409108D01*
X93917035Y-150348207D01*
X93843137Y-150262387D01*
X93783362Y-150160562D01*
X93759301Y-150109300D01*
X93736504Y-150052746D01*
X93714282Y-149988058D01*
X93691946Y-149912389D01*
X93668808Y-149822895D01*
X93644179Y-149716734D01*
X93617372Y-149591058D01*
X93587697Y-149443026D01*
X93554466Y-149269791D01*
X93516990Y-149068510D01*
X93510540Y-149033437D01*
X93468095Y-148802020D01*
X93431082Y-148599333D01*
X93399129Y-148422893D01*
X93371864Y-148270214D01*
X93348915Y-148138814D01*
X93329910Y-148026207D01*
X93314476Y-147929908D01*
X93302241Y-147847435D01*
X93292833Y-147776303D01*
X93285881Y-147714026D01*
X93281010Y-147658122D01*
X93277851Y-147606105D01*
X93276030Y-147555491D01*
X93275174Y-147503797D01*
X93274938Y-147460831D01*
X93282584Y-147293978D01*
X93307298Y-147152545D01*
X93350367Y-147034405D01*
X93413075Y-146937428D01*
X93496710Y-146859488D01*
X93602556Y-146798454D01*
X93696654Y-146762695D01*
X93849901Y-146727255D01*
X93994042Y-146721695D01*
X94131554Y-146746329D01*
X94264911Y-146801474D01*
X94336593Y-146844398D01*
X94369373Y-146867235D01*
X94404728Y-146894278D01*
X94444127Y-146927014D01*
X94489039Y-146966928D01*
X94540934Y-147015507D01*
X94601279Y-147074236D01*
X94671544Y-147144601D01*
X94753197Y-147228088D01*
X94847707Y-147326182D01*
X94956544Y-147440369D01*
X95081175Y-147572136D01*
X95223071Y-147722968D01*
X95383698Y-147894350D01*
X95543316Y-148065062D01*
X95676866Y-148207727D01*
X95805222Y-148344287D01*
X95926583Y-148472860D01*
X96039146Y-148591563D01*
X96141110Y-148698511D01*
X96230672Y-148791822D01*
X96306032Y-148869613D01*
X96365385Y-148929998D01*
X96406932Y-148971097D01*
X96428870Y-148991024D01*
X96430009Y-148991843D01*
X96496305Y-149019250D01*
X96568846Y-149021804D01*
X96636825Y-149000228D01*
X96671198Y-148975744D01*
X96696051Y-148947444D01*
X96705957Y-148916393D01*
X96704870Y-148869118D01*
X96704308Y-148862962D01*
X96702321Y-148842804D01*
X96699657Y-148823787D01*
X96695199Y-148803940D01*
X96687827Y-148781295D01*
X96676423Y-148753885D01*
X96659868Y-148719741D01*
X96637044Y-148676894D01*
X96606832Y-148623375D01*
X96568112Y-148557216D01*
X96519767Y-148476449D01*
X96460679Y-148379106D01*
X96389727Y-148263217D01*
X96305794Y-148126814D01*
X96207761Y-147967929D01*
X96094510Y-147784594D01*
X96056916Y-147723750D01*
X95996103Y-147624400D01*
X95938398Y-147528413D01*
X95886750Y-147440828D01*
X95844111Y-147366685D01*
X95813429Y-147311024D01*
X95801051Y-147286622D01*
X95749653Y-147155720D01*
X95714496Y-147019989D01*
X95696066Y-146885604D01*
X95694852Y-146758741D01*
X95711338Y-146645575D01*
X95743549Y-146556937D01*
X95792621Y-146478262D01*
X95852023Y-146417730D01*
X95930636Y-146367132D01*
X95970187Y-146347491D01*
X96019078Y-146326318D01*
X96062520Y-146313095D01*
X96110834Y-146306013D01*
X96174338Y-146303262D01*
X96224187Y-146302937D01*
X96302981Y-146304082D01*
G04 #@! TO.C,REF\u002A\u002A*
D11*
X107091666Y-114417380D02*
X106758333Y-113941190D01*
X106520238Y-114417380D02*
X106520238Y-113417380D01*
X106901190Y-113417380D01*
X106996428Y-113465000D01*
X107044047Y-113512619D01*
X107091666Y-113607857D01*
X107091666Y-113750714D01*
X107044047Y-113845952D01*
X106996428Y-113893571D01*
X106901190Y-113941190D01*
X106520238Y-113941190D01*
X107520238Y-113893571D02*
X107853571Y-113893571D01*
X107996428Y-114417380D02*
X107520238Y-114417380D01*
X107520238Y-113417380D01*
X107996428Y-113417380D01*
X108758333Y-113893571D02*
X108425000Y-113893571D01*
X108425000Y-114417380D02*
X108425000Y-113417380D01*
X108901190Y-113417380D01*
X109425000Y-113417380D02*
X109425000Y-113655476D01*
X109186904Y-113560238D02*
X109425000Y-113655476D01*
X109663095Y-113560238D01*
X109282142Y-113845952D02*
X109425000Y-113655476D01*
X109567857Y-113845952D01*
X110186904Y-113417380D02*
X110186904Y-113655476D01*
X109948809Y-113560238D02*
X110186904Y-113655476D01*
X110425000Y-113560238D01*
X110044047Y-113845952D02*
X110186904Y-113655476D01*
X110329761Y-113845952D01*
X77871666Y-14727380D02*
X77538333Y-14251190D01*
X77300238Y-14727380D02*
X77300238Y-13727380D01*
X77681190Y-13727380D01*
X77776428Y-13775000D01*
X77824047Y-13822619D01*
X77871666Y-13917857D01*
X77871666Y-14060714D01*
X77824047Y-14155952D01*
X77776428Y-14203571D01*
X77681190Y-14251190D01*
X77300238Y-14251190D01*
X78300238Y-14203571D02*
X78633571Y-14203571D01*
X78776428Y-14727380D02*
X78300238Y-14727380D01*
X78300238Y-13727380D01*
X78776428Y-13727380D01*
X79538333Y-14203571D02*
X79205000Y-14203571D01*
X79205000Y-14727380D02*
X79205000Y-13727380D01*
X79681190Y-13727380D01*
X80205000Y-13727380D02*
X80205000Y-13965476D01*
X79966904Y-13870238D02*
X80205000Y-13965476D01*
X80443095Y-13870238D01*
X80062142Y-14155952D02*
X80205000Y-13965476D01*
X80347857Y-14155952D01*
X80966904Y-13727380D02*
X80966904Y-13965476D01*
X80728809Y-13870238D02*
X80966904Y-13965476D01*
X81205000Y-13870238D01*
X80824047Y-14155952D02*
X80966904Y-13965476D01*
X81109761Y-14155952D01*
X104711666Y-84907380D02*
X104378333Y-84431190D01*
X104140238Y-84907380D02*
X104140238Y-83907380D01*
X104521190Y-83907380D01*
X104616428Y-83955000D01*
X104664047Y-84002619D01*
X104711666Y-84097857D01*
X104711666Y-84240714D01*
X104664047Y-84335952D01*
X104616428Y-84383571D01*
X104521190Y-84431190D01*
X104140238Y-84431190D01*
X105140238Y-84383571D02*
X105473571Y-84383571D01*
X105616428Y-84907380D02*
X105140238Y-84907380D01*
X105140238Y-83907380D01*
X105616428Y-83907380D01*
X106378333Y-84383571D02*
X106045000Y-84383571D01*
X106045000Y-84907380D02*
X106045000Y-83907380D01*
X106521190Y-83907380D01*
X107045000Y-83907380D02*
X107045000Y-84145476D01*
X106806904Y-84050238D02*
X107045000Y-84145476D01*
X107283095Y-84050238D01*
X106902142Y-84335952D02*
X107045000Y-84145476D01*
X107187857Y-84335952D01*
X107806904Y-83907380D02*
X107806904Y-84145476D01*
X107568809Y-84050238D02*
X107806904Y-84145476D01*
X108045000Y-84050238D01*
X107664047Y-84335952D02*
X107806904Y-84145476D01*
X107949761Y-84335952D01*
X104711666Y-84907380D02*
X104378333Y-84431190D01*
X104140238Y-84907380D02*
X104140238Y-83907380D01*
X104521190Y-83907380D01*
X104616428Y-83955000D01*
X104664047Y-84002619D01*
X104711666Y-84097857D01*
X104711666Y-84240714D01*
X104664047Y-84335952D01*
X104616428Y-84383571D01*
X104521190Y-84431190D01*
X104140238Y-84431190D01*
X105140238Y-84383571D02*
X105473571Y-84383571D01*
X105616428Y-84907380D02*
X105140238Y-84907380D01*
X105140238Y-83907380D01*
X105616428Y-83907380D01*
X106378333Y-84383571D02*
X106045000Y-84383571D01*
X106045000Y-84907380D02*
X106045000Y-83907380D01*
X106521190Y-83907380D01*
X107045000Y-83907380D02*
X107045000Y-84145476D01*
X106806904Y-84050238D02*
X107045000Y-84145476D01*
X107283095Y-84050238D01*
X106902142Y-84335952D02*
X107045000Y-84145476D01*
X107187857Y-84335952D01*
X107806904Y-83907380D02*
X107806904Y-84145476D01*
X107568809Y-84050238D02*
X107806904Y-84145476D01*
X108045000Y-84050238D01*
X107664047Y-84335952D02*
X107806904Y-84145476D01*
X107949761Y-84335952D01*
X104711666Y-84907380D02*
X104378333Y-84431190D01*
X104140238Y-84907380D02*
X104140238Y-83907380D01*
X104521190Y-83907380D01*
X104616428Y-83955000D01*
X104664047Y-84002619D01*
X104711666Y-84097857D01*
X104711666Y-84240714D01*
X104664047Y-84335952D01*
X104616428Y-84383571D01*
X104521190Y-84431190D01*
X104140238Y-84431190D01*
X105140238Y-84383571D02*
X105473571Y-84383571D01*
X105616428Y-84907380D02*
X105140238Y-84907380D01*
X105140238Y-83907380D01*
X105616428Y-83907380D01*
X106378333Y-84383571D02*
X106045000Y-84383571D01*
X106045000Y-84907380D02*
X106045000Y-83907380D01*
X106521190Y-83907380D01*
X107045000Y-83907380D02*
X107045000Y-84145476D01*
X106806904Y-84050238D02*
X107045000Y-84145476D01*
X107283095Y-84050238D01*
X106902142Y-84335952D02*
X107045000Y-84145476D01*
X107187857Y-84335952D01*
X107806904Y-83907380D02*
X107806904Y-84145476D01*
X107568809Y-84050238D02*
X107806904Y-84145476D01*
X108045000Y-84050238D01*
X107664047Y-84335952D02*
X107806904Y-84145476D01*
X107949761Y-84335952D01*
X105346666Y-84907380D02*
X105013333Y-84431190D01*
X104775238Y-84907380D02*
X104775238Y-83907380D01*
X105156190Y-83907380D01*
X105251428Y-83955000D01*
X105299047Y-84002619D01*
X105346666Y-84097857D01*
X105346666Y-84240714D01*
X105299047Y-84335952D01*
X105251428Y-84383571D01*
X105156190Y-84431190D01*
X104775238Y-84431190D01*
X105775238Y-84383571D02*
X106108571Y-84383571D01*
X106251428Y-84907380D02*
X105775238Y-84907380D01*
X105775238Y-83907380D01*
X106251428Y-83907380D01*
X107013333Y-84383571D02*
X106680000Y-84383571D01*
X106680000Y-84907380D02*
X106680000Y-83907380D01*
X107156190Y-83907380D01*
X107680000Y-83907380D02*
X107680000Y-84145476D01*
X107441904Y-84050238D02*
X107680000Y-84145476D01*
X107918095Y-84050238D01*
X107537142Y-84335952D02*
X107680000Y-84145476D01*
X107822857Y-84335952D01*
X108441904Y-83907380D02*
X108441904Y-84145476D01*
X108203809Y-84050238D02*
X108441904Y-84145476D01*
X108680000Y-84050238D01*
X108299047Y-84335952D02*
X108441904Y-84145476D01*
X108584761Y-84335952D01*
X104711666Y-116022380D02*
X104378333Y-115546190D01*
X104140238Y-116022380D02*
X104140238Y-115022380D01*
X104521190Y-115022380D01*
X104616428Y-115070000D01*
X104664047Y-115117619D01*
X104711666Y-115212857D01*
X104711666Y-115355714D01*
X104664047Y-115450952D01*
X104616428Y-115498571D01*
X104521190Y-115546190D01*
X104140238Y-115546190D01*
X105140238Y-115498571D02*
X105473571Y-115498571D01*
X105616428Y-116022380D02*
X105140238Y-116022380D01*
X105140238Y-115022380D01*
X105616428Y-115022380D01*
X106378333Y-115498571D02*
X106045000Y-115498571D01*
X106045000Y-116022380D02*
X106045000Y-115022380D01*
X106521190Y-115022380D01*
X107045000Y-115022380D02*
X107045000Y-115260476D01*
X106806904Y-115165238D02*
X107045000Y-115260476D01*
X107283095Y-115165238D01*
X106902142Y-115450952D02*
X107045000Y-115260476D01*
X107187857Y-115450952D01*
X107806904Y-115022380D02*
X107806904Y-115260476D01*
X107568809Y-115165238D02*
X107806904Y-115260476D01*
X108045000Y-115165238D01*
X107664047Y-115450952D02*
X107806904Y-115260476D01*
X107949761Y-115450952D01*
X103441666Y-116657380D02*
X103108333Y-116181190D01*
X102870238Y-116657380D02*
X102870238Y-115657380D01*
X103251190Y-115657380D01*
X103346428Y-115705000D01*
X103394047Y-115752619D01*
X103441666Y-115847857D01*
X103441666Y-115990714D01*
X103394047Y-116085952D01*
X103346428Y-116133571D01*
X103251190Y-116181190D01*
X102870238Y-116181190D01*
X103870238Y-116133571D02*
X104203571Y-116133571D01*
X104346428Y-116657380D02*
X103870238Y-116657380D01*
X103870238Y-115657380D01*
X104346428Y-115657380D01*
X105108333Y-116133571D02*
X104775000Y-116133571D01*
X104775000Y-116657380D02*
X104775000Y-115657380D01*
X105251190Y-115657380D01*
X105775000Y-115657380D02*
X105775000Y-115895476D01*
X105536904Y-115800238D02*
X105775000Y-115895476D01*
X106013095Y-115800238D01*
X105632142Y-116085952D02*
X105775000Y-115895476D01*
X105917857Y-116085952D01*
X106536904Y-115657380D02*
X106536904Y-115895476D01*
X106298809Y-115800238D02*
X106536904Y-115895476D01*
X106775000Y-115800238D01*
X106394047Y-116085952D02*
X106536904Y-115895476D01*
X106679761Y-116085952D01*
X105981666Y-116657380D02*
X105648333Y-116181190D01*
X105410238Y-116657380D02*
X105410238Y-115657380D01*
X105791190Y-115657380D01*
X105886428Y-115705000D01*
X105934047Y-115752619D01*
X105981666Y-115847857D01*
X105981666Y-115990714D01*
X105934047Y-116085952D01*
X105886428Y-116133571D01*
X105791190Y-116181190D01*
X105410238Y-116181190D01*
X106410238Y-116133571D02*
X106743571Y-116133571D01*
X106886428Y-116657380D02*
X106410238Y-116657380D01*
X106410238Y-115657380D01*
X106886428Y-115657380D01*
X107648333Y-116133571D02*
X107315000Y-116133571D01*
X107315000Y-116657380D02*
X107315000Y-115657380D01*
X107791190Y-115657380D01*
X108315000Y-115657380D02*
X108315000Y-115895476D01*
X108076904Y-115800238D02*
X108315000Y-115895476D01*
X108553095Y-115800238D01*
X108172142Y-116085952D02*
X108315000Y-115895476D01*
X108457857Y-116085952D01*
X109076904Y-115657380D02*
X109076904Y-115895476D01*
X108838809Y-115800238D02*
X109076904Y-115895476D01*
X109315000Y-115800238D01*
X108934047Y-116085952D02*
X109076904Y-115895476D01*
X109219761Y-116085952D01*
X104711666Y-116657380D02*
X104378333Y-116181190D01*
X104140238Y-116657380D02*
X104140238Y-115657380D01*
X104521190Y-115657380D01*
X104616428Y-115705000D01*
X104664047Y-115752619D01*
X104711666Y-115847857D01*
X104711666Y-115990714D01*
X104664047Y-116085952D01*
X104616428Y-116133571D01*
X104521190Y-116181190D01*
X104140238Y-116181190D01*
X105140238Y-116133571D02*
X105473571Y-116133571D01*
X105616428Y-116657380D02*
X105140238Y-116657380D01*
X105140238Y-115657380D01*
X105616428Y-115657380D01*
X106378333Y-116133571D02*
X106045000Y-116133571D01*
X106045000Y-116657380D02*
X106045000Y-115657380D01*
X106521190Y-115657380D01*
X107045000Y-115657380D02*
X107045000Y-115895476D01*
X106806904Y-115800238D02*
X107045000Y-115895476D01*
X107283095Y-115800238D01*
X106902142Y-116085952D02*
X107045000Y-115895476D01*
X107187857Y-116085952D01*
X107806904Y-115657380D02*
X107806904Y-115895476D01*
X107568809Y-115800238D02*
X107806904Y-115895476D01*
X108045000Y-115800238D01*
X107664047Y-116085952D02*
X107806904Y-115895476D01*
X107949761Y-116085952D01*
X104711666Y-116657380D02*
X104378333Y-116181190D01*
X104140238Y-116657380D02*
X104140238Y-115657380D01*
X104521190Y-115657380D01*
X104616428Y-115705000D01*
X104664047Y-115752619D01*
X104711666Y-115847857D01*
X104711666Y-115990714D01*
X104664047Y-116085952D01*
X104616428Y-116133571D01*
X104521190Y-116181190D01*
X104140238Y-116181190D01*
X105140238Y-116133571D02*
X105473571Y-116133571D01*
X105616428Y-116657380D02*
X105140238Y-116657380D01*
X105140238Y-115657380D01*
X105616428Y-115657380D01*
X106378333Y-116133571D02*
X106045000Y-116133571D01*
X106045000Y-116657380D02*
X106045000Y-115657380D01*
X106521190Y-115657380D01*
X107045000Y-115657380D02*
X107045000Y-115895476D01*
X106806904Y-115800238D02*
X107045000Y-115895476D01*
X107283095Y-115800238D01*
X106902142Y-116085952D02*
X107045000Y-115895476D01*
X107187857Y-116085952D01*
X107806904Y-115657380D02*
X107806904Y-115895476D01*
X107568809Y-115800238D02*
X107806904Y-115895476D01*
X108045000Y-115800238D01*
X107664047Y-116085952D02*
X107806904Y-115895476D01*
X107949761Y-116085952D01*
G04 #@! TD*
M02*
