%TF.GenerationSoftware,KiCad,Pcbnew,6.0.4-1.fc35*%
%TF.CreationDate,2022-07-20T22:04:06-04:00*%
%TF.ProjectId,vccg,76636367-2e6b-4696-9361-645f70636258,rev?*%
%TF.SameCoordinates,Original*%
%TF.FileFunction,Copper,L1,Top*%
%TF.FilePolarity,Positive*%
%FSLAX46Y46*%
G04 Gerber Fmt 4.6, Leading zero omitted, Abs format (unit mm)*
G04 Created by KiCad (PCBNEW 6.0.4-1.fc35) date 2022-07-20 22:04:06*
%MOMM*%
%LPD*%
G01*
G04 APERTURE LIST*
G04 Aperture macros list*
%AMRoundRect*
0 Rectangle with rounded corners*
0 $1 Rounding radius*
0 $2 $3 $4 $5 $6 $7 $8 $9 X,Y pos of 4 corners*
0 Add a 4 corners polygon primitive as box body*
4,1,4,$2,$3,$4,$5,$6,$7,$8,$9,$2,$3,0*
0 Add four circle primitives for the rounded corners*
1,1,$1+$1,$2,$3*
1,1,$1+$1,$4,$5*
1,1,$1+$1,$6,$7*
1,1,$1+$1,$8,$9*
0 Add four rect primitives between the rounded corners*
20,1,$1+$1,$2,$3,$4,$5,0*
20,1,$1+$1,$4,$5,$6,$7,0*
20,1,$1+$1,$6,$7,$8,$9,0*
20,1,$1+$1,$8,$9,$2,$3,0*%
G04 Aperture macros list end*
%TA.AperFunction,SMDPad,CuDef*%
%ADD10RoundRect,0.150000X0.150000X-0.650000X0.150000X0.650000X-0.150000X0.650000X-0.150000X-0.650000X0*%
%TD*%
%TA.AperFunction,ComponentPad*%
%ADD11C,3.240000*%
%TD*%
%TA.AperFunction,ComponentPad*%
%ADD12R,1.800000X1.800000*%
%TD*%
%TA.AperFunction,ComponentPad*%
%ADD13C,1.800000*%
%TD*%
%TA.AperFunction,SMDPad,CuDef*%
%ADD14RoundRect,0.200000X-0.200000X-0.275000X0.200000X-0.275000X0.200000X0.275000X-0.200000X0.275000X0*%
%TD*%
%TA.AperFunction,SMDPad,CuDef*%
%ADD15RoundRect,0.225000X-0.225000X-0.250000X0.225000X-0.250000X0.225000X0.250000X-0.225000X0.250000X0*%
%TD*%
%TA.AperFunction,ComponentPad*%
%ADD16R,1.930000X1.830000*%
%TD*%
%TA.AperFunction,ComponentPad*%
%ADD17C,2.130000*%
%TD*%
%TA.AperFunction,SMDPad,CuDef*%
%ADD18R,0.300000X1.400000*%
%TD*%
%TA.AperFunction,SMDPad,CuDef*%
%ADD19RoundRect,0.150000X-0.825000X-0.150000X0.825000X-0.150000X0.825000X0.150000X-0.825000X0.150000X0*%
%TD*%
%TA.AperFunction,SMDPad,CuDef*%
%ADD20RoundRect,0.200000X0.200000X0.275000X-0.200000X0.275000X-0.200000X-0.275000X0.200000X-0.275000X0*%
%TD*%
%TA.AperFunction,SMDPad,CuDef*%
%ADD21RoundRect,0.225000X-0.250000X0.225000X-0.250000X-0.225000X0.250000X-0.225000X0.250000X0.225000X0*%
%TD*%
%TA.AperFunction,SMDPad,CuDef*%
%ADD22R,1.550000X1.300000*%
%TD*%
%TA.AperFunction,SMDPad,CuDef*%
%ADD23RoundRect,0.200000X-0.275000X0.200000X-0.275000X-0.200000X0.275000X-0.200000X0.275000X0.200000X0*%
%TD*%
%TA.AperFunction,ComponentPad*%
%ADD24R,1.700000X1.700000*%
%TD*%
%TA.AperFunction,ComponentPad*%
%ADD25O,1.700000X1.700000*%
%TD*%
%TA.AperFunction,SMDPad,CuDef*%
%ADD26RoundRect,0.250000X0.475000X-0.250000X0.475000X0.250000X-0.475000X0.250000X-0.475000X-0.250000X0*%
%TD*%
%TA.AperFunction,SMDPad,CuDef*%
%ADD27RoundRect,0.200000X0.275000X-0.200000X0.275000X0.200000X-0.275000X0.200000X-0.275000X-0.200000X0*%
%TD*%
%TA.AperFunction,SMDPad,CuDef*%
%ADD28RoundRect,0.237500X2.462500X-2.137500X2.462500X2.137500X-2.462500X2.137500X-2.462500X-2.137500X0*%
%TD*%
%TA.AperFunction,SMDPad,CuDef*%
%ADD29RoundRect,0.020000X-1.030000X-0.180000X1.030000X-0.180000X1.030000X0.180000X-1.030000X0.180000X0*%
%TD*%
%TA.AperFunction,ComponentPad*%
%ADD30O,2.150000X0.900000*%
%TD*%
%TA.AperFunction,SMDPad,CuDef*%
%ADD31RoundRect,0.050000X-0.450000X-0.600000X0.450000X-0.600000X0.450000X0.600000X-0.450000X0.600000X0*%
%TD*%
%TA.AperFunction,SMDPad,CuDef*%
%ADD32RoundRect,0.095000X-0.855000X-0.855000X0.855000X-0.855000X0.855000X0.855000X-0.855000X0.855000X0*%
%TD*%
%TA.AperFunction,SMDPad,CuDef*%
%ADD33R,1.800000X1.100000*%
%TD*%
%TA.AperFunction,SMDPad,CuDef*%
%ADD34RoundRect,0.218750X-0.218750X-0.256250X0.218750X-0.256250X0.218750X0.256250X-0.218750X0.256250X0*%
%TD*%
%TA.AperFunction,SMDPad,CuDef*%
%ADD35RoundRect,0.225000X0.250000X-0.225000X0.250000X0.225000X-0.250000X0.225000X-0.250000X-0.225000X0*%
%TD*%
%TA.AperFunction,SMDPad,CuDef*%
%ADD36R,1.400000X1.200000*%
%TD*%
%TA.AperFunction,SMDPad,CuDef*%
%ADD37R,0.900000X1.200000*%
%TD*%
%TA.AperFunction,SMDPad,CuDef*%
%ADD38RoundRect,0.225000X0.225000X0.250000X-0.225000X0.250000X-0.225000X-0.250000X0.225000X-0.250000X0*%
%TD*%
%TA.AperFunction,SMDPad,CuDef*%
%ADD39RoundRect,0.250000X1.500000X0.550000X-1.500000X0.550000X-1.500000X-0.550000X1.500000X-0.550000X0*%
%TD*%
%TA.AperFunction,SMDPad,CuDef*%
%ADD40R,1.200000X0.900000*%
%TD*%
%TA.AperFunction,SMDPad,CuDef*%
%ADD41RoundRect,0.150000X0.825000X0.150000X-0.825000X0.150000X-0.825000X-0.150000X0.825000X-0.150000X0*%
%TD*%
%TA.AperFunction,SMDPad,CuDef*%
%ADD42RoundRect,0.150000X-0.150000X0.587500X-0.150000X-0.587500X0.150000X-0.587500X0.150000X0.587500X0*%
%TD*%
%TA.AperFunction,SMDPad,CuDef*%
%ADD43RoundRect,0.050000X-0.387500X-0.050000X0.387500X-0.050000X0.387500X0.050000X-0.387500X0.050000X0*%
%TD*%
%TA.AperFunction,SMDPad,CuDef*%
%ADD44RoundRect,0.050000X-0.050000X-0.387500X0.050000X-0.387500X0.050000X0.387500X-0.050000X0.387500X0*%
%TD*%
%TA.AperFunction,SMDPad,CuDef*%
%ADD45R,5.600000X5.600000*%
%TD*%
%TA.AperFunction,ViaPad*%
%ADD46C,0.800000*%
%TD*%
%TA.AperFunction,Conductor*%
%ADD47C,0.508000*%
%TD*%
%TA.AperFunction,Conductor*%
%ADD48C,0.762000*%
%TD*%
%TA.AperFunction,Conductor*%
%ADD49C,0.200000*%
%TD*%
%TA.AperFunction,Conductor*%
%ADD50C,0.254000*%
%TD*%
%TA.AperFunction,Conductor*%
%ADD51C,0.250000*%
%TD*%
G04 APERTURE END LIST*
D10*
%TO.P,U3,1,/CS*%
%TO.N,QSPI_SS*%
X186030000Y-78180000D03*
%TO.P,U3,2,DO_IO1*%
%TO.N,QSPI_SD1*%
X187300000Y-78180000D03*
%TO.P,U3,3,/WP_IO2*%
%TO.N,QSPI_SD2*%
X188570000Y-78180000D03*
%TO.P,U3,4,GND*%
%TO.N,GND*%
X189840000Y-78180000D03*
%TO.P,U3,5,DI_IO0*%
%TO.N,QSPI_SD0*%
X189840000Y-70980000D03*
%TO.P,U3,6,CLK*%
%TO.N,QSPI_CLK*%
X188570000Y-70980000D03*
%TO.P,U3,7,/HOLD_IO3*%
%TO.N,QSPI_SD3*%
X187300000Y-70980000D03*
%TO.P,U3,8,VCC*%
%TO.N,+3V3*%
X186030000Y-70980000D03*
%TD*%
D11*
%TO.P,RV2,*%
%TO.N,*%
X179959600Y-44534600D03*
X189559600Y-44534600D03*
D12*
%TO.P,RV2,1,1*%
%TO.N,GND*%
X182259600Y-52034600D03*
D13*
%TO.P,RV2,2,2*%
%TO.N,Net-(RV2-Pad2)*%
X184759600Y-52034600D03*
%TO.P,RV2,3,3*%
%TO.N,Net-(J2-PadT)*%
X187259600Y-52034600D03*
%TD*%
D14*
%TO.P,R23,1*%
%TO.N,Net-(J11-PadT)*%
X178650000Y-111650000D03*
%TO.P,R23,2*%
%TO.N,Net-(R19-Pad1)*%
X180300000Y-111650000D03*
%TD*%
%TO.P,R6,1*%
%TO.N,GND*%
X214600000Y-70875000D03*
%TO.P,R6,2*%
%TO.N,key_up*%
X216250000Y-70875000D03*
%TD*%
D15*
%TO.P,C1,1*%
%TO.N,+3V3*%
X206707100Y-85599800D03*
%TO.P,C1,2*%
%TO.N,GND*%
X208257100Y-85599800D03*
%TD*%
D14*
%TO.P,R4,1*%
%TO.N,Net-(D1-Pad1)*%
X225900000Y-40150000D03*
%TO.P,R4,2*%
%TO.N,Net-(J4-PadT)*%
X227550000Y-40150000D03*
%TD*%
D16*
%TO.P,J3,S*%
%TO.N,GND*%
X203200000Y-26200000D03*
D17*
%TO.P,J3,T*%
%TO.N,Net-(J3-PadT)*%
X203200000Y-37600000D03*
%TO.P,J3,TN*%
%TO.N,unconnected-(J3-PadTN)*%
X203200000Y-29300000D03*
%TD*%
D16*
%TO.P,J10,S*%
%TO.N,GND*%
X203200000Y-114020000D03*
D17*
%TO.P,J10,T*%
%TO.N,Net-(J10-PadT)*%
X203200000Y-125420000D03*
%TO.P,J10,TN*%
%TO.N,unconnected-(J10-PadTN)*%
X203200000Y-117120000D03*
%TD*%
D18*
%TO.P,U6,1,VDD*%
%TO.N,+3V3*%
X194040000Y-82940800D03*
%TO.P,U6,2,SCL*%
%TO.N,SCL0*%
X193540000Y-82940800D03*
%TO.P,U6,3,SDA*%
%TO.N,SDA0*%
X193040000Y-82940800D03*
%TO.P,U6,4,~{LDAC}*%
%TO.N,unconnected-(U6-Pad4)*%
X192540000Y-82940800D03*
%TO.P,U6,5,RDY/~{BSY}*%
%TO.N,unconnected-(U6-Pad5)*%
X192040000Y-82940800D03*
%TO.P,U6,6,VOUTA*%
%TO.N,root*%
X192040000Y-87340800D03*
%TO.P,U6,7,VOUTB*%
%TO.N,chord1*%
X192540000Y-87340800D03*
%TO.P,U6,8,VOUTC*%
%TO.N,chord2*%
X193040000Y-87340800D03*
%TO.P,U6,9,VOUTD*%
%TO.N,quant*%
X193540000Y-87340800D03*
%TO.P,U6,10,VSS*%
%TO.N,GND*%
X194040000Y-87340800D03*
%TD*%
D14*
%TO.P,R32,1*%
%TO.N,QSPI_SS*%
X184975000Y-63600000D03*
%TO.P,R32,2*%
%TO.N,Net-(R32-Pad2)*%
X186625000Y-63600000D03*
%TD*%
D19*
%TO.P,U7,1*%
%TO.N,Net-(R19-Pad1)*%
X216575000Y-98045000D03*
%TO.P,U7,2,-*%
%TO.N,Net-(R15-Pad1)*%
X216575000Y-99315000D03*
%TO.P,U7,3,+*%
%TO.N,root*%
X216575000Y-100585000D03*
%TO.P,U7,4,V-*%
%TO.N,GND*%
X216575000Y-101855000D03*
%TO.P,U7,5,+*%
%TO.N,chord1*%
X221525000Y-101855000D03*
%TO.P,U7,6,-*%
%TO.N,Net-(R16-Pad1)*%
X221525000Y-100585000D03*
%TO.P,U7,7*%
%TO.N,Net-(R20-Pad1)*%
X221525000Y-99315000D03*
%TO.P,U7,8,V+*%
%TO.N,+12V*%
X221525000Y-98045000D03*
%TD*%
D20*
%TO.P,R15,1*%
%TO.N,Net-(R15-Pad1)*%
X214625000Y-99300000D03*
%TO.P,R15,2*%
%TO.N,GND*%
X212975000Y-99300000D03*
%TD*%
D19*
%TO.P,U2,8,V+*%
%TO.N,+3V3*%
X211330000Y-55930000D03*
%TO.P,U2,7*%
%TO.N,Net-(U2-Pad6)*%
X211330000Y-57200000D03*
%TO.P,U2,6,-*%
X211330000Y-58470000D03*
%TO.P,U2,5,+*%
%TO.N,GND*%
X211330000Y-59740000D03*
%TO.P,U2,4,V-*%
X206380000Y-59740000D03*
%TO.P,U2,3,+*%
%TO.N,Net-(J3-PadT)*%
X206380000Y-58470000D03*
%TO.P,U2,2,-*%
%TO.N,melody*%
X206380000Y-57200000D03*
%TO.P,U2,1*%
X206380000Y-55930000D03*
%TD*%
D16*
%TO.P,J11,S*%
%TO.N,GND*%
X183000000Y-114020000D03*
D17*
%TO.P,J11,T*%
%TO.N,Net-(J11-PadT)*%
X183000000Y-125420000D03*
%TO.P,J11,TN*%
%TO.N,unconnected-(J11-PadTN)*%
X183000000Y-117120000D03*
%TD*%
D21*
%TO.P,C7,2*%
%TO.N,GND*%
X199200000Y-81270000D03*
%TO.P,C7,1*%
%TO.N,+3V3*%
X199200000Y-79720000D03*
%TD*%
D22*
%TO.P,SW1,1,A*%
%TO.N,Net-(R1-Pad1)*%
X227050000Y-66228400D03*
X219090000Y-66228400D03*
%TO.P,SW1,2,B*%
%TO.N,key_up*%
X219090000Y-70728400D03*
X227050000Y-70728400D03*
%TD*%
D23*
%TO.P,R20,1*%
%TO.N,Net-(R20-Pad1)*%
X224175000Y-98775000D03*
%TO.P,R20,2*%
%TO.N,Net-(R16-Pad1)*%
X224175000Y-100425000D03*
%TD*%
D24*
%TO.P,J6,1,Pin_1*%
%TO.N,+12V*%
X184975000Y-95295000D03*
D25*
%TO.P,J6,2,Pin_2*%
X182435000Y-95295000D03*
%TO.P,J6,3,Pin_3*%
%TO.N,GND*%
X184975000Y-97835000D03*
%TO.P,J6,4,Pin_4*%
X182435000Y-97835000D03*
%TO.P,J6,5,Pin_5*%
X184975000Y-100375000D03*
%TO.P,J6,6,Pin_6*%
X182435000Y-100375000D03*
%TO.P,J6,7,Pin_7*%
X184975000Y-102915000D03*
%TO.P,J6,8,Pin_8*%
X182435000Y-102915000D03*
%TO.P,J6,9,Pin_9*%
%TO.N,-12V*%
X184975000Y-105455000D03*
%TO.P,J6,10,Pin_10*%
X182435000Y-105455000D03*
%TD*%
D16*
%TO.P,J2,S*%
%TO.N,GND*%
X183000000Y-26200000D03*
D17*
%TO.P,J2,T*%
%TO.N,Net-(J2-PadT)*%
X183000000Y-37600000D03*
%TO.P,J2,TN*%
%TO.N,Net-(J2-PadTN)*%
X183000000Y-29300000D03*
%TD*%
D14*
%TO.P,R11,1*%
%TO.N,XOUT*%
X203584500Y-85599800D03*
%TO.P,R11,2*%
%TO.N,Net-(C20-Pad1)*%
X205234500Y-85599800D03*
%TD*%
D26*
%TO.P,C12,1*%
%TO.N,+3V3*%
X187875000Y-68105000D03*
%TO.P,C12,2*%
%TO.N,GND*%
X187875000Y-66205000D03*
%TD*%
D24*
%TO.P,J7,1,Pin_1*%
%TO.N,SDIO*%
X211055000Y-88260000D03*
D25*
%TO.P,J7,2,Pin_2*%
%TO.N,GND*%
X213595000Y-88260000D03*
%TO.P,J7,3,Pin_3*%
%TO.N,SWCLK*%
X216135000Y-88260000D03*
%TD*%
D20*
%TO.P,R27,1*%
%TO.N,SDA1*%
X196900000Y-75350000D03*
%TO.P,R27,2*%
%TO.N,+3V3*%
X195250000Y-75350000D03*
%TD*%
D23*
%TO.P,R3,1*%
%TO.N,Net-(J2-PadTN)*%
X189900000Y-54200000D03*
%TO.P,R3,2*%
%TO.N,+3V3*%
X189900000Y-55850000D03*
%TD*%
D19*
%TO.P,U8,1*%
%TO.N,Net-(R21-Pad1)*%
X216575000Y-91195000D03*
%TO.P,U8,2,-*%
%TO.N,Net-(R17-Pad1)*%
X216575000Y-92465000D03*
%TO.P,U8,3,+*%
%TO.N,chord2*%
X216575000Y-93735000D03*
%TO.P,U8,4,V-*%
%TO.N,GND*%
X216575000Y-95005000D03*
%TO.P,U8,5,+*%
%TO.N,quant*%
X221525000Y-95005000D03*
%TO.P,U8,6,-*%
%TO.N,Net-(R18-Pad1)*%
X221525000Y-93735000D03*
%TO.P,U8,7*%
%TO.N,Net-(R22-Pad1)*%
X221525000Y-92465000D03*
%TO.P,U8,8,V+*%
%TO.N,+12V*%
X221525000Y-91195000D03*
%TD*%
D27*
%TO.P,R10,1*%
%TO.N,chordClock*%
X217580000Y-43530000D03*
%TO.P,R10,2*%
%TO.N,+3V3*%
X217580000Y-41880000D03*
%TD*%
D28*
%TO.P,L1,1,1*%
%TO.N,+3V3*%
X199775000Y-104300000D03*
%TO.P,L1,2,2*%
%TO.N,Net-(D3-Pad1)*%
X208625000Y-104300000D03*
%TD*%
D29*
%TO.P,J8,1,VBUS*%
%TO.N,Net-(D5-Pad2)*%
X182245000Y-83180400D03*
%TO.P,J8,2,D-*%
%TO.N,USB_D-*%
X182245000Y-83830400D03*
%TO.P,J8,3,D+*%
%TO.N,USB_D+*%
X182245000Y-84480400D03*
%TO.P,J8,4,ID*%
%TO.N,unconnected-(J8-Pad4)*%
X182245000Y-85130400D03*
%TO.P,J8,5,GND*%
%TO.N,GND*%
X182245000Y-85780400D03*
D30*
%TO.P,J8,6,Shield*%
X179295000Y-87305400D03*
D31*
X181545000Y-81280400D03*
D32*
X179295000Y-83330400D03*
X179295000Y-85630400D03*
D30*
X179295000Y-81655400D03*
D31*
X181545000Y-87680400D03*
%TD*%
D33*
%TO.P,SW4,1,A*%
%TO.N,GND*%
X186361000Y-57179600D03*
X180161000Y-57179600D03*
%TO.P,SW4,2,B*%
%TO.N,Net-(R32-Pad2)*%
X180161000Y-60879600D03*
X186361000Y-60879600D03*
%TD*%
D27*
%TO.P,R16,1*%
%TO.N,Net-(R16-Pad1)*%
X225775000Y-100400000D03*
%TO.P,R16,2*%
%TO.N,GND*%
X225775000Y-98750000D03*
%TD*%
D14*
%TO.P,R29,1*%
%TO.N,SCL0*%
X196825000Y-82825000D03*
%TO.P,R29,2*%
%TO.N,+3V3*%
X198475000Y-82825000D03*
%TD*%
D34*
%TO.P,D4,1,K*%
%TO.N,GND*%
X211025000Y-73700000D03*
%TO.P,D4,2,A*%
%TO.N,Net-(D4-Pad2)*%
X212600000Y-73700000D03*
%TD*%
D35*
%TO.P,C11,1*%
%TO.N,+3V3*%
X194081400Y-80861200D03*
%TO.P,C11,2*%
%TO.N,GND*%
X194081400Y-79311200D03*
%TD*%
D27*
%TO.P,R18,1*%
%TO.N,Net-(R18-Pad1)*%
X225500000Y-93950000D03*
%TO.P,R18,2*%
%TO.N,GND*%
X225500000Y-92300000D03*
%TD*%
D14*
%TO.P,R24,1*%
%TO.N,Net-(J12-PadT)*%
X188775000Y-111700000D03*
%TO.P,R24,2*%
%TO.N,Net-(R20-Pad1)*%
X190425000Y-111700000D03*
%TD*%
D35*
%TO.P,C13,1*%
%TO.N,+3V3*%
X189725000Y-68080000D03*
%TO.P,C13,2*%
%TO.N,GND*%
X189725000Y-66530000D03*
%TD*%
D14*
%TO.P,R8,1*%
%TO.N,GND*%
X215650000Y-78200000D03*
%TO.P,R8,2*%
%TO.N,is_minor*%
X217300000Y-78200000D03*
%TD*%
D22*
%TO.P,SW3,1,A*%
%TO.N,Net-(R1-Pad1)*%
X227100000Y-73700000D03*
X219140000Y-73700000D03*
%TO.P,SW3,2,B*%
%TO.N,is_minor*%
X219140000Y-78200000D03*
X227100000Y-78200000D03*
%TD*%
D26*
%TO.P,C8,1*%
%TO.N,+12V*%
X184900000Y-92650000D03*
%TO.P,C8,2*%
%TO.N,GND*%
X184900000Y-90750000D03*
%TD*%
D35*
%TO.P,C3,2*%
%TO.N,GND*%
X204956000Y-68120000D03*
%TO.P,C3,1*%
%TO.N,+3V3*%
X204956000Y-69670000D03*
%TD*%
D15*
%TO.P,C2,1*%
%TO.N,+3V3*%
X211880000Y-78840000D03*
%TO.P,C2,2*%
%TO.N,GND*%
X213430000Y-78840000D03*
%TD*%
D26*
%TO.P,C9,1*%
%TO.N,GND*%
X182664800Y-110037400D03*
%TO.P,C9,2*%
%TO.N,-12V*%
X182664800Y-108137400D03*
%TD*%
D14*
%TO.P,R5,1*%
%TO.N,Net-(D2-Pad1)*%
X216000000Y-40100000D03*
%TO.P,R5,2*%
%TO.N,Net-(J5-PadT)*%
X217650000Y-40100000D03*
%TD*%
D35*
%TO.P,C10,1*%
%TO.N,+3V3*%
X186055000Y-68138600D03*
%TO.P,C10,2*%
%TO.N,GND*%
X186055000Y-66588600D03*
%TD*%
D36*
%TO.P,Y1,1,1*%
%TO.N,XIN*%
X201815300Y-88900000D03*
%TO.P,Y1,2,2*%
%TO.N,GND*%
X204015300Y-88900000D03*
%TO.P,Y1,3,3*%
%TO.N,Net-(C20-Pad1)*%
X204015300Y-87200000D03*
%TO.P,Y1,4,4*%
%TO.N,GND*%
X201815300Y-87200000D03*
%TD*%
D35*
%TO.P,C15,1*%
%TO.N,+1V1*%
X203432000Y-69670000D03*
%TO.P,C15,2*%
%TO.N,GND*%
X203432000Y-68120000D03*
%TD*%
%TO.P,C5,1*%
%TO.N,+12V*%
X182425000Y-92625000D03*
%TO.P,C5,2*%
%TO.N,GND*%
X182425000Y-91075000D03*
%TD*%
D14*
%TO.P,R14,1*%
%TO.N,GND*%
X184750000Y-85350000D03*
%TO.P,R14,2*%
%TO.N,GPIO_24*%
X186400000Y-85350000D03*
%TD*%
D35*
%TO.P,C14,1*%
%TO.N,XIN*%
X199925900Y-88813200D03*
%TO.P,C14,2*%
%TO.N,GND*%
X199925900Y-87263200D03*
%TD*%
D24*
%TO.P,J9,1,Pin_1*%
%TO.N,SDA1*%
X206451200Y-64439800D03*
D25*
%TO.P,J9,2,Pin_2*%
%TO.N,SCL1*%
X203911200Y-64439800D03*
%TO.P,J9,3,Pin_3*%
%TO.N,+3V3*%
X201371200Y-64439800D03*
%TO.P,J9,4,Pin_4*%
%TO.N,GND*%
X198831200Y-64439800D03*
%TD*%
D17*
%TO.P,J5,TN*%
%TO.N,defaultClock*%
X213300000Y-29320000D03*
%TO.P,J5,T*%
%TO.N,Net-(J5-PadT)*%
X213300000Y-37620000D03*
D16*
%TO.P,J5,S*%
%TO.N,GND*%
X213300000Y-26220000D03*
%TD*%
D35*
%TO.P,C6,1*%
%TO.N,GND*%
X184900000Y-109850000D03*
%TO.P,C6,2*%
%TO.N,-12V*%
X184900000Y-108300000D03*
%TD*%
D20*
%TO.P,R12,2*%
%TO.N,defaultClock*%
X210962500Y-75300000D03*
%TO.P,R12,1*%
%TO.N,Net-(D4-Pad2)*%
X212612500Y-75300000D03*
%TD*%
D16*
%TO.P,J13,S*%
%TO.N,GND*%
X213300000Y-114020000D03*
D17*
%TO.P,J13,T*%
%TO.N,Net-(J13-PadT)*%
X213300000Y-125420000D03*
%TO.P,J13,TN*%
%TO.N,unconnected-(J13-PadTN)*%
X213300000Y-117120000D03*
%TD*%
D20*
%TO.P,R28,1*%
%TO.N,SCL1*%
X196900000Y-76900000D03*
%TO.P,R28,2*%
%TO.N,+3V3*%
X195250000Y-76900000D03*
%TD*%
D19*
%TO.P,U5,1,VIN*%
%TO.N,+12V*%
X192000000Y-95270000D03*
%TO.P,U5,2,OUTPUT*%
%TO.N,Net-(D3-Pad1)*%
X192000000Y-96540000D03*
%TO.P,U5,3,FEEDBACK*%
%TO.N,+3V3*%
X192000000Y-97810000D03*
%TO.P,U5,4,ON/OFF*%
%TO.N,GND*%
X192000000Y-99080000D03*
%TO.P,U5,5,GND*%
X196950000Y-99080000D03*
%TO.P,U5,6,GND*%
X196950000Y-97810000D03*
%TO.P,U5,7,GND*%
X196950000Y-96540000D03*
%TO.P,U5,8,GND*%
X196950000Y-95270000D03*
%TD*%
D14*
%TO.P,R26,1*%
%TO.N,Net-(J13-PadT)*%
X209025000Y-111775000D03*
%TO.P,R26,2*%
%TO.N,Net-(R22-Pad1)*%
X210675000Y-111775000D03*
%TD*%
D35*
%TO.P,C4,1*%
%TO.N,+3V3*%
X199059800Y-74409600D03*
%TO.P,C4,2*%
%TO.N,GND*%
X199059800Y-72859600D03*
%TD*%
D37*
%TO.P,D5,1,K*%
%TO.N,+12V*%
X179452000Y-77597000D03*
%TO.P,D5,2,A*%
%TO.N,Net-(D5-Pad2)*%
X182752000Y-77597000D03*
%TD*%
D34*
%TO.P,D6,1,K*%
%TO.N,GND*%
X222587500Y-116175000D03*
%TO.P,D6,2,A*%
%TO.N,Net-(D6-Pad2)*%
X224162500Y-116175000D03*
%TD*%
D38*
%TO.P,C18,1*%
%TO.N,+3V3*%
X193000000Y-93600000D03*
%TO.P,C18,2*%
%TO.N,GND*%
X191450000Y-93600000D03*
%TD*%
D39*
%TO.P,C19,1*%
%TO.N,+3V3*%
X194500000Y-104925000D03*
%TO.P,C19,2*%
%TO.N,GND*%
X189100000Y-104925000D03*
%TD*%
D20*
%TO.P,R19,1*%
%TO.N,Net-(R19-Pad1)*%
X214625000Y-97750000D03*
%TO.P,R19,2*%
%TO.N,Net-(R15-Pad1)*%
X212975000Y-97750000D03*
%TD*%
%TO.P,R21,1*%
%TO.N,Net-(R21-Pad1)*%
X214425000Y-91140000D03*
%TO.P,R21,2*%
%TO.N,Net-(R17-Pad1)*%
X212775000Y-91140000D03*
%TD*%
D40*
%TO.P,D3,1,K*%
%TO.N,Net-(D3-Pad1)*%
X189200000Y-96550000D03*
%TO.P,D3,2,A*%
%TO.N,GND*%
X189200000Y-99850000D03*
%TD*%
D41*
%TO.P,U1,1*%
%TO.N,chord*%
X201905000Y-59835000D03*
%TO.P,U1,2,-*%
X201905000Y-58565000D03*
%TO.P,U1,3,+*%
%TO.N,Net-(RV1-Pad2)*%
X201905000Y-57295000D03*
%TO.P,U1,4,V-*%
%TO.N,GND*%
X201905000Y-56025000D03*
%TO.P,U1,5,+*%
%TO.N,Net-(RV2-Pad2)*%
X196955000Y-56025000D03*
%TO.P,U1,6,-*%
%TO.N,octave*%
X196955000Y-57295000D03*
%TO.P,U1,7*%
X196955000Y-58565000D03*
%TO.P,U1,8,V+*%
%TO.N,+3V3*%
X196955000Y-59835000D03*
%TD*%
D35*
%TO.P,C16,2*%
%TO.N,GND*%
X206480000Y-68120000D03*
%TO.P,C16,1*%
%TO.N,+1V1*%
X206480000Y-69670000D03*
%TD*%
D42*
%TO.P,Q1,1,B*%
%TO.N,Net-(D1-Pad1)*%
X224175000Y-42962500D03*
%TO.P,Q1,2,E*%
%TO.N,GND*%
X222275000Y-42962500D03*
%TO.P,Q1,3,C*%
%TO.N,melodyClock*%
X223225000Y-44837500D03*
%TD*%
D17*
%TO.P,J4,TN*%
%TO.N,defaultClock*%
X223400000Y-29300000D03*
%TO.P,J4,T*%
%TO.N,Net-(J4-PadT)*%
X223400000Y-37600000D03*
D16*
%TO.P,J4,S*%
%TO.N,GND*%
X223400000Y-26200000D03*
%TD*%
D14*
%TO.P,R25,1*%
%TO.N,Net-(J10-PadT)*%
X198850000Y-111750000D03*
%TO.P,R25,2*%
%TO.N,Net-(R21-Pad1)*%
X200500000Y-111750000D03*
%TD*%
%TO.P,R7,1*%
%TO.N,GND*%
X214175000Y-85550000D03*
%TO.P,R7,2*%
%TO.N,key_down*%
X215825000Y-85550000D03*
%TD*%
D22*
%TO.P,SW2,1,A*%
%TO.N,Net-(R1-Pad1)*%
X227050000Y-81300000D03*
X219090000Y-81300000D03*
%TO.P,SW2,2,B*%
%TO.N,key_down*%
X227050000Y-85800000D03*
X219090000Y-85800000D03*
%TD*%
D21*
%TO.P,C20,1*%
%TO.N,Net-(C20-Pad1)*%
X205869500Y-87339400D03*
%TO.P,C20,2*%
%TO.N,GND*%
X205869500Y-88889400D03*
%TD*%
D11*
%TO.P,RV1,*%
%TO.N,*%
X204429400Y-44595400D03*
X194829400Y-44595400D03*
D12*
%TO.P,RV1,1,1*%
%TO.N,GND*%
X197129400Y-52095400D03*
D13*
%TO.P,RV1,2,2*%
%TO.N,Net-(RV1-Pad2)*%
X199629400Y-52095400D03*
%TO.P,RV1,3,3*%
%TO.N,Net-(J1-PadT)*%
X202129400Y-52095400D03*
%TD*%
D42*
%TO.P,Q2,1,B*%
%TO.N,Net-(D2-Pad1)*%
X214470000Y-42972500D03*
%TO.P,Q2,2,E*%
%TO.N,GND*%
X212570000Y-42972500D03*
%TO.P,Q2,3,C*%
%TO.N,chordClock*%
X213520000Y-44847500D03*
%TD*%
D20*
%TO.P,R17,1*%
%TO.N,Net-(R17-Pad1)*%
X214425000Y-92690000D03*
%TO.P,R17,2*%
%TO.N,GND*%
X212775000Y-92690000D03*
%TD*%
%TO.P,R13,1*%
%TO.N,GPIO_24*%
X186830000Y-81320000D03*
%TO.P,R13,2*%
%TO.N,Net-(D5-Pad2)*%
X185180000Y-81320000D03*
%TD*%
D23*
%TO.P,R2,1*%
%TO.N,Net-(J1-PadTN)*%
X191475000Y-54200000D03*
%TO.P,R2,2*%
%TO.N,+3V3*%
X191475000Y-55850000D03*
%TD*%
D27*
%TO.P,R9,1*%
%TO.N,melodyClock*%
X226225000Y-45300000D03*
%TO.P,R9,2*%
%TO.N,+3V3*%
X226225000Y-43650000D03*
%TD*%
D37*
%TO.P,D1,2,A*%
%TO.N,GND*%
X220975000Y-40575000D03*
%TO.P,D1,1,K*%
%TO.N,Net-(D1-Pad1)*%
X224275000Y-40575000D03*
%TD*%
D43*
%TO.P,U4,1,IOVDD*%
%TO.N,+3V3*%
X200676900Y-75251000D03*
%TO.P,U4,2,GPIO0*%
%TO.N,SDA1*%
X200676900Y-75651000D03*
%TO.P,U4,3,GPIO1*%
%TO.N,SCL1*%
X200676900Y-76051000D03*
%TO.P,U4,4,GPIO2*%
%TO.N,unconnected-(U4-Pad4)*%
X200676900Y-76451000D03*
%TO.P,U4,5,GPIO3*%
%TO.N,unconnected-(U4-Pad5)*%
X200676900Y-76851000D03*
%TO.P,U4,6,GPIO4*%
%TO.N,unconnected-(U4-Pad6)*%
X200676900Y-77251000D03*
%TO.P,U4,7,GPIO5*%
%TO.N,unconnected-(U4-Pad7)*%
X200676900Y-77651000D03*
%TO.P,U4,8,GPIO6*%
%TO.N,SDA0*%
X200676900Y-78051000D03*
%TO.P,U4,9,GPIO7*%
%TO.N,SCL0*%
X200676900Y-78451000D03*
%TO.P,U4,10,IOVDD*%
%TO.N,+3V3*%
X200676900Y-78851000D03*
%TO.P,U4,11,GPIO8*%
%TO.N,unconnected-(U4-Pad11)*%
X200676900Y-79251000D03*
%TO.P,U4,12,GPIO9*%
%TO.N,unconnected-(U4-Pad12)*%
X200676900Y-79651000D03*
%TO.P,U4,13,GPIO10*%
%TO.N,unconnected-(U4-Pad13)*%
X200676900Y-80051000D03*
%TO.P,U4,14,GPIO11*%
%TO.N,unconnected-(U4-Pad14)*%
X200676900Y-80451000D03*
D44*
%TO.P,U4,15,GPIO12*%
%TO.N,unconnected-(U4-Pad15)*%
X201514400Y-81288500D03*
%TO.P,U4,16,GPIO13*%
%TO.N,unconnected-(U4-Pad16)*%
X201914400Y-81288500D03*
%TO.P,U4,17,GPIO14*%
%TO.N,unconnected-(U4-Pad17)*%
X202314400Y-81288500D03*
%TO.P,U4,18,GPIO15*%
%TO.N,unconnected-(U4-Pad18)*%
X202714400Y-81288500D03*
%TO.P,U4,19,TESTEN*%
%TO.N,unconnected-(U4-Pad19)*%
X203114400Y-81288500D03*
%TO.P,U4,20,XIN*%
%TO.N,XIN*%
X203514400Y-81288500D03*
%TO.P,U4,21,XOUT*%
%TO.N,XOUT*%
X203914400Y-81288500D03*
%TO.P,U4,22,IOVDD*%
%TO.N,+3V3*%
X204314400Y-81288500D03*
%TO.P,U4,23,DVDD*%
%TO.N,+1V1*%
X204714400Y-81288500D03*
%TO.P,U4,24,SWCLK*%
%TO.N,SWCLK*%
X205114400Y-81288500D03*
%TO.P,U4,25,SWDIO*%
%TO.N,SDIO*%
X205514400Y-81288500D03*
%TO.P,U4,26,RUN*%
%TO.N,unconnected-(U4-Pad26)*%
X205914400Y-81288500D03*
%TO.P,U4,27,GPIO16*%
%TO.N,unconnected-(U4-Pad27)*%
X206314400Y-81288500D03*
%TO.P,U4,28,GPIO17*%
%TO.N,unconnected-(U4-Pad28)*%
X206714400Y-81288500D03*
D43*
%TO.P,U4,29,GPIO18*%
%TO.N,key_down*%
X207551900Y-80451000D03*
%TO.P,U4,30,GPIO19*%
%TO.N,is_minor*%
X207551900Y-80051000D03*
%TO.P,U4,31,GPIO20*%
%TO.N,key_up*%
X207551900Y-79651000D03*
%TO.P,U4,32,GPIO21*%
%TO.N,unconnected-(U4-Pad32)*%
X207551900Y-79251000D03*
%TO.P,U4,33,IOVDD*%
%TO.N,+3V3*%
X207551900Y-78851000D03*
%TO.P,U4,34,GPIO22*%
%TO.N,chordClock*%
X207551900Y-78451000D03*
%TO.P,U4,35,GPIO23*%
%TO.N,melodyClock*%
X207551900Y-78051000D03*
%TO.P,U4,36,GPIO24*%
%TO.N,GPIO_24*%
X207551900Y-77651000D03*
%TO.P,U4,37,GPIO25*%
%TO.N,defaultClock*%
X207551900Y-77251000D03*
%TO.P,U4,38,GPIO26_ADC0*%
%TO.N,chord*%
X207551900Y-76851000D03*
%TO.P,U4,39,GPIO27_ADC1*%
%TO.N,octave*%
X207551900Y-76451000D03*
%TO.P,U4,40,GPIO28_ADC2*%
%TO.N,melody*%
X207551900Y-76051000D03*
%TO.P,U4,41,GPIO29_ADC3*%
%TO.N,unconnected-(U4-Pad41)*%
X207551900Y-75651000D03*
%TO.P,U4,42,IOVDD*%
%TO.N,unconnected-(U4-Pad42)*%
X207551900Y-75251000D03*
D44*
%TO.P,U4,43,ADC_AVDD*%
%TO.N,unconnected-(U4-Pad43)*%
X206714400Y-74413500D03*
%TO.P,U4,44,VREG_VIN*%
%TO.N,unconnected-(U4-Pad44)*%
X206314400Y-74413500D03*
%TO.P,U4,45,VREG_VOUT*%
%TO.N,+1V1*%
X205914400Y-74413500D03*
%TO.P,U4,46,USB_D-*%
%TO.N,USB_D-*%
X205514400Y-74413500D03*
%TO.P,U4,47,USB_D+*%
%TO.N,USB_D+*%
X205114400Y-74413500D03*
%TO.P,U4,48,USBVDD*%
%TO.N,unconnected-(U4-Pad48)*%
X204714400Y-74413500D03*
%TO.P,U4,49,IOVDD*%
%TO.N,+3V3*%
X204314400Y-74413500D03*
%TO.P,U4,50,DVDD*%
%TO.N,+1V1*%
X203914400Y-74413500D03*
%TO.P,U4,51,QSPI_SD3*%
%TO.N,QSPI_SD3*%
X203514400Y-74413500D03*
%TO.P,U4,52,QSPI_SCLK*%
%TO.N,QSPI_CLK*%
X203114400Y-74413500D03*
%TO.P,U4,53,QSPI_SD0*%
%TO.N,QSPI_SD0*%
X202714400Y-74413500D03*
%TO.P,U4,54,QSPI_SD2*%
%TO.N,QSPI_SD2*%
X202314400Y-74413500D03*
%TO.P,U4,55,QSPI_SD1*%
%TO.N,QSPI_SD1*%
X201914400Y-74413500D03*
%TO.P,U4,56,QSPI_SS*%
%TO.N,QSPI_SS*%
X201514400Y-74413500D03*
D45*
%TO.P,U4,57,GND*%
%TO.N,GND*%
X204114400Y-77851000D03*
%TD*%
D23*
%TO.P,R22,1*%
%TO.N,Net-(R22-Pad1)*%
X223950000Y-92300000D03*
%TO.P,R22,2*%
%TO.N,Net-(R18-Pad1)*%
X223950000Y-93950000D03*
%TD*%
D16*
%TO.P,J1,S*%
%TO.N,GND*%
X193100000Y-26220000D03*
D17*
%TO.P,J1,T*%
%TO.N,Net-(J1-PadT)*%
X193100000Y-37620000D03*
%TO.P,J1,TN*%
%TO.N,Net-(J1-PadTN)*%
X193100000Y-29320000D03*
%TD*%
D37*
%TO.P,D2,1,K*%
%TO.N,Net-(D2-Pad1)*%
X214480000Y-40510000D03*
%TO.P,D2,2,A*%
%TO.N,GND*%
X211180000Y-40510000D03*
%TD*%
D14*
%TO.P,R30,1*%
%TO.N,SDA0*%
X196825000Y-84375000D03*
%TO.P,R30,2*%
%TO.N,+3V3*%
X198475000Y-84375000D03*
%TD*%
D16*
%TO.P,J12,S*%
%TO.N,GND*%
X193100000Y-114020000D03*
D17*
%TO.P,J12,T*%
%TO.N,Net-(J12-PadT)*%
X193100000Y-125420000D03*
%TO.P,J12,TN*%
%TO.N,unconnected-(J12-PadTN)*%
X193100000Y-117120000D03*
%TD*%
D15*
%TO.P,C17,1*%
%TO.N,+1V1*%
X206961700Y-84025000D03*
%TO.P,C17,2*%
%TO.N,GND*%
X208511700Y-84025000D03*
%TD*%
D20*
%TO.P,R31,1*%
%TO.N,Net-(D6-Pad2)*%
X224174600Y-114346200D03*
%TO.P,R31,2*%
%TO.N,+3V3*%
X222524600Y-114346200D03*
%TD*%
D14*
%TO.P,R1,1*%
%TO.N,Net-(R1-Pad1)*%
X217600000Y-63250000D03*
%TO.P,R1,2*%
%TO.N,+3V3*%
X219250000Y-63250000D03*
%TD*%
D46*
%TO.N,SDIO*%
X211074000Y-85852000D03*
X211074000Y-82804000D03*
%TO.N,+3V3*%
X206502000Y-70866000D03*
X192480000Y-81260000D03*
%TO.N,GPIO_24*%
X190560000Y-84150000D03*
%TO.N,GND*%
X204100000Y-77680000D03*
X202510000Y-79390000D03*
X205400000Y-79360000D03*
X205600000Y-76310000D03*
X202580000Y-76310000D03*
%TO.N,USB_D+*%
X189440000Y-82400000D03*
%TO.N,USB_D-*%
X188620000Y-81670000D03*
X206390000Y-72590000D03*
%TO.N,USB_D+*%
X205240000Y-71940000D03*
%TO.N,QSPI_SS*%
X186070000Y-76290000D03*
%TO.N,QSPI_SD1*%
X187425000Y-76195000D03*
X190270000Y-73170000D03*
%TO.N,QSPI_SS*%
X189920000Y-74880000D03*
%TO.N,+12V*%
X179650000Y-92540000D03*
X180340000Y-79502000D03*
%TO.N,+3V3*%
X213720000Y-76230000D03*
%TO.N,SCL1*%
X195270000Y-73390000D03*
%TO.N,SDA1*%
X196580000Y-73270000D03*
%TO.N,melody*%
X207935000Y-67545000D03*
X204200000Y-57460000D03*
%TO.N,GPIO_24*%
X210250000Y-77220000D03*
%TO.N,+12V*%
X199000000Y-93430000D03*
%TO.N,Net-(R21-Pad1)*%
X203200000Y-111700000D03*
X219280000Y-93220000D03*
%TO.N,+3V3*%
X198480000Y-85750000D03*
%TO.N,SDA0*%
X195930000Y-81260000D03*
%TO.N,GND*%
X189730000Y-65080000D03*
X187870000Y-64710000D03*
X186050000Y-65190000D03*
X186340000Y-55640000D03*
X180160000Y-55510000D03*
%TO.N,+3V3*%
X184450000Y-68140000D03*
X190990000Y-68090000D03*
X193940000Y-76920000D03*
X193990000Y-75360000D03*
X197660000Y-74130000D03*
X207131500Y-87049400D03*
X198010000Y-79720000D03*
%TO.N,SDA0*%
X197775000Y-81275000D03*
%TO.N,GND*%
X195072000Y-87884000D03*
%TO.N,melodyClock*%
X213090000Y-68900000D03*
X211650000Y-77100000D03*
%TO.N,GND*%
X214620000Y-69350000D03*
%TO.N,+1V1*%
X202220000Y-69670000D03*
X207670000Y-69680000D03*
X205098553Y-83702347D03*
%TO.N,GND*%
X184910000Y-89390000D03*
X182430000Y-89720000D03*
X182820000Y-87670000D03*
X179250000Y-85650000D03*
X179280000Y-83390000D03*
X182940000Y-81280000D03*
X189840000Y-79780000D03*
X192800000Y-79310000D03*
X199780000Y-82640000D03*
X199921500Y-86049400D03*
X201811500Y-85849400D03*
X207518000Y-88900000D03*
X213000000Y-85550000D03*
X209581500Y-85599400D03*
X209761500Y-84029400D03*
X216370000Y-76920000D03*
X213830000Y-77360000D03*
X210980000Y-72290000D03*
X197780000Y-72720000D03*
X206470000Y-67080000D03*
X204940000Y-67130000D03*
X203430000Y-67120000D03*
%TO.N,Net-(R1-Pad1)*%
X219090000Y-66228400D03*
X219140000Y-73700000D03*
X219090000Y-81300000D03*
%TO.N,+12V*%
X221840000Y-89920000D03*
X223010000Y-96970000D03*
%TO.N,Net-(R19-Pad1)*%
X180110000Y-109790000D03*
X218400000Y-98230000D03*
%TO.N,GND*%
X214780000Y-101850000D03*
X211660000Y-99310000D03*
X211540000Y-92580000D03*
X214820000Y-95030000D03*
X225450000Y-91060000D03*
X225720000Y-97410000D03*
X222570000Y-117600000D03*
%TO.N,+3V3*%
X222530000Y-112830000D03*
%TO.N,GND*%
X186710000Y-111570000D03*
X185190000Y-111580000D03*
X183640000Y-111590000D03*
X182220000Y-111590000D03*
X198750000Y-99140000D03*
X198750000Y-97740000D03*
X198750000Y-96480000D03*
X198750000Y-95270000D03*
X191450000Y-92090000D03*
X190020000Y-93600000D03*
%TO.N,+3V3*%
X197890000Y-107420000D03*
X196040000Y-106870000D03*
X195850000Y-103070000D03*
X194520000Y-106860000D03*
X194460000Y-103070000D03*
X189960000Y-97820000D03*
X193720000Y-97820000D03*
X194420000Y-93580000D03*
X193010000Y-92260000D03*
%TO.N,GND*%
X203700000Y-56030000D03*
X204490000Y-59740000D03*
X213240000Y-59740000D03*
%TO.N,+3V3*%
X191480000Y-57170000D03*
X189890000Y-57140000D03*
X220640000Y-63260000D03*
X194750000Y-59840000D03*
X213370000Y-55920000D03*
%TO.N,GND*%
X211320000Y-42970000D03*
X209850000Y-40530000D03*
%TO.N,+3V3*%
X219050000Y-41900000D03*
%TO.N,GND*%
X220925000Y-42975000D03*
X219825000Y-40550000D03*
%TO.N,+3V3*%
X226225000Y-42300000D03*
%TD*%
D47*
%TO.N,+12V*%
X179452000Y-78614000D02*
X179452000Y-77597000D01*
X180340000Y-79502000D02*
X179452000Y-78614000D01*
D48*
%TO.N,+3V3*%
X197890000Y-107420000D02*
X197890000Y-106185000D01*
X197890000Y-106185000D02*
X199775000Y-104300000D01*
D49*
%TO.N,XOUT*%
X203584500Y-85599800D02*
X203914400Y-85269900D01*
X203914400Y-85269900D02*
X203914400Y-81288500D01*
%TO.N,chord1*%
X192540000Y-88146000D02*
X192540000Y-87340800D01*
X192540000Y-88379259D02*
X192540000Y-88146000D01*
X192540000Y-88146000D02*
X192540000Y-88379258D01*
X192540000Y-88379258D02*
X195250742Y-91090000D01*
%TO.N,chord2*%
X194728231Y-85941769D02*
X193168231Y-85941769D01*
X194728231Y-85941769D02*
X195031769Y-85941769D01*
X195031769Y-85941769D02*
X199230000Y-90140000D01*
X199230000Y-90140000D02*
X207000000Y-90140000D01*
D50*
%TO.N,Net-(D5-Pad2)*%
X185180000Y-81320000D02*
X182752000Y-78892000D01*
X182752000Y-78892000D02*
X182752000Y-77597000D01*
X182245000Y-83180400D02*
X183319600Y-83180400D01*
X183319600Y-83180400D02*
X185180000Y-81320000D01*
%TO.N,Net-(RV2-Pad2)*%
X192560000Y-58220000D02*
X190192000Y-58220000D01*
D51*
X187649520Y-56009520D02*
X188248000Y-56608000D01*
D50*
X190192000Y-58220000D02*
X189860000Y-58220000D01*
X189860000Y-58220000D02*
X188248000Y-56608000D01*
D51*
X193208000Y-57572000D02*
X194755000Y-56025000D01*
D50*
X193208000Y-57572000D02*
X192560000Y-58220000D01*
D51*
X187649520Y-54924520D02*
X187649520Y-56009520D01*
X184759600Y-52034600D02*
X187649520Y-54924520D01*
D49*
%TO.N,melodyClock*%
X213090000Y-68900000D02*
X213090000Y-67940000D01*
X213090000Y-67940000D02*
X215392000Y-65638000D01*
X215392000Y-65638000D02*
X215392000Y-52324000D01*
X215392000Y-52324000D02*
X222878500Y-44837500D01*
X222878500Y-44837500D02*
X223225000Y-44837500D01*
%TO.N,chordClock*%
X207551900Y-78451000D02*
X210969000Y-78451000D01*
X210969000Y-78451000D02*
X211510000Y-77910000D01*
X211990000Y-77910000D02*
X212370000Y-77530000D01*
X211510000Y-77910000D02*
X211990000Y-77910000D01*
X212370000Y-77530000D02*
X212370000Y-76238927D01*
X212370000Y-76238927D02*
X211862980Y-75731907D01*
X211862980Y-75731907D02*
X211862980Y-66587020D01*
X214607000Y-63843000D02*
X214607000Y-52347000D01*
X214607000Y-52347000D02*
X213520000Y-51260000D01*
X211862980Y-66587020D02*
X214607000Y-63843000D01*
X213520000Y-51260000D02*
X213520000Y-44847500D01*
%TO.N,quant*%
X193540000Y-87340800D02*
X193540000Y-88289822D01*
X193540000Y-88289822D02*
X195810178Y-90560000D01*
X212310000Y-96150000D02*
X220380000Y-96150000D01*
X195810178Y-90560000D02*
X206720000Y-90560000D01*
X206720000Y-90560000D02*
X212310000Y-96150000D01*
X220380000Y-96150000D02*
X221525000Y-95005000D01*
%TO.N,GND*%
X194040000Y-87340800D02*
X194528800Y-87340800D01*
X194528800Y-87340800D02*
X195072000Y-87884000D01*
X206480000Y-68120000D02*
X206480000Y-67090000D01*
X206480000Y-67090000D02*
X206470000Y-67080000D01*
X204956000Y-68120000D02*
X204956000Y-67146000D01*
X204956000Y-67146000D02*
X204940000Y-67130000D01*
X203432000Y-68120000D02*
X203432000Y-67122000D01*
X203432000Y-67122000D02*
X203430000Y-67120000D01*
%TO.N,SDIO*%
X205514400Y-81288500D02*
X205514400Y-81820295D01*
X205514400Y-81820295D02*
X206244105Y-82550000D01*
X206244105Y-82550000D02*
X210820000Y-82550000D01*
X210820000Y-82550000D02*
X211074000Y-82804000D01*
X211055000Y-88260000D02*
X211055000Y-85871000D01*
X211074000Y-85852000D02*
X211055000Y-85871000D01*
%TO.N,SWCLK*%
X205114400Y-81288500D02*
X205114400Y-82432400D01*
X205114400Y-82432400D02*
X205740000Y-83058000D01*
X205740000Y-83058000D02*
X209804000Y-83058000D01*
X209804000Y-83058000D02*
X212090000Y-85344000D01*
X212090000Y-85344000D02*
X212090000Y-86106000D01*
X212090000Y-86106000D02*
X212598000Y-86614000D01*
X212598000Y-86614000D02*
X214489000Y-86614000D01*
X214489000Y-86614000D02*
X216135000Y-88260000D01*
%TO.N,+1V1*%
X204714400Y-81288500D02*
X204714400Y-81220480D01*
X204714400Y-81220480D02*
X204713920Y-81220000D01*
X204713920Y-81220000D02*
X204713920Y-83317714D01*
X204713920Y-83317714D02*
X205098553Y-83702347D01*
%TO.N,XIN*%
X203514400Y-81288500D02*
X203514400Y-84488473D01*
X202814811Y-88099511D02*
X202014322Y-88900000D01*
X203514400Y-84488473D02*
X202814811Y-85188062D01*
X202814811Y-85188062D02*
X202814811Y-88099511D01*
X202014322Y-88900000D02*
X201815300Y-88900000D01*
%TO.N,+3V3*%
X204314400Y-81288500D02*
X204314400Y-84072300D01*
X204314400Y-84072300D02*
X204751500Y-84509400D01*
X204751500Y-84509400D02*
X205616700Y-84509400D01*
X205616700Y-84509400D02*
X206707100Y-85599800D01*
%TO.N,GND*%
X205869500Y-88889400D02*
X207507400Y-88889400D01*
X207507400Y-88889400D02*
X207518000Y-88900000D01*
X204015300Y-88900000D02*
X205858900Y-88900000D01*
X205858900Y-88900000D02*
X205869500Y-88889400D01*
%TO.N,root*%
X192040000Y-87340800D02*
X192040000Y-88444265D01*
X211265000Y-100585000D02*
X216575000Y-100585000D01*
X192040000Y-88444265D02*
X195167867Y-91572133D01*
X206017127Y-91572133D02*
X210160000Y-95715006D01*
X195167867Y-91572133D02*
X206017127Y-91572133D01*
X210160000Y-95715006D02*
X210160000Y-99480000D01*
X210160000Y-99480000D02*
X211265000Y-100585000D01*
%TO.N,+3V3*%
X206502000Y-70866000D02*
X206152000Y-70866000D01*
X206152000Y-70866000D02*
X204956000Y-69670000D01*
X192480000Y-81260000D02*
X193682600Y-81260000D01*
X193682600Y-81260000D02*
X194081400Y-80861200D01*
%TO.N,GPIO_24*%
X190560000Y-84150000D02*
X190560000Y-84280000D01*
X186830000Y-81320000D02*
X187380000Y-80770000D01*
X187380000Y-80770000D02*
X189110000Y-80770000D01*
X189110000Y-80770000D02*
X190560000Y-82220000D01*
X190560000Y-82220000D02*
X190560000Y-84150000D01*
X190560000Y-84280000D02*
X189490000Y-85350000D01*
X189490000Y-85350000D02*
X186400000Y-85350000D01*
%TO.N,USB_D+*%
X187359600Y-84480400D02*
X189440000Y-82400000D01*
X182245000Y-84480400D02*
X187359600Y-84480400D01*
%TO.N,USB_D-*%
X186459600Y-83830400D02*
X188620000Y-81670000D01*
X182245000Y-83830400D02*
X186459600Y-83830400D01*
%TO.N,QSPI_SS*%
X184975000Y-63600000D02*
X184975000Y-64245000D01*
X182970000Y-71590000D02*
X186070000Y-74690000D01*
X186070000Y-74690000D02*
X186070000Y-76290000D01*
X184975000Y-64245000D02*
X182970000Y-66250000D01*
X182970000Y-66250000D02*
X182970000Y-71590000D01*
X186030000Y-76330000D02*
X186070000Y-76290000D01*
X186030000Y-78180000D02*
X186030000Y-76330000D01*
X201514400Y-74413500D02*
X201514400Y-74097417D01*
X193662400Y-71137600D02*
X189920000Y-74880000D01*
X201514400Y-74097417D02*
X198554583Y-71137600D01*
X198554583Y-71137600D02*
X193662400Y-71137600D01*
%TO.N,QSPI_SD1*%
X187300000Y-76320000D02*
X187425000Y-76195000D01*
X187300000Y-78180000D02*
X187300000Y-76320000D01*
X201914400Y-74413500D02*
X201914400Y-73679406D01*
X201914400Y-73679406D02*
X198973074Y-70738080D01*
X198973074Y-70738080D02*
X192701920Y-70738080D01*
X192701920Y-70738080D02*
X190270000Y-73170000D01*
%TO.N,GND*%
X197780000Y-72720000D02*
X198920200Y-72720000D01*
X198920200Y-72720000D02*
X199059800Y-72859600D01*
%TO.N,QSPI_SD2*%
X202314400Y-74413500D02*
X202314400Y-73514400D01*
X202314400Y-73514400D02*
X199138560Y-70338560D01*
X199138560Y-70338560D02*
X192111440Y-70338560D01*
X192111440Y-70338560D02*
X188570000Y-73880000D01*
X188570000Y-73880000D02*
X188570000Y-78180000D01*
%TO.N,QSPI_SD0*%
X189840000Y-70980000D02*
X189840000Y-70340000D01*
X189840000Y-70340000D02*
X190240960Y-69939040D01*
X190240960Y-69939040D02*
X199629040Y-69939040D01*
X202714400Y-73024400D02*
X202714400Y-74413500D01*
X199629040Y-69939040D02*
X202714400Y-73024400D01*
%TO.N,QSPI_CLK*%
X188570000Y-70980000D02*
X188570000Y-70460000D01*
X188570000Y-70460000D02*
X189490480Y-69539520D01*
X189490480Y-69539520D02*
X199909520Y-69539520D01*
X199909520Y-69539520D02*
X203114400Y-72744400D01*
X203114400Y-72744400D02*
X203114400Y-74413500D01*
%TO.N,QSPI_SD3*%
X187890000Y-69140000D02*
X199230000Y-69140000D01*
X199230000Y-69140000D02*
X200540000Y-69140000D01*
X203514400Y-72114400D02*
X201120000Y-69720000D01*
X201120000Y-69720000D02*
X200640000Y-69240000D01*
X200540000Y-69140000D02*
X201120000Y-69720000D01*
X187300000Y-69730000D02*
X187890000Y-69140000D01*
X187300000Y-70980000D02*
X187300000Y-69730000D01*
X200540000Y-69140000D02*
X200640000Y-69240000D01*
%TO.N,+3V3*%
X186055000Y-68138600D02*
X186055000Y-70955000D01*
X186055000Y-70955000D02*
X186030000Y-70980000D01*
%TO.N,QSPI_SD3*%
X203514400Y-74413500D02*
X203514400Y-72114400D01*
%TO.N,USB_D+*%
X205114400Y-72065600D02*
X205240000Y-71940000D01*
X205114400Y-74413500D02*
X205114400Y-72065600D01*
%TO.N,USB_D-*%
X205514400Y-73465600D02*
X206390000Y-72590000D01*
X205514400Y-74413500D02*
X205514400Y-73465600D01*
%TO.N,+1V1*%
X203914400Y-74413500D02*
X203914400Y-73881705D01*
X203914400Y-73881705D02*
X203914880Y-73881225D01*
X203914880Y-73881225D02*
X203914880Y-70152880D01*
X203914880Y-70152880D02*
X203432000Y-69670000D01*
X206276105Y-73520000D02*
X206980000Y-73520000D01*
X205914400Y-73881705D02*
X206276105Y-73520000D01*
X205914400Y-74413500D02*
X205914400Y-73881705D01*
X206980000Y-73520000D02*
X207670000Y-72830000D01*
X207670000Y-72830000D02*
X207670000Y-69680000D01*
X206480000Y-69670000D02*
X207660000Y-69670000D01*
X207660000Y-69670000D02*
X207670000Y-69680000D01*
X203432000Y-69670000D02*
X202220000Y-69670000D01*
%TO.N,+3V3*%
X204314400Y-74413500D02*
X204314400Y-70311600D01*
X204314400Y-70311600D02*
X204956000Y-69670000D01*
D47*
%TO.N,+12V*%
X179735000Y-92625000D02*
X179650000Y-92540000D01*
X182425000Y-92625000D02*
X179735000Y-92625000D01*
D49*
%TO.N,+3V3*%
X213720000Y-76230000D02*
X212769519Y-77180481D01*
X212769519Y-77180481D02*
X212769519Y-77950481D01*
X212769519Y-77950481D02*
X211880000Y-78840000D01*
%TO.N,SCL1*%
X195950000Y-74070000D02*
X195270000Y-73390000D01*
X195950000Y-75950000D02*
X195950000Y-74070000D01*
%TO.N,SDA1*%
X196580000Y-75030000D02*
X196580000Y-73270000D01*
X196900000Y-75350000D02*
X196580000Y-75030000D01*
%TO.N,melody*%
X204710000Y-56950000D02*
X204200000Y-57460000D01*
X204780000Y-56950000D02*
X204710000Y-56950000D01*
X208460000Y-75990000D02*
X208460000Y-68070000D01*
X208399000Y-76051000D02*
X208460000Y-75990000D01*
X208460000Y-68070000D02*
X207935000Y-67545000D01*
X207551900Y-76051000D02*
X208399000Y-76051000D01*
%TO.N,octave*%
X196955000Y-58565000D02*
X197815000Y-58565000D01*
X207230000Y-61570000D02*
X208993960Y-63333960D01*
X197815000Y-58565000D02*
X200820000Y-61570000D01*
X200820000Y-61570000D02*
X207230000Y-61570000D01*
X208993960Y-63333960D02*
X208993960Y-76257520D01*
X208993960Y-76257520D02*
X208800000Y-76451480D01*
X208439000Y-76451000D02*
X207551900Y-76451000D01*
X208800000Y-76451480D02*
X208439480Y-76451480D01*
X208439480Y-76451480D02*
X208439000Y-76451000D01*
%TO.N,chord*%
X207551900Y-76851000D02*
X208969000Y-76851000D01*
X203580000Y-61140000D02*
X203400000Y-60960000D01*
X208969000Y-76851000D02*
X209393480Y-76426520D01*
X209393480Y-76426520D02*
X209393480Y-62763480D01*
X209393480Y-62763480D02*
X207770000Y-61140000D01*
X207770000Y-61140000D02*
X203580000Y-61140000D01*
X203400000Y-60960000D02*
X203400000Y-59660000D01*
D50*
%TO.N,defaultClock*%
X210962500Y-75300000D02*
X210230000Y-75300000D01*
X210230000Y-75300000D02*
X210110000Y-75300000D01*
D49*
X207551900Y-77251000D02*
X209229000Y-77251000D01*
X209229000Y-77251000D02*
X210230000Y-76250000D01*
X210230000Y-76250000D02*
X210230000Y-75300000D01*
%TO.N,GPIO_24*%
X207551900Y-77651000D02*
X209949000Y-77651000D01*
X209949000Y-77651000D02*
X210250000Y-77350000D01*
X210250000Y-77350000D02*
X210250000Y-77220000D01*
%TO.N,melodyClock*%
X207551900Y-78051000D02*
X210699000Y-78051000D01*
X210699000Y-78051000D02*
X211650000Y-77100000D01*
%TO.N,GND*%
X213430000Y-78840000D02*
X213430000Y-77760000D01*
X213430000Y-77760000D02*
X213830000Y-77360000D01*
%TO.N,+3V3*%
X207551900Y-78851000D02*
X211869000Y-78851000D01*
X211869000Y-78851000D02*
X211880000Y-78840000D01*
%TO.N,key_up*%
X207551900Y-79651000D02*
X214229000Y-79651000D01*
X214229000Y-79651000D02*
X214930000Y-78950000D01*
X214930000Y-78950000D02*
X214930000Y-72195000D01*
X214930000Y-72195000D02*
X216250000Y-70875000D01*
%TO.N,is_minor*%
X207551900Y-80051000D02*
X215449000Y-80051000D01*
X215449000Y-80051000D02*
X217300000Y-78200000D01*
X217300000Y-78200000D02*
X219140000Y-78200000D01*
%TO.N,GND*%
X216370000Y-76920000D02*
X216370000Y-77480000D01*
X216370000Y-77480000D02*
X215650000Y-78200000D01*
D50*
%TO.N,Net-(J1-PadTN)*%
X191475000Y-54200000D02*
X191475000Y-51915000D01*
X186190000Y-31830000D02*
X188700000Y-29320000D01*
X191475000Y-51915000D02*
X186190000Y-46630000D01*
X186190000Y-46630000D02*
X186190000Y-31830000D01*
X188700000Y-29320000D02*
X193100000Y-29320000D01*
%TO.N,Net-(J2-PadTN)*%
X183000000Y-29300000D02*
X185280000Y-31580000D01*
X185280000Y-31580000D02*
X185280000Y-46830000D01*
X189900000Y-51450000D02*
X189900000Y-54200000D01*
X185280000Y-46830000D02*
X189900000Y-51450000D01*
D47*
%TO.N,+12V*%
X192000000Y-95270000D02*
X194670000Y-95270000D01*
X194670000Y-95270000D02*
X196510000Y-93430000D01*
X196510000Y-93430000D02*
X199000000Y-93430000D01*
D49*
%TO.N,Net-(R20-Pad1)*%
X190425000Y-111700000D02*
X192345000Y-109780000D01*
X225350000Y-96060000D02*
X224175000Y-97235000D01*
X192345000Y-109780000D02*
X219880000Y-109780000D01*
X219880000Y-109780000D02*
X227010000Y-102650000D01*
X227010000Y-102650000D02*
X227010000Y-96610000D01*
X227010000Y-96610000D02*
X226460000Y-96060000D01*
X226460000Y-96060000D02*
X225350000Y-96060000D01*
X224175000Y-97235000D02*
X224175000Y-98775000D01*
%TO.N,Net-(R21-Pad1)*%
X200500000Y-111750000D02*
X203150000Y-111750000D01*
X203150000Y-111750000D02*
X203200000Y-111700000D01*
X216575000Y-91195000D02*
X217375000Y-91195000D01*
X217375000Y-91195000D02*
X219280000Y-93100000D01*
X219280000Y-93100000D02*
X219280000Y-93220000D01*
%TO.N,chord1*%
X218610000Y-96690000D02*
X211700000Y-96690000D01*
X206100000Y-91090000D02*
X195250742Y-91090000D01*
X194630741Y-90470000D02*
X194295371Y-90134629D01*
X194295371Y-90134629D02*
X192540000Y-88379259D01*
X211700000Y-96690000D02*
X206100000Y-91090000D01*
X195250742Y-91090000D02*
X194295371Y-90134629D01*
%TO.N,chord2*%
X197770000Y-88680000D02*
X197555000Y-88465000D01*
X197555000Y-88465000D02*
X195031769Y-85941769D01*
X199230000Y-90140000D02*
X197555000Y-88465000D01*
X216575000Y-93735000D02*
X210595000Y-93735000D01*
X210595000Y-93735000D02*
X207000000Y-90140000D01*
X193168231Y-85941769D02*
X193040000Y-86070000D01*
X193040000Y-86070000D02*
X193040000Y-87340800D01*
%TO.N,chord1*%
X221525000Y-101855000D02*
X221184283Y-101855000D01*
X221184283Y-101855000D02*
X219790000Y-100460717D01*
X219790000Y-100460717D02*
X219790000Y-97870000D01*
X219790000Y-97870000D02*
X218610000Y-96690000D01*
%TO.N,+3V3*%
X206707100Y-85599800D02*
X206707100Y-86625000D01*
X206707100Y-86625000D02*
X207131500Y-87049400D01*
X198480000Y-85750000D02*
X198480000Y-84380000D01*
X198480000Y-84380000D02*
X198475000Y-84375000D01*
%TO.N,SDA0*%
X200676900Y-78051000D02*
X197609000Y-78051000D01*
X197609000Y-78051000D02*
X195930000Y-79730000D01*
X195930000Y-79730000D02*
X195930000Y-81260000D01*
%TO.N,SCL0*%
X196825000Y-82825000D02*
X196825000Y-79915741D01*
X196825000Y-79915741D02*
X198289741Y-78451000D01*
X198289741Y-78451000D02*
X200676900Y-78451000D01*
%TO.N,+3V3*%
X198010000Y-79720000D02*
X199200000Y-79720000D01*
X197660000Y-74130000D02*
X198780200Y-74130000D01*
X198780200Y-74130000D02*
X199059800Y-74409600D01*
X193990000Y-75360000D02*
X195240000Y-75360000D01*
X195240000Y-75360000D02*
X195250000Y-75350000D01*
X193940000Y-76920000D02*
X195230000Y-76920000D01*
X195230000Y-76920000D02*
X195250000Y-76900000D01*
X187875000Y-68105000D02*
X189700000Y-68105000D01*
X189700000Y-68105000D02*
X189725000Y-68080000D01*
X186055000Y-68138600D02*
X187841400Y-68138600D01*
X187841400Y-68138600D02*
X187875000Y-68105000D01*
X184450000Y-68140000D02*
X186053600Y-68140000D01*
X186053600Y-68140000D02*
X186055000Y-68138600D01*
X189725000Y-68080000D02*
X190980000Y-68080000D01*
X190980000Y-68080000D02*
X190990000Y-68090000D01*
%TO.N,GND*%
X189730000Y-65080000D02*
X189730000Y-66525000D01*
X189730000Y-66525000D02*
X189725000Y-66530000D01*
X187870000Y-64710000D02*
X187870000Y-66200000D01*
X187870000Y-66200000D02*
X187875000Y-66205000D01*
X186050000Y-65190000D02*
X186050000Y-66583600D01*
X186050000Y-66583600D02*
X186055000Y-66588600D01*
%TO.N,Net-(R32-Pad2)*%
X180161000Y-60879600D02*
X186361000Y-60879600D01*
X186361000Y-60879600D02*
X186361000Y-63336000D01*
X186361000Y-63336000D02*
X186625000Y-63600000D01*
%TO.N,GND*%
X180160000Y-55510000D02*
X180160000Y-57178600D01*
X180160000Y-57178600D02*
X180161000Y-57179600D01*
X186340000Y-55640000D02*
X186340000Y-57158600D01*
X186340000Y-57158600D02*
X186361000Y-57179600D01*
%TO.N,SDA0*%
X197775480Y-83424520D02*
X197775480Y-81275480D01*
X196825000Y-84375000D02*
X197775480Y-83424520D01*
%TO.N,+3V3*%
X200676900Y-78851000D02*
X200069000Y-78851000D01*
X200069000Y-78851000D02*
X199200000Y-79720000D01*
%TO.N,GND*%
X199200000Y-81270000D02*
X199200000Y-82060000D01*
X199200000Y-82060000D02*
X199780000Y-82640000D01*
%TO.N,SCL0*%
X193540000Y-82940800D02*
X193540000Y-83840800D01*
X193540000Y-83840800D02*
X193969200Y-84270000D01*
X193969200Y-84270000D02*
X195380000Y-84270000D01*
X195380000Y-84270000D02*
X196825000Y-82825000D01*
%TO.N,SDA0*%
X193040000Y-84620000D02*
X193490000Y-85070000D01*
X196130000Y-85070000D02*
X196825000Y-84375000D01*
X193040000Y-82940800D02*
X193040000Y-84620000D01*
X193490000Y-85070000D02*
X196130000Y-85070000D01*
%TO.N,+3V3*%
X194040000Y-82940800D02*
X194040000Y-80902600D01*
X194040000Y-80902600D02*
X194081400Y-80861200D01*
D50*
%TO.N,defaultClock*%
X210110000Y-75300000D02*
X209820000Y-75010000D01*
X209820000Y-75010000D02*
X209820000Y-59730000D01*
X209820000Y-59730000D02*
X208390000Y-58300000D01*
D51*
X208390000Y-34230000D02*
X208390000Y-58300000D01*
D49*
%TO.N,GND*%
X214620000Y-69350000D02*
X214620000Y-70855000D01*
X214620000Y-70855000D02*
X214600000Y-70875000D01*
%TO.N,+3V3*%
X198475000Y-82825000D02*
X198475000Y-84375000D01*
%TO.N,GND*%
X201815300Y-87200000D02*
X201815300Y-85853200D01*
X201815300Y-85853200D02*
X201811500Y-85849400D01*
X199925900Y-87263200D02*
X199925900Y-86053800D01*
X199925900Y-86053800D02*
X199921500Y-86049400D01*
%TO.N,XIN*%
X201815300Y-88900000D02*
X200012700Y-88900000D01*
X200012700Y-88900000D02*
X199925900Y-88813200D01*
%TO.N,GND*%
X213000000Y-85550000D02*
X214175000Y-85550000D01*
X208257100Y-85599800D02*
X209581100Y-85599800D01*
X209581100Y-85599800D02*
X209581500Y-85599400D01*
X208511700Y-84025000D02*
X209757100Y-84025000D01*
X209757100Y-84025000D02*
X209761500Y-84029400D01*
%TO.N,SCL1*%
X196900000Y-76900000D02*
X195950000Y-75950000D01*
X200676900Y-76051000D02*
X197749000Y-76051000D01*
X197749000Y-76051000D02*
X196900000Y-76900000D01*
%TO.N,SDA1*%
X196900000Y-75350000D02*
X197201480Y-75651480D01*
X197201480Y-75651480D02*
X200571480Y-75651480D01*
%TO.N,key_down*%
X207551900Y-80451000D02*
X210726000Y-80451000D01*
X210726000Y-80451000D02*
X215825000Y-85550000D01*
%TO.N,+3V3*%
X200676900Y-75251000D02*
X199901200Y-75251000D01*
X199901200Y-75251000D02*
X199059800Y-74409600D01*
%TO.N,+1V1*%
X205421205Y-84025000D02*
X205098553Y-83702347D01*
X206961700Y-84025000D02*
X205421205Y-84025000D01*
D50*
%TO.N,GND*%
X210980000Y-72290000D02*
X210980000Y-73655000D01*
X210980000Y-73655000D02*
X211025000Y-73700000D01*
X192800000Y-79310000D02*
X194080200Y-79310000D01*
X194080200Y-79310000D02*
X194081400Y-79311200D01*
X189840000Y-78180000D02*
X189840000Y-79780000D01*
X182245000Y-85780400D02*
X183949600Y-85780400D01*
X183949600Y-85780400D02*
X184319600Y-85780400D01*
X182820000Y-87670000D02*
X183949600Y-86540400D01*
X183949600Y-86540400D02*
X183949600Y-85780400D01*
X184319600Y-85780400D02*
X184750000Y-85350000D01*
D47*
X181545000Y-81280400D02*
X182939600Y-81280400D01*
X182939600Y-81280400D02*
X182940000Y-81280000D01*
X181545000Y-87680400D02*
X182809600Y-87680400D01*
X182809600Y-87680400D02*
X182820000Y-87670000D01*
X182430000Y-89720000D02*
X182430000Y-91070000D01*
X182430000Y-91070000D02*
X182425000Y-91075000D01*
X184910000Y-89390000D02*
X184910000Y-90740000D01*
X184910000Y-90740000D02*
X184900000Y-90750000D01*
D50*
%TO.N,Net-(D4-Pad2)*%
X212600000Y-73700000D02*
X212600000Y-75287500D01*
X212600000Y-75287500D02*
X212612500Y-75300000D01*
%TO.N,+12V*%
X221935000Y-98045000D02*
X223010000Y-96970000D01*
X221525000Y-98045000D02*
X221935000Y-98045000D01*
X221525000Y-90235000D02*
X221840000Y-89920000D01*
X221525000Y-91195000D02*
X221525000Y-90235000D01*
%TO.N,Net-(R19-Pad1)*%
X180110000Y-109790000D02*
X180110000Y-111460000D01*
X180110000Y-111460000D02*
X180300000Y-111650000D01*
X218215000Y-98045000D02*
X218400000Y-98230000D01*
X216575000Y-98045000D02*
X218215000Y-98045000D01*
%TO.N,Net-(R22-Pad1)*%
X223950000Y-92300000D02*
X223950000Y-90490000D01*
X223950000Y-90490000D02*
X224420000Y-90020000D01*
X224420000Y-90020000D02*
X226540000Y-90020000D01*
X227610000Y-91090000D02*
X227610000Y-106310000D01*
X226540000Y-90020000D02*
X227610000Y-91090000D01*
X227610000Y-106310000D02*
X222145000Y-111775000D01*
X222145000Y-111775000D02*
X210675000Y-111775000D01*
%TO.N,Net-(R17-Pad1)*%
X214425000Y-92690000D02*
X216350000Y-92690000D01*
X216350000Y-92690000D02*
X216575000Y-92465000D01*
%TO.N,Net-(R21-Pad1)*%
X214425000Y-91140000D02*
X216520000Y-91140000D01*
X216520000Y-91140000D02*
X216575000Y-91195000D01*
%TO.N,Net-(R17-Pad1)*%
X214425000Y-92690000D02*
X214325000Y-92690000D01*
X214325000Y-92690000D02*
X212775000Y-91140000D01*
%TO.N,Net-(R18-Pad1)*%
X223950000Y-93950000D02*
X225500000Y-93950000D01*
X221525000Y-93735000D02*
X223735000Y-93735000D01*
X223735000Y-93735000D02*
X223950000Y-93950000D01*
%TO.N,Net-(R22-Pad1)*%
X221525000Y-92465000D02*
X223785000Y-92465000D01*
X223785000Y-92465000D02*
X223950000Y-92300000D01*
%TO.N,Net-(R19-Pad1)*%
X214625000Y-97750000D02*
X216280000Y-97750000D01*
X216280000Y-97750000D02*
X216575000Y-98045000D01*
%TO.N,Net-(R15-Pad1)*%
X214625000Y-99300000D02*
X214525000Y-99300000D01*
X214525000Y-99300000D02*
X212975000Y-97750000D01*
X214625000Y-99300000D02*
X216560000Y-99300000D01*
X216560000Y-99300000D02*
X216575000Y-99315000D01*
%TO.N,Net-(R20-Pad1)*%
X221525000Y-99315000D02*
X223635000Y-99315000D01*
X223635000Y-99315000D02*
X224175000Y-98775000D01*
%TO.N,Net-(R16-Pad1)*%
X224175000Y-100425000D02*
X225750000Y-100425000D01*
X225750000Y-100425000D02*
X225775000Y-100400000D01*
X222985000Y-100585000D02*
X223150000Y-100420000D01*
X221525000Y-100585000D02*
X222985000Y-100585000D01*
X223150000Y-100420000D02*
X224170000Y-100420000D01*
X224170000Y-100420000D02*
X224175000Y-100425000D01*
%TO.N,GND*%
X225720000Y-97410000D02*
X225720000Y-98695000D01*
X225720000Y-98695000D02*
X225775000Y-98750000D01*
X225450000Y-91060000D02*
X225450000Y-92250000D01*
X225450000Y-92250000D02*
X225500000Y-92300000D01*
X211540000Y-92580000D02*
X212665000Y-92580000D01*
X212665000Y-92580000D02*
X212775000Y-92690000D01*
X214820000Y-95030000D02*
X216550000Y-95030000D01*
X216550000Y-95030000D02*
X216575000Y-95005000D01*
X211660000Y-99310000D02*
X212965000Y-99310000D01*
X212965000Y-99310000D02*
X212975000Y-99300000D01*
X214780000Y-101850000D02*
X216570000Y-101850000D01*
X216570000Y-101850000D02*
X216575000Y-101855000D01*
%TO.N,Net-(D6-Pad2)*%
X224162500Y-116175000D02*
X224162500Y-114358300D01*
X224162500Y-114358300D02*
X224174600Y-114346200D01*
%TO.N,GND*%
X222587500Y-116175000D02*
X222587500Y-117582500D01*
X222587500Y-117582500D02*
X222570000Y-117600000D01*
%TO.N,+3V3*%
X222530000Y-112830000D02*
X222530000Y-114340800D01*
X222530000Y-114340800D02*
X222524600Y-114346200D01*
D48*
%TO.N,+12V*%
X192000000Y-95270000D02*
X185000000Y-95270000D01*
X185000000Y-95270000D02*
X184975000Y-95295000D01*
%TO.N,Net-(D3-Pad1)*%
X189200000Y-96550000D02*
X191990000Y-96550000D01*
X191990000Y-96550000D02*
X192000000Y-96540000D01*
X192000000Y-96540000D02*
X193826653Y-96540000D01*
X193826653Y-96540000D02*
X194860000Y-97573347D01*
X194860000Y-97573347D02*
X194860000Y-99770000D01*
X194860000Y-99770000D02*
X195810000Y-100720000D01*
X195810000Y-100720000D02*
X205045000Y-100720000D01*
X205045000Y-100720000D02*
X208625000Y-104300000D01*
%TO.N,GND*%
X182664800Y-110037400D02*
X184712600Y-110037400D01*
X184712600Y-110037400D02*
X184900000Y-109850000D01*
X184900000Y-109850000D02*
X184900000Y-111290000D01*
X184900000Y-111290000D02*
X185190000Y-111580000D01*
X182220000Y-111590000D02*
X182800000Y-111590000D01*
X182800000Y-111590000D02*
X186690000Y-111590000D01*
X182664800Y-110037400D02*
X182664800Y-111454800D01*
X182664800Y-111454800D02*
X182800000Y-111590000D01*
X186690000Y-111590000D02*
X186710000Y-111570000D01*
%TO.N,-12V*%
X182664800Y-108137400D02*
X184737400Y-108137400D01*
X184737400Y-108137400D02*
X184900000Y-108300000D01*
X184975000Y-105455000D02*
X184975000Y-108225000D01*
X184975000Y-108225000D02*
X184900000Y-108300000D01*
X182435000Y-105455000D02*
X182435000Y-107907600D01*
X182435000Y-107907600D02*
X182664800Y-108137400D01*
X182435000Y-105455000D02*
X184975000Y-105455000D01*
D50*
%TO.N,Net-(J11-PadT)*%
X178650000Y-111650000D02*
X178650000Y-121070000D01*
X178650000Y-121070000D02*
X183000000Y-125420000D01*
%TO.N,Net-(J13-PadT)*%
X209025000Y-111775000D02*
X209025000Y-121145000D01*
X209025000Y-121145000D02*
X213300000Y-125420000D01*
%TO.N,Net-(J10-PadT)*%
X198850000Y-111750000D02*
X198850000Y-121070000D01*
X198850000Y-121070000D02*
X203200000Y-125420000D01*
%TO.N,Net-(J12-PadT)*%
X188775000Y-111700000D02*
X188775000Y-121095000D01*
X188775000Y-121095000D02*
X193100000Y-125420000D01*
D48*
%TO.N,GND*%
X184975000Y-102915000D02*
X187090000Y-102915000D01*
X187090000Y-102915000D02*
X189100000Y-104925000D01*
D47*
X192000000Y-99080000D02*
X189970000Y-99080000D01*
X189970000Y-99080000D02*
X189200000Y-99850000D01*
X184975000Y-100375000D02*
X188675000Y-100375000D01*
X188675000Y-100375000D02*
X189200000Y-99850000D01*
X191450000Y-93600000D02*
X191450000Y-92090000D01*
X191450000Y-93600000D02*
X190020000Y-93600000D01*
X196950000Y-95270000D02*
X198750000Y-95270000D01*
X196950000Y-96540000D02*
X198690000Y-96540000D01*
X198690000Y-96540000D02*
X198750000Y-96480000D01*
X196950000Y-97810000D02*
X198680000Y-97810000D01*
X198680000Y-97810000D02*
X198750000Y-97740000D01*
X196950000Y-99080000D02*
X198690000Y-99080000D01*
X198690000Y-99080000D02*
X198750000Y-99140000D01*
%TO.N,+3V3*%
X193000000Y-93600000D02*
X193000000Y-92270000D01*
X193000000Y-92270000D02*
X193010000Y-92260000D01*
X193000000Y-93600000D02*
X194400000Y-93600000D01*
X194400000Y-93600000D02*
X194420000Y-93580000D01*
X192000000Y-97810000D02*
X189970000Y-97810000D01*
X189970000Y-97810000D02*
X189960000Y-97820000D01*
X192000000Y-97810000D02*
X193710000Y-97810000D01*
X193710000Y-97810000D02*
X193720000Y-97820000D01*
X195850000Y-103070000D02*
X195850000Y-104490000D01*
X195850000Y-104490000D02*
X196285000Y-104925000D01*
D48*
X194500000Y-104925000D02*
X196285000Y-104925000D01*
X196285000Y-104925000D02*
X199150000Y-104925000D01*
D47*
X196040000Y-105170000D02*
X196285000Y-104925000D01*
X196040000Y-106870000D02*
X196040000Y-105170000D01*
X196040000Y-106870000D02*
X194530000Y-106870000D01*
X194530000Y-106870000D02*
X194520000Y-106860000D01*
X194520000Y-106860000D02*
X194520000Y-104945000D01*
X194520000Y-104945000D02*
X194500000Y-104925000D01*
X195850000Y-103070000D02*
X194460000Y-103070000D01*
X194460000Y-103070000D02*
X194460000Y-104885000D01*
X194460000Y-104885000D02*
X194500000Y-104925000D01*
D48*
%TO.N,+12V*%
X184975000Y-95295000D02*
X182435000Y-95295000D01*
X184900000Y-92650000D02*
X184900000Y-95220000D01*
X184900000Y-95220000D02*
X184975000Y-95295000D01*
X182425000Y-92625000D02*
X184875000Y-92625000D01*
X184875000Y-92625000D02*
X184900000Y-92650000D01*
X182435000Y-95295000D02*
X182435000Y-92635000D01*
X182435000Y-92635000D02*
X182425000Y-92625000D01*
%TO.N,+3V3*%
X199150000Y-104925000D02*
X199775000Y-104300000D01*
D50*
%TO.N,Net-(C20-Pad1)*%
X205869500Y-87339400D02*
X205869500Y-86234800D01*
X205869500Y-86234800D02*
X205234500Y-85599800D01*
X205869500Y-87339400D02*
X204154700Y-87339400D01*
X204154700Y-87339400D02*
X204015300Y-87200000D01*
X205234500Y-85599800D02*
X205234500Y-85980800D01*
X205234500Y-85980800D02*
X204015300Y-87200000D01*
D51*
%TO.N,defaultClock*%
X213300000Y-29320000D02*
X208390000Y-34230000D01*
%TO.N,Net-(R1-Pad1)*%
X219140000Y-73700000D02*
X227100000Y-73700000D01*
X227050000Y-81300000D02*
X219090000Y-81300000D01*
%TO.N,key_down*%
X219090000Y-85800000D02*
X227050000Y-85800000D01*
X215825000Y-85550000D02*
X216075000Y-85800000D01*
X216075000Y-85800000D02*
X219090000Y-85800000D01*
%TO.N,is_minor*%
X219140000Y-78200000D02*
X227100000Y-78200000D01*
%TO.N,key_up*%
X219090000Y-70728400D02*
X216396600Y-70728400D01*
X216396600Y-70728400D02*
X216250000Y-70875000D01*
X227050000Y-70728400D02*
X219090000Y-70728400D01*
%TO.N,Net-(R1-Pad1)*%
X219090000Y-66228400D02*
X227050000Y-66228400D01*
X217600000Y-63250000D02*
X219090000Y-64740000D01*
X219090000Y-64740000D02*
X219090000Y-66228400D01*
%TO.N,+3V3*%
X219250000Y-63250000D02*
X220630000Y-63250000D01*
X220630000Y-63250000D02*
X220640000Y-63260000D01*
%TO.N,GND*%
X211330000Y-59740000D02*
X213240000Y-59740000D01*
X203700000Y-56030000D02*
X201910000Y-56030000D01*
X201910000Y-56030000D02*
X201905000Y-56025000D01*
X204490000Y-59740000D02*
X206380000Y-59740000D01*
%TO.N,+3V3*%
X211330000Y-55930000D02*
X213360000Y-55930000D01*
X213360000Y-55930000D02*
X213370000Y-55920000D01*
X194750000Y-59840000D02*
X196950000Y-59840000D01*
X196950000Y-59840000D02*
X196955000Y-59835000D01*
X191480000Y-57170000D02*
X189920000Y-57170000D01*
X189920000Y-57170000D02*
X189890000Y-57140000D01*
X191475000Y-55850000D02*
X191475000Y-57165000D01*
X191475000Y-57165000D02*
X191480000Y-57170000D01*
X189900000Y-55850000D02*
X191475000Y-55850000D01*
X189890000Y-57140000D02*
X189890000Y-55860000D01*
X189890000Y-55860000D02*
X189900000Y-55850000D01*
%TO.N,Net-(RV2-Pad2)*%
X194755000Y-56025000D02*
X196955000Y-56025000D01*
%TO.N,Net-(J2-PadT)*%
X183000000Y-37600000D02*
X183000000Y-47775000D01*
X183000000Y-47775000D02*
X187259600Y-52034600D01*
%TO.N,Net-(J1-PadT)*%
X193100000Y-37620000D02*
X202129400Y-46649400D01*
X202129400Y-46649400D02*
X202129400Y-52095400D01*
%TO.N,Net-(RV1-Pad2)*%
X199629400Y-52095400D02*
X199629400Y-55395472D01*
X199629400Y-55395472D02*
X201528928Y-57295000D01*
X201528928Y-57295000D02*
X201905000Y-57295000D01*
%TO.N,Net-(J3-PadT)*%
X206380000Y-58470000D02*
X206756072Y-58470000D01*
X206756072Y-58470000D02*
X207700000Y-57526072D01*
X207700000Y-42100000D02*
X203200000Y-37600000D01*
X207700000Y-57526072D02*
X207700000Y-42100000D01*
%TO.N,Net-(U2-Pad6)*%
X211330000Y-57200000D02*
X212510000Y-57200000D01*
X212510000Y-57200000D02*
X212770000Y-57460000D01*
X212770000Y-57460000D02*
X212770000Y-58240000D01*
X212770000Y-58240000D02*
X212540000Y-58470000D01*
X212540000Y-58470000D02*
X211330000Y-58470000D01*
%TO.N,chord*%
X201905000Y-58565000D02*
X203065000Y-58565000D01*
X203065000Y-58565000D02*
X203400000Y-58900000D01*
X203400000Y-58900000D02*
X203400000Y-59660000D01*
X203400000Y-59660000D02*
X203225000Y-59835000D01*
X203225000Y-59835000D02*
X201905000Y-59835000D01*
%TO.N,octave*%
X196955000Y-58565000D02*
X195835000Y-58565000D01*
X195590000Y-58320000D02*
X195590000Y-57450000D01*
X195835000Y-58565000D02*
X195590000Y-58320000D01*
X195590000Y-57450000D02*
X195745000Y-57295000D01*
X195745000Y-57295000D02*
X196955000Y-57295000D01*
%TO.N,melody*%
X206380000Y-55930000D02*
X205010000Y-55930000D01*
X205010000Y-55930000D02*
X204780000Y-56160000D01*
X204780000Y-56160000D02*
X204780000Y-56950000D01*
X204780000Y-56950000D02*
X205030000Y-57200000D01*
X205030000Y-57200000D02*
X206380000Y-57200000D01*
%TO.N,defaultClock*%
X213300000Y-29320000D02*
X223380000Y-29320000D01*
X223380000Y-29320000D02*
X223400000Y-29300000D01*
%TO.N,+3V3*%
X217580000Y-41880000D02*
X219030000Y-41880000D01*
X219030000Y-41880000D02*
X219050000Y-41900000D01*
%TO.N,GND*%
X209850000Y-40530000D02*
X211160000Y-40530000D01*
X211160000Y-40530000D02*
X211180000Y-40510000D01*
X211320000Y-42970000D02*
X212567500Y-42970000D01*
X212567500Y-42970000D02*
X212570000Y-42972500D01*
%TO.N,chordClock*%
X213520000Y-44847500D02*
X216262500Y-44847500D01*
X216262500Y-44847500D02*
X217580000Y-43530000D01*
%TO.N,Net-(D2-Pad1)*%
X214480000Y-40510000D02*
X214480000Y-42962500D01*
X214480000Y-42962500D02*
X214470000Y-42972500D01*
X216000000Y-40100000D02*
X214890000Y-40100000D01*
X214890000Y-40100000D02*
X214480000Y-40510000D01*
%TO.N,Net-(J5-PadT)*%
X213300000Y-37620000D02*
X215170000Y-37620000D01*
X215170000Y-37620000D02*
X217650000Y-40100000D01*
%TO.N,melodyClock*%
X223225000Y-44837500D02*
X225762500Y-44837500D01*
X225762500Y-44837500D02*
X226225000Y-45300000D01*
%TO.N,Net-(J4-PadT)*%
X223400000Y-37600000D02*
X225000000Y-37600000D01*
X225000000Y-37600000D02*
X227550000Y-40150000D01*
%TO.N,Net-(D1-Pad1)*%
X224275000Y-40575000D02*
X225475000Y-40575000D01*
X225475000Y-40575000D02*
X225900000Y-40150000D01*
X224275000Y-40575000D02*
X224275000Y-42862500D01*
X224275000Y-42862500D02*
X224175000Y-42962500D01*
%TO.N,GND*%
X220925000Y-42975000D02*
X222262500Y-42975000D01*
X222262500Y-42975000D02*
X222275000Y-42962500D01*
X219850000Y-40575000D02*
X219825000Y-40550000D01*
X220975000Y-40575000D02*
X219850000Y-40575000D01*
%TO.N,+3V3*%
X226225000Y-43650000D02*
X226225000Y-42300000D01*
%TD*%
M02*
