%TF.GenerationSoftware,KiCad,Pcbnew,5.1.10-1.fc33*%
%TF.CreationDate,2021-09-20T12:14:51-04:00*%
%TF.ProjectId,vccg,76636367-2e6b-4696-9361-645f70636258,rev?*%
%TF.SameCoordinates,Original*%
%TF.FileFunction,Soldermask,Top*%
%TF.FilePolarity,Negative*%
%FSLAX46Y46*%
G04 Gerber Fmt 4.6, Leading zero omitted, Abs format (unit mm)*
G04 Created by KiCad (PCBNEW 5.1.10-1.fc33) date 2021-09-20 12:14:51*
%MOMM*%
%LPD*%
G01*
G04 APERTURE LIST*
%ADD10O,1.600000X1.600000*%
%ADD11C,1.600000*%
%ADD12C,2.130000*%
%ADD13R,1.930000X1.830000*%
%ADD14C,2.000000*%
%ADD15O,1.700000X1.700000*%
%ADD16R,1.700000X1.700000*%
%ADD17R,1.400000X0.300000*%
%ADD18O,2.000000X1.905000*%
%ADD19R,2.000000X1.905000*%
%ADD20C,3.240000*%
%ADD21C,1.800000*%
%ADD22R,1.800000X1.800000*%
%ADD23R,1.050000X1.500000*%
%ADD24O,1.050000X1.500000*%
%ADD25R,1.600000X1.600000*%
G04 APERTURE END LIST*
D10*
%TO.C,R19*%
X221742000Y-110490000D03*
D11*
X221742000Y-102870000D03*
%TD*%
D10*
%TO.C,R18*%
X225298000Y-110490000D03*
D11*
X225298000Y-102870000D03*
%TD*%
D12*
%TO.C,J2*%
X213360000Y-37054000D03*
D13*
X213360000Y-25654000D03*
D12*
X213360000Y-28754000D03*
%TD*%
%TO.C,J1*%
X223520000Y-37054000D03*
D13*
X223520000Y-25654000D03*
D12*
X223520000Y-28754000D03*
%TD*%
D14*
%TO.C,SW3*%
X225250000Y-79610000D03*
X225250000Y-84110000D03*
X218750000Y-79610000D03*
X218750000Y-84110000D03*
%TD*%
%TO.C,SW2*%
X225298000Y-90170000D03*
X225298000Y-94670000D03*
X218798000Y-90170000D03*
X218798000Y-94670000D03*
%TD*%
%TO.C,SW1*%
X225250000Y-69028000D03*
X225250000Y-73528000D03*
X218750000Y-69028000D03*
X218750000Y-73528000D03*
%TD*%
D10*
%TO.C,R17*%
X218186000Y-87122000D03*
D11*
X225806000Y-87122000D03*
%TD*%
%TO.C,R16*%
X226060000Y-98806000D03*
D10*
X218440000Y-98806000D03*
%TD*%
%TO.C,R15*%
X206502000Y-81026000D03*
D11*
X214122000Y-81026000D03*
%TD*%
%TO.C,R14*%
X218186000Y-65278000D03*
D10*
X225806000Y-65278000D03*
%TD*%
D15*
%TO.C,J11*%
X200406000Y-68580000D03*
X202946000Y-68580000D03*
X205486000Y-68580000D03*
D16*
X208026000Y-68580000D03*
%TD*%
D10*
%TO.C,R13*%
X197104000Y-40386000D03*
D11*
X189484000Y-40386000D03*
%TD*%
D10*
%TO.C,R12*%
X207010000Y-40386000D03*
D11*
X199390000Y-40386000D03*
%TD*%
D15*
%TO.C,J6*%
X181864000Y-101854000D03*
X184404000Y-101854000D03*
X181864000Y-99314000D03*
X184404000Y-99314000D03*
X181864000Y-96774000D03*
X184404000Y-96774000D03*
X181864000Y-94234000D03*
X184404000Y-94234000D03*
X181864000Y-91694000D03*
D16*
X184404000Y-91694000D03*
%TD*%
%TO.C,U4*%
G36*
G01*
X205558000Y-107535000D02*
X205758000Y-107535000D01*
G75*
G02*
X205858000Y-107635000I0J-100000D01*
G01*
X205858000Y-108910000D01*
G75*
G02*
X205758000Y-109010000I-100000J0D01*
G01*
X205558000Y-109010000D01*
G75*
G02*
X205458000Y-108910000I0J100000D01*
G01*
X205458000Y-107635000D01*
G75*
G02*
X205558000Y-107535000I100000J0D01*
G01*
G37*
G36*
G01*
X204908000Y-107535000D02*
X205108000Y-107535000D01*
G75*
G02*
X205208000Y-107635000I0J-100000D01*
G01*
X205208000Y-108910000D01*
G75*
G02*
X205108000Y-109010000I-100000J0D01*
G01*
X204908000Y-109010000D01*
G75*
G02*
X204808000Y-108910000I0J100000D01*
G01*
X204808000Y-107635000D01*
G75*
G02*
X204908000Y-107535000I100000J0D01*
G01*
G37*
G36*
G01*
X204258000Y-107535000D02*
X204458000Y-107535000D01*
G75*
G02*
X204558000Y-107635000I0J-100000D01*
G01*
X204558000Y-108910000D01*
G75*
G02*
X204458000Y-109010000I-100000J0D01*
G01*
X204258000Y-109010000D01*
G75*
G02*
X204158000Y-108910000I0J100000D01*
G01*
X204158000Y-107635000D01*
G75*
G02*
X204258000Y-107535000I100000J0D01*
G01*
G37*
G36*
G01*
X203608000Y-107535000D02*
X203808000Y-107535000D01*
G75*
G02*
X203908000Y-107635000I0J-100000D01*
G01*
X203908000Y-108910000D01*
G75*
G02*
X203808000Y-109010000I-100000J0D01*
G01*
X203608000Y-109010000D01*
G75*
G02*
X203508000Y-108910000I0J100000D01*
G01*
X203508000Y-107635000D01*
G75*
G02*
X203608000Y-107535000I100000J0D01*
G01*
G37*
G36*
G01*
X202958000Y-107535000D02*
X203158000Y-107535000D01*
G75*
G02*
X203258000Y-107635000I0J-100000D01*
G01*
X203258000Y-108910000D01*
G75*
G02*
X203158000Y-109010000I-100000J0D01*
G01*
X202958000Y-109010000D01*
G75*
G02*
X202858000Y-108910000I0J100000D01*
G01*
X202858000Y-107635000D01*
G75*
G02*
X202958000Y-107535000I100000J0D01*
G01*
G37*
G36*
G01*
X202308000Y-107535000D02*
X202508000Y-107535000D01*
G75*
G02*
X202608000Y-107635000I0J-100000D01*
G01*
X202608000Y-108910000D01*
G75*
G02*
X202508000Y-109010000I-100000J0D01*
G01*
X202308000Y-109010000D01*
G75*
G02*
X202208000Y-108910000I0J100000D01*
G01*
X202208000Y-107635000D01*
G75*
G02*
X202308000Y-107535000I100000J0D01*
G01*
G37*
G36*
G01*
X201658000Y-107535000D02*
X201858000Y-107535000D01*
G75*
G02*
X201958000Y-107635000I0J-100000D01*
G01*
X201958000Y-108910000D01*
G75*
G02*
X201858000Y-109010000I-100000J0D01*
G01*
X201658000Y-109010000D01*
G75*
G02*
X201558000Y-108910000I0J100000D01*
G01*
X201558000Y-107635000D01*
G75*
G02*
X201658000Y-107535000I100000J0D01*
G01*
G37*
G36*
G01*
X201658000Y-101810000D02*
X201858000Y-101810000D01*
G75*
G02*
X201958000Y-101910000I0J-100000D01*
G01*
X201958000Y-103185000D01*
G75*
G02*
X201858000Y-103285000I-100000J0D01*
G01*
X201658000Y-103285000D01*
G75*
G02*
X201558000Y-103185000I0J100000D01*
G01*
X201558000Y-101910000D01*
G75*
G02*
X201658000Y-101810000I100000J0D01*
G01*
G37*
G36*
G01*
X202308000Y-101810000D02*
X202508000Y-101810000D01*
G75*
G02*
X202608000Y-101910000I0J-100000D01*
G01*
X202608000Y-103185000D01*
G75*
G02*
X202508000Y-103285000I-100000J0D01*
G01*
X202308000Y-103285000D01*
G75*
G02*
X202208000Y-103185000I0J100000D01*
G01*
X202208000Y-101910000D01*
G75*
G02*
X202308000Y-101810000I100000J0D01*
G01*
G37*
G36*
G01*
X202958000Y-101810000D02*
X203158000Y-101810000D01*
G75*
G02*
X203258000Y-101910000I0J-100000D01*
G01*
X203258000Y-103185000D01*
G75*
G02*
X203158000Y-103285000I-100000J0D01*
G01*
X202958000Y-103285000D01*
G75*
G02*
X202858000Y-103185000I0J100000D01*
G01*
X202858000Y-101910000D01*
G75*
G02*
X202958000Y-101810000I100000J0D01*
G01*
G37*
G36*
G01*
X203608000Y-101810000D02*
X203808000Y-101810000D01*
G75*
G02*
X203908000Y-101910000I0J-100000D01*
G01*
X203908000Y-103185000D01*
G75*
G02*
X203808000Y-103285000I-100000J0D01*
G01*
X203608000Y-103285000D01*
G75*
G02*
X203508000Y-103185000I0J100000D01*
G01*
X203508000Y-101910000D01*
G75*
G02*
X203608000Y-101810000I100000J0D01*
G01*
G37*
G36*
G01*
X204258000Y-101810000D02*
X204458000Y-101810000D01*
G75*
G02*
X204558000Y-101910000I0J-100000D01*
G01*
X204558000Y-103185000D01*
G75*
G02*
X204458000Y-103285000I-100000J0D01*
G01*
X204258000Y-103285000D01*
G75*
G02*
X204158000Y-103185000I0J100000D01*
G01*
X204158000Y-101910000D01*
G75*
G02*
X204258000Y-101810000I100000J0D01*
G01*
G37*
G36*
G01*
X204908000Y-101810000D02*
X205108000Y-101810000D01*
G75*
G02*
X205208000Y-101910000I0J-100000D01*
G01*
X205208000Y-103185000D01*
G75*
G02*
X205108000Y-103285000I-100000J0D01*
G01*
X204908000Y-103285000D01*
G75*
G02*
X204808000Y-103185000I0J100000D01*
G01*
X204808000Y-101910000D01*
G75*
G02*
X204908000Y-101810000I100000J0D01*
G01*
G37*
G36*
G01*
X205558000Y-101810000D02*
X205758000Y-101810000D01*
G75*
G02*
X205858000Y-101910000I0J-100000D01*
G01*
X205858000Y-103185000D01*
G75*
G02*
X205758000Y-103285000I-100000J0D01*
G01*
X205558000Y-103285000D01*
G75*
G02*
X205458000Y-103185000I0J100000D01*
G01*
X205458000Y-101910000D01*
G75*
G02*
X205558000Y-101810000I100000J0D01*
G01*
G37*
%TD*%
D17*
%TO.C,U3*%
X209382000Y-106918000D03*
X209382000Y-106418000D03*
X209382000Y-105918000D03*
X209382000Y-105418000D03*
X209382000Y-104918000D03*
X213782000Y-104918000D03*
X213782000Y-105418000D03*
X213782000Y-105918000D03*
X213782000Y-106418000D03*
X213782000Y-106918000D03*
%TD*%
D18*
%TO.C,U2*%
X213614000Y-93218000D03*
X213614000Y-95758000D03*
D19*
X213614000Y-98298000D03*
%TD*%
%TO.C,U1*%
G36*
G01*
X205325000Y-54030000D02*
X205325000Y-53830000D01*
G75*
G02*
X205425000Y-53730000I100000J0D01*
G01*
X206700000Y-53730000D01*
G75*
G02*
X206800000Y-53830000I0J-100000D01*
G01*
X206800000Y-54030000D01*
G75*
G02*
X206700000Y-54130000I-100000J0D01*
G01*
X205425000Y-54130000D01*
G75*
G02*
X205325000Y-54030000I0J100000D01*
G01*
G37*
G36*
G01*
X205325000Y-54680000D02*
X205325000Y-54480000D01*
G75*
G02*
X205425000Y-54380000I100000J0D01*
G01*
X206700000Y-54380000D01*
G75*
G02*
X206800000Y-54480000I0J-100000D01*
G01*
X206800000Y-54680000D01*
G75*
G02*
X206700000Y-54780000I-100000J0D01*
G01*
X205425000Y-54780000D01*
G75*
G02*
X205325000Y-54680000I0J100000D01*
G01*
G37*
G36*
G01*
X205325000Y-55330000D02*
X205325000Y-55130000D01*
G75*
G02*
X205425000Y-55030000I100000J0D01*
G01*
X206700000Y-55030000D01*
G75*
G02*
X206800000Y-55130000I0J-100000D01*
G01*
X206800000Y-55330000D01*
G75*
G02*
X206700000Y-55430000I-100000J0D01*
G01*
X205425000Y-55430000D01*
G75*
G02*
X205325000Y-55330000I0J100000D01*
G01*
G37*
G36*
G01*
X205325000Y-55980000D02*
X205325000Y-55780000D01*
G75*
G02*
X205425000Y-55680000I100000J0D01*
G01*
X206700000Y-55680000D01*
G75*
G02*
X206800000Y-55780000I0J-100000D01*
G01*
X206800000Y-55980000D01*
G75*
G02*
X206700000Y-56080000I-100000J0D01*
G01*
X205425000Y-56080000D01*
G75*
G02*
X205325000Y-55980000I0J100000D01*
G01*
G37*
G36*
G01*
X205325000Y-56630000D02*
X205325000Y-56430000D01*
G75*
G02*
X205425000Y-56330000I100000J0D01*
G01*
X206700000Y-56330000D01*
G75*
G02*
X206800000Y-56430000I0J-100000D01*
G01*
X206800000Y-56630000D01*
G75*
G02*
X206700000Y-56730000I-100000J0D01*
G01*
X205425000Y-56730000D01*
G75*
G02*
X205325000Y-56630000I0J100000D01*
G01*
G37*
G36*
G01*
X205325000Y-57280000D02*
X205325000Y-57080000D01*
G75*
G02*
X205425000Y-56980000I100000J0D01*
G01*
X206700000Y-56980000D01*
G75*
G02*
X206800000Y-57080000I0J-100000D01*
G01*
X206800000Y-57280000D01*
G75*
G02*
X206700000Y-57380000I-100000J0D01*
G01*
X205425000Y-57380000D01*
G75*
G02*
X205325000Y-57280000I0J100000D01*
G01*
G37*
G36*
G01*
X205325000Y-57930000D02*
X205325000Y-57730000D01*
G75*
G02*
X205425000Y-57630000I100000J0D01*
G01*
X206700000Y-57630000D01*
G75*
G02*
X206800000Y-57730000I0J-100000D01*
G01*
X206800000Y-57930000D01*
G75*
G02*
X206700000Y-58030000I-100000J0D01*
G01*
X205425000Y-58030000D01*
G75*
G02*
X205325000Y-57930000I0J100000D01*
G01*
G37*
G36*
G01*
X199600000Y-57930000D02*
X199600000Y-57730000D01*
G75*
G02*
X199700000Y-57630000I100000J0D01*
G01*
X200975000Y-57630000D01*
G75*
G02*
X201075000Y-57730000I0J-100000D01*
G01*
X201075000Y-57930000D01*
G75*
G02*
X200975000Y-58030000I-100000J0D01*
G01*
X199700000Y-58030000D01*
G75*
G02*
X199600000Y-57930000I0J100000D01*
G01*
G37*
G36*
G01*
X199600000Y-57280000D02*
X199600000Y-57080000D01*
G75*
G02*
X199700000Y-56980000I100000J0D01*
G01*
X200975000Y-56980000D01*
G75*
G02*
X201075000Y-57080000I0J-100000D01*
G01*
X201075000Y-57280000D01*
G75*
G02*
X200975000Y-57380000I-100000J0D01*
G01*
X199700000Y-57380000D01*
G75*
G02*
X199600000Y-57280000I0J100000D01*
G01*
G37*
G36*
G01*
X199600000Y-56630000D02*
X199600000Y-56430000D01*
G75*
G02*
X199700000Y-56330000I100000J0D01*
G01*
X200975000Y-56330000D01*
G75*
G02*
X201075000Y-56430000I0J-100000D01*
G01*
X201075000Y-56630000D01*
G75*
G02*
X200975000Y-56730000I-100000J0D01*
G01*
X199700000Y-56730000D01*
G75*
G02*
X199600000Y-56630000I0J100000D01*
G01*
G37*
G36*
G01*
X199600000Y-55980000D02*
X199600000Y-55780000D01*
G75*
G02*
X199700000Y-55680000I100000J0D01*
G01*
X200975000Y-55680000D01*
G75*
G02*
X201075000Y-55780000I0J-100000D01*
G01*
X201075000Y-55980000D01*
G75*
G02*
X200975000Y-56080000I-100000J0D01*
G01*
X199700000Y-56080000D01*
G75*
G02*
X199600000Y-55980000I0J100000D01*
G01*
G37*
G36*
G01*
X199600000Y-55330000D02*
X199600000Y-55130000D01*
G75*
G02*
X199700000Y-55030000I100000J0D01*
G01*
X200975000Y-55030000D01*
G75*
G02*
X201075000Y-55130000I0J-100000D01*
G01*
X201075000Y-55330000D01*
G75*
G02*
X200975000Y-55430000I-100000J0D01*
G01*
X199700000Y-55430000D01*
G75*
G02*
X199600000Y-55330000I0J100000D01*
G01*
G37*
G36*
G01*
X199600000Y-54680000D02*
X199600000Y-54480000D01*
G75*
G02*
X199700000Y-54380000I100000J0D01*
G01*
X200975000Y-54380000D01*
G75*
G02*
X201075000Y-54480000I0J-100000D01*
G01*
X201075000Y-54680000D01*
G75*
G02*
X200975000Y-54780000I-100000J0D01*
G01*
X199700000Y-54780000D01*
G75*
G02*
X199600000Y-54680000I0J100000D01*
G01*
G37*
G36*
G01*
X199600000Y-54030000D02*
X199600000Y-53830000D01*
G75*
G02*
X199700000Y-53730000I100000J0D01*
G01*
X200975000Y-53730000D01*
G75*
G02*
X201075000Y-53830000I0J-100000D01*
G01*
X201075000Y-54030000D01*
G75*
G02*
X200975000Y-54130000I-100000J0D01*
G01*
X199700000Y-54130000D01*
G75*
G02*
X199600000Y-54030000I0J100000D01*
G01*
G37*
%TD*%
D20*
%TO.C,RV2*%
X187438000Y-50038000D03*
X197038000Y-50038000D03*
D21*
X194738000Y-57538000D03*
X192238000Y-57538000D03*
D22*
X189738000Y-57538000D03*
%TD*%
D20*
%TO.C,RV1*%
X209282000Y-50158000D03*
X218882000Y-50158000D03*
D21*
X216582000Y-57658000D03*
X214082000Y-57658000D03*
D22*
X211582000Y-57658000D03*
%TD*%
D10*
%TO.C,R11*%
X209804000Y-110998000D03*
D11*
X217424000Y-110998000D03*
%TD*%
D10*
%TO.C,R10*%
X199644000Y-110998000D03*
D11*
X207264000Y-110998000D03*
%TD*%
D10*
%TO.C,R9*%
X189484000Y-110998000D03*
D11*
X197104000Y-110998000D03*
%TD*%
D10*
%TO.C,R8*%
X179324000Y-110998000D03*
D11*
X186944000Y-110998000D03*
%TD*%
D10*
%TO.C,R7*%
X183896000Y-53594000D03*
D11*
X183896000Y-45974000D03*
%TD*%
D10*
%TO.C,R6*%
X226822000Y-53340000D03*
D11*
X226822000Y-45720000D03*
%TD*%
D10*
%TO.C,R5*%
X209804000Y-40386000D03*
D11*
X217424000Y-40386000D03*
%TD*%
D10*
%TO.C,R4*%
X200914000Y-51816000D03*
D11*
X200914000Y-44196000D03*
%TD*%
D10*
%TO.C,R3*%
X205486000Y-44196000D03*
D11*
X205486000Y-51816000D03*
%TD*%
D10*
%TO.C,R2*%
X180594000Y-53594000D03*
D11*
X180594000Y-45974000D03*
%TD*%
D10*
%TO.C,R1*%
X223266000Y-45720000D03*
D11*
X223266000Y-53340000D03*
%TD*%
D23*
%TO.C,Q2*%
X179324000Y-41402000D03*
D24*
X181864000Y-41402000D03*
X180594000Y-41402000D03*
%TD*%
D23*
%TO.C,Q1*%
X224536000Y-41402000D03*
D24*
X227076000Y-41402000D03*
X225806000Y-41402000D03*
%TD*%
D12*
%TO.C,J10*%
X213614000Y-125446000D03*
D13*
X213614000Y-114046000D03*
D12*
X213614000Y-117146000D03*
%TD*%
%TO.C,J9*%
X203454000Y-125446000D03*
D13*
X203454000Y-114046000D03*
D12*
X203454000Y-117146000D03*
%TD*%
%TO.C,J8*%
X193294000Y-125446000D03*
D13*
X193294000Y-114046000D03*
D12*
X193294000Y-117146000D03*
%TD*%
%TO.C,J7*%
X183134000Y-125446000D03*
D13*
X183134000Y-114046000D03*
D12*
X183134000Y-117146000D03*
%TD*%
%TO.C,J5*%
X203200000Y-37054000D03*
D13*
X203200000Y-25654000D03*
D12*
X203200000Y-28754000D03*
%TD*%
%TO.C,J4*%
X182880000Y-37054000D03*
D13*
X182880000Y-25654000D03*
D12*
X182880000Y-28754000D03*
%TD*%
%TO.C,J3*%
X193040000Y-37054000D03*
D13*
X193040000Y-25654000D03*
D12*
X193040000Y-28754000D03*
%TD*%
D10*
%TO.C,D2*%
X194310000Y-43434000D03*
D25*
X186690000Y-43434000D03*
%TD*%
D10*
%TO.C,D1*%
X211836000Y-43434000D03*
D25*
X219456000Y-43434000D03*
%TD*%
D14*
%TO.C,C5*%
X202050000Y-85852000D03*
X209550000Y-85852000D03*
%TD*%
D11*
%TO.C,C4*%
X192278000Y-101814000D03*
D25*
X192278000Y-99314000D03*
%TD*%
D11*
%TO.C,C3*%
X192278000Y-94234000D03*
D25*
X192278000Y-91734000D03*
%TD*%
D14*
%TO.C,C2*%
X199270000Y-85852000D03*
X191770000Y-85852000D03*
%TD*%
%TO.C,C1*%
X181222000Y-85852000D03*
X188722000Y-85852000D03*
%TD*%
D10*
%TO.C,A1*%
X186944000Y-61214000D03*
X186944000Y-76454000D03*
X222504000Y-61214000D03*
X189484000Y-76454000D03*
X219964000Y-61214000D03*
X192024000Y-76454000D03*
X217424000Y-61214000D03*
X194564000Y-76454000D03*
X214884000Y-61214000D03*
X197104000Y-76454000D03*
X212344000Y-61214000D03*
X199644000Y-76454000D03*
X209804000Y-61214000D03*
X202184000Y-76454000D03*
X207264000Y-61214000D03*
X204724000Y-76454000D03*
X204724000Y-61214000D03*
X207264000Y-76454000D03*
X202184000Y-61214000D03*
X209804000Y-76454000D03*
X199644000Y-61214000D03*
X212344000Y-76454000D03*
X197104000Y-61214000D03*
X214884000Y-76454000D03*
X194564000Y-61214000D03*
X217424000Y-76454000D03*
X192024000Y-61214000D03*
X219964000Y-76454000D03*
X189484000Y-61214000D03*
D25*
X222504000Y-76454000D03*
%TD*%
M02*
