%TF.GenerationSoftware,KiCad,Pcbnew,6.0.4-1.fc35*%
%TF.CreationDate,2022-07-20T22:04:06-04:00*%
%TF.ProjectId,vccg,76636367-2e6b-4696-9361-645f70636258,rev?*%
%TF.SameCoordinates,Original*%
%TF.FileFunction,Copper,L4,Bot*%
%TF.FilePolarity,Positive*%
%FSLAX46Y46*%
G04 Gerber Fmt 4.6, Leading zero omitted, Abs format (unit mm)*
G04 Created by KiCad (PCBNEW 6.0.4-1.fc35) date 2022-07-20 22:04:06*
%MOMM*%
%LPD*%
G01*
G04 APERTURE LIST*
%TA.AperFunction,ComponentPad*%
%ADD10C,3.240000*%
%TD*%
%TA.AperFunction,ComponentPad*%
%ADD11R,1.800000X1.800000*%
%TD*%
%TA.AperFunction,ComponentPad*%
%ADD12C,1.800000*%
%TD*%
%TA.AperFunction,ComponentPad*%
%ADD13R,1.930000X1.830000*%
%TD*%
%TA.AperFunction,ComponentPad*%
%ADD14C,2.130000*%
%TD*%
%TA.AperFunction,ComponentPad*%
%ADD15R,1.700000X1.700000*%
%TD*%
%TA.AperFunction,ComponentPad*%
%ADD16O,1.700000X1.700000*%
%TD*%
%TA.AperFunction,ComponentPad*%
%ADD17O,2.150000X0.900000*%
%TD*%
%TA.AperFunction,ViaPad*%
%ADD18C,0.800000*%
%TD*%
%TA.AperFunction,Conductor*%
%ADD19C,0.508000*%
%TD*%
%TA.AperFunction,Conductor*%
%ADD20C,0.200000*%
%TD*%
%TA.AperFunction,Conductor*%
%ADD21C,0.254000*%
%TD*%
G04 APERTURE END LIST*
D10*
%TO.P,RV2,*%
%TO.N,*%
X179959600Y-44534600D03*
X189559600Y-44534600D03*
D11*
%TO.P,RV2,1,1*%
%TO.N,GND*%
X182259600Y-52034600D03*
D12*
%TO.P,RV2,2,2*%
%TO.N,Net-(RV2-Pad2)*%
X184759600Y-52034600D03*
%TO.P,RV2,3,3*%
%TO.N,Net-(J2-PadT)*%
X187259600Y-52034600D03*
%TD*%
D13*
%TO.P,J3,S*%
%TO.N,GND*%
X203200000Y-26200000D03*
D14*
%TO.P,J3,T*%
%TO.N,Net-(J3-PadT)*%
X203200000Y-37600000D03*
%TO.P,J3,TN*%
%TO.N,unconnected-(J3-PadTN)*%
X203200000Y-29300000D03*
%TD*%
D13*
%TO.P,J10,S*%
%TO.N,GND*%
X203200000Y-114020000D03*
D14*
%TO.P,J10,T*%
%TO.N,Net-(J10-PadT)*%
X203200000Y-125420000D03*
%TO.P,J10,TN*%
%TO.N,unconnected-(J10-PadTN)*%
X203200000Y-117120000D03*
%TD*%
D13*
%TO.P,J11,S*%
%TO.N,GND*%
X183000000Y-114020000D03*
D14*
%TO.P,J11,T*%
%TO.N,Net-(J11-PadT)*%
X183000000Y-125420000D03*
%TO.P,J11,TN*%
%TO.N,unconnected-(J11-PadTN)*%
X183000000Y-117120000D03*
%TD*%
D15*
%TO.P,J6,1,Pin_1*%
%TO.N,+12V*%
X184975000Y-95295000D03*
D16*
%TO.P,J6,2,Pin_2*%
X182435000Y-95295000D03*
%TO.P,J6,3,Pin_3*%
%TO.N,GND*%
X184975000Y-97835000D03*
%TO.P,J6,4,Pin_4*%
X182435000Y-97835000D03*
%TO.P,J6,5,Pin_5*%
X184975000Y-100375000D03*
%TO.P,J6,6,Pin_6*%
X182435000Y-100375000D03*
%TO.P,J6,7,Pin_7*%
X184975000Y-102915000D03*
%TO.P,J6,8,Pin_8*%
X182435000Y-102915000D03*
%TO.P,J6,9,Pin_9*%
%TO.N,-12V*%
X184975000Y-105455000D03*
%TO.P,J6,10,Pin_10*%
X182435000Y-105455000D03*
%TD*%
D13*
%TO.P,J2,S*%
%TO.N,GND*%
X183000000Y-26200000D03*
D14*
%TO.P,J2,T*%
%TO.N,Net-(J2-PadT)*%
X183000000Y-37600000D03*
%TO.P,J2,TN*%
%TO.N,Net-(J2-PadTN)*%
X183000000Y-29300000D03*
%TD*%
D15*
%TO.P,J7,1,Pin_1*%
%TO.N,SDIO*%
X211055000Y-88260000D03*
D16*
%TO.P,J7,2,Pin_2*%
%TO.N,GND*%
X213595000Y-88260000D03*
%TO.P,J7,3,Pin_3*%
%TO.N,SWCLK*%
X216135000Y-88260000D03*
%TD*%
D17*
%TO.P,J8,6,Shield*%
%TO.N,GND*%
X179295000Y-87305400D03*
X179295000Y-81655400D03*
%TD*%
D15*
%TO.P,J9,1,Pin_1*%
%TO.N,SDA1*%
X206451200Y-64439800D03*
D16*
%TO.P,J9,2,Pin_2*%
%TO.N,SCL1*%
X203911200Y-64439800D03*
%TO.P,J9,3,Pin_3*%
%TO.N,+3V3*%
X201371200Y-64439800D03*
%TO.P,J9,4,Pin_4*%
%TO.N,GND*%
X198831200Y-64439800D03*
%TD*%
D14*
%TO.P,J5,TN*%
%TO.N,defaultClock*%
X213300000Y-29320000D03*
%TO.P,J5,T*%
%TO.N,Net-(J5-PadT)*%
X213300000Y-37620000D03*
D13*
%TO.P,J5,S*%
%TO.N,GND*%
X213300000Y-26220000D03*
%TD*%
%TO.P,J13,S*%
%TO.N,GND*%
X213300000Y-114020000D03*
D14*
%TO.P,J13,T*%
%TO.N,Net-(J13-PadT)*%
X213300000Y-125420000D03*
%TO.P,J13,TN*%
%TO.N,unconnected-(J13-PadTN)*%
X213300000Y-117120000D03*
%TD*%
%TO.P,J4,TN*%
%TO.N,defaultClock*%
X223400000Y-29300000D03*
%TO.P,J4,T*%
%TO.N,Net-(J4-PadT)*%
X223400000Y-37600000D03*
D13*
%TO.P,J4,S*%
%TO.N,GND*%
X223400000Y-26200000D03*
%TD*%
D10*
%TO.P,RV1,*%
%TO.N,*%
X204429400Y-44595400D03*
X194829400Y-44595400D03*
D11*
%TO.P,RV1,1,1*%
%TO.N,GND*%
X197129400Y-52095400D03*
D12*
%TO.P,RV1,2,2*%
%TO.N,Net-(RV1-Pad2)*%
X199629400Y-52095400D03*
%TO.P,RV1,3,3*%
%TO.N,Net-(J1-PadT)*%
X202129400Y-52095400D03*
%TD*%
D13*
%TO.P,J1,S*%
%TO.N,GND*%
X193100000Y-26220000D03*
D14*
%TO.P,J1,T*%
%TO.N,Net-(J1-PadT)*%
X193100000Y-37620000D03*
%TO.P,J1,TN*%
%TO.N,Net-(J1-PadTN)*%
X193100000Y-29320000D03*
%TD*%
D13*
%TO.P,J12,S*%
%TO.N,GND*%
X193100000Y-114020000D03*
D14*
%TO.P,J12,T*%
%TO.N,Net-(J12-PadT)*%
X193100000Y-125420000D03*
%TO.P,J12,TN*%
%TO.N,unconnected-(J12-PadTN)*%
X193100000Y-117120000D03*
%TD*%
D18*
%TO.N,SDIO*%
X211074000Y-85852000D03*
X211074000Y-82804000D03*
%TO.N,+3V3*%
X206502000Y-70866000D03*
X192480000Y-81260000D03*
%TO.N,GPIO_24*%
X190560000Y-84150000D03*
%TO.N,GND*%
X204100000Y-77680000D03*
X202510000Y-79390000D03*
X205400000Y-79360000D03*
X205600000Y-76310000D03*
X202580000Y-76310000D03*
%TO.N,USB_D+*%
X189440000Y-82400000D03*
%TO.N,USB_D-*%
X188620000Y-81670000D03*
X206390000Y-72590000D03*
%TO.N,USB_D+*%
X205240000Y-71940000D03*
%TO.N,QSPI_SS*%
X186070000Y-76290000D03*
%TO.N,QSPI_SD1*%
X187425000Y-76195000D03*
X190270000Y-73170000D03*
%TO.N,QSPI_SS*%
X189920000Y-74880000D03*
%TO.N,+12V*%
X179650000Y-92540000D03*
X180340000Y-79502000D03*
%TO.N,+3V3*%
X213720000Y-76230000D03*
%TO.N,SCL1*%
X195270000Y-73390000D03*
%TO.N,SDA1*%
X196580000Y-73270000D03*
%TO.N,melody*%
X207935000Y-67545000D03*
X204200000Y-57460000D03*
%TO.N,GPIO_24*%
X210250000Y-77220000D03*
%TO.N,+12V*%
X199000000Y-93430000D03*
%TO.N,Net-(R21-Pad1)*%
X203200000Y-111700000D03*
X219280000Y-93220000D03*
%TO.N,+3V3*%
X198480000Y-85750000D03*
%TO.N,SDA0*%
X195930000Y-81260000D03*
%TO.N,GND*%
X189730000Y-65080000D03*
X187870000Y-64710000D03*
X186050000Y-65190000D03*
X186340000Y-55640000D03*
X180160000Y-55510000D03*
%TO.N,+3V3*%
X184450000Y-68140000D03*
X190990000Y-68090000D03*
X193940000Y-76920000D03*
X193990000Y-75360000D03*
X197660000Y-74130000D03*
X207131500Y-87049400D03*
X198010000Y-79720000D03*
%TO.N,SDA0*%
X197775000Y-81275000D03*
%TO.N,GND*%
X195072000Y-87884000D03*
%TO.N,melodyClock*%
X213090000Y-68900000D03*
X211650000Y-77100000D03*
%TO.N,GND*%
X214620000Y-69350000D03*
%TO.N,+1V1*%
X202220000Y-69670000D03*
X207670000Y-69680000D03*
X205098553Y-83702347D03*
%TO.N,GND*%
X184910000Y-89390000D03*
X182430000Y-89720000D03*
X182820000Y-87670000D03*
X179250000Y-85650000D03*
X179280000Y-83390000D03*
X182940000Y-81280000D03*
X189840000Y-79780000D03*
X192800000Y-79310000D03*
X199780000Y-82640000D03*
X199921500Y-86049400D03*
X201811500Y-85849400D03*
X207518000Y-88900000D03*
X213000000Y-85550000D03*
X209581500Y-85599400D03*
X209761500Y-84029400D03*
X216370000Y-76920000D03*
X213830000Y-77360000D03*
X210980000Y-72290000D03*
X197780000Y-72720000D03*
X206470000Y-67080000D03*
X204940000Y-67130000D03*
X203430000Y-67120000D03*
%TO.N,Net-(R1-Pad1)*%
X219090000Y-66228400D03*
X219140000Y-73700000D03*
X219090000Y-81300000D03*
%TO.N,+12V*%
X221840000Y-89920000D03*
X223010000Y-96970000D03*
%TO.N,Net-(R19-Pad1)*%
X180110000Y-109790000D03*
X218400000Y-98230000D03*
%TO.N,GND*%
X214780000Y-101850000D03*
X211660000Y-99310000D03*
X211540000Y-92580000D03*
X214820000Y-95030000D03*
X225450000Y-91060000D03*
X225720000Y-97410000D03*
X222570000Y-117600000D03*
%TO.N,+3V3*%
X222530000Y-112830000D03*
%TO.N,GND*%
X186710000Y-111570000D03*
X185190000Y-111580000D03*
X183640000Y-111590000D03*
X182220000Y-111590000D03*
X198750000Y-99140000D03*
X198750000Y-97740000D03*
X198750000Y-96480000D03*
X198750000Y-95270000D03*
X191450000Y-92090000D03*
X190020000Y-93600000D03*
%TO.N,+3V3*%
X197890000Y-107420000D03*
X196040000Y-106870000D03*
X195850000Y-103070000D03*
X194520000Y-106860000D03*
X194460000Y-103070000D03*
X189960000Y-97820000D03*
X193720000Y-97820000D03*
X194420000Y-93580000D03*
X193010000Y-92260000D03*
%TO.N,GND*%
X203700000Y-56030000D03*
X204490000Y-59740000D03*
X213240000Y-59740000D03*
%TO.N,+3V3*%
X191480000Y-57170000D03*
X189890000Y-57140000D03*
X220640000Y-63260000D03*
X194750000Y-59840000D03*
X213370000Y-55920000D03*
%TO.N,GND*%
X211320000Y-42970000D03*
X209850000Y-40530000D03*
%TO.N,+3V3*%
X219050000Y-41900000D03*
%TO.N,GND*%
X220925000Y-42975000D03*
X219825000Y-40550000D03*
%TO.N,+3V3*%
X226225000Y-42300000D03*
%TD*%
D19*
%TO.N,+12V*%
X180340000Y-79502000D02*
X182472000Y-79502000D01*
X182472000Y-79502000D02*
X183793511Y-80823511D01*
X183793511Y-80823511D02*
X183793511Y-85188240D01*
X183793511Y-85188240D02*
X179650000Y-89331751D01*
X179650000Y-89331751D02*
X179650000Y-92540000D01*
D20*
%TO.N,SDA1*%
X206451200Y-64439800D02*
X205011000Y-65880000D01*
X205011000Y-65880000D02*
X203106000Y-65880000D01*
X203106000Y-65880000D02*
X196580000Y-72406000D01*
X196580000Y-72406000D02*
X196580000Y-73270000D01*
%TO.N,SDIO*%
X211074000Y-82804000D02*
X211074000Y-85852000D01*
%TO.N,GPIO_24*%
X190560000Y-84150000D02*
X191246000Y-84836000D01*
X191246000Y-84836000D02*
X207518000Y-84836000D01*
X207518000Y-84836000D02*
X211836000Y-80518000D01*
X211836000Y-78806000D02*
X210250000Y-77220000D01*
X211836000Y-80518000D02*
X211836000Y-78806000D01*
%TO.N,+1V1*%
X208960000Y-70970000D02*
X208960000Y-75356000D01*
X208960000Y-75356000D02*
X208960000Y-76789259D01*
X208960000Y-76789259D02*
X204724000Y-81025259D01*
X204724000Y-81025259D02*
X204724000Y-83327794D01*
X204724000Y-83327794D02*
X205098553Y-83702347D01*
%TO.N,USB_D-*%
X188620000Y-81670000D02*
X189450740Y-81670000D01*
X196095483Y-80009511D02*
X204864505Y-71240489D01*
X204864505Y-71240489D02*
X205529748Y-71240489D01*
X189450740Y-81670000D02*
X191111229Y-80009511D01*
X206390000Y-72100741D02*
X206390000Y-72590000D01*
X191111229Y-80009511D02*
X196095483Y-80009511D01*
X205529748Y-71240489D02*
X206390000Y-72100741D01*
%TO.N,USB_D+*%
X189440000Y-82400000D02*
X191279511Y-80560489D01*
X191279511Y-80560489D02*
X196109511Y-80560489D01*
X196109511Y-80560489D02*
X204730000Y-71940000D01*
X204730000Y-71940000D02*
X205240000Y-71940000D01*
%TO.N,QSPI_SS*%
X189920000Y-74880000D02*
X189920000Y-76030000D01*
X189920000Y-76030000D02*
X188880000Y-77070000D01*
X186070000Y-76470000D02*
X186070000Y-76290000D01*
X188880000Y-77070000D02*
X186670000Y-77070000D01*
X186670000Y-77070000D02*
X186070000Y-76470000D01*
%TO.N,QSPI_SD1*%
X187425000Y-76195000D02*
X190270000Y-73350000D01*
X190270000Y-73350000D02*
X190270000Y-73170000D01*
%TO.N,+1V1*%
X207670000Y-69680000D02*
X208960000Y-70970000D01*
X202220000Y-69670000D02*
X207660000Y-69670000D01*
X207660000Y-69670000D02*
X207670000Y-69680000D01*
%TO.N,SCL1*%
X195270000Y-73390000D02*
X195270000Y-73081000D01*
X195270000Y-73081000D02*
X203911200Y-64439800D01*
%TO.N,melody*%
X207935000Y-67545000D02*
X207935000Y-61195000D01*
X207935000Y-61195000D02*
X204200000Y-57460000D01*
D19*
%TO.N,+12V*%
X199000000Y-93430000D02*
X206890000Y-93430000D01*
X206890000Y-93430000D02*
X210400000Y-89920000D01*
X210400000Y-89920000D02*
X221840000Y-89920000D01*
D20*
%TO.N,Net-(R21-Pad1)*%
X207243190Y-111700000D02*
X203200000Y-111700000D01*
X219280000Y-99663190D02*
X207243190Y-111700000D01*
X219280000Y-93220000D02*
X219280000Y-99663190D01*
%TO.N,SDA0*%
X195930000Y-81260000D02*
X197760000Y-81260000D01*
X197760000Y-81260000D02*
X197775000Y-81275000D01*
%TO.N,melodyClock*%
X213090000Y-68900000D02*
X213090000Y-75660000D01*
X213090000Y-75660000D02*
X211650000Y-77100000D01*
D21*
%TO.N,Net-(R1-Pad1)*%
X219140000Y-73700000D02*
X219140000Y-66278400D01*
X219140000Y-66278400D02*
X219090000Y-66228400D01*
X219090000Y-81300000D02*
X219090000Y-73750000D01*
X219090000Y-73750000D02*
X219140000Y-73700000D01*
%TO.N,+12V*%
X221840000Y-89920000D02*
X223010000Y-91090000D01*
X223010000Y-91090000D02*
X223010000Y-96970000D01*
%TO.N,Net-(R19-Pad1)*%
X218400000Y-98230000D02*
X218400000Y-99940000D01*
X180150000Y-109750000D02*
X180110000Y-109790000D01*
X218400000Y-99940000D02*
X208590000Y-109750000D01*
X208590000Y-109750000D02*
X180150000Y-109750000D01*
%TD*%
M02*
