%TF.GenerationSoftware,KiCad,Pcbnew,5.1.10-1.fc33*%
%TF.CreationDate,2021-10-13T17:20:41-04:00*%
%TF.ProjectId,vccg,76636367-2e6b-4696-9361-645f70636258,rev?*%
%TF.SameCoordinates,Original*%
%TF.FileFunction,Legend,Bot*%
%TF.FilePolarity,Positive*%
%FSLAX46Y46*%
G04 Gerber Fmt 4.6, Leading zero omitted, Abs format (unit mm)*
G04 Created by KiCad (PCBNEW 5.1.10-1.fc33) date 2021-10-13 17:20:41*
%MOMM*%
%LPD*%
G01*
G04 APERTURE LIST*
%ADD10C,0.300000*%
%ADD11C,0.150000*%
%ADD12C,0.120000*%
G04 APERTURE END LIST*
D10*
X206642857Y-90828571D02*
X206285714Y-91828571D01*
X205928571Y-90828571D01*
X205071428Y-90328571D02*
X204928571Y-90328571D01*
X204785714Y-90400000D01*
X204714285Y-90471428D01*
X204642857Y-90614285D01*
X204571428Y-90900000D01*
X204571428Y-91257142D01*
X204642857Y-91542857D01*
X204714285Y-91685714D01*
X204785714Y-91757142D01*
X204928571Y-91828571D01*
X205071428Y-91828571D01*
X205214285Y-91757142D01*
X205285714Y-91685714D01*
X205357142Y-91542857D01*
X205428571Y-91257142D01*
X205428571Y-90900000D01*
X205357142Y-90614285D01*
X205285714Y-90471428D01*
X205214285Y-90400000D01*
X205071428Y-90328571D01*
X203928571Y-91685714D02*
X203857142Y-91757142D01*
X203928571Y-91828571D01*
X204000000Y-91757142D01*
X203928571Y-91685714D01*
X203928571Y-91828571D01*
X203285714Y-90471428D02*
X203214285Y-90400000D01*
X203071428Y-90328571D01*
X202714285Y-90328571D01*
X202571428Y-90400000D01*
X202500000Y-90471428D01*
X202428571Y-90614285D01*
X202428571Y-90757142D01*
X202500000Y-90971428D01*
X203357142Y-91828571D01*
X202428571Y-91828571D01*
D11*
X216144380Y-88606380D02*
X215811047Y-89606380D01*
X215477714Y-88606380D01*
X215001523Y-89606380D02*
X215096761Y-89558761D01*
X215144380Y-89511142D01*
X215192000Y-89415904D01*
X215192000Y-89130190D01*
X215144380Y-89034952D01*
X215096761Y-88987333D01*
X215001523Y-88939714D01*
X214858666Y-88939714D01*
X214763428Y-88987333D01*
X214715809Y-89034952D01*
X214668190Y-89130190D01*
X214668190Y-89415904D01*
X214715809Y-89511142D01*
X214763428Y-89558761D01*
X214858666Y-89606380D01*
X215001523Y-89606380D01*
X214096761Y-89606380D02*
X214192000Y-89558761D01*
X214239619Y-89463523D01*
X214239619Y-88606380D01*
X213858666Y-88939714D02*
X213477714Y-88939714D01*
X213715809Y-88606380D02*
X213715809Y-89463523D01*
X213668190Y-89558761D01*
X213572952Y-89606380D01*
X213477714Y-89606380D01*
X212715809Y-89606380D02*
X212715809Y-89082571D01*
X212763428Y-88987333D01*
X212858666Y-88939714D01*
X213049142Y-88939714D01*
X213144380Y-88987333D01*
X212715809Y-89558761D02*
X212811047Y-89606380D01*
X213049142Y-89606380D01*
X213144380Y-89558761D01*
X213192000Y-89463523D01*
X213192000Y-89368285D01*
X213144380Y-89273047D01*
X213049142Y-89225428D01*
X212811047Y-89225428D01*
X212715809Y-89177809D01*
X211811047Y-88939714D02*
X211811047Y-89749238D01*
X211858666Y-89844476D01*
X211906285Y-89892095D01*
X212001523Y-89939714D01*
X212144380Y-89939714D01*
X212239619Y-89892095D01*
X211811047Y-89558761D02*
X211906285Y-89606380D01*
X212096761Y-89606380D01*
X212192000Y-89558761D01*
X212239619Y-89511142D01*
X212287238Y-89415904D01*
X212287238Y-89130190D01*
X212239619Y-89034952D01*
X212192000Y-88987333D01*
X212096761Y-88939714D01*
X211906285Y-88939714D01*
X211811047Y-88987333D01*
X210953904Y-89558761D02*
X211049142Y-89606380D01*
X211239619Y-89606380D01*
X211334857Y-89558761D01*
X211382476Y-89463523D01*
X211382476Y-89082571D01*
X211334857Y-88987333D01*
X211239619Y-88939714D01*
X211049142Y-88939714D01*
X210953904Y-88987333D01*
X210906285Y-89082571D01*
X210906285Y-89177809D01*
X211382476Y-89273047D01*
X209144380Y-89511142D02*
X209192000Y-89558761D01*
X209334857Y-89606380D01*
X209430095Y-89606380D01*
X209572952Y-89558761D01*
X209668190Y-89463523D01*
X209715809Y-89368285D01*
X209763428Y-89177809D01*
X209763428Y-89034952D01*
X209715809Y-88844476D01*
X209668190Y-88749238D01*
X209572952Y-88654000D01*
X209430095Y-88606380D01*
X209334857Y-88606380D01*
X209192000Y-88654000D01*
X209144380Y-88701619D01*
X208572952Y-89606380D02*
X208668190Y-89558761D01*
X208715809Y-89511142D01*
X208763428Y-89415904D01*
X208763428Y-89130190D01*
X208715809Y-89034952D01*
X208668190Y-88987333D01*
X208572952Y-88939714D01*
X208430095Y-88939714D01*
X208334857Y-88987333D01*
X208287238Y-89034952D01*
X208239619Y-89130190D01*
X208239619Y-89415904D01*
X208287238Y-89511142D01*
X208334857Y-89558761D01*
X208430095Y-89606380D01*
X208572952Y-89606380D01*
X207811047Y-88939714D02*
X207811047Y-89606380D01*
X207811047Y-89034952D02*
X207763428Y-88987333D01*
X207668190Y-88939714D01*
X207525333Y-88939714D01*
X207430095Y-88987333D01*
X207382476Y-89082571D01*
X207382476Y-89606380D01*
X207049142Y-88939714D02*
X206668190Y-88939714D01*
X206906285Y-88606380D02*
X206906285Y-89463523D01*
X206858666Y-89558761D01*
X206763428Y-89606380D01*
X206668190Y-89606380D01*
X206334857Y-89606380D02*
X206334857Y-88939714D01*
X206334857Y-89130190D02*
X206287238Y-89034952D01*
X206239619Y-88987333D01*
X206144380Y-88939714D01*
X206049142Y-88939714D01*
X205572952Y-89606380D02*
X205668190Y-89558761D01*
X205715809Y-89511142D01*
X205763428Y-89415904D01*
X205763428Y-89130190D01*
X205715809Y-89034952D01*
X205668190Y-88987333D01*
X205572952Y-88939714D01*
X205430095Y-88939714D01*
X205334857Y-88987333D01*
X205287238Y-89034952D01*
X205239619Y-89130190D01*
X205239619Y-89415904D01*
X205287238Y-89511142D01*
X205334857Y-89558761D01*
X205430095Y-89606380D01*
X205572952Y-89606380D01*
X204668190Y-89606380D02*
X204763428Y-89558761D01*
X204811047Y-89463523D01*
X204811047Y-88606380D01*
X204144380Y-89606380D02*
X204239619Y-89558761D01*
X204287238Y-89463523D01*
X204287238Y-88606380D01*
X203382476Y-89558761D02*
X203477714Y-89606380D01*
X203668190Y-89606380D01*
X203763428Y-89558761D01*
X203811047Y-89463523D01*
X203811047Y-89082571D01*
X203763428Y-88987333D01*
X203668190Y-88939714D01*
X203477714Y-88939714D01*
X203382476Y-88987333D01*
X203334857Y-89082571D01*
X203334857Y-89177809D01*
X203811047Y-89273047D01*
X202477714Y-89606380D02*
X202477714Y-88606380D01*
X202477714Y-89558761D02*
X202572952Y-89606380D01*
X202763428Y-89606380D01*
X202858666Y-89558761D01*
X202906285Y-89511142D01*
X202953904Y-89415904D01*
X202953904Y-89130190D01*
X202906285Y-89034952D01*
X202858666Y-88987333D01*
X202763428Y-88939714D01*
X202572952Y-88939714D01*
X202477714Y-88987333D01*
X200668190Y-89511142D02*
X200715809Y-89558761D01*
X200858666Y-89606380D01*
X200953904Y-89606380D01*
X201096761Y-89558761D01*
X201192000Y-89463523D01*
X201239619Y-89368285D01*
X201287238Y-89177809D01*
X201287238Y-89034952D01*
X201239619Y-88844476D01*
X201192000Y-88749238D01*
X201096761Y-88654000D01*
X200953904Y-88606380D01*
X200858666Y-88606380D01*
X200715809Y-88654000D01*
X200668190Y-88701619D01*
X200239619Y-89606380D02*
X200239619Y-88606380D01*
X199811047Y-89606380D02*
X199811047Y-89082571D01*
X199858666Y-88987333D01*
X199953904Y-88939714D01*
X200096761Y-88939714D01*
X200192000Y-88987333D01*
X200239619Y-89034952D01*
X199192000Y-89606380D02*
X199287238Y-89558761D01*
X199334857Y-89511142D01*
X199382476Y-89415904D01*
X199382476Y-89130190D01*
X199334857Y-89034952D01*
X199287238Y-88987333D01*
X199192000Y-88939714D01*
X199049142Y-88939714D01*
X198953904Y-88987333D01*
X198906285Y-89034952D01*
X198858666Y-89130190D01*
X198858666Y-89415904D01*
X198906285Y-89511142D01*
X198953904Y-89558761D01*
X199049142Y-89606380D01*
X199192000Y-89606380D01*
X198430095Y-89606380D02*
X198430095Y-88939714D01*
X198430095Y-89130190D02*
X198382476Y-89034952D01*
X198334857Y-88987333D01*
X198239619Y-88939714D01*
X198144380Y-88939714D01*
X197382476Y-89606380D02*
X197382476Y-88606380D01*
X197382476Y-89558761D02*
X197477714Y-89606380D01*
X197668190Y-89606380D01*
X197763428Y-89558761D01*
X197811047Y-89511142D01*
X197858666Y-89415904D01*
X197858666Y-89130190D01*
X197811047Y-89034952D01*
X197763428Y-88987333D01*
X197668190Y-88939714D01*
X197477714Y-88939714D01*
X197382476Y-88987333D01*
X195620571Y-88654000D02*
X195715809Y-88606380D01*
X195858666Y-88606380D01*
X196001523Y-88654000D01*
X196096761Y-88749238D01*
X196144380Y-88844476D01*
X196192000Y-89034952D01*
X196192000Y-89177809D01*
X196144380Y-89368285D01*
X196096761Y-89463523D01*
X196001523Y-89558761D01*
X195858666Y-89606380D01*
X195763428Y-89606380D01*
X195620571Y-89558761D01*
X195572952Y-89511142D01*
X195572952Y-89177809D01*
X195763428Y-89177809D01*
X194763428Y-89558761D02*
X194858666Y-89606380D01*
X195049142Y-89606380D01*
X195144380Y-89558761D01*
X195192000Y-89463523D01*
X195192000Y-89082571D01*
X195144380Y-88987333D01*
X195049142Y-88939714D01*
X194858666Y-88939714D01*
X194763428Y-88987333D01*
X194715809Y-89082571D01*
X194715809Y-89177809D01*
X195192000Y-89273047D01*
X194287238Y-88939714D02*
X194287238Y-89606380D01*
X194287238Y-89034952D02*
X194239619Y-88987333D01*
X194144380Y-88939714D01*
X194001523Y-88939714D01*
X193906285Y-88987333D01*
X193858666Y-89082571D01*
X193858666Y-89606380D01*
X193001523Y-89558761D02*
X193096761Y-89606380D01*
X193287238Y-89606380D01*
X193382476Y-89558761D01*
X193430095Y-89463523D01*
X193430095Y-89082571D01*
X193382476Y-88987333D01*
X193287238Y-88939714D01*
X193096761Y-88939714D01*
X193001523Y-88987333D01*
X192953904Y-89082571D01*
X192953904Y-89177809D01*
X193430095Y-89273047D01*
X192525333Y-89606380D02*
X192525333Y-88939714D01*
X192525333Y-89130190D02*
X192477714Y-89034952D01*
X192430095Y-88987333D01*
X192334857Y-88939714D01*
X192239619Y-88939714D01*
X191477714Y-89606380D02*
X191477714Y-89082571D01*
X191525333Y-88987333D01*
X191620571Y-88939714D01*
X191811047Y-88939714D01*
X191906285Y-88987333D01*
X191477714Y-89558761D02*
X191572952Y-89606380D01*
X191811047Y-89606380D01*
X191906285Y-89558761D01*
X191953904Y-89463523D01*
X191953904Y-89368285D01*
X191906285Y-89273047D01*
X191811047Y-89225428D01*
X191572952Y-89225428D01*
X191477714Y-89177809D01*
X191144380Y-88939714D02*
X190763428Y-88939714D01*
X191001523Y-88606380D02*
X191001523Y-89463523D01*
X190953904Y-89558761D01*
X190858666Y-89606380D01*
X190763428Y-89606380D01*
X190287238Y-89606380D02*
X190382476Y-89558761D01*
X190430095Y-89511142D01*
X190477714Y-89415904D01*
X190477714Y-89130190D01*
X190430095Y-89034952D01*
X190382476Y-88987333D01*
X190287238Y-88939714D01*
X190144380Y-88939714D01*
X190049142Y-88987333D01*
X190001523Y-89034952D01*
X189953904Y-89130190D01*
X189953904Y-89415904D01*
X190001523Y-89511142D01*
X190049142Y-89558761D01*
X190144380Y-89606380D01*
X190287238Y-89606380D01*
X189525333Y-89606380D02*
X189525333Y-88939714D01*
X189525333Y-89130190D02*
X189477714Y-89034952D01*
X189430095Y-88987333D01*
X189334857Y-88939714D01*
X189239619Y-88939714D01*
X198103904Y-107767428D02*
X197342000Y-107767428D01*
X196342000Y-108148380D02*
X196913428Y-108148380D01*
X196627714Y-108148380D02*
X196627714Y-107148380D01*
X196722952Y-107291238D01*
X196818190Y-107386476D01*
X196913428Y-107434095D01*
X195961047Y-107243619D02*
X195913428Y-107196000D01*
X195818190Y-107148380D01*
X195580095Y-107148380D01*
X195484857Y-107196000D01*
X195437238Y-107243619D01*
X195389619Y-107338857D01*
X195389619Y-107434095D01*
X195437238Y-107576952D01*
X196008666Y-108148380D01*
X195389619Y-108148380D01*
X195103904Y-107148380D02*
X194770571Y-108148380D01*
X194437238Y-107148380D01*
D12*
X178562000Y-107696000D02*
X193802000Y-107696000D01*
%TO.C,J6*%
X185734000Y-90364000D02*
X184404000Y-90364000D01*
X185734000Y-91694000D02*
X185734000Y-90364000D01*
X183134000Y-90364000D02*
X180534000Y-90364000D01*
X183134000Y-92964000D02*
X183134000Y-90364000D01*
X185734000Y-92964000D02*
X183134000Y-92964000D01*
X180534000Y-90364000D02*
X180534000Y-103184000D01*
X185734000Y-92964000D02*
X185734000Y-103184000D01*
X185734000Y-103184000D02*
X180534000Y-103184000D01*
%TO.C,A1*%
X226444000Y-59814000D02*
X226444000Y-77854000D01*
X183004000Y-59814000D02*
X226444000Y-59814000D01*
X183004000Y-77854000D02*
X183004000Y-59814000D01*
X185674000Y-75184000D02*
X185674000Y-77854000D01*
X221234000Y-75184000D02*
X185674000Y-75184000D01*
X221234000Y-75184000D02*
X221234000Y-77854000D01*
X185674000Y-62484000D02*
X185674000Y-59814000D01*
X223774000Y-62484000D02*
X185674000Y-62484000D01*
X223774000Y-62484000D02*
X223774000Y-59814000D01*
X226444000Y-77854000D02*
X223774000Y-77854000D01*
X221234000Y-77854000D02*
X183004000Y-77854000D01*
X223774000Y-75184000D02*
X223774000Y-77854000D01*
X221234000Y-75184000D02*
X223774000Y-75184000D01*
%TO.C,J6*%
D11*
X183467333Y-88816380D02*
X183467333Y-89530666D01*
X183514952Y-89673523D01*
X183610190Y-89768761D01*
X183753047Y-89816380D01*
X183848285Y-89816380D01*
X182562571Y-88816380D02*
X182753047Y-88816380D01*
X182848285Y-88864000D01*
X182895904Y-88911619D01*
X182991142Y-89054476D01*
X183038761Y-89244952D01*
X183038761Y-89625904D01*
X182991142Y-89721142D01*
X182943523Y-89768761D01*
X182848285Y-89816380D01*
X182657809Y-89816380D01*
X182562571Y-89768761D01*
X182514952Y-89721142D01*
X182467333Y-89625904D01*
X182467333Y-89387809D01*
X182514952Y-89292571D01*
X182562571Y-89244952D01*
X182657809Y-89197333D01*
X182848285Y-89197333D01*
X182943523Y-89244952D01*
X182991142Y-89292571D01*
X183038761Y-89387809D01*
%TO.C,A1*%
X227750666Y-68119714D02*
X227750666Y-68595904D01*
X228036380Y-68024476D02*
X227036380Y-68357809D01*
X228036380Y-68691142D01*
X228036380Y-69548285D02*
X228036380Y-68976857D01*
X228036380Y-69262571D02*
X227036380Y-69262571D01*
X227179238Y-69167333D01*
X227274476Y-69072095D01*
X227322095Y-68976857D01*
%TD*%
M02*
