M48
; DRILL file {KiCad 5.1.10-1.fc33} date Mon Sep 20 12:14:56 2021
; FORMAT={-:-/ absolute / metric / decimal}
; #@! TF.CreationDate,2021-09-20T12:14:56-04:00
; #@! TF.GenerationSoftware,Kicad,Pcbnew,5.1.10-1.fc33
; #@! TF.FileFunction,Plated,1,2,PTH
FMAT,2
METRIC
T1C0.400
T2C0.750
T3C0.800
T4C1.000
T5C1.100
T6C1.220
T7C1.420
T8C1.430
T9C1.800
%
G90
G05
T1
X200.406Y-105.664
X202.692Y-54.864
X203.708Y-56.134
X211.582Y-104.14
X214.63Y-86.36
X216.154Y-105.918
T2
X179.324Y-41.402
X180.594Y-41.402
X181.864Y-41.402
X224.536Y-41.402
X225.806Y-41.402
X227.076Y-41.402
T3
X179.324Y-110.998
X180.594Y-45.974
X180.594Y-53.594
X183.896Y-45.974
X183.896Y-53.594
X186.69Y-43.434
X186.944Y-110.998
X189.484Y-40.386
X189.484Y-110.998
X192.278Y-91.734
X192.278Y-94.234
X192.278Y-99.314
X192.278Y-101.814
X194.31Y-43.434
X197.104Y-40.386
X197.104Y-110.998
X199.39Y-40.386
X199.644Y-110.998
X200.914Y-44.196
X200.914Y-51.816
X205.486Y-44.196
X205.486Y-51.816
X206.502Y-81.026
X207.01Y-40.386
X207.264Y-110.998
X209.804Y-40.386
X209.804Y-110.998
X211.836Y-43.434
X214.122Y-81.026
X217.424Y-40.386
X217.424Y-110.998
X218.186Y-65.278
X218.186Y-87.122
X218.44Y-98.806
X219.456Y-43.434
X221.742Y-102.87
X221.742Y-110.49
X223.266Y-45.72
X223.266Y-53.34
X225.298Y-102.87
X225.298Y-110.49
X225.806Y-65.278
X225.806Y-87.122
X226.06Y-98.806
X226.822Y-45.72
X226.822Y-53.34
T4
X181.222Y-85.852
X181.864Y-91.694
X181.864Y-94.234
X181.864Y-96.774
X181.864Y-99.314
X181.864Y-101.854
X184.404Y-91.694
X184.404Y-94.234
X184.404Y-96.774
X184.404Y-99.314
X184.404Y-101.854
X186.944Y-61.214
X186.944Y-76.454
X188.722Y-85.852
X189.484Y-61.214
X189.484Y-76.454
X189.738Y-57.538
X191.77Y-85.852
X192.024Y-61.214
X192.024Y-76.454
X192.238Y-57.538
X194.564Y-61.214
X194.564Y-76.454
X194.738Y-57.538
X197.104Y-61.214
X197.104Y-76.454
X199.27Y-85.852
X199.644Y-61.214
X199.644Y-76.454
X200.406Y-68.58
X202.05Y-85.852
X202.184Y-61.214
X202.184Y-76.454
X202.946Y-68.58
X204.724Y-61.214
X204.724Y-76.454
X205.486Y-68.58
X207.264Y-61.214
X207.264Y-76.454
X208.026Y-68.58
X209.55Y-85.852
X209.804Y-61.214
X209.804Y-76.454
X211.582Y-57.658
X212.344Y-61.214
X212.344Y-76.454
X214.082Y-57.658
X214.884Y-61.214
X214.884Y-76.454
X216.582Y-57.658
X217.424Y-61.214
X217.424Y-76.454
X219.964Y-61.214
X219.964Y-76.454
X222.504Y-61.214
X222.504Y-76.454
T5
X213.614Y-93.218
X213.614Y-95.758
X213.614Y-98.298
X218.75Y-69.028
X218.75Y-73.528
X218.75Y-79.61
X218.75Y-84.11
X218.798Y-90.17
X218.798Y-94.67
X225.25Y-69.028
X225.25Y-73.528
X225.25Y-79.61
X225.25Y-84.11
X225.298Y-90.17
X225.298Y-94.67
T6
X182.88Y-25.654
X183.134Y-114.046
X193.04Y-25.654
X193.294Y-114.046
X203.2Y-25.654
X203.454Y-114.046
X213.36Y-25.654
X213.614Y-114.046
X223.52Y-25.654
T7
X182.88Y-28.754
X183.134Y-117.146
X193.04Y-28.754
X193.294Y-117.146
X203.2Y-28.754
X203.454Y-117.146
X213.36Y-28.754
X213.614Y-117.146
X223.52Y-28.754
T8
X182.88Y-37.054
X183.134Y-125.446
X193.04Y-37.054
X193.294Y-125.446
X203.2Y-37.054
X203.454Y-125.446
X213.36Y-37.054
X213.614Y-125.446
X223.52Y-37.054
T9
X187.438Y-50.038
X197.038Y-50.038
X209.282Y-50.158
X218.882Y-50.158
T0
M30
