%TF.GenerationSoftware,KiCad,Pcbnew,5.1.10-1.fc33*%
%TF.CreationDate,2021-09-20T12:14:51-04:00*%
%TF.ProjectId,vccg,76636367-2e6b-4696-9361-645f70636258,rev?*%
%TF.SameCoordinates,Original*%
%TF.FileFunction,Legend,Top*%
%TF.FilePolarity,Positive*%
%FSLAX46Y46*%
G04 Gerber Fmt 4.6, Leading zero omitted, Abs format (unit mm)*
G04 Created by KiCad (PCBNEW 5.1.10-1.fc33) date 2021-09-20 12:14:51*
%MOMM*%
%LPD*%
G01*
G04 APERTURE LIST*
%ADD10C,0.150000*%
%ADD11C,0.120000*%
G04 APERTURE END LIST*
D10*
X198953619Y-65492380D02*
X199144095Y-65492380D01*
X199239333Y-65540000D01*
X199334571Y-65635238D01*
X199382190Y-65825714D01*
X199382190Y-66159047D01*
X199334571Y-66349523D01*
X199239333Y-66444761D01*
X199144095Y-66492380D01*
X198953619Y-66492380D01*
X198858380Y-66444761D01*
X198763142Y-66349523D01*
X198715523Y-66159047D01*
X198715523Y-65825714D01*
X198763142Y-65635238D01*
X198858380Y-65540000D01*
X198953619Y-65492380D01*
X200286952Y-66492380D02*
X199810761Y-66492380D01*
X199810761Y-65492380D01*
X200620285Y-65968571D02*
X200953619Y-65968571D01*
X201096476Y-66492380D02*
X200620285Y-66492380D01*
X200620285Y-65492380D01*
X201096476Y-65492380D01*
X201525047Y-66492380D02*
X201525047Y-65492380D01*
X201763142Y-65492380D01*
X201906000Y-65540000D01*
X202001238Y-65635238D01*
X202048857Y-65730476D01*
X202096476Y-65920952D01*
X202096476Y-66063809D01*
X202048857Y-66254285D01*
X202001238Y-66349523D01*
X201906000Y-66444761D01*
X201763142Y-66492380D01*
X201525047Y-66492380D01*
X199906000Y-72643904D02*
X199858380Y-72739142D01*
X199858380Y-72882000D01*
X199906000Y-73024857D01*
X200001238Y-73120095D01*
X200096476Y-73167714D01*
X200286952Y-73215333D01*
X200429809Y-73215333D01*
X200620285Y-73167714D01*
X200715523Y-73120095D01*
X200810761Y-73024857D01*
X200858380Y-72882000D01*
X200858380Y-72786761D01*
X200810761Y-72643904D01*
X200763142Y-72596285D01*
X200429809Y-72596285D01*
X200429809Y-72786761D01*
X200858380Y-72167714D02*
X199858380Y-72167714D01*
X200858380Y-71596285D01*
X199858380Y-71596285D01*
X200858380Y-71120095D02*
X199858380Y-71120095D01*
X199858380Y-70882000D01*
X199906000Y-70739142D01*
X200001238Y-70643904D01*
X200096476Y-70596285D01*
X200286952Y-70548666D01*
X200429809Y-70548666D01*
X200620285Y-70596285D01*
X200715523Y-70643904D01*
X200810761Y-70739142D01*
X200858380Y-70882000D01*
X200858380Y-71120095D01*
X202398380Y-72072476D02*
X202398380Y-72548666D01*
X202874571Y-72596285D01*
X202826952Y-72548666D01*
X202779333Y-72453428D01*
X202779333Y-72215333D01*
X202826952Y-72120095D01*
X202874571Y-72072476D01*
X202969809Y-72024857D01*
X203207904Y-72024857D01*
X203303142Y-72072476D01*
X203350761Y-72120095D01*
X203398380Y-72215333D01*
X203398380Y-72453428D01*
X203350761Y-72548666D01*
X203303142Y-72596285D01*
X202398380Y-71739142D02*
X203398380Y-71405809D01*
X202398380Y-71072476D01*
X205890761Y-73072476D02*
X205938380Y-72929619D01*
X205938380Y-72691523D01*
X205890761Y-72596285D01*
X205843142Y-72548666D01*
X205747904Y-72501047D01*
X205652666Y-72501047D01*
X205557428Y-72548666D01*
X205509809Y-72596285D01*
X205462190Y-72691523D01*
X205414571Y-72882000D01*
X205366952Y-72977238D01*
X205319333Y-73024857D01*
X205224095Y-73072476D01*
X205128857Y-73072476D01*
X205033619Y-73024857D01*
X204986000Y-72977238D01*
X204938380Y-72882000D01*
X204938380Y-72643904D01*
X204986000Y-72501047D01*
X205843142Y-71501047D02*
X205890761Y-71548666D01*
X205938380Y-71691523D01*
X205938380Y-71786761D01*
X205890761Y-71929619D01*
X205795523Y-72024857D01*
X205700285Y-72072476D01*
X205509809Y-72120095D01*
X205366952Y-72120095D01*
X205176476Y-72072476D01*
X205081238Y-72024857D01*
X204986000Y-71929619D01*
X204938380Y-71786761D01*
X204938380Y-71691523D01*
X204986000Y-71548666D01*
X205033619Y-71501047D01*
X205938380Y-70596285D02*
X205938380Y-71072476D01*
X204938380Y-71072476D01*
X208430761Y-73096285D02*
X208478380Y-72953428D01*
X208478380Y-72715333D01*
X208430761Y-72620095D01*
X208383142Y-72572476D01*
X208287904Y-72524857D01*
X208192666Y-72524857D01*
X208097428Y-72572476D01*
X208049809Y-72620095D01*
X208002190Y-72715333D01*
X207954571Y-72905809D01*
X207906952Y-73001047D01*
X207859333Y-73048666D01*
X207764095Y-73096285D01*
X207668857Y-73096285D01*
X207573619Y-73048666D01*
X207526000Y-73001047D01*
X207478380Y-72905809D01*
X207478380Y-72667714D01*
X207526000Y-72524857D01*
X208478380Y-72096285D02*
X207478380Y-72096285D01*
X207478380Y-71858190D01*
X207526000Y-71715333D01*
X207621238Y-71620095D01*
X207716476Y-71572476D01*
X207906952Y-71524857D01*
X208049809Y-71524857D01*
X208240285Y-71572476D01*
X208335523Y-71620095D01*
X208430761Y-71715333D01*
X208478380Y-71858190D01*
X208478380Y-72096285D01*
X208192666Y-71143904D02*
X208192666Y-70667714D01*
X208478380Y-71239142D02*
X207478380Y-70905809D01*
X208478380Y-70572476D01*
D11*
%TO.C,R19*%
X222782000Y-103410000D02*
X223112000Y-103410000D01*
X223112000Y-103410000D02*
X223112000Y-109950000D01*
X223112000Y-109950000D02*
X222782000Y-109950000D01*
X220702000Y-103410000D02*
X220372000Y-103410000D01*
X220372000Y-103410000D02*
X220372000Y-109950000D01*
X220372000Y-109950000D02*
X220702000Y-109950000D01*
%TO.C,R18*%
X226338000Y-103410000D02*
X226668000Y-103410000D01*
X226668000Y-103410000D02*
X226668000Y-109950000D01*
X226668000Y-109950000D02*
X226338000Y-109950000D01*
X224258000Y-103410000D02*
X223928000Y-103410000D01*
X223928000Y-103410000D02*
X223928000Y-109950000D01*
X223928000Y-109950000D02*
X224258000Y-109950000D01*
%TO.C,J2*%
X208860000Y-27634000D02*
X208860000Y-38134000D01*
X217860000Y-27634000D02*
X217860000Y-38134000D01*
X217860000Y-38134000D02*
X213860000Y-38134000D01*
X212860000Y-38134000D02*
X208860000Y-38134000D01*
X217860000Y-27634000D02*
X213710000Y-27634000D01*
X213010000Y-27634000D02*
X208860000Y-27634000D01*
X215160000Y-32134000D02*
G75*
G03*
X215160000Y-32134000I-1800000J0D01*
G01*
X212300000Y-24654000D02*
X212300000Y-25454000D01*
X212300000Y-24654000D02*
X213160000Y-24654000D01*
%TO.C,J1*%
X219020000Y-27634000D02*
X219020000Y-38134000D01*
X228020000Y-27634000D02*
X228020000Y-38134000D01*
X228020000Y-38134000D02*
X224020000Y-38134000D01*
X223020000Y-38134000D02*
X219020000Y-38134000D01*
X228020000Y-27634000D02*
X223870000Y-27634000D01*
X223170000Y-27634000D02*
X219020000Y-27634000D01*
X225320000Y-32134000D02*
G75*
G03*
X225320000Y-32134000I-1800000J0D01*
G01*
X222460000Y-24654000D02*
X222460000Y-25454000D01*
X222460000Y-24654000D02*
X223320000Y-24654000D01*
%TO.C,SW3*%
X219750000Y-85110000D02*
X224250000Y-85110000D01*
X218500000Y-81110000D02*
X218500000Y-82610000D01*
X224250000Y-78610000D02*
X219750000Y-78610000D01*
X225500000Y-82610000D02*
X225500000Y-81110000D01*
%TO.C,SW2*%
X219798000Y-95670000D02*
X224298000Y-95670000D01*
X218548000Y-91670000D02*
X218548000Y-93170000D01*
X224298000Y-89170000D02*
X219798000Y-89170000D01*
X225548000Y-93170000D02*
X225548000Y-91670000D01*
%TO.C,SW1*%
X219750000Y-74528000D02*
X224250000Y-74528000D01*
X218500000Y-70528000D02*
X218500000Y-72028000D01*
X224250000Y-68028000D02*
X219750000Y-68028000D01*
X225500000Y-72028000D02*
X225500000Y-70528000D01*
%TO.C,R17*%
X225266000Y-88162000D02*
X225266000Y-88492000D01*
X225266000Y-88492000D02*
X218726000Y-88492000D01*
X218726000Y-88492000D02*
X218726000Y-88162000D01*
X225266000Y-86082000D02*
X225266000Y-85752000D01*
X225266000Y-85752000D02*
X218726000Y-85752000D01*
X218726000Y-85752000D02*
X218726000Y-86082000D01*
%TO.C,R16*%
X218980000Y-97436000D02*
X218980000Y-97766000D01*
X225520000Y-97436000D02*
X218980000Y-97436000D01*
X225520000Y-97766000D02*
X225520000Y-97436000D01*
X218980000Y-100176000D02*
X218980000Y-99846000D01*
X225520000Y-100176000D02*
X218980000Y-100176000D01*
X225520000Y-99846000D02*
X225520000Y-100176000D01*
%TO.C,R15*%
X213582000Y-82066000D02*
X213582000Y-82396000D01*
X213582000Y-82396000D02*
X207042000Y-82396000D01*
X207042000Y-82396000D02*
X207042000Y-82066000D01*
X213582000Y-79986000D02*
X213582000Y-79656000D01*
X213582000Y-79656000D02*
X207042000Y-79656000D01*
X207042000Y-79656000D02*
X207042000Y-79986000D01*
%TO.C,R14*%
X225266000Y-66648000D02*
X225266000Y-66318000D01*
X218726000Y-66648000D02*
X225266000Y-66648000D01*
X218726000Y-66318000D02*
X218726000Y-66648000D01*
X225266000Y-63908000D02*
X225266000Y-64238000D01*
X218726000Y-63908000D02*
X225266000Y-63908000D01*
X218726000Y-64238000D02*
X218726000Y-63908000D01*
%TO.C,J11*%
X206756000Y-67250000D02*
X206756000Y-69910000D01*
X206756000Y-67250000D02*
X199076000Y-67250000D01*
X199076000Y-67250000D02*
X199076000Y-69910000D01*
X206756000Y-69910000D02*
X199076000Y-69910000D01*
X209356000Y-69910000D02*
X208026000Y-69910000D01*
X209356000Y-68580000D02*
X209356000Y-69910000D01*
%TO.C,R13*%
X190024000Y-39346000D02*
X190024000Y-39016000D01*
X190024000Y-39016000D02*
X196564000Y-39016000D01*
X196564000Y-39016000D02*
X196564000Y-39346000D01*
X190024000Y-41426000D02*
X190024000Y-41756000D01*
X190024000Y-41756000D02*
X196564000Y-41756000D01*
X196564000Y-41756000D02*
X196564000Y-41426000D01*
%TO.C,R12*%
X199930000Y-39346000D02*
X199930000Y-39016000D01*
X199930000Y-39016000D02*
X206470000Y-39016000D01*
X206470000Y-39016000D02*
X206470000Y-39346000D01*
X199930000Y-41426000D02*
X199930000Y-41756000D01*
X199930000Y-41756000D02*
X206470000Y-41756000D01*
X206470000Y-41756000D02*
X206470000Y-41426000D01*
%TO.C,U4*%
X201098000Y-105410000D02*
X201098000Y-107610000D01*
X201098000Y-105410000D02*
X201098000Y-103210000D01*
X206318000Y-105410000D02*
X206318000Y-107610000D01*
X206318000Y-105410000D02*
X206318000Y-101810000D01*
D10*
%TO.C,U3*%
X213257000Y-107593000D02*
X213257000Y-107368000D01*
X209907000Y-107593000D02*
X209907000Y-107293000D01*
X209907000Y-104243000D02*
X209907000Y-104543000D01*
X213257000Y-104243000D02*
X213257000Y-104543000D01*
X213257000Y-107593000D02*
X209907000Y-107593000D01*
X213257000Y-104243000D02*
X209907000Y-104243000D01*
X213257000Y-107368000D02*
X214482000Y-107368000D01*
D11*
%TO.C,U2*%
X210344000Y-100878000D02*
X210344000Y-90638000D01*
X214985000Y-100878000D02*
X214985000Y-90638000D01*
X210344000Y-100878000D02*
X214985000Y-100878000D01*
X210344000Y-90638000D02*
X214985000Y-90638000D01*
X211854000Y-100878000D02*
X211854000Y-90638000D01*
X210344000Y-97608000D02*
X211854000Y-97608000D01*
X210344000Y-93907000D02*
X211854000Y-93907000D01*
%TO.C,U1*%
X203200000Y-58490000D02*
X205400000Y-58490000D01*
X203200000Y-58490000D02*
X201000000Y-58490000D01*
X203200000Y-53270000D02*
X205400000Y-53270000D01*
X203200000Y-53270000D02*
X199600000Y-53270000D01*
%TO.C,RV2*%
X197108000Y-45068000D02*
X187368000Y-45068000D01*
X197108000Y-56658000D02*
X195618000Y-56658000D01*
X197108000Y-48128000D02*
X197108000Y-45068000D01*
X187358000Y-56658000D02*
X187358000Y-51938000D01*
X187368000Y-48128000D02*
X187368000Y-45068000D01*
X197108000Y-56658000D02*
X197108000Y-51938000D01*
X188548000Y-56658000D02*
X187368000Y-56658000D01*
X191448000Y-56658000D02*
X190918000Y-56658000D01*
X193898000Y-56658000D02*
X193068000Y-56658000D01*
%TO.C,RV1*%
X218952000Y-45188000D02*
X209212000Y-45188000D01*
X218952000Y-56778000D02*
X217462000Y-56778000D01*
X218952000Y-48248000D02*
X218952000Y-45188000D01*
X209202000Y-56778000D02*
X209202000Y-52058000D01*
X209212000Y-48248000D02*
X209212000Y-45188000D01*
X218952000Y-56778000D02*
X218952000Y-52058000D01*
X210392000Y-56778000D02*
X209212000Y-56778000D01*
X213292000Y-56778000D02*
X212762000Y-56778000D01*
X215742000Y-56778000D02*
X214912000Y-56778000D01*
%TO.C,R11*%
X216884000Y-112038000D02*
X216884000Y-112368000D01*
X216884000Y-112368000D02*
X210344000Y-112368000D01*
X210344000Y-112368000D02*
X210344000Y-112038000D01*
X216884000Y-109958000D02*
X216884000Y-109628000D01*
X216884000Y-109628000D02*
X210344000Y-109628000D01*
X210344000Y-109628000D02*
X210344000Y-109958000D01*
%TO.C,R10*%
X206724000Y-112038000D02*
X206724000Y-112368000D01*
X206724000Y-112368000D02*
X200184000Y-112368000D01*
X200184000Y-112368000D02*
X200184000Y-112038000D01*
X206724000Y-109958000D02*
X206724000Y-109628000D01*
X206724000Y-109628000D02*
X200184000Y-109628000D01*
X200184000Y-109628000D02*
X200184000Y-109958000D01*
%TO.C,R9*%
X196564000Y-112038000D02*
X196564000Y-112368000D01*
X196564000Y-112368000D02*
X190024000Y-112368000D01*
X190024000Y-112368000D02*
X190024000Y-112038000D01*
X196564000Y-109958000D02*
X196564000Y-109628000D01*
X196564000Y-109628000D02*
X190024000Y-109628000D01*
X190024000Y-109628000D02*
X190024000Y-109958000D01*
%TO.C,R8*%
X186404000Y-112038000D02*
X186404000Y-112368000D01*
X186404000Y-112368000D02*
X179864000Y-112368000D01*
X179864000Y-112368000D02*
X179864000Y-112038000D01*
X186404000Y-109958000D02*
X186404000Y-109628000D01*
X186404000Y-109628000D02*
X179864000Y-109628000D01*
X179864000Y-109628000D02*
X179864000Y-109958000D01*
%TO.C,R7*%
X184936000Y-46514000D02*
X185266000Y-46514000D01*
X185266000Y-46514000D02*
X185266000Y-53054000D01*
X185266000Y-53054000D02*
X184936000Y-53054000D01*
X182856000Y-46514000D02*
X182526000Y-46514000D01*
X182526000Y-46514000D02*
X182526000Y-53054000D01*
X182526000Y-53054000D02*
X182856000Y-53054000D01*
%TO.C,R6*%
X227862000Y-46260000D02*
X228192000Y-46260000D01*
X228192000Y-46260000D02*
X228192000Y-52800000D01*
X228192000Y-52800000D02*
X227862000Y-52800000D01*
X225782000Y-46260000D02*
X225452000Y-46260000D01*
X225452000Y-46260000D02*
X225452000Y-52800000D01*
X225452000Y-52800000D02*
X225782000Y-52800000D01*
%TO.C,R5*%
X216884000Y-41426000D02*
X216884000Y-41756000D01*
X216884000Y-41756000D02*
X210344000Y-41756000D01*
X210344000Y-41756000D02*
X210344000Y-41426000D01*
X216884000Y-39346000D02*
X216884000Y-39016000D01*
X216884000Y-39016000D02*
X210344000Y-39016000D01*
X210344000Y-39016000D02*
X210344000Y-39346000D01*
%TO.C,R4*%
X201954000Y-44736000D02*
X202284000Y-44736000D01*
X202284000Y-44736000D02*
X202284000Y-51276000D01*
X202284000Y-51276000D02*
X201954000Y-51276000D01*
X199874000Y-44736000D02*
X199544000Y-44736000D01*
X199544000Y-44736000D02*
X199544000Y-51276000D01*
X199544000Y-51276000D02*
X199874000Y-51276000D01*
%TO.C,R3*%
X204446000Y-51276000D02*
X204116000Y-51276000D01*
X204116000Y-51276000D02*
X204116000Y-44736000D01*
X204116000Y-44736000D02*
X204446000Y-44736000D01*
X206526000Y-51276000D02*
X206856000Y-51276000D01*
X206856000Y-51276000D02*
X206856000Y-44736000D01*
X206856000Y-44736000D02*
X206526000Y-44736000D01*
%TO.C,R2*%
X181634000Y-46514000D02*
X181964000Y-46514000D01*
X181964000Y-46514000D02*
X181964000Y-53054000D01*
X181964000Y-53054000D02*
X181634000Y-53054000D01*
X179554000Y-46514000D02*
X179224000Y-46514000D01*
X179224000Y-46514000D02*
X179224000Y-53054000D01*
X179224000Y-53054000D02*
X179554000Y-53054000D01*
%TO.C,R1*%
X222226000Y-52800000D02*
X221896000Y-52800000D01*
X221896000Y-52800000D02*
X221896000Y-46260000D01*
X221896000Y-46260000D02*
X222226000Y-46260000D01*
X224306000Y-52800000D02*
X224636000Y-52800000D01*
X224636000Y-52800000D02*
X224636000Y-46260000D01*
X224636000Y-46260000D02*
X224306000Y-46260000D01*
%TO.C,Q2*%
X182432478Y-43240478D02*
G75*
G03*
X180594000Y-38802000I-1838478J1838478D01*
G01*
X178755522Y-43240478D02*
G75*
G02*
X180594000Y-38802000I1838478J1838478D01*
G01*
X178794000Y-43252000D02*
X182394000Y-43252000D01*
%TO.C,Q1*%
X227644478Y-43240478D02*
G75*
G03*
X225806000Y-38802000I-1838478J1838478D01*
G01*
X223967522Y-43240478D02*
G75*
G02*
X225806000Y-38802000I1838478J1838478D01*
G01*
X224006000Y-43252000D02*
X227606000Y-43252000D01*
%TO.C,J10*%
X209114000Y-116026000D02*
X209114000Y-126526000D01*
X218114000Y-116026000D02*
X218114000Y-126526000D01*
X218114000Y-126526000D02*
X214114000Y-126526000D01*
X213114000Y-126526000D02*
X209114000Y-126526000D01*
X218114000Y-116026000D02*
X213964000Y-116026000D01*
X213264000Y-116026000D02*
X209114000Y-116026000D01*
X215414000Y-120526000D02*
G75*
G03*
X215414000Y-120526000I-1800000J0D01*
G01*
X212554000Y-113046000D02*
X212554000Y-113846000D01*
X212554000Y-113046000D02*
X213414000Y-113046000D01*
%TO.C,J9*%
X198954000Y-116026000D02*
X198954000Y-126526000D01*
X207954000Y-116026000D02*
X207954000Y-126526000D01*
X207954000Y-126526000D02*
X203954000Y-126526000D01*
X202954000Y-126526000D02*
X198954000Y-126526000D01*
X207954000Y-116026000D02*
X203804000Y-116026000D01*
X203104000Y-116026000D02*
X198954000Y-116026000D01*
X205254000Y-120526000D02*
G75*
G03*
X205254000Y-120526000I-1800000J0D01*
G01*
X202394000Y-113046000D02*
X202394000Y-113846000D01*
X202394000Y-113046000D02*
X203254000Y-113046000D01*
%TO.C,J8*%
X188794000Y-116026000D02*
X188794000Y-126526000D01*
X197794000Y-116026000D02*
X197794000Y-126526000D01*
X197794000Y-126526000D02*
X193794000Y-126526000D01*
X192794000Y-126526000D02*
X188794000Y-126526000D01*
X197794000Y-116026000D02*
X193644000Y-116026000D01*
X192944000Y-116026000D02*
X188794000Y-116026000D01*
X195094000Y-120526000D02*
G75*
G03*
X195094000Y-120526000I-1800000J0D01*
G01*
X192234000Y-113046000D02*
X192234000Y-113846000D01*
X192234000Y-113046000D02*
X193094000Y-113046000D01*
%TO.C,J7*%
X178634000Y-116026000D02*
X178634000Y-126526000D01*
X187634000Y-116026000D02*
X187634000Y-126526000D01*
X187634000Y-126526000D02*
X183634000Y-126526000D01*
X182634000Y-126526000D02*
X178634000Y-126526000D01*
X187634000Y-116026000D02*
X183484000Y-116026000D01*
X182784000Y-116026000D02*
X178634000Y-116026000D01*
X184934000Y-120526000D02*
G75*
G03*
X184934000Y-120526000I-1800000J0D01*
G01*
X182074000Y-113046000D02*
X182074000Y-113846000D01*
X182074000Y-113046000D02*
X182934000Y-113046000D01*
%TO.C,J5*%
X198700000Y-27634000D02*
X198700000Y-38134000D01*
X207700000Y-27634000D02*
X207700000Y-38134000D01*
X207700000Y-38134000D02*
X203700000Y-38134000D01*
X202700000Y-38134000D02*
X198700000Y-38134000D01*
X207700000Y-27634000D02*
X203550000Y-27634000D01*
X202850000Y-27634000D02*
X198700000Y-27634000D01*
X205000000Y-32134000D02*
G75*
G03*
X205000000Y-32134000I-1800000J0D01*
G01*
X202140000Y-24654000D02*
X202140000Y-25454000D01*
X202140000Y-24654000D02*
X203000000Y-24654000D01*
%TO.C,J4*%
X178380000Y-27634000D02*
X178380000Y-38134000D01*
X187380000Y-27634000D02*
X187380000Y-38134000D01*
X187380000Y-38134000D02*
X183380000Y-38134000D01*
X182380000Y-38134000D02*
X178380000Y-38134000D01*
X187380000Y-27634000D02*
X183230000Y-27634000D01*
X182530000Y-27634000D02*
X178380000Y-27634000D01*
X184680000Y-32134000D02*
G75*
G03*
X184680000Y-32134000I-1800000J0D01*
G01*
X181820000Y-24654000D02*
X181820000Y-25454000D01*
X181820000Y-24654000D02*
X182680000Y-24654000D01*
%TO.C,J3*%
X188540000Y-27634000D02*
X188540000Y-38134000D01*
X197540000Y-27634000D02*
X197540000Y-38134000D01*
X197540000Y-38134000D02*
X193540000Y-38134000D01*
X192540000Y-38134000D02*
X188540000Y-38134000D01*
X197540000Y-27634000D02*
X193390000Y-27634000D01*
X192690000Y-27634000D02*
X188540000Y-27634000D01*
X194840000Y-32134000D02*
G75*
G03*
X194840000Y-32134000I-1800000J0D01*
G01*
X191980000Y-24654000D02*
X191980000Y-25454000D01*
X191980000Y-24654000D02*
X192840000Y-24654000D01*
%TO.C,D2*%
X188380000Y-42314000D02*
X188380000Y-44554000D01*
X188380000Y-44554000D02*
X192620000Y-44554000D01*
X192620000Y-44554000D02*
X192620000Y-42314000D01*
X192620000Y-42314000D02*
X188380000Y-42314000D01*
X187730000Y-43434000D02*
X188380000Y-43434000D01*
X193270000Y-43434000D02*
X192620000Y-43434000D01*
X189100000Y-42314000D02*
X189100000Y-44554000D01*
X189220000Y-42314000D02*
X189220000Y-44554000D01*
X188980000Y-42314000D02*
X188980000Y-44554000D01*
%TO.C,D1*%
X217766000Y-44554000D02*
X217766000Y-42314000D01*
X217766000Y-42314000D02*
X213526000Y-42314000D01*
X213526000Y-42314000D02*
X213526000Y-44554000D01*
X213526000Y-44554000D02*
X217766000Y-44554000D01*
X218416000Y-43434000D02*
X217766000Y-43434000D01*
X212876000Y-43434000D02*
X213526000Y-43434000D01*
X217046000Y-44554000D02*
X217046000Y-42314000D01*
X216926000Y-44554000D02*
X216926000Y-42314000D01*
X217166000Y-44554000D02*
X217166000Y-42314000D01*
%TO.C,C5*%
X209670000Y-88472000D02*
X201930000Y-88472000D01*
X209670000Y-83232000D02*
X201930000Y-83232000D01*
X209670000Y-88472000D02*
X209670000Y-87108000D01*
X209670000Y-84596000D02*
X209670000Y-83232000D01*
X201930000Y-88472000D02*
X201930000Y-87108000D01*
X201930000Y-84596000D02*
X201930000Y-83232000D01*
%TO.C,C4*%
X194898000Y-100564000D02*
G75*
G03*
X194898000Y-100564000I-2620000J0D01*
G01*
X194858000Y-100564000D02*
X189698000Y-100564000D01*
X194858000Y-100604000D02*
X189698000Y-100604000D01*
X194857000Y-100644000D02*
X189699000Y-100644000D01*
X194856000Y-100684000D02*
X189700000Y-100684000D01*
X194854000Y-100724000D02*
X189702000Y-100724000D01*
X194851000Y-100764000D02*
X189705000Y-100764000D01*
X194847000Y-100804000D02*
X193318000Y-100804000D01*
X191238000Y-100804000D02*
X189709000Y-100804000D01*
X194843000Y-100844000D02*
X193318000Y-100844000D01*
X191238000Y-100844000D02*
X189713000Y-100844000D01*
X194839000Y-100884000D02*
X193318000Y-100884000D01*
X191238000Y-100884000D02*
X189717000Y-100884000D01*
X194834000Y-100924000D02*
X193318000Y-100924000D01*
X191238000Y-100924000D02*
X189722000Y-100924000D01*
X194828000Y-100964000D02*
X193318000Y-100964000D01*
X191238000Y-100964000D02*
X189728000Y-100964000D01*
X194821000Y-101004000D02*
X193318000Y-101004000D01*
X191238000Y-101004000D02*
X189735000Y-101004000D01*
X194814000Y-101044000D02*
X193318000Y-101044000D01*
X191238000Y-101044000D02*
X189742000Y-101044000D01*
X194806000Y-101084000D02*
X193318000Y-101084000D01*
X191238000Y-101084000D02*
X189750000Y-101084000D01*
X194798000Y-101124000D02*
X193318000Y-101124000D01*
X191238000Y-101124000D02*
X189758000Y-101124000D01*
X194789000Y-101164000D02*
X193318000Y-101164000D01*
X191238000Y-101164000D02*
X189767000Y-101164000D01*
X194779000Y-101204000D02*
X193318000Y-101204000D01*
X191238000Y-101204000D02*
X189777000Y-101204000D01*
X194769000Y-101244000D02*
X193318000Y-101244000D01*
X191238000Y-101244000D02*
X189787000Y-101244000D01*
X194758000Y-101285000D02*
X193318000Y-101285000D01*
X191238000Y-101285000D02*
X189798000Y-101285000D01*
X194746000Y-101325000D02*
X193318000Y-101325000D01*
X191238000Y-101325000D02*
X189810000Y-101325000D01*
X194733000Y-101365000D02*
X193318000Y-101365000D01*
X191238000Y-101365000D02*
X189823000Y-101365000D01*
X194720000Y-101405000D02*
X193318000Y-101405000D01*
X191238000Y-101405000D02*
X189836000Y-101405000D01*
X194706000Y-101445000D02*
X193318000Y-101445000D01*
X191238000Y-101445000D02*
X189850000Y-101445000D01*
X194692000Y-101485000D02*
X193318000Y-101485000D01*
X191238000Y-101485000D02*
X189864000Y-101485000D01*
X194676000Y-101525000D02*
X193318000Y-101525000D01*
X191238000Y-101525000D02*
X189880000Y-101525000D01*
X194660000Y-101565000D02*
X193318000Y-101565000D01*
X191238000Y-101565000D02*
X189896000Y-101565000D01*
X194643000Y-101605000D02*
X193318000Y-101605000D01*
X191238000Y-101605000D02*
X189913000Y-101605000D01*
X194626000Y-101645000D02*
X193318000Y-101645000D01*
X191238000Y-101645000D02*
X189930000Y-101645000D01*
X194607000Y-101685000D02*
X193318000Y-101685000D01*
X191238000Y-101685000D02*
X189949000Y-101685000D01*
X194588000Y-101725000D02*
X193318000Y-101725000D01*
X191238000Y-101725000D02*
X189968000Y-101725000D01*
X194568000Y-101765000D02*
X193318000Y-101765000D01*
X191238000Y-101765000D02*
X189988000Y-101765000D01*
X194546000Y-101805000D02*
X193318000Y-101805000D01*
X191238000Y-101805000D02*
X190010000Y-101805000D01*
X194525000Y-101845000D02*
X193318000Y-101845000D01*
X191238000Y-101845000D02*
X190031000Y-101845000D01*
X194502000Y-101885000D02*
X193318000Y-101885000D01*
X191238000Y-101885000D02*
X190054000Y-101885000D01*
X194478000Y-101925000D02*
X193318000Y-101925000D01*
X191238000Y-101925000D02*
X190078000Y-101925000D01*
X194453000Y-101965000D02*
X193318000Y-101965000D01*
X191238000Y-101965000D02*
X190103000Y-101965000D01*
X194427000Y-102005000D02*
X193318000Y-102005000D01*
X191238000Y-102005000D02*
X190129000Y-102005000D01*
X194400000Y-102045000D02*
X193318000Y-102045000D01*
X191238000Y-102045000D02*
X190156000Y-102045000D01*
X194373000Y-102085000D02*
X193318000Y-102085000D01*
X191238000Y-102085000D02*
X190183000Y-102085000D01*
X194343000Y-102125000D02*
X193318000Y-102125000D01*
X191238000Y-102125000D02*
X190213000Y-102125000D01*
X194313000Y-102165000D02*
X193318000Y-102165000D01*
X191238000Y-102165000D02*
X190243000Y-102165000D01*
X194282000Y-102205000D02*
X193318000Y-102205000D01*
X191238000Y-102205000D02*
X190274000Y-102205000D01*
X194249000Y-102245000D02*
X193318000Y-102245000D01*
X191238000Y-102245000D02*
X190307000Y-102245000D01*
X194215000Y-102285000D02*
X193318000Y-102285000D01*
X191238000Y-102285000D02*
X190341000Y-102285000D01*
X194179000Y-102325000D02*
X193318000Y-102325000D01*
X191238000Y-102325000D02*
X190377000Y-102325000D01*
X194142000Y-102365000D02*
X193318000Y-102365000D01*
X191238000Y-102365000D02*
X190414000Y-102365000D01*
X194104000Y-102405000D02*
X193318000Y-102405000D01*
X191238000Y-102405000D02*
X190452000Y-102405000D01*
X194063000Y-102445000D02*
X193318000Y-102445000D01*
X191238000Y-102445000D02*
X190493000Y-102445000D01*
X194021000Y-102485000D02*
X193318000Y-102485000D01*
X191238000Y-102485000D02*
X190535000Y-102485000D01*
X193977000Y-102525000D02*
X193318000Y-102525000D01*
X191238000Y-102525000D02*
X190579000Y-102525000D01*
X193931000Y-102565000D02*
X193318000Y-102565000D01*
X191238000Y-102565000D02*
X190625000Y-102565000D01*
X193883000Y-102605000D02*
X193318000Y-102605000D01*
X191238000Y-102605000D02*
X190673000Y-102605000D01*
X193832000Y-102645000D02*
X193318000Y-102645000D01*
X191238000Y-102645000D02*
X190724000Y-102645000D01*
X193778000Y-102685000D02*
X193318000Y-102685000D01*
X191238000Y-102685000D02*
X190778000Y-102685000D01*
X193721000Y-102725000D02*
X193318000Y-102725000D01*
X191238000Y-102725000D02*
X190835000Y-102725000D01*
X193661000Y-102765000D02*
X193318000Y-102765000D01*
X191238000Y-102765000D02*
X190895000Y-102765000D01*
X193597000Y-102805000D02*
X193318000Y-102805000D01*
X191238000Y-102805000D02*
X190959000Y-102805000D01*
X193529000Y-102845000D02*
X193318000Y-102845000D01*
X191238000Y-102845000D02*
X191027000Y-102845000D01*
X193456000Y-102885000D02*
X191100000Y-102885000D01*
X193376000Y-102925000D02*
X191180000Y-102925000D01*
X193289000Y-102965000D02*
X191267000Y-102965000D01*
X193193000Y-103005000D02*
X191363000Y-103005000D01*
X193083000Y-103045000D02*
X191473000Y-103045000D01*
X192955000Y-103085000D02*
X191601000Y-103085000D01*
X192796000Y-103125000D02*
X191760000Y-103125000D01*
X192562000Y-103165000D02*
X191994000Y-103165000D01*
X193753000Y-97759225D02*
X193753000Y-98259225D01*
X194003000Y-98009225D02*
X193503000Y-98009225D01*
%TO.C,C3*%
X194898000Y-92984000D02*
G75*
G03*
X194898000Y-92984000I-2620000J0D01*
G01*
X194858000Y-92984000D02*
X189698000Y-92984000D01*
X194858000Y-93024000D02*
X189698000Y-93024000D01*
X194857000Y-93064000D02*
X189699000Y-93064000D01*
X194856000Y-93104000D02*
X189700000Y-93104000D01*
X194854000Y-93144000D02*
X189702000Y-93144000D01*
X194851000Y-93184000D02*
X189705000Y-93184000D01*
X194847000Y-93224000D02*
X193318000Y-93224000D01*
X191238000Y-93224000D02*
X189709000Y-93224000D01*
X194843000Y-93264000D02*
X193318000Y-93264000D01*
X191238000Y-93264000D02*
X189713000Y-93264000D01*
X194839000Y-93304000D02*
X193318000Y-93304000D01*
X191238000Y-93304000D02*
X189717000Y-93304000D01*
X194834000Y-93344000D02*
X193318000Y-93344000D01*
X191238000Y-93344000D02*
X189722000Y-93344000D01*
X194828000Y-93384000D02*
X193318000Y-93384000D01*
X191238000Y-93384000D02*
X189728000Y-93384000D01*
X194821000Y-93424000D02*
X193318000Y-93424000D01*
X191238000Y-93424000D02*
X189735000Y-93424000D01*
X194814000Y-93464000D02*
X193318000Y-93464000D01*
X191238000Y-93464000D02*
X189742000Y-93464000D01*
X194806000Y-93504000D02*
X193318000Y-93504000D01*
X191238000Y-93504000D02*
X189750000Y-93504000D01*
X194798000Y-93544000D02*
X193318000Y-93544000D01*
X191238000Y-93544000D02*
X189758000Y-93544000D01*
X194789000Y-93584000D02*
X193318000Y-93584000D01*
X191238000Y-93584000D02*
X189767000Y-93584000D01*
X194779000Y-93624000D02*
X193318000Y-93624000D01*
X191238000Y-93624000D02*
X189777000Y-93624000D01*
X194769000Y-93664000D02*
X193318000Y-93664000D01*
X191238000Y-93664000D02*
X189787000Y-93664000D01*
X194758000Y-93705000D02*
X193318000Y-93705000D01*
X191238000Y-93705000D02*
X189798000Y-93705000D01*
X194746000Y-93745000D02*
X193318000Y-93745000D01*
X191238000Y-93745000D02*
X189810000Y-93745000D01*
X194733000Y-93785000D02*
X193318000Y-93785000D01*
X191238000Y-93785000D02*
X189823000Y-93785000D01*
X194720000Y-93825000D02*
X193318000Y-93825000D01*
X191238000Y-93825000D02*
X189836000Y-93825000D01*
X194706000Y-93865000D02*
X193318000Y-93865000D01*
X191238000Y-93865000D02*
X189850000Y-93865000D01*
X194692000Y-93905000D02*
X193318000Y-93905000D01*
X191238000Y-93905000D02*
X189864000Y-93905000D01*
X194676000Y-93945000D02*
X193318000Y-93945000D01*
X191238000Y-93945000D02*
X189880000Y-93945000D01*
X194660000Y-93985000D02*
X193318000Y-93985000D01*
X191238000Y-93985000D02*
X189896000Y-93985000D01*
X194643000Y-94025000D02*
X193318000Y-94025000D01*
X191238000Y-94025000D02*
X189913000Y-94025000D01*
X194626000Y-94065000D02*
X193318000Y-94065000D01*
X191238000Y-94065000D02*
X189930000Y-94065000D01*
X194607000Y-94105000D02*
X193318000Y-94105000D01*
X191238000Y-94105000D02*
X189949000Y-94105000D01*
X194588000Y-94145000D02*
X193318000Y-94145000D01*
X191238000Y-94145000D02*
X189968000Y-94145000D01*
X194568000Y-94185000D02*
X193318000Y-94185000D01*
X191238000Y-94185000D02*
X189988000Y-94185000D01*
X194546000Y-94225000D02*
X193318000Y-94225000D01*
X191238000Y-94225000D02*
X190010000Y-94225000D01*
X194525000Y-94265000D02*
X193318000Y-94265000D01*
X191238000Y-94265000D02*
X190031000Y-94265000D01*
X194502000Y-94305000D02*
X193318000Y-94305000D01*
X191238000Y-94305000D02*
X190054000Y-94305000D01*
X194478000Y-94345000D02*
X193318000Y-94345000D01*
X191238000Y-94345000D02*
X190078000Y-94345000D01*
X194453000Y-94385000D02*
X193318000Y-94385000D01*
X191238000Y-94385000D02*
X190103000Y-94385000D01*
X194427000Y-94425000D02*
X193318000Y-94425000D01*
X191238000Y-94425000D02*
X190129000Y-94425000D01*
X194400000Y-94465000D02*
X193318000Y-94465000D01*
X191238000Y-94465000D02*
X190156000Y-94465000D01*
X194373000Y-94505000D02*
X193318000Y-94505000D01*
X191238000Y-94505000D02*
X190183000Y-94505000D01*
X194343000Y-94545000D02*
X193318000Y-94545000D01*
X191238000Y-94545000D02*
X190213000Y-94545000D01*
X194313000Y-94585000D02*
X193318000Y-94585000D01*
X191238000Y-94585000D02*
X190243000Y-94585000D01*
X194282000Y-94625000D02*
X193318000Y-94625000D01*
X191238000Y-94625000D02*
X190274000Y-94625000D01*
X194249000Y-94665000D02*
X193318000Y-94665000D01*
X191238000Y-94665000D02*
X190307000Y-94665000D01*
X194215000Y-94705000D02*
X193318000Y-94705000D01*
X191238000Y-94705000D02*
X190341000Y-94705000D01*
X194179000Y-94745000D02*
X193318000Y-94745000D01*
X191238000Y-94745000D02*
X190377000Y-94745000D01*
X194142000Y-94785000D02*
X193318000Y-94785000D01*
X191238000Y-94785000D02*
X190414000Y-94785000D01*
X194104000Y-94825000D02*
X193318000Y-94825000D01*
X191238000Y-94825000D02*
X190452000Y-94825000D01*
X194063000Y-94865000D02*
X193318000Y-94865000D01*
X191238000Y-94865000D02*
X190493000Y-94865000D01*
X194021000Y-94905000D02*
X193318000Y-94905000D01*
X191238000Y-94905000D02*
X190535000Y-94905000D01*
X193977000Y-94945000D02*
X193318000Y-94945000D01*
X191238000Y-94945000D02*
X190579000Y-94945000D01*
X193931000Y-94985000D02*
X193318000Y-94985000D01*
X191238000Y-94985000D02*
X190625000Y-94985000D01*
X193883000Y-95025000D02*
X193318000Y-95025000D01*
X191238000Y-95025000D02*
X190673000Y-95025000D01*
X193832000Y-95065000D02*
X193318000Y-95065000D01*
X191238000Y-95065000D02*
X190724000Y-95065000D01*
X193778000Y-95105000D02*
X193318000Y-95105000D01*
X191238000Y-95105000D02*
X190778000Y-95105000D01*
X193721000Y-95145000D02*
X193318000Y-95145000D01*
X191238000Y-95145000D02*
X190835000Y-95145000D01*
X193661000Y-95185000D02*
X193318000Y-95185000D01*
X191238000Y-95185000D02*
X190895000Y-95185000D01*
X193597000Y-95225000D02*
X193318000Y-95225000D01*
X191238000Y-95225000D02*
X190959000Y-95225000D01*
X193529000Y-95265000D02*
X193318000Y-95265000D01*
X191238000Y-95265000D02*
X191027000Y-95265000D01*
X193456000Y-95305000D02*
X191100000Y-95305000D01*
X193376000Y-95345000D02*
X191180000Y-95345000D01*
X193289000Y-95385000D02*
X191267000Y-95385000D01*
X193193000Y-95425000D02*
X191363000Y-95425000D01*
X193083000Y-95465000D02*
X191473000Y-95465000D01*
X192955000Y-95505000D02*
X191601000Y-95505000D01*
X192796000Y-95545000D02*
X191760000Y-95545000D01*
X192562000Y-95585000D02*
X191994000Y-95585000D01*
X193753000Y-90179225D02*
X193753000Y-90679225D01*
X194003000Y-90429225D02*
X193503000Y-90429225D01*
%TO.C,C2*%
X191650000Y-83232000D02*
X199390000Y-83232000D01*
X191650000Y-88472000D02*
X199390000Y-88472000D01*
X191650000Y-83232000D02*
X191650000Y-84596000D01*
X191650000Y-87108000D02*
X191650000Y-88472000D01*
X199390000Y-83232000D02*
X199390000Y-84596000D01*
X199390000Y-87108000D02*
X199390000Y-88472000D01*
%TO.C,C1*%
X188842000Y-88472000D02*
X181102000Y-88472000D01*
X188842000Y-83232000D02*
X181102000Y-83232000D01*
X188842000Y-88472000D02*
X188842000Y-87108000D01*
X188842000Y-84596000D02*
X188842000Y-83232000D01*
X181102000Y-88472000D02*
X181102000Y-87108000D01*
X181102000Y-84596000D02*
X181102000Y-83232000D01*
%TO.C,R19*%
D10*
X222194380Y-107322857D02*
X221718190Y-107656190D01*
X222194380Y-107894285D02*
X221194380Y-107894285D01*
X221194380Y-107513333D01*
X221242000Y-107418095D01*
X221289619Y-107370476D01*
X221384857Y-107322857D01*
X221527714Y-107322857D01*
X221622952Y-107370476D01*
X221670571Y-107418095D01*
X221718190Y-107513333D01*
X221718190Y-107894285D01*
X222194380Y-106370476D02*
X222194380Y-106941904D01*
X222194380Y-106656190D02*
X221194380Y-106656190D01*
X221337238Y-106751428D01*
X221432476Y-106846666D01*
X221480095Y-106941904D01*
X222194380Y-105894285D02*
X222194380Y-105703809D01*
X222146761Y-105608571D01*
X222099142Y-105560952D01*
X221956285Y-105465714D01*
X221765809Y-105418095D01*
X221384857Y-105418095D01*
X221289619Y-105465714D01*
X221242000Y-105513333D01*
X221194380Y-105608571D01*
X221194380Y-105799047D01*
X221242000Y-105894285D01*
X221289619Y-105941904D01*
X221384857Y-105989523D01*
X221622952Y-105989523D01*
X221718190Y-105941904D01*
X221765809Y-105894285D01*
X221813428Y-105799047D01*
X221813428Y-105608571D01*
X221765809Y-105513333D01*
X221718190Y-105465714D01*
X221622952Y-105418095D01*
%TO.C,R18*%
X225750380Y-107322857D02*
X225274190Y-107656190D01*
X225750380Y-107894285D02*
X224750380Y-107894285D01*
X224750380Y-107513333D01*
X224798000Y-107418095D01*
X224845619Y-107370476D01*
X224940857Y-107322857D01*
X225083714Y-107322857D01*
X225178952Y-107370476D01*
X225226571Y-107418095D01*
X225274190Y-107513333D01*
X225274190Y-107894285D01*
X225750380Y-106370476D02*
X225750380Y-106941904D01*
X225750380Y-106656190D02*
X224750380Y-106656190D01*
X224893238Y-106751428D01*
X224988476Y-106846666D01*
X225036095Y-106941904D01*
X225178952Y-105799047D02*
X225131333Y-105894285D01*
X225083714Y-105941904D01*
X224988476Y-105989523D01*
X224940857Y-105989523D01*
X224845619Y-105941904D01*
X224798000Y-105894285D01*
X224750380Y-105799047D01*
X224750380Y-105608571D01*
X224798000Y-105513333D01*
X224845619Y-105465714D01*
X224940857Y-105418095D01*
X224988476Y-105418095D01*
X225083714Y-105465714D01*
X225131333Y-105513333D01*
X225178952Y-105608571D01*
X225178952Y-105799047D01*
X225226571Y-105894285D01*
X225274190Y-105941904D01*
X225369428Y-105989523D01*
X225559904Y-105989523D01*
X225655142Y-105941904D01*
X225702761Y-105894285D01*
X225750380Y-105799047D01*
X225750380Y-105608571D01*
X225702761Y-105513333D01*
X225655142Y-105465714D01*
X225559904Y-105418095D01*
X225369428Y-105418095D01*
X225274190Y-105465714D01*
X225226571Y-105513333D01*
X225178952Y-105608571D01*
%TO.C,J2*%
X208996666Y-26186380D02*
X208996666Y-26900666D01*
X208949047Y-27043523D01*
X208853809Y-27138761D01*
X208710952Y-27186380D01*
X208615714Y-27186380D01*
X209425238Y-26281619D02*
X209472857Y-26234000D01*
X209568095Y-26186380D01*
X209806190Y-26186380D01*
X209901428Y-26234000D01*
X209949047Y-26281619D01*
X209996666Y-26376857D01*
X209996666Y-26472095D01*
X209949047Y-26614952D01*
X209377619Y-27186380D01*
X209996666Y-27186380D01*
%TO.C,J1*%
X219156666Y-26186380D02*
X219156666Y-26900666D01*
X219109047Y-27043523D01*
X219013809Y-27138761D01*
X218870952Y-27186380D01*
X218775714Y-27186380D01*
X220156666Y-27186380D02*
X219585238Y-27186380D01*
X219870952Y-27186380D02*
X219870952Y-26186380D01*
X219775714Y-26329238D01*
X219680476Y-26424476D01*
X219585238Y-26472095D01*
%TO.C,SW3*%
X220662666Y-82192761D02*
X220805523Y-82240380D01*
X221043619Y-82240380D01*
X221138857Y-82192761D01*
X221186476Y-82145142D01*
X221234095Y-82049904D01*
X221234095Y-81954666D01*
X221186476Y-81859428D01*
X221138857Y-81811809D01*
X221043619Y-81764190D01*
X220853142Y-81716571D01*
X220757904Y-81668952D01*
X220710285Y-81621333D01*
X220662666Y-81526095D01*
X220662666Y-81430857D01*
X220710285Y-81335619D01*
X220757904Y-81288000D01*
X220853142Y-81240380D01*
X221091238Y-81240380D01*
X221234095Y-81288000D01*
X221567428Y-81240380D02*
X221805523Y-82240380D01*
X221996000Y-81526095D01*
X222186476Y-82240380D01*
X222424571Y-81240380D01*
X222710285Y-81240380D02*
X223329333Y-81240380D01*
X222996000Y-81621333D01*
X223138857Y-81621333D01*
X223234095Y-81668952D01*
X223281714Y-81716571D01*
X223329333Y-81811809D01*
X223329333Y-82049904D01*
X223281714Y-82145142D01*
X223234095Y-82192761D01*
X223138857Y-82240380D01*
X222853142Y-82240380D01*
X222757904Y-82192761D01*
X222710285Y-82145142D01*
%TO.C,SW2*%
X220662666Y-92788761D02*
X220805523Y-92836380D01*
X221043619Y-92836380D01*
X221138857Y-92788761D01*
X221186476Y-92741142D01*
X221234095Y-92645904D01*
X221234095Y-92550666D01*
X221186476Y-92455428D01*
X221138857Y-92407809D01*
X221043619Y-92360190D01*
X220853142Y-92312571D01*
X220757904Y-92264952D01*
X220710285Y-92217333D01*
X220662666Y-92122095D01*
X220662666Y-92026857D01*
X220710285Y-91931619D01*
X220757904Y-91884000D01*
X220853142Y-91836380D01*
X221091238Y-91836380D01*
X221234095Y-91884000D01*
X221567428Y-91836380D02*
X221805523Y-92836380D01*
X221996000Y-92122095D01*
X222186476Y-92836380D01*
X222424571Y-91836380D01*
X222757904Y-91931619D02*
X222805523Y-91884000D01*
X222900761Y-91836380D01*
X223138857Y-91836380D01*
X223234095Y-91884000D01*
X223281714Y-91931619D01*
X223329333Y-92026857D01*
X223329333Y-92122095D01*
X223281714Y-92264952D01*
X222710285Y-92836380D01*
X223329333Y-92836380D01*
%TO.C,SW1*%
X220662666Y-71778761D02*
X220805523Y-71826380D01*
X221043619Y-71826380D01*
X221138857Y-71778761D01*
X221186476Y-71731142D01*
X221234095Y-71635904D01*
X221234095Y-71540666D01*
X221186476Y-71445428D01*
X221138857Y-71397809D01*
X221043619Y-71350190D01*
X220853142Y-71302571D01*
X220757904Y-71254952D01*
X220710285Y-71207333D01*
X220662666Y-71112095D01*
X220662666Y-71016857D01*
X220710285Y-70921619D01*
X220757904Y-70874000D01*
X220853142Y-70826380D01*
X221091238Y-70826380D01*
X221234095Y-70874000D01*
X221567428Y-70826380D02*
X221805523Y-71826380D01*
X221996000Y-71112095D01*
X222186476Y-71826380D01*
X222424571Y-70826380D01*
X223329333Y-71826380D02*
X222757904Y-71826380D01*
X223043619Y-71826380D02*
X223043619Y-70826380D01*
X222948380Y-70969238D01*
X222853142Y-71064476D01*
X222757904Y-71112095D01*
%TO.C,R17*%
X221353142Y-87574380D02*
X221019809Y-87098190D01*
X220781714Y-87574380D02*
X220781714Y-86574380D01*
X221162666Y-86574380D01*
X221257904Y-86622000D01*
X221305523Y-86669619D01*
X221353142Y-86764857D01*
X221353142Y-86907714D01*
X221305523Y-87002952D01*
X221257904Y-87050571D01*
X221162666Y-87098190D01*
X220781714Y-87098190D01*
X222305523Y-87574380D02*
X221734095Y-87574380D01*
X222019809Y-87574380D02*
X222019809Y-86574380D01*
X221924571Y-86717238D01*
X221829333Y-86812476D01*
X221734095Y-86860095D01*
X222638857Y-86574380D02*
X223305523Y-86574380D01*
X222876952Y-87574380D01*
%TO.C,R16*%
X221607142Y-99258380D02*
X221273809Y-98782190D01*
X221035714Y-99258380D02*
X221035714Y-98258380D01*
X221416666Y-98258380D01*
X221511904Y-98306000D01*
X221559523Y-98353619D01*
X221607142Y-98448857D01*
X221607142Y-98591714D01*
X221559523Y-98686952D01*
X221511904Y-98734571D01*
X221416666Y-98782190D01*
X221035714Y-98782190D01*
X222559523Y-99258380D02*
X221988095Y-99258380D01*
X222273809Y-99258380D02*
X222273809Y-98258380D01*
X222178571Y-98401238D01*
X222083333Y-98496476D01*
X221988095Y-98544095D01*
X223416666Y-98258380D02*
X223226190Y-98258380D01*
X223130952Y-98306000D01*
X223083333Y-98353619D01*
X222988095Y-98496476D01*
X222940476Y-98686952D01*
X222940476Y-99067904D01*
X222988095Y-99163142D01*
X223035714Y-99210761D01*
X223130952Y-99258380D01*
X223321428Y-99258380D01*
X223416666Y-99210761D01*
X223464285Y-99163142D01*
X223511904Y-99067904D01*
X223511904Y-98829809D01*
X223464285Y-98734571D01*
X223416666Y-98686952D01*
X223321428Y-98639333D01*
X223130952Y-98639333D01*
X223035714Y-98686952D01*
X222988095Y-98734571D01*
X222940476Y-98829809D01*
%TO.C,R15*%
X209669142Y-81478380D02*
X209335809Y-81002190D01*
X209097714Y-81478380D02*
X209097714Y-80478380D01*
X209478666Y-80478380D01*
X209573904Y-80526000D01*
X209621523Y-80573619D01*
X209669142Y-80668857D01*
X209669142Y-80811714D01*
X209621523Y-80906952D01*
X209573904Y-80954571D01*
X209478666Y-81002190D01*
X209097714Y-81002190D01*
X210621523Y-81478380D02*
X210050095Y-81478380D01*
X210335809Y-81478380D02*
X210335809Y-80478380D01*
X210240571Y-80621238D01*
X210145333Y-80716476D01*
X210050095Y-80764095D01*
X211526285Y-80478380D02*
X211050095Y-80478380D01*
X211002476Y-80954571D01*
X211050095Y-80906952D01*
X211145333Y-80859333D01*
X211383428Y-80859333D01*
X211478666Y-80906952D01*
X211526285Y-80954571D01*
X211573904Y-81049809D01*
X211573904Y-81287904D01*
X211526285Y-81383142D01*
X211478666Y-81430761D01*
X211383428Y-81478380D01*
X211145333Y-81478380D01*
X211050095Y-81430761D01*
X211002476Y-81383142D01*
%TO.C,R14*%
X221353142Y-65730380D02*
X221019809Y-65254190D01*
X220781714Y-65730380D02*
X220781714Y-64730380D01*
X221162666Y-64730380D01*
X221257904Y-64778000D01*
X221305523Y-64825619D01*
X221353142Y-64920857D01*
X221353142Y-65063714D01*
X221305523Y-65158952D01*
X221257904Y-65206571D01*
X221162666Y-65254190D01*
X220781714Y-65254190D01*
X222305523Y-65730380D02*
X221734095Y-65730380D01*
X222019809Y-65730380D02*
X222019809Y-64730380D01*
X221924571Y-64873238D01*
X221829333Y-64968476D01*
X221734095Y-65016095D01*
X223162666Y-65063714D02*
X223162666Y-65730380D01*
X222924571Y-64682761D02*
X222686476Y-65397047D01*
X223305523Y-65397047D01*
%TO.C,J11*%
X210248380Y-69389523D02*
X210962666Y-69389523D01*
X211105523Y-69437142D01*
X211200761Y-69532380D01*
X211248380Y-69675238D01*
X211248380Y-69770476D01*
X211248380Y-68389523D02*
X211248380Y-68960952D01*
X211248380Y-68675238D02*
X210248380Y-68675238D01*
X210391238Y-68770476D01*
X210486476Y-68865714D01*
X210534095Y-68960952D01*
X211248380Y-67437142D02*
X211248380Y-68008571D01*
X211248380Y-67722857D02*
X210248380Y-67722857D01*
X210391238Y-67818095D01*
X210486476Y-67913333D01*
X210534095Y-68008571D01*
%TO.C,R13*%
X192651142Y-40838380D02*
X192317809Y-40362190D01*
X192079714Y-40838380D02*
X192079714Y-39838380D01*
X192460666Y-39838380D01*
X192555904Y-39886000D01*
X192603523Y-39933619D01*
X192651142Y-40028857D01*
X192651142Y-40171714D01*
X192603523Y-40266952D01*
X192555904Y-40314571D01*
X192460666Y-40362190D01*
X192079714Y-40362190D01*
X193603523Y-40838380D02*
X193032095Y-40838380D01*
X193317809Y-40838380D02*
X193317809Y-39838380D01*
X193222571Y-39981238D01*
X193127333Y-40076476D01*
X193032095Y-40124095D01*
X193936857Y-39838380D02*
X194555904Y-39838380D01*
X194222571Y-40219333D01*
X194365428Y-40219333D01*
X194460666Y-40266952D01*
X194508285Y-40314571D01*
X194555904Y-40409809D01*
X194555904Y-40647904D01*
X194508285Y-40743142D01*
X194460666Y-40790761D01*
X194365428Y-40838380D01*
X194079714Y-40838380D01*
X193984476Y-40790761D01*
X193936857Y-40743142D01*
%TO.C,R12*%
X202557142Y-40838380D02*
X202223809Y-40362190D01*
X201985714Y-40838380D02*
X201985714Y-39838380D01*
X202366666Y-39838380D01*
X202461904Y-39886000D01*
X202509523Y-39933619D01*
X202557142Y-40028857D01*
X202557142Y-40171714D01*
X202509523Y-40266952D01*
X202461904Y-40314571D01*
X202366666Y-40362190D01*
X201985714Y-40362190D01*
X203509523Y-40838380D02*
X202938095Y-40838380D01*
X203223809Y-40838380D02*
X203223809Y-39838380D01*
X203128571Y-39981238D01*
X203033333Y-40076476D01*
X202938095Y-40124095D01*
X203890476Y-39933619D02*
X203938095Y-39886000D01*
X204033333Y-39838380D01*
X204271428Y-39838380D01*
X204366666Y-39886000D01*
X204414285Y-39933619D01*
X204461904Y-40028857D01*
X204461904Y-40124095D01*
X204414285Y-40266952D01*
X203842857Y-40838380D01*
X204461904Y-40838380D01*
%TO.C,U4*%
X206610380Y-106171904D02*
X207419904Y-106171904D01*
X207515142Y-106124285D01*
X207562761Y-106076666D01*
X207610380Y-105981428D01*
X207610380Y-105790952D01*
X207562761Y-105695714D01*
X207515142Y-105648095D01*
X207419904Y-105600476D01*
X206610380Y-105600476D01*
X206943714Y-104695714D02*
X207610380Y-104695714D01*
X206562761Y-104933809D02*
X207277047Y-105171904D01*
X207277047Y-104552857D01*
%TO.C,U3*%
X210820095Y-107970380D02*
X210820095Y-108779904D01*
X210867714Y-108875142D01*
X210915333Y-108922761D01*
X211010571Y-108970380D01*
X211201047Y-108970380D01*
X211296285Y-108922761D01*
X211343904Y-108875142D01*
X211391523Y-108779904D01*
X211391523Y-107970380D01*
X211772476Y-107970380D02*
X212391523Y-107970380D01*
X212058190Y-108351333D01*
X212201047Y-108351333D01*
X212296285Y-108398952D01*
X212343904Y-108446571D01*
X212391523Y-108541809D01*
X212391523Y-108779904D01*
X212343904Y-108875142D01*
X212296285Y-108922761D01*
X212201047Y-108970380D01*
X211915333Y-108970380D01*
X211820095Y-108922761D01*
X211772476Y-108875142D01*
%TO.C,U2*%
X208796380Y-96519904D02*
X209605904Y-96519904D01*
X209701142Y-96472285D01*
X209748761Y-96424666D01*
X209796380Y-96329428D01*
X209796380Y-96138952D01*
X209748761Y-96043714D01*
X209701142Y-95996095D01*
X209605904Y-95948476D01*
X208796380Y-95948476D01*
X208891619Y-95519904D02*
X208844000Y-95472285D01*
X208796380Y-95377047D01*
X208796380Y-95138952D01*
X208844000Y-95043714D01*
X208891619Y-94996095D01*
X208986857Y-94948476D01*
X209082095Y-94948476D01*
X209224952Y-94996095D01*
X209796380Y-95567523D01*
X209796380Y-94948476D01*
%TO.C,U1*%
X199204595Y-51664380D02*
X199204595Y-52473904D01*
X199252214Y-52569142D01*
X199299833Y-52616761D01*
X199395071Y-52664380D01*
X199585547Y-52664380D01*
X199680785Y-52616761D01*
X199728404Y-52569142D01*
X199776023Y-52473904D01*
X199776023Y-51664380D01*
X200776023Y-52664380D02*
X200204595Y-52664380D01*
X200490309Y-52664380D02*
X200490309Y-51664380D01*
X200395071Y-51807238D01*
X200299833Y-51902476D01*
X200204595Y-51950095D01*
%TO.C,RV2*%
X194730761Y-46680380D02*
X194397428Y-46204190D01*
X194159333Y-46680380D02*
X194159333Y-45680380D01*
X194540285Y-45680380D01*
X194635523Y-45728000D01*
X194683142Y-45775619D01*
X194730761Y-45870857D01*
X194730761Y-46013714D01*
X194683142Y-46108952D01*
X194635523Y-46156571D01*
X194540285Y-46204190D01*
X194159333Y-46204190D01*
X195016476Y-45680380D02*
X195349809Y-46680380D01*
X195683142Y-45680380D01*
X195968857Y-45775619D02*
X196016476Y-45728000D01*
X196111714Y-45680380D01*
X196349809Y-45680380D01*
X196445047Y-45728000D01*
X196492666Y-45775619D01*
X196540285Y-45870857D01*
X196540285Y-45966095D01*
X196492666Y-46108952D01*
X195921238Y-46680380D01*
X196540285Y-46680380D01*
%TO.C,RV1*%
X216828761Y-46680380D02*
X216495428Y-46204190D01*
X216257333Y-46680380D02*
X216257333Y-45680380D01*
X216638285Y-45680380D01*
X216733523Y-45728000D01*
X216781142Y-45775619D01*
X216828761Y-45870857D01*
X216828761Y-46013714D01*
X216781142Y-46108952D01*
X216733523Y-46156571D01*
X216638285Y-46204190D01*
X216257333Y-46204190D01*
X217114476Y-45680380D02*
X217447809Y-46680380D01*
X217781142Y-45680380D01*
X218638285Y-46680380D02*
X218066857Y-46680380D01*
X218352571Y-46680380D02*
X218352571Y-45680380D01*
X218257333Y-45823238D01*
X218162095Y-45918476D01*
X218066857Y-45966095D01*
%TO.C,R11*%
X212971142Y-111450380D02*
X212637809Y-110974190D01*
X212399714Y-111450380D02*
X212399714Y-110450380D01*
X212780666Y-110450380D01*
X212875904Y-110498000D01*
X212923523Y-110545619D01*
X212971142Y-110640857D01*
X212971142Y-110783714D01*
X212923523Y-110878952D01*
X212875904Y-110926571D01*
X212780666Y-110974190D01*
X212399714Y-110974190D01*
X213923523Y-111450380D02*
X213352095Y-111450380D01*
X213637809Y-111450380D02*
X213637809Y-110450380D01*
X213542571Y-110593238D01*
X213447333Y-110688476D01*
X213352095Y-110736095D01*
X214875904Y-111450380D02*
X214304476Y-111450380D01*
X214590190Y-111450380D02*
X214590190Y-110450380D01*
X214494952Y-110593238D01*
X214399714Y-110688476D01*
X214304476Y-110736095D01*
%TO.C,R10*%
X202811142Y-111450380D02*
X202477809Y-110974190D01*
X202239714Y-111450380D02*
X202239714Y-110450380D01*
X202620666Y-110450380D01*
X202715904Y-110498000D01*
X202763523Y-110545619D01*
X202811142Y-110640857D01*
X202811142Y-110783714D01*
X202763523Y-110878952D01*
X202715904Y-110926571D01*
X202620666Y-110974190D01*
X202239714Y-110974190D01*
X203763523Y-111450380D02*
X203192095Y-111450380D01*
X203477809Y-111450380D02*
X203477809Y-110450380D01*
X203382571Y-110593238D01*
X203287333Y-110688476D01*
X203192095Y-110736095D01*
X204382571Y-110450380D02*
X204477809Y-110450380D01*
X204573047Y-110498000D01*
X204620666Y-110545619D01*
X204668285Y-110640857D01*
X204715904Y-110831333D01*
X204715904Y-111069428D01*
X204668285Y-111259904D01*
X204620666Y-111355142D01*
X204573047Y-111402761D01*
X204477809Y-111450380D01*
X204382571Y-111450380D01*
X204287333Y-111402761D01*
X204239714Y-111355142D01*
X204192095Y-111259904D01*
X204144476Y-111069428D01*
X204144476Y-110831333D01*
X204192095Y-110640857D01*
X204239714Y-110545619D01*
X204287333Y-110498000D01*
X204382571Y-110450380D01*
%TO.C,R9*%
X193127333Y-111450380D02*
X192794000Y-110974190D01*
X192555904Y-111450380D02*
X192555904Y-110450380D01*
X192936857Y-110450380D01*
X193032095Y-110498000D01*
X193079714Y-110545619D01*
X193127333Y-110640857D01*
X193127333Y-110783714D01*
X193079714Y-110878952D01*
X193032095Y-110926571D01*
X192936857Y-110974190D01*
X192555904Y-110974190D01*
X193603523Y-111450380D02*
X193794000Y-111450380D01*
X193889238Y-111402761D01*
X193936857Y-111355142D01*
X194032095Y-111212285D01*
X194079714Y-111021809D01*
X194079714Y-110640857D01*
X194032095Y-110545619D01*
X193984476Y-110498000D01*
X193889238Y-110450380D01*
X193698761Y-110450380D01*
X193603523Y-110498000D01*
X193555904Y-110545619D01*
X193508285Y-110640857D01*
X193508285Y-110878952D01*
X193555904Y-110974190D01*
X193603523Y-111021809D01*
X193698761Y-111069428D01*
X193889238Y-111069428D01*
X193984476Y-111021809D01*
X194032095Y-110974190D01*
X194079714Y-110878952D01*
%TO.C,R8*%
X182967333Y-111450380D02*
X182634000Y-110974190D01*
X182395904Y-111450380D02*
X182395904Y-110450380D01*
X182776857Y-110450380D01*
X182872095Y-110498000D01*
X182919714Y-110545619D01*
X182967333Y-110640857D01*
X182967333Y-110783714D01*
X182919714Y-110878952D01*
X182872095Y-110926571D01*
X182776857Y-110974190D01*
X182395904Y-110974190D01*
X183538761Y-110878952D02*
X183443523Y-110831333D01*
X183395904Y-110783714D01*
X183348285Y-110688476D01*
X183348285Y-110640857D01*
X183395904Y-110545619D01*
X183443523Y-110498000D01*
X183538761Y-110450380D01*
X183729238Y-110450380D01*
X183824476Y-110498000D01*
X183872095Y-110545619D01*
X183919714Y-110640857D01*
X183919714Y-110688476D01*
X183872095Y-110783714D01*
X183824476Y-110831333D01*
X183729238Y-110878952D01*
X183538761Y-110878952D01*
X183443523Y-110926571D01*
X183395904Y-110974190D01*
X183348285Y-111069428D01*
X183348285Y-111259904D01*
X183395904Y-111355142D01*
X183443523Y-111402761D01*
X183538761Y-111450380D01*
X183729238Y-111450380D01*
X183824476Y-111402761D01*
X183872095Y-111355142D01*
X183919714Y-111259904D01*
X183919714Y-111069428D01*
X183872095Y-110974190D01*
X183824476Y-110926571D01*
X183729238Y-110878952D01*
%TO.C,R7*%
X184348380Y-49950666D02*
X183872190Y-50284000D01*
X184348380Y-50522095D02*
X183348380Y-50522095D01*
X183348380Y-50141142D01*
X183396000Y-50045904D01*
X183443619Y-49998285D01*
X183538857Y-49950666D01*
X183681714Y-49950666D01*
X183776952Y-49998285D01*
X183824571Y-50045904D01*
X183872190Y-50141142D01*
X183872190Y-50522095D01*
X183348380Y-49617333D02*
X183348380Y-48950666D01*
X184348380Y-49379238D01*
%TO.C,R6*%
X227274380Y-49696666D02*
X226798190Y-50030000D01*
X227274380Y-50268095D02*
X226274380Y-50268095D01*
X226274380Y-49887142D01*
X226322000Y-49791904D01*
X226369619Y-49744285D01*
X226464857Y-49696666D01*
X226607714Y-49696666D01*
X226702952Y-49744285D01*
X226750571Y-49791904D01*
X226798190Y-49887142D01*
X226798190Y-50268095D01*
X226274380Y-48839523D02*
X226274380Y-49030000D01*
X226322000Y-49125238D01*
X226369619Y-49172857D01*
X226512476Y-49268095D01*
X226702952Y-49315714D01*
X227083904Y-49315714D01*
X227179142Y-49268095D01*
X227226761Y-49220476D01*
X227274380Y-49125238D01*
X227274380Y-48934761D01*
X227226761Y-48839523D01*
X227179142Y-48791904D01*
X227083904Y-48744285D01*
X226845809Y-48744285D01*
X226750571Y-48791904D01*
X226702952Y-48839523D01*
X226655333Y-48934761D01*
X226655333Y-49125238D01*
X226702952Y-49220476D01*
X226750571Y-49268095D01*
X226845809Y-49315714D01*
%TO.C,R5*%
X213447333Y-40838380D02*
X213114000Y-40362190D01*
X212875904Y-40838380D02*
X212875904Y-39838380D01*
X213256857Y-39838380D01*
X213352095Y-39886000D01*
X213399714Y-39933619D01*
X213447333Y-40028857D01*
X213447333Y-40171714D01*
X213399714Y-40266952D01*
X213352095Y-40314571D01*
X213256857Y-40362190D01*
X212875904Y-40362190D01*
X214352095Y-39838380D02*
X213875904Y-39838380D01*
X213828285Y-40314571D01*
X213875904Y-40266952D01*
X213971142Y-40219333D01*
X214209238Y-40219333D01*
X214304476Y-40266952D01*
X214352095Y-40314571D01*
X214399714Y-40409809D01*
X214399714Y-40647904D01*
X214352095Y-40743142D01*
X214304476Y-40790761D01*
X214209238Y-40838380D01*
X213971142Y-40838380D01*
X213875904Y-40790761D01*
X213828285Y-40743142D01*
%TO.C,R4*%
X201366380Y-48172666D02*
X200890190Y-48506000D01*
X201366380Y-48744095D02*
X200366380Y-48744095D01*
X200366380Y-48363142D01*
X200414000Y-48267904D01*
X200461619Y-48220285D01*
X200556857Y-48172666D01*
X200699714Y-48172666D01*
X200794952Y-48220285D01*
X200842571Y-48267904D01*
X200890190Y-48363142D01*
X200890190Y-48744095D01*
X200699714Y-47315523D02*
X201366380Y-47315523D01*
X200318761Y-47553619D02*
X201033047Y-47791714D01*
X201033047Y-47172666D01*
%TO.C,R3*%
X205938380Y-48172666D02*
X205462190Y-48506000D01*
X205938380Y-48744095D02*
X204938380Y-48744095D01*
X204938380Y-48363142D01*
X204986000Y-48267904D01*
X205033619Y-48220285D01*
X205128857Y-48172666D01*
X205271714Y-48172666D01*
X205366952Y-48220285D01*
X205414571Y-48267904D01*
X205462190Y-48363142D01*
X205462190Y-48744095D01*
X204938380Y-47839333D02*
X204938380Y-47220285D01*
X205319333Y-47553619D01*
X205319333Y-47410761D01*
X205366952Y-47315523D01*
X205414571Y-47267904D01*
X205509809Y-47220285D01*
X205747904Y-47220285D01*
X205843142Y-47267904D01*
X205890761Y-47315523D01*
X205938380Y-47410761D01*
X205938380Y-47696476D01*
X205890761Y-47791714D01*
X205843142Y-47839333D01*
%TO.C,R2*%
X181046380Y-49950666D02*
X180570190Y-50284000D01*
X181046380Y-50522095D02*
X180046380Y-50522095D01*
X180046380Y-50141142D01*
X180094000Y-50045904D01*
X180141619Y-49998285D01*
X180236857Y-49950666D01*
X180379714Y-49950666D01*
X180474952Y-49998285D01*
X180522571Y-50045904D01*
X180570190Y-50141142D01*
X180570190Y-50522095D01*
X180141619Y-49569714D02*
X180094000Y-49522095D01*
X180046380Y-49426857D01*
X180046380Y-49188761D01*
X180094000Y-49093523D01*
X180141619Y-49045904D01*
X180236857Y-48998285D01*
X180332095Y-48998285D01*
X180474952Y-49045904D01*
X181046380Y-49617333D01*
X181046380Y-48998285D01*
%TO.C,R1*%
X223718380Y-49696666D02*
X223242190Y-50030000D01*
X223718380Y-50268095D02*
X222718380Y-50268095D01*
X222718380Y-49887142D01*
X222766000Y-49791904D01*
X222813619Y-49744285D01*
X222908857Y-49696666D01*
X223051714Y-49696666D01*
X223146952Y-49744285D01*
X223194571Y-49791904D01*
X223242190Y-49887142D01*
X223242190Y-50268095D01*
X223718380Y-48744285D02*
X223718380Y-49315714D01*
X223718380Y-49030000D02*
X222718380Y-49030000D01*
X222861238Y-49125238D01*
X222956476Y-49220476D01*
X223004095Y-49315714D01*
%TO.C,Q2*%
X184308761Y-39917619D02*
X184213523Y-39870000D01*
X184118285Y-39774761D01*
X183975428Y-39631904D01*
X183880190Y-39584285D01*
X183784952Y-39584285D01*
X183832571Y-39822380D02*
X183737333Y-39774761D01*
X183642095Y-39679523D01*
X183594476Y-39489047D01*
X183594476Y-39155714D01*
X183642095Y-38965238D01*
X183737333Y-38870000D01*
X183832571Y-38822380D01*
X184023047Y-38822380D01*
X184118285Y-38870000D01*
X184213523Y-38965238D01*
X184261142Y-39155714D01*
X184261142Y-39489047D01*
X184213523Y-39679523D01*
X184118285Y-39774761D01*
X184023047Y-39822380D01*
X183832571Y-39822380D01*
X184642095Y-38917619D02*
X184689714Y-38870000D01*
X184784952Y-38822380D01*
X185023047Y-38822380D01*
X185118285Y-38870000D01*
X185165904Y-38917619D01*
X185213523Y-39012857D01*
X185213523Y-39108095D01*
X185165904Y-39250952D01*
X184594476Y-39822380D01*
X185213523Y-39822380D01*
%TO.C,Q1*%
X221900761Y-40171619D02*
X221805523Y-40124000D01*
X221710285Y-40028761D01*
X221567428Y-39885904D01*
X221472190Y-39838285D01*
X221376952Y-39838285D01*
X221424571Y-40076380D02*
X221329333Y-40028761D01*
X221234095Y-39933523D01*
X221186476Y-39743047D01*
X221186476Y-39409714D01*
X221234095Y-39219238D01*
X221329333Y-39124000D01*
X221424571Y-39076380D01*
X221615047Y-39076380D01*
X221710285Y-39124000D01*
X221805523Y-39219238D01*
X221853142Y-39409714D01*
X221853142Y-39743047D01*
X221805523Y-39933523D01*
X221710285Y-40028761D01*
X221615047Y-40076380D01*
X221424571Y-40076380D01*
X222805523Y-40076380D02*
X222234095Y-40076380D01*
X222519809Y-40076380D02*
X222519809Y-39076380D01*
X222424571Y-39219238D01*
X222329333Y-39314476D01*
X222234095Y-39362095D01*
%TO.C,J10*%
X209502476Y-114566380D02*
X209502476Y-115280666D01*
X209454857Y-115423523D01*
X209359619Y-115518761D01*
X209216761Y-115566380D01*
X209121523Y-115566380D01*
X210502476Y-115566380D02*
X209931047Y-115566380D01*
X210216761Y-115566380D02*
X210216761Y-114566380D01*
X210121523Y-114709238D01*
X210026285Y-114804476D01*
X209931047Y-114852095D01*
X211121523Y-114566380D02*
X211216761Y-114566380D01*
X211312000Y-114614000D01*
X211359619Y-114661619D01*
X211407238Y-114756857D01*
X211454857Y-114947333D01*
X211454857Y-115185428D01*
X211407238Y-115375904D01*
X211359619Y-115471142D01*
X211312000Y-115518761D01*
X211216761Y-115566380D01*
X211121523Y-115566380D01*
X211026285Y-115518761D01*
X210978666Y-115471142D01*
X210931047Y-115375904D01*
X210883428Y-115185428D01*
X210883428Y-114947333D01*
X210931047Y-114756857D01*
X210978666Y-114661619D01*
X211026285Y-114614000D01*
X211121523Y-114566380D01*
%TO.C,J9*%
X199090666Y-114578380D02*
X199090666Y-115292666D01*
X199043047Y-115435523D01*
X198947809Y-115530761D01*
X198804952Y-115578380D01*
X198709714Y-115578380D01*
X199614476Y-115578380D02*
X199804952Y-115578380D01*
X199900190Y-115530761D01*
X199947809Y-115483142D01*
X200043047Y-115340285D01*
X200090666Y-115149809D01*
X200090666Y-114768857D01*
X200043047Y-114673619D01*
X199995428Y-114626000D01*
X199900190Y-114578380D01*
X199709714Y-114578380D01*
X199614476Y-114626000D01*
X199566857Y-114673619D01*
X199519238Y-114768857D01*
X199519238Y-115006952D01*
X199566857Y-115102190D01*
X199614476Y-115149809D01*
X199709714Y-115197428D01*
X199900190Y-115197428D01*
X199995428Y-115149809D01*
X200043047Y-115102190D01*
X200090666Y-115006952D01*
%TO.C,J8*%
X188930666Y-114578380D02*
X188930666Y-115292666D01*
X188883047Y-115435523D01*
X188787809Y-115530761D01*
X188644952Y-115578380D01*
X188549714Y-115578380D01*
X189549714Y-115006952D02*
X189454476Y-114959333D01*
X189406857Y-114911714D01*
X189359238Y-114816476D01*
X189359238Y-114768857D01*
X189406857Y-114673619D01*
X189454476Y-114626000D01*
X189549714Y-114578380D01*
X189740190Y-114578380D01*
X189835428Y-114626000D01*
X189883047Y-114673619D01*
X189930666Y-114768857D01*
X189930666Y-114816476D01*
X189883047Y-114911714D01*
X189835428Y-114959333D01*
X189740190Y-115006952D01*
X189549714Y-115006952D01*
X189454476Y-115054571D01*
X189406857Y-115102190D01*
X189359238Y-115197428D01*
X189359238Y-115387904D01*
X189406857Y-115483142D01*
X189454476Y-115530761D01*
X189549714Y-115578380D01*
X189740190Y-115578380D01*
X189835428Y-115530761D01*
X189883047Y-115483142D01*
X189930666Y-115387904D01*
X189930666Y-115197428D01*
X189883047Y-115102190D01*
X189835428Y-115054571D01*
X189740190Y-115006952D01*
%TO.C,J7*%
X178770666Y-114578380D02*
X178770666Y-115292666D01*
X178723047Y-115435523D01*
X178627809Y-115530761D01*
X178484952Y-115578380D01*
X178389714Y-115578380D01*
X179151619Y-114578380D02*
X179818285Y-114578380D01*
X179389714Y-115578380D01*
%TO.C,J5*%
X198836666Y-26186380D02*
X198836666Y-26900666D01*
X198789047Y-27043523D01*
X198693809Y-27138761D01*
X198550952Y-27186380D01*
X198455714Y-27186380D01*
X199789047Y-26186380D02*
X199312857Y-26186380D01*
X199265238Y-26662571D01*
X199312857Y-26614952D01*
X199408095Y-26567333D01*
X199646190Y-26567333D01*
X199741428Y-26614952D01*
X199789047Y-26662571D01*
X199836666Y-26757809D01*
X199836666Y-26995904D01*
X199789047Y-27091142D01*
X199741428Y-27138761D01*
X199646190Y-27186380D01*
X199408095Y-27186380D01*
X199312857Y-27138761D01*
X199265238Y-27091142D01*
%TO.C,J4*%
X178516666Y-26186380D02*
X178516666Y-26900666D01*
X178469047Y-27043523D01*
X178373809Y-27138761D01*
X178230952Y-27186380D01*
X178135714Y-27186380D01*
X179421428Y-26519714D02*
X179421428Y-27186380D01*
X179183333Y-26138761D02*
X178945238Y-26853047D01*
X179564285Y-26853047D01*
%TO.C,J3*%
X188676666Y-26186380D02*
X188676666Y-26900666D01*
X188629047Y-27043523D01*
X188533809Y-27138761D01*
X188390952Y-27186380D01*
X188295714Y-27186380D01*
X189057619Y-26186380D02*
X189676666Y-26186380D01*
X189343333Y-26567333D01*
X189486190Y-26567333D01*
X189581428Y-26614952D01*
X189629047Y-26662571D01*
X189676666Y-26757809D01*
X189676666Y-26995904D01*
X189629047Y-27091142D01*
X189581428Y-27138761D01*
X189486190Y-27186380D01*
X189200476Y-27186380D01*
X189105238Y-27138761D01*
X189057619Y-27091142D01*
%TO.C,D2*%
X190015904Y-43886380D02*
X190015904Y-42886380D01*
X190254000Y-42886380D01*
X190396857Y-42934000D01*
X190492095Y-43029238D01*
X190539714Y-43124476D01*
X190587333Y-43314952D01*
X190587333Y-43457809D01*
X190539714Y-43648285D01*
X190492095Y-43743523D01*
X190396857Y-43838761D01*
X190254000Y-43886380D01*
X190015904Y-43886380D01*
X190968285Y-42981619D02*
X191015904Y-42934000D01*
X191111142Y-42886380D01*
X191349238Y-42886380D01*
X191444476Y-42934000D01*
X191492095Y-42981619D01*
X191539714Y-43076857D01*
X191539714Y-43172095D01*
X191492095Y-43314952D01*
X190920666Y-43886380D01*
X191539714Y-43886380D01*
X186428095Y-42086380D02*
X186428095Y-41086380D01*
X186999523Y-42086380D02*
X186570952Y-41514952D01*
X186999523Y-41086380D02*
X186428095Y-41657809D01*
%TO.C,D1*%
X214653904Y-43886380D02*
X214653904Y-42886380D01*
X214892000Y-42886380D01*
X215034857Y-42934000D01*
X215130095Y-43029238D01*
X215177714Y-43124476D01*
X215225333Y-43314952D01*
X215225333Y-43457809D01*
X215177714Y-43648285D01*
X215130095Y-43743523D01*
X215034857Y-43838761D01*
X214892000Y-43886380D01*
X214653904Y-43886380D01*
X216177714Y-43886380D02*
X215606285Y-43886380D01*
X215892000Y-43886380D02*
X215892000Y-42886380D01*
X215796761Y-43029238D01*
X215701523Y-43124476D01*
X215606285Y-43172095D01*
X219194095Y-45686380D02*
X219194095Y-44686380D01*
X219765523Y-45686380D02*
X219336952Y-45114952D01*
X219765523Y-44686380D02*
X219194095Y-45257809D01*
%TO.C,C5*%
X205633333Y-86209142D02*
X205585714Y-86256761D01*
X205442857Y-86304380D01*
X205347619Y-86304380D01*
X205204761Y-86256761D01*
X205109523Y-86161523D01*
X205061904Y-86066285D01*
X205014285Y-85875809D01*
X205014285Y-85732952D01*
X205061904Y-85542476D01*
X205109523Y-85447238D01*
X205204761Y-85352000D01*
X205347619Y-85304380D01*
X205442857Y-85304380D01*
X205585714Y-85352000D01*
X205633333Y-85399619D01*
X206538095Y-85304380D02*
X206061904Y-85304380D01*
X206014285Y-85780571D01*
X206061904Y-85732952D01*
X206157142Y-85685333D01*
X206395238Y-85685333D01*
X206490476Y-85732952D01*
X206538095Y-85780571D01*
X206585714Y-85875809D01*
X206585714Y-86113904D01*
X206538095Y-86209142D01*
X206490476Y-86256761D01*
X206395238Y-86304380D01*
X206157142Y-86304380D01*
X206061904Y-86256761D01*
X206014285Y-86209142D01*
%TO.C,C4*%
X196385142Y-100730666D02*
X196432761Y-100778285D01*
X196480380Y-100921142D01*
X196480380Y-101016380D01*
X196432761Y-101159238D01*
X196337523Y-101254476D01*
X196242285Y-101302095D01*
X196051809Y-101349714D01*
X195908952Y-101349714D01*
X195718476Y-101302095D01*
X195623238Y-101254476D01*
X195528000Y-101159238D01*
X195480380Y-101016380D01*
X195480380Y-100921142D01*
X195528000Y-100778285D01*
X195575619Y-100730666D01*
X195813714Y-99873523D02*
X196480380Y-99873523D01*
X195432761Y-100111619D02*
X196147047Y-100349714D01*
X196147047Y-99730666D01*
%TO.C,C3*%
X196385142Y-93150666D02*
X196432761Y-93198285D01*
X196480380Y-93341142D01*
X196480380Y-93436380D01*
X196432761Y-93579238D01*
X196337523Y-93674476D01*
X196242285Y-93722095D01*
X196051809Y-93769714D01*
X195908952Y-93769714D01*
X195718476Y-93722095D01*
X195623238Y-93674476D01*
X195528000Y-93579238D01*
X195480380Y-93436380D01*
X195480380Y-93341142D01*
X195528000Y-93198285D01*
X195575619Y-93150666D01*
X195480380Y-92817333D02*
X195480380Y-92198285D01*
X195861333Y-92531619D01*
X195861333Y-92388761D01*
X195908952Y-92293523D01*
X195956571Y-92245904D01*
X196051809Y-92198285D01*
X196289904Y-92198285D01*
X196385142Y-92245904D01*
X196432761Y-92293523D01*
X196480380Y-92388761D01*
X196480380Y-92674476D01*
X196432761Y-92769714D01*
X196385142Y-92817333D01*
%TO.C,C2*%
X195413333Y-86209142D02*
X195365714Y-86256761D01*
X195222857Y-86304380D01*
X195127619Y-86304380D01*
X194984761Y-86256761D01*
X194889523Y-86161523D01*
X194841904Y-86066285D01*
X194794285Y-85875809D01*
X194794285Y-85732952D01*
X194841904Y-85542476D01*
X194889523Y-85447238D01*
X194984761Y-85352000D01*
X195127619Y-85304380D01*
X195222857Y-85304380D01*
X195365714Y-85352000D01*
X195413333Y-85399619D01*
X195794285Y-85399619D02*
X195841904Y-85352000D01*
X195937142Y-85304380D01*
X196175238Y-85304380D01*
X196270476Y-85352000D01*
X196318095Y-85399619D01*
X196365714Y-85494857D01*
X196365714Y-85590095D01*
X196318095Y-85732952D01*
X195746666Y-86304380D01*
X196365714Y-86304380D01*
%TO.C,C1*%
X184805333Y-86209142D02*
X184757714Y-86256761D01*
X184614857Y-86304380D01*
X184519619Y-86304380D01*
X184376761Y-86256761D01*
X184281523Y-86161523D01*
X184233904Y-86066285D01*
X184186285Y-85875809D01*
X184186285Y-85732952D01*
X184233904Y-85542476D01*
X184281523Y-85447238D01*
X184376761Y-85352000D01*
X184519619Y-85304380D01*
X184614857Y-85304380D01*
X184757714Y-85352000D01*
X184805333Y-85399619D01*
X185757714Y-86304380D02*
X185186285Y-86304380D01*
X185472000Y-86304380D02*
X185472000Y-85304380D01*
X185376761Y-85447238D01*
X185281523Y-85542476D01*
X185186285Y-85590095D01*
%TD*%
M02*
