%TF.GenerationSoftware,KiCad,Pcbnew,6.0.4-1.fc35*%
%TF.CreationDate,2022-07-20T22:04:06-04:00*%
%TF.ProjectId,vccg,76636367-2e6b-4696-9361-645f70636258,rev?*%
%TF.SameCoordinates,Original*%
%TF.FileFunction,Soldermask,Top*%
%TF.FilePolarity,Negative*%
%FSLAX46Y46*%
G04 Gerber Fmt 4.6, Leading zero omitted, Abs format (unit mm)*
G04 Created by KiCad (PCBNEW 6.0.4-1.fc35) date 2022-07-20 22:04:06*
%MOMM*%
%LPD*%
G01*
G04 APERTURE LIST*
G04 Aperture macros list*
%AMRoundRect*
0 Rectangle with rounded corners*
0 $1 Rounding radius*
0 $2 $3 $4 $5 $6 $7 $8 $9 X,Y pos of 4 corners*
0 Add a 4 corners polygon primitive as box body*
4,1,4,$2,$3,$4,$5,$6,$7,$8,$9,$2,$3,0*
0 Add four circle primitives for the rounded corners*
1,1,$1+$1,$2,$3*
1,1,$1+$1,$4,$5*
1,1,$1+$1,$6,$7*
1,1,$1+$1,$8,$9*
0 Add four rect primitives between the rounded corners*
20,1,$1+$1,$2,$3,$4,$5,0*
20,1,$1+$1,$4,$5,$6,$7,0*
20,1,$1+$1,$6,$7,$8,$9,0*
20,1,$1+$1,$8,$9,$2,$3,0*%
G04 Aperture macros list end*
%ADD10RoundRect,0.150000X0.150000X-0.650000X0.150000X0.650000X-0.150000X0.650000X-0.150000X-0.650000X0*%
%ADD11C,3.240000*%
%ADD12R,1.800000X1.800000*%
%ADD13C,1.800000*%
%ADD14RoundRect,0.200000X-0.200000X-0.275000X0.200000X-0.275000X0.200000X0.275000X-0.200000X0.275000X0*%
%ADD15RoundRect,0.225000X-0.225000X-0.250000X0.225000X-0.250000X0.225000X0.250000X-0.225000X0.250000X0*%
%ADD16R,1.930000X1.830000*%
%ADD17C,2.130000*%
%ADD18R,0.300000X1.400000*%
%ADD19RoundRect,0.150000X-0.825000X-0.150000X0.825000X-0.150000X0.825000X0.150000X-0.825000X0.150000X0*%
%ADD20RoundRect,0.200000X0.200000X0.275000X-0.200000X0.275000X-0.200000X-0.275000X0.200000X-0.275000X0*%
%ADD21RoundRect,0.225000X-0.250000X0.225000X-0.250000X-0.225000X0.250000X-0.225000X0.250000X0.225000X0*%
%ADD22R,1.550000X1.300000*%
%ADD23RoundRect,0.200000X-0.275000X0.200000X-0.275000X-0.200000X0.275000X-0.200000X0.275000X0.200000X0*%
%ADD24R,1.700000X1.700000*%
%ADD25O,1.700000X1.700000*%
%ADD26RoundRect,0.250000X0.475000X-0.250000X0.475000X0.250000X-0.475000X0.250000X-0.475000X-0.250000X0*%
%ADD27RoundRect,0.200000X0.275000X-0.200000X0.275000X0.200000X-0.275000X0.200000X-0.275000X-0.200000X0*%
%ADD28RoundRect,0.237500X2.462500X-2.137500X2.462500X2.137500X-2.462500X2.137500X-2.462500X-2.137500X0*%
%ADD29C,0.600000*%
%ADD30RoundRect,0.020000X-1.030000X-0.180000X1.030000X-0.180000X1.030000X0.180000X-1.030000X0.180000X0*%
%ADD31O,2.150000X0.900000*%
%ADD32RoundRect,0.050000X-0.450000X-0.600000X0.450000X-0.600000X0.450000X0.600000X-0.450000X0.600000X0*%
%ADD33RoundRect,0.095000X-0.855000X-0.855000X0.855000X-0.855000X0.855000X0.855000X-0.855000X0.855000X0*%
%ADD34R,1.800000X1.100000*%
%ADD35RoundRect,0.218750X-0.218750X-0.256250X0.218750X-0.256250X0.218750X0.256250X-0.218750X0.256250X0*%
%ADD36RoundRect,0.225000X0.250000X-0.225000X0.250000X0.225000X-0.250000X0.225000X-0.250000X-0.225000X0*%
%ADD37R,1.400000X1.200000*%
%ADD38R,0.900000X1.200000*%
%ADD39RoundRect,0.225000X0.225000X0.250000X-0.225000X0.250000X-0.225000X-0.250000X0.225000X-0.250000X0*%
%ADD40RoundRect,0.250000X1.500000X0.550000X-1.500000X0.550000X-1.500000X-0.550000X1.500000X-0.550000X0*%
%ADD41R,1.200000X0.900000*%
%ADD42RoundRect,0.150000X0.825000X0.150000X-0.825000X0.150000X-0.825000X-0.150000X0.825000X-0.150000X0*%
%ADD43RoundRect,0.150000X-0.150000X0.587500X-0.150000X-0.587500X0.150000X-0.587500X0.150000X0.587500X0*%
%ADD44RoundRect,0.050000X-0.387500X-0.050000X0.387500X-0.050000X0.387500X0.050000X-0.387500X0.050000X0*%
%ADD45RoundRect,0.050000X-0.050000X-0.387500X0.050000X-0.387500X0.050000X0.387500X-0.050000X0.387500X0*%
%ADD46R,5.600000X5.600000*%
G04 APERTURE END LIST*
D10*
%TO.C,U3*%
X186030000Y-78180000D03*
X187300000Y-78180000D03*
X188570000Y-78180000D03*
X189840000Y-78180000D03*
X189840000Y-70980000D03*
X188570000Y-70980000D03*
X187300000Y-70980000D03*
X186030000Y-70980000D03*
%TD*%
D11*
%TO.C,RV2*%
X179959600Y-44534600D03*
X189559600Y-44534600D03*
D12*
X182259600Y-52034600D03*
D13*
X184759600Y-52034600D03*
X187259600Y-52034600D03*
%TD*%
D14*
%TO.C,R23*%
X178650000Y-111650000D03*
X180300000Y-111650000D03*
%TD*%
%TO.C,R6*%
X214600000Y-70875000D03*
X216250000Y-70875000D03*
%TD*%
D15*
%TO.C,C1*%
X206707100Y-85599800D03*
X208257100Y-85599800D03*
%TD*%
D14*
%TO.C,R4*%
X225900000Y-40150000D03*
X227550000Y-40150000D03*
%TD*%
D16*
%TO.C,J3*%
X203200000Y-26200000D03*
D17*
X203200000Y-37600000D03*
X203200000Y-29300000D03*
%TD*%
D16*
%TO.C,J10*%
X203200000Y-114020000D03*
D17*
X203200000Y-125420000D03*
X203200000Y-117120000D03*
%TD*%
D18*
%TO.C,U6*%
X194040000Y-82940800D03*
X193540000Y-82940800D03*
X193040000Y-82940800D03*
X192540000Y-82940800D03*
X192040000Y-82940800D03*
X192040000Y-87340800D03*
X192540000Y-87340800D03*
X193040000Y-87340800D03*
X193540000Y-87340800D03*
X194040000Y-87340800D03*
%TD*%
D14*
%TO.C,R32*%
X184975000Y-63600000D03*
X186625000Y-63600000D03*
%TD*%
D19*
%TO.C,U7*%
X216575000Y-98045000D03*
X216575000Y-99315000D03*
X216575000Y-100585000D03*
X216575000Y-101855000D03*
X221525000Y-101855000D03*
X221525000Y-100585000D03*
X221525000Y-99315000D03*
X221525000Y-98045000D03*
%TD*%
D20*
%TO.C,R15*%
X214625000Y-99300000D03*
X212975000Y-99300000D03*
%TD*%
D19*
%TO.C,U2*%
X211330000Y-55930000D03*
X211330000Y-57200000D03*
X211330000Y-58470000D03*
X211330000Y-59740000D03*
X206380000Y-59740000D03*
X206380000Y-58470000D03*
X206380000Y-57200000D03*
X206380000Y-55930000D03*
%TD*%
D16*
%TO.C,J11*%
X183000000Y-114020000D03*
D17*
X183000000Y-125420000D03*
X183000000Y-117120000D03*
%TD*%
D21*
%TO.C,C7*%
X199200000Y-81270000D03*
X199200000Y-79720000D03*
%TD*%
D22*
%TO.C,SW1*%
X227050000Y-66228400D03*
X219090000Y-66228400D03*
X219090000Y-70728400D03*
X227050000Y-70728400D03*
%TD*%
D23*
%TO.C,R20*%
X224175000Y-98775000D03*
X224175000Y-100425000D03*
%TD*%
D24*
%TO.C,J6*%
X184975000Y-95295000D03*
D25*
X182435000Y-95295000D03*
X184975000Y-97835000D03*
X182435000Y-97835000D03*
X184975000Y-100375000D03*
X182435000Y-100375000D03*
X184975000Y-102915000D03*
X182435000Y-102915000D03*
X184975000Y-105455000D03*
X182435000Y-105455000D03*
%TD*%
D16*
%TO.C,J2*%
X183000000Y-26200000D03*
D17*
X183000000Y-37600000D03*
X183000000Y-29300000D03*
%TD*%
D14*
%TO.C,R11*%
X203584500Y-85599800D03*
X205234500Y-85599800D03*
%TD*%
D26*
%TO.C,C12*%
X187875000Y-68105000D03*
X187875000Y-66205000D03*
%TD*%
D24*
%TO.C,J7*%
X211055000Y-88260000D03*
D25*
X213595000Y-88260000D03*
X216135000Y-88260000D03*
%TD*%
D20*
%TO.C,R27*%
X196900000Y-75350000D03*
X195250000Y-75350000D03*
%TD*%
D23*
%TO.C,R3*%
X189900000Y-54200000D03*
X189900000Y-55850000D03*
%TD*%
D19*
%TO.C,U8*%
X216575000Y-91195000D03*
X216575000Y-92465000D03*
X216575000Y-93735000D03*
X216575000Y-95005000D03*
X221525000Y-95005000D03*
X221525000Y-93735000D03*
X221525000Y-92465000D03*
X221525000Y-91195000D03*
%TD*%
D27*
%TO.C,R10*%
X217580000Y-43530000D03*
X217580000Y-41880000D03*
%TD*%
D28*
%TO.C,L1*%
X199775000Y-104300000D03*
X208625000Y-104300000D03*
%TD*%
D29*
%TO.C,J8*%
X181365000Y-86480400D03*
X181365000Y-82480400D03*
D30*
X182245000Y-83180400D03*
X182245000Y-83830400D03*
X182245000Y-84480400D03*
X182245000Y-85130400D03*
X182245000Y-85780400D03*
D31*
X179295000Y-87305400D03*
D32*
X181545000Y-81280400D03*
D33*
X179295000Y-83330400D03*
X179295000Y-85630400D03*
D31*
X179295000Y-81655400D03*
D32*
X181545000Y-87680400D03*
%TD*%
D34*
%TO.C,SW4*%
X186361000Y-57179600D03*
X180161000Y-57179600D03*
X180161000Y-60879600D03*
X186361000Y-60879600D03*
%TD*%
D27*
%TO.C,R16*%
X225775000Y-100400000D03*
X225775000Y-98750000D03*
%TD*%
D14*
%TO.C,R29*%
X196825000Y-82825000D03*
X198475000Y-82825000D03*
%TD*%
D35*
%TO.C,D4*%
X211025000Y-73700000D03*
X212600000Y-73700000D03*
%TD*%
D36*
%TO.C,C11*%
X194081400Y-80861200D03*
X194081400Y-79311200D03*
%TD*%
D27*
%TO.C,R18*%
X225500000Y-93950000D03*
X225500000Y-92300000D03*
%TD*%
D14*
%TO.C,R24*%
X188775000Y-111700000D03*
X190425000Y-111700000D03*
%TD*%
D36*
%TO.C,C13*%
X189725000Y-68080000D03*
X189725000Y-66530000D03*
%TD*%
D14*
%TO.C,R8*%
X215650000Y-78200000D03*
X217300000Y-78200000D03*
%TD*%
D22*
%TO.C,SW3*%
X227100000Y-73700000D03*
X219140000Y-73700000D03*
X219140000Y-78200000D03*
X227100000Y-78200000D03*
%TD*%
D26*
%TO.C,C8*%
X184900000Y-92650000D03*
X184900000Y-90750000D03*
%TD*%
D36*
%TO.C,C3*%
X204956000Y-68120000D03*
X204956000Y-69670000D03*
%TD*%
D15*
%TO.C,C2*%
X211880000Y-78840000D03*
X213430000Y-78840000D03*
%TD*%
D26*
%TO.C,C9*%
X182664800Y-110037400D03*
X182664800Y-108137400D03*
%TD*%
D14*
%TO.C,R5*%
X216000000Y-40100000D03*
X217650000Y-40100000D03*
%TD*%
D36*
%TO.C,C10*%
X186055000Y-68138600D03*
X186055000Y-66588600D03*
%TD*%
D37*
%TO.C,Y1*%
X201815300Y-88900000D03*
X204015300Y-88900000D03*
X204015300Y-87200000D03*
X201815300Y-87200000D03*
%TD*%
D36*
%TO.C,C15*%
X203432000Y-69670000D03*
X203432000Y-68120000D03*
%TD*%
%TO.C,C5*%
X182425000Y-92625000D03*
X182425000Y-91075000D03*
%TD*%
D14*
%TO.C,R14*%
X184750000Y-85350000D03*
X186400000Y-85350000D03*
%TD*%
D36*
%TO.C,C14*%
X199925900Y-88813200D03*
X199925900Y-87263200D03*
%TD*%
D24*
%TO.C,J9*%
X206451200Y-64439800D03*
D25*
X203911200Y-64439800D03*
X201371200Y-64439800D03*
X198831200Y-64439800D03*
%TD*%
D17*
%TO.C,J5*%
X213300000Y-29320000D03*
X213300000Y-37620000D03*
D16*
X213300000Y-26220000D03*
%TD*%
D36*
%TO.C,C6*%
X184900000Y-109850000D03*
X184900000Y-108300000D03*
%TD*%
D20*
%TO.C,R12*%
X210962500Y-75300000D03*
X212612500Y-75300000D03*
%TD*%
D16*
%TO.C,J13*%
X213300000Y-114020000D03*
D17*
X213300000Y-125420000D03*
X213300000Y-117120000D03*
%TD*%
D20*
%TO.C,R28*%
X196900000Y-76900000D03*
X195250000Y-76900000D03*
%TD*%
D19*
%TO.C,U5*%
X192000000Y-95270000D03*
X192000000Y-96540000D03*
X192000000Y-97810000D03*
X192000000Y-99080000D03*
X196950000Y-99080000D03*
X196950000Y-97810000D03*
X196950000Y-96540000D03*
X196950000Y-95270000D03*
%TD*%
D14*
%TO.C,R26*%
X209025000Y-111775000D03*
X210675000Y-111775000D03*
%TD*%
D36*
%TO.C,C4*%
X199059800Y-74409600D03*
X199059800Y-72859600D03*
%TD*%
D38*
%TO.C,D5*%
X179452000Y-77597000D03*
X182752000Y-77597000D03*
%TD*%
D35*
%TO.C,D6*%
X222587500Y-116175000D03*
X224162500Y-116175000D03*
%TD*%
D39*
%TO.C,C18*%
X193000000Y-93600000D03*
X191450000Y-93600000D03*
%TD*%
D40*
%TO.C,C19*%
X194500000Y-104925000D03*
X189100000Y-104925000D03*
%TD*%
D20*
%TO.C,R19*%
X214625000Y-97750000D03*
X212975000Y-97750000D03*
%TD*%
%TO.C,R21*%
X214425000Y-91140000D03*
X212775000Y-91140000D03*
%TD*%
D41*
%TO.C,D3*%
X189200000Y-96550000D03*
X189200000Y-99850000D03*
%TD*%
D42*
%TO.C,U1*%
X201905000Y-59835000D03*
X201905000Y-58565000D03*
X201905000Y-57295000D03*
X201905000Y-56025000D03*
X196955000Y-56025000D03*
X196955000Y-57295000D03*
X196955000Y-58565000D03*
X196955000Y-59835000D03*
%TD*%
D36*
%TO.C,C16*%
X206480000Y-68120000D03*
X206480000Y-69670000D03*
%TD*%
D43*
%TO.C,Q1*%
X224175000Y-42962500D03*
X222275000Y-42962500D03*
X223225000Y-44837500D03*
%TD*%
D17*
%TO.C,J4*%
X223400000Y-29300000D03*
X223400000Y-37600000D03*
D16*
X223400000Y-26200000D03*
%TD*%
D14*
%TO.C,R25*%
X198850000Y-111750000D03*
X200500000Y-111750000D03*
%TD*%
%TO.C,R7*%
X214175000Y-85550000D03*
X215825000Y-85550000D03*
%TD*%
D22*
%TO.C,SW2*%
X227050000Y-81300000D03*
X219090000Y-81300000D03*
X227050000Y-85800000D03*
X219090000Y-85800000D03*
%TD*%
D21*
%TO.C,C20*%
X205869500Y-87339400D03*
X205869500Y-88889400D03*
%TD*%
D11*
%TO.C,RV1*%
X204429400Y-44595400D03*
X194829400Y-44595400D03*
D12*
X197129400Y-52095400D03*
D13*
X199629400Y-52095400D03*
X202129400Y-52095400D03*
%TD*%
D43*
%TO.C,Q2*%
X214470000Y-42972500D03*
X212570000Y-42972500D03*
X213520000Y-44847500D03*
%TD*%
D20*
%TO.C,R17*%
X214425000Y-92690000D03*
X212775000Y-92690000D03*
%TD*%
%TO.C,R13*%
X186830000Y-81320000D03*
X185180000Y-81320000D03*
%TD*%
D23*
%TO.C,R2*%
X191475000Y-54200000D03*
X191475000Y-55850000D03*
%TD*%
D27*
%TO.C,R9*%
X226225000Y-45300000D03*
X226225000Y-43650000D03*
%TD*%
D38*
%TO.C,D1*%
X220975000Y-40575000D03*
X224275000Y-40575000D03*
%TD*%
D44*
%TO.C,U4*%
X200676900Y-75251000D03*
X200676900Y-75651000D03*
X200676900Y-76051000D03*
X200676900Y-76451000D03*
X200676900Y-76851000D03*
X200676900Y-77251000D03*
X200676900Y-77651000D03*
X200676900Y-78051000D03*
X200676900Y-78451000D03*
X200676900Y-78851000D03*
X200676900Y-79251000D03*
X200676900Y-79651000D03*
X200676900Y-80051000D03*
X200676900Y-80451000D03*
D45*
X201514400Y-81288500D03*
X201914400Y-81288500D03*
X202314400Y-81288500D03*
X202714400Y-81288500D03*
X203114400Y-81288500D03*
X203514400Y-81288500D03*
X203914400Y-81288500D03*
X204314400Y-81288500D03*
X204714400Y-81288500D03*
X205114400Y-81288500D03*
X205514400Y-81288500D03*
X205914400Y-81288500D03*
X206314400Y-81288500D03*
X206714400Y-81288500D03*
D44*
X207551900Y-80451000D03*
X207551900Y-80051000D03*
X207551900Y-79651000D03*
X207551900Y-79251000D03*
X207551900Y-78851000D03*
X207551900Y-78451000D03*
X207551900Y-78051000D03*
X207551900Y-77651000D03*
X207551900Y-77251000D03*
X207551900Y-76851000D03*
X207551900Y-76451000D03*
X207551900Y-76051000D03*
X207551900Y-75651000D03*
X207551900Y-75251000D03*
D45*
X206714400Y-74413500D03*
X206314400Y-74413500D03*
X205914400Y-74413500D03*
X205514400Y-74413500D03*
X205114400Y-74413500D03*
X204714400Y-74413500D03*
X204314400Y-74413500D03*
X203914400Y-74413500D03*
X203514400Y-74413500D03*
X203114400Y-74413500D03*
X202714400Y-74413500D03*
X202314400Y-74413500D03*
X201914400Y-74413500D03*
X201514400Y-74413500D03*
D46*
X204114400Y-77851000D03*
%TD*%
D23*
%TO.C,R22*%
X223950000Y-92300000D03*
X223950000Y-93950000D03*
%TD*%
D16*
%TO.C,J1*%
X193100000Y-26220000D03*
D17*
X193100000Y-37620000D03*
X193100000Y-29320000D03*
%TD*%
D38*
%TO.C,D2*%
X214480000Y-40510000D03*
X211180000Y-40510000D03*
%TD*%
D14*
%TO.C,R30*%
X196825000Y-84375000D03*
X198475000Y-84375000D03*
%TD*%
D16*
%TO.C,J12*%
X193100000Y-114020000D03*
D17*
X193100000Y-125420000D03*
X193100000Y-117120000D03*
%TD*%
D15*
%TO.C,C17*%
X206961700Y-84025000D03*
X208511700Y-84025000D03*
%TD*%
D20*
%TO.C,R31*%
X224174600Y-114346200D03*
X222524600Y-114346200D03*
%TD*%
D14*
%TO.C,R1*%
X217600000Y-63250000D03*
X219250000Y-63250000D03*
%TD*%
M02*
