%TF.GenerationSoftware,KiCad,Pcbnew,5.1.7-1.fc31*%
%TF.CreationDate,2021-04-20T15:52:53-04:00*%
%TF.ProjectId,4xmixer,34786d69-7865-4722-9e6b-696361645f70,rev?*%
%TF.SameCoordinates,Original*%
%TF.FileFunction,Legend,Bot*%
%TF.FilePolarity,Positive*%
%FSLAX46Y46*%
G04 Gerber Fmt 4.6, Leading zero omitted, Abs format (unit mm)*
G04 Created by KiCad (PCBNEW 5.1.7-1.fc31) date 2021-04-20 15:52:53*
%MOMM*%
%LPD*%
G01*
G04 APERTURE LIST*
%ADD10C,0.150000*%
%ADD11C,0.120000*%
G04 APERTURE END LIST*
D10*
X37626666Y-23430666D02*
X37626666Y-22730666D01*
X37393333Y-23230666D01*
X37160000Y-22730666D01*
X37160000Y-23430666D01*
X36826666Y-23430666D02*
X36826666Y-22964000D01*
X36826666Y-22730666D02*
X36860000Y-22764000D01*
X36826666Y-22797333D01*
X36793333Y-22764000D01*
X36826666Y-22730666D01*
X36826666Y-22797333D01*
X36560000Y-23430666D02*
X36193333Y-22964000D01*
X36560000Y-22964000D02*
X36193333Y-23430666D01*
X35660000Y-23397333D02*
X35726666Y-23430666D01*
X35860000Y-23430666D01*
X35926666Y-23397333D01*
X35960000Y-23330666D01*
X35960000Y-23064000D01*
X35926666Y-22997333D01*
X35860000Y-22964000D01*
X35726666Y-22964000D01*
X35660000Y-22997333D01*
X35626666Y-23064000D01*
X35626666Y-23130666D01*
X35960000Y-23197333D01*
X35326666Y-23430666D02*
X35326666Y-22964000D01*
X35326666Y-23097333D02*
X35293333Y-23030666D01*
X35260000Y-22997333D01*
X35193333Y-22964000D01*
X35126666Y-22964000D01*
X34426666Y-22964000D02*
X34260000Y-23430666D01*
X34093333Y-22964000D01*
X33460000Y-23430666D02*
X33860000Y-23430666D01*
X33660000Y-23430666D02*
X33660000Y-22730666D01*
X33726666Y-22830666D01*
X33793333Y-22897333D01*
X33860000Y-22930666D01*
X39560000Y-21240000D02*
X39626666Y-21206666D01*
X39726666Y-21206666D01*
X39826666Y-21240000D01*
X39893333Y-21306666D01*
X39926666Y-21373333D01*
X39960000Y-21506666D01*
X39960000Y-21606666D01*
X39926666Y-21740000D01*
X39893333Y-21806666D01*
X39826666Y-21873333D01*
X39726666Y-21906666D01*
X39660000Y-21906666D01*
X39560000Y-21873333D01*
X39526666Y-21840000D01*
X39526666Y-21606666D01*
X39660000Y-21606666D01*
X39226666Y-21906666D02*
X39226666Y-21440000D01*
X39226666Y-21573333D02*
X39193333Y-21506666D01*
X39160000Y-21473333D01*
X39093333Y-21440000D01*
X39026666Y-21440000D01*
X38493333Y-21906666D02*
X38493333Y-21540000D01*
X38526666Y-21473333D01*
X38593333Y-21440000D01*
X38726666Y-21440000D01*
X38793333Y-21473333D01*
X38493333Y-21873333D02*
X38560000Y-21906666D01*
X38726666Y-21906666D01*
X38793333Y-21873333D01*
X38826666Y-21806666D01*
X38826666Y-21740000D01*
X38793333Y-21673333D01*
X38726666Y-21640000D01*
X38560000Y-21640000D01*
X38493333Y-21606666D01*
X38226666Y-21440000D02*
X38060000Y-21906666D01*
X37893333Y-21440000D02*
X38060000Y-21906666D01*
X38126666Y-22073333D01*
X38160000Y-22106666D01*
X38226666Y-22140000D01*
X37093333Y-21906666D02*
X37093333Y-21206666D01*
X36693333Y-21906666D01*
X36693333Y-21206666D01*
X36260000Y-21906666D02*
X36326666Y-21873333D01*
X36360000Y-21840000D01*
X36393333Y-21773333D01*
X36393333Y-21573333D01*
X36360000Y-21506666D01*
X36326666Y-21473333D01*
X36260000Y-21440000D01*
X36160000Y-21440000D01*
X36093333Y-21473333D01*
X36060000Y-21506666D01*
X36026666Y-21573333D01*
X36026666Y-21773333D01*
X36060000Y-21840000D01*
X36093333Y-21873333D01*
X36160000Y-21906666D01*
X36260000Y-21906666D01*
X35726666Y-21906666D02*
X35726666Y-21440000D01*
X35726666Y-21206666D02*
X35760000Y-21240000D01*
X35726666Y-21273333D01*
X35693333Y-21240000D01*
X35726666Y-21206666D01*
X35726666Y-21273333D01*
X35426666Y-21873333D02*
X35360000Y-21906666D01*
X35226666Y-21906666D01*
X35160000Y-21873333D01*
X35126666Y-21806666D01*
X35126666Y-21773333D01*
X35160000Y-21706666D01*
X35226666Y-21673333D01*
X35326666Y-21673333D01*
X35393333Y-21640000D01*
X35426666Y-21573333D01*
X35426666Y-21540000D01*
X35393333Y-21473333D01*
X35326666Y-21440000D01*
X35226666Y-21440000D01*
X35160000Y-21473333D01*
X34560000Y-21873333D02*
X34626666Y-21906666D01*
X34760000Y-21906666D01*
X34826666Y-21873333D01*
X34860000Y-21806666D01*
X34860000Y-21540000D01*
X34826666Y-21473333D01*
X34760000Y-21440000D01*
X34626666Y-21440000D01*
X34560000Y-21473333D01*
X34526666Y-21540000D01*
X34526666Y-21606666D01*
X34860000Y-21673333D01*
X33726666Y-21706666D02*
X33393333Y-21706666D01*
X33793333Y-21906666D02*
X33560000Y-21206666D01*
X33326666Y-21906666D01*
X32793333Y-21440000D02*
X32793333Y-21906666D01*
X33093333Y-21440000D02*
X33093333Y-21806666D01*
X33060000Y-21873333D01*
X32993333Y-21906666D01*
X32893333Y-21906666D01*
X32826666Y-21873333D01*
X32793333Y-21840000D01*
X32160000Y-21906666D02*
X32160000Y-21206666D01*
X32160000Y-21873333D02*
X32226666Y-21906666D01*
X32360000Y-21906666D01*
X32426666Y-21873333D01*
X32460000Y-21840000D01*
X32493333Y-21773333D01*
X32493333Y-21573333D01*
X32460000Y-21506666D01*
X32426666Y-21473333D01*
X32360000Y-21440000D01*
X32226666Y-21440000D01*
X32160000Y-21473333D01*
X31826666Y-21906666D02*
X31826666Y-21440000D01*
X31826666Y-21206666D02*
X31860000Y-21240000D01*
X31826666Y-21273333D01*
X31793333Y-21240000D01*
X31826666Y-21206666D01*
X31826666Y-21273333D01*
X31393333Y-21906666D02*
X31460000Y-21873333D01*
X31493333Y-21840000D01*
X31526666Y-21773333D01*
X31526666Y-21573333D01*
X31493333Y-21506666D01*
X31460000Y-21473333D01*
X31393333Y-21440000D01*
X31293333Y-21440000D01*
X31226666Y-21473333D01*
X31193333Y-21506666D01*
X31160000Y-21573333D01*
X31160000Y-21773333D01*
X31193333Y-21840000D01*
X31226666Y-21873333D01*
X31293333Y-21906666D01*
X31393333Y-21906666D01*
X39046000Y-125780000D02*
X38512666Y-125780000D01*
X37812666Y-126046666D02*
X38212666Y-126046666D01*
X38012666Y-126046666D02*
X38012666Y-125346666D01*
X38079333Y-125446666D01*
X38146000Y-125513333D01*
X38212666Y-125546666D01*
X37546000Y-125413333D02*
X37512666Y-125380000D01*
X37446000Y-125346666D01*
X37279333Y-125346666D01*
X37212666Y-125380000D01*
X37179333Y-125413333D01*
X37146000Y-125480000D01*
X37146000Y-125546666D01*
X37179333Y-125646666D01*
X37579333Y-126046666D01*
X37146000Y-126046666D01*
X36912666Y-125580000D02*
X36746000Y-126046666D01*
X36579333Y-125580000D01*
D11*
X26416000Y-125984000D02*
X35306000Y-125984000D01*
%TO.C,U1*%
X40624000Y-76260000D02*
G75*
G03*
X38624000Y-76260000I-1000000J0D01*
G01*
X38624000Y-76260000D02*
X37374000Y-76260000D01*
X37374000Y-76260000D02*
X37374000Y-65980000D01*
X37374000Y-65980000D02*
X41874000Y-65980000D01*
X41874000Y-65980000D02*
X41874000Y-76260000D01*
X41874000Y-76260000D02*
X40624000Y-76260000D01*
%TO.C,R8*%
X44550000Y-120110000D02*
X41810000Y-120110000D01*
X41810000Y-120110000D02*
X41810000Y-113570000D01*
X41810000Y-113570000D02*
X44550000Y-113570000D01*
X44550000Y-113570000D02*
X44550000Y-120110000D01*
X43180000Y-120880000D02*
X43180000Y-120110000D01*
X43180000Y-112800000D02*
X43180000Y-113570000D01*
%TO.C,R7*%
X44550000Y-60420000D02*
X41810000Y-60420000D01*
X41810000Y-60420000D02*
X41810000Y-53880000D01*
X41810000Y-53880000D02*
X44550000Y-53880000D01*
X44550000Y-53880000D02*
X44550000Y-60420000D01*
X43180000Y-61190000D02*
X43180000Y-60420000D01*
X43180000Y-53110000D02*
X43180000Y-53880000D01*
%TO.C,R6*%
X45185000Y-45180000D02*
X42445000Y-45180000D01*
X42445000Y-45180000D02*
X42445000Y-38640000D01*
X42445000Y-38640000D02*
X45185000Y-38640000D01*
X45185000Y-38640000D02*
X45185000Y-45180000D01*
X43815000Y-45950000D02*
X43815000Y-45180000D01*
X43815000Y-37870000D02*
X43815000Y-38640000D01*
%TO.C,R5*%
X45185000Y-29940000D02*
X42445000Y-29940000D01*
X42445000Y-29940000D02*
X42445000Y-23400000D01*
X42445000Y-23400000D02*
X45185000Y-23400000D01*
X45185000Y-23400000D02*
X45185000Y-29940000D01*
X43815000Y-30710000D02*
X43815000Y-29940000D01*
X43815000Y-22630000D02*
X43815000Y-23400000D01*
%TO.C,R4*%
X28675000Y-75660000D02*
X25935000Y-75660000D01*
X25935000Y-75660000D02*
X25935000Y-69120000D01*
X25935000Y-69120000D02*
X28675000Y-69120000D01*
X28675000Y-69120000D02*
X28675000Y-75660000D01*
X27305000Y-76430000D02*
X27305000Y-75660000D01*
X27305000Y-68350000D02*
X27305000Y-69120000D01*
%TO.C,R3*%
X28675000Y-60420000D02*
X25935000Y-60420000D01*
X25935000Y-60420000D02*
X25935000Y-53880000D01*
X25935000Y-53880000D02*
X28675000Y-53880000D01*
X28675000Y-53880000D02*
X28675000Y-60420000D01*
X27305000Y-61190000D02*
X27305000Y-60420000D01*
X27305000Y-53110000D02*
X27305000Y-53880000D01*
%TO.C,R2*%
X28675000Y-45180000D02*
X25935000Y-45180000D01*
X25935000Y-45180000D02*
X25935000Y-38640000D01*
X25935000Y-38640000D02*
X28675000Y-38640000D01*
X28675000Y-38640000D02*
X28675000Y-45180000D01*
X27305000Y-45950000D02*
X27305000Y-45180000D01*
X27305000Y-37870000D02*
X27305000Y-38640000D01*
%TO.C,R1*%
X28675000Y-29940000D02*
X25935000Y-29940000D01*
X25935000Y-29940000D02*
X25935000Y-23400000D01*
X25935000Y-23400000D02*
X28675000Y-23400000D01*
X28675000Y-23400000D02*
X28675000Y-29940000D01*
X27305000Y-30710000D02*
X27305000Y-29940000D01*
X27305000Y-22630000D02*
X27305000Y-23400000D01*
%TO.C,J5*%
X34350000Y-123250000D02*
X29150000Y-123250000D01*
X34350000Y-113030000D02*
X34350000Y-123250000D01*
X29150000Y-110430000D02*
X29150000Y-123250000D01*
X34350000Y-113030000D02*
X31750000Y-113030000D01*
X31750000Y-113030000D02*
X31750000Y-110430000D01*
X31750000Y-110430000D02*
X29150000Y-110430000D01*
X34350000Y-111760000D02*
X34350000Y-110430000D01*
X34350000Y-110430000D02*
X33020000Y-110430000D01*
%TO.C,D2*%
X35868000Y-96594000D02*
X38808000Y-96594000D01*
X38808000Y-96594000D02*
X38808000Y-102034000D01*
X38808000Y-102034000D02*
X35868000Y-102034000D01*
X35868000Y-102034000D02*
X35868000Y-96594000D01*
X37338000Y-95574000D02*
X37338000Y-96594000D01*
X37338000Y-103054000D02*
X37338000Y-102034000D01*
X35868000Y-97494000D02*
X38808000Y-97494000D01*
X35868000Y-97614000D02*
X38808000Y-97614000D01*
X35868000Y-97374000D02*
X38808000Y-97374000D01*
%TO.C,D1*%
X35252000Y-102034000D02*
X32312000Y-102034000D01*
X32312000Y-102034000D02*
X32312000Y-96594000D01*
X32312000Y-96594000D02*
X35252000Y-96594000D01*
X35252000Y-96594000D02*
X35252000Y-102034000D01*
X33782000Y-103054000D02*
X33782000Y-102034000D01*
X33782000Y-95574000D02*
X33782000Y-96594000D01*
X35252000Y-101134000D02*
X32312000Y-101134000D01*
X35252000Y-101014000D02*
X32312000Y-101014000D01*
X35252000Y-101254000D02*
X32312000Y-101254000D01*
%TO.C,C4*%
X44720000Y-88265000D02*
G75*
G03*
X44720000Y-88265000I-4120000J0D01*
G01*
X36190302Y-90580000D02*
X36990302Y-90580000D01*
X36590302Y-90980000D02*
X36590302Y-90180000D01*
%TO.C,C3*%
X34560000Y-88265000D02*
G75*
G03*
X34560000Y-88265000I-4120000J0D01*
G01*
X26030302Y-90580000D02*
X26830302Y-90580000D01*
X26430302Y-90980000D02*
X26430302Y-90180000D01*
%TO.C,C2*%
X45485000Y-104965000D02*
X42145000Y-104965000D01*
X42145000Y-104965000D02*
X42145000Y-99625000D01*
X42145000Y-99625000D02*
X45485000Y-99625000D01*
X45485000Y-99625000D02*
X45485000Y-104965000D01*
X43815000Y-105005000D02*
X43815000Y-104965000D01*
X43815000Y-99585000D02*
X43815000Y-99625000D01*
%TO.C,C1*%
X25635000Y-97600000D02*
X28975000Y-97600000D01*
X28975000Y-97600000D02*
X28975000Y-102940000D01*
X28975000Y-102940000D02*
X25635000Y-102940000D01*
X25635000Y-102940000D02*
X25635000Y-97600000D01*
X27305000Y-97560000D02*
X27305000Y-97600000D01*
X27305000Y-102980000D02*
X27305000Y-102940000D01*
%TO.C,U1*%
D10*
X40385904Y-73874380D02*
X40385904Y-74683904D01*
X40338285Y-74779142D01*
X40290666Y-74826761D01*
X40195428Y-74874380D01*
X40004952Y-74874380D01*
X39909714Y-74826761D01*
X39862095Y-74779142D01*
X39814476Y-74683904D01*
X39814476Y-73874380D01*
X38814476Y-74874380D02*
X39385904Y-74874380D01*
X39100190Y-74874380D02*
X39100190Y-73874380D01*
X39195428Y-74017238D01*
X39290666Y-74112476D01*
X39385904Y-74160095D01*
%TO.C,R8*%
X43632380Y-116673333D02*
X43156190Y-116340000D01*
X43632380Y-116101904D02*
X42632380Y-116101904D01*
X42632380Y-116482857D01*
X42680000Y-116578095D01*
X42727619Y-116625714D01*
X42822857Y-116673333D01*
X42965714Y-116673333D01*
X43060952Y-116625714D01*
X43108571Y-116578095D01*
X43156190Y-116482857D01*
X43156190Y-116101904D01*
X43060952Y-117244761D02*
X43013333Y-117149523D01*
X42965714Y-117101904D01*
X42870476Y-117054285D01*
X42822857Y-117054285D01*
X42727619Y-117101904D01*
X42680000Y-117149523D01*
X42632380Y-117244761D01*
X42632380Y-117435238D01*
X42680000Y-117530476D01*
X42727619Y-117578095D01*
X42822857Y-117625714D01*
X42870476Y-117625714D01*
X42965714Y-117578095D01*
X43013333Y-117530476D01*
X43060952Y-117435238D01*
X43060952Y-117244761D01*
X43108571Y-117149523D01*
X43156190Y-117101904D01*
X43251428Y-117054285D01*
X43441904Y-117054285D01*
X43537142Y-117101904D01*
X43584761Y-117149523D01*
X43632380Y-117244761D01*
X43632380Y-117435238D01*
X43584761Y-117530476D01*
X43537142Y-117578095D01*
X43441904Y-117625714D01*
X43251428Y-117625714D01*
X43156190Y-117578095D01*
X43108571Y-117530476D01*
X43060952Y-117435238D01*
%TO.C,R7*%
X43759380Y-56983333D02*
X43283190Y-56650000D01*
X43759380Y-56411904D02*
X42759380Y-56411904D01*
X42759380Y-56792857D01*
X42807000Y-56888095D01*
X42854619Y-56935714D01*
X42949857Y-56983333D01*
X43092714Y-56983333D01*
X43187952Y-56935714D01*
X43235571Y-56888095D01*
X43283190Y-56792857D01*
X43283190Y-56411904D01*
X42759380Y-57316666D02*
X42759380Y-57983333D01*
X43759380Y-57554761D01*
%TO.C,R6*%
X44394380Y-41743333D02*
X43918190Y-41410000D01*
X44394380Y-41171904D02*
X43394380Y-41171904D01*
X43394380Y-41552857D01*
X43442000Y-41648095D01*
X43489619Y-41695714D01*
X43584857Y-41743333D01*
X43727714Y-41743333D01*
X43822952Y-41695714D01*
X43870571Y-41648095D01*
X43918190Y-41552857D01*
X43918190Y-41171904D01*
X43394380Y-42600476D02*
X43394380Y-42410000D01*
X43442000Y-42314761D01*
X43489619Y-42267142D01*
X43632476Y-42171904D01*
X43822952Y-42124285D01*
X44203904Y-42124285D01*
X44299142Y-42171904D01*
X44346761Y-42219523D01*
X44394380Y-42314761D01*
X44394380Y-42505238D01*
X44346761Y-42600476D01*
X44299142Y-42648095D01*
X44203904Y-42695714D01*
X43965809Y-42695714D01*
X43870571Y-42648095D01*
X43822952Y-42600476D01*
X43775333Y-42505238D01*
X43775333Y-42314761D01*
X43822952Y-42219523D01*
X43870571Y-42171904D01*
X43965809Y-42124285D01*
%TO.C,R5*%
X44394380Y-26503333D02*
X43918190Y-26170000D01*
X44394380Y-25931904D02*
X43394380Y-25931904D01*
X43394380Y-26312857D01*
X43442000Y-26408095D01*
X43489619Y-26455714D01*
X43584857Y-26503333D01*
X43727714Y-26503333D01*
X43822952Y-26455714D01*
X43870571Y-26408095D01*
X43918190Y-26312857D01*
X43918190Y-25931904D01*
X43394380Y-27408095D02*
X43394380Y-26931904D01*
X43870571Y-26884285D01*
X43822952Y-26931904D01*
X43775333Y-27027142D01*
X43775333Y-27265238D01*
X43822952Y-27360476D01*
X43870571Y-27408095D01*
X43965809Y-27455714D01*
X44203904Y-27455714D01*
X44299142Y-27408095D01*
X44346761Y-27360476D01*
X44394380Y-27265238D01*
X44394380Y-27027142D01*
X44346761Y-26931904D01*
X44299142Y-26884285D01*
%TO.C,R4*%
X27884380Y-72223333D02*
X27408190Y-71890000D01*
X27884380Y-71651904D02*
X26884380Y-71651904D01*
X26884380Y-72032857D01*
X26932000Y-72128095D01*
X26979619Y-72175714D01*
X27074857Y-72223333D01*
X27217714Y-72223333D01*
X27312952Y-72175714D01*
X27360571Y-72128095D01*
X27408190Y-72032857D01*
X27408190Y-71651904D01*
X27217714Y-73080476D02*
X27884380Y-73080476D01*
X26836761Y-72842380D02*
X27551047Y-72604285D01*
X27551047Y-73223333D01*
%TO.C,R3*%
X27884380Y-56983333D02*
X27408190Y-56650000D01*
X27884380Y-56411904D02*
X26884380Y-56411904D01*
X26884380Y-56792857D01*
X26932000Y-56888095D01*
X26979619Y-56935714D01*
X27074857Y-56983333D01*
X27217714Y-56983333D01*
X27312952Y-56935714D01*
X27360571Y-56888095D01*
X27408190Y-56792857D01*
X27408190Y-56411904D01*
X26884380Y-57316666D02*
X26884380Y-57935714D01*
X27265333Y-57602380D01*
X27265333Y-57745238D01*
X27312952Y-57840476D01*
X27360571Y-57888095D01*
X27455809Y-57935714D01*
X27693904Y-57935714D01*
X27789142Y-57888095D01*
X27836761Y-57840476D01*
X27884380Y-57745238D01*
X27884380Y-57459523D01*
X27836761Y-57364285D01*
X27789142Y-57316666D01*
%TO.C,R2*%
X27630380Y-41743333D02*
X27154190Y-41410000D01*
X27630380Y-41171904D02*
X26630380Y-41171904D01*
X26630380Y-41552857D01*
X26678000Y-41648095D01*
X26725619Y-41695714D01*
X26820857Y-41743333D01*
X26963714Y-41743333D01*
X27058952Y-41695714D01*
X27106571Y-41648095D01*
X27154190Y-41552857D01*
X27154190Y-41171904D01*
X26725619Y-42124285D02*
X26678000Y-42171904D01*
X26630380Y-42267142D01*
X26630380Y-42505238D01*
X26678000Y-42600476D01*
X26725619Y-42648095D01*
X26820857Y-42695714D01*
X26916095Y-42695714D01*
X27058952Y-42648095D01*
X27630380Y-42076666D01*
X27630380Y-42695714D01*
%TO.C,R1*%
X27884380Y-26503333D02*
X27408190Y-26170000D01*
X27884380Y-25931904D02*
X26884380Y-25931904D01*
X26884380Y-26312857D01*
X26932000Y-26408095D01*
X26979619Y-26455714D01*
X27074857Y-26503333D01*
X27217714Y-26503333D01*
X27312952Y-26455714D01*
X27360571Y-26408095D01*
X27408190Y-26312857D01*
X27408190Y-25931904D01*
X27884380Y-27455714D02*
X27884380Y-26884285D01*
X27884380Y-27170000D02*
X26884380Y-27170000D01*
X27027238Y-27074761D01*
X27122476Y-26979523D01*
X27170095Y-26884285D01*
%TO.C,J5*%
X32083333Y-108882380D02*
X32083333Y-109596666D01*
X32130952Y-109739523D01*
X32226190Y-109834761D01*
X32369047Y-109882380D01*
X32464285Y-109882380D01*
X31130952Y-108882380D02*
X31607142Y-108882380D01*
X31654761Y-109358571D01*
X31607142Y-109310952D01*
X31511904Y-109263333D01*
X31273809Y-109263333D01*
X31178571Y-109310952D01*
X31130952Y-109358571D01*
X31083333Y-109453809D01*
X31083333Y-109691904D01*
X31130952Y-109787142D01*
X31178571Y-109834761D01*
X31273809Y-109882380D01*
X31511904Y-109882380D01*
X31607142Y-109834761D01*
X31654761Y-109787142D01*
%TO.C,D2*%
X37790380Y-98829904D02*
X36790380Y-98829904D01*
X36790380Y-99068000D01*
X36838000Y-99210857D01*
X36933238Y-99306095D01*
X37028476Y-99353714D01*
X37218952Y-99401333D01*
X37361809Y-99401333D01*
X37552285Y-99353714D01*
X37647523Y-99306095D01*
X37742761Y-99210857D01*
X37790380Y-99068000D01*
X37790380Y-98829904D01*
X36885619Y-99782285D02*
X36838000Y-99829904D01*
X36790380Y-99925142D01*
X36790380Y-100163238D01*
X36838000Y-100258476D01*
X36885619Y-100306095D01*
X36980857Y-100353714D01*
X37076095Y-100353714D01*
X37218952Y-100306095D01*
X37790380Y-99734666D01*
X37790380Y-100353714D01*
X35690380Y-93972095D02*
X34690380Y-93972095D01*
X35690380Y-94543523D02*
X35118952Y-94114952D01*
X34690380Y-94543523D02*
X35261809Y-93972095D01*
%TO.C,D1*%
X34234380Y-98067904D02*
X33234380Y-98067904D01*
X33234380Y-98306000D01*
X33282000Y-98448857D01*
X33377238Y-98544095D01*
X33472476Y-98591714D01*
X33662952Y-98639333D01*
X33805809Y-98639333D01*
X33996285Y-98591714D01*
X34091523Y-98544095D01*
X34186761Y-98448857D01*
X34234380Y-98306000D01*
X34234380Y-98067904D01*
X34234380Y-99591714D02*
X34234380Y-99020285D01*
X34234380Y-99306000D02*
X33234380Y-99306000D01*
X33377238Y-99210761D01*
X33472476Y-99115523D01*
X33520095Y-99020285D01*
X36334380Y-104132095D02*
X35334380Y-104132095D01*
X36334380Y-104703523D02*
X35762952Y-104274952D01*
X35334380Y-104703523D02*
X35905809Y-104132095D01*
%TO.C,C4*%
X42330666Y-90781142D02*
X42378285Y-90828761D01*
X42521142Y-90876380D01*
X42616380Y-90876380D01*
X42759238Y-90828761D01*
X42854476Y-90733523D01*
X42902095Y-90638285D01*
X42949714Y-90447809D01*
X42949714Y-90304952D01*
X42902095Y-90114476D01*
X42854476Y-90019238D01*
X42759238Y-89924000D01*
X42616380Y-89876380D01*
X42521142Y-89876380D01*
X42378285Y-89924000D01*
X42330666Y-89971619D01*
X41473523Y-90209714D02*
X41473523Y-90876380D01*
X41711619Y-89828761D02*
X41949714Y-90543047D01*
X41330666Y-90543047D01*
%TO.C,C3*%
X29122666Y-91035142D02*
X29170285Y-91082761D01*
X29313142Y-91130380D01*
X29408380Y-91130380D01*
X29551238Y-91082761D01*
X29646476Y-90987523D01*
X29694095Y-90892285D01*
X29741714Y-90701809D01*
X29741714Y-90558952D01*
X29694095Y-90368476D01*
X29646476Y-90273238D01*
X29551238Y-90178000D01*
X29408380Y-90130380D01*
X29313142Y-90130380D01*
X29170285Y-90178000D01*
X29122666Y-90225619D01*
X28789333Y-90130380D02*
X28170285Y-90130380D01*
X28503619Y-90511333D01*
X28360761Y-90511333D01*
X28265523Y-90558952D01*
X28217904Y-90606571D01*
X28170285Y-90701809D01*
X28170285Y-90939904D01*
X28217904Y-91035142D01*
X28265523Y-91082761D01*
X28360761Y-91130380D01*
X28646476Y-91130380D01*
X28741714Y-91082761D01*
X28789333Y-91035142D01*
%TO.C,C2*%
X44299142Y-102128333D02*
X44346761Y-102080714D01*
X44394380Y-101937857D01*
X44394380Y-101842619D01*
X44346761Y-101699761D01*
X44251523Y-101604523D01*
X44156285Y-101556904D01*
X43965809Y-101509285D01*
X43822952Y-101509285D01*
X43632476Y-101556904D01*
X43537238Y-101604523D01*
X43442000Y-101699761D01*
X43394380Y-101842619D01*
X43394380Y-101937857D01*
X43442000Y-102080714D01*
X43489619Y-102128333D01*
X43489619Y-102509285D02*
X43442000Y-102556904D01*
X43394380Y-102652142D01*
X43394380Y-102890238D01*
X43442000Y-102985476D01*
X43489619Y-103033095D01*
X43584857Y-103080714D01*
X43680095Y-103080714D01*
X43822952Y-103033095D01*
X44394380Y-102461666D01*
X44394380Y-103080714D01*
%TO.C,C1*%
X27535142Y-100103333D02*
X27582761Y-100055714D01*
X27630380Y-99912857D01*
X27630380Y-99817619D01*
X27582761Y-99674761D01*
X27487523Y-99579523D01*
X27392285Y-99531904D01*
X27201809Y-99484285D01*
X27058952Y-99484285D01*
X26868476Y-99531904D01*
X26773238Y-99579523D01*
X26678000Y-99674761D01*
X26630380Y-99817619D01*
X26630380Y-99912857D01*
X26678000Y-100055714D01*
X26725619Y-100103333D01*
X27630380Y-101055714D02*
X27630380Y-100484285D01*
X27630380Y-100770000D02*
X26630380Y-100770000D01*
X26773238Y-100674761D01*
X26868476Y-100579523D01*
X26916095Y-100484285D01*
%TD*%
M02*
