M48
; DRILL file {KiCad (5.1.9)-1} date 04/27/21 20:38:25
; FORMAT={-:-/ absolute / inch / decimal}
; #@! TF.CreationDate,2021-04-27T20:38:25-04:00
; #@! TF.GenerationSoftware,Kicad,Pcbnew,(5.1.9)-1
; #@! TF.FileFunction,Plated,1,2,PTH
FMAT,2
INCH
T1C0.0157
T2C0.0315
T3C0.0394
T4C0.0433
T5C0.0480
T6C0.0559
T7C0.0563
%
G90
G05
T1
X1.21Y-2.92
X1.21Y-3.57
X1.32Y-2.7
X1.32Y-2.83
X1.5211Y-2.7111
X1.72Y-2.56
X1.75Y-1.72
X1.75Y-1.94
T2
X1.075Y-0.85
X1.075Y-1.25
X1.075Y-1.45
X1.075Y-1.85
X1.075Y-2.05
X1.075Y-2.45
X1.075Y-2.65
X1.075Y-3.05
X1.075Y-3.8
X1.075Y-4.0953
X1.1Y-3.475
X1.2969Y-3.475
X1.41Y-2.65
X1.41Y-2.75
X1.41Y-2.85
X1.41Y-2.95
X1.5Y-3.475
X1.6969Y-3.475
X1.7Y-2.05
X1.7Y-2.45
X1.7Y-4.4
X1.7Y-4.8
X1.71Y-2.65
X1.71Y-2.75
X1.71Y-2.85
X1.71Y-2.95
X1.725Y-0.85
X1.725Y-1.25
X1.725Y-1.45
X1.725Y-1.85
X1.725Y-3.8797
X1.725Y-4.175
T3
X1.2Y-4.4
X1.2Y-4.5
X1.2Y-4.6
X1.2Y-4.7
X1.2Y-4.8
X1.3Y-1.3
X1.3Y-1.9
X1.3Y-2.5
X1.3Y-3.1
X1.3Y-4.4
X1.3Y-4.5
X1.3Y-4.6
X1.3Y-4.7
X1.3Y-4.8
X1.3984Y-1.3
X1.3984Y-1.9
X1.3984Y-2.5
X1.3984Y-3.1
X1.4969Y-1.3
X1.4969Y-1.9
X1.4969Y-2.5
X1.4969Y-3.1
T4
X1.33Y-3.71
X1.33Y-4.11
X1.47Y-3.71
X1.47Y-4.11
T5
X1.2Y-3.2
X1.2Y-3.8
X1.6Y-3.2
X1.6Y-3.8
X1.6Y-4.4
T6
X1.2Y-3.322
X1.2Y-3.922
X1.6Y-3.322
X1.6Y-3.922
X1.6Y-4.522
T7
X1.2Y-3.6488
X1.2Y-4.2488
X1.6Y-3.6488
X1.6Y-4.2488
X1.6Y-4.8488
T4
G00X1.2094Y-1.0185
M15
G01X1.2094Y-0.9909
M16
G05
G00X1.2094Y-1.6185
M15
G01X1.2094Y-1.5909
M16
G05
G00X1.2094Y-2.2185
M15
G01X1.2094Y-2.1909
M16
G05
G00X1.2094Y-2.8185
M15
G01X1.2094Y-2.7909
M16
G05
G00X1.5874Y-1.0185
M15
G01X1.5874Y-0.9909
M16
G05
G00X1.5874Y-1.6185
M15
G01X1.5874Y-1.5909
M16
G05
G00X1.5874Y-2.2185
M15
G01X1.5874Y-2.1909
M16
G05
G00X1.5874Y-2.8185
M15
G01X1.5874Y-2.7909
M16
G05
T0
M30
