M48
; DRILL file {KiCad 5.1.6-1.fc31} date Thu Jun 18 16:51:46 2020
; FORMAT={-:-/ absolute / inch / decimal}
; #@! TF.CreationDate,2020-06-18T16:51:46-04:00
; #@! TF.GenerationSoftware,Kicad,Pcbnew,5.1.6-1.fc31
; #@! TF.FileFunction,Plated,1,2,PTH
FMAT,2
INCH
T1C0.0295
T2C0.0315
T3C0.0394
%
G90
G05
T1
X4.0945Y-1.5945
X4.1445Y-1.5945
X4.1945Y-1.5945
T2
X4.4488Y-2.8346
X4.4488Y-2.9346
X4.4488Y-3.0346
X4.4488Y-3.1346
X4.4488Y-3.2346
X4.4488Y-3.3346
X4.4488Y-3.4346
X4.7488Y-2.8346
X4.7488Y-2.9346
X4.7488Y-3.0346
X4.7488Y-3.1346
X4.7488Y-3.2346
X4.7488Y-3.3346
X4.7488Y-3.4346
X4.4488Y-1.5748
X4.4488Y-1.6748
X4.4488Y-1.7748
X4.4488Y-1.8748
X4.7488Y-1.5748
X4.7488Y-1.6748
X4.7488Y-1.7748
X4.7488Y-1.8748
X4.8575Y-1.9685
X5.1575Y-1.9685
X4.0307Y-2.2441
X4.3307Y-2.2441
X4.4488Y-2.0472
X4.4488Y-2.1472
X4.4488Y-2.2472
X4.4488Y-2.3472
X4.4488Y-2.4472
X4.4488Y-2.5472
X4.4488Y-2.6472
X4.7488Y-2.0472
X4.7488Y-2.1472
X4.7488Y-2.2472
X4.7488Y-2.3472
X4.7488Y-2.4472
X4.7488Y-2.5472
X4.7488Y-2.6472
X4.8575Y-3.0709
X5.1575Y-3.0709
X4.8575Y-2.5984
X5.1575Y-2.5984
X4.0307Y-3.8189
X4.3307Y-3.8189
X4.8575Y-2.4409
X5.1575Y-2.4409
X4.0157Y-2.0866
X4.3157Y-2.0866
X4.0307Y-2.4016
X4.3307Y-2.4016
X4.0307Y-3.6614
X4.3307Y-3.6614
X4.9181Y-1.6142
X5.0181Y-1.6142
X5.1181Y-1.6142
X4.0307Y-3.189
X4.3307Y-3.189
X4.0307Y-2.874
X4.3307Y-2.874
X4.8575Y-1.811
X5.1575Y-1.811
X4.0913Y-1.7717
X4.2913Y-1.7717
X4.0945Y-1.8898
X4.2945Y-1.8898
X4.8575Y-2.126
X5.1575Y-2.126
X4.0307Y-2.7165
X4.3307Y-2.7165
X4.0307Y-3.5039
X4.3307Y-3.5039
X4.8575Y-2.9134
X5.1575Y-2.9134
X4.8575Y-2.7559
X5.1575Y-2.7559
X4.8575Y-2.2835
X5.1575Y-2.2835
X4.0307Y-3.3465
X4.3307Y-3.3465
X4.0307Y-3.0315
X4.3307Y-3.0315
X4.0307Y-2.5591
X4.3307Y-2.5591
X4.8575Y-3.2283
X5.1575Y-3.2283
T3
X4.3307Y-4.0339
X4.3307Y-4.1339
X4.4307Y-4.0339
X4.4307Y-4.1339
X4.5307Y-4.0339
X4.5307Y-4.1339
X4.6307Y-4.0339
X4.6307Y-4.1339
X4.7307Y-4.0339
X4.7307Y-4.1339
X4.4882Y-3.7795
X4.685Y-3.7795
X4.4882Y-3.622
X4.685Y-3.622
X4.252Y-1.3976
X4.352Y-1.3976
X4.452Y-1.3976
X4.552Y-1.3976
X4.652Y-1.3976
X4.752Y-1.3976
X4.852Y-1.3976
X4.952Y-1.3976
X4.252Y-4.311
X4.352Y-4.311
X4.452Y-4.311
X4.552Y-4.311
X4.652Y-4.311
X4.752Y-4.311
X4.852Y-4.311
X4.952Y-4.311
T0
M30
