G04 #@! TF.GenerationSoftware,KiCad,Pcbnew,5.1.6-1.fc31*
G04 #@! TF.CreationDate,2020-06-18T16:58:37-04:00*
G04 #@! TF.ProjectId,ChordArrayMain,43686f72-6441-4727-9261-794d61696e2e,rev?*
G04 #@! TF.SameCoordinates,Original*
G04 #@! TF.FileFunction,Soldermask,Top*
G04 #@! TF.FilePolarity,Negative*
%FSLAX46Y46*%
G04 Gerber Fmt 4.6, Leading zero omitted, Abs format (unit mm)*
G04 Created by KiCad (PCBNEW 5.1.6-1.fc31) date 2020-06-18 16:58:37*
%MOMM*%
%LPD*%
G01*
G04 APERTURE LIST*
%ADD10O,1.800000X1.800000*%
%ADD11R,1.800000X1.800000*%
%ADD12C,2.100000*%
%ADD13C,1.540000*%
%ADD14O,1.700000X1.700000*%
%ADD15R,1.700000X1.700000*%
%ADD16C,1.700000*%
%ADD17R,1.150000X1.600000*%
%ADD18O,1.150000X1.600000*%
G04 APERTURE END LIST*
D10*
G04 #@! TO.C,J9*
X125780000Y-109500000D03*
X123240000Y-109500000D03*
X120700000Y-109500000D03*
X118160000Y-109500000D03*
X115620000Y-109500000D03*
X113080000Y-109500000D03*
X110540000Y-109500000D03*
D11*
X108000000Y-109500000D03*
G04 #@! TD*
D10*
G04 #@! TO.C,J8*
X125780000Y-35500000D03*
X123240000Y-35500000D03*
X120700000Y-35500000D03*
X118160000Y-35500000D03*
X115620000Y-35500000D03*
X113080000Y-35500000D03*
X110540000Y-35500000D03*
D11*
X108000000Y-35500000D03*
G04 #@! TD*
D10*
G04 #@! TO.C,J2*
X120160000Y-102460000D03*
X120160000Y-105000000D03*
X117620000Y-102460000D03*
X117620000Y-105000000D03*
X115080000Y-102460000D03*
X115080000Y-105000000D03*
X112540000Y-102460000D03*
X112540000Y-105000000D03*
X110000000Y-102460000D03*
D11*
X110000000Y-105000000D03*
G04 #@! TD*
D12*
G04 #@! TO.C,C2*
X119000000Y-96000000D03*
X114000000Y-96000000D03*
G04 #@! TD*
G04 #@! TO.C,C1*
X119000000Y-92000000D03*
X114000000Y-92000000D03*
G04 #@! TD*
D13*
G04 #@! TO.C,RV1*
X124920000Y-41000000D03*
X127460000Y-41000000D03*
X130000000Y-41000000D03*
G04 #@! TD*
D14*
G04 #@! TO.C,U3*
X120620000Y-72000000D03*
X113000000Y-87240000D03*
X120620000Y-74540000D03*
X113000000Y-84700000D03*
X120620000Y-77080000D03*
X113000000Y-82160000D03*
X120620000Y-79620000D03*
X113000000Y-79620000D03*
X120620000Y-82160000D03*
X113000000Y-77080000D03*
X120620000Y-84700000D03*
X113000000Y-74540000D03*
X120620000Y-87240000D03*
D15*
X113000000Y-72000000D03*
G04 #@! TD*
D14*
G04 #@! TO.C,U2*
X120620000Y-52000000D03*
X113000000Y-67240000D03*
X120620000Y-54540000D03*
X113000000Y-64700000D03*
X120620000Y-57080000D03*
X113000000Y-62160000D03*
X120620000Y-59620000D03*
X113000000Y-59620000D03*
X120620000Y-62160000D03*
X113000000Y-57080000D03*
X120620000Y-64700000D03*
X113000000Y-54540000D03*
X120620000Y-67240000D03*
D15*
X113000000Y-52000000D03*
G04 #@! TD*
D14*
G04 #@! TO.C,U1*
X120620000Y-40000000D03*
X113000000Y-47620000D03*
X120620000Y-42540000D03*
X113000000Y-45080000D03*
X120620000Y-45080000D03*
X113000000Y-42540000D03*
X120620000Y-47620000D03*
D15*
X113000000Y-40000000D03*
G04 #@! TD*
D14*
G04 #@! TO.C,R22*
X131000000Y-66000000D03*
D16*
X123380000Y-66000000D03*
G04 #@! TD*
D14*
G04 #@! TO.C,R21*
X110000000Y-97000000D03*
D16*
X102380000Y-97000000D03*
G04 #@! TD*
D14*
G04 #@! TO.C,R20*
X131000000Y-70000000D03*
D16*
X123380000Y-70000000D03*
G04 #@! TD*
D14*
G04 #@! TO.C,R19*
X110000000Y-89000000D03*
D16*
X102380000Y-89000000D03*
G04 #@! TD*
D14*
G04 #@! TO.C,R18*
X131000000Y-74000000D03*
D16*
X123380000Y-74000000D03*
G04 #@! TD*
D14*
G04 #@! TO.C,R17*
X102380000Y-85000000D03*
D16*
X110000000Y-85000000D03*
G04 #@! TD*
D14*
G04 #@! TO.C,R16*
X110000000Y-77000000D03*
D16*
X102380000Y-77000000D03*
G04 #@! TD*
D14*
G04 #@! TO.C,R15*
X123380000Y-78000000D03*
D16*
X131000000Y-78000000D03*
G04 #@! TD*
D14*
G04 #@! TO.C,R14*
X131000000Y-82000000D03*
D16*
X123380000Y-82000000D03*
G04 #@! TD*
D14*
G04 #@! TO.C,R13*
X110000000Y-81000000D03*
D16*
X102380000Y-81000000D03*
G04 #@! TD*
D14*
G04 #@! TO.C,R12*
X102380000Y-65000000D03*
D16*
X110000000Y-65000000D03*
G04 #@! TD*
D14*
G04 #@! TO.C,R11*
X110000000Y-93000000D03*
D16*
X102380000Y-93000000D03*
G04 #@! TD*
D14*
G04 #@! TO.C,R10*
X110000000Y-73000000D03*
D16*
X102380000Y-73000000D03*
G04 #@! TD*
D14*
G04 #@! TO.C,R9*
X123380000Y-50000000D03*
D16*
X131000000Y-50000000D03*
G04 #@! TD*
D14*
G04 #@! TO.C,R8*
X131000000Y-54000000D03*
D16*
X123380000Y-54000000D03*
G04 #@! TD*
D14*
G04 #@! TO.C,R7*
X131000000Y-62000000D03*
D16*
X123380000Y-62000000D03*
G04 #@! TD*
D14*
G04 #@! TO.C,R6*
X102380000Y-69000000D03*
D16*
X110000000Y-69000000D03*
G04 #@! TD*
D14*
G04 #@! TO.C,R5*
X110000000Y-61000000D03*
D16*
X102380000Y-61000000D03*
G04 #@! TD*
D14*
G04 #@! TO.C,R4*
X131000000Y-58000000D03*
D16*
X123380000Y-58000000D03*
G04 #@! TD*
D14*
G04 #@! TO.C,R3*
X102380000Y-57000000D03*
D16*
X110000000Y-57000000D03*
G04 #@! TD*
D14*
G04 #@! TO.C,R2*
X102000000Y-53000000D03*
D16*
X109620000Y-53000000D03*
G04 #@! TD*
D14*
G04 #@! TO.C,R1*
X131000000Y-46000000D03*
D16*
X123380000Y-46000000D03*
G04 #@! TD*
D17*
G04 #@! TO.C,Q1*
X104000000Y-40500000D03*
D18*
X106540000Y-40500000D03*
X105270000Y-40500000D03*
G04 #@! TD*
D14*
G04 #@! TO.C,D2*
X109080000Y-48000000D03*
D15*
X104000000Y-48000000D03*
G04 #@! TD*
D14*
G04 #@! TO.C,D1*
X109000000Y-45000000D03*
D15*
X103920000Y-45000000D03*
G04 #@! TD*
M02*
