G04 #@! TF.GenerationSoftware,KiCad,Pcbnew,5.1.6-1.fc31*
G04 #@! TF.CreationDate,2020-06-18T16:58:37-04:00*
G04 #@! TF.ProjectId,ChordArrayMain,43686f72-6441-4727-9261-794d61696e2e,rev?*
G04 #@! TF.SameCoordinates,Original*
G04 #@! TF.FileFunction,Legend,Top*
G04 #@! TF.FilePolarity,Positive*
%FSLAX46Y46*%
G04 Gerber Fmt 4.6, Leading zero omitted, Abs format (unit mm)*
G04 Created by KiCad (PCBNEW 5.1.6-1.fc31) date 2020-06-18 16:58:37*
%MOMM*%
%LPD*%
G01*
G04 APERTURE LIST*
%ADD10C,0.150000*%
%ADD11C,0.120000*%
G04 APERTURE END LIST*
D10*
X130500000Y-96857142D02*
X130452380Y-96952380D01*
X130452380Y-97095238D01*
X130500000Y-97238095D01*
X130595238Y-97333333D01*
X130690476Y-97380952D01*
X130880952Y-97428571D01*
X131023809Y-97428571D01*
X131214285Y-97380952D01*
X131309523Y-97333333D01*
X131404761Y-97238095D01*
X131452380Y-97095238D01*
X131452380Y-97000000D01*
X131404761Y-96857142D01*
X131357142Y-96809523D01*
X131023809Y-96809523D01*
X131023809Y-97000000D01*
X131452380Y-96380952D02*
X130785714Y-96380952D01*
X130976190Y-96380952D02*
X130880952Y-96333333D01*
X130833333Y-96285714D01*
X130785714Y-96190476D01*
X130785714Y-96095238D01*
X131452380Y-95333333D02*
X130928571Y-95333333D01*
X130833333Y-95380952D01*
X130785714Y-95476190D01*
X130785714Y-95666666D01*
X130833333Y-95761904D01*
X131404761Y-95333333D02*
X131452380Y-95428571D01*
X131452380Y-95666666D01*
X131404761Y-95761904D01*
X131309523Y-95809523D01*
X131214285Y-95809523D01*
X131119047Y-95761904D01*
X131071428Y-95666666D01*
X131071428Y-95428571D01*
X131023809Y-95333333D01*
X131452380Y-94857142D02*
X130452380Y-94857142D01*
X131452380Y-94428571D02*
X130928571Y-94428571D01*
X130833333Y-94476190D01*
X130785714Y-94571428D01*
X130785714Y-94714285D01*
X130833333Y-94809523D01*
X130880952Y-94857142D01*
X131452380Y-93523809D02*
X130928571Y-93523809D01*
X130833333Y-93571428D01*
X130785714Y-93666666D01*
X130785714Y-93857142D01*
X130833333Y-93952380D01*
X131404761Y-93523809D02*
X131452380Y-93619047D01*
X131452380Y-93857142D01*
X131404761Y-93952380D01*
X131309523Y-94000000D01*
X131214285Y-94000000D01*
X131119047Y-93952380D01*
X131071428Y-93857142D01*
X131071428Y-93619047D01*
X131023809Y-93523809D01*
X131452380Y-93047619D02*
X130785714Y-93047619D01*
X130880952Y-93047619D02*
X130833333Y-93000000D01*
X130785714Y-92904761D01*
X130785714Y-92761904D01*
X130833333Y-92666666D01*
X130928571Y-92619047D01*
X131452380Y-92619047D01*
X130928571Y-92619047D02*
X130833333Y-92571428D01*
X130785714Y-92476190D01*
X130785714Y-92333333D01*
X130833333Y-92238095D01*
X130928571Y-92190476D01*
X131452380Y-92190476D01*
X130452380Y-91095238D02*
X131452380Y-90761904D01*
X130452380Y-90428571D01*
X131452380Y-89571428D02*
X131452380Y-90142857D01*
X131452380Y-89857142D02*
X130452380Y-89857142D01*
X130595238Y-89952380D01*
X130690476Y-90047619D01*
X130738095Y-90142857D01*
X129464285Y-101226190D02*
X129559523Y-101321428D01*
X129654761Y-101607142D01*
X129654761Y-101797619D01*
X129559523Y-102083333D01*
X129369047Y-102273809D01*
X129178571Y-102369047D01*
X128797619Y-102464285D01*
X128511904Y-102464285D01*
X128130952Y-102369047D01*
X127940476Y-102273809D01*
X127750000Y-102083333D01*
X127654761Y-101797619D01*
X127654761Y-101607142D01*
X127750000Y-101321428D01*
X127845238Y-101226190D01*
X129654761Y-100369047D02*
X127654761Y-100369047D01*
X129654761Y-99511904D02*
X128607142Y-99511904D01*
X128416666Y-99607142D01*
X128321428Y-99797619D01*
X128321428Y-100083333D01*
X128416666Y-100273809D01*
X128511904Y-100369047D01*
X129654761Y-98273809D02*
X129559523Y-98464285D01*
X129464285Y-98559523D01*
X129273809Y-98654761D01*
X128702380Y-98654761D01*
X128511904Y-98559523D01*
X128416666Y-98464285D01*
X128321428Y-98273809D01*
X128321428Y-97988095D01*
X128416666Y-97797619D01*
X128511904Y-97702380D01*
X128702380Y-97607142D01*
X129273809Y-97607142D01*
X129464285Y-97702380D01*
X129559523Y-97797619D01*
X129654761Y-97988095D01*
X129654761Y-98273809D01*
X129654761Y-96750000D02*
X128321428Y-96750000D01*
X128702380Y-96750000D02*
X128511904Y-96654761D01*
X128416666Y-96559523D01*
X128321428Y-96369047D01*
X128321428Y-96178571D01*
X129654761Y-94654761D02*
X127654761Y-94654761D01*
X129559523Y-94654761D02*
X129654761Y-94845238D01*
X129654761Y-95226190D01*
X129559523Y-95416666D01*
X129464285Y-95511904D01*
X129273809Y-95607142D01*
X128702380Y-95607142D01*
X128511904Y-95511904D01*
X128416666Y-95416666D01*
X128321428Y-95226190D01*
X128321428Y-94845238D01*
X128416666Y-94654761D01*
X129083333Y-93797619D02*
X129083333Y-92845238D01*
X129654761Y-93988095D02*
X127654761Y-93321428D01*
X129654761Y-92654761D01*
X129654761Y-91988095D02*
X128321428Y-91988095D01*
X128702380Y-91988095D02*
X128511904Y-91892857D01*
X128416666Y-91797619D01*
X128321428Y-91607142D01*
X128321428Y-91416666D01*
X129654761Y-90750000D02*
X128321428Y-90750000D01*
X128702380Y-90750000D02*
X128511904Y-90654761D01*
X128416666Y-90559523D01*
X128321428Y-90369047D01*
X128321428Y-90178571D01*
X129654761Y-88654761D02*
X128607142Y-88654761D01*
X128416666Y-88750000D01*
X128321428Y-88940476D01*
X128321428Y-89321428D01*
X128416666Y-89511904D01*
X129559523Y-88654761D02*
X129654761Y-88845238D01*
X129654761Y-89321428D01*
X129559523Y-89511904D01*
X129369047Y-89607142D01*
X129178571Y-89607142D01*
X128988095Y-89511904D01*
X128892857Y-89321428D01*
X128892857Y-88845238D01*
X128797619Y-88654761D01*
X128321428Y-87892857D02*
X129654761Y-87416666D01*
X128321428Y-86940476D02*
X129654761Y-87416666D01*
X130130952Y-87607142D01*
X130226190Y-87702380D01*
X130321428Y-87892857D01*
D11*
G04 #@! TO.C,J9*
X106670000Y-109500000D02*
X106670000Y-108170000D01*
X106670000Y-108170000D02*
X108000000Y-108170000D01*
X109270000Y-108170000D02*
X127110000Y-108170000D01*
X127110000Y-110830000D02*
X127110000Y-108170000D01*
X109270000Y-110830000D02*
X127110000Y-110830000D01*
X109270000Y-110830000D02*
X109270000Y-108170000D01*
G04 #@! TO.C,J8*
X106670000Y-35500000D02*
X106670000Y-34170000D01*
X106670000Y-34170000D02*
X108000000Y-34170000D01*
X109270000Y-34170000D02*
X127110000Y-34170000D01*
X127110000Y-36830000D02*
X127110000Y-34170000D01*
X109270000Y-36830000D02*
X127110000Y-36830000D01*
X109270000Y-36830000D02*
X109270000Y-34170000D01*
G04 #@! TO.C,J2*
X121490000Y-106330000D02*
X121490000Y-101130000D01*
X111270000Y-106330000D02*
X121490000Y-106330000D01*
X108670000Y-101130000D02*
X121490000Y-101130000D01*
X111270000Y-106330000D02*
X111270000Y-103730000D01*
X111270000Y-103730000D02*
X108670000Y-103730000D01*
X108670000Y-103730000D02*
X108670000Y-101130000D01*
X110000000Y-106330000D02*
X108670000Y-106330000D01*
X108670000Y-106330000D02*
X108670000Y-105000000D01*
G04 #@! TO.C,C2*
X112630000Y-94630000D02*
X120370000Y-94630000D01*
X112630000Y-97370000D02*
X120370000Y-97370000D01*
X112630000Y-94630000D02*
X112630000Y-97370000D01*
X120370000Y-94630000D02*
X120370000Y-97370000D01*
G04 #@! TO.C,C1*
X112630000Y-90630000D02*
X120370000Y-90630000D01*
X112630000Y-93370000D02*
X120370000Y-93370000D01*
X112630000Y-90630000D02*
X112630000Y-93370000D01*
X120370000Y-90630000D02*
X120370000Y-93370000D01*
G04 #@! TO.C,RV1*
X122575000Y-38470000D02*
X132345000Y-38470000D01*
X122575000Y-43540000D02*
X132345000Y-43540000D01*
X122575000Y-38470000D02*
X122575000Y-43540000D01*
X132345000Y-38470000D02*
X132345000Y-43540000D01*
G04 #@! TO.C,U3*
X115810000Y-70670000D02*
X114160000Y-70670000D01*
X114160000Y-70670000D02*
X114160000Y-88570000D01*
X114160000Y-88570000D02*
X119460000Y-88570000D01*
X119460000Y-88570000D02*
X119460000Y-70670000D01*
X119460000Y-70670000D02*
X117810000Y-70670000D01*
X117810000Y-70670000D02*
G75*
G02*
X115810000Y-70670000I-1000000J0D01*
G01*
G04 #@! TO.C,U2*
X115810000Y-50670000D02*
X114160000Y-50670000D01*
X114160000Y-50670000D02*
X114160000Y-68570000D01*
X114160000Y-68570000D02*
X119460000Y-68570000D01*
X119460000Y-68570000D02*
X119460000Y-50670000D01*
X119460000Y-50670000D02*
X117810000Y-50670000D01*
X117810000Y-50670000D02*
G75*
G02*
X115810000Y-50670000I-1000000J0D01*
G01*
G04 #@! TO.C,U1*
X115810000Y-38670000D02*
X114160000Y-38670000D01*
X114160000Y-38670000D02*
X114160000Y-48950000D01*
X114160000Y-48950000D02*
X119460000Y-48950000D01*
X119460000Y-48950000D02*
X119460000Y-38670000D01*
X119460000Y-38670000D02*
X117810000Y-38670000D01*
X117810000Y-38670000D02*
G75*
G02*
X115810000Y-38670000I-1000000J0D01*
G01*
G04 #@! TO.C,R22*
X123920000Y-64960000D02*
X123920000Y-64630000D01*
X123920000Y-64630000D02*
X130460000Y-64630000D01*
X130460000Y-64630000D02*
X130460000Y-64960000D01*
X123920000Y-67040000D02*
X123920000Y-67370000D01*
X123920000Y-67370000D02*
X130460000Y-67370000D01*
X130460000Y-67370000D02*
X130460000Y-67040000D01*
G04 #@! TO.C,R21*
X102920000Y-95960000D02*
X102920000Y-95630000D01*
X102920000Y-95630000D02*
X109460000Y-95630000D01*
X109460000Y-95630000D02*
X109460000Y-95960000D01*
X102920000Y-98040000D02*
X102920000Y-98370000D01*
X102920000Y-98370000D02*
X109460000Y-98370000D01*
X109460000Y-98370000D02*
X109460000Y-98040000D01*
G04 #@! TO.C,R20*
X123920000Y-68960000D02*
X123920000Y-68630000D01*
X123920000Y-68630000D02*
X130460000Y-68630000D01*
X130460000Y-68630000D02*
X130460000Y-68960000D01*
X123920000Y-71040000D02*
X123920000Y-71370000D01*
X123920000Y-71370000D02*
X130460000Y-71370000D01*
X130460000Y-71370000D02*
X130460000Y-71040000D01*
G04 #@! TO.C,R19*
X102920000Y-87960000D02*
X102920000Y-87630000D01*
X102920000Y-87630000D02*
X109460000Y-87630000D01*
X109460000Y-87630000D02*
X109460000Y-87960000D01*
X102920000Y-90040000D02*
X102920000Y-90370000D01*
X102920000Y-90370000D02*
X109460000Y-90370000D01*
X109460000Y-90370000D02*
X109460000Y-90040000D01*
G04 #@! TO.C,R18*
X123920000Y-72960000D02*
X123920000Y-72630000D01*
X123920000Y-72630000D02*
X130460000Y-72630000D01*
X130460000Y-72630000D02*
X130460000Y-72960000D01*
X123920000Y-75040000D02*
X123920000Y-75370000D01*
X123920000Y-75370000D02*
X130460000Y-75370000D01*
X130460000Y-75370000D02*
X130460000Y-75040000D01*
G04 #@! TO.C,R17*
X109460000Y-86040000D02*
X109460000Y-86370000D01*
X109460000Y-86370000D02*
X102920000Y-86370000D01*
X102920000Y-86370000D02*
X102920000Y-86040000D01*
X109460000Y-83960000D02*
X109460000Y-83630000D01*
X109460000Y-83630000D02*
X102920000Y-83630000D01*
X102920000Y-83630000D02*
X102920000Y-83960000D01*
G04 #@! TO.C,R16*
X102920000Y-75960000D02*
X102920000Y-75630000D01*
X102920000Y-75630000D02*
X109460000Y-75630000D01*
X109460000Y-75630000D02*
X109460000Y-75960000D01*
X102920000Y-78040000D02*
X102920000Y-78370000D01*
X102920000Y-78370000D02*
X109460000Y-78370000D01*
X109460000Y-78370000D02*
X109460000Y-78040000D01*
G04 #@! TO.C,R15*
X130460000Y-79040000D02*
X130460000Y-79370000D01*
X130460000Y-79370000D02*
X123920000Y-79370000D01*
X123920000Y-79370000D02*
X123920000Y-79040000D01*
X130460000Y-76960000D02*
X130460000Y-76630000D01*
X130460000Y-76630000D02*
X123920000Y-76630000D01*
X123920000Y-76630000D02*
X123920000Y-76960000D01*
G04 #@! TO.C,R14*
X123920000Y-80960000D02*
X123920000Y-80630000D01*
X123920000Y-80630000D02*
X130460000Y-80630000D01*
X130460000Y-80630000D02*
X130460000Y-80960000D01*
X123920000Y-83040000D02*
X123920000Y-83370000D01*
X123920000Y-83370000D02*
X130460000Y-83370000D01*
X130460000Y-83370000D02*
X130460000Y-83040000D01*
G04 #@! TO.C,R13*
X102920000Y-79960000D02*
X102920000Y-79630000D01*
X102920000Y-79630000D02*
X109460000Y-79630000D01*
X109460000Y-79630000D02*
X109460000Y-79960000D01*
X102920000Y-82040000D02*
X102920000Y-82370000D01*
X102920000Y-82370000D02*
X109460000Y-82370000D01*
X109460000Y-82370000D02*
X109460000Y-82040000D01*
G04 #@! TO.C,R12*
X109460000Y-66040000D02*
X109460000Y-66370000D01*
X109460000Y-66370000D02*
X102920000Y-66370000D01*
X102920000Y-66370000D02*
X102920000Y-66040000D01*
X109460000Y-63960000D02*
X109460000Y-63630000D01*
X109460000Y-63630000D02*
X102920000Y-63630000D01*
X102920000Y-63630000D02*
X102920000Y-63960000D01*
G04 #@! TO.C,R11*
X102920000Y-91960000D02*
X102920000Y-91630000D01*
X102920000Y-91630000D02*
X109460000Y-91630000D01*
X109460000Y-91630000D02*
X109460000Y-91960000D01*
X102920000Y-94040000D02*
X102920000Y-94370000D01*
X102920000Y-94370000D02*
X109460000Y-94370000D01*
X109460000Y-94370000D02*
X109460000Y-94040000D01*
G04 #@! TO.C,R10*
X102920000Y-71960000D02*
X102920000Y-71630000D01*
X102920000Y-71630000D02*
X109460000Y-71630000D01*
X109460000Y-71630000D02*
X109460000Y-71960000D01*
X102920000Y-74040000D02*
X102920000Y-74370000D01*
X102920000Y-74370000D02*
X109460000Y-74370000D01*
X109460000Y-74370000D02*
X109460000Y-74040000D01*
G04 #@! TO.C,R9*
X130460000Y-51040000D02*
X130460000Y-51370000D01*
X130460000Y-51370000D02*
X123920000Y-51370000D01*
X123920000Y-51370000D02*
X123920000Y-51040000D01*
X130460000Y-48960000D02*
X130460000Y-48630000D01*
X130460000Y-48630000D02*
X123920000Y-48630000D01*
X123920000Y-48630000D02*
X123920000Y-48960000D01*
G04 #@! TO.C,R8*
X123920000Y-52960000D02*
X123920000Y-52630000D01*
X123920000Y-52630000D02*
X130460000Y-52630000D01*
X130460000Y-52630000D02*
X130460000Y-52960000D01*
X123920000Y-55040000D02*
X123920000Y-55370000D01*
X123920000Y-55370000D02*
X130460000Y-55370000D01*
X130460000Y-55370000D02*
X130460000Y-55040000D01*
G04 #@! TO.C,R7*
X123920000Y-60960000D02*
X123920000Y-60630000D01*
X123920000Y-60630000D02*
X130460000Y-60630000D01*
X130460000Y-60630000D02*
X130460000Y-60960000D01*
X123920000Y-63040000D02*
X123920000Y-63370000D01*
X123920000Y-63370000D02*
X130460000Y-63370000D01*
X130460000Y-63370000D02*
X130460000Y-63040000D01*
G04 #@! TO.C,R6*
X109460000Y-70040000D02*
X109460000Y-70370000D01*
X109460000Y-70370000D02*
X102920000Y-70370000D01*
X102920000Y-70370000D02*
X102920000Y-70040000D01*
X109460000Y-67960000D02*
X109460000Y-67630000D01*
X109460000Y-67630000D02*
X102920000Y-67630000D01*
X102920000Y-67630000D02*
X102920000Y-67960000D01*
G04 #@! TO.C,R5*
X102920000Y-59960000D02*
X102920000Y-59630000D01*
X102920000Y-59630000D02*
X109460000Y-59630000D01*
X109460000Y-59630000D02*
X109460000Y-59960000D01*
X102920000Y-62040000D02*
X102920000Y-62370000D01*
X102920000Y-62370000D02*
X109460000Y-62370000D01*
X109460000Y-62370000D02*
X109460000Y-62040000D01*
G04 #@! TO.C,R4*
X123920000Y-56960000D02*
X123920000Y-56630000D01*
X123920000Y-56630000D02*
X130460000Y-56630000D01*
X130460000Y-56630000D02*
X130460000Y-56960000D01*
X123920000Y-59040000D02*
X123920000Y-59370000D01*
X123920000Y-59370000D02*
X130460000Y-59370000D01*
X130460000Y-59370000D02*
X130460000Y-59040000D01*
G04 #@! TO.C,R3*
X109460000Y-58040000D02*
X109460000Y-58370000D01*
X109460000Y-58370000D02*
X102920000Y-58370000D01*
X102920000Y-58370000D02*
X102920000Y-58040000D01*
X109460000Y-55960000D02*
X109460000Y-55630000D01*
X109460000Y-55630000D02*
X102920000Y-55630000D01*
X102920000Y-55630000D02*
X102920000Y-55960000D01*
G04 #@! TO.C,R2*
X109080000Y-54040000D02*
X109080000Y-54370000D01*
X109080000Y-54370000D02*
X102540000Y-54370000D01*
X102540000Y-54370000D02*
X102540000Y-54040000D01*
X109080000Y-51960000D02*
X109080000Y-51630000D01*
X109080000Y-51630000D02*
X102540000Y-51630000D01*
X102540000Y-51630000D02*
X102540000Y-51960000D01*
G04 #@! TO.C,R1*
X123920000Y-44960000D02*
X123920000Y-44630000D01*
X123920000Y-44630000D02*
X130460000Y-44630000D01*
X130460000Y-44630000D02*
X130460000Y-44960000D01*
X123920000Y-47040000D02*
X123920000Y-47370000D01*
X123920000Y-47370000D02*
X130460000Y-47370000D01*
X130460000Y-47370000D02*
X130460000Y-47040000D01*
G04 #@! TO.C,Q1*
X103470000Y-42350000D02*
X107070000Y-42350000D01*
X107108478Y-42338478D02*
G75*
G03*
X105270000Y-37900000I-1838478J1838478D01*
G01*
X103431522Y-42338478D02*
G75*
G02*
X105270000Y-37900000I1838478J1838478D01*
G01*
G04 #@! TO.C,D2*
X105326371Y-48000000D02*
G75*
G03*
X105326371Y-48000000I-1326371J0D01*
G01*
X105326371Y-48000000D02*
X107980000Y-48000000D01*
G04 #@! TO.C,D1*
X105246371Y-45000000D02*
G75*
G03*
X105246371Y-45000000I-1326371J0D01*
G01*
X105246371Y-45000000D02*
X107900000Y-45000000D01*
G04 #@! TO.C,J9*
D10*
X104682380Y-109833333D02*
X105396666Y-109833333D01*
X105539523Y-109880952D01*
X105634761Y-109976190D01*
X105682380Y-110119047D01*
X105682380Y-110214285D01*
X105682380Y-109309523D02*
X105682380Y-109119047D01*
X105634761Y-109023809D01*
X105587142Y-108976190D01*
X105444285Y-108880952D01*
X105253809Y-108833333D01*
X104872857Y-108833333D01*
X104777619Y-108880952D01*
X104730000Y-108928571D01*
X104682380Y-109023809D01*
X104682380Y-109214285D01*
X104730000Y-109309523D01*
X104777619Y-109357142D01*
X104872857Y-109404761D01*
X105110952Y-109404761D01*
X105206190Y-109357142D01*
X105253809Y-109309523D01*
X105301428Y-109214285D01*
X105301428Y-109023809D01*
X105253809Y-108928571D01*
X105206190Y-108880952D01*
X105110952Y-108833333D01*
G04 #@! TO.C,J8*
X104682380Y-35833333D02*
X105396666Y-35833333D01*
X105539523Y-35880952D01*
X105634761Y-35976190D01*
X105682380Y-36119047D01*
X105682380Y-36214285D01*
X105110952Y-35214285D02*
X105063333Y-35309523D01*
X105015714Y-35357142D01*
X104920476Y-35404761D01*
X104872857Y-35404761D01*
X104777619Y-35357142D01*
X104730000Y-35309523D01*
X104682380Y-35214285D01*
X104682380Y-35023809D01*
X104730000Y-34928571D01*
X104777619Y-34880952D01*
X104872857Y-34833333D01*
X104920476Y-34833333D01*
X105015714Y-34880952D01*
X105063333Y-34928571D01*
X105110952Y-35023809D01*
X105110952Y-35214285D01*
X105158571Y-35309523D01*
X105206190Y-35357142D01*
X105301428Y-35404761D01*
X105491904Y-35404761D01*
X105587142Y-35357142D01*
X105634761Y-35309523D01*
X105682380Y-35214285D01*
X105682380Y-35023809D01*
X105634761Y-34928571D01*
X105587142Y-34880952D01*
X105491904Y-34833333D01*
X105301428Y-34833333D01*
X105206190Y-34880952D01*
X105158571Y-34928571D01*
X105110952Y-35023809D01*
G04 #@! TO.C,J2*
X107122380Y-104063333D02*
X107836666Y-104063333D01*
X107979523Y-104110952D01*
X108074761Y-104206190D01*
X108122380Y-104349047D01*
X108122380Y-104444285D01*
X107217619Y-103634761D02*
X107170000Y-103587142D01*
X107122380Y-103491904D01*
X107122380Y-103253809D01*
X107170000Y-103158571D01*
X107217619Y-103110952D01*
X107312857Y-103063333D01*
X107408095Y-103063333D01*
X107550952Y-103110952D01*
X108122380Y-103682380D01*
X108122380Y-103063333D01*
G04 #@! TO.C,C2*
X116333333Y-96357142D02*
X116285714Y-96404761D01*
X116142857Y-96452380D01*
X116047619Y-96452380D01*
X115904761Y-96404761D01*
X115809523Y-96309523D01*
X115761904Y-96214285D01*
X115714285Y-96023809D01*
X115714285Y-95880952D01*
X115761904Y-95690476D01*
X115809523Y-95595238D01*
X115904761Y-95500000D01*
X116047619Y-95452380D01*
X116142857Y-95452380D01*
X116285714Y-95500000D01*
X116333333Y-95547619D01*
X116714285Y-95547619D02*
X116761904Y-95500000D01*
X116857142Y-95452380D01*
X117095238Y-95452380D01*
X117190476Y-95500000D01*
X117238095Y-95547619D01*
X117285714Y-95642857D01*
X117285714Y-95738095D01*
X117238095Y-95880952D01*
X116666666Y-96452380D01*
X117285714Y-96452380D01*
G04 #@! TO.C,C1*
X116333333Y-92357142D02*
X116285714Y-92404761D01*
X116142857Y-92452380D01*
X116047619Y-92452380D01*
X115904761Y-92404761D01*
X115809523Y-92309523D01*
X115761904Y-92214285D01*
X115714285Y-92023809D01*
X115714285Y-91880952D01*
X115761904Y-91690476D01*
X115809523Y-91595238D01*
X115904761Y-91500000D01*
X116047619Y-91452380D01*
X116142857Y-91452380D01*
X116285714Y-91500000D01*
X116333333Y-91547619D01*
X117285714Y-92452380D02*
X116714285Y-92452380D01*
X117000000Y-92452380D02*
X117000000Y-91452380D01*
X116904761Y-91595238D01*
X116809523Y-91690476D01*
X116714285Y-91738095D01*
G04 #@! TO.C,RV1*
X123404761Y-39702380D02*
X123071428Y-39226190D01*
X122833333Y-39702380D02*
X122833333Y-38702380D01*
X123214285Y-38702380D01*
X123309523Y-38750000D01*
X123357142Y-38797619D01*
X123404761Y-38892857D01*
X123404761Y-39035714D01*
X123357142Y-39130952D01*
X123309523Y-39178571D01*
X123214285Y-39226190D01*
X122833333Y-39226190D01*
X123690476Y-38702380D02*
X124023809Y-39702380D01*
X124357142Y-38702380D01*
X125214285Y-39702380D02*
X124642857Y-39702380D01*
X124928571Y-39702380D02*
X124928571Y-38702380D01*
X124833333Y-38845238D01*
X124738095Y-38940476D01*
X124642857Y-38988095D01*
G04 #@! TO.C,U3*
X116048095Y-79202380D02*
X116048095Y-80011904D01*
X116095714Y-80107142D01*
X116143333Y-80154761D01*
X116238571Y-80202380D01*
X116429047Y-80202380D01*
X116524285Y-80154761D01*
X116571904Y-80107142D01*
X116619523Y-80011904D01*
X116619523Y-79202380D01*
X117000476Y-79202380D02*
X117619523Y-79202380D01*
X117286190Y-79583333D01*
X117429047Y-79583333D01*
X117524285Y-79630952D01*
X117571904Y-79678571D01*
X117619523Y-79773809D01*
X117619523Y-80011904D01*
X117571904Y-80107142D01*
X117524285Y-80154761D01*
X117429047Y-80202380D01*
X117143333Y-80202380D01*
X117048095Y-80154761D01*
X117000476Y-80107142D01*
G04 #@! TO.C,U2*
X116048095Y-58952380D02*
X116048095Y-59761904D01*
X116095714Y-59857142D01*
X116143333Y-59904761D01*
X116238571Y-59952380D01*
X116429047Y-59952380D01*
X116524285Y-59904761D01*
X116571904Y-59857142D01*
X116619523Y-59761904D01*
X116619523Y-58952380D01*
X117048095Y-59047619D02*
X117095714Y-59000000D01*
X117190952Y-58952380D01*
X117429047Y-58952380D01*
X117524285Y-59000000D01*
X117571904Y-59047619D01*
X117619523Y-59142857D01*
X117619523Y-59238095D01*
X117571904Y-59380952D01*
X117000476Y-59952380D01*
X117619523Y-59952380D01*
G04 #@! TO.C,U1*
X116048095Y-43202380D02*
X116048095Y-44011904D01*
X116095714Y-44107142D01*
X116143333Y-44154761D01*
X116238571Y-44202380D01*
X116429047Y-44202380D01*
X116524285Y-44154761D01*
X116571904Y-44107142D01*
X116619523Y-44011904D01*
X116619523Y-43202380D01*
X117619523Y-44202380D02*
X117048095Y-44202380D01*
X117333809Y-44202380D02*
X117333809Y-43202380D01*
X117238571Y-43345238D01*
X117143333Y-43440476D01*
X117048095Y-43488095D01*
G04 #@! TO.C,R22*
X126607142Y-66452380D02*
X126273809Y-65976190D01*
X126035714Y-66452380D02*
X126035714Y-65452380D01*
X126416666Y-65452380D01*
X126511904Y-65500000D01*
X126559523Y-65547619D01*
X126607142Y-65642857D01*
X126607142Y-65785714D01*
X126559523Y-65880952D01*
X126511904Y-65928571D01*
X126416666Y-65976190D01*
X126035714Y-65976190D01*
X126988095Y-65547619D02*
X127035714Y-65500000D01*
X127130952Y-65452380D01*
X127369047Y-65452380D01*
X127464285Y-65500000D01*
X127511904Y-65547619D01*
X127559523Y-65642857D01*
X127559523Y-65738095D01*
X127511904Y-65880952D01*
X126940476Y-66452380D01*
X127559523Y-66452380D01*
X127940476Y-65547619D02*
X127988095Y-65500000D01*
X128083333Y-65452380D01*
X128321428Y-65452380D01*
X128416666Y-65500000D01*
X128464285Y-65547619D01*
X128511904Y-65642857D01*
X128511904Y-65738095D01*
X128464285Y-65880952D01*
X127892857Y-66452380D01*
X128511904Y-66452380D01*
G04 #@! TO.C,R21*
X105607142Y-97452380D02*
X105273809Y-96976190D01*
X105035714Y-97452380D02*
X105035714Y-96452380D01*
X105416666Y-96452380D01*
X105511904Y-96500000D01*
X105559523Y-96547619D01*
X105607142Y-96642857D01*
X105607142Y-96785714D01*
X105559523Y-96880952D01*
X105511904Y-96928571D01*
X105416666Y-96976190D01*
X105035714Y-96976190D01*
X105988095Y-96547619D02*
X106035714Y-96500000D01*
X106130952Y-96452380D01*
X106369047Y-96452380D01*
X106464285Y-96500000D01*
X106511904Y-96547619D01*
X106559523Y-96642857D01*
X106559523Y-96738095D01*
X106511904Y-96880952D01*
X105940476Y-97452380D01*
X106559523Y-97452380D01*
X107511904Y-97452380D02*
X106940476Y-97452380D01*
X107226190Y-97452380D02*
X107226190Y-96452380D01*
X107130952Y-96595238D01*
X107035714Y-96690476D01*
X106940476Y-96738095D01*
G04 #@! TO.C,R20*
X126607142Y-70452380D02*
X126273809Y-69976190D01*
X126035714Y-70452380D02*
X126035714Y-69452380D01*
X126416666Y-69452380D01*
X126511904Y-69500000D01*
X126559523Y-69547619D01*
X126607142Y-69642857D01*
X126607142Y-69785714D01*
X126559523Y-69880952D01*
X126511904Y-69928571D01*
X126416666Y-69976190D01*
X126035714Y-69976190D01*
X126988095Y-69547619D02*
X127035714Y-69500000D01*
X127130952Y-69452380D01*
X127369047Y-69452380D01*
X127464285Y-69500000D01*
X127511904Y-69547619D01*
X127559523Y-69642857D01*
X127559523Y-69738095D01*
X127511904Y-69880952D01*
X126940476Y-70452380D01*
X127559523Y-70452380D01*
X128178571Y-69452380D02*
X128273809Y-69452380D01*
X128369047Y-69500000D01*
X128416666Y-69547619D01*
X128464285Y-69642857D01*
X128511904Y-69833333D01*
X128511904Y-70071428D01*
X128464285Y-70261904D01*
X128416666Y-70357142D01*
X128369047Y-70404761D01*
X128273809Y-70452380D01*
X128178571Y-70452380D01*
X128083333Y-70404761D01*
X128035714Y-70357142D01*
X127988095Y-70261904D01*
X127940476Y-70071428D01*
X127940476Y-69833333D01*
X127988095Y-69642857D01*
X128035714Y-69547619D01*
X128083333Y-69500000D01*
X128178571Y-69452380D01*
G04 #@! TO.C,R19*
X105547142Y-89452380D02*
X105213809Y-88976190D01*
X104975714Y-89452380D02*
X104975714Y-88452380D01*
X105356666Y-88452380D01*
X105451904Y-88500000D01*
X105499523Y-88547619D01*
X105547142Y-88642857D01*
X105547142Y-88785714D01*
X105499523Y-88880952D01*
X105451904Y-88928571D01*
X105356666Y-88976190D01*
X104975714Y-88976190D01*
X106499523Y-89452380D02*
X105928095Y-89452380D01*
X106213809Y-89452380D02*
X106213809Y-88452380D01*
X106118571Y-88595238D01*
X106023333Y-88690476D01*
X105928095Y-88738095D01*
X106975714Y-89452380D02*
X107166190Y-89452380D01*
X107261428Y-89404761D01*
X107309047Y-89357142D01*
X107404285Y-89214285D01*
X107451904Y-89023809D01*
X107451904Y-88642857D01*
X107404285Y-88547619D01*
X107356666Y-88500000D01*
X107261428Y-88452380D01*
X107070952Y-88452380D01*
X106975714Y-88500000D01*
X106928095Y-88547619D01*
X106880476Y-88642857D01*
X106880476Y-88880952D01*
X106928095Y-88976190D01*
X106975714Y-89023809D01*
X107070952Y-89071428D01*
X107261428Y-89071428D01*
X107356666Y-89023809D01*
X107404285Y-88976190D01*
X107451904Y-88880952D01*
G04 #@! TO.C,R18*
X126607142Y-74452380D02*
X126273809Y-73976190D01*
X126035714Y-74452380D02*
X126035714Y-73452380D01*
X126416666Y-73452380D01*
X126511904Y-73500000D01*
X126559523Y-73547619D01*
X126607142Y-73642857D01*
X126607142Y-73785714D01*
X126559523Y-73880952D01*
X126511904Y-73928571D01*
X126416666Y-73976190D01*
X126035714Y-73976190D01*
X127559523Y-74452380D02*
X126988095Y-74452380D01*
X127273809Y-74452380D02*
X127273809Y-73452380D01*
X127178571Y-73595238D01*
X127083333Y-73690476D01*
X126988095Y-73738095D01*
X128130952Y-73880952D02*
X128035714Y-73833333D01*
X127988095Y-73785714D01*
X127940476Y-73690476D01*
X127940476Y-73642857D01*
X127988095Y-73547619D01*
X128035714Y-73500000D01*
X128130952Y-73452380D01*
X128321428Y-73452380D01*
X128416666Y-73500000D01*
X128464285Y-73547619D01*
X128511904Y-73642857D01*
X128511904Y-73690476D01*
X128464285Y-73785714D01*
X128416666Y-73833333D01*
X128321428Y-73880952D01*
X128130952Y-73880952D01*
X128035714Y-73928571D01*
X127988095Y-73976190D01*
X127940476Y-74071428D01*
X127940476Y-74261904D01*
X127988095Y-74357142D01*
X128035714Y-74404761D01*
X128130952Y-74452380D01*
X128321428Y-74452380D01*
X128416666Y-74404761D01*
X128464285Y-74357142D01*
X128511904Y-74261904D01*
X128511904Y-74071428D01*
X128464285Y-73976190D01*
X128416666Y-73928571D01*
X128321428Y-73880952D01*
G04 #@! TO.C,R17*
X105607142Y-85452380D02*
X105273809Y-84976190D01*
X105035714Y-85452380D02*
X105035714Y-84452380D01*
X105416666Y-84452380D01*
X105511904Y-84500000D01*
X105559523Y-84547619D01*
X105607142Y-84642857D01*
X105607142Y-84785714D01*
X105559523Y-84880952D01*
X105511904Y-84928571D01*
X105416666Y-84976190D01*
X105035714Y-84976190D01*
X106559523Y-85452380D02*
X105988095Y-85452380D01*
X106273809Y-85452380D02*
X106273809Y-84452380D01*
X106178571Y-84595238D01*
X106083333Y-84690476D01*
X105988095Y-84738095D01*
X106892857Y-84452380D02*
X107559523Y-84452380D01*
X107130952Y-85452380D01*
G04 #@! TO.C,R16*
X105607142Y-77452380D02*
X105273809Y-76976190D01*
X105035714Y-77452380D02*
X105035714Y-76452380D01*
X105416666Y-76452380D01*
X105511904Y-76500000D01*
X105559523Y-76547619D01*
X105607142Y-76642857D01*
X105607142Y-76785714D01*
X105559523Y-76880952D01*
X105511904Y-76928571D01*
X105416666Y-76976190D01*
X105035714Y-76976190D01*
X106559523Y-77452380D02*
X105988095Y-77452380D01*
X106273809Y-77452380D02*
X106273809Y-76452380D01*
X106178571Y-76595238D01*
X106083333Y-76690476D01*
X105988095Y-76738095D01*
X107416666Y-76452380D02*
X107226190Y-76452380D01*
X107130952Y-76500000D01*
X107083333Y-76547619D01*
X106988095Y-76690476D01*
X106940476Y-76880952D01*
X106940476Y-77261904D01*
X106988095Y-77357142D01*
X107035714Y-77404761D01*
X107130952Y-77452380D01*
X107321428Y-77452380D01*
X107416666Y-77404761D01*
X107464285Y-77357142D01*
X107511904Y-77261904D01*
X107511904Y-77023809D01*
X107464285Y-76928571D01*
X107416666Y-76880952D01*
X107321428Y-76833333D01*
X107130952Y-76833333D01*
X107035714Y-76880952D01*
X106988095Y-76928571D01*
X106940476Y-77023809D01*
G04 #@! TO.C,R15*
X126607142Y-78452380D02*
X126273809Y-77976190D01*
X126035714Y-78452380D02*
X126035714Y-77452380D01*
X126416666Y-77452380D01*
X126511904Y-77500000D01*
X126559523Y-77547619D01*
X126607142Y-77642857D01*
X126607142Y-77785714D01*
X126559523Y-77880952D01*
X126511904Y-77928571D01*
X126416666Y-77976190D01*
X126035714Y-77976190D01*
X127559523Y-78452380D02*
X126988095Y-78452380D01*
X127273809Y-78452380D02*
X127273809Y-77452380D01*
X127178571Y-77595238D01*
X127083333Y-77690476D01*
X126988095Y-77738095D01*
X128464285Y-77452380D02*
X127988095Y-77452380D01*
X127940476Y-77928571D01*
X127988095Y-77880952D01*
X128083333Y-77833333D01*
X128321428Y-77833333D01*
X128416666Y-77880952D01*
X128464285Y-77928571D01*
X128511904Y-78023809D01*
X128511904Y-78261904D01*
X128464285Y-78357142D01*
X128416666Y-78404761D01*
X128321428Y-78452380D01*
X128083333Y-78452380D01*
X127988095Y-78404761D01*
X127940476Y-78357142D01*
G04 #@! TO.C,R14*
X126547142Y-82452380D02*
X126213809Y-81976190D01*
X125975714Y-82452380D02*
X125975714Y-81452380D01*
X126356666Y-81452380D01*
X126451904Y-81500000D01*
X126499523Y-81547619D01*
X126547142Y-81642857D01*
X126547142Y-81785714D01*
X126499523Y-81880952D01*
X126451904Y-81928571D01*
X126356666Y-81976190D01*
X125975714Y-81976190D01*
X127499523Y-82452380D02*
X126928095Y-82452380D01*
X127213809Y-82452380D02*
X127213809Y-81452380D01*
X127118571Y-81595238D01*
X127023333Y-81690476D01*
X126928095Y-81738095D01*
X128356666Y-81785714D02*
X128356666Y-82452380D01*
X128118571Y-81404761D02*
X127880476Y-82119047D01*
X128499523Y-82119047D01*
G04 #@! TO.C,R13*
X105607142Y-81452380D02*
X105273809Y-80976190D01*
X105035714Y-81452380D02*
X105035714Y-80452380D01*
X105416666Y-80452380D01*
X105511904Y-80500000D01*
X105559523Y-80547619D01*
X105607142Y-80642857D01*
X105607142Y-80785714D01*
X105559523Y-80880952D01*
X105511904Y-80928571D01*
X105416666Y-80976190D01*
X105035714Y-80976190D01*
X106559523Y-81452380D02*
X105988095Y-81452380D01*
X106273809Y-81452380D02*
X106273809Y-80452380D01*
X106178571Y-80595238D01*
X106083333Y-80690476D01*
X105988095Y-80738095D01*
X106892857Y-80452380D02*
X107511904Y-80452380D01*
X107178571Y-80833333D01*
X107321428Y-80833333D01*
X107416666Y-80880952D01*
X107464285Y-80928571D01*
X107511904Y-81023809D01*
X107511904Y-81261904D01*
X107464285Y-81357142D01*
X107416666Y-81404761D01*
X107321428Y-81452380D01*
X107035714Y-81452380D01*
X106940476Y-81404761D01*
X106892857Y-81357142D01*
G04 #@! TO.C,R12*
X105547142Y-65452380D02*
X105213809Y-64976190D01*
X104975714Y-65452380D02*
X104975714Y-64452380D01*
X105356666Y-64452380D01*
X105451904Y-64500000D01*
X105499523Y-64547619D01*
X105547142Y-64642857D01*
X105547142Y-64785714D01*
X105499523Y-64880952D01*
X105451904Y-64928571D01*
X105356666Y-64976190D01*
X104975714Y-64976190D01*
X106499523Y-65452380D02*
X105928095Y-65452380D01*
X106213809Y-65452380D02*
X106213809Y-64452380D01*
X106118571Y-64595238D01*
X106023333Y-64690476D01*
X105928095Y-64738095D01*
X106880476Y-64547619D02*
X106928095Y-64500000D01*
X107023333Y-64452380D01*
X107261428Y-64452380D01*
X107356666Y-64500000D01*
X107404285Y-64547619D01*
X107451904Y-64642857D01*
X107451904Y-64738095D01*
X107404285Y-64880952D01*
X106832857Y-65452380D01*
X107451904Y-65452380D01*
G04 #@! TO.C,R11*
X105607142Y-93452380D02*
X105273809Y-92976190D01*
X105035714Y-93452380D02*
X105035714Y-92452380D01*
X105416666Y-92452380D01*
X105511904Y-92500000D01*
X105559523Y-92547619D01*
X105607142Y-92642857D01*
X105607142Y-92785714D01*
X105559523Y-92880952D01*
X105511904Y-92928571D01*
X105416666Y-92976190D01*
X105035714Y-92976190D01*
X106559523Y-93452380D02*
X105988095Y-93452380D01*
X106273809Y-93452380D02*
X106273809Y-92452380D01*
X106178571Y-92595238D01*
X106083333Y-92690476D01*
X105988095Y-92738095D01*
X107511904Y-93452380D02*
X106940476Y-93452380D01*
X107226190Y-93452380D02*
X107226190Y-92452380D01*
X107130952Y-92595238D01*
X107035714Y-92690476D01*
X106940476Y-92738095D01*
G04 #@! TO.C,R10*
X105607142Y-73452380D02*
X105273809Y-72976190D01*
X105035714Y-73452380D02*
X105035714Y-72452380D01*
X105416666Y-72452380D01*
X105511904Y-72500000D01*
X105559523Y-72547619D01*
X105607142Y-72642857D01*
X105607142Y-72785714D01*
X105559523Y-72880952D01*
X105511904Y-72928571D01*
X105416666Y-72976190D01*
X105035714Y-72976190D01*
X106559523Y-73452380D02*
X105988095Y-73452380D01*
X106273809Y-73452380D02*
X106273809Y-72452380D01*
X106178571Y-72595238D01*
X106083333Y-72690476D01*
X105988095Y-72738095D01*
X107178571Y-72452380D02*
X107273809Y-72452380D01*
X107369047Y-72500000D01*
X107416666Y-72547619D01*
X107464285Y-72642857D01*
X107511904Y-72833333D01*
X107511904Y-73071428D01*
X107464285Y-73261904D01*
X107416666Y-73357142D01*
X107369047Y-73404761D01*
X107273809Y-73452380D01*
X107178571Y-73452380D01*
X107083333Y-73404761D01*
X107035714Y-73357142D01*
X106988095Y-73261904D01*
X106940476Y-73071428D01*
X106940476Y-72833333D01*
X106988095Y-72642857D01*
X107035714Y-72547619D01*
X107083333Y-72500000D01*
X107178571Y-72452380D01*
G04 #@! TO.C,R9*
X127083333Y-50452380D02*
X126750000Y-49976190D01*
X126511904Y-50452380D02*
X126511904Y-49452380D01*
X126892857Y-49452380D01*
X126988095Y-49500000D01*
X127035714Y-49547619D01*
X127083333Y-49642857D01*
X127083333Y-49785714D01*
X127035714Y-49880952D01*
X126988095Y-49928571D01*
X126892857Y-49976190D01*
X126511904Y-49976190D01*
X127559523Y-50452380D02*
X127750000Y-50452380D01*
X127845238Y-50404761D01*
X127892857Y-50357142D01*
X127988095Y-50214285D01*
X128035714Y-50023809D01*
X128035714Y-49642857D01*
X127988095Y-49547619D01*
X127940476Y-49500000D01*
X127845238Y-49452380D01*
X127654761Y-49452380D01*
X127559523Y-49500000D01*
X127511904Y-49547619D01*
X127464285Y-49642857D01*
X127464285Y-49880952D01*
X127511904Y-49976190D01*
X127559523Y-50023809D01*
X127654761Y-50071428D01*
X127845238Y-50071428D01*
X127940476Y-50023809D01*
X127988095Y-49976190D01*
X128035714Y-49880952D01*
G04 #@! TO.C,R8*
X127023333Y-54452380D02*
X126690000Y-53976190D01*
X126451904Y-54452380D02*
X126451904Y-53452380D01*
X126832857Y-53452380D01*
X126928095Y-53500000D01*
X126975714Y-53547619D01*
X127023333Y-53642857D01*
X127023333Y-53785714D01*
X126975714Y-53880952D01*
X126928095Y-53928571D01*
X126832857Y-53976190D01*
X126451904Y-53976190D01*
X127594761Y-53880952D02*
X127499523Y-53833333D01*
X127451904Y-53785714D01*
X127404285Y-53690476D01*
X127404285Y-53642857D01*
X127451904Y-53547619D01*
X127499523Y-53500000D01*
X127594761Y-53452380D01*
X127785238Y-53452380D01*
X127880476Y-53500000D01*
X127928095Y-53547619D01*
X127975714Y-53642857D01*
X127975714Y-53690476D01*
X127928095Y-53785714D01*
X127880476Y-53833333D01*
X127785238Y-53880952D01*
X127594761Y-53880952D01*
X127499523Y-53928571D01*
X127451904Y-53976190D01*
X127404285Y-54071428D01*
X127404285Y-54261904D01*
X127451904Y-54357142D01*
X127499523Y-54404761D01*
X127594761Y-54452380D01*
X127785238Y-54452380D01*
X127880476Y-54404761D01*
X127928095Y-54357142D01*
X127975714Y-54261904D01*
X127975714Y-54071428D01*
X127928095Y-53976190D01*
X127880476Y-53928571D01*
X127785238Y-53880952D01*
G04 #@! TO.C,R7*
X127083333Y-62452380D02*
X126750000Y-61976190D01*
X126511904Y-62452380D02*
X126511904Y-61452380D01*
X126892857Y-61452380D01*
X126988095Y-61500000D01*
X127035714Y-61547619D01*
X127083333Y-61642857D01*
X127083333Y-61785714D01*
X127035714Y-61880952D01*
X126988095Y-61928571D01*
X126892857Y-61976190D01*
X126511904Y-61976190D01*
X127416666Y-61452380D02*
X128083333Y-61452380D01*
X127654761Y-62452380D01*
G04 #@! TO.C,R6*
X106023333Y-69452380D02*
X105690000Y-68976190D01*
X105451904Y-69452380D02*
X105451904Y-68452380D01*
X105832857Y-68452380D01*
X105928095Y-68500000D01*
X105975714Y-68547619D01*
X106023333Y-68642857D01*
X106023333Y-68785714D01*
X105975714Y-68880952D01*
X105928095Y-68928571D01*
X105832857Y-68976190D01*
X105451904Y-68976190D01*
X106880476Y-68452380D02*
X106690000Y-68452380D01*
X106594761Y-68500000D01*
X106547142Y-68547619D01*
X106451904Y-68690476D01*
X106404285Y-68880952D01*
X106404285Y-69261904D01*
X106451904Y-69357142D01*
X106499523Y-69404761D01*
X106594761Y-69452380D01*
X106785238Y-69452380D01*
X106880476Y-69404761D01*
X106928095Y-69357142D01*
X106975714Y-69261904D01*
X106975714Y-69023809D01*
X106928095Y-68928571D01*
X106880476Y-68880952D01*
X106785238Y-68833333D01*
X106594761Y-68833333D01*
X106499523Y-68880952D01*
X106451904Y-68928571D01*
X106404285Y-69023809D01*
G04 #@! TO.C,R5*
X106083333Y-61452380D02*
X105750000Y-60976190D01*
X105511904Y-61452380D02*
X105511904Y-60452380D01*
X105892857Y-60452380D01*
X105988095Y-60500000D01*
X106035714Y-60547619D01*
X106083333Y-60642857D01*
X106083333Y-60785714D01*
X106035714Y-60880952D01*
X105988095Y-60928571D01*
X105892857Y-60976190D01*
X105511904Y-60976190D01*
X106988095Y-60452380D02*
X106511904Y-60452380D01*
X106464285Y-60928571D01*
X106511904Y-60880952D01*
X106607142Y-60833333D01*
X106845238Y-60833333D01*
X106940476Y-60880952D01*
X106988095Y-60928571D01*
X107035714Y-61023809D01*
X107035714Y-61261904D01*
X106988095Y-61357142D01*
X106940476Y-61404761D01*
X106845238Y-61452380D01*
X106607142Y-61452380D01*
X106511904Y-61404761D01*
X106464285Y-61357142D01*
G04 #@! TO.C,R4*
X127083333Y-58452380D02*
X126750000Y-57976190D01*
X126511904Y-58452380D02*
X126511904Y-57452380D01*
X126892857Y-57452380D01*
X126988095Y-57500000D01*
X127035714Y-57547619D01*
X127083333Y-57642857D01*
X127083333Y-57785714D01*
X127035714Y-57880952D01*
X126988095Y-57928571D01*
X126892857Y-57976190D01*
X126511904Y-57976190D01*
X127940476Y-57785714D02*
X127940476Y-58452380D01*
X127702380Y-57404761D02*
X127464285Y-58119047D01*
X128083333Y-58119047D01*
G04 #@! TO.C,R3*
X106023333Y-57452380D02*
X105690000Y-56976190D01*
X105451904Y-57452380D02*
X105451904Y-56452380D01*
X105832857Y-56452380D01*
X105928095Y-56500000D01*
X105975714Y-56547619D01*
X106023333Y-56642857D01*
X106023333Y-56785714D01*
X105975714Y-56880952D01*
X105928095Y-56928571D01*
X105832857Y-56976190D01*
X105451904Y-56976190D01*
X106356666Y-56452380D02*
X106975714Y-56452380D01*
X106642380Y-56833333D01*
X106785238Y-56833333D01*
X106880476Y-56880952D01*
X106928095Y-56928571D01*
X106975714Y-57023809D01*
X106975714Y-57261904D01*
X106928095Y-57357142D01*
X106880476Y-57404761D01*
X106785238Y-57452380D01*
X106499523Y-57452380D01*
X106404285Y-57404761D01*
X106356666Y-57357142D01*
G04 #@! TO.C,R2*
X105643333Y-53452380D02*
X105310000Y-52976190D01*
X105071904Y-53452380D02*
X105071904Y-52452380D01*
X105452857Y-52452380D01*
X105548095Y-52500000D01*
X105595714Y-52547619D01*
X105643333Y-52642857D01*
X105643333Y-52785714D01*
X105595714Y-52880952D01*
X105548095Y-52928571D01*
X105452857Y-52976190D01*
X105071904Y-52976190D01*
X106024285Y-52547619D02*
X106071904Y-52500000D01*
X106167142Y-52452380D01*
X106405238Y-52452380D01*
X106500476Y-52500000D01*
X106548095Y-52547619D01*
X106595714Y-52642857D01*
X106595714Y-52738095D01*
X106548095Y-52880952D01*
X105976666Y-53452380D01*
X106595714Y-53452380D01*
G04 #@! TO.C,R1*
X127083333Y-46452380D02*
X126750000Y-45976190D01*
X126511904Y-46452380D02*
X126511904Y-45452380D01*
X126892857Y-45452380D01*
X126988095Y-45500000D01*
X127035714Y-45547619D01*
X127083333Y-45642857D01*
X127083333Y-45785714D01*
X127035714Y-45880952D01*
X126988095Y-45928571D01*
X126892857Y-45976190D01*
X126511904Y-45976190D01*
X128035714Y-46452380D02*
X127464285Y-46452380D01*
X127750000Y-46452380D02*
X127750000Y-45452380D01*
X127654761Y-45595238D01*
X127559523Y-45690476D01*
X127464285Y-45738095D01*
G04 #@! TO.C,Q1*
X103154761Y-37547619D02*
X103059523Y-37500000D01*
X102964285Y-37404761D01*
X102821428Y-37261904D01*
X102726190Y-37214285D01*
X102630952Y-37214285D01*
X102678571Y-37452380D02*
X102583333Y-37404761D01*
X102488095Y-37309523D01*
X102440476Y-37119047D01*
X102440476Y-36785714D01*
X102488095Y-36595238D01*
X102583333Y-36500000D01*
X102678571Y-36452380D01*
X102869047Y-36452380D01*
X102964285Y-36500000D01*
X103059523Y-36595238D01*
X103107142Y-36785714D01*
X103107142Y-37119047D01*
X103059523Y-37309523D01*
X102964285Y-37404761D01*
X102869047Y-37452380D01*
X102678571Y-37452380D01*
X104059523Y-37452380D02*
X103488095Y-37452380D01*
X103773809Y-37452380D02*
X103773809Y-36452380D01*
X103678571Y-36595238D01*
X103583333Y-36690476D01*
X103488095Y-36738095D01*
G04 #@! TO.C,D2*
X102202380Y-48738095D02*
X101202380Y-48738095D01*
X101202380Y-48500000D01*
X101250000Y-48357142D01*
X101345238Y-48261904D01*
X101440476Y-48214285D01*
X101630952Y-48166666D01*
X101773809Y-48166666D01*
X101964285Y-48214285D01*
X102059523Y-48261904D01*
X102154761Y-48357142D01*
X102202380Y-48500000D01*
X102202380Y-48738095D01*
X101297619Y-47785714D02*
X101250000Y-47738095D01*
X101202380Y-47642857D01*
X101202380Y-47404761D01*
X101250000Y-47309523D01*
X101297619Y-47261904D01*
X101392857Y-47214285D01*
X101488095Y-47214285D01*
X101630952Y-47261904D01*
X102202380Y-47833333D01*
X102202380Y-47214285D01*
X107341904Y-48966666D02*
X107818095Y-48966666D01*
X107246666Y-49252380D02*
X107580000Y-48252380D01*
X107913333Y-49252380D01*
G04 #@! TO.C,D1*
X102202380Y-45488095D02*
X101202380Y-45488095D01*
X101202380Y-45250000D01*
X101250000Y-45107142D01*
X101345238Y-45011904D01*
X101440476Y-44964285D01*
X101630952Y-44916666D01*
X101773809Y-44916666D01*
X101964285Y-44964285D01*
X102059523Y-45011904D01*
X102154761Y-45107142D01*
X102202380Y-45250000D01*
X102202380Y-45488095D01*
X102202380Y-43964285D02*
X102202380Y-44535714D01*
X102202380Y-44250000D02*
X101202380Y-44250000D01*
X101345238Y-44345238D01*
X101440476Y-44440476D01*
X101488095Y-44535714D01*
X107261904Y-45966666D02*
X107738095Y-45966666D01*
X107166666Y-46252380D02*
X107500000Y-45252380D01*
X107833333Y-46252380D01*
G04 #@! TD*
M02*
