G04 #@! TF.GenerationSoftware,KiCad,Pcbnew,5.1.7-1.fc31*
G04 #@! TF.CreationDate,2021-04-18T18:46:58-04:00*
G04 #@! TF.ProjectId,offsetAttenuverter,6f666673-6574-4417-9474-656e75766572,rev?*
G04 #@! TF.SameCoordinates,Original*
G04 #@! TF.FileFunction,Legend,Bot*
G04 #@! TF.FilePolarity,Positive*
%FSLAX46Y46*%
G04 Gerber Fmt 4.6, Leading zero omitted, Abs format (unit mm)*
G04 Created by KiCad (PCBNEW 5.1.7-1.fc31) date 2021-04-18 18:46:58*
%MOMM*%
%LPD*%
G01*
G04 APERTURE LIST*
%ADD10C,0.150000*%
%ADD11C,0.120000*%
G04 APERTURE END LIST*
D10*
X43147380Y-145550000D02*
X43242619Y-145502380D01*
X43385476Y-145502380D01*
X43528333Y-145550000D01*
X43623571Y-145645238D01*
X43671190Y-145740476D01*
X43718809Y-145930952D01*
X43718809Y-146073809D01*
X43671190Y-146264285D01*
X43623571Y-146359523D01*
X43528333Y-146454761D01*
X43385476Y-146502380D01*
X43290238Y-146502380D01*
X43147380Y-146454761D01*
X43099761Y-146407142D01*
X43099761Y-146073809D01*
X43290238Y-146073809D01*
X42671190Y-146502380D02*
X42671190Y-145835714D01*
X42671190Y-146026190D02*
X42623571Y-145930952D01*
X42575952Y-145883333D01*
X42480714Y-145835714D01*
X42385476Y-145835714D01*
X41623571Y-146502380D02*
X41623571Y-145978571D01*
X41671190Y-145883333D01*
X41766428Y-145835714D01*
X41956904Y-145835714D01*
X42052142Y-145883333D01*
X41623571Y-146454761D02*
X41718809Y-146502380D01*
X41956904Y-146502380D01*
X42052142Y-146454761D01*
X42099761Y-146359523D01*
X42099761Y-146264285D01*
X42052142Y-146169047D01*
X41956904Y-146121428D01*
X41718809Y-146121428D01*
X41623571Y-146073809D01*
X41242619Y-145835714D02*
X41004523Y-146502380D01*
X40766428Y-145835714D02*
X41004523Y-146502380D01*
X41099761Y-146740476D01*
X41147380Y-146788095D01*
X41242619Y-146835714D01*
X39623571Y-146502380D02*
X39623571Y-145502380D01*
X39052142Y-146502380D01*
X39052142Y-145502380D01*
X38433095Y-146502380D02*
X38528333Y-146454761D01*
X38575952Y-146407142D01*
X38623571Y-146311904D01*
X38623571Y-146026190D01*
X38575952Y-145930952D01*
X38528333Y-145883333D01*
X38433095Y-145835714D01*
X38290238Y-145835714D01*
X38195000Y-145883333D01*
X38147380Y-145930952D01*
X38099761Y-146026190D01*
X38099761Y-146311904D01*
X38147380Y-146407142D01*
X38195000Y-146454761D01*
X38290238Y-146502380D01*
X38433095Y-146502380D01*
X37671190Y-146502380D02*
X37671190Y-145835714D01*
X37671190Y-145502380D02*
X37718809Y-145550000D01*
X37671190Y-145597619D01*
X37623571Y-145550000D01*
X37671190Y-145502380D01*
X37671190Y-145597619D01*
X37242619Y-146454761D02*
X37147380Y-146502380D01*
X36956904Y-146502380D01*
X36861666Y-146454761D01*
X36814047Y-146359523D01*
X36814047Y-146311904D01*
X36861666Y-146216666D01*
X36956904Y-146169047D01*
X37099761Y-146169047D01*
X37195000Y-146121428D01*
X37242619Y-146026190D01*
X37242619Y-145978571D01*
X37195000Y-145883333D01*
X37099761Y-145835714D01*
X36956904Y-145835714D01*
X36861666Y-145883333D01*
X36004523Y-146454761D02*
X36099761Y-146502380D01*
X36290238Y-146502380D01*
X36385476Y-146454761D01*
X36433095Y-146359523D01*
X36433095Y-145978571D01*
X36385476Y-145883333D01*
X36290238Y-145835714D01*
X36099761Y-145835714D01*
X36004523Y-145883333D01*
X35956904Y-145978571D01*
X35956904Y-146073809D01*
X36433095Y-146169047D01*
X34814047Y-146216666D02*
X34337857Y-146216666D01*
X34909285Y-146502380D02*
X34575952Y-145502380D01*
X34242619Y-146502380D01*
X33480714Y-145835714D02*
X33480714Y-146502380D01*
X33909285Y-145835714D02*
X33909285Y-146359523D01*
X33861666Y-146454761D01*
X33766428Y-146502380D01*
X33623571Y-146502380D01*
X33528333Y-146454761D01*
X33480714Y-146407142D01*
X32575952Y-146502380D02*
X32575952Y-145502380D01*
X32575952Y-146454761D02*
X32671190Y-146502380D01*
X32861666Y-146502380D01*
X32956904Y-146454761D01*
X33004523Y-146407142D01*
X33052142Y-146311904D01*
X33052142Y-146026190D01*
X33004523Y-145930952D01*
X32956904Y-145883333D01*
X32861666Y-145835714D01*
X32671190Y-145835714D01*
X32575952Y-145883333D01*
X32099761Y-146502380D02*
X32099761Y-145835714D01*
X32099761Y-145502380D02*
X32147380Y-145550000D01*
X32099761Y-145597619D01*
X32052142Y-145550000D01*
X32099761Y-145502380D01*
X32099761Y-145597619D01*
X31480714Y-146502380D02*
X31575952Y-146454761D01*
X31623571Y-146407142D01*
X31671190Y-146311904D01*
X31671190Y-146026190D01*
X31623571Y-145930952D01*
X31575952Y-145883333D01*
X31480714Y-145835714D01*
X31337857Y-145835714D01*
X31242619Y-145883333D01*
X31195000Y-145930952D01*
X31147380Y-146026190D01*
X31147380Y-146311904D01*
X31195000Y-146407142D01*
X31242619Y-146454761D01*
X31337857Y-146502380D01*
X31480714Y-146502380D01*
X30052142Y-145835714D02*
X29814047Y-146502380D01*
X29575952Y-145835714D01*
X28671190Y-146502380D02*
X29242619Y-146502380D01*
X28956904Y-146502380D02*
X28956904Y-145502380D01*
X29052142Y-145645238D01*
X29147380Y-145740476D01*
X29242619Y-145788095D01*
X44099761Y-145141904D02*
X44099761Y-144341904D01*
X43909285Y-144341904D01*
X43795000Y-144380000D01*
X43718809Y-144456190D01*
X43680714Y-144532380D01*
X43642619Y-144684761D01*
X43642619Y-144799047D01*
X43680714Y-144951428D01*
X43718809Y-145027619D01*
X43795000Y-145103809D01*
X43909285Y-145141904D01*
X44099761Y-145141904D01*
X42956904Y-144608571D02*
X42956904Y-145141904D01*
X43299761Y-144608571D02*
X43299761Y-145027619D01*
X43261666Y-145103809D01*
X43185476Y-145141904D01*
X43071190Y-145141904D01*
X42995000Y-145103809D01*
X42956904Y-145065714D01*
X42233095Y-145141904D02*
X42233095Y-144722857D01*
X42271190Y-144646666D01*
X42347380Y-144608571D01*
X42499761Y-144608571D01*
X42575952Y-144646666D01*
X42233095Y-145103809D02*
X42309285Y-145141904D01*
X42499761Y-145141904D01*
X42575952Y-145103809D01*
X42614047Y-145027619D01*
X42614047Y-144951428D01*
X42575952Y-144875238D01*
X42499761Y-144837142D01*
X42309285Y-144837142D01*
X42233095Y-144799047D01*
X41737857Y-145141904D02*
X41814047Y-145103809D01*
X41852142Y-145027619D01*
X41852142Y-144341904D01*
X40861666Y-144913333D02*
X40480714Y-144913333D01*
X40937857Y-145141904D02*
X40671190Y-144341904D01*
X40404523Y-145141904D01*
X40252142Y-144608571D02*
X39947380Y-144608571D01*
X40137857Y-144341904D02*
X40137857Y-145027619D01*
X40099761Y-145103809D01*
X40023571Y-145141904D01*
X39947380Y-145141904D01*
X39795000Y-144608571D02*
X39490238Y-144608571D01*
X39680714Y-144341904D02*
X39680714Y-145027619D01*
X39642619Y-145103809D01*
X39566428Y-145141904D01*
X39490238Y-145141904D01*
X38918809Y-145103809D02*
X38995000Y-145141904D01*
X39147380Y-145141904D01*
X39223571Y-145103809D01*
X39261666Y-145027619D01*
X39261666Y-144722857D01*
X39223571Y-144646666D01*
X39147380Y-144608571D01*
X38995000Y-144608571D01*
X38918809Y-144646666D01*
X38880714Y-144722857D01*
X38880714Y-144799047D01*
X39261666Y-144875238D01*
X38537857Y-144608571D02*
X38537857Y-145141904D01*
X38537857Y-144684761D02*
X38499761Y-144646666D01*
X38423571Y-144608571D01*
X38309285Y-144608571D01*
X38233095Y-144646666D01*
X38195000Y-144722857D01*
X38195000Y-145141904D01*
X37471190Y-144608571D02*
X37471190Y-145141904D01*
X37814047Y-144608571D02*
X37814047Y-145027619D01*
X37775952Y-145103809D01*
X37699761Y-145141904D01*
X37585476Y-145141904D01*
X37509285Y-145103809D01*
X37471190Y-145065714D01*
X37166428Y-144608571D02*
X36975952Y-145141904D01*
X36785476Y-144608571D01*
X36175952Y-145103809D02*
X36252142Y-145141904D01*
X36404523Y-145141904D01*
X36480714Y-145103809D01*
X36518809Y-145027619D01*
X36518809Y-144722857D01*
X36480714Y-144646666D01*
X36404523Y-144608571D01*
X36252142Y-144608571D01*
X36175952Y-144646666D01*
X36137857Y-144722857D01*
X36137857Y-144799047D01*
X36518809Y-144875238D01*
X35795000Y-145141904D02*
X35795000Y-144608571D01*
X35795000Y-144760952D02*
X35756904Y-144684761D01*
X35718809Y-144646666D01*
X35642619Y-144608571D01*
X35566428Y-144608571D01*
X35414047Y-144608571D02*
X35109285Y-144608571D01*
X35299761Y-144341904D02*
X35299761Y-145027619D01*
X35261666Y-145103809D01*
X35185476Y-145141904D01*
X35109285Y-145141904D01*
X34537857Y-145103809D02*
X34614047Y-145141904D01*
X34766428Y-145141904D01*
X34842619Y-145103809D01*
X34880714Y-145027619D01*
X34880714Y-144722857D01*
X34842619Y-144646666D01*
X34766428Y-144608571D01*
X34614047Y-144608571D01*
X34537857Y-144646666D01*
X34499761Y-144722857D01*
X34499761Y-144799047D01*
X34880714Y-144875238D01*
X34156904Y-145141904D02*
X34156904Y-144608571D01*
X34156904Y-144760952D02*
X34118809Y-144684761D01*
X34080714Y-144646666D01*
X34004523Y-144608571D01*
X33928333Y-144608571D01*
X32404523Y-145141904D02*
X32442619Y-145141904D01*
X32518809Y-145103809D01*
X32633095Y-144989523D01*
X32823571Y-144760952D01*
X32899761Y-144646666D01*
X32937857Y-144532380D01*
X32937857Y-144456190D01*
X32899761Y-144380000D01*
X32823571Y-144341904D01*
X32785476Y-144341904D01*
X32709285Y-144380000D01*
X32671190Y-144456190D01*
X32671190Y-144494285D01*
X32709285Y-144570476D01*
X32747380Y-144608571D01*
X32975952Y-144760952D01*
X33014047Y-144799047D01*
X33052142Y-144875238D01*
X33052142Y-144989523D01*
X33014047Y-145065714D01*
X32975952Y-145103809D01*
X32899761Y-145141904D01*
X32785476Y-145141904D01*
X32709285Y-145103809D01*
X32671190Y-145065714D01*
X32556904Y-144913333D01*
X32518809Y-144799047D01*
X32518809Y-144722857D01*
X31299761Y-144341904D02*
X31147380Y-144341904D01*
X31071190Y-144380000D01*
X30995000Y-144456190D01*
X30956904Y-144608571D01*
X30956904Y-144875238D01*
X30995000Y-145027619D01*
X31071190Y-145103809D01*
X31147380Y-145141904D01*
X31299761Y-145141904D01*
X31375952Y-145103809D01*
X31452142Y-145027619D01*
X31490238Y-144875238D01*
X31490238Y-144608571D01*
X31452142Y-144456190D01*
X31375952Y-144380000D01*
X31299761Y-144341904D01*
X30728333Y-144608571D02*
X30423571Y-144608571D01*
X30614047Y-145141904D02*
X30614047Y-144456190D01*
X30575952Y-144380000D01*
X30499761Y-144341904D01*
X30423571Y-144341904D01*
X30271190Y-144608571D02*
X29966428Y-144608571D01*
X30156904Y-145141904D02*
X30156904Y-144456190D01*
X30118809Y-144380000D01*
X30042619Y-144341904D01*
X29966428Y-144341904D01*
X29737857Y-145103809D02*
X29661666Y-145141904D01*
X29509285Y-145141904D01*
X29433095Y-145103809D01*
X29395000Y-145027619D01*
X29395000Y-144989523D01*
X29433095Y-144913333D01*
X29509285Y-144875238D01*
X29623571Y-144875238D01*
X29699761Y-144837142D01*
X29737857Y-144760952D01*
X29737857Y-144722857D01*
X29699761Y-144646666D01*
X29623571Y-144608571D01*
X29509285Y-144608571D01*
X29433095Y-144646666D01*
X28747380Y-145103809D02*
X28823571Y-145141904D01*
X28975952Y-145141904D01*
X29052142Y-145103809D01*
X29090238Y-145027619D01*
X29090238Y-144722857D01*
X29052142Y-144646666D01*
X28975952Y-144608571D01*
X28823571Y-144608571D01*
X28747380Y-144646666D01*
X28709285Y-144722857D01*
X28709285Y-144799047D01*
X29090238Y-144875238D01*
X28480714Y-144608571D02*
X28175952Y-144608571D01*
X28366428Y-144341904D02*
X28366428Y-145027619D01*
X28328333Y-145103809D01*
X28252142Y-145141904D01*
X28175952Y-145141904D01*
D11*
X27940000Y-97790000D02*
X27940000Y-104140000D01*
D10*
X26741428Y-98615714D02*
X26741428Y-99377619D01*
X27122380Y-100377619D02*
X27122380Y-99806190D01*
X27122380Y-100091904D02*
X26122380Y-100091904D01*
X26265238Y-99996666D01*
X26360476Y-99901428D01*
X26408095Y-99806190D01*
X26217619Y-100758571D02*
X26170000Y-100806190D01*
X26122380Y-100901428D01*
X26122380Y-101139523D01*
X26170000Y-101234761D01*
X26217619Y-101282380D01*
X26312857Y-101330000D01*
X26408095Y-101330000D01*
X26550952Y-101282380D01*
X27122380Y-100710952D01*
X27122380Y-101330000D01*
X26455714Y-101663333D02*
X27122380Y-101901428D01*
X26455714Y-102139523D01*
D11*
G04 #@! TO.C,U1*
X26610000Y-49260000D02*
G75*
G03*
X26610000Y-47260000I0J1000000D01*
G01*
X26610000Y-47260000D02*
X26610000Y-45610000D01*
X26610000Y-45610000D02*
X44510000Y-45610000D01*
X44510000Y-45610000D02*
X44510000Y-50910000D01*
X44510000Y-50910000D02*
X26610000Y-50910000D01*
X26610000Y-50910000D02*
X26610000Y-49260000D01*
G04 #@! TO.C,R14*
X38835000Y-130270000D02*
X36095000Y-130270000D01*
X36095000Y-130270000D02*
X36095000Y-123730000D01*
X36095000Y-123730000D02*
X38835000Y-123730000D01*
X38835000Y-123730000D02*
X38835000Y-130270000D01*
X37465000Y-131040000D02*
X37465000Y-130270000D01*
X37465000Y-122960000D02*
X37465000Y-123730000D01*
G04 #@! TO.C,R13*
X45185000Y-87725000D02*
X42445000Y-87725000D01*
X42445000Y-87725000D02*
X42445000Y-81185000D01*
X42445000Y-81185000D02*
X45185000Y-81185000D01*
X45185000Y-81185000D02*
X45185000Y-87725000D01*
X43815000Y-88495000D02*
X43815000Y-87725000D01*
X43815000Y-80415000D02*
X43815000Y-81185000D01*
G04 #@! TO.C,R12*
X32290000Y-120750000D02*
X32290000Y-118010000D01*
X32290000Y-118010000D02*
X38830000Y-118010000D01*
X38830000Y-118010000D02*
X38830000Y-120750000D01*
X38830000Y-120750000D02*
X32290000Y-120750000D01*
X31520000Y-119380000D02*
X32290000Y-119380000D01*
X39600000Y-119380000D02*
X38830000Y-119380000D01*
G04 #@! TO.C,R11*
X32925000Y-68045000D02*
X32925000Y-65305000D01*
X32925000Y-65305000D02*
X39465000Y-65305000D01*
X39465000Y-65305000D02*
X39465000Y-68045000D01*
X39465000Y-68045000D02*
X32925000Y-68045000D01*
X32155000Y-66675000D02*
X32925000Y-66675000D01*
X40235000Y-66675000D02*
X39465000Y-66675000D01*
G04 #@! TO.C,R10*
X25935000Y-125000000D02*
X28675000Y-125000000D01*
X28675000Y-125000000D02*
X28675000Y-131540000D01*
X28675000Y-131540000D02*
X25935000Y-131540000D01*
X25935000Y-131540000D02*
X25935000Y-125000000D01*
X27305000Y-124230000D02*
X27305000Y-125000000D01*
X27305000Y-132310000D02*
X27305000Y-131540000D01*
G04 #@! TO.C,R9*
X25935000Y-71660000D02*
X28675000Y-71660000D01*
X28675000Y-71660000D02*
X28675000Y-78200000D01*
X28675000Y-78200000D02*
X25935000Y-78200000D01*
X25935000Y-78200000D02*
X25935000Y-71660000D01*
X27305000Y-70890000D02*
X27305000Y-71660000D01*
X27305000Y-78970000D02*
X27305000Y-78200000D01*
G04 #@! TO.C,R8*
X45185000Y-131540000D02*
X42445000Y-131540000D01*
X42445000Y-131540000D02*
X42445000Y-125000000D01*
X42445000Y-125000000D02*
X45185000Y-125000000D01*
X45185000Y-125000000D02*
X45185000Y-131540000D01*
X43815000Y-132310000D02*
X43815000Y-131540000D01*
X43815000Y-124230000D02*
X43815000Y-125000000D01*
G04 #@! TO.C,R7*
X45202847Y-75301372D02*
X42462847Y-75301372D01*
X42462847Y-75301372D02*
X42462847Y-68761372D01*
X42462847Y-68761372D02*
X45202847Y-68761372D01*
X45202847Y-68761372D02*
X45202847Y-75301372D01*
X43832847Y-76071372D02*
X43832847Y-75301372D01*
X43832847Y-67991372D02*
X43832847Y-68761372D01*
G04 #@! TO.C,R6*
X32290000Y-61695000D02*
X32290000Y-58955000D01*
X32290000Y-58955000D02*
X38830000Y-58955000D01*
X38830000Y-58955000D02*
X38830000Y-61695000D01*
X38830000Y-61695000D02*
X32290000Y-61695000D01*
X31520000Y-60325000D02*
X32290000Y-60325000D01*
X39600000Y-60325000D02*
X38830000Y-60325000D01*
G04 #@! TO.C,R5*
X35025000Y-76930000D02*
X32285000Y-76930000D01*
X32285000Y-76930000D02*
X32285000Y-70390000D01*
X32285000Y-70390000D02*
X35025000Y-70390000D01*
X35025000Y-70390000D02*
X35025000Y-76930000D01*
X33655000Y-77700000D02*
X33655000Y-76930000D01*
X33655000Y-69620000D02*
X33655000Y-70390000D01*
G04 #@! TO.C,R4*
X25935000Y-56420000D02*
X28675000Y-56420000D01*
X28675000Y-56420000D02*
X28675000Y-62960000D01*
X28675000Y-62960000D02*
X25935000Y-62960000D01*
X25935000Y-62960000D02*
X25935000Y-56420000D01*
X27305000Y-55650000D02*
X27305000Y-56420000D01*
X27305000Y-63730000D02*
X27305000Y-62960000D01*
G04 #@! TO.C,R3*
X42445000Y-56420000D02*
X45185000Y-56420000D01*
X45185000Y-56420000D02*
X45185000Y-62960000D01*
X45185000Y-62960000D02*
X42445000Y-62960000D01*
X42445000Y-62960000D02*
X42445000Y-56420000D01*
X43815000Y-55650000D02*
X43815000Y-56420000D01*
X43815000Y-63730000D02*
X43815000Y-62960000D01*
G04 #@! TO.C,R2*
X32920000Y-123730000D02*
X35660000Y-123730000D01*
X35660000Y-123730000D02*
X35660000Y-130270000D01*
X35660000Y-130270000D02*
X32920000Y-130270000D01*
X32920000Y-130270000D02*
X32920000Y-123730000D01*
X34290000Y-122960000D02*
X34290000Y-123730000D01*
X34290000Y-131040000D02*
X34290000Y-130270000D01*
G04 #@! TO.C,R1*
X36095000Y-70390000D02*
X38835000Y-70390000D01*
X38835000Y-70390000D02*
X38835000Y-76930000D01*
X38835000Y-76930000D02*
X36095000Y-76930000D01*
X36095000Y-76930000D02*
X36095000Y-70390000D01*
X37465000Y-69620000D02*
X37465000Y-70390000D01*
X37465000Y-77700000D02*
X37465000Y-76930000D01*
G04 #@! TO.C,D2*
X28775000Y-113845000D02*
X25835000Y-113845000D01*
X25835000Y-113845000D02*
X25835000Y-108405000D01*
X25835000Y-108405000D02*
X28775000Y-108405000D01*
X28775000Y-108405000D02*
X28775000Y-113845000D01*
X27305000Y-114865000D02*
X27305000Y-113845000D01*
X27305000Y-107385000D02*
X27305000Y-108405000D01*
X28775000Y-112945000D02*
X25835000Y-112945000D01*
X28775000Y-112825000D02*
X25835000Y-112825000D01*
X28775000Y-113065000D02*
X25835000Y-113065000D01*
G04 #@! TO.C,D1*
X42345000Y-108405000D02*
X45285000Y-108405000D01*
X45285000Y-108405000D02*
X45285000Y-113845000D01*
X45285000Y-113845000D02*
X42345000Y-113845000D01*
X42345000Y-113845000D02*
X42345000Y-108405000D01*
X43815000Y-107385000D02*
X43815000Y-108405000D01*
X43815000Y-114865000D02*
X43815000Y-113845000D01*
X42345000Y-109305000D02*
X45285000Y-109305000D01*
X42345000Y-109425000D02*
X45285000Y-109425000D01*
X42345000Y-109185000D02*
X45285000Y-109185000D01*
G04 #@! TO.C,C2*
X33195000Y-88750000D02*
X33195000Y-91590000D01*
X33195000Y-91590000D02*
X29155000Y-91590000D01*
X29155000Y-91590000D02*
X29155000Y-88750000D01*
X29155000Y-88750000D02*
X33195000Y-88750000D01*
X33885000Y-90170000D02*
X33195000Y-90170000D01*
X28465000Y-90170000D02*
X29155000Y-90170000D01*
G04 #@! TO.C,C1*
X42085000Y-91290000D02*
X42085000Y-94130000D01*
X42085000Y-94130000D02*
X38045000Y-94130000D01*
X38045000Y-94130000D02*
X38045000Y-91290000D01*
X38045000Y-91290000D02*
X42085000Y-91290000D01*
X42775000Y-92710000D02*
X42085000Y-92710000D01*
X37355000Y-92710000D02*
X38045000Y-92710000D01*
G04 #@! TO.C,J1*
X41970000Y-103565000D02*
X41970000Y-102235000D01*
X40640000Y-103565000D02*
X41970000Y-103565000D01*
X41970000Y-100965000D02*
X41970000Y-98365000D01*
X39370000Y-100965000D02*
X41970000Y-100965000D01*
X39370000Y-103565000D02*
X39370000Y-100965000D01*
X41970000Y-98365000D02*
X29150000Y-98365000D01*
X39370000Y-103565000D02*
X29150000Y-103565000D01*
X29150000Y-103565000D02*
X29150000Y-98365000D01*
G04 #@! TO.C,U1*
D10*
X35012380Y-47498095D02*
X35821904Y-47498095D01*
X35917142Y-47545714D01*
X35964761Y-47593333D01*
X36012380Y-47688571D01*
X36012380Y-47879047D01*
X35964761Y-47974285D01*
X35917142Y-48021904D01*
X35821904Y-48069523D01*
X35012380Y-48069523D01*
X36012380Y-49069523D02*
X36012380Y-48498095D01*
X36012380Y-48783809D02*
X35012380Y-48783809D01*
X35155238Y-48688571D01*
X35250476Y-48593333D01*
X35298095Y-48498095D01*
G04 #@! TO.C,R14*
X37917380Y-126357142D02*
X37441190Y-126023809D01*
X37917380Y-125785714D02*
X36917380Y-125785714D01*
X36917380Y-126166666D01*
X36965000Y-126261904D01*
X37012619Y-126309523D01*
X37107857Y-126357142D01*
X37250714Y-126357142D01*
X37345952Y-126309523D01*
X37393571Y-126261904D01*
X37441190Y-126166666D01*
X37441190Y-125785714D01*
X37917380Y-127309523D02*
X37917380Y-126738095D01*
X37917380Y-127023809D02*
X36917380Y-127023809D01*
X37060238Y-126928571D01*
X37155476Y-126833333D01*
X37203095Y-126738095D01*
X37250714Y-128166666D02*
X37917380Y-128166666D01*
X36869761Y-127928571D02*
X37584047Y-127690476D01*
X37584047Y-128309523D01*
G04 #@! TO.C,R13*
X44267380Y-83812142D02*
X43791190Y-83478809D01*
X44267380Y-83240714D02*
X43267380Y-83240714D01*
X43267380Y-83621666D01*
X43315000Y-83716904D01*
X43362619Y-83764523D01*
X43457857Y-83812142D01*
X43600714Y-83812142D01*
X43695952Y-83764523D01*
X43743571Y-83716904D01*
X43791190Y-83621666D01*
X43791190Y-83240714D01*
X44267380Y-84764523D02*
X44267380Y-84193095D01*
X44267380Y-84478809D02*
X43267380Y-84478809D01*
X43410238Y-84383571D01*
X43505476Y-84288333D01*
X43553095Y-84193095D01*
X43267380Y-85097857D02*
X43267380Y-85716904D01*
X43648333Y-85383571D01*
X43648333Y-85526428D01*
X43695952Y-85621666D01*
X43743571Y-85669285D01*
X43838809Y-85716904D01*
X44076904Y-85716904D01*
X44172142Y-85669285D01*
X44219761Y-85621666D01*
X44267380Y-85526428D01*
X44267380Y-85240714D01*
X44219761Y-85145476D01*
X44172142Y-85097857D01*
G04 #@! TO.C,R12*
X36202857Y-119832380D02*
X36536190Y-119356190D01*
X36774285Y-119832380D02*
X36774285Y-118832380D01*
X36393333Y-118832380D01*
X36298095Y-118880000D01*
X36250476Y-118927619D01*
X36202857Y-119022857D01*
X36202857Y-119165714D01*
X36250476Y-119260952D01*
X36298095Y-119308571D01*
X36393333Y-119356190D01*
X36774285Y-119356190D01*
X35250476Y-119832380D02*
X35821904Y-119832380D01*
X35536190Y-119832380D02*
X35536190Y-118832380D01*
X35631428Y-118975238D01*
X35726666Y-119070476D01*
X35821904Y-119118095D01*
X34869523Y-118927619D02*
X34821904Y-118880000D01*
X34726666Y-118832380D01*
X34488571Y-118832380D01*
X34393333Y-118880000D01*
X34345714Y-118927619D01*
X34298095Y-119022857D01*
X34298095Y-119118095D01*
X34345714Y-119260952D01*
X34917142Y-119832380D01*
X34298095Y-119832380D01*
G04 #@! TO.C,R11*
X36837857Y-67127380D02*
X37171190Y-66651190D01*
X37409285Y-67127380D02*
X37409285Y-66127380D01*
X37028333Y-66127380D01*
X36933095Y-66175000D01*
X36885476Y-66222619D01*
X36837857Y-66317857D01*
X36837857Y-66460714D01*
X36885476Y-66555952D01*
X36933095Y-66603571D01*
X37028333Y-66651190D01*
X37409285Y-66651190D01*
X35885476Y-67127380D02*
X36456904Y-67127380D01*
X36171190Y-67127380D02*
X36171190Y-66127380D01*
X36266428Y-66270238D01*
X36361666Y-66365476D01*
X36456904Y-66413095D01*
X34933095Y-67127380D02*
X35504523Y-67127380D01*
X35218809Y-67127380D02*
X35218809Y-66127380D01*
X35314047Y-66270238D01*
X35409285Y-66365476D01*
X35504523Y-66413095D01*
G04 #@! TO.C,R10*
X27757380Y-127627142D02*
X27281190Y-127293809D01*
X27757380Y-127055714D02*
X26757380Y-127055714D01*
X26757380Y-127436666D01*
X26805000Y-127531904D01*
X26852619Y-127579523D01*
X26947857Y-127627142D01*
X27090714Y-127627142D01*
X27185952Y-127579523D01*
X27233571Y-127531904D01*
X27281190Y-127436666D01*
X27281190Y-127055714D01*
X27757380Y-128579523D02*
X27757380Y-128008095D01*
X27757380Y-128293809D02*
X26757380Y-128293809D01*
X26900238Y-128198571D01*
X26995476Y-128103333D01*
X27043095Y-128008095D01*
X26757380Y-129198571D02*
X26757380Y-129293809D01*
X26805000Y-129389047D01*
X26852619Y-129436666D01*
X26947857Y-129484285D01*
X27138333Y-129531904D01*
X27376428Y-129531904D01*
X27566904Y-129484285D01*
X27662142Y-129436666D01*
X27709761Y-129389047D01*
X27757380Y-129293809D01*
X27757380Y-129198571D01*
X27709761Y-129103333D01*
X27662142Y-129055714D01*
X27566904Y-129008095D01*
X27376428Y-128960476D01*
X27138333Y-128960476D01*
X26947857Y-129008095D01*
X26852619Y-129055714D01*
X26805000Y-129103333D01*
X26757380Y-129198571D01*
G04 #@! TO.C,R9*
X27757380Y-74763333D02*
X27281190Y-74430000D01*
X27757380Y-74191904D02*
X26757380Y-74191904D01*
X26757380Y-74572857D01*
X26805000Y-74668095D01*
X26852619Y-74715714D01*
X26947857Y-74763333D01*
X27090714Y-74763333D01*
X27185952Y-74715714D01*
X27233571Y-74668095D01*
X27281190Y-74572857D01*
X27281190Y-74191904D01*
X27757380Y-75239523D02*
X27757380Y-75430000D01*
X27709761Y-75525238D01*
X27662142Y-75572857D01*
X27519285Y-75668095D01*
X27328809Y-75715714D01*
X26947857Y-75715714D01*
X26852619Y-75668095D01*
X26805000Y-75620476D01*
X26757380Y-75525238D01*
X26757380Y-75334761D01*
X26805000Y-75239523D01*
X26852619Y-75191904D01*
X26947857Y-75144285D01*
X27185952Y-75144285D01*
X27281190Y-75191904D01*
X27328809Y-75239523D01*
X27376428Y-75334761D01*
X27376428Y-75525238D01*
X27328809Y-75620476D01*
X27281190Y-75668095D01*
X27185952Y-75715714D01*
G04 #@! TO.C,R8*
X44267380Y-128103333D02*
X43791190Y-127770000D01*
X44267380Y-127531904D02*
X43267380Y-127531904D01*
X43267380Y-127912857D01*
X43315000Y-128008095D01*
X43362619Y-128055714D01*
X43457857Y-128103333D01*
X43600714Y-128103333D01*
X43695952Y-128055714D01*
X43743571Y-128008095D01*
X43791190Y-127912857D01*
X43791190Y-127531904D01*
X43695952Y-128674761D02*
X43648333Y-128579523D01*
X43600714Y-128531904D01*
X43505476Y-128484285D01*
X43457857Y-128484285D01*
X43362619Y-128531904D01*
X43315000Y-128579523D01*
X43267380Y-128674761D01*
X43267380Y-128865238D01*
X43315000Y-128960476D01*
X43362619Y-129008095D01*
X43457857Y-129055714D01*
X43505476Y-129055714D01*
X43600714Y-129008095D01*
X43648333Y-128960476D01*
X43695952Y-128865238D01*
X43695952Y-128674761D01*
X43743571Y-128579523D01*
X43791190Y-128531904D01*
X43886428Y-128484285D01*
X44076904Y-128484285D01*
X44172142Y-128531904D01*
X44219761Y-128579523D01*
X44267380Y-128674761D01*
X44267380Y-128865238D01*
X44219761Y-128960476D01*
X44172142Y-129008095D01*
X44076904Y-129055714D01*
X43886428Y-129055714D01*
X43791190Y-129008095D01*
X43743571Y-128960476D01*
X43695952Y-128865238D01*
G04 #@! TO.C,R7*
X44267380Y-71864705D02*
X43791190Y-71531372D01*
X44267380Y-71293276D02*
X43267380Y-71293276D01*
X43267380Y-71674229D01*
X43315000Y-71769467D01*
X43362619Y-71817086D01*
X43457857Y-71864705D01*
X43600714Y-71864705D01*
X43695952Y-71817086D01*
X43743571Y-71769467D01*
X43791190Y-71674229D01*
X43791190Y-71293276D01*
X43267380Y-72198038D02*
X43267380Y-72864705D01*
X44267380Y-72436133D01*
G04 #@! TO.C,R6*
X35726666Y-60777380D02*
X36060000Y-60301190D01*
X36298095Y-60777380D02*
X36298095Y-59777380D01*
X35917142Y-59777380D01*
X35821904Y-59825000D01*
X35774285Y-59872619D01*
X35726666Y-59967857D01*
X35726666Y-60110714D01*
X35774285Y-60205952D01*
X35821904Y-60253571D01*
X35917142Y-60301190D01*
X36298095Y-60301190D01*
X34869523Y-59777380D02*
X35060000Y-59777380D01*
X35155238Y-59825000D01*
X35202857Y-59872619D01*
X35298095Y-60015476D01*
X35345714Y-60205952D01*
X35345714Y-60586904D01*
X35298095Y-60682142D01*
X35250476Y-60729761D01*
X35155238Y-60777380D01*
X34964761Y-60777380D01*
X34869523Y-60729761D01*
X34821904Y-60682142D01*
X34774285Y-60586904D01*
X34774285Y-60348809D01*
X34821904Y-60253571D01*
X34869523Y-60205952D01*
X34964761Y-60158333D01*
X35155238Y-60158333D01*
X35250476Y-60205952D01*
X35298095Y-60253571D01*
X35345714Y-60348809D01*
G04 #@! TO.C,R5*
X34107380Y-73493333D02*
X33631190Y-73160000D01*
X34107380Y-72921904D02*
X33107380Y-72921904D01*
X33107380Y-73302857D01*
X33155000Y-73398095D01*
X33202619Y-73445714D01*
X33297857Y-73493333D01*
X33440714Y-73493333D01*
X33535952Y-73445714D01*
X33583571Y-73398095D01*
X33631190Y-73302857D01*
X33631190Y-72921904D01*
X33107380Y-74398095D02*
X33107380Y-73921904D01*
X33583571Y-73874285D01*
X33535952Y-73921904D01*
X33488333Y-74017142D01*
X33488333Y-74255238D01*
X33535952Y-74350476D01*
X33583571Y-74398095D01*
X33678809Y-74445714D01*
X33916904Y-74445714D01*
X34012142Y-74398095D01*
X34059761Y-74350476D01*
X34107380Y-74255238D01*
X34107380Y-74017142D01*
X34059761Y-73921904D01*
X34012142Y-73874285D01*
G04 #@! TO.C,R4*
X27757380Y-59523333D02*
X27281190Y-59190000D01*
X27757380Y-58951904D02*
X26757380Y-58951904D01*
X26757380Y-59332857D01*
X26805000Y-59428095D01*
X26852619Y-59475714D01*
X26947857Y-59523333D01*
X27090714Y-59523333D01*
X27185952Y-59475714D01*
X27233571Y-59428095D01*
X27281190Y-59332857D01*
X27281190Y-58951904D01*
X27090714Y-60380476D02*
X27757380Y-60380476D01*
X26709761Y-60142380D02*
X27424047Y-59904285D01*
X27424047Y-60523333D01*
G04 #@! TO.C,R3*
X44267380Y-59523333D02*
X43791190Y-59190000D01*
X44267380Y-58951904D02*
X43267380Y-58951904D01*
X43267380Y-59332857D01*
X43315000Y-59428095D01*
X43362619Y-59475714D01*
X43457857Y-59523333D01*
X43600714Y-59523333D01*
X43695952Y-59475714D01*
X43743571Y-59428095D01*
X43791190Y-59332857D01*
X43791190Y-58951904D01*
X43267380Y-59856666D02*
X43267380Y-60475714D01*
X43648333Y-60142380D01*
X43648333Y-60285238D01*
X43695952Y-60380476D01*
X43743571Y-60428095D01*
X43838809Y-60475714D01*
X44076904Y-60475714D01*
X44172142Y-60428095D01*
X44219761Y-60380476D01*
X44267380Y-60285238D01*
X44267380Y-59999523D01*
X44219761Y-59904285D01*
X44172142Y-59856666D01*
G04 #@! TO.C,R2*
X34742380Y-126833333D02*
X34266190Y-126500000D01*
X34742380Y-126261904D02*
X33742380Y-126261904D01*
X33742380Y-126642857D01*
X33790000Y-126738095D01*
X33837619Y-126785714D01*
X33932857Y-126833333D01*
X34075714Y-126833333D01*
X34170952Y-126785714D01*
X34218571Y-126738095D01*
X34266190Y-126642857D01*
X34266190Y-126261904D01*
X33837619Y-127214285D02*
X33790000Y-127261904D01*
X33742380Y-127357142D01*
X33742380Y-127595238D01*
X33790000Y-127690476D01*
X33837619Y-127738095D01*
X33932857Y-127785714D01*
X34028095Y-127785714D01*
X34170952Y-127738095D01*
X34742380Y-127166666D01*
X34742380Y-127785714D01*
G04 #@! TO.C,R1*
X37917380Y-73493333D02*
X37441190Y-73160000D01*
X37917380Y-72921904D02*
X36917380Y-72921904D01*
X36917380Y-73302857D01*
X36965000Y-73398095D01*
X37012619Y-73445714D01*
X37107857Y-73493333D01*
X37250714Y-73493333D01*
X37345952Y-73445714D01*
X37393571Y-73398095D01*
X37441190Y-73302857D01*
X37441190Y-72921904D01*
X37917380Y-74445714D02*
X37917380Y-73874285D01*
X37917380Y-74160000D02*
X36917380Y-74160000D01*
X37060238Y-74064761D01*
X37155476Y-73969523D01*
X37203095Y-73874285D01*
G04 #@! TO.C,D2*
X27758192Y-110003116D02*
X26758192Y-110003116D01*
X26758192Y-110241212D01*
X26805812Y-110384069D01*
X26901050Y-110479307D01*
X26996288Y-110526926D01*
X27186764Y-110574545D01*
X27329621Y-110574545D01*
X27520097Y-110526926D01*
X27615335Y-110479307D01*
X27710573Y-110384069D01*
X27758192Y-110241212D01*
X27758192Y-110003116D01*
X26853431Y-110955497D02*
X26805812Y-111003116D01*
X26758192Y-111098354D01*
X26758192Y-111336450D01*
X26805812Y-111431688D01*
X26853431Y-111479307D01*
X26948669Y-111526926D01*
X27043907Y-111526926D01*
X27186764Y-111479307D01*
X27758192Y-110907878D01*
X27758192Y-111526926D01*
X29857380Y-115943095D02*
X28857380Y-115943095D01*
X29857380Y-116514523D02*
X29285952Y-116085952D01*
X28857380Y-116514523D02*
X29428809Y-115943095D01*
G04 #@! TO.C,D1*
X44276347Y-110756387D02*
X43276347Y-110756387D01*
X43276347Y-110994483D01*
X43323967Y-111137340D01*
X43419205Y-111232578D01*
X43514443Y-111280197D01*
X43704919Y-111327816D01*
X43847776Y-111327816D01*
X44038252Y-111280197D01*
X44133490Y-111232578D01*
X44228728Y-111137340D01*
X44276347Y-110994483D01*
X44276347Y-110756387D01*
X44276347Y-112280197D02*
X44276347Y-111708768D01*
X44276347Y-111994483D02*
X43276347Y-111994483D01*
X43419205Y-111899244D01*
X43514443Y-111804006D01*
X43562062Y-111708768D01*
X42167380Y-105783095D02*
X41167380Y-105783095D01*
X42167380Y-106354523D02*
X41595952Y-105925952D01*
X41167380Y-106354523D02*
X41738809Y-105783095D01*
G04 #@! TO.C,C2*
X31341666Y-90527142D02*
X31389285Y-90574761D01*
X31532142Y-90622380D01*
X31627380Y-90622380D01*
X31770238Y-90574761D01*
X31865476Y-90479523D01*
X31913095Y-90384285D01*
X31960714Y-90193809D01*
X31960714Y-90050952D01*
X31913095Y-89860476D01*
X31865476Y-89765238D01*
X31770238Y-89670000D01*
X31627380Y-89622380D01*
X31532142Y-89622380D01*
X31389285Y-89670000D01*
X31341666Y-89717619D01*
X30960714Y-89717619D02*
X30913095Y-89670000D01*
X30817857Y-89622380D01*
X30579761Y-89622380D01*
X30484523Y-89670000D01*
X30436904Y-89717619D01*
X30389285Y-89812857D01*
X30389285Y-89908095D01*
X30436904Y-90050952D01*
X31008333Y-90622380D01*
X30389285Y-90622380D01*
G04 #@! TO.C,C1*
X40171666Y-93067142D02*
X40219285Y-93114761D01*
X40362142Y-93162380D01*
X40457380Y-93162380D01*
X40600238Y-93114761D01*
X40695476Y-93019523D01*
X40743095Y-92924285D01*
X40790714Y-92733809D01*
X40790714Y-92590952D01*
X40743095Y-92400476D01*
X40695476Y-92305238D01*
X40600238Y-92210000D01*
X40457380Y-92162380D01*
X40362142Y-92162380D01*
X40219285Y-92210000D01*
X40171666Y-92257619D01*
X39219285Y-93162380D02*
X39790714Y-93162380D01*
X39505000Y-93162380D02*
X39505000Y-92162380D01*
X39600238Y-92305238D01*
X39695476Y-92400476D01*
X39790714Y-92448095D01*
G04 #@! TO.C,J1*
X43517619Y-101298333D02*
X42803333Y-101298333D01*
X42660476Y-101345952D01*
X42565238Y-101441190D01*
X42517619Y-101584047D01*
X42517619Y-101679285D01*
X42517619Y-100298333D02*
X42517619Y-100869761D01*
X42517619Y-100584047D02*
X43517619Y-100584047D01*
X43374761Y-100679285D01*
X43279523Y-100774523D01*
X43231904Y-100869761D01*
G04 #@! TD*
M02*
