G04 #@! TF.GenerationSoftware,KiCad,Pcbnew,5.1.7-1.fc31*
G04 #@! TF.CreationDate,2021-04-18T18:46:58-04:00*
G04 #@! TF.ProjectId,offsetAttenuverter,6f666673-6574-4417-9474-656e75766572,rev?*
G04 #@! TF.SameCoordinates,Original*
G04 #@! TF.FileFunction,Copper,L2,Bot*
G04 #@! TF.FilePolarity,Positive*
%FSLAX46Y46*%
G04 Gerber Fmt 4.6, Leading zero omitted, Abs format (unit mm)*
G04 Created by KiCad (PCBNEW 5.1.7-1.fc31) date 2021-04-18 18:46:58*
%MOMM*%
%LPD*%
G01*
G04 APERTURE LIST*
G04 #@! TA.AperFunction,ComponentPad*
%ADD10C,2.130000*%
G04 #@! TD*
G04 #@! TA.AperFunction,ComponentPad*
%ADD11R,1.930000X1.830000*%
G04 #@! TD*
G04 #@! TA.AperFunction,ComponentPad*
%ADD12O,1.600000X1.600000*%
G04 #@! TD*
G04 #@! TA.AperFunction,ComponentPad*
%ADD13R,1.600000X1.600000*%
G04 #@! TD*
G04 #@! TA.AperFunction,ComponentPad*
%ADD14O,2.720000X3.240000*%
G04 #@! TD*
G04 #@! TA.AperFunction,ComponentPad*
%ADD15C,1.800000*%
G04 #@! TD*
G04 #@! TA.AperFunction,ComponentPad*
%ADD16R,1.800000X1.800000*%
G04 #@! TD*
G04 #@! TA.AperFunction,ComponentPad*
%ADD17C,1.600000*%
G04 #@! TD*
G04 #@! TA.AperFunction,ComponentPad*
%ADD18O,2.200000X2.200000*%
G04 #@! TD*
G04 #@! TA.AperFunction,ComponentPad*
%ADD19R,2.200000X2.200000*%
G04 #@! TD*
G04 #@! TA.AperFunction,ComponentPad*
%ADD20R,1.700000X1.700000*%
G04 #@! TD*
G04 #@! TA.AperFunction,ComponentPad*
%ADD21O,1.700000X1.700000*%
G04 #@! TD*
G04 #@! TA.AperFunction,ViaPad*
%ADD22C,0.800000*%
G04 #@! TD*
G04 #@! TA.AperFunction,Conductor*
%ADD23C,0.250000*%
G04 #@! TD*
G04 #@! TA.AperFunction,Conductor*
%ADD24C,0.254000*%
G04 #@! TD*
G04 #@! TA.AperFunction,Conductor*
%ADD25C,0.100000*%
G04 #@! TD*
G04 APERTURE END LIST*
D10*
G04 #@! TO.P,J2,T*
G04 #@! TO.N,Net-(J2-PadT)*
X40640000Y-150465000D03*
D11*
G04 #@! TO.P,J2,S*
G04 #@! TO.N,GND*
X40640000Y-139065000D03*
D10*
G04 #@! TO.P,J2,TN*
G04 #@! TO.N,N/C*
X40640000Y-142165000D03*
G04 #@! TD*
D12*
G04 #@! TO.P,U1,14*
G04 #@! TO.N,Net-(R12-Pad1)*
X27940000Y-52070000D03*
G04 #@! TO.P,U1,7*
G04 #@! TO.N,Net-(R11-Pad1)*
X43180000Y-44450000D03*
G04 #@! TO.P,U1,13*
G04 #@! TO.N,Net-(ATTN2-Pad3)*
X30480000Y-52070000D03*
G04 #@! TO.P,U1,6*
G04 #@! TO.N,Net-(ATTN1-Pad3)*
X40640000Y-44450000D03*
G04 #@! TO.P,U1,12*
G04 #@! TO.N,Net-(OFFSET2-Pad2)*
X33020000Y-52070000D03*
G04 #@! TO.P,U1,5*
G04 #@! TO.N,Net-(OFFSET1-Pad2)*
X38100000Y-44450000D03*
G04 #@! TO.P,U1,11*
G04 #@! TO.N,-12V*
X35560000Y-52070000D03*
G04 #@! TO.P,U1,4*
G04 #@! TO.N,+12V*
X35560000Y-44450000D03*
G04 #@! TO.P,U1,10*
G04 #@! TO.N,GND*
X38100000Y-52070000D03*
G04 #@! TO.P,U1,3*
X33020000Y-44450000D03*
G04 #@! TO.P,U1,9*
G04 #@! TO.N,Net-(ATTN2-Pad1)*
X40640000Y-52070000D03*
G04 #@! TO.P,U1,2*
G04 #@! TO.N,Net-(ATTN1-Pad1)*
X30480000Y-44450000D03*
G04 #@! TO.P,U1,8*
G04 #@! TO.N,Net-(R3-Pad1)*
X43180000Y-52070000D03*
D13*
G04 #@! TO.P,U1,1*
G04 #@! TO.N,Net-(R4-Pad1)*
X27940000Y-44450000D03*
G04 #@! TD*
D14*
G04 #@! TO.P,OFFSET1,*
G04 #@! TO.N,*
X30720000Y-73780000D03*
X40320000Y-73780000D03*
D15*
G04 #@! TO.P,OFFSET1,3*
G04 #@! TO.N,Net-(OFFSET1-Pad3)*
X38020000Y-81280000D03*
G04 #@! TO.P,OFFSET1,2*
G04 #@! TO.N,Net-(OFFSET1-Pad2)*
X35520000Y-81280000D03*
D16*
G04 #@! TO.P,OFFSET1,1*
G04 #@! TO.N,Net-(OFFSET1-Pad1)*
X33020000Y-81280000D03*
G04 #@! TD*
D12*
G04 #@! TO.P,R14,2*
G04 #@! TO.N,Net-(R12-Pad1)*
X37465000Y-121920000D03*
D17*
G04 #@! TO.P,R14,1*
G04 #@! TO.N,Net-(J2-PadT)*
X37465000Y-132080000D03*
G04 #@! TD*
D12*
G04 #@! TO.P,R13,2*
G04 #@! TO.N,Net-(R11-Pad1)*
X43815000Y-79375000D03*
D17*
G04 #@! TO.P,R13,1*
G04 #@! TO.N,Net-(OUT1-PadT)*
X43815000Y-89535000D03*
G04 #@! TD*
D12*
G04 #@! TO.P,R12,2*
G04 #@! TO.N,Net-(ATTN2-Pad3)*
X40640000Y-119380000D03*
D17*
G04 #@! TO.P,R12,1*
G04 #@! TO.N,Net-(R12-Pad1)*
X30480000Y-119380000D03*
G04 #@! TD*
D12*
G04 #@! TO.P,R11,2*
G04 #@! TO.N,Net-(ATTN1-Pad3)*
X41275000Y-66675000D03*
D17*
G04 #@! TO.P,R11,1*
G04 #@! TO.N,Net-(R11-Pad1)*
X31115000Y-66675000D03*
G04 #@! TD*
D12*
G04 #@! TO.P,R10,2*
G04 #@! TO.N,Net-(OFFSET2-Pad1)*
X27305000Y-133350000D03*
D17*
G04 #@! TO.P,R10,1*
G04 #@! TO.N,-12V*
X27305000Y-123190000D03*
G04 #@! TD*
D12*
G04 #@! TO.P,R9,2*
G04 #@! TO.N,Net-(OFFSET1-Pad1)*
X27305000Y-80010000D03*
D17*
G04 #@! TO.P,R9,1*
G04 #@! TO.N,-12V*
X27305000Y-69850000D03*
G04 #@! TD*
D12*
G04 #@! TO.P,R8,2*
G04 #@! TO.N,+12V*
X43815000Y-123190000D03*
D17*
G04 #@! TO.P,R8,1*
G04 #@! TO.N,Net-(OFFSET2-Pad3)*
X43815000Y-133350000D03*
G04 #@! TD*
D12*
G04 #@! TO.P,R7,2*
G04 #@! TO.N,+12V*
X43832847Y-66951372D03*
D17*
G04 #@! TO.P,R7,1*
G04 #@! TO.N,Net-(OFFSET1-Pad3)*
X43832847Y-77111372D03*
G04 #@! TD*
D12*
G04 #@! TO.P,R6,2*
G04 #@! TO.N,Net-(R3-Pad1)*
X40640000Y-60325000D03*
D17*
G04 #@! TO.P,R6,1*
G04 #@! TO.N,Net-(ATTN2-Pad3)*
X30480000Y-60325000D03*
G04 #@! TD*
D12*
G04 #@! TO.P,R5,2*
G04 #@! TO.N,Net-(R4-Pad1)*
X33655000Y-68580000D03*
D17*
G04 #@! TO.P,R5,1*
G04 #@! TO.N,Net-(ATTN1-Pad3)*
X33655000Y-78740000D03*
G04 #@! TD*
D12*
G04 #@! TO.P,R4,2*
G04 #@! TO.N,Net-(ATTN1-Pad1)*
X27305000Y-64770000D03*
D17*
G04 #@! TO.P,R4,1*
G04 #@! TO.N,Net-(R4-Pad1)*
X27305000Y-54610000D03*
G04 #@! TD*
D12*
G04 #@! TO.P,R3,2*
G04 #@! TO.N,Net-(ATTN2-Pad1)*
X43815000Y-64770000D03*
D17*
G04 #@! TO.P,R3,1*
G04 #@! TO.N,Net-(R3-Pad1)*
X43815000Y-54610000D03*
G04 #@! TD*
D12*
G04 #@! TO.P,R2,2*
G04 #@! TO.N,Net-(IN2-PadT)*
X34290000Y-132080000D03*
D17*
G04 #@! TO.P,R2,1*
G04 #@! TO.N,Net-(ATTN2-Pad2)*
X34290000Y-121920000D03*
G04 #@! TD*
D12*
G04 #@! TO.P,R1,2*
G04 #@! TO.N,Net-(IN1-PadT)*
X37465000Y-78740000D03*
D17*
G04 #@! TO.P,R1,1*
G04 #@! TO.N,Net-(ATTN1-Pad2)*
X37465000Y-68580000D03*
G04 #@! TD*
D10*
G04 #@! TO.P,OUT1,T*
G04 #@! TO.N,Net-(OUT1-PadT)*
X40601556Y-95736448D03*
D11*
G04 #@! TO.P,OUT1,S*
G04 #@! TO.N,GND*
X40601556Y-84336448D03*
D10*
G04 #@! TO.P,OUT1,TN*
G04 #@! TO.N,N/C*
X40601556Y-87436448D03*
G04 #@! TD*
D14*
G04 #@! TO.P,OFFSET2,*
G04 #@! TO.N,*
X30720000Y-127120000D03*
X40320000Y-127120000D03*
D15*
G04 #@! TO.P,OFFSET2,3*
G04 #@! TO.N,Net-(OFFSET2-Pad3)*
X38020000Y-134620000D03*
G04 #@! TO.P,OFFSET2,2*
G04 #@! TO.N,Net-(OFFSET2-Pad2)*
X35520000Y-134620000D03*
D16*
G04 #@! TO.P,OFFSET2,1*
G04 #@! TO.N,Net-(OFFSET2-Pad1)*
X33020000Y-134620000D03*
G04 #@! TD*
D10*
G04 #@! TO.P,IN2,T*
G04 #@! TO.N,Net-(IN2-PadT)*
X30480000Y-150465000D03*
D11*
G04 #@! TO.P,IN2,S*
G04 #@! TO.N,GND*
X30480000Y-139065000D03*
D10*
G04 #@! TO.P,IN2,TN*
G04 #@! TO.N,N/C*
X30480000Y-142165000D03*
G04 #@! TD*
G04 #@! TO.P,IN1,T*
G04 #@! TO.N,Net-(IN1-PadT)*
X30482520Y-95739119D03*
D11*
G04 #@! TO.P,IN1,S*
G04 #@! TO.N,GND*
X30482520Y-84339119D03*
D10*
G04 #@! TO.P,IN1,TN*
G04 #@! TO.N,N/C*
X30482520Y-87439119D03*
G04 #@! TD*
D18*
G04 #@! TO.P,D2,2*
G04 #@! TO.N,-12V*
X27305000Y-106045000D03*
D19*
G04 #@! TO.P,D2,1*
G04 #@! TO.N,GND*
X27305000Y-116205000D03*
G04 #@! TD*
D18*
G04 #@! TO.P,D1,2*
G04 #@! TO.N,GND*
X43815000Y-116205000D03*
D19*
G04 #@! TO.P,D1,1*
G04 #@! TO.N,+12V*
X43815000Y-106045000D03*
G04 #@! TD*
D12*
G04 #@! TO.P,C2,2*
G04 #@! TO.N,-12V*
X27425000Y-90170000D03*
D17*
G04 #@! TO.P,C2,1*
G04 #@! TO.N,GND*
X34925000Y-90170000D03*
G04 #@! TD*
D12*
G04 #@! TO.P,C1,2*
G04 #@! TO.N,GND*
X36315000Y-92710000D03*
D17*
G04 #@! TO.P,C1,1*
G04 #@! TO.N,+12V*
X43815000Y-92710000D03*
G04 #@! TD*
D14*
G04 #@! TO.P,ATTN2,*
G04 #@! TO.N,*
X30720000Y-109340000D03*
X40320000Y-109340000D03*
D15*
G04 #@! TO.P,ATTN2,3*
G04 #@! TO.N,Net-(ATTN2-Pad3)*
X38020000Y-116840000D03*
G04 #@! TO.P,ATTN2,2*
G04 #@! TO.N,Net-(ATTN2-Pad2)*
X35520000Y-116840000D03*
D16*
G04 #@! TO.P,ATTN2,1*
G04 #@! TO.N,Net-(ATTN2-Pad1)*
X33020000Y-116840000D03*
G04 #@! TD*
D14*
G04 #@! TO.P,ATTN1,*
G04 #@! TO.N,*
X30720000Y-56000000D03*
X40320000Y-56000000D03*
D15*
G04 #@! TO.P,ATTN1,3*
G04 #@! TO.N,Net-(ATTN1-Pad3)*
X38020000Y-63500000D03*
G04 #@! TO.P,ATTN1,2*
G04 #@! TO.N,Net-(ATTN1-Pad2)*
X35520000Y-63500000D03*
D16*
G04 #@! TO.P,ATTN1,1*
G04 #@! TO.N,Net-(ATTN1-Pad1)*
X33020000Y-63500000D03*
G04 #@! TD*
D20*
G04 #@! TO.P,J1,1*
G04 #@! TO.N,+12V*
X40640000Y-102235000D03*
D21*
G04 #@! TO.P,J1,2*
X40640000Y-99695000D03*
G04 #@! TO.P,J1,3*
G04 #@! TO.N,GND*
X38100000Y-102235000D03*
G04 #@! TO.P,J1,4*
X38100000Y-99695000D03*
G04 #@! TO.P,J1,5*
X35560000Y-102235000D03*
G04 #@! TO.P,J1,6*
X35560000Y-99695000D03*
G04 #@! TO.P,J1,7*
X33020000Y-102235000D03*
G04 #@! TO.P,J1,8*
X33020000Y-99695000D03*
G04 #@! TO.P,J1,9*
G04 #@! TO.N,-12V*
X30480000Y-102235000D03*
G04 #@! TO.P,J1,10*
X30480000Y-99695000D03*
G04 #@! TD*
D22*
G04 #@! TO.N,Net-(ATTN2-Pad3)*
X35560000Y-65405000D03*
X33020000Y-96520000D03*
G04 #@! TO.N,Net-(R12-Pad1)*
X38735000Y-65405000D03*
G04 #@! TD*
D23*
G04 #@! TO.N,Net-(ATTN1-Pad3)*
X32523630Y-78740000D02*
X33655000Y-78740000D01*
X29034990Y-75251360D02*
X32523630Y-78740000D01*
X32529999Y-65549999D02*
X30574999Y-65549999D01*
X41275000Y-66675000D02*
X33655000Y-66675000D01*
X33655000Y-66675000D02*
X32529999Y-65549999D01*
X29034990Y-67090008D02*
X29034990Y-75251360D01*
X30574999Y-65549999D02*
X29034990Y-67090008D01*
G04 #@! TO.N,Net-(ATTN1-Pad2)*
X41035002Y-68580000D02*
X37465000Y-68580000D01*
X42400001Y-67215001D02*
X41035002Y-68580000D01*
X42400001Y-66134999D02*
X42400001Y-67215001D01*
X41815001Y-65549999D02*
X42400001Y-66134999D01*
X35520000Y-63500000D02*
X37569999Y-65549999D01*
X41815001Y-65549999D02*
X39860001Y-65549999D01*
X39279999Y-66130001D02*
X38150001Y-66130001D01*
X38150001Y-66130001D02*
X37569999Y-65549999D01*
X39860001Y-65549999D02*
X39279999Y-66130001D01*
G04 #@! TO.N,Net-(ATTN1-Pad1)*
X31750000Y-64770000D02*
X33020000Y-63500000D01*
X27305000Y-64770000D02*
X31750000Y-64770000D01*
G04 #@! TO.N,Net-(ATTN2-Pad3)*
X34294999Y-62389997D02*
X34294999Y-64774999D01*
X30480000Y-60325000D02*
X32230002Y-60325000D01*
X32230002Y-60325000D02*
X34294999Y-62389997D01*
X34294999Y-64774999D02*
X34925000Y-65405000D01*
X34925000Y-65405000D02*
X35560000Y-65405000D01*
X35560000Y-65405000D02*
X35560000Y-65405000D01*
X34290000Y-96520000D02*
X36830000Y-99060000D01*
X33020000Y-96520000D02*
X34290000Y-96520000D01*
X36830000Y-115650000D02*
X38020000Y-116840000D01*
X36830000Y-99060000D02*
X36830000Y-115650000D01*
G04 #@! TO.N,GND*
X33020000Y-46990000D02*
X38100000Y-52070000D01*
X33020000Y-44450000D02*
X33020000Y-46990000D01*
G04 #@! TO.N,+12V*
X44940001Y-65844218D02*
X43832847Y-66951372D01*
X42054999Y-61104999D02*
X44940001Y-63990001D01*
X44940001Y-63990001D02*
X44940001Y-65844218D01*
X42054999Y-50944999D02*
X42054999Y-61104999D01*
X35560000Y-44450000D02*
X42054999Y-50944999D01*
G04 #@! TO.N,-12V*
X26179999Y-68724999D02*
X27305000Y-69850000D01*
X35560000Y-52070000D02*
X35560000Y-55245000D01*
X27940000Y-59055000D02*
X26179999Y-60815001D01*
X35560000Y-55245000D02*
X31750000Y-59055000D01*
X31750000Y-59055000D02*
X27940000Y-59055000D01*
X26179999Y-60815001D02*
X26179999Y-68724999D01*
G04 #@! TO.N,Net-(IN1-PadT)*
X30482520Y-92947478D02*
X30482520Y-95739119D01*
X31872521Y-91557477D02*
X31872521Y-86872479D01*
X30482520Y-92947478D02*
X31872521Y-91557477D01*
X34290000Y-80696998D02*
X36246998Y-78740000D01*
X34290000Y-84455000D02*
X34290000Y-80696998D01*
X36246998Y-78740000D02*
X37465000Y-78740000D01*
X31872521Y-86872479D02*
X34290000Y-84455000D01*
G04 #@! TO.N,Net-(OUT1-PadT)*
X40601556Y-92748444D02*
X43815000Y-89535000D01*
X40601556Y-95736448D02*
X40601556Y-92748444D01*
G04 #@! TO.N,Net-(R11-Pad1)*
X42683630Y-79375000D02*
X43815000Y-79375000D01*
X31115000Y-67806370D02*
X42683630Y-79375000D01*
X31115000Y-66675000D02*
X31115000Y-67806370D01*
G04 #@! TO.N,Net-(R12-Pad1)*
X34925000Y-119380000D02*
X37465000Y-121920000D01*
X30480000Y-119380000D02*
X34925000Y-119380000D01*
X38735000Y-65405000D02*
X40005000Y-64135000D01*
X29065001Y-50944999D02*
X27940000Y-52070000D01*
X36830000Y-51674998D02*
X36100001Y-50944999D01*
X36830000Y-60496998D02*
X36830000Y-51674998D01*
X40005000Y-63671998D02*
X36830000Y-60496998D01*
X36100001Y-50944999D02*
X29065001Y-50944999D01*
X40005000Y-64135000D02*
X40005000Y-63671998D01*
G04 #@! TO.N,Net-(OFFSET1-Pad3)*
X38020000Y-81280000D02*
X43815000Y-81280000D01*
X44940001Y-78218526D02*
X43832847Y-77111372D01*
X44940001Y-80154999D02*
X44940001Y-78218526D01*
X43815000Y-81280000D02*
X44940001Y-80154999D01*
G04 #@! TO.N,Net-(OFFSET1-Pad1)*
X28575000Y-81280000D02*
X27305000Y-80010000D01*
X33020000Y-81280000D02*
X28575000Y-81280000D01*
G04 #@! TD*
D24*
G04 #@! TO.N,GND*
X26190363Y-80924759D02*
X26390241Y-81124637D01*
X26625273Y-81281680D01*
X26886426Y-81389853D01*
X27163665Y-81445000D01*
X27446335Y-81445000D01*
X27628886Y-81408688D01*
X28011201Y-81791003D01*
X28034999Y-81820001D01*
X28150724Y-81914974D01*
X28282753Y-81985546D01*
X28426014Y-82029003D01*
X28537667Y-82040000D01*
X28537676Y-82040000D01*
X28574999Y-82043676D01*
X28612322Y-82040000D01*
X31481928Y-82040000D01*
X31481928Y-82180000D01*
X31494188Y-82304482D01*
X31530498Y-82424180D01*
X31589463Y-82534494D01*
X31668815Y-82631185D01*
X31765506Y-82710537D01*
X31875820Y-82769502D01*
X31995518Y-82805812D01*
X32120000Y-82818072D01*
X33530000Y-82818072D01*
X33530000Y-84140198D01*
X31557425Y-86112774D01*
X31287772Y-85932598D01*
X31187380Y-85891014D01*
X31447520Y-85892191D01*
X31572002Y-85879931D01*
X31691700Y-85843621D01*
X31802014Y-85784656D01*
X31898705Y-85705304D01*
X31978057Y-85608613D01*
X32037022Y-85498299D01*
X32073332Y-85378601D01*
X32085592Y-85254119D01*
X32082520Y-84624869D01*
X31923770Y-84466119D01*
X30609520Y-84466119D01*
X30609520Y-84486119D01*
X30355520Y-84486119D01*
X30355520Y-84466119D01*
X29041270Y-84466119D01*
X28882520Y-84624869D01*
X28879448Y-85254119D01*
X28891708Y-85378601D01*
X28928018Y-85498299D01*
X28986983Y-85608613D01*
X29066335Y-85705304D01*
X29163026Y-85784656D01*
X29273340Y-85843621D01*
X29393038Y-85879931D01*
X29517520Y-85892191D01*
X29777660Y-85891014D01*
X29677268Y-85932598D01*
X29398833Y-86118642D01*
X29162043Y-86355432D01*
X28975999Y-86633867D01*
X28847850Y-86943247D01*
X28782520Y-87271684D01*
X28782520Y-87606554D01*
X28847850Y-87934991D01*
X28975999Y-88244371D01*
X29162043Y-88522806D01*
X29398833Y-88759596D01*
X29677268Y-88945640D01*
X29986648Y-89073789D01*
X30315085Y-89139119D01*
X30649955Y-89139119D01*
X30978392Y-89073789D01*
X31112522Y-89018231D01*
X31112521Y-91242675D01*
X29971523Y-92383674D01*
X29942519Y-92407477D01*
X29902536Y-92456197D01*
X29847546Y-92523202D01*
X29776975Y-92655231D01*
X29776974Y-92655232D01*
X29733517Y-92798493D01*
X29722520Y-92910146D01*
X29722520Y-92910156D01*
X29718844Y-92947478D01*
X29722520Y-92984801D01*
X29722520Y-94213854D01*
X29677268Y-94232598D01*
X29398833Y-94418642D01*
X29162043Y-94655432D01*
X28975999Y-94933867D01*
X28847850Y-95243247D01*
X28782520Y-95571684D01*
X28782520Y-95906554D01*
X28847850Y-96234991D01*
X28975999Y-96544371D01*
X29162043Y-96822806D01*
X29398833Y-97059596D01*
X29677268Y-97245640D01*
X29986648Y-97373789D01*
X30315085Y-97439119D01*
X30649955Y-97439119D01*
X30978392Y-97373789D01*
X31287772Y-97245640D01*
X31566207Y-97059596D01*
X31802997Y-96822806D01*
X31985000Y-96550419D01*
X31985000Y-96621939D01*
X32024774Y-96821898D01*
X32102795Y-97010256D01*
X32216063Y-97179774D01*
X32360226Y-97323937D01*
X32529744Y-97437205D01*
X32718102Y-97515226D01*
X32918061Y-97555000D01*
X33121939Y-97555000D01*
X33321898Y-97515226D01*
X33510256Y-97437205D01*
X33679774Y-97323937D01*
X33723711Y-97280000D01*
X33975199Y-97280000D01*
X35013547Y-98318349D01*
X34793080Y-98423359D01*
X34559731Y-98597412D01*
X34364822Y-98813645D01*
X34290000Y-98939255D01*
X34215178Y-98813645D01*
X34020269Y-98597412D01*
X33786920Y-98423359D01*
X33524099Y-98298175D01*
X33376890Y-98253524D01*
X33147000Y-98374845D01*
X33147000Y-99568000D01*
X35433000Y-99568000D01*
X35433000Y-99548000D01*
X35687000Y-99548000D01*
X35687000Y-99568000D01*
X35707000Y-99568000D01*
X35707000Y-99822000D01*
X35687000Y-99822000D01*
X35687000Y-102108000D01*
X35707000Y-102108000D01*
X35707000Y-102362000D01*
X35687000Y-102362000D01*
X35687000Y-103555155D01*
X35916890Y-103676476D01*
X36064099Y-103631825D01*
X36070000Y-103629014D01*
X36070001Y-115406346D01*
X35967743Y-115363989D01*
X35671184Y-115305000D01*
X35368816Y-115305000D01*
X35072257Y-115363989D01*
X34792905Y-115479701D01*
X34541495Y-115647688D01*
X34503880Y-115685303D01*
X34450537Y-115585506D01*
X34371185Y-115488815D01*
X34274494Y-115409463D01*
X34164180Y-115350498D01*
X34044482Y-115314188D01*
X33920000Y-115301928D01*
X32120000Y-115301928D01*
X31995518Y-115314188D01*
X31875820Y-115350498D01*
X31765506Y-115409463D01*
X31668815Y-115488815D01*
X31589463Y-115585506D01*
X31530498Y-115695820D01*
X31494188Y-115815518D01*
X31481928Y-115940000D01*
X31481928Y-117740000D01*
X31494188Y-117864482D01*
X31530498Y-117984180D01*
X31589463Y-118094494D01*
X31668815Y-118191185D01*
X31765506Y-118270537D01*
X31875820Y-118329502D01*
X31995518Y-118365812D01*
X32120000Y-118378072D01*
X33920000Y-118378072D01*
X34044482Y-118365812D01*
X34164180Y-118329502D01*
X34274494Y-118270537D01*
X34371185Y-118191185D01*
X34450537Y-118094494D01*
X34503880Y-117994697D01*
X34541495Y-118032312D01*
X34792905Y-118200299D01*
X35072257Y-118316011D01*
X35368816Y-118375000D01*
X35671184Y-118375000D01*
X35967743Y-118316011D01*
X36247095Y-118200299D01*
X36498505Y-118032312D01*
X36712312Y-117818505D01*
X36770000Y-117732169D01*
X36827688Y-117818505D01*
X37041495Y-118032312D01*
X37292905Y-118200299D01*
X37572257Y-118316011D01*
X37868816Y-118375000D01*
X38171184Y-118375000D01*
X38467743Y-118316011D01*
X38747095Y-118200299D01*
X38998505Y-118032312D01*
X39212312Y-117818505D01*
X39380299Y-117567095D01*
X39496011Y-117287743D01*
X39555000Y-116991184D01*
X39555000Y-116688816D01*
X39537557Y-116601123D01*
X42125821Y-116601123D01*
X42235558Y-116923054D01*
X42405992Y-117217391D01*
X42630573Y-117472822D01*
X42900671Y-117679531D01*
X43205906Y-117829575D01*
X43418878Y-117894175D01*
X43688000Y-117776125D01*
X43688000Y-116332000D01*
X42243400Y-116332000D01*
X42125821Y-116601123D01*
X39537557Y-116601123D01*
X39496011Y-116392257D01*
X39380299Y-116112905D01*
X39212312Y-115861495D01*
X39159694Y-115808877D01*
X42125821Y-115808877D01*
X42243400Y-116078000D01*
X43688000Y-116078000D01*
X43688000Y-114633875D01*
X43418878Y-114515825D01*
X43205906Y-114580425D01*
X42900671Y-114730469D01*
X42630573Y-114937178D01*
X42405992Y-115192609D01*
X42235558Y-115486946D01*
X42125821Y-115808877D01*
X39159694Y-115808877D01*
X38998505Y-115647688D01*
X38747095Y-115479701D01*
X38467743Y-115363989D01*
X38171184Y-115305000D01*
X37868816Y-115305000D01*
X37611070Y-115356269D01*
X37590000Y-115335199D01*
X37590000Y-108982002D01*
X38325000Y-108982002D01*
X38325000Y-109697997D01*
X38353867Y-109991087D01*
X38467943Y-110367146D01*
X38653193Y-110713725D01*
X38902497Y-111017503D01*
X39206275Y-111266807D01*
X39552853Y-111452057D01*
X39928912Y-111566133D01*
X40320000Y-111604652D01*
X40711087Y-111566133D01*
X41087146Y-111452057D01*
X41433725Y-111266807D01*
X41737503Y-111017503D01*
X41986807Y-110713725D01*
X42172057Y-110367147D01*
X42286133Y-109991088D01*
X42315000Y-109697998D01*
X42315000Y-108982003D01*
X42286133Y-108688913D01*
X42172057Y-108312853D01*
X41986807Y-107966275D01*
X41737503Y-107662497D01*
X41433725Y-107413193D01*
X41087147Y-107227943D01*
X40711088Y-107113867D01*
X40320000Y-107075348D01*
X39928913Y-107113867D01*
X39552854Y-107227943D01*
X39206276Y-107413193D01*
X38902498Y-107662497D01*
X38653193Y-107966275D01*
X38467943Y-108312853D01*
X38353867Y-108688912D01*
X38325000Y-108982002D01*
X37590000Y-108982002D01*
X37590000Y-103629014D01*
X37595901Y-103631825D01*
X37743110Y-103676476D01*
X37973000Y-103555155D01*
X37973000Y-102362000D01*
X37953000Y-102362000D01*
X37953000Y-102108000D01*
X37973000Y-102108000D01*
X37973000Y-99822000D01*
X37953000Y-99822000D01*
X37953000Y-99568000D01*
X37973000Y-99568000D01*
X37973000Y-98374845D01*
X38227000Y-98374845D01*
X38227000Y-99568000D01*
X38247000Y-99568000D01*
X38247000Y-99822000D01*
X38227000Y-99822000D01*
X38227000Y-102108000D01*
X38247000Y-102108000D01*
X38247000Y-102362000D01*
X38227000Y-102362000D01*
X38227000Y-103555155D01*
X38456890Y-103676476D01*
X38604099Y-103631825D01*
X38866920Y-103506641D01*
X39100269Y-103332588D01*
X39176034Y-103248534D01*
X39200498Y-103329180D01*
X39259463Y-103439494D01*
X39338815Y-103536185D01*
X39435506Y-103615537D01*
X39545820Y-103674502D01*
X39665518Y-103710812D01*
X39790000Y-103723072D01*
X41490000Y-103723072D01*
X41614482Y-103710812D01*
X41734180Y-103674502D01*
X41844494Y-103615537D01*
X41941185Y-103536185D01*
X42020537Y-103439494D01*
X42079502Y-103329180D01*
X42115812Y-103209482D01*
X42128072Y-103085000D01*
X42128072Y-101385000D01*
X42115812Y-101260518D01*
X42079502Y-101140820D01*
X42020537Y-101030506D01*
X41941185Y-100933815D01*
X41844494Y-100854463D01*
X41734180Y-100795498D01*
X41661620Y-100773487D01*
X41793475Y-100641632D01*
X41955990Y-100398411D01*
X42067932Y-100128158D01*
X42125000Y-99841260D01*
X42125000Y-99548740D01*
X42067932Y-99261842D01*
X41955990Y-98991589D01*
X41793475Y-98748368D01*
X41586632Y-98541525D01*
X41343411Y-98379010D01*
X41073158Y-98267068D01*
X40786260Y-98210000D01*
X40493740Y-98210000D01*
X40206842Y-98267068D01*
X39936589Y-98379010D01*
X39693368Y-98541525D01*
X39486525Y-98748368D01*
X39364805Y-98930534D01*
X39295178Y-98813645D01*
X39100269Y-98597412D01*
X38866920Y-98423359D01*
X38604099Y-98298175D01*
X38456890Y-98253524D01*
X38227000Y-98374845D01*
X37973000Y-98374845D01*
X37743110Y-98253524D01*
X37595901Y-98298175D01*
X37333080Y-98423359D01*
X37295897Y-98451094D01*
X34853804Y-96009003D01*
X34830001Y-95979999D01*
X34714276Y-95885026D01*
X34582247Y-95814454D01*
X34438986Y-95770997D01*
X34327333Y-95760000D01*
X34327322Y-95760000D01*
X34290000Y-95756324D01*
X34252678Y-95760000D01*
X33723711Y-95760000D01*
X33679774Y-95716063D01*
X33510256Y-95602795D01*
X33321898Y-95524774D01*
X33121939Y-95485000D01*
X32918061Y-95485000D01*
X32718102Y-95524774D01*
X32529744Y-95602795D01*
X32360226Y-95716063D01*
X32216063Y-95860226D01*
X32181423Y-95912068D01*
X32182520Y-95906554D01*
X32182520Y-95571684D01*
X32117190Y-95243247D01*
X31989041Y-94933867D01*
X31802997Y-94655432D01*
X31566207Y-94418642D01*
X31287772Y-94232598D01*
X31242520Y-94213854D01*
X31242520Y-93262279D01*
X31445760Y-93059039D01*
X34923096Y-93059039D01*
X34963754Y-93193087D01*
X35083963Y-93447420D01*
X35251481Y-93673414D01*
X35459869Y-93862385D01*
X35701119Y-94007070D01*
X35965960Y-94101909D01*
X36188000Y-93980624D01*
X36188000Y-92837000D01*
X36442000Y-92837000D01*
X36442000Y-93980624D01*
X36664040Y-94101909D01*
X36928881Y-94007070D01*
X37170131Y-93862385D01*
X37378519Y-93673414D01*
X37546037Y-93447420D01*
X37666246Y-93193087D01*
X37706904Y-93059039D01*
X37584915Y-92837000D01*
X36442000Y-92837000D01*
X36188000Y-92837000D01*
X35045085Y-92837000D01*
X34923096Y-93059039D01*
X31445760Y-93059039D01*
X32143838Y-92360961D01*
X34923096Y-92360961D01*
X35045085Y-92583000D01*
X36188000Y-92583000D01*
X36188000Y-91439376D01*
X36442000Y-91439376D01*
X36442000Y-92583000D01*
X37584915Y-92583000D01*
X37706904Y-92360961D01*
X37666246Y-92226913D01*
X37546037Y-91972580D01*
X37378519Y-91746586D01*
X37170131Y-91557615D01*
X36928881Y-91412930D01*
X36664040Y-91318091D01*
X36442000Y-91439376D01*
X36188000Y-91439376D01*
X35965960Y-91318091D01*
X35701119Y-91412930D01*
X35459869Y-91557615D01*
X35251481Y-91746586D01*
X35083963Y-91972580D01*
X34963754Y-92226913D01*
X34923096Y-92360961D01*
X32143838Y-92360961D01*
X32383525Y-92121275D01*
X32412522Y-92097478D01*
X32507495Y-91981753D01*
X32578067Y-91849724D01*
X32621524Y-91706463D01*
X32632521Y-91594810D01*
X32632521Y-91594801D01*
X32636197Y-91557478D01*
X32632521Y-91520155D01*
X32632521Y-91162702D01*
X34111903Y-91162702D01*
X34183486Y-91406671D01*
X34438996Y-91527571D01*
X34713184Y-91596300D01*
X34995512Y-91610217D01*
X35275130Y-91568787D01*
X35541292Y-91473603D01*
X35666514Y-91406671D01*
X35738097Y-91162702D01*
X34925000Y-90349605D01*
X34111903Y-91162702D01*
X32632521Y-91162702D01*
X32632521Y-90240512D01*
X33484783Y-90240512D01*
X33526213Y-90520130D01*
X33621397Y-90786292D01*
X33688329Y-90911514D01*
X33932298Y-90983097D01*
X34745395Y-90170000D01*
X35104605Y-90170000D01*
X35917702Y-90983097D01*
X36161671Y-90911514D01*
X36282571Y-90656004D01*
X36351300Y-90381816D01*
X36365217Y-90099488D01*
X36323787Y-89819870D01*
X36228603Y-89553708D01*
X36161671Y-89428486D01*
X35917702Y-89356903D01*
X35104605Y-90170000D01*
X34745395Y-90170000D01*
X33932298Y-89356903D01*
X33688329Y-89428486D01*
X33567429Y-89683996D01*
X33498700Y-89958184D01*
X33484783Y-90240512D01*
X32632521Y-90240512D01*
X32632521Y-89177298D01*
X34111903Y-89177298D01*
X34925000Y-89990395D01*
X35738097Y-89177298D01*
X35666514Y-88933329D01*
X35411004Y-88812429D01*
X35136816Y-88743700D01*
X34854488Y-88729783D01*
X34574870Y-88771213D01*
X34308708Y-88866397D01*
X34183486Y-88933329D01*
X34111903Y-89177298D01*
X32632521Y-89177298D01*
X32632521Y-87269013D01*
X38901556Y-87269013D01*
X38901556Y-87603883D01*
X38966886Y-87932320D01*
X39095035Y-88241700D01*
X39281079Y-88520135D01*
X39517869Y-88756925D01*
X39796304Y-88942969D01*
X40105684Y-89071118D01*
X40434121Y-89136448D01*
X40768991Y-89136448D01*
X41097428Y-89071118D01*
X41406808Y-88942969D01*
X41685243Y-88756925D01*
X41922033Y-88520135D01*
X42108077Y-88241700D01*
X42236226Y-87932320D01*
X42301556Y-87603883D01*
X42301556Y-87269013D01*
X42236226Y-86940576D01*
X42108077Y-86631196D01*
X41922033Y-86352761D01*
X41685243Y-86115971D01*
X41406808Y-85929927D01*
X41306416Y-85888343D01*
X41566556Y-85889520D01*
X41691038Y-85877260D01*
X41810736Y-85840950D01*
X41921050Y-85781985D01*
X42017741Y-85702633D01*
X42097093Y-85605942D01*
X42156058Y-85495628D01*
X42192368Y-85375930D01*
X42204628Y-85251448D01*
X42201556Y-84622198D01*
X42042806Y-84463448D01*
X40728556Y-84463448D01*
X40728556Y-84483448D01*
X40474556Y-84483448D01*
X40474556Y-84463448D01*
X39160306Y-84463448D01*
X39001556Y-84622198D01*
X38998484Y-85251448D01*
X39010744Y-85375930D01*
X39047054Y-85495628D01*
X39106019Y-85605942D01*
X39185371Y-85702633D01*
X39282062Y-85781985D01*
X39392376Y-85840950D01*
X39512074Y-85877260D01*
X39636556Y-85889520D01*
X39896696Y-85888343D01*
X39796304Y-85929927D01*
X39517869Y-86115971D01*
X39281079Y-86352761D01*
X39095035Y-86631196D01*
X38966886Y-86940576D01*
X38901556Y-87269013D01*
X32632521Y-87269013D01*
X32632521Y-87187280D01*
X34801004Y-85018798D01*
X34830001Y-84995001D01*
X34924974Y-84879276D01*
X34995546Y-84747247D01*
X35039003Y-84603986D01*
X35050000Y-84492333D01*
X35050000Y-84492332D01*
X35053677Y-84455000D01*
X35050000Y-84417667D01*
X35050000Y-83421448D01*
X38998484Y-83421448D01*
X39001556Y-84050698D01*
X39160306Y-84209448D01*
X40474556Y-84209448D01*
X40474556Y-82945198D01*
X40728556Y-82945198D01*
X40728556Y-84209448D01*
X42042806Y-84209448D01*
X42201556Y-84050698D01*
X42204628Y-83421448D01*
X42192368Y-83296966D01*
X42156058Y-83177268D01*
X42097093Y-83066954D01*
X42017741Y-82970263D01*
X41921050Y-82890911D01*
X41810736Y-82831946D01*
X41691038Y-82795636D01*
X41566556Y-82783376D01*
X40887306Y-82786448D01*
X40728556Y-82945198D01*
X40474556Y-82945198D01*
X40315806Y-82786448D01*
X39636556Y-82783376D01*
X39512074Y-82795636D01*
X39392376Y-82831946D01*
X39282062Y-82890911D01*
X39185371Y-82970263D01*
X39106019Y-83066954D01*
X39047054Y-83177268D01*
X39010744Y-83296966D01*
X38998484Y-83421448D01*
X35050000Y-83421448D01*
X35050000Y-82746792D01*
X35072257Y-82756011D01*
X35368816Y-82815000D01*
X35671184Y-82815000D01*
X35967743Y-82756011D01*
X36247095Y-82640299D01*
X36498505Y-82472312D01*
X36712312Y-82258505D01*
X36770000Y-82172169D01*
X36827688Y-82258505D01*
X37041495Y-82472312D01*
X37292905Y-82640299D01*
X37572257Y-82756011D01*
X37868816Y-82815000D01*
X38171184Y-82815000D01*
X38467743Y-82756011D01*
X38747095Y-82640299D01*
X38998505Y-82472312D01*
X39212312Y-82258505D01*
X39358313Y-82040000D01*
X43777678Y-82040000D01*
X43815000Y-82043676D01*
X43852322Y-82040000D01*
X43852333Y-82040000D01*
X43963986Y-82029003D01*
X44107247Y-81985546D01*
X44239276Y-81914974D01*
X44355001Y-81820001D01*
X44378804Y-81790998D01*
X45060001Y-81109801D01*
X45060001Y-88815344D01*
X44929637Y-88620241D01*
X44729759Y-88420363D01*
X44494727Y-88263320D01*
X44233574Y-88155147D01*
X43956335Y-88100000D01*
X43673665Y-88100000D01*
X43396426Y-88155147D01*
X43135273Y-88263320D01*
X42900241Y-88420363D01*
X42700363Y-88620241D01*
X42543320Y-88855273D01*
X42435147Y-89116426D01*
X42380000Y-89393665D01*
X42380000Y-89676335D01*
X42416312Y-89858886D01*
X40090554Y-92184645D01*
X40061556Y-92208443D01*
X40037758Y-92237441D01*
X40037757Y-92237442D01*
X39966582Y-92324168D01*
X39896010Y-92456198D01*
X39875685Y-92523203D01*
X39857547Y-92583000D01*
X39852554Y-92599459D01*
X39837880Y-92748444D01*
X39841557Y-92785776D01*
X39841557Y-94211183D01*
X39796304Y-94229927D01*
X39517869Y-94415971D01*
X39281079Y-94652761D01*
X39095035Y-94931196D01*
X38966886Y-95240576D01*
X38901556Y-95569013D01*
X38901556Y-95903883D01*
X38966886Y-96232320D01*
X39095035Y-96541700D01*
X39281079Y-96820135D01*
X39517869Y-97056925D01*
X39796304Y-97242969D01*
X40105684Y-97371118D01*
X40434121Y-97436448D01*
X40768991Y-97436448D01*
X41097428Y-97371118D01*
X41406808Y-97242969D01*
X41685243Y-97056925D01*
X41922033Y-96820135D01*
X42108077Y-96541700D01*
X42236226Y-96232320D01*
X42301556Y-95903883D01*
X42301556Y-95569013D01*
X42236226Y-95240576D01*
X42108077Y-94931196D01*
X41922033Y-94652761D01*
X41685243Y-94415971D01*
X41406808Y-94229927D01*
X41361556Y-94211183D01*
X41361556Y-93063245D01*
X43491114Y-90933688D01*
X43673665Y-90970000D01*
X43956335Y-90970000D01*
X44233574Y-90914853D01*
X44494727Y-90806680D01*
X44729759Y-90649637D01*
X44929637Y-90449759D01*
X45060001Y-90254656D01*
X45060001Y-91990344D01*
X44929637Y-91795241D01*
X44729759Y-91595363D01*
X44494727Y-91438320D01*
X44233574Y-91330147D01*
X43956335Y-91275000D01*
X43673665Y-91275000D01*
X43396426Y-91330147D01*
X43135273Y-91438320D01*
X42900241Y-91595363D01*
X42700363Y-91795241D01*
X42543320Y-92030273D01*
X42435147Y-92291426D01*
X42380000Y-92568665D01*
X42380000Y-92851335D01*
X42435147Y-93128574D01*
X42543320Y-93389727D01*
X42700363Y-93624759D01*
X42900241Y-93824637D01*
X43135273Y-93981680D01*
X43396426Y-94089853D01*
X43673665Y-94145000D01*
X43956335Y-94145000D01*
X44233574Y-94089853D01*
X44494727Y-93981680D01*
X44729759Y-93824637D01*
X44929637Y-93624759D01*
X45060001Y-93429656D01*
X45060000Y-104325412D01*
X45039482Y-104319188D01*
X44915000Y-104306928D01*
X42715000Y-104306928D01*
X42590518Y-104319188D01*
X42470820Y-104355498D01*
X42360506Y-104414463D01*
X42263815Y-104493815D01*
X42184463Y-104590506D01*
X42125498Y-104700820D01*
X42089188Y-104820518D01*
X42076928Y-104945000D01*
X42076928Y-107145000D01*
X42089188Y-107269482D01*
X42125498Y-107389180D01*
X42184463Y-107499494D01*
X42263815Y-107596185D01*
X42360506Y-107675537D01*
X42470820Y-107734502D01*
X42590518Y-107770812D01*
X42715000Y-107783072D01*
X44915000Y-107783072D01*
X45039482Y-107770812D01*
X45060000Y-107764588D01*
X45060000Y-115006072D01*
X44999427Y-114937178D01*
X44729329Y-114730469D01*
X44424094Y-114580425D01*
X44211122Y-114515825D01*
X43942000Y-114633875D01*
X43942000Y-116078000D01*
X43962000Y-116078000D01*
X43962000Y-116332000D01*
X43942000Y-116332000D01*
X43942000Y-117776125D01*
X44211122Y-117894175D01*
X44424094Y-117829575D01*
X44729329Y-117679531D01*
X44999427Y-117472822D01*
X45060000Y-117403928D01*
X45060000Y-122470344D01*
X44929637Y-122275241D01*
X44729759Y-122075363D01*
X44494727Y-121918320D01*
X44233574Y-121810147D01*
X43956335Y-121755000D01*
X43673665Y-121755000D01*
X43396426Y-121810147D01*
X43135273Y-121918320D01*
X42900241Y-122075363D01*
X42700363Y-122275241D01*
X42543320Y-122510273D01*
X42435147Y-122771426D01*
X42380000Y-123048665D01*
X42380000Y-123331335D01*
X42435147Y-123608574D01*
X42543320Y-123869727D01*
X42700363Y-124104759D01*
X42900241Y-124304637D01*
X43135273Y-124461680D01*
X43396426Y-124569853D01*
X43673665Y-124625000D01*
X43956335Y-124625000D01*
X44233574Y-124569853D01*
X44494727Y-124461680D01*
X44729759Y-124304637D01*
X44929637Y-124104759D01*
X45060000Y-123909656D01*
X45060000Y-132630344D01*
X44929637Y-132435241D01*
X44729759Y-132235363D01*
X44494727Y-132078320D01*
X44233574Y-131970147D01*
X43956335Y-131915000D01*
X43673665Y-131915000D01*
X43396426Y-131970147D01*
X43135273Y-132078320D01*
X42900241Y-132235363D01*
X42700363Y-132435241D01*
X42543320Y-132670273D01*
X42435147Y-132931426D01*
X42380000Y-133208665D01*
X42380000Y-133491335D01*
X42435147Y-133768574D01*
X42543320Y-134029727D01*
X42700363Y-134264759D01*
X42900241Y-134464637D01*
X43135273Y-134621680D01*
X43396426Y-134729853D01*
X43673665Y-134785000D01*
X43956335Y-134785000D01*
X44233574Y-134729853D01*
X44494727Y-134621680D01*
X44729759Y-134464637D01*
X44929637Y-134264759D01*
X45060000Y-134069656D01*
X45060000Y-151740000D01*
X41769164Y-151740000D01*
X41960477Y-151548687D01*
X42146521Y-151270252D01*
X42274670Y-150960872D01*
X42340000Y-150632435D01*
X42340000Y-150297565D01*
X42274670Y-149969128D01*
X42146521Y-149659748D01*
X41960477Y-149381313D01*
X41723687Y-149144523D01*
X41445252Y-148958479D01*
X41135872Y-148830330D01*
X40807435Y-148765000D01*
X40472565Y-148765000D01*
X40144128Y-148830330D01*
X39834748Y-148958479D01*
X39556313Y-149144523D01*
X39319523Y-149381313D01*
X39133479Y-149659748D01*
X39005330Y-149969128D01*
X38940000Y-150297565D01*
X38940000Y-150632435D01*
X39005330Y-150960872D01*
X39133479Y-151270252D01*
X39319523Y-151548687D01*
X39510836Y-151740000D01*
X31609164Y-151740000D01*
X31800477Y-151548687D01*
X31986521Y-151270252D01*
X32114670Y-150960872D01*
X32180000Y-150632435D01*
X32180000Y-150297565D01*
X32114670Y-149969128D01*
X31986521Y-149659748D01*
X31800477Y-149381313D01*
X31563687Y-149144523D01*
X31285252Y-148958479D01*
X30975872Y-148830330D01*
X30647435Y-148765000D01*
X30312565Y-148765000D01*
X29984128Y-148830330D01*
X29674748Y-148958479D01*
X29396313Y-149144523D01*
X29159523Y-149381313D01*
X28973479Y-149659748D01*
X28845330Y-149969128D01*
X28780000Y-150297565D01*
X28780000Y-150632435D01*
X28845330Y-150960872D01*
X28973479Y-151270252D01*
X29159523Y-151548687D01*
X29350836Y-151740000D01*
X26060000Y-151740000D01*
X26060000Y-141997565D01*
X28780000Y-141997565D01*
X28780000Y-142332435D01*
X28845330Y-142660872D01*
X28973479Y-142970252D01*
X29159523Y-143248687D01*
X29396313Y-143485477D01*
X29674748Y-143671521D01*
X29984128Y-143799670D01*
X30312565Y-143865000D01*
X30647435Y-143865000D01*
X30975872Y-143799670D01*
X31285252Y-143671521D01*
X31563687Y-143485477D01*
X31800477Y-143248687D01*
X31986521Y-142970252D01*
X32114670Y-142660872D01*
X32180000Y-142332435D01*
X32180000Y-141997565D01*
X38940000Y-141997565D01*
X38940000Y-142332435D01*
X39005330Y-142660872D01*
X39133479Y-142970252D01*
X39319523Y-143248687D01*
X39556313Y-143485477D01*
X39834748Y-143671521D01*
X40144128Y-143799670D01*
X40472565Y-143865000D01*
X40807435Y-143865000D01*
X41135872Y-143799670D01*
X41445252Y-143671521D01*
X41723687Y-143485477D01*
X41960477Y-143248687D01*
X42146521Y-142970252D01*
X42274670Y-142660872D01*
X42340000Y-142332435D01*
X42340000Y-141997565D01*
X42274670Y-141669128D01*
X42146521Y-141359748D01*
X41960477Y-141081313D01*
X41723687Y-140844523D01*
X41445252Y-140658479D01*
X41344860Y-140616895D01*
X41605000Y-140618072D01*
X41729482Y-140605812D01*
X41849180Y-140569502D01*
X41959494Y-140510537D01*
X42056185Y-140431185D01*
X42135537Y-140334494D01*
X42194502Y-140224180D01*
X42230812Y-140104482D01*
X42243072Y-139980000D01*
X42240000Y-139350750D01*
X42081250Y-139192000D01*
X40767000Y-139192000D01*
X40767000Y-139212000D01*
X40513000Y-139212000D01*
X40513000Y-139192000D01*
X39198750Y-139192000D01*
X39040000Y-139350750D01*
X39036928Y-139980000D01*
X39049188Y-140104482D01*
X39085498Y-140224180D01*
X39144463Y-140334494D01*
X39223815Y-140431185D01*
X39320506Y-140510537D01*
X39430820Y-140569502D01*
X39550518Y-140605812D01*
X39675000Y-140618072D01*
X39935140Y-140616895D01*
X39834748Y-140658479D01*
X39556313Y-140844523D01*
X39319523Y-141081313D01*
X39133479Y-141359748D01*
X39005330Y-141669128D01*
X38940000Y-141997565D01*
X32180000Y-141997565D01*
X32114670Y-141669128D01*
X31986521Y-141359748D01*
X31800477Y-141081313D01*
X31563687Y-140844523D01*
X31285252Y-140658479D01*
X31184860Y-140616895D01*
X31445000Y-140618072D01*
X31569482Y-140605812D01*
X31689180Y-140569502D01*
X31799494Y-140510537D01*
X31896185Y-140431185D01*
X31975537Y-140334494D01*
X32034502Y-140224180D01*
X32070812Y-140104482D01*
X32083072Y-139980000D01*
X32080000Y-139350750D01*
X31921250Y-139192000D01*
X30607000Y-139192000D01*
X30607000Y-139212000D01*
X30353000Y-139212000D01*
X30353000Y-139192000D01*
X29038750Y-139192000D01*
X28880000Y-139350750D01*
X28876928Y-139980000D01*
X28889188Y-140104482D01*
X28925498Y-140224180D01*
X28984463Y-140334494D01*
X29063815Y-140431185D01*
X29160506Y-140510537D01*
X29270820Y-140569502D01*
X29390518Y-140605812D01*
X29515000Y-140618072D01*
X29775140Y-140616895D01*
X29674748Y-140658479D01*
X29396313Y-140844523D01*
X29159523Y-141081313D01*
X28973479Y-141359748D01*
X28845330Y-141669128D01*
X28780000Y-141997565D01*
X26060000Y-141997565D01*
X26060000Y-138150000D01*
X28876928Y-138150000D01*
X28880000Y-138779250D01*
X29038750Y-138938000D01*
X30353000Y-138938000D01*
X30353000Y-137673750D01*
X30607000Y-137673750D01*
X30607000Y-138938000D01*
X31921250Y-138938000D01*
X32080000Y-138779250D01*
X32083072Y-138150000D01*
X39036928Y-138150000D01*
X39040000Y-138779250D01*
X39198750Y-138938000D01*
X40513000Y-138938000D01*
X40513000Y-137673750D01*
X40767000Y-137673750D01*
X40767000Y-138938000D01*
X42081250Y-138938000D01*
X42240000Y-138779250D01*
X42243072Y-138150000D01*
X42230812Y-138025518D01*
X42194502Y-137905820D01*
X42135537Y-137795506D01*
X42056185Y-137698815D01*
X41959494Y-137619463D01*
X41849180Y-137560498D01*
X41729482Y-137524188D01*
X41605000Y-137511928D01*
X40925750Y-137515000D01*
X40767000Y-137673750D01*
X40513000Y-137673750D01*
X40354250Y-137515000D01*
X39675000Y-137511928D01*
X39550518Y-137524188D01*
X39430820Y-137560498D01*
X39320506Y-137619463D01*
X39223815Y-137698815D01*
X39144463Y-137795506D01*
X39085498Y-137905820D01*
X39049188Y-138025518D01*
X39036928Y-138150000D01*
X32083072Y-138150000D01*
X32070812Y-138025518D01*
X32034502Y-137905820D01*
X31975537Y-137795506D01*
X31896185Y-137698815D01*
X31799494Y-137619463D01*
X31689180Y-137560498D01*
X31569482Y-137524188D01*
X31445000Y-137511928D01*
X30765750Y-137515000D01*
X30607000Y-137673750D01*
X30353000Y-137673750D01*
X30194250Y-137515000D01*
X29515000Y-137511928D01*
X29390518Y-137524188D01*
X29270820Y-137560498D01*
X29160506Y-137619463D01*
X29063815Y-137698815D01*
X28984463Y-137795506D01*
X28925498Y-137905820D01*
X28889188Y-138025518D01*
X28876928Y-138150000D01*
X26060000Y-138150000D01*
X26060000Y-134069657D01*
X26190363Y-134264759D01*
X26390241Y-134464637D01*
X26625273Y-134621680D01*
X26886426Y-134729853D01*
X27163665Y-134785000D01*
X27446335Y-134785000D01*
X27723574Y-134729853D01*
X27984727Y-134621680D01*
X28219759Y-134464637D01*
X28419637Y-134264759D01*
X28576680Y-134029727D01*
X28684853Y-133768574D01*
X28694515Y-133720000D01*
X31481928Y-133720000D01*
X31481928Y-135520000D01*
X31494188Y-135644482D01*
X31530498Y-135764180D01*
X31589463Y-135874494D01*
X31668815Y-135971185D01*
X31765506Y-136050537D01*
X31875820Y-136109502D01*
X31995518Y-136145812D01*
X32120000Y-136158072D01*
X33920000Y-136158072D01*
X34044482Y-136145812D01*
X34164180Y-136109502D01*
X34274494Y-136050537D01*
X34371185Y-135971185D01*
X34450537Y-135874494D01*
X34503880Y-135774697D01*
X34541495Y-135812312D01*
X34792905Y-135980299D01*
X35072257Y-136096011D01*
X35368816Y-136155000D01*
X35671184Y-136155000D01*
X35967743Y-136096011D01*
X36247095Y-135980299D01*
X36498505Y-135812312D01*
X36712312Y-135598505D01*
X36770000Y-135512169D01*
X36827688Y-135598505D01*
X37041495Y-135812312D01*
X37292905Y-135980299D01*
X37572257Y-136096011D01*
X37868816Y-136155000D01*
X38171184Y-136155000D01*
X38467743Y-136096011D01*
X38747095Y-135980299D01*
X38998505Y-135812312D01*
X39212312Y-135598505D01*
X39380299Y-135347095D01*
X39496011Y-135067743D01*
X39555000Y-134771184D01*
X39555000Y-134468816D01*
X39496011Y-134172257D01*
X39380299Y-133892905D01*
X39212312Y-133641495D01*
X38998505Y-133427688D01*
X38747095Y-133259701D01*
X38467743Y-133143989D01*
X38436601Y-133137795D01*
X38579637Y-132994759D01*
X38736680Y-132759727D01*
X38844853Y-132498574D01*
X38900000Y-132221335D01*
X38900000Y-131938665D01*
X38844853Y-131661426D01*
X38736680Y-131400273D01*
X38579637Y-131165241D01*
X38379759Y-130965363D01*
X38144727Y-130808320D01*
X37883574Y-130700147D01*
X37606335Y-130645000D01*
X37323665Y-130645000D01*
X37046426Y-130700147D01*
X36785273Y-130808320D01*
X36550241Y-130965363D01*
X36350363Y-131165241D01*
X36193320Y-131400273D01*
X36085147Y-131661426D01*
X36030000Y-131938665D01*
X36030000Y-132221335D01*
X36085147Y-132498574D01*
X36193320Y-132759727D01*
X36350363Y-132994759D01*
X36550241Y-133194637D01*
X36785273Y-133351680D01*
X37020195Y-133448988D01*
X36827688Y-133641495D01*
X36770000Y-133727831D01*
X36712312Y-133641495D01*
X36498505Y-133427688D01*
X36247095Y-133259701D01*
X35967743Y-133143989D01*
X35671184Y-133085000D01*
X35368816Y-133085000D01*
X35300883Y-133098513D01*
X35404637Y-132994759D01*
X35561680Y-132759727D01*
X35669853Y-132498574D01*
X35725000Y-132221335D01*
X35725000Y-131938665D01*
X35669853Y-131661426D01*
X35561680Y-131400273D01*
X35404637Y-131165241D01*
X35204759Y-130965363D01*
X34969727Y-130808320D01*
X34708574Y-130700147D01*
X34431335Y-130645000D01*
X34148665Y-130645000D01*
X33871426Y-130700147D01*
X33610273Y-130808320D01*
X33375241Y-130965363D01*
X33175363Y-131165241D01*
X33018320Y-131400273D01*
X32910147Y-131661426D01*
X32855000Y-131938665D01*
X32855000Y-132221335D01*
X32910147Y-132498574D01*
X33018320Y-132759727D01*
X33175363Y-132994759D01*
X33262532Y-133081928D01*
X32120000Y-133081928D01*
X31995518Y-133094188D01*
X31875820Y-133130498D01*
X31765506Y-133189463D01*
X31668815Y-133268815D01*
X31589463Y-133365506D01*
X31530498Y-133475820D01*
X31494188Y-133595518D01*
X31481928Y-133720000D01*
X28694515Y-133720000D01*
X28740000Y-133491335D01*
X28740000Y-133208665D01*
X28684853Y-132931426D01*
X28576680Y-132670273D01*
X28419637Y-132435241D01*
X28219759Y-132235363D01*
X27984727Y-132078320D01*
X27723574Y-131970147D01*
X27446335Y-131915000D01*
X27163665Y-131915000D01*
X26886426Y-131970147D01*
X26625273Y-132078320D01*
X26390241Y-132235363D01*
X26190363Y-132435241D01*
X26060000Y-132630343D01*
X26060000Y-126762002D01*
X28725000Y-126762002D01*
X28725000Y-127477997D01*
X28753867Y-127771087D01*
X28867943Y-128147146D01*
X29053193Y-128493725D01*
X29302497Y-128797503D01*
X29606275Y-129046807D01*
X29952853Y-129232057D01*
X30328912Y-129346133D01*
X30720000Y-129384652D01*
X31111087Y-129346133D01*
X31487146Y-129232057D01*
X31833725Y-129046807D01*
X32137503Y-128797503D01*
X32386807Y-128493725D01*
X32572057Y-128147147D01*
X32686133Y-127771088D01*
X32715000Y-127477998D01*
X32715000Y-126762003D01*
X32715000Y-126762002D01*
X38325000Y-126762002D01*
X38325000Y-127477997D01*
X38353867Y-127771087D01*
X38467943Y-128147146D01*
X38653193Y-128493725D01*
X38902497Y-128797503D01*
X39206275Y-129046807D01*
X39552853Y-129232057D01*
X39928912Y-129346133D01*
X40320000Y-129384652D01*
X40711087Y-129346133D01*
X41087146Y-129232057D01*
X41433725Y-129046807D01*
X41737503Y-128797503D01*
X41986807Y-128493725D01*
X42172057Y-128147147D01*
X42286133Y-127771088D01*
X42315000Y-127477998D01*
X42315000Y-126762003D01*
X42286133Y-126468913D01*
X42172057Y-126092853D01*
X41986807Y-125746275D01*
X41737503Y-125442497D01*
X41433725Y-125193193D01*
X41087147Y-125007943D01*
X40711088Y-124893867D01*
X40320000Y-124855348D01*
X39928913Y-124893867D01*
X39552854Y-125007943D01*
X39206276Y-125193193D01*
X38902498Y-125442497D01*
X38653193Y-125746275D01*
X38467943Y-126092853D01*
X38353867Y-126468912D01*
X38325000Y-126762002D01*
X32715000Y-126762002D01*
X32686133Y-126468913D01*
X32572057Y-126092853D01*
X32386807Y-125746275D01*
X32137503Y-125442497D01*
X31833725Y-125193193D01*
X31487147Y-125007943D01*
X31111088Y-124893867D01*
X30720000Y-124855348D01*
X30328913Y-124893867D01*
X29952854Y-125007943D01*
X29606276Y-125193193D01*
X29302498Y-125442497D01*
X29053193Y-125746275D01*
X28867943Y-126092853D01*
X28753867Y-126468912D01*
X28725000Y-126762002D01*
X26060000Y-126762002D01*
X26060000Y-123909657D01*
X26190363Y-124104759D01*
X26390241Y-124304637D01*
X26625273Y-124461680D01*
X26886426Y-124569853D01*
X27163665Y-124625000D01*
X27446335Y-124625000D01*
X27723574Y-124569853D01*
X27984727Y-124461680D01*
X28219759Y-124304637D01*
X28419637Y-124104759D01*
X28576680Y-123869727D01*
X28684853Y-123608574D01*
X28740000Y-123331335D01*
X28740000Y-123048665D01*
X28684853Y-122771426D01*
X28576680Y-122510273D01*
X28419637Y-122275241D01*
X28219759Y-122075363D01*
X27984727Y-121918320D01*
X27723574Y-121810147D01*
X27565306Y-121778665D01*
X32855000Y-121778665D01*
X32855000Y-122061335D01*
X32910147Y-122338574D01*
X33018320Y-122599727D01*
X33175363Y-122834759D01*
X33375241Y-123034637D01*
X33610273Y-123191680D01*
X33871426Y-123299853D01*
X34148665Y-123355000D01*
X34431335Y-123355000D01*
X34708574Y-123299853D01*
X34969727Y-123191680D01*
X35204759Y-123034637D01*
X35404637Y-122834759D01*
X35561680Y-122599727D01*
X35669853Y-122338574D01*
X35725000Y-122061335D01*
X35725000Y-121778665D01*
X35669853Y-121501426D01*
X35561680Y-121240273D01*
X35404637Y-121005241D01*
X35204759Y-120805363D01*
X34969727Y-120648320D01*
X34708574Y-120540147D01*
X34431335Y-120485000D01*
X34148665Y-120485000D01*
X33871426Y-120540147D01*
X33610273Y-120648320D01*
X33375241Y-120805363D01*
X33175363Y-121005241D01*
X33018320Y-121240273D01*
X32910147Y-121501426D01*
X32855000Y-121778665D01*
X27565306Y-121778665D01*
X27446335Y-121755000D01*
X27163665Y-121755000D01*
X26886426Y-121810147D01*
X26625273Y-121918320D01*
X26390241Y-122075363D01*
X26190363Y-122275241D01*
X26060000Y-122470343D01*
X26060000Y-119238665D01*
X29045000Y-119238665D01*
X29045000Y-119521335D01*
X29100147Y-119798574D01*
X29208320Y-120059727D01*
X29365363Y-120294759D01*
X29565241Y-120494637D01*
X29800273Y-120651680D01*
X30061426Y-120759853D01*
X30338665Y-120815000D01*
X30621335Y-120815000D01*
X30898574Y-120759853D01*
X31159727Y-120651680D01*
X31394759Y-120494637D01*
X31594637Y-120294759D01*
X31698043Y-120140000D01*
X34610199Y-120140000D01*
X36066312Y-121596114D01*
X36030000Y-121778665D01*
X36030000Y-122061335D01*
X36085147Y-122338574D01*
X36193320Y-122599727D01*
X36350363Y-122834759D01*
X36550241Y-123034637D01*
X36785273Y-123191680D01*
X37046426Y-123299853D01*
X37323665Y-123355000D01*
X37606335Y-123355000D01*
X37883574Y-123299853D01*
X38144727Y-123191680D01*
X38379759Y-123034637D01*
X38579637Y-122834759D01*
X38736680Y-122599727D01*
X38844853Y-122338574D01*
X38900000Y-122061335D01*
X38900000Y-121778665D01*
X38844853Y-121501426D01*
X38736680Y-121240273D01*
X38579637Y-121005241D01*
X38379759Y-120805363D01*
X38144727Y-120648320D01*
X37883574Y-120540147D01*
X37606335Y-120485000D01*
X37323665Y-120485000D01*
X37141114Y-120521312D01*
X35858467Y-119238665D01*
X39205000Y-119238665D01*
X39205000Y-119521335D01*
X39260147Y-119798574D01*
X39368320Y-120059727D01*
X39525363Y-120294759D01*
X39725241Y-120494637D01*
X39960273Y-120651680D01*
X40221426Y-120759853D01*
X40498665Y-120815000D01*
X40781335Y-120815000D01*
X41058574Y-120759853D01*
X41319727Y-120651680D01*
X41554759Y-120494637D01*
X41754637Y-120294759D01*
X41911680Y-120059727D01*
X42019853Y-119798574D01*
X42075000Y-119521335D01*
X42075000Y-119238665D01*
X42019853Y-118961426D01*
X41911680Y-118700273D01*
X41754637Y-118465241D01*
X41554759Y-118265363D01*
X41319727Y-118108320D01*
X41058574Y-118000147D01*
X40781335Y-117945000D01*
X40498665Y-117945000D01*
X40221426Y-118000147D01*
X39960273Y-118108320D01*
X39725241Y-118265363D01*
X39525363Y-118465241D01*
X39368320Y-118700273D01*
X39260147Y-118961426D01*
X39205000Y-119238665D01*
X35858467Y-119238665D01*
X35488804Y-118869003D01*
X35465001Y-118839999D01*
X35349276Y-118745026D01*
X35217247Y-118674454D01*
X35073986Y-118630997D01*
X34962333Y-118620000D01*
X34962322Y-118620000D01*
X34925000Y-118616324D01*
X34887678Y-118620000D01*
X31698043Y-118620000D01*
X31594637Y-118465241D01*
X31394759Y-118265363D01*
X31159727Y-118108320D01*
X30898574Y-118000147D01*
X30621335Y-117945000D01*
X30338665Y-117945000D01*
X30061426Y-118000147D01*
X29800273Y-118108320D01*
X29565241Y-118265363D01*
X29365363Y-118465241D01*
X29208320Y-118700273D01*
X29100147Y-118961426D01*
X29045000Y-119238665D01*
X26060000Y-119238665D01*
X26060000Y-117924588D01*
X26080518Y-117930812D01*
X26205000Y-117943072D01*
X27019250Y-117940000D01*
X27178000Y-117781250D01*
X27178000Y-116332000D01*
X27432000Y-116332000D01*
X27432000Y-117781250D01*
X27590750Y-117940000D01*
X28405000Y-117943072D01*
X28529482Y-117930812D01*
X28649180Y-117894502D01*
X28759494Y-117835537D01*
X28856185Y-117756185D01*
X28935537Y-117659494D01*
X28994502Y-117549180D01*
X29030812Y-117429482D01*
X29043072Y-117305000D01*
X29040000Y-116490750D01*
X28881250Y-116332000D01*
X27432000Y-116332000D01*
X27178000Y-116332000D01*
X27158000Y-116332000D01*
X27158000Y-116078000D01*
X27178000Y-116078000D01*
X27178000Y-114628750D01*
X27432000Y-114628750D01*
X27432000Y-116078000D01*
X28881250Y-116078000D01*
X29040000Y-115919250D01*
X29043072Y-115105000D01*
X29030812Y-114980518D01*
X28994502Y-114860820D01*
X28935537Y-114750506D01*
X28856185Y-114653815D01*
X28759494Y-114574463D01*
X28649180Y-114515498D01*
X28529482Y-114479188D01*
X28405000Y-114466928D01*
X27590750Y-114470000D01*
X27432000Y-114628750D01*
X27178000Y-114628750D01*
X27019250Y-114470000D01*
X26205000Y-114466928D01*
X26080518Y-114479188D01*
X26060000Y-114485412D01*
X26060000Y-108982002D01*
X28725000Y-108982002D01*
X28725000Y-109697997D01*
X28753867Y-109991087D01*
X28867943Y-110367146D01*
X29053193Y-110713725D01*
X29302497Y-111017503D01*
X29606275Y-111266807D01*
X29952853Y-111452057D01*
X30328912Y-111566133D01*
X30720000Y-111604652D01*
X31111087Y-111566133D01*
X31487146Y-111452057D01*
X31833725Y-111266807D01*
X32137503Y-111017503D01*
X32386807Y-110713725D01*
X32572057Y-110367147D01*
X32686133Y-109991088D01*
X32715000Y-109697998D01*
X32715000Y-108982003D01*
X32686133Y-108688913D01*
X32572057Y-108312853D01*
X32386807Y-107966275D01*
X32137503Y-107662497D01*
X31833725Y-107413193D01*
X31487147Y-107227943D01*
X31111088Y-107113867D01*
X30720000Y-107075348D01*
X30328913Y-107113867D01*
X29952854Y-107227943D01*
X29606276Y-107413193D01*
X29302498Y-107662497D01*
X29053193Y-107966275D01*
X28867943Y-108312853D01*
X28753867Y-108688912D01*
X28725000Y-108982002D01*
X26060000Y-108982002D01*
X26060000Y-107253661D01*
X26199002Y-107392663D01*
X26483169Y-107582537D01*
X26798919Y-107713325D01*
X27134117Y-107780000D01*
X27475883Y-107780000D01*
X27811081Y-107713325D01*
X28126831Y-107582537D01*
X28410998Y-107392663D01*
X28652663Y-107150998D01*
X28842537Y-106866831D01*
X28973325Y-106551081D01*
X29040000Y-106215883D01*
X29040000Y-105874117D01*
X28973325Y-105538919D01*
X28842537Y-105223169D01*
X28652663Y-104939002D01*
X28410998Y-104697337D01*
X28126831Y-104507463D01*
X27811081Y-104376675D01*
X27475883Y-104310000D01*
X27134117Y-104310000D01*
X26798919Y-104376675D01*
X26483169Y-104507463D01*
X26199002Y-104697337D01*
X26060000Y-104836339D01*
X26060000Y-99548740D01*
X28995000Y-99548740D01*
X28995000Y-99841260D01*
X29052068Y-100128158D01*
X29164010Y-100398411D01*
X29326525Y-100641632D01*
X29533368Y-100848475D01*
X29707760Y-100965000D01*
X29533368Y-101081525D01*
X29326525Y-101288368D01*
X29164010Y-101531589D01*
X29052068Y-101801842D01*
X28995000Y-102088740D01*
X28995000Y-102381260D01*
X29052068Y-102668158D01*
X29164010Y-102938411D01*
X29326525Y-103181632D01*
X29533368Y-103388475D01*
X29776589Y-103550990D01*
X30046842Y-103662932D01*
X30333740Y-103720000D01*
X30626260Y-103720000D01*
X30913158Y-103662932D01*
X31183411Y-103550990D01*
X31426632Y-103388475D01*
X31633475Y-103181632D01*
X31755195Y-102999466D01*
X31824822Y-103116355D01*
X32019731Y-103332588D01*
X32253080Y-103506641D01*
X32515901Y-103631825D01*
X32663110Y-103676476D01*
X32893000Y-103555155D01*
X32893000Y-102362000D01*
X33147000Y-102362000D01*
X33147000Y-103555155D01*
X33376890Y-103676476D01*
X33524099Y-103631825D01*
X33786920Y-103506641D01*
X34020269Y-103332588D01*
X34215178Y-103116355D01*
X34290000Y-102990745D01*
X34364822Y-103116355D01*
X34559731Y-103332588D01*
X34793080Y-103506641D01*
X35055901Y-103631825D01*
X35203110Y-103676476D01*
X35433000Y-103555155D01*
X35433000Y-102362000D01*
X33147000Y-102362000D01*
X32893000Y-102362000D01*
X32873000Y-102362000D01*
X32873000Y-102108000D01*
X32893000Y-102108000D01*
X32893000Y-99822000D01*
X33147000Y-99822000D01*
X33147000Y-102108000D01*
X35433000Y-102108000D01*
X35433000Y-99822000D01*
X33147000Y-99822000D01*
X32893000Y-99822000D01*
X32873000Y-99822000D01*
X32873000Y-99568000D01*
X32893000Y-99568000D01*
X32893000Y-98374845D01*
X32663110Y-98253524D01*
X32515901Y-98298175D01*
X32253080Y-98423359D01*
X32019731Y-98597412D01*
X31824822Y-98813645D01*
X31755195Y-98930534D01*
X31633475Y-98748368D01*
X31426632Y-98541525D01*
X31183411Y-98379010D01*
X30913158Y-98267068D01*
X30626260Y-98210000D01*
X30333740Y-98210000D01*
X30046842Y-98267068D01*
X29776589Y-98379010D01*
X29533368Y-98541525D01*
X29326525Y-98748368D01*
X29164010Y-98991589D01*
X29052068Y-99261842D01*
X28995000Y-99548740D01*
X26060000Y-99548740D01*
X26060000Y-90624432D01*
X26153320Y-90849727D01*
X26310363Y-91084759D01*
X26510241Y-91284637D01*
X26745273Y-91441680D01*
X27006426Y-91549853D01*
X27283665Y-91605000D01*
X27566335Y-91605000D01*
X27843574Y-91549853D01*
X28104727Y-91441680D01*
X28339759Y-91284637D01*
X28539637Y-91084759D01*
X28696680Y-90849727D01*
X28804853Y-90588574D01*
X28860000Y-90311335D01*
X28860000Y-90028665D01*
X28804853Y-89751426D01*
X28696680Y-89490273D01*
X28539637Y-89255241D01*
X28339759Y-89055363D01*
X28104727Y-88898320D01*
X27843574Y-88790147D01*
X27566335Y-88735000D01*
X27283665Y-88735000D01*
X27006426Y-88790147D01*
X26745273Y-88898320D01*
X26510241Y-89055363D01*
X26310363Y-89255241D01*
X26153320Y-89490273D01*
X26060000Y-89715568D01*
X26060000Y-83424119D01*
X28879448Y-83424119D01*
X28882520Y-84053369D01*
X29041270Y-84212119D01*
X30355520Y-84212119D01*
X30355520Y-82947869D01*
X30609520Y-82947869D01*
X30609520Y-84212119D01*
X31923770Y-84212119D01*
X32082520Y-84053369D01*
X32085592Y-83424119D01*
X32073332Y-83299637D01*
X32037022Y-83179939D01*
X31978057Y-83069625D01*
X31898705Y-82972934D01*
X31802014Y-82893582D01*
X31691700Y-82834617D01*
X31572002Y-82798307D01*
X31447520Y-82786047D01*
X30768270Y-82789119D01*
X30609520Y-82947869D01*
X30355520Y-82947869D01*
X30196770Y-82789119D01*
X29517520Y-82786047D01*
X29393038Y-82798307D01*
X29273340Y-82834617D01*
X29163026Y-82893582D01*
X29066335Y-82972934D01*
X28986983Y-83069625D01*
X28928018Y-83179939D01*
X28891708Y-83299637D01*
X28879448Y-83424119D01*
X26060000Y-83424119D01*
X26060000Y-80729657D01*
X26190363Y-80924759D01*
G04 #@! TA.AperFunction,Conductor*
D25*
G36*
X26190363Y-80924759D02*
G01*
X26390241Y-81124637D01*
X26625273Y-81281680D01*
X26886426Y-81389853D01*
X27163665Y-81445000D01*
X27446335Y-81445000D01*
X27628886Y-81408688D01*
X28011201Y-81791003D01*
X28034999Y-81820001D01*
X28150724Y-81914974D01*
X28282753Y-81985546D01*
X28426014Y-82029003D01*
X28537667Y-82040000D01*
X28537676Y-82040000D01*
X28574999Y-82043676D01*
X28612322Y-82040000D01*
X31481928Y-82040000D01*
X31481928Y-82180000D01*
X31494188Y-82304482D01*
X31530498Y-82424180D01*
X31589463Y-82534494D01*
X31668815Y-82631185D01*
X31765506Y-82710537D01*
X31875820Y-82769502D01*
X31995518Y-82805812D01*
X32120000Y-82818072D01*
X33530000Y-82818072D01*
X33530000Y-84140198D01*
X31557425Y-86112774D01*
X31287772Y-85932598D01*
X31187380Y-85891014D01*
X31447520Y-85892191D01*
X31572002Y-85879931D01*
X31691700Y-85843621D01*
X31802014Y-85784656D01*
X31898705Y-85705304D01*
X31978057Y-85608613D01*
X32037022Y-85498299D01*
X32073332Y-85378601D01*
X32085592Y-85254119D01*
X32082520Y-84624869D01*
X31923770Y-84466119D01*
X30609520Y-84466119D01*
X30609520Y-84486119D01*
X30355520Y-84486119D01*
X30355520Y-84466119D01*
X29041270Y-84466119D01*
X28882520Y-84624869D01*
X28879448Y-85254119D01*
X28891708Y-85378601D01*
X28928018Y-85498299D01*
X28986983Y-85608613D01*
X29066335Y-85705304D01*
X29163026Y-85784656D01*
X29273340Y-85843621D01*
X29393038Y-85879931D01*
X29517520Y-85892191D01*
X29777660Y-85891014D01*
X29677268Y-85932598D01*
X29398833Y-86118642D01*
X29162043Y-86355432D01*
X28975999Y-86633867D01*
X28847850Y-86943247D01*
X28782520Y-87271684D01*
X28782520Y-87606554D01*
X28847850Y-87934991D01*
X28975999Y-88244371D01*
X29162043Y-88522806D01*
X29398833Y-88759596D01*
X29677268Y-88945640D01*
X29986648Y-89073789D01*
X30315085Y-89139119D01*
X30649955Y-89139119D01*
X30978392Y-89073789D01*
X31112522Y-89018231D01*
X31112521Y-91242675D01*
X29971523Y-92383674D01*
X29942519Y-92407477D01*
X29902536Y-92456197D01*
X29847546Y-92523202D01*
X29776975Y-92655231D01*
X29776974Y-92655232D01*
X29733517Y-92798493D01*
X29722520Y-92910146D01*
X29722520Y-92910156D01*
X29718844Y-92947478D01*
X29722520Y-92984801D01*
X29722520Y-94213854D01*
X29677268Y-94232598D01*
X29398833Y-94418642D01*
X29162043Y-94655432D01*
X28975999Y-94933867D01*
X28847850Y-95243247D01*
X28782520Y-95571684D01*
X28782520Y-95906554D01*
X28847850Y-96234991D01*
X28975999Y-96544371D01*
X29162043Y-96822806D01*
X29398833Y-97059596D01*
X29677268Y-97245640D01*
X29986648Y-97373789D01*
X30315085Y-97439119D01*
X30649955Y-97439119D01*
X30978392Y-97373789D01*
X31287772Y-97245640D01*
X31566207Y-97059596D01*
X31802997Y-96822806D01*
X31985000Y-96550419D01*
X31985000Y-96621939D01*
X32024774Y-96821898D01*
X32102795Y-97010256D01*
X32216063Y-97179774D01*
X32360226Y-97323937D01*
X32529744Y-97437205D01*
X32718102Y-97515226D01*
X32918061Y-97555000D01*
X33121939Y-97555000D01*
X33321898Y-97515226D01*
X33510256Y-97437205D01*
X33679774Y-97323937D01*
X33723711Y-97280000D01*
X33975199Y-97280000D01*
X35013547Y-98318349D01*
X34793080Y-98423359D01*
X34559731Y-98597412D01*
X34364822Y-98813645D01*
X34290000Y-98939255D01*
X34215178Y-98813645D01*
X34020269Y-98597412D01*
X33786920Y-98423359D01*
X33524099Y-98298175D01*
X33376890Y-98253524D01*
X33147000Y-98374845D01*
X33147000Y-99568000D01*
X35433000Y-99568000D01*
X35433000Y-99548000D01*
X35687000Y-99548000D01*
X35687000Y-99568000D01*
X35707000Y-99568000D01*
X35707000Y-99822000D01*
X35687000Y-99822000D01*
X35687000Y-102108000D01*
X35707000Y-102108000D01*
X35707000Y-102362000D01*
X35687000Y-102362000D01*
X35687000Y-103555155D01*
X35916890Y-103676476D01*
X36064099Y-103631825D01*
X36070000Y-103629014D01*
X36070001Y-115406346D01*
X35967743Y-115363989D01*
X35671184Y-115305000D01*
X35368816Y-115305000D01*
X35072257Y-115363989D01*
X34792905Y-115479701D01*
X34541495Y-115647688D01*
X34503880Y-115685303D01*
X34450537Y-115585506D01*
X34371185Y-115488815D01*
X34274494Y-115409463D01*
X34164180Y-115350498D01*
X34044482Y-115314188D01*
X33920000Y-115301928D01*
X32120000Y-115301928D01*
X31995518Y-115314188D01*
X31875820Y-115350498D01*
X31765506Y-115409463D01*
X31668815Y-115488815D01*
X31589463Y-115585506D01*
X31530498Y-115695820D01*
X31494188Y-115815518D01*
X31481928Y-115940000D01*
X31481928Y-117740000D01*
X31494188Y-117864482D01*
X31530498Y-117984180D01*
X31589463Y-118094494D01*
X31668815Y-118191185D01*
X31765506Y-118270537D01*
X31875820Y-118329502D01*
X31995518Y-118365812D01*
X32120000Y-118378072D01*
X33920000Y-118378072D01*
X34044482Y-118365812D01*
X34164180Y-118329502D01*
X34274494Y-118270537D01*
X34371185Y-118191185D01*
X34450537Y-118094494D01*
X34503880Y-117994697D01*
X34541495Y-118032312D01*
X34792905Y-118200299D01*
X35072257Y-118316011D01*
X35368816Y-118375000D01*
X35671184Y-118375000D01*
X35967743Y-118316011D01*
X36247095Y-118200299D01*
X36498505Y-118032312D01*
X36712312Y-117818505D01*
X36770000Y-117732169D01*
X36827688Y-117818505D01*
X37041495Y-118032312D01*
X37292905Y-118200299D01*
X37572257Y-118316011D01*
X37868816Y-118375000D01*
X38171184Y-118375000D01*
X38467743Y-118316011D01*
X38747095Y-118200299D01*
X38998505Y-118032312D01*
X39212312Y-117818505D01*
X39380299Y-117567095D01*
X39496011Y-117287743D01*
X39555000Y-116991184D01*
X39555000Y-116688816D01*
X39537557Y-116601123D01*
X42125821Y-116601123D01*
X42235558Y-116923054D01*
X42405992Y-117217391D01*
X42630573Y-117472822D01*
X42900671Y-117679531D01*
X43205906Y-117829575D01*
X43418878Y-117894175D01*
X43688000Y-117776125D01*
X43688000Y-116332000D01*
X42243400Y-116332000D01*
X42125821Y-116601123D01*
X39537557Y-116601123D01*
X39496011Y-116392257D01*
X39380299Y-116112905D01*
X39212312Y-115861495D01*
X39159694Y-115808877D01*
X42125821Y-115808877D01*
X42243400Y-116078000D01*
X43688000Y-116078000D01*
X43688000Y-114633875D01*
X43418878Y-114515825D01*
X43205906Y-114580425D01*
X42900671Y-114730469D01*
X42630573Y-114937178D01*
X42405992Y-115192609D01*
X42235558Y-115486946D01*
X42125821Y-115808877D01*
X39159694Y-115808877D01*
X38998505Y-115647688D01*
X38747095Y-115479701D01*
X38467743Y-115363989D01*
X38171184Y-115305000D01*
X37868816Y-115305000D01*
X37611070Y-115356269D01*
X37590000Y-115335199D01*
X37590000Y-108982002D01*
X38325000Y-108982002D01*
X38325000Y-109697997D01*
X38353867Y-109991087D01*
X38467943Y-110367146D01*
X38653193Y-110713725D01*
X38902497Y-111017503D01*
X39206275Y-111266807D01*
X39552853Y-111452057D01*
X39928912Y-111566133D01*
X40320000Y-111604652D01*
X40711087Y-111566133D01*
X41087146Y-111452057D01*
X41433725Y-111266807D01*
X41737503Y-111017503D01*
X41986807Y-110713725D01*
X42172057Y-110367147D01*
X42286133Y-109991088D01*
X42315000Y-109697998D01*
X42315000Y-108982003D01*
X42286133Y-108688913D01*
X42172057Y-108312853D01*
X41986807Y-107966275D01*
X41737503Y-107662497D01*
X41433725Y-107413193D01*
X41087147Y-107227943D01*
X40711088Y-107113867D01*
X40320000Y-107075348D01*
X39928913Y-107113867D01*
X39552854Y-107227943D01*
X39206276Y-107413193D01*
X38902498Y-107662497D01*
X38653193Y-107966275D01*
X38467943Y-108312853D01*
X38353867Y-108688912D01*
X38325000Y-108982002D01*
X37590000Y-108982002D01*
X37590000Y-103629014D01*
X37595901Y-103631825D01*
X37743110Y-103676476D01*
X37973000Y-103555155D01*
X37973000Y-102362000D01*
X37953000Y-102362000D01*
X37953000Y-102108000D01*
X37973000Y-102108000D01*
X37973000Y-99822000D01*
X37953000Y-99822000D01*
X37953000Y-99568000D01*
X37973000Y-99568000D01*
X37973000Y-98374845D01*
X38227000Y-98374845D01*
X38227000Y-99568000D01*
X38247000Y-99568000D01*
X38247000Y-99822000D01*
X38227000Y-99822000D01*
X38227000Y-102108000D01*
X38247000Y-102108000D01*
X38247000Y-102362000D01*
X38227000Y-102362000D01*
X38227000Y-103555155D01*
X38456890Y-103676476D01*
X38604099Y-103631825D01*
X38866920Y-103506641D01*
X39100269Y-103332588D01*
X39176034Y-103248534D01*
X39200498Y-103329180D01*
X39259463Y-103439494D01*
X39338815Y-103536185D01*
X39435506Y-103615537D01*
X39545820Y-103674502D01*
X39665518Y-103710812D01*
X39790000Y-103723072D01*
X41490000Y-103723072D01*
X41614482Y-103710812D01*
X41734180Y-103674502D01*
X41844494Y-103615537D01*
X41941185Y-103536185D01*
X42020537Y-103439494D01*
X42079502Y-103329180D01*
X42115812Y-103209482D01*
X42128072Y-103085000D01*
X42128072Y-101385000D01*
X42115812Y-101260518D01*
X42079502Y-101140820D01*
X42020537Y-101030506D01*
X41941185Y-100933815D01*
X41844494Y-100854463D01*
X41734180Y-100795498D01*
X41661620Y-100773487D01*
X41793475Y-100641632D01*
X41955990Y-100398411D01*
X42067932Y-100128158D01*
X42125000Y-99841260D01*
X42125000Y-99548740D01*
X42067932Y-99261842D01*
X41955990Y-98991589D01*
X41793475Y-98748368D01*
X41586632Y-98541525D01*
X41343411Y-98379010D01*
X41073158Y-98267068D01*
X40786260Y-98210000D01*
X40493740Y-98210000D01*
X40206842Y-98267068D01*
X39936589Y-98379010D01*
X39693368Y-98541525D01*
X39486525Y-98748368D01*
X39364805Y-98930534D01*
X39295178Y-98813645D01*
X39100269Y-98597412D01*
X38866920Y-98423359D01*
X38604099Y-98298175D01*
X38456890Y-98253524D01*
X38227000Y-98374845D01*
X37973000Y-98374845D01*
X37743110Y-98253524D01*
X37595901Y-98298175D01*
X37333080Y-98423359D01*
X37295897Y-98451094D01*
X34853804Y-96009003D01*
X34830001Y-95979999D01*
X34714276Y-95885026D01*
X34582247Y-95814454D01*
X34438986Y-95770997D01*
X34327333Y-95760000D01*
X34327322Y-95760000D01*
X34290000Y-95756324D01*
X34252678Y-95760000D01*
X33723711Y-95760000D01*
X33679774Y-95716063D01*
X33510256Y-95602795D01*
X33321898Y-95524774D01*
X33121939Y-95485000D01*
X32918061Y-95485000D01*
X32718102Y-95524774D01*
X32529744Y-95602795D01*
X32360226Y-95716063D01*
X32216063Y-95860226D01*
X32181423Y-95912068D01*
X32182520Y-95906554D01*
X32182520Y-95571684D01*
X32117190Y-95243247D01*
X31989041Y-94933867D01*
X31802997Y-94655432D01*
X31566207Y-94418642D01*
X31287772Y-94232598D01*
X31242520Y-94213854D01*
X31242520Y-93262279D01*
X31445760Y-93059039D01*
X34923096Y-93059039D01*
X34963754Y-93193087D01*
X35083963Y-93447420D01*
X35251481Y-93673414D01*
X35459869Y-93862385D01*
X35701119Y-94007070D01*
X35965960Y-94101909D01*
X36188000Y-93980624D01*
X36188000Y-92837000D01*
X36442000Y-92837000D01*
X36442000Y-93980624D01*
X36664040Y-94101909D01*
X36928881Y-94007070D01*
X37170131Y-93862385D01*
X37378519Y-93673414D01*
X37546037Y-93447420D01*
X37666246Y-93193087D01*
X37706904Y-93059039D01*
X37584915Y-92837000D01*
X36442000Y-92837000D01*
X36188000Y-92837000D01*
X35045085Y-92837000D01*
X34923096Y-93059039D01*
X31445760Y-93059039D01*
X32143838Y-92360961D01*
X34923096Y-92360961D01*
X35045085Y-92583000D01*
X36188000Y-92583000D01*
X36188000Y-91439376D01*
X36442000Y-91439376D01*
X36442000Y-92583000D01*
X37584915Y-92583000D01*
X37706904Y-92360961D01*
X37666246Y-92226913D01*
X37546037Y-91972580D01*
X37378519Y-91746586D01*
X37170131Y-91557615D01*
X36928881Y-91412930D01*
X36664040Y-91318091D01*
X36442000Y-91439376D01*
X36188000Y-91439376D01*
X35965960Y-91318091D01*
X35701119Y-91412930D01*
X35459869Y-91557615D01*
X35251481Y-91746586D01*
X35083963Y-91972580D01*
X34963754Y-92226913D01*
X34923096Y-92360961D01*
X32143838Y-92360961D01*
X32383525Y-92121275D01*
X32412522Y-92097478D01*
X32507495Y-91981753D01*
X32578067Y-91849724D01*
X32621524Y-91706463D01*
X32632521Y-91594810D01*
X32632521Y-91594801D01*
X32636197Y-91557478D01*
X32632521Y-91520155D01*
X32632521Y-91162702D01*
X34111903Y-91162702D01*
X34183486Y-91406671D01*
X34438996Y-91527571D01*
X34713184Y-91596300D01*
X34995512Y-91610217D01*
X35275130Y-91568787D01*
X35541292Y-91473603D01*
X35666514Y-91406671D01*
X35738097Y-91162702D01*
X34925000Y-90349605D01*
X34111903Y-91162702D01*
X32632521Y-91162702D01*
X32632521Y-90240512D01*
X33484783Y-90240512D01*
X33526213Y-90520130D01*
X33621397Y-90786292D01*
X33688329Y-90911514D01*
X33932298Y-90983097D01*
X34745395Y-90170000D01*
X35104605Y-90170000D01*
X35917702Y-90983097D01*
X36161671Y-90911514D01*
X36282571Y-90656004D01*
X36351300Y-90381816D01*
X36365217Y-90099488D01*
X36323787Y-89819870D01*
X36228603Y-89553708D01*
X36161671Y-89428486D01*
X35917702Y-89356903D01*
X35104605Y-90170000D01*
X34745395Y-90170000D01*
X33932298Y-89356903D01*
X33688329Y-89428486D01*
X33567429Y-89683996D01*
X33498700Y-89958184D01*
X33484783Y-90240512D01*
X32632521Y-90240512D01*
X32632521Y-89177298D01*
X34111903Y-89177298D01*
X34925000Y-89990395D01*
X35738097Y-89177298D01*
X35666514Y-88933329D01*
X35411004Y-88812429D01*
X35136816Y-88743700D01*
X34854488Y-88729783D01*
X34574870Y-88771213D01*
X34308708Y-88866397D01*
X34183486Y-88933329D01*
X34111903Y-89177298D01*
X32632521Y-89177298D01*
X32632521Y-87269013D01*
X38901556Y-87269013D01*
X38901556Y-87603883D01*
X38966886Y-87932320D01*
X39095035Y-88241700D01*
X39281079Y-88520135D01*
X39517869Y-88756925D01*
X39796304Y-88942969D01*
X40105684Y-89071118D01*
X40434121Y-89136448D01*
X40768991Y-89136448D01*
X41097428Y-89071118D01*
X41406808Y-88942969D01*
X41685243Y-88756925D01*
X41922033Y-88520135D01*
X42108077Y-88241700D01*
X42236226Y-87932320D01*
X42301556Y-87603883D01*
X42301556Y-87269013D01*
X42236226Y-86940576D01*
X42108077Y-86631196D01*
X41922033Y-86352761D01*
X41685243Y-86115971D01*
X41406808Y-85929927D01*
X41306416Y-85888343D01*
X41566556Y-85889520D01*
X41691038Y-85877260D01*
X41810736Y-85840950D01*
X41921050Y-85781985D01*
X42017741Y-85702633D01*
X42097093Y-85605942D01*
X42156058Y-85495628D01*
X42192368Y-85375930D01*
X42204628Y-85251448D01*
X42201556Y-84622198D01*
X42042806Y-84463448D01*
X40728556Y-84463448D01*
X40728556Y-84483448D01*
X40474556Y-84483448D01*
X40474556Y-84463448D01*
X39160306Y-84463448D01*
X39001556Y-84622198D01*
X38998484Y-85251448D01*
X39010744Y-85375930D01*
X39047054Y-85495628D01*
X39106019Y-85605942D01*
X39185371Y-85702633D01*
X39282062Y-85781985D01*
X39392376Y-85840950D01*
X39512074Y-85877260D01*
X39636556Y-85889520D01*
X39896696Y-85888343D01*
X39796304Y-85929927D01*
X39517869Y-86115971D01*
X39281079Y-86352761D01*
X39095035Y-86631196D01*
X38966886Y-86940576D01*
X38901556Y-87269013D01*
X32632521Y-87269013D01*
X32632521Y-87187280D01*
X34801004Y-85018798D01*
X34830001Y-84995001D01*
X34924974Y-84879276D01*
X34995546Y-84747247D01*
X35039003Y-84603986D01*
X35050000Y-84492333D01*
X35050000Y-84492332D01*
X35053677Y-84455000D01*
X35050000Y-84417667D01*
X35050000Y-83421448D01*
X38998484Y-83421448D01*
X39001556Y-84050698D01*
X39160306Y-84209448D01*
X40474556Y-84209448D01*
X40474556Y-82945198D01*
X40728556Y-82945198D01*
X40728556Y-84209448D01*
X42042806Y-84209448D01*
X42201556Y-84050698D01*
X42204628Y-83421448D01*
X42192368Y-83296966D01*
X42156058Y-83177268D01*
X42097093Y-83066954D01*
X42017741Y-82970263D01*
X41921050Y-82890911D01*
X41810736Y-82831946D01*
X41691038Y-82795636D01*
X41566556Y-82783376D01*
X40887306Y-82786448D01*
X40728556Y-82945198D01*
X40474556Y-82945198D01*
X40315806Y-82786448D01*
X39636556Y-82783376D01*
X39512074Y-82795636D01*
X39392376Y-82831946D01*
X39282062Y-82890911D01*
X39185371Y-82970263D01*
X39106019Y-83066954D01*
X39047054Y-83177268D01*
X39010744Y-83296966D01*
X38998484Y-83421448D01*
X35050000Y-83421448D01*
X35050000Y-82746792D01*
X35072257Y-82756011D01*
X35368816Y-82815000D01*
X35671184Y-82815000D01*
X35967743Y-82756011D01*
X36247095Y-82640299D01*
X36498505Y-82472312D01*
X36712312Y-82258505D01*
X36770000Y-82172169D01*
X36827688Y-82258505D01*
X37041495Y-82472312D01*
X37292905Y-82640299D01*
X37572257Y-82756011D01*
X37868816Y-82815000D01*
X38171184Y-82815000D01*
X38467743Y-82756011D01*
X38747095Y-82640299D01*
X38998505Y-82472312D01*
X39212312Y-82258505D01*
X39358313Y-82040000D01*
X43777678Y-82040000D01*
X43815000Y-82043676D01*
X43852322Y-82040000D01*
X43852333Y-82040000D01*
X43963986Y-82029003D01*
X44107247Y-81985546D01*
X44239276Y-81914974D01*
X44355001Y-81820001D01*
X44378804Y-81790998D01*
X45060001Y-81109801D01*
X45060001Y-88815344D01*
X44929637Y-88620241D01*
X44729759Y-88420363D01*
X44494727Y-88263320D01*
X44233574Y-88155147D01*
X43956335Y-88100000D01*
X43673665Y-88100000D01*
X43396426Y-88155147D01*
X43135273Y-88263320D01*
X42900241Y-88420363D01*
X42700363Y-88620241D01*
X42543320Y-88855273D01*
X42435147Y-89116426D01*
X42380000Y-89393665D01*
X42380000Y-89676335D01*
X42416312Y-89858886D01*
X40090554Y-92184645D01*
X40061556Y-92208443D01*
X40037758Y-92237441D01*
X40037757Y-92237442D01*
X39966582Y-92324168D01*
X39896010Y-92456198D01*
X39875685Y-92523203D01*
X39857547Y-92583000D01*
X39852554Y-92599459D01*
X39837880Y-92748444D01*
X39841557Y-92785776D01*
X39841557Y-94211183D01*
X39796304Y-94229927D01*
X39517869Y-94415971D01*
X39281079Y-94652761D01*
X39095035Y-94931196D01*
X38966886Y-95240576D01*
X38901556Y-95569013D01*
X38901556Y-95903883D01*
X38966886Y-96232320D01*
X39095035Y-96541700D01*
X39281079Y-96820135D01*
X39517869Y-97056925D01*
X39796304Y-97242969D01*
X40105684Y-97371118D01*
X40434121Y-97436448D01*
X40768991Y-97436448D01*
X41097428Y-97371118D01*
X41406808Y-97242969D01*
X41685243Y-97056925D01*
X41922033Y-96820135D01*
X42108077Y-96541700D01*
X42236226Y-96232320D01*
X42301556Y-95903883D01*
X42301556Y-95569013D01*
X42236226Y-95240576D01*
X42108077Y-94931196D01*
X41922033Y-94652761D01*
X41685243Y-94415971D01*
X41406808Y-94229927D01*
X41361556Y-94211183D01*
X41361556Y-93063245D01*
X43491114Y-90933688D01*
X43673665Y-90970000D01*
X43956335Y-90970000D01*
X44233574Y-90914853D01*
X44494727Y-90806680D01*
X44729759Y-90649637D01*
X44929637Y-90449759D01*
X45060001Y-90254656D01*
X45060001Y-91990344D01*
X44929637Y-91795241D01*
X44729759Y-91595363D01*
X44494727Y-91438320D01*
X44233574Y-91330147D01*
X43956335Y-91275000D01*
X43673665Y-91275000D01*
X43396426Y-91330147D01*
X43135273Y-91438320D01*
X42900241Y-91595363D01*
X42700363Y-91795241D01*
X42543320Y-92030273D01*
X42435147Y-92291426D01*
X42380000Y-92568665D01*
X42380000Y-92851335D01*
X42435147Y-93128574D01*
X42543320Y-93389727D01*
X42700363Y-93624759D01*
X42900241Y-93824637D01*
X43135273Y-93981680D01*
X43396426Y-94089853D01*
X43673665Y-94145000D01*
X43956335Y-94145000D01*
X44233574Y-94089853D01*
X44494727Y-93981680D01*
X44729759Y-93824637D01*
X44929637Y-93624759D01*
X45060001Y-93429656D01*
X45060000Y-104325412D01*
X45039482Y-104319188D01*
X44915000Y-104306928D01*
X42715000Y-104306928D01*
X42590518Y-104319188D01*
X42470820Y-104355498D01*
X42360506Y-104414463D01*
X42263815Y-104493815D01*
X42184463Y-104590506D01*
X42125498Y-104700820D01*
X42089188Y-104820518D01*
X42076928Y-104945000D01*
X42076928Y-107145000D01*
X42089188Y-107269482D01*
X42125498Y-107389180D01*
X42184463Y-107499494D01*
X42263815Y-107596185D01*
X42360506Y-107675537D01*
X42470820Y-107734502D01*
X42590518Y-107770812D01*
X42715000Y-107783072D01*
X44915000Y-107783072D01*
X45039482Y-107770812D01*
X45060000Y-107764588D01*
X45060000Y-115006072D01*
X44999427Y-114937178D01*
X44729329Y-114730469D01*
X44424094Y-114580425D01*
X44211122Y-114515825D01*
X43942000Y-114633875D01*
X43942000Y-116078000D01*
X43962000Y-116078000D01*
X43962000Y-116332000D01*
X43942000Y-116332000D01*
X43942000Y-117776125D01*
X44211122Y-117894175D01*
X44424094Y-117829575D01*
X44729329Y-117679531D01*
X44999427Y-117472822D01*
X45060000Y-117403928D01*
X45060000Y-122470344D01*
X44929637Y-122275241D01*
X44729759Y-122075363D01*
X44494727Y-121918320D01*
X44233574Y-121810147D01*
X43956335Y-121755000D01*
X43673665Y-121755000D01*
X43396426Y-121810147D01*
X43135273Y-121918320D01*
X42900241Y-122075363D01*
X42700363Y-122275241D01*
X42543320Y-122510273D01*
X42435147Y-122771426D01*
X42380000Y-123048665D01*
X42380000Y-123331335D01*
X42435147Y-123608574D01*
X42543320Y-123869727D01*
X42700363Y-124104759D01*
X42900241Y-124304637D01*
X43135273Y-124461680D01*
X43396426Y-124569853D01*
X43673665Y-124625000D01*
X43956335Y-124625000D01*
X44233574Y-124569853D01*
X44494727Y-124461680D01*
X44729759Y-124304637D01*
X44929637Y-124104759D01*
X45060000Y-123909656D01*
X45060000Y-132630344D01*
X44929637Y-132435241D01*
X44729759Y-132235363D01*
X44494727Y-132078320D01*
X44233574Y-131970147D01*
X43956335Y-131915000D01*
X43673665Y-131915000D01*
X43396426Y-131970147D01*
X43135273Y-132078320D01*
X42900241Y-132235363D01*
X42700363Y-132435241D01*
X42543320Y-132670273D01*
X42435147Y-132931426D01*
X42380000Y-133208665D01*
X42380000Y-133491335D01*
X42435147Y-133768574D01*
X42543320Y-134029727D01*
X42700363Y-134264759D01*
X42900241Y-134464637D01*
X43135273Y-134621680D01*
X43396426Y-134729853D01*
X43673665Y-134785000D01*
X43956335Y-134785000D01*
X44233574Y-134729853D01*
X44494727Y-134621680D01*
X44729759Y-134464637D01*
X44929637Y-134264759D01*
X45060000Y-134069656D01*
X45060000Y-151740000D01*
X41769164Y-151740000D01*
X41960477Y-151548687D01*
X42146521Y-151270252D01*
X42274670Y-150960872D01*
X42340000Y-150632435D01*
X42340000Y-150297565D01*
X42274670Y-149969128D01*
X42146521Y-149659748D01*
X41960477Y-149381313D01*
X41723687Y-149144523D01*
X41445252Y-148958479D01*
X41135872Y-148830330D01*
X40807435Y-148765000D01*
X40472565Y-148765000D01*
X40144128Y-148830330D01*
X39834748Y-148958479D01*
X39556313Y-149144523D01*
X39319523Y-149381313D01*
X39133479Y-149659748D01*
X39005330Y-149969128D01*
X38940000Y-150297565D01*
X38940000Y-150632435D01*
X39005330Y-150960872D01*
X39133479Y-151270252D01*
X39319523Y-151548687D01*
X39510836Y-151740000D01*
X31609164Y-151740000D01*
X31800477Y-151548687D01*
X31986521Y-151270252D01*
X32114670Y-150960872D01*
X32180000Y-150632435D01*
X32180000Y-150297565D01*
X32114670Y-149969128D01*
X31986521Y-149659748D01*
X31800477Y-149381313D01*
X31563687Y-149144523D01*
X31285252Y-148958479D01*
X30975872Y-148830330D01*
X30647435Y-148765000D01*
X30312565Y-148765000D01*
X29984128Y-148830330D01*
X29674748Y-148958479D01*
X29396313Y-149144523D01*
X29159523Y-149381313D01*
X28973479Y-149659748D01*
X28845330Y-149969128D01*
X28780000Y-150297565D01*
X28780000Y-150632435D01*
X28845330Y-150960872D01*
X28973479Y-151270252D01*
X29159523Y-151548687D01*
X29350836Y-151740000D01*
X26060000Y-151740000D01*
X26060000Y-141997565D01*
X28780000Y-141997565D01*
X28780000Y-142332435D01*
X28845330Y-142660872D01*
X28973479Y-142970252D01*
X29159523Y-143248687D01*
X29396313Y-143485477D01*
X29674748Y-143671521D01*
X29984128Y-143799670D01*
X30312565Y-143865000D01*
X30647435Y-143865000D01*
X30975872Y-143799670D01*
X31285252Y-143671521D01*
X31563687Y-143485477D01*
X31800477Y-143248687D01*
X31986521Y-142970252D01*
X32114670Y-142660872D01*
X32180000Y-142332435D01*
X32180000Y-141997565D01*
X38940000Y-141997565D01*
X38940000Y-142332435D01*
X39005330Y-142660872D01*
X39133479Y-142970252D01*
X39319523Y-143248687D01*
X39556313Y-143485477D01*
X39834748Y-143671521D01*
X40144128Y-143799670D01*
X40472565Y-143865000D01*
X40807435Y-143865000D01*
X41135872Y-143799670D01*
X41445252Y-143671521D01*
X41723687Y-143485477D01*
X41960477Y-143248687D01*
X42146521Y-142970252D01*
X42274670Y-142660872D01*
X42340000Y-142332435D01*
X42340000Y-141997565D01*
X42274670Y-141669128D01*
X42146521Y-141359748D01*
X41960477Y-141081313D01*
X41723687Y-140844523D01*
X41445252Y-140658479D01*
X41344860Y-140616895D01*
X41605000Y-140618072D01*
X41729482Y-140605812D01*
X41849180Y-140569502D01*
X41959494Y-140510537D01*
X42056185Y-140431185D01*
X42135537Y-140334494D01*
X42194502Y-140224180D01*
X42230812Y-140104482D01*
X42243072Y-139980000D01*
X42240000Y-139350750D01*
X42081250Y-139192000D01*
X40767000Y-139192000D01*
X40767000Y-139212000D01*
X40513000Y-139212000D01*
X40513000Y-139192000D01*
X39198750Y-139192000D01*
X39040000Y-139350750D01*
X39036928Y-139980000D01*
X39049188Y-140104482D01*
X39085498Y-140224180D01*
X39144463Y-140334494D01*
X39223815Y-140431185D01*
X39320506Y-140510537D01*
X39430820Y-140569502D01*
X39550518Y-140605812D01*
X39675000Y-140618072D01*
X39935140Y-140616895D01*
X39834748Y-140658479D01*
X39556313Y-140844523D01*
X39319523Y-141081313D01*
X39133479Y-141359748D01*
X39005330Y-141669128D01*
X38940000Y-141997565D01*
X32180000Y-141997565D01*
X32114670Y-141669128D01*
X31986521Y-141359748D01*
X31800477Y-141081313D01*
X31563687Y-140844523D01*
X31285252Y-140658479D01*
X31184860Y-140616895D01*
X31445000Y-140618072D01*
X31569482Y-140605812D01*
X31689180Y-140569502D01*
X31799494Y-140510537D01*
X31896185Y-140431185D01*
X31975537Y-140334494D01*
X32034502Y-140224180D01*
X32070812Y-140104482D01*
X32083072Y-139980000D01*
X32080000Y-139350750D01*
X31921250Y-139192000D01*
X30607000Y-139192000D01*
X30607000Y-139212000D01*
X30353000Y-139212000D01*
X30353000Y-139192000D01*
X29038750Y-139192000D01*
X28880000Y-139350750D01*
X28876928Y-139980000D01*
X28889188Y-140104482D01*
X28925498Y-140224180D01*
X28984463Y-140334494D01*
X29063815Y-140431185D01*
X29160506Y-140510537D01*
X29270820Y-140569502D01*
X29390518Y-140605812D01*
X29515000Y-140618072D01*
X29775140Y-140616895D01*
X29674748Y-140658479D01*
X29396313Y-140844523D01*
X29159523Y-141081313D01*
X28973479Y-141359748D01*
X28845330Y-141669128D01*
X28780000Y-141997565D01*
X26060000Y-141997565D01*
X26060000Y-138150000D01*
X28876928Y-138150000D01*
X28880000Y-138779250D01*
X29038750Y-138938000D01*
X30353000Y-138938000D01*
X30353000Y-137673750D01*
X30607000Y-137673750D01*
X30607000Y-138938000D01*
X31921250Y-138938000D01*
X32080000Y-138779250D01*
X32083072Y-138150000D01*
X39036928Y-138150000D01*
X39040000Y-138779250D01*
X39198750Y-138938000D01*
X40513000Y-138938000D01*
X40513000Y-137673750D01*
X40767000Y-137673750D01*
X40767000Y-138938000D01*
X42081250Y-138938000D01*
X42240000Y-138779250D01*
X42243072Y-138150000D01*
X42230812Y-138025518D01*
X42194502Y-137905820D01*
X42135537Y-137795506D01*
X42056185Y-137698815D01*
X41959494Y-137619463D01*
X41849180Y-137560498D01*
X41729482Y-137524188D01*
X41605000Y-137511928D01*
X40925750Y-137515000D01*
X40767000Y-137673750D01*
X40513000Y-137673750D01*
X40354250Y-137515000D01*
X39675000Y-137511928D01*
X39550518Y-137524188D01*
X39430820Y-137560498D01*
X39320506Y-137619463D01*
X39223815Y-137698815D01*
X39144463Y-137795506D01*
X39085498Y-137905820D01*
X39049188Y-138025518D01*
X39036928Y-138150000D01*
X32083072Y-138150000D01*
X32070812Y-138025518D01*
X32034502Y-137905820D01*
X31975537Y-137795506D01*
X31896185Y-137698815D01*
X31799494Y-137619463D01*
X31689180Y-137560498D01*
X31569482Y-137524188D01*
X31445000Y-137511928D01*
X30765750Y-137515000D01*
X30607000Y-137673750D01*
X30353000Y-137673750D01*
X30194250Y-137515000D01*
X29515000Y-137511928D01*
X29390518Y-137524188D01*
X29270820Y-137560498D01*
X29160506Y-137619463D01*
X29063815Y-137698815D01*
X28984463Y-137795506D01*
X28925498Y-137905820D01*
X28889188Y-138025518D01*
X28876928Y-138150000D01*
X26060000Y-138150000D01*
X26060000Y-134069657D01*
X26190363Y-134264759D01*
X26390241Y-134464637D01*
X26625273Y-134621680D01*
X26886426Y-134729853D01*
X27163665Y-134785000D01*
X27446335Y-134785000D01*
X27723574Y-134729853D01*
X27984727Y-134621680D01*
X28219759Y-134464637D01*
X28419637Y-134264759D01*
X28576680Y-134029727D01*
X28684853Y-133768574D01*
X28694515Y-133720000D01*
X31481928Y-133720000D01*
X31481928Y-135520000D01*
X31494188Y-135644482D01*
X31530498Y-135764180D01*
X31589463Y-135874494D01*
X31668815Y-135971185D01*
X31765506Y-136050537D01*
X31875820Y-136109502D01*
X31995518Y-136145812D01*
X32120000Y-136158072D01*
X33920000Y-136158072D01*
X34044482Y-136145812D01*
X34164180Y-136109502D01*
X34274494Y-136050537D01*
X34371185Y-135971185D01*
X34450537Y-135874494D01*
X34503880Y-135774697D01*
X34541495Y-135812312D01*
X34792905Y-135980299D01*
X35072257Y-136096011D01*
X35368816Y-136155000D01*
X35671184Y-136155000D01*
X35967743Y-136096011D01*
X36247095Y-135980299D01*
X36498505Y-135812312D01*
X36712312Y-135598505D01*
X36770000Y-135512169D01*
X36827688Y-135598505D01*
X37041495Y-135812312D01*
X37292905Y-135980299D01*
X37572257Y-136096011D01*
X37868816Y-136155000D01*
X38171184Y-136155000D01*
X38467743Y-136096011D01*
X38747095Y-135980299D01*
X38998505Y-135812312D01*
X39212312Y-135598505D01*
X39380299Y-135347095D01*
X39496011Y-135067743D01*
X39555000Y-134771184D01*
X39555000Y-134468816D01*
X39496011Y-134172257D01*
X39380299Y-133892905D01*
X39212312Y-133641495D01*
X38998505Y-133427688D01*
X38747095Y-133259701D01*
X38467743Y-133143989D01*
X38436601Y-133137795D01*
X38579637Y-132994759D01*
X38736680Y-132759727D01*
X38844853Y-132498574D01*
X38900000Y-132221335D01*
X38900000Y-131938665D01*
X38844853Y-131661426D01*
X38736680Y-131400273D01*
X38579637Y-131165241D01*
X38379759Y-130965363D01*
X38144727Y-130808320D01*
X37883574Y-130700147D01*
X37606335Y-130645000D01*
X37323665Y-130645000D01*
X37046426Y-130700147D01*
X36785273Y-130808320D01*
X36550241Y-130965363D01*
X36350363Y-131165241D01*
X36193320Y-131400273D01*
X36085147Y-131661426D01*
X36030000Y-131938665D01*
X36030000Y-132221335D01*
X36085147Y-132498574D01*
X36193320Y-132759727D01*
X36350363Y-132994759D01*
X36550241Y-133194637D01*
X36785273Y-133351680D01*
X37020195Y-133448988D01*
X36827688Y-133641495D01*
X36770000Y-133727831D01*
X36712312Y-133641495D01*
X36498505Y-133427688D01*
X36247095Y-133259701D01*
X35967743Y-133143989D01*
X35671184Y-133085000D01*
X35368816Y-133085000D01*
X35300883Y-133098513D01*
X35404637Y-132994759D01*
X35561680Y-132759727D01*
X35669853Y-132498574D01*
X35725000Y-132221335D01*
X35725000Y-131938665D01*
X35669853Y-131661426D01*
X35561680Y-131400273D01*
X35404637Y-131165241D01*
X35204759Y-130965363D01*
X34969727Y-130808320D01*
X34708574Y-130700147D01*
X34431335Y-130645000D01*
X34148665Y-130645000D01*
X33871426Y-130700147D01*
X33610273Y-130808320D01*
X33375241Y-130965363D01*
X33175363Y-131165241D01*
X33018320Y-131400273D01*
X32910147Y-131661426D01*
X32855000Y-131938665D01*
X32855000Y-132221335D01*
X32910147Y-132498574D01*
X33018320Y-132759727D01*
X33175363Y-132994759D01*
X33262532Y-133081928D01*
X32120000Y-133081928D01*
X31995518Y-133094188D01*
X31875820Y-133130498D01*
X31765506Y-133189463D01*
X31668815Y-133268815D01*
X31589463Y-133365506D01*
X31530498Y-133475820D01*
X31494188Y-133595518D01*
X31481928Y-133720000D01*
X28694515Y-133720000D01*
X28740000Y-133491335D01*
X28740000Y-133208665D01*
X28684853Y-132931426D01*
X28576680Y-132670273D01*
X28419637Y-132435241D01*
X28219759Y-132235363D01*
X27984727Y-132078320D01*
X27723574Y-131970147D01*
X27446335Y-131915000D01*
X27163665Y-131915000D01*
X26886426Y-131970147D01*
X26625273Y-132078320D01*
X26390241Y-132235363D01*
X26190363Y-132435241D01*
X26060000Y-132630343D01*
X26060000Y-126762002D01*
X28725000Y-126762002D01*
X28725000Y-127477997D01*
X28753867Y-127771087D01*
X28867943Y-128147146D01*
X29053193Y-128493725D01*
X29302497Y-128797503D01*
X29606275Y-129046807D01*
X29952853Y-129232057D01*
X30328912Y-129346133D01*
X30720000Y-129384652D01*
X31111087Y-129346133D01*
X31487146Y-129232057D01*
X31833725Y-129046807D01*
X32137503Y-128797503D01*
X32386807Y-128493725D01*
X32572057Y-128147147D01*
X32686133Y-127771088D01*
X32715000Y-127477998D01*
X32715000Y-126762003D01*
X32715000Y-126762002D01*
X38325000Y-126762002D01*
X38325000Y-127477997D01*
X38353867Y-127771087D01*
X38467943Y-128147146D01*
X38653193Y-128493725D01*
X38902497Y-128797503D01*
X39206275Y-129046807D01*
X39552853Y-129232057D01*
X39928912Y-129346133D01*
X40320000Y-129384652D01*
X40711087Y-129346133D01*
X41087146Y-129232057D01*
X41433725Y-129046807D01*
X41737503Y-128797503D01*
X41986807Y-128493725D01*
X42172057Y-128147147D01*
X42286133Y-127771088D01*
X42315000Y-127477998D01*
X42315000Y-126762003D01*
X42286133Y-126468913D01*
X42172057Y-126092853D01*
X41986807Y-125746275D01*
X41737503Y-125442497D01*
X41433725Y-125193193D01*
X41087147Y-125007943D01*
X40711088Y-124893867D01*
X40320000Y-124855348D01*
X39928913Y-124893867D01*
X39552854Y-125007943D01*
X39206276Y-125193193D01*
X38902498Y-125442497D01*
X38653193Y-125746275D01*
X38467943Y-126092853D01*
X38353867Y-126468912D01*
X38325000Y-126762002D01*
X32715000Y-126762002D01*
X32686133Y-126468913D01*
X32572057Y-126092853D01*
X32386807Y-125746275D01*
X32137503Y-125442497D01*
X31833725Y-125193193D01*
X31487147Y-125007943D01*
X31111088Y-124893867D01*
X30720000Y-124855348D01*
X30328913Y-124893867D01*
X29952854Y-125007943D01*
X29606276Y-125193193D01*
X29302498Y-125442497D01*
X29053193Y-125746275D01*
X28867943Y-126092853D01*
X28753867Y-126468912D01*
X28725000Y-126762002D01*
X26060000Y-126762002D01*
X26060000Y-123909657D01*
X26190363Y-124104759D01*
X26390241Y-124304637D01*
X26625273Y-124461680D01*
X26886426Y-124569853D01*
X27163665Y-124625000D01*
X27446335Y-124625000D01*
X27723574Y-124569853D01*
X27984727Y-124461680D01*
X28219759Y-124304637D01*
X28419637Y-124104759D01*
X28576680Y-123869727D01*
X28684853Y-123608574D01*
X28740000Y-123331335D01*
X28740000Y-123048665D01*
X28684853Y-122771426D01*
X28576680Y-122510273D01*
X28419637Y-122275241D01*
X28219759Y-122075363D01*
X27984727Y-121918320D01*
X27723574Y-121810147D01*
X27565306Y-121778665D01*
X32855000Y-121778665D01*
X32855000Y-122061335D01*
X32910147Y-122338574D01*
X33018320Y-122599727D01*
X33175363Y-122834759D01*
X33375241Y-123034637D01*
X33610273Y-123191680D01*
X33871426Y-123299853D01*
X34148665Y-123355000D01*
X34431335Y-123355000D01*
X34708574Y-123299853D01*
X34969727Y-123191680D01*
X35204759Y-123034637D01*
X35404637Y-122834759D01*
X35561680Y-122599727D01*
X35669853Y-122338574D01*
X35725000Y-122061335D01*
X35725000Y-121778665D01*
X35669853Y-121501426D01*
X35561680Y-121240273D01*
X35404637Y-121005241D01*
X35204759Y-120805363D01*
X34969727Y-120648320D01*
X34708574Y-120540147D01*
X34431335Y-120485000D01*
X34148665Y-120485000D01*
X33871426Y-120540147D01*
X33610273Y-120648320D01*
X33375241Y-120805363D01*
X33175363Y-121005241D01*
X33018320Y-121240273D01*
X32910147Y-121501426D01*
X32855000Y-121778665D01*
X27565306Y-121778665D01*
X27446335Y-121755000D01*
X27163665Y-121755000D01*
X26886426Y-121810147D01*
X26625273Y-121918320D01*
X26390241Y-122075363D01*
X26190363Y-122275241D01*
X26060000Y-122470343D01*
X26060000Y-119238665D01*
X29045000Y-119238665D01*
X29045000Y-119521335D01*
X29100147Y-119798574D01*
X29208320Y-120059727D01*
X29365363Y-120294759D01*
X29565241Y-120494637D01*
X29800273Y-120651680D01*
X30061426Y-120759853D01*
X30338665Y-120815000D01*
X30621335Y-120815000D01*
X30898574Y-120759853D01*
X31159727Y-120651680D01*
X31394759Y-120494637D01*
X31594637Y-120294759D01*
X31698043Y-120140000D01*
X34610199Y-120140000D01*
X36066312Y-121596114D01*
X36030000Y-121778665D01*
X36030000Y-122061335D01*
X36085147Y-122338574D01*
X36193320Y-122599727D01*
X36350363Y-122834759D01*
X36550241Y-123034637D01*
X36785273Y-123191680D01*
X37046426Y-123299853D01*
X37323665Y-123355000D01*
X37606335Y-123355000D01*
X37883574Y-123299853D01*
X38144727Y-123191680D01*
X38379759Y-123034637D01*
X38579637Y-122834759D01*
X38736680Y-122599727D01*
X38844853Y-122338574D01*
X38900000Y-122061335D01*
X38900000Y-121778665D01*
X38844853Y-121501426D01*
X38736680Y-121240273D01*
X38579637Y-121005241D01*
X38379759Y-120805363D01*
X38144727Y-120648320D01*
X37883574Y-120540147D01*
X37606335Y-120485000D01*
X37323665Y-120485000D01*
X37141114Y-120521312D01*
X35858467Y-119238665D01*
X39205000Y-119238665D01*
X39205000Y-119521335D01*
X39260147Y-119798574D01*
X39368320Y-120059727D01*
X39525363Y-120294759D01*
X39725241Y-120494637D01*
X39960273Y-120651680D01*
X40221426Y-120759853D01*
X40498665Y-120815000D01*
X40781335Y-120815000D01*
X41058574Y-120759853D01*
X41319727Y-120651680D01*
X41554759Y-120494637D01*
X41754637Y-120294759D01*
X41911680Y-120059727D01*
X42019853Y-119798574D01*
X42075000Y-119521335D01*
X42075000Y-119238665D01*
X42019853Y-118961426D01*
X41911680Y-118700273D01*
X41754637Y-118465241D01*
X41554759Y-118265363D01*
X41319727Y-118108320D01*
X41058574Y-118000147D01*
X40781335Y-117945000D01*
X40498665Y-117945000D01*
X40221426Y-118000147D01*
X39960273Y-118108320D01*
X39725241Y-118265363D01*
X39525363Y-118465241D01*
X39368320Y-118700273D01*
X39260147Y-118961426D01*
X39205000Y-119238665D01*
X35858467Y-119238665D01*
X35488804Y-118869003D01*
X35465001Y-118839999D01*
X35349276Y-118745026D01*
X35217247Y-118674454D01*
X35073986Y-118630997D01*
X34962333Y-118620000D01*
X34962322Y-118620000D01*
X34925000Y-118616324D01*
X34887678Y-118620000D01*
X31698043Y-118620000D01*
X31594637Y-118465241D01*
X31394759Y-118265363D01*
X31159727Y-118108320D01*
X30898574Y-118000147D01*
X30621335Y-117945000D01*
X30338665Y-117945000D01*
X30061426Y-118000147D01*
X29800273Y-118108320D01*
X29565241Y-118265363D01*
X29365363Y-118465241D01*
X29208320Y-118700273D01*
X29100147Y-118961426D01*
X29045000Y-119238665D01*
X26060000Y-119238665D01*
X26060000Y-117924588D01*
X26080518Y-117930812D01*
X26205000Y-117943072D01*
X27019250Y-117940000D01*
X27178000Y-117781250D01*
X27178000Y-116332000D01*
X27432000Y-116332000D01*
X27432000Y-117781250D01*
X27590750Y-117940000D01*
X28405000Y-117943072D01*
X28529482Y-117930812D01*
X28649180Y-117894502D01*
X28759494Y-117835537D01*
X28856185Y-117756185D01*
X28935537Y-117659494D01*
X28994502Y-117549180D01*
X29030812Y-117429482D01*
X29043072Y-117305000D01*
X29040000Y-116490750D01*
X28881250Y-116332000D01*
X27432000Y-116332000D01*
X27178000Y-116332000D01*
X27158000Y-116332000D01*
X27158000Y-116078000D01*
X27178000Y-116078000D01*
X27178000Y-114628750D01*
X27432000Y-114628750D01*
X27432000Y-116078000D01*
X28881250Y-116078000D01*
X29040000Y-115919250D01*
X29043072Y-115105000D01*
X29030812Y-114980518D01*
X28994502Y-114860820D01*
X28935537Y-114750506D01*
X28856185Y-114653815D01*
X28759494Y-114574463D01*
X28649180Y-114515498D01*
X28529482Y-114479188D01*
X28405000Y-114466928D01*
X27590750Y-114470000D01*
X27432000Y-114628750D01*
X27178000Y-114628750D01*
X27019250Y-114470000D01*
X26205000Y-114466928D01*
X26080518Y-114479188D01*
X26060000Y-114485412D01*
X26060000Y-108982002D01*
X28725000Y-108982002D01*
X28725000Y-109697997D01*
X28753867Y-109991087D01*
X28867943Y-110367146D01*
X29053193Y-110713725D01*
X29302497Y-111017503D01*
X29606275Y-111266807D01*
X29952853Y-111452057D01*
X30328912Y-111566133D01*
X30720000Y-111604652D01*
X31111087Y-111566133D01*
X31487146Y-111452057D01*
X31833725Y-111266807D01*
X32137503Y-111017503D01*
X32386807Y-110713725D01*
X32572057Y-110367147D01*
X32686133Y-109991088D01*
X32715000Y-109697998D01*
X32715000Y-108982003D01*
X32686133Y-108688913D01*
X32572057Y-108312853D01*
X32386807Y-107966275D01*
X32137503Y-107662497D01*
X31833725Y-107413193D01*
X31487147Y-107227943D01*
X31111088Y-107113867D01*
X30720000Y-107075348D01*
X30328913Y-107113867D01*
X29952854Y-107227943D01*
X29606276Y-107413193D01*
X29302498Y-107662497D01*
X29053193Y-107966275D01*
X28867943Y-108312853D01*
X28753867Y-108688912D01*
X28725000Y-108982002D01*
X26060000Y-108982002D01*
X26060000Y-107253661D01*
X26199002Y-107392663D01*
X26483169Y-107582537D01*
X26798919Y-107713325D01*
X27134117Y-107780000D01*
X27475883Y-107780000D01*
X27811081Y-107713325D01*
X28126831Y-107582537D01*
X28410998Y-107392663D01*
X28652663Y-107150998D01*
X28842537Y-106866831D01*
X28973325Y-106551081D01*
X29040000Y-106215883D01*
X29040000Y-105874117D01*
X28973325Y-105538919D01*
X28842537Y-105223169D01*
X28652663Y-104939002D01*
X28410998Y-104697337D01*
X28126831Y-104507463D01*
X27811081Y-104376675D01*
X27475883Y-104310000D01*
X27134117Y-104310000D01*
X26798919Y-104376675D01*
X26483169Y-104507463D01*
X26199002Y-104697337D01*
X26060000Y-104836339D01*
X26060000Y-99548740D01*
X28995000Y-99548740D01*
X28995000Y-99841260D01*
X29052068Y-100128158D01*
X29164010Y-100398411D01*
X29326525Y-100641632D01*
X29533368Y-100848475D01*
X29707760Y-100965000D01*
X29533368Y-101081525D01*
X29326525Y-101288368D01*
X29164010Y-101531589D01*
X29052068Y-101801842D01*
X28995000Y-102088740D01*
X28995000Y-102381260D01*
X29052068Y-102668158D01*
X29164010Y-102938411D01*
X29326525Y-103181632D01*
X29533368Y-103388475D01*
X29776589Y-103550990D01*
X30046842Y-103662932D01*
X30333740Y-103720000D01*
X30626260Y-103720000D01*
X30913158Y-103662932D01*
X31183411Y-103550990D01*
X31426632Y-103388475D01*
X31633475Y-103181632D01*
X31755195Y-102999466D01*
X31824822Y-103116355D01*
X32019731Y-103332588D01*
X32253080Y-103506641D01*
X32515901Y-103631825D01*
X32663110Y-103676476D01*
X32893000Y-103555155D01*
X32893000Y-102362000D01*
X33147000Y-102362000D01*
X33147000Y-103555155D01*
X33376890Y-103676476D01*
X33524099Y-103631825D01*
X33786920Y-103506641D01*
X34020269Y-103332588D01*
X34215178Y-103116355D01*
X34290000Y-102990745D01*
X34364822Y-103116355D01*
X34559731Y-103332588D01*
X34793080Y-103506641D01*
X35055901Y-103631825D01*
X35203110Y-103676476D01*
X35433000Y-103555155D01*
X35433000Y-102362000D01*
X33147000Y-102362000D01*
X32893000Y-102362000D01*
X32873000Y-102362000D01*
X32873000Y-102108000D01*
X32893000Y-102108000D01*
X32893000Y-99822000D01*
X33147000Y-99822000D01*
X33147000Y-102108000D01*
X35433000Y-102108000D01*
X35433000Y-99822000D01*
X33147000Y-99822000D01*
X32893000Y-99822000D01*
X32873000Y-99822000D01*
X32873000Y-99568000D01*
X32893000Y-99568000D01*
X32893000Y-98374845D01*
X32663110Y-98253524D01*
X32515901Y-98298175D01*
X32253080Y-98423359D01*
X32019731Y-98597412D01*
X31824822Y-98813645D01*
X31755195Y-98930534D01*
X31633475Y-98748368D01*
X31426632Y-98541525D01*
X31183411Y-98379010D01*
X30913158Y-98267068D01*
X30626260Y-98210000D01*
X30333740Y-98210000D01*
X30046842Y-98267068D01*
X29776589Y-98379010D01*
X29533368Y-98541525D01*
X29326525Y-98748368D01*
X29164010Y-98991589D01*
X29052068Y-99261842D01*
X28995000Y-99548740D01*
X26060000Y-99548740D01*
X26060000Y-90624432D01*
X26153320Y-90849727D01*
X26310363Y-91084759D01*
X26510241Y-91284637D01*
X26745273Y-91441680D01*
X27006426Y-91549853D01*
X27283665Y-91605000D01*
X27566335Y-91605000D01*
X27843574Y-91549853D01*
X28104727Y-91441680D01*
X28339759Y-91284637D01*
X28539637Y-91084759D01*
X28696680Y-90849727D01*
X28804853Y-90588574D01*
X28860000Y-90311335D01*
X28860000Y-90028665D01*
X28804853Y-89751426D01*
X28696680Y-89490273D01*
X28539637Y-89255241D01*
X28339759Y-89055363D01*
X28104727Y-88898320D01*
X27843574Y-88790147D01*
X27566335Y-88735000D01*
X27283665Y-88735000D01*
X27006426Y-88790147D01*
X26745273Y-88898320D01*
X26510241Y-89055363D01*
X26310363Y-89255241D01*
X26153320Y-89490273D01*
X26060000Y-89715568D01*
X26060000Y-83424119D01*
X28879448Y-83424119D01*
X28882520Y-84053369D01*
X29041270Y-84212119D01*
X30355520Y-84212119D01*
X30355520Y-82947869D01*
X30609520Y-82947869D01*
X30609520Y-84212119D01*
X31923770Y-84212119D01*
X32082520Y-84053369D01*
X32085592Y-83424119D01*
X32073332Y-83299637D01*
X32037022Y-83179939D01*
X31978057Y-83069625D01*
X31898705Y-82972934D01*
X31802014Y-82893582D01*
X31691700Y-82834617D01*
X31572002Y-82798307D01*
X31447520Y-82786047D01*
X30768270Y-82789119D01*
X30609520Y-82947869D01*
X30355520Y-82947869D01*
X30196770Y-82789119D01*
X29517520Y-82786047D01*
X29393038Y-82798307D01*
X29273340Y-82834617D01*
X29163026Y-82893582D01*
X29066335Y-82972934D01*
X28986983Y-83069625D01*
X28928018Y-83179939D01*
X28891708Y-83299637D01*
X28879448Y-83424119D01*
X26060000Y-83424119D01*
X26060000Y-80729657D01*
X26190363Y-80924759D01*
G37*
G04 #@! TD.AperFunction*
D24*
X26501928Y-45250000D02*
X26514188Y-45374482D01*
X26550498Y-45494180D01*
X26609463Y-45604494D01*
X26688815Y-45701185D01*
X26785506Y-45780537D01*
X26895820Y-45839502D01*
X27015518Y-45875812D01*
X27140000Y-45888072D01*
X28740000Y-45888072D01*
X28864482Y-45875812D01*
X28984180Y-45839502D01*
X29094494Y-45780537D01*
X29191185Y-45701185D01*
X29270537Y-45604494D01*
X29329502Y-45494180D01*
X29365812Y-45374482D01*
X29366643Y-45366039D01*
X29565241Y-45564637D01*
X29800273Y-45721680D01*
X30061426Y-45829853D01*
X30338665Y-45885000D01*
X30621335Y-45885000D01*
X30898574Y-45829853D01*
X31159727Y-45721680D01*
X31394759Y-45564637D01*
X31594637Y-45364759D01*
X31751680Y-45129727D01*
X31756067Y-45119135D01*
X31867615Y-45305131D01*
X32056586Y-45513519D01*
X32282580Y-45681037D01*
X32536913Y-45801246D01*
X32670961Y-45841904D01*
X32893000Y-45719915D01*
X32893000Y-44577000D01*
X32873000Y-44577000D01*
X32873000Y-44323000D01*
X32893000Y-44323000D01*
X32893000Y-44303000D01*
X33147000Y-44303000D01*
X33147000Y-44323000D01*
X33167000Y-44323000D01*
X33167000Y-44577000D01*
X33147000Y-44577000D01*
X33147000Y-45719915D01*
X33369039Y-45841904D01*
X33503087Y-45801246D01*
X33757420Y-45681037D01*
X33983414Y-45513519D01*
X34172385Y-45305131D01*
X34283933Y-45119135D01*
X34288320Y-45129727D01*
X34445363Y-45364759D01*
X34645241Y-45564637D01*
X34880273Y-45721680D01*
X35141426Y-45829853D01*
X35418665Y-45885000D01*
X35701335Y-45885000D01*
X35883887Y-45848688D01*
X40670198Y-50635000D01*
X40498665Y-50635000D01*
X40221426Y-50690147D01*
X39960273Y-50798320D01*
X39725241Y-50955363D01*
X39525363Y-51155241D01*
X39368320Y-51390273D01*
X39363933Y-51400865D01*
X39252385Y-51214869D01*
X39063414Y-51006481D01*
X38837420Y-50838963D01*
X38583087Y-50718754D01*
X38449039Y-50678096D01*
X38227000Y-50800085D01*
X38227000Y-51943000D01*
X38247000Y-51943000D01*
X38247000Y-52197000D01*
X38227000Y-52197000D01*
X38227000Y-53339915D01*
X38449039Y-53461904D01*
X38583087Y-53421246D01*
X38837420Y-53301037D01*
X39063414Y-53133519D01*
X39252385Y-52925131D01*
X39363933Y-52739135D01*
X39368320Y-52749727D01*
X39525363Y-52984759D01*
X39725241Y-53184637D01*
X39960273Y-53341680D01*
X40221426Y-53449853D01*
X40498665Y-53505000D01*
X40781335Y-53505000D01*
X41058574Y-53449853D01*
X41294999Y-53351923D01*
X41294999Y-53999042D01*
X41087147Y-53887943D01*
X40711088Y-53773867D01*
X40320000Y-53735348D01*
X39928913Y-53773867D01*
X39552854Y-53887943D01*
X39206276Y-54073193D01*
X38902498Y-54322497D01*
X38653193Y-54626275D01*
X38467943Y-54972853D01*
X38353867Y-55348912D01*
X38325000Y-55642002D01*
X38325000Y-56357997D01*
X38353867Y-56651087D01*
X38467943Y-57027146D01*
X38653193Y-57373725D01*
X38902497Y-57677503D01*
X39206275Y-57926807D01*
X39552853Y-58112057D01*
X39928912Y-58226133D01*
X40320000Y-58264652D01*
X40711087Y-58226133D01*
X41087146Y-58112057D01*
X41295000Y-58000957D01*
X41295000Y-59043078D01*
X41058574Y-58945147D01*
X40781335Y-58890000D01*
X40498665Y-58890000D01*
X40221426Y-58945147D01*
X39960273Y-59053320D01*
X39725241Y-59210363D01*
X39525363Y-59410241D01*
X39368320Y-59645273D01*
X39260147Y-59906426D01*
X39205000Y-60183665D01*
X39205000Y-60466335D01*
X39260147Y-60743574D01*
X39368320Y-61004727D01*
X39525363Y-61239759D01*
X39725241Y-61439637D01*
X39960273Y-61596680D01*
X40221426Y-61704853D01*
X40498665Y-61760000D01*
X40781335Y-61760000D01*
X41058574Y-61704853D01*
X41319727Y-61596680D01*
X41420231Y-61529526D01*
X41491200Y-61616001D01*
X41514999Y-61645000D01*
X41543997Y-61668798D01*
X43303738Y-63428540D01*
X43135273Y-63498320D01*
X42900241Y-63655363D01*
X42700363Y-63855241D01*
X42543320Y-64090273D01*
X42435147Y-64351426D01*
X42380000Y-64628665D01*
X42380000Y-64911335D01*
X42411997Y-65072194D01*
X42378804Y-65039001D01*
X42355002Y-65009998D01*
X42239277Y-64915025D01*
X42107248Y-64844453D01*
X41963987Y-64800996D01*
X41852334Y-64789999D01*
X41852323Y-64789999D01*
X41815001Y-64786323D01*
X41777679Y-64789999D01*
X40424803Y-64789999D01*
X40516004Y-64698798D01*
X40545001Y-64675001D01*
X40639974Y-64559276D01*
X40710546Y-64427247D01*
X40754003Y-64283986D01*
X40765000Y-64172333D01*
X40765000Y-64172324D01*
X40768676Y-64135001D01*
X40765000Y-64097678D01*
X40765000Y-63709320D01*
X40768676Y-63671997D01*
X40765000Y-63634674D01*
X40765000Y-63634666D01*
X40754003Y-63523012D01*
X40710546Y-63379751D01*
X40686626Y-63335000D01*
X40639974Y-63247721D01*
X40568799Y-63160995D01*
X40545001Y-63131997D01*
X40516003Y-63108199D01*
X37590000Y-60182197D01*
X37590000Y-53408526D01*
X37616913Y-53421246D01*
X37750961Y-53461904D01*
X37973000Y-53339915D01*
X37973000Y-52197000D01*
X37953000Y-52197000D01*
X37953000Y-51943000D01*
X37973000Y-51943000D01*
X37973000Y-50800085D01*
X37750961Y-50678096D01*
X37616913Y-50718754D01*
X37362580Y-50838963D01*
X37193843Y-50964039D01*
X36663804Y-50434001D01*
X36640002Y-50404998D01*
X36524277Y-50310025D01*
X36392248Y-50239453D01*
X36248987Y-50195996D01*
X36137334Y-50184999D01*
X36137323Y-50184999D01*
X36100001Y-50181323D01*
X36062679Y-50184999D01*
X29102326Y-50184999D01*
X29065001Y-50181323D01*
X29027676Y-50184999D01*
X29027668Y-50184999D01*
X28916015Y-50195996D01*
X28772754Y-50239453D01*
X28640725Y-50310025D01*
X28525000Y-50404998D01*
X28501202Y-50433996D01*
X28263886Y-50671312D01*
X28081335Y-50635000D01*
X27798665Y-50635000D01*
X27521426Y-50690147D01*
X27260273Y-50798320D01*
X27025241Y-50955363D01*
X26825363Y-51155241D01*
X26668320Y-51390273D01*
X26560147Y-51651426D01*
X26505000Y-51928665D01*
X26505000Y-52211335D01*
X26560147Y-52488574D01*
X26668320Y-52749727D01*
X26825363Y-52984759D01*
X27025241Y-53184637D01*
X27045882Y-53198429D01*
X26886426Y-53230147D01*
X26625273Y-53338320D01*
X26390241Y-53495363D01*
X26190363Y-53695241D01*
X26060000Y-53890343D01*
X26060000Y-43840000D01*
X26501928Y-43840000D01*
X26501928Y-45250000D01*
G04 #@! TA.AperFunction,Conductor*
D25*
G36*
X26501928Y-45250000D02*
G01*
X26514188Y-45374482D01*
X26550498Y-45494180D01*
X26609463Y-45604494D01*
X26688815Y-45701185D01*
X26785506Y-45780537D01*
X26895820Y-45839502D01*
X27015518Y-45875812D01*
X27140000Y-45888072D01*
X28740000Y-45888072D01*
X28864482Y-45875812D01*
X28984180Y-45839502D01*
X29094494Y-45780537D01*
X29191185Y-45701185D01*
X29270537Y-45604494D01*
X29329502Y-45494180D01*
X29365812Y-45374482D01*
X29366643Y-45366039D01*
X29565241Y-45564637D01*
X29800273Y-45721680D01*
X30061426Y-45829853D01*
X30338665Y-45885000D01*
X30621335Y-45885000D01*
X30898574Y-45829853D01*
X31159727Y-45721680D01*
X31394759Y-45564637D01*
X31594637Y-45364759D01*
X31751680Y-45129727D01*
X31756067Y-45119135D01*
X31867615Y-45305131D01*
X32056586Y-45513519D01*
X32282580Y-45681037D01*
X32536913Y-45801246D01*
X32670961Y-45841904D01*
X32893000Y-45719915D01*
X32893000Y-44577000D01*
X32873000Y-44577000D01*
X32873000Y-44323000D01*
X32893000Y-44323000D01*
X32893000Y-44303000D01*
X33147000Y-44303000D01*
X33147000Y-44323000D01*
X33167000Y-44323000D01*
X33167000Y-44577000D01*
X33147000Y-44577000D01*
X33147000Y-45719915D01*
X33369039Y-45841904D01*
X33503087Y-45801246D01*
X33757420Y-45681037D01*
X33983414Y-45513519D01*
X34172385Y-45305131D01*
X34283933Y-45119135D01*
X34288320Y-45129727D01*
X34445363Y-45364759D01*
X34645241Y-45564637D01*
X34880273Y-45721680D01*
X35141426Y-45829853D01*
X35418665Y-45885000D01*
X35701335Y-45885000D01*
X35883887Y-45848688D01*
X40670198Y-50635000D01*
X40498665Y-50635000D01*
X40221426Y-50690147D01*
X39960273Y-50798320D01*
X39725241Y-50955363D01*
X39525363Y-51155241D01*
X39368320Y-51390273D01*
X39363933Y-51400865D01*
X39252385Y-51214869D01*
X39063414Y-51006481D01*
X38837420Y-50838963D01*
X38583087Y-50718754D01*
X38449039Y-50678096D01*
X38227000Y-50800085D01*
X38227000Y-51943000D01*
X38247000Y-51943000D01*
X38247000Y-52197000D01*
X38227000Y-52197000D01*
X38227000Y-53339915D01*
X38449039Y-53461904D01*
X38583087Y-53421246D01*
X38837420Y-53301037D01*
X39063414Y-53133519D01*
X39252385Y-52925131D01*
X39363933Y-52739135D01*
X39368320Y-52749727D01*
X39525363Y-52984759D01*
X39725241Y-53184637D01*
X39960273Y-53341680D01*
X40221426Y-53449853D01*
X40498665Y-53505000D01*
X40781335Y-53505000D01*
X41058574Y-53449853D01*
X41294999Y-53351923D01*
X41294999Y-53999042D01*
X41087147Y-53887943D01*
X40711088Y-53773867D01*
X40320000Y-53735348D01*
X39928913Y-53773867D01*
X39552854Y-53887943D01*
X39206276Y-54073193D01*
X38902498Y-54322497D01*
X38653193Y-54626275D01*
X38467943Y-54972853D01*
X38353867Y-55348912D01*
X38325000Y-55642002D01*
X38325000Y-56357997D01*
X38353867Y-56651087D01*
X38467943Y-57027146D01*
X38653193Y-57373725D01*
X38902497Y-57677503D01*
X39206275Y-57926807D01*
X39552853Y-58112057D01*
X39928912Y-58226133D01*
X40320000Y-58264652D01*
X40711087Y-58226133D01*
X41087146Y-58112057D01*
X41295000Y-58000957D01*
X41295000Y-59043078D01*
X41058574Y-58945147D01*
X40781335Y-58890000D01*
X40498665Y-58890000D01*
X40221426Y-58945147D01*
X39960273Y-59053320D01*
X39725241Y-59210363D01*
X39525363Y-59410241D01*
X39368320Y-59645273D01*
X39260147Y-59906426D01*
X39205000Y-60183665D01*
X39205000Y-60466335D01*
X39260147Y-60743574D01*
X39368320Y-61004727D01*
X39525363Y-61239759D01*
X39725241Y-61439637D01*
X39960273Y-61596680D01*
X40221426Y-61704853D01*
X40498665Y-61760000D01*
X40781335Y-61760000D01*
X41058574Y-61704853D01*
X41319727Y-61596680D01*
X41420231Y-61529526D01*
X41491200Y-61616001D01*
X41514999Y-61645000D01*
X41543997Y-61668798D01*
X43303738Y-63428540D01*
X43135273Y-63498320D01*
X42900241Y-63655363D01*
X42700363Y-63855241D01*
X42543320Y-64090273D01*
X42435147Y-64351426D01*
X42380000Y-64628665D01*
X42380000Y-64911335D01*
X42411997Y-65072194D01*
X42378804Y-65039001D01*
X42355002Y-65009998D01*
X42239277Y-64915025D01*
X42107248Y-64844453D01*
X41963987Y-64800996D01*
X41852334Y-64789999D01*
X41852323Y-64789999D01*
X41815001Y-64786323D01*
X41777679Y-64789999D01*
X40424803Y-64789999D01*
X40516004Y-64698798D01*
X40545001Y-64675001D01*
X40639974Y-64559276D01*
X40710546Y-64427247D01*
X40754003Y-64283986D01*
X40765000Y-64172333D01*
X40765000Y-64172324D01*
X40768676Y-64135001D01*
X40765000Y-64097678D01*
X40765000Y-63709320D01*
X40768676Y-63671997D01*
X40765000Y-63634674D01*
X40765000Y-63634666D01*
X40754003Y-63523012D01*
X40710546Y-63379751D01*
X40686626Y-63335000D01*
X40639974Y-63247721D01*
X40568799Y-63160995D01*
X40545001Y-63131997D01*
X40516003Y-63108199D01*
X37590000Y-60182197D01*
X37590000Y-53408526D01*
X37616913Y-53421246D01*
X37750961Y-53461904D01*
X37973000Y-53339915D01*
X37973000Y-52197000D01*
X37953000Y-52197000D01*
X37953000Y-51943000D01*
X37973000Y-51943000D01*
X37973000Y-50800085D01*
X37750961Y-50678096D01*
X37616913Y-50718754D01*
X37362580Y-50838963D01*
X37193843Y-50964039D01*
X36663804Y-50434001D01*
X36640002Y-50404998D01*
X36524277Y-50310025D01*
X36392248Y-50239453D01*
X36248987Y-50195996D01*
X36137334Y-50184999D01*
X36137323Y-50184999D01*
X36100001Y-50181323D01*
X36062679Y-50184999D01*
X29102326Y-50184999D01*
X29065001Y-50181323D01*
X29027676Y-50184999D01*
X29027668Y-50184999D01*
X28916015Y-50195996D01*
X28772754Y-50239453D01*
X28640725Y-50310025D01*
X28525000Y-50404998D01*
X28501202Y-50433996D01*
X28263886Y-50671312D01*
X28081335Y-50635000D01*
X27798665Y-50635000D01*
X27521426Y-50690147D01*
X27260273Y-50798320D01*
X27025241Y-50955363D01*
X26825363Y-51155241D01*
X26668320Y-51390273D01*
X26560147Y-51651426D01*
X26505000Y-51928665D01*
X26505000Y-52211335D01*
X26560147Y-52488574D01*
X26668320Y-52749727D01*
X26825363Y-52984759D01*
X27025241Y-53184637D01*
X27045882Y-53198429D01*
X26886426Y-53230147D01*
X26625273Y-53338320D01*
X26390241Y-53495363D01*
X26190363Y-53695241D01*
X26060000Y-53890343D01*
X26060000Y-43840000D01*
X26501928Y-43840000D01*
X26501928Y-45250000D01*
G37*
G04 #@! TD.AperFunction*
G04 #@! TD*
M02*
