G04 #@! TF.GenerationSoftware,KiCad,Pcbnew,5.1.7-1.fc31*
G04 #@! TF.CreationDate,2021-04-18T18:46:58-04:00*
G04 #@! TF.ProjectId,offsetAttenuverter,6f666673-6574-4417-9474-656e75766572,rev?*
G04 #@! TF.SameCoordinates,Original*
G04 #@! TF.FileFunction,Copper,L1,Top*
G04 #@! TF.FilePolarity,Positive*
%FSLAX46Y46*%
G04 Gerber Fmt 4.6, Leading zero omitted, Abs format (unit mm)*
G04 Created by KiCad (PCBNEW 5.1.7-1.fc31) date 2021-04-18 18:46:58*
%MOMM*%
%LPD*%
G01*
G04 APERTURE LIST*
G04 #@! TA.AperFunction,ComponentPad*
%ADD10C,2.130000*%
G04 #@! TD*
G04 #@! TA.AperFunction,ComponentPad*
%ADD11R,1.930000X1.830000*%
G04 #@! TD*
G04 #@! TA.AperFunction,ComponentPad*
%ADD12O,1.600000X1.600000*%
G04 #@! TD*
G04 #@! TA.AperFunction,ComponentPad*
%ADD13R,1.600000X1.600000*%
G04 #@! TD*
G04 #@! TA.AperFunction,ComponentPad*
%ADD14O,2.720000X3.240000*%
G04 #@! TD*
G04 #@! TA.AperFunction,ComponentPad*
%ADD15C,1.800000*%
G04 #@! TD*
G04 #@! TA.AperFunction,ComponentPad*
%ADD16R,1.800000X1.800000*%
G04 #@! TD*
G04 #@! TA.AperFunction,ComponentPad*
%ADD17C,1.600000*%
G04 #@! TD*
G04 #@! TA.AperFunction,ComponentPad*
%ADD18O,2.200000X2.200000*%
G04 #@! TD*
G04 #@! TA.AperFunction,ComponentPad*
%ADD19R,2.200000X2.200000*%
G04 #@! TD*
G04 #@! TA.AperFunction,ComponentPad*
%ADD20R,1.700000X1.700000*%
G04 #@! TD*
G04 #@! TA.AperFunction,ComponentPad*
%ADD21O,1.700000X1.700000*%
G04 #@! TD*
G04 #@! TA.AperFunction,ViaPad*
%ADD22C,0.800000*%
G04 #@! TD*
G04 #@! TA.AperFunction,Conductor*
%ADD23C,0.250000*%
G04 #@! TD*
G04 #@! TA.AperFunction,Conductor*
%ADD24C,0.254000*%
G04 #@! TD*
G04 #@! TA.AperFunction,Conductor*
%ADD25C,0.100000*%
G04 #@! TD*
G04 APERTURE END LIST*
D10*
G04 #@! TO.P,J2,T*
G04 #@! TO.N,Net-(J2-PadT)*
X40640000Y-150465000D03*
D11*
G04 #@! TO.P,J2,S*
G04 #@! TO.N,GND*
X40640000Y-139065000D03*
D10*
G04 #@! TO.P,J2,TN*
G04 #@! TO.N,N/C*
X40640000Y-142165000D03*
G04 #@! TD*
D12*
G04 #@! TO.P,U1,14*
G04 #@! TO.N,Net-(R12-Pad1)*
X27940000Y-52070000D03*
G04 #@! TO.P,U1,7*
G04 #@! TO.N,Net-(R11-Pad1)*
X43180000Y-44450000D03*
G04 #@! TO.P,U1,13*
G04 #@! TO.N,Net-(ATTN2-Pad3)*
X30480000Y-52070000D03*
G04 #@! TO.P,U1,6*
G04 #@! TO.N,Net-(ATTN1-Pad3)*
X40640000Y-44450000D03*
G04 #@! TO.P,U1,12*
G04 #@! TO.N,Net-(OFFSET2-Pad2)*
X33020000Y-52070000D03*
G04 #@! TO.P,U1,5*
G04 #@! TO.N,Net-(OFFSET1-Pad2)*
X38100000Y-44450000D03*
G04 #@! TO.P,U1,11*
G04 #@! TO.N,-12V*
X35560000Y-52070000D03*
G04 #@! TO.P,U1,4*
G04 #@! TO.N,+12V*
X35560000Y-44450000D03*
G04 #@! TO.P,U1,10*
G04 #@! TO.N,GND*
X38100000Y-52070000D03*
G04 #@! TO.P,U1,3*
X33020000Y-44450000D03*
G04 #@! TO.P,U1,9*
G04 #@! TO.N,Net-(ATTN2-Pad1)*
X40640000Y-52070000D03*
G04 #@! TO.P,U1,2*
G04 #@! TO.N,Net-(ATTN1-Pad1)*
X30480000Y-44450000D03*
G04 #@! TO.P,U1,8*
G04 #@! TO.N,Net-(R3-Pad1)*
X43180000Y-52070000D03*
D13*
G04 #@! TO.P,U1,1*
G04 #@! TO.N,Net-(R4-Pad1)*
X27940000Y-44450000D03*
G04 #@! TD*
D14*
G04 #@! TO.P,OFFSET1,*
G04 #@! TO.N,*
X30720000Y-73780000D03*
X40320000Y-73780000D03*
D15*
G04 #@! TO.P,OFFSET1,3*
G04 #@! TO.N,Net-(OFFSET1-Pad3)*
X38020000Y-81280000D03*
G04 #@! TO.P,OFFSET1,2*
G04 #@! TO.N,Net-(OFFSET1-Pad2)*
X35520000Y-81280000D03*
D16*
G04 #@! TO.P,OFFSET1,1*
G04 #@! TO.N,Net-(OFFSET1-Pad1)*
X33020000Y-81280000D03*
G04 #@! TD*
D12*
G04 #@! TO.P,R14,2*
G04 #@! TO.N,Net-(R12-Pad1)*
X37465000Y-121920000D03*
D17*
G04 #@! TO.P,R14,1*
G04 #@! TO.N,Net-(J2-PadT)*
X37465000Y-132080000D03*
G04 #@! TD*
D12*
G04 #@! TO.P,R13,2*
G04 #@! TO.N,Net-(R11-Pad1)*
X43815000Y-79375000D03*
D17*
G04 #@! TO.P,R13,1*
G04 #@! TO.N,Net-(OUT1-PadT)*
X43815000Y-89535000D03*
G04 #@! TD*
D12*
G04 #@! TO.P,R12,2*
G04 #@! TO.N,Net-(ATTN2-Pad3)*
X40640000Y-119380000D03*
D17*
G04 #@! TO.P,R12,1*
G04 #@! TO.N,Net-(R12-Pad1)*
X30480000Y-119380000D03*
G04 #@! TD*
D12*
G04 #@! TO.P,R11,2*
G04 #@! TO.N,Net-(ATTN1-Pad3)*
X41275000Y-66675000D03*
D17*
G04 #@! TO.P,R11,1*
G04 #@! TO.N,Net-(R11-Pad1)*
X31115000Y-66675000D03*
G04 #@! TD*
D12*
G04 #@! TO.P,R10,2*
G04 #@! TO.N,Net-(OFFSET2-Pad1)*
X27305000Y-133350000D03*
D17*
G04 #@! TO.P,R10,1*
G04 #@! TO.N,-12V*
X27305000Y-123190000D03*
G04 #@! TD*
D12*
G04 #@! TO.P,R9,2*
G04 #@! TO.N,Net-(OFFSET1-Pad1)*
X27305000Y-80010000D03*
D17*
G04 #@! TO.P,R9,1*
G04 #@! TO.N,-12V*
X27305000Y-69850000D03*
G04 #@! TD*
D12*
G04 #@! TO.P,R8,2*
G04 #@! TO.N,+12V*
X43815000Y-123190000D03*
D17*
G04 #@! TO.P,R8,1*
G04 #@! TO.N,Net-(OFFSET2-Pad3)*
X43815000Y-133350000D03*
G04 #@! TD*
D12*
G04 #@! TO.P,R7,2*
G04 #@! TO.N,+12V*
X43832847Y-66951372D03*
D17*
G04 #@! TO.P,R7,1*
G04 #@! TO.N,Net-(OFFSET1-Pad3)*
X43832847Y-77111372D03*
G04 #@! TD*
D12*
G04 #@! TO.P,R6,2*
G04 #@! TO.N,Net-(R3-Pad1)*
X40640000Y-60325000D03*
D17*
G04 #@! TO.P,R6,1*
G04 #@! TO.N,Net-(ATTN2-Pad3)*
X30480000Y-60325000D03*
G04 #@! TD*
D12*
G04 #@! TO.P,R5,2*
G04 #@! TO.N,Net-(R4-Pad1)*
X33655000Y-68580000D03*
D17*
G04 #@! TO.P,R5,1*
G04 #@! TO.N,Net-(ATTN1-Pad3)*
X33655000Y-78740000D03*
G04 #@! TD*
D12*
G04 #@! TO.P,R4,2*
G04 #@! TO.N,Net-(ATTN1-Pad1)*
X27305000Y-64770000D03*
D17*
G04 #@! TO.P,R4,1*
G04 #@! TO.N,Net-(R4-Pad1)*
X27305000Y-54610000D03*
G04 #@! TD*
D12*
G04 #@! TO.P,R3,2*
G04 #@! TO.N,Net-(ATTN2-Pad1)*
X43815000Y-64770000D03*
D17*
G04 #@! TO.P,R3,1*
G04 #@! TO.N,Net-(R3-Pad1)*
X43815000Y-54610000D03*
G04 #@! TD*
D12*
G04 #@! TO.P,R2,2*
G04 #@! TO.N,Net-(IN2-PadT)*
X34290000Y-132080000D03*
D17*
G04 #@! TO.P,R2,1*
G04 #@! TO.N,Net-(ATTN2-Pad2)*
X34290000Y-121920000D03*
G04 #@! TD*
D12*
G04 #@! TO.P,R1,2*
G04 #@! TO.N,Net-(IN1-PadT)*
X37465000Y-78740000D03*
D17*
G04 #@! TO.P,R1,1*
G04 #@! TO.N,Net-(ATTN1-Pad2)*
X37465000Y-68580000D03*
G04 #@! TD*
D10*
G04 #@! TO.P,OUT1,T*
G04 #@! TO.N,Net-(OUT1-PadT)*
X40601556Y-95736448D03*
D11*
G04 #@! TO.P,OUT1,S*
G04 #@! TO.N,GND*
X40601556Y-84336448D03*
D10*
G04 #@! TO.P,OUT1,TN*
G04 #@! TO.N,N/C*
X40601556Y-87436448D03*
G04 #@! TD*
D14*
G04 #@! TO.P,OFFSET2,*
G04 #@! TO.N,*
X30720000Y-127120000D03*
X40320000Y-127120000D03*
D15*
G04 #@! TO.P,OFFSET2,3*
G04 #@! TO.N,Net-(OFFSET2-Pad3)*
X38020000Y-134620000D03*
G04 #@! TO.P,OFFSET2,2*
G04 #@! TO.N,Net-(OFFSET2-Pad2)*
X35520000Y-134620000D03*
D16*
G04 #@! TO.P,OFFSET2,1*
G04 #@! TO.N,Net-(OFFSET2-Pad1)*
X33020000Y-134620000D03*
G04 #@! TD*
D10*
G04 #@! TO.P,IN2,T*
G04 #@! TO.N,Net-(IN2-PadT)*
X30480000Y-150465000D03*
D11*
G04 #@! TO.P,IN2,S*
G04 #@! TO.N,GND*
X30480000Y-139065000D03*
D10*
G04 #@! TO.P,IN2,TN*
G04 #@! TO.N,N/C*
X30480000Y-142165000D03*
G04 #@! TD*
G04 #@! TO.P,IN1,T*
G04 #@! TO.N,Net-(IN1-PadT)*
X30482520Y-95739119D03*
D11*
G04 #@! TO.P,IN1,S*
G04 #@! TO.N,GND*
X30482520Y-84339119D03*
D10*
G04 #@! TO.P,IN1,TN*
G04 #@! TO.N,N/C*
X30482520Y-87439119D03*
G04 #@! TD*
D18*
G04 #@! TO.P,D2,2*
G04 #@! TO.N,-12V*
X27305000Y-106045000D03*
D19*
G04 #@! TO.P,D2,1*
G04 #@! TO.N,GND*
X27305000Y-116205000D03*
G04 #@! TD*
D18*
G04 #@! TO.P,D1,2*
G04 #@! TO.N,GND*
X43815000Y-116205000D03*
D19*
G04 #@! TO.P,D1,1*
G04 #@! TO.N,+12V*
X43815000Y-106045000D03*
G04 #@! TD*
D12*
G04 #@! TO.P,C2,2*
G04 #@! TO.N,-12V*
X27425000Y-90170000D03*
D17*
G04 #@! TO.P,C2,1*
G04 #@! TO.N,GND*
X34925000Y-90170000D03*
G04 #@! TD*
D12*
G04 #@! TO.P,C1,2*
G04 #@! TO.N,GND*
X36315000Y-92710000D03*
D17*
G04 #@! TO.P,C1,1*
G04 #@! TO.N,+12V*
X43815000Y-92710000D03*
G04 #@! TD*
D14*
G04 #@! TO.P,ATTN2,*
G04 #@! TO.N,*
X30720000Y-109340000D03*
X40320000Y-109340000D03*
D15*
G04 #@! TO.P,ATTN2,3*
G04 #@! TO.N,Net-(ATTN2-Pad3)*
X38020000Y-116840000D03*
G04 #@! TO.P,ATTN2,2*
G04 #@! TO.N,Net-(ATTN2-Pad2)*
X35520000Y-116840000D03*
D16*
G04 #@! TO.P,ATTN2,1*
G04 #@! TO.N,Net-(ATTN2-Pad1)*
X33020000Y-116840000D03*
G04 #@! TD*
D14*
G04 #@! TO.P,ATTN1,*
G04 #@! TO.N,*
X30720000Y-56000000D03*
X40320000Y-56000000D03*
D15*
G04 #@! TO.P,ATTN1,3*
G04 #@! TO.N,Net-(ATTN1-Pad3)*
X38020000Y-63500000D03*
G04 #@! TO.P,ATTN1,2*
G04 #@! TO.N,Net-(ATTN1-Pad2)*
X35520000Y-63500000D03*
D16*
G04 #@! TO.P,ATTN1,1*
G04 #@! TO.N,Net-(ATTN1-Pad1)*
X33020000Y-63500000D03*
G04 #@! TD*
D20*
G04 #@! TO.P,J1,1*
G04 #@! TO.N,+12V*
X40640000Y-102235000D03*
D21*
G04 #@! TO.P,J1,2*
X40640000Y-99695000D03*
G04 #@! TO.P,J1,3*
G04 #@! TO.N,GND*
X38100000Y-102235000D03*
G04 #@! TO.P,J1,4*
X38100000Y-99695000D03*
G04 #@! TO.P,J1,5*
X35560000Y-102235000D03*
G04 #@! TO.P,J1,6*
X35560000Y-99695000D03*
G04 #@! TO.P,J1,7*
X33020000Y-102235000D03*
G04 #@! TO.P,J1,8*
X33020000Y-99695000D03*
G04 #@! TO.P,J1,9*
G04 #@! TO.N,-12V*
X30480000Y-102235000D03*
G04 #@! TO.P,J1,10*
X30480000Y-99695000D03*
G04 #@! TD*
D22*
G04 #@! TO.N,Net-(ATTN2-Pad3)*
X35560000Y-65405000D03*
X33020000Y-96520000D03*
G04 #@! TO.N,Net-(R12-Pad1)*
X38735000Y-65405000D03*
G04 #@! TD*
D23*
G04 #@! TO.N,Net-(ATTN1-Pad3)*
X38020000Y-53815002D02*
X39370000Y-52465002D01*
X38020000Y-63500000D02*
X38020000Y-53815002D01*
X39370000Y-52465002D02*
X39370000Y-45720000D01*
X40640000Y-44450000D02*
X39370000Y-45720000D01*
X41195000Y-66675000D02*
X41275000Y-66675000D01*
X38020000Y-63500000D02*
X41195000Y-66675000D01*
G04 #@! TO.N,Net-(ATTN1-Pad1)*
X31605001Y-53867942D02*
X33020000Y-55282941D01*
X31605001Y-45575001D02*
X31605001Y-53867942D01*
X33020000Y-55282941D02*
X33020000Y-63500000D01*
X30480000Y-44450000D02*
X31605001Y-45575001D01*
G04 #@! TO.N,Net-(ATTN2-Pad3)*
X38100000Y-116840000D02*
X38020000Y-116840000D01*
X40640000Y-119380000D02*
X38100000Y-116840000D01*
X29034990Y-58879990D02*
X30480000Y-60325000D01*
X29034990Y-54646380D02*
X29034990Y-58879990D01*
X30480000Y-53201370D02*
X29034990Y-54646380D01*
X30480000Y-52070000D02*
X30480000Y-53201370D01*
X32455999Y-84229003D02*
X32455999Y-95955999D01*
X34245001Y-79815001D02*
X34245001Y-82440001D01*
X35560000Y-65405000D02*
X35560000Y-78500002D01*
X34245001Y-82440001D02*
X32455999Y-84229003D01*
X35560000Y-78500002D02*
X34245001Y-79815001D01*
X32455999Y-95955999D02*
X33020000Y-96520000D01*
X33020000Y-96520000D02*
X33020000Y-96520000D01*
G04 #@! TO.N,Net-(ATTN2-Pad2)*
X34290000Y-118070000D02*
X35520000Y-116840000D01*
X34290000Y-121920000D02*
X34290000Y-118070000D01*
G04 #@! TO.N,Net-(ATTN2-Pad1)*
X43419998Y-64770000D02*
X43815000Y-64770000D01*
X38634990Y-59984992D02*
X43419998Y-64770000D01*
X38634990Y-55042047D02*
X38634990Y-59984992D01*
X38634990Y-54075010D02*
X38634990Y-55042047D01*
X40640000Y-52070000D02*
X38634990Y-54075010D01*
X33020000Y-113997037D02*
X33020000Y-116840000D01*
X42400001Y-96005999D02*
X39275001Y-99130999D01*
X39275001Y-99130999D02*
X39275001Y-107742036D01*
X39275001Y-107742036D02*
X33020000Y-113997037D01*
X42094991Y-67520011D02*
X42545000Y-67070002D01*
X42545000Y-67070002D02*
X42545000Y-66040000D01*
X42400001Y-96005999D02*
X42094991Y-95700989D01*
X43815000Y-64770000D02*
X42545000Y-66040000D01*
X42094991Y-95700989D02*
X42094991Y-67520011D01*
G04 #@! TO.N,+12V*
X40640000Y-99695000D02*
X40640000Y-102235000D01*
X43815000Y-96520000D02*
X43815000Y-92710000D01*
X40640000Y-99695000D02*
X43815000Y-96520000D01*
X40640000Y-102870000D02*
X43815000Y-106045000D01*
X40640000Y-102235000D02*
X40640000Y-102870000D01*
X43815000Y-106045000D02*
X43815000Y-111125000D01*
X42389999Y-121764999D02*
X43815000Y-123190000D01*
X42389999Y-112550001D02*
X42389999Y-121764999D01*
X43815000Y-111125000D02*
X42389999Y-112550001D01*
X43832847Y-66951372D02*
X43832847Y-74912153D01*
X43832847Y-74912153D02*
X42545000Y-76200000D01*
X42545000Y-91440000D02*
X43815000Y-92710000D01*
X42545000Y-76200000D02*
X42545000Y-91440000D01*
G04 #@! TO.N,-12V*
X30480000Y-102870000D02*
X30480000Y-102235000D01*
X27305000Y-106045000D02*
X30480000Y-102870000D01*
X30480000Y-102235000D02*
X30480000Y-99695000D01*
X27425000Y-96640000D02*
X30480000Y-99695000D01*
X27425000Y-90170000D02*
X27425000Y-96640000D01*
X27425000Y-90170000D02*
X27425000Y-82430000D01*
X28430001Y-70975001D02*
X27305000Y-69850000D01*
X28430001Y-81424999D02*
X28430001Y-70975001D01*
X27425000Y-82430000D02*
X28430001Y-81424999D01*
X25750010Y-107599990D02*
X27305000Y-106045000D01*
X25750010Y-121635010D02*
X25750010Y-107599990D01*
X27305000Y-123190000D02*
X25750010Y-121635010D01*
G04 #@! TO.N,Net-(IN2-PadT)*
X34290000Y-146655000D02*
X30480000Y-150465000D01*
X34290000Y-132080000D02*
X34290000Y-146655000D01*
G04 #@! TO.N,Net-(J2-PadT)*
X36745001Y-134069999D02*
X36745001Y-146570001D01*
X37465000Y-133350000D02*
X36745001Y-134069999D01*
X36745001Y-146570001D02*
X40640000Y-150465000D01*
X37465000Y-132080000D02*
X37465000Y-133350000D01*
G04 #@! TO.N,Net-(OFFSET2-Pad3)*
X42545000Y-134620000D02*
X43815000Y-133350000D01*
X38020000Y-134620000D02*
X42545000Y-134620000D01*
G04 #@! TO.N,Net-(OFFSET2-Pad2)*
X34780001Y-75949997D02*
X31772521Y-78957477D01*
X34780001Y-67800001D02*
X34780001Y-75949997D01*
X31872521Y-98937479D02*
X31750000Y-99060000D01*
X33020000Y-52070000D02*
X34245001Y-53295001D01*
X34245001Y-67265001D02*
X34780001Y-67800001D01*
X34245001Y-53295001D02*
X34245001Y-67265001D01*
X31772521Y-78957477D02*
X31772521Y-86671918D01*
X31772521Y-86671918D02*
X31872521Y-86771918D01*
X31872521Y-86771918D02*
X31872521Y-98937479D01*
X35415001Y-134515001D02*
X35520000Y-134620000D01*
X35520000Y-129277037D02*
X27940000Y-121697037D01*
X35520000Y-134620000D02*
X35520000Y-129277037D01*
X28730001Y-107159999D02*
X31750000Y-104140000D01*
X27940000Y-119380000D02*
X28730001Y-118589999D01*
X28730001Y-118589999D02*
X28730001Y-107159999D01*
X27940000Y-121697037D02*
X27940000Y-119380000D01*
X31750000Y-99060000D02*
X31750000Y-104140000D01*
G04 #@! TO.N,Net-(OFFSET2-Pad1)*
X31750000Y-133350000D02*
X33020000Y-134620000D01*
X27305000Y-133350000D02*
X31750000Y-133350000D01*
G04 #@! TO.N,Net-(R3-Pad1)*
X43815000Y-52705000D02*
X43180000Y-52070000D01*
X43815000Y-54610000D02*
X43815000Y-52705000D01*
X43815000Y-57150000D02*
X40640000Y-60325000D01*
X43815000Y-54610000D02*
X43815000Y-57150000D01*
G04 #@! TO.N,Net-(R4-Pad1)*
X26505001Y-53810001D02*
X26505001Y-45884999D01*
X26505001Y-45884999D02*
X27940000Y-44450000D01*
X27305000Y-54610000D02*
X26505001Y-53810001D01*
X33655000Y-67311410D02*
X33655000Y-68580000D01*
X27305000Y-60961410D02*
X33655000Y-67311410D01*
X27305000Y-54610000D02*
X27305000Y-60961410D01*
G04 #@! TO.N,Net-(R11-Pad1)*
X43180000Y-44450000D02*
X45369990Y-46639990D01*
X45369990Y-77820010D02*
X43815000Y-79375000D01*
X45369990Y-46639990D02*
X45369990Y-77820010D01*
G04 #@! TO.N,Net-(R12-Pad1)*
X30480000Y-119380000D02*
X30480000Y-113665000D01*
X34384999Y-109760001D02*
X34384999Y-94709999D01*
X30480000Y-113665000D02*
X34384999Y-109760001D01*
X33799999Y-94124999D02*
X33799999Y-88120001D01*
X34384999Y-94709999D02*
X33799999Y-94124999D01*
X33799999Y-88120001D02*
X40005000Y-81915000D01*
X40005000Y-81915000D02*
X40005000Y-78105000D01*
X40005000Y-78105000D02*
X38634990Y-76734990D01*
X38634990Y-76734990D02*
X38100000Y-76200000D01*
X38100000Y-76200000D02*
X38100000Y-71755000D01*
X38100000Y-71755000D02*
X38735000Y-71120000D01*
X38735000Y-71120000D02*
X38735000Y-65405000D01*
X38735000Y-65405000D02*
X38735000Y-65405000D01*
G04 #@! TO.N,Net-(OFFSET1-Pad2)*
X36195000Y-80605000D02*
X35520000Y-81280000D01*
X36195000Y-67945000D02*
X36195000Y-80605000D01*
X36794999Y-67345001D02*
X36195000Y-67945000D01*
X38100000Y-44450000D02*
X36794999Y-45755001D01*
X36794999Y-45755001D02*
X36794999Y-67345001D01*
G04 #@! TD*
D24*
G04 #@! TO.N,GND*
X26190363Y-134264759D02*
X26390241Y-134464637D01*
X26625273Y-134621680D01*
X26886426Y-134729853D01*
X27163665Y-134785000D01*
X27446335Y-134785000D01*
X27723574Y-134729853D01*
X27984727Y-134621680D01*
X28219759Y-134464637D01*
X28419637Y-134264759D01*
X28523043Y-134110000D01*
X31435199Y-134110000D01*
X31481928Y-134156729D01*
X31481928Y-135520000D01*
X31494188Y-135644482D01*
X31530498Y-135764180D01*
X31589463Y-135874494D01*
X31668815Y-135971185D01*
X31765506Y-136050537D01*
X31875820Y-136109502D01*
X31995518Y-136145812D01*
X32120000Y-136158072D01*
X33530000Y-136158072D01*
X33530001Y-146340197D01*
X31021125Y-148849074D01*
X30975872Y-148830330D01*
X30647435Y-148765000D01*
X30312565Y-148765000D01*
X29984128Y-148830330D01*
X29674748Y-148958479D01*
X29396313Y-149144523D01*
X29159523Y-149381313D01*
X28973479Y-149659748D01*
X28845330Y-149969128D01*
X28780000Y-150297565D01*
X28780000Y-150632435D01*
X28845330Y-150960872D01*
X28973479Y-151270252D01*
X29159523Y-151548687D01*
X29350836Y-151740000D01*
X26060000Y-151740000D01*
X26060000Y-141997565D01*
X28780000Y-141997565D01*
X28780000Y-142332435D01*
X28845330Y-142660872D01*
X28973479Y-142970252D01*
X29159523Y-143248687D01*
X29396313Y-143485477D01*
X29674748Y-143671521D01*
X29984128Y-143799670D01*
X30312565Y-143865000D01*
X30647435Y-143865000D01*
X30975872Y-143799670D01*
X31285252Y-143671521D01*
X31563687Y-143485477D01*
X31800477Y-143248687D01*
X31986521Y-142970252D01*
X32114670Y-142660872D01*
X32180000Y-142332435D01*
X32180000Y-141997565D01*
X32114670Y-141669128D01*
X31986521Y-141359748D01*
X31800477Y-141081313D01*
X31563687Y-140844523D01*
X31285252Y-140658479D01*
X31184860Y-140616895D01*
X31445000Y-140618072D01*
X31569482Y-140605812D01*
X31689180Y-140569502D01*
X31799494Y-140510537D01*
X31896185Y-140431185D01*
X31975537Y-140334494D01*
X32034502Y-140224180D01*
X32070812Y-140104482D01*
X32083072Y-139980000D01*
X32080000Y-139350750D01*
X31921250Y-139192000D01*
X30607000Y-139192000D01*
X30607000Y-139212000D01*
X30353000Y-139212000D01*
X30353000Y-139192000D01*
X29038750Y-139192000D01*
X28880000Y-139350750D01*
X28876928Y-139980000D01*
X28889188Y-140104482D01*
X28925498Y-140224180D01*
X28984463Y-140334494D01*
X29063815Y-140431185D01*
X29160506Y-140510537D01*
X29270820Y-140569502D01*
X29390518Y-140605812D01*
X29515000Y-140618072D01*
X29775140Y-140616895D01*
X29674748Y-140658479D01*
X29396313Y-140844523D01*
X29159523Y-141081313D01*
X28973479Y-141359748D01*
X28845330Y-141669128D01*
X28780000Y-141997565D01*
X26060000Y-141997565D01*
X26060000Y-138150000D01*
X28876928Y-138150000D01*
X28880000Y-138779250D01*
X29038750Y-138938000D01*
X30353000Y-138938000D01*
X30353000Y-137673750D01*
X30607000Y-137673750D01*
X30607000Y-138938000D01*
X31921250Y-138938000D01*
X32080000Y-138779250D01*
X32083072Y-138150000D01*
X32070812Y-138025518D01*
X32034502Y-137905820D01*
X31975537Y-137795506D01*
X31896185Y-137698815D01*
X31799494Y-137619463D01*
X31689180Y-137560498D01*
X31569482Y-137524188D01*
X31445000Y-137511928D01*
X30765750Y-137515000D01*
X30607000Y-137673750D01*
X30353000Y-137673750D01*
X30194250Y-137515000D01*
X29515000Y-137511928D01*
X29390518Y-137524188D01*
X29270820Y-137560498D01*
X29160506Y-137619463D01*
X29063815Y-137698815D01*
X28984463Y-137795506D01*
X28925498Y-137905820D01*
X28889188Y-138025518D01*
X28876928Y-138150000D01*
X26060000Y-138150000D01*
X26060000Y-134069657D01*
X26190363Y-134264759D01*
G04 #@! TA.AperFunction,Conductor*
D25*
G36*
X26190363Y-134264759D02*
G01*
X26390241Y-134464637D01*
X26625273Y-134621680D01*
X26886426Y-134729853D01*
X27163665Y-134785000D01*
X27446335Y-134785000D01*
X27723574Y-134729853D01*
X27984727Y-134621680D01*
X28219759Y-134464637D01*
X28419637Y-134264759D01*
X28523043Y-134110000D01*
X31435199Y-134110000D01*
X31481928Y-134156729D01*
X31481928Y-135520000D01*
X31494188Y-135644482D01*
X31530498Y-135764180D01*
X31589463Y-135874494D01*
X31668815Y-135971185D01*
X31765506Y-136050537D01*
X31875820Y-136109502D01*
X31995518Y-136145812D01*
X32120000Y-136158072D01*
X33530000Y-136158072D01*
X33530001Y-146340197D01*
X31021125Y-148849074D01*
X30975872Y-148830330D01*
X30647435Y-148765000D01*
X30312565Y-148765000D01*
X29984128Y-148830330D01*
X29674748Y-148958479D01*
X29396313Y-149144523D01*
X29159523Y-149381313D01*
X28973479Y-149659748D01*
X28845330Y-149969128D01*
X28780000Y-150297565D01*
X28780000Y-150632435D01*
X28845330Y-150960872D01*
X28973479Y-151270252D01*
X29159523Y-151548687D01*
X29350836Y-151740000D01*
X26060000Y-151740000D01*
X26060000Y-141997565D01*
X28780000Y-141997565D01*
X28780000Y-142332435D01*
X28845330Y-142660872D01*
X28973479Y-142970252D01*
X29159523Y-143248687D01*
X29396313Y-143485477D01*
X29674748Y-143671521D01*
X29984128Y-143799670D01*
X30312565Y-143865000D01*
X30647435Y-143865000D01*
X30975872Y-143799670D01*
X31285252Y-143671521D01*
X31563687Y-143485477D01*
X31800477Y-143248687D01*
X31986521Y-142970252D01*
X32114670Y-142660872D01*
X32180000Y-142332435D01*
X32180000Y-141997565D01*
X32114670Y-141669128D01*
X31986521Y-141359748D01*
X31800477Y-141081313D01*
X31563687Y-140844523D01*
X31285252Y-140658479D01*
X31184860Y-140616895D01*
X31445000Y-140618072D01*
X31569482Y-140605812D01*
X31689180Y-140569502D01*
X31799494Y-140510537D01*
X31896185Y-140431185D01*
X31975537Y-140334494D01*
X32034502Y-140224180D01*
X32070812Y-140104482D01*
X32083072Y-139980000D01*
X32080000Y-139350750D01*
X31921250Y-139192000D01*
X30607000Y-139192000D01*
X30607000Y-139212000D01*
X30353000Y-139212000D01*
X30353000Y-139192000D01*
X29038750Y-139192000D01*
X28880000Y-139350750D01*
X28876928Y-139980000D01*
X28889188Y-140104482D01*
X28925498Y-140224180D01*
X28984463Y-140334494D01*
X29063815Y-140431185D01*
X29160506Y-140510537D01*
X29270820Y-140569502D01*
X29390518Y-140605812D01*
X29515000Y-140618072D01*
X29775140Y-140616895D01*
X29674748Y-140658479D01*
X29396313Y-140844523D01*
X29159523Y-141081313D01*
X28973479Y-141359748D01*
X28845330Y-141669128D01*
X28780000Y-141997565D01*
X26060000Y-141997565D01*
X26060000Y-138150000D01*
X28876928Y-138150000D01*
X28880000Y-138779250D01*
X29038750Y-138938000D01*
X30353000Y-138938000D01*
X30353000Y-137673750D01*
X30607000Y-137673750D01*
X30607000Y-138938000D01*
X31921250Y-138938000D01*
X32080000Y-138779250D01*
X32083072Y-138150000D01*
X32070812Y-138025518D01*
X32034502Y-137905820D01*
X31975537Y-137795506D01*
X31896185Y-137698815D01*
X31799494Y-137619463D01*
X31689180Y-137560498D01*
X31569482Y-137524188D01*
X31445000Y-137511928D01*
X30765750Y-137515000D01*
X30607000Y-137673750D01*
X30353000Y-137673750D01*
X30194250Y-137515000D01*
X29515000Y-137511928D01*
X29390518Y-137524188D01*
X29270820Y-137560498D01*
X29160506Y-137619463D01*
X29063815Y-137698815D01*
X28984463Y-137795506D01*
X28925498Y-137905820D01*
X28889188Y-138025518D01*
X28876928Y-138150000D01*
X26060000Y-138150000D01*
X26060000Y-134069657D01*
X26190363Y-134264759D01*
G37*
G04 #@! TD.AperFunction*
D24*
X45060000Y-151740000D02*
X41769164Y-151740000D01*
X41960477Y-151548687D01*
X42146521Y-151270252D01*
X42274670Y-150960872D01*
X42340000Y-150632435D01*
X42340000Y-150297565D01*
X42274670Y-149969128D01*
X42146521Y-149659748D01*
X41960477Y-149381313D01*
X41723687Y-149144523D01*
X41445252Y-148958479D01*
X41135872Y-148830330D01*
X40807435Y-148765000D01*
X40472565Y-148765000D01*
X40144128Y-148830330D01*
X40098876Y-148849074D01*
X37505001Y-146255200D01*
X37505001Y-141997565D01*
X38940000Y-141997565D01*
X38940000Y-142332435D01*
X39005330Y-142660872D01*
X39133479Y-142970252D01*
X39319523Y-143248687D01*
X39556313Y-143485477D01*
X39834748Y-143671521D01*
X40144128Y-143799670D01*
X40472565Y-143865000D01*
X40807435Y-143865000D01*
X41135872Y-143799670D01*
X41445252Y-143671521D01*
X41723687Y-143485477D01*
X41960477Y-143248687D01*
X42146521Y-142970252D01*
X42274670Y-142660872D01*
X42340000Y-142332435D01*
X42340000Y-141997565D01*
X42274670Y-141669128D01*
X42146521Y-141359748D01*
X41960477Y-141081313D01*
X41723687Y-140844523D01*
X41445252Y-140658479D01*
X41344860Y-140616895D01*
X41605000Y-140618072D01*
X41729482Y-140605812D01*
X41849180Y-140569502D01*
X41959494Y-140510537D01*
X42056185Y-140431185D01*
X42135537Y-140334494D01*
X42194502Y-140224180D01*
X42230812Y-140104482D01*
X42243072Y-139980000D01*
X42240000Y-139350750D01*
X42081250Y-139192000D01*
X40767000Y-139192000D01*
X40767000Y-139212000D01*
X40513000Y-139212000D01*
X40513000Y-139192000D01*
X39198750Y-139192000D01*
X39040000Y-139350750D01*
X39036928Y-139980000D01*
X39049188Y-140104482D01*
X39085498Y-140224180D01*
X39144463Y-140334494D01*
X39223815Y-140431185D01*
X39320506Y-140510537D01*
X39430820Y-140569502D01*
X39550518Y-140605812D01*
X39675000Y-140618072D01*
X39935140Y-140616895D01*
X39834748Y-140658479D01*
X39556313Y-140844523D01*
X39319523Y-141081313D01*
X39133479Y-141359748D01*
X39005330Y-141669128D01*
X38940000Y-141997565D01*
X37505001Y-141997565D01*
X37505001Y-138150000D01*
X39036928Y-138150000D01*
X39040000Y-138779250D01*
X39198750Y-138938000D01*
X40513000Y-138938000D01*
X40513000Y-137673750D01*
X40767000Y-137673750D01*
X40767000Y-138938000D01*
X42081250Y-138938000D01*
X42240000Y-138779250D01*
X42243072Y-138150000D01*
X42230812Y-138025518D01*
X42194502Y-137905820D01*
X42135537Y-137795506D01*
X42056185Y-137698815D01*
X41959494Y-137619463D01*
X41849180Y-137560498D01*
X41729482Y-137524188D01*
X41605000Y-137511928D01*
X40925750Y-137515000D01*
X40767000Y-137673750D01*
X40513000Y-137673750D01*
X40354250Y-137515000D01*
X39675000Y-137511928D01*
X39550518Y-137524188D01*
X39430820Y-137560498D01*
X39320506Y-137619463D01*
X39223815Y-137698815D01*
X39144463Y-137795506D01*
X39085498Y-137905820D01*
X39049188Y-138025518D01*
X39036928Y-138150000D01*
X37505001Y-138150000D01*
X37505001Y-136068153D01*
X37572257Y-136096011D01*
X37868816Y-136155000D01*
X38171184Y-136155000D01*
X38467743Y-136096011D01*
X38747095Y-135980299D01*
X38998505Y-135812312D01*
X39212312Y-135598505D01*
X39358313Y-135380000D01*
X42507678Y-135380000D01*
X42545000Y-135383676D01*
X42582322Y-135380000D01*
X42582333Y-135380000D01*
X42693986Y-135369003D01*
X42837247Y-135325546D01*
X42969276Y-135254974D01*
X43085001Y-135160001D01*
X43108804Y-135130997D01*
X43491114Y-134748688D01*
X43673665Y-134785000D01*
X43956335Y-134785000D01*
X44233574Y-134729853D01*
X44494727Y-134621680D01*
X44729759Y-134464637D01*
X44929637Y-134264759D01*
X45060000Y-134069656D01*
X45060000Y-151740000D01*
G04 #@! TA.AperFunction,Conductor*
D25*
G36*
X45060000Y-151740000D02*
G01*
X41769164Y-151740000D01*
X41960477Y-151548687D01*
X42146521Y-151270252D01*
X42274670Y-150960872D01*
X42340000Y-150632435D01*
X42340000Y-150297565D01*
X42274670Y-149969128D01*
X42146521Y-149659748D01*
X41960477Y-149381313D01*
X41723687Y-149144523D01*
X41445252Y-148958479D01*
X41135872Y-148830330D01*
X40807435Y-148765000D01*
X40472565Y-148765000D01*
X40144128Y-148830330D01*
X40098876Y-148849074D01*
X37505001Y-146255200D01*
X37505001Y-141997565D01*
X38940000Y-141997565D01*
X38940000Y-142332435D01*
X39005330Y-142660872D01*
X39133479Y-142970252D01*
X39319523Y-143248687D01*
X39556313Y-143485477D01*
X39834748Y-143671521D01*
X40144128Y-143799670D01*
X40472565Y-143865000D01*
X40807435Y-143865000D01*
X41135872Y-143799670D01*
X41445252Y-143671521D01*
X41723687Y-143485477D01*
X41960477Y-143248687D01*
X42146521Y-142970252D01*
X42274670Y-142660872D01*
X42340000Y-142332435D01*
X42340000Y-141997565D01*
X42274670Y-141669128D01*
X42146521Y-141359748D01*
X41960477Y-141081313D01*
X41723687Y-140844523D01*
X41445252Y-140658479D01*
X41344860Y-140616895D01*
X41605000Y-140618072D01*
X41729482Y-140605812D01*
X41849180Y-140569502D01*
X41959494Y-140510537D01*
X42056185Y-140431185D01*
X42135537Y-140334494D01*
X42194502Y-140224180D01*
X42230812Y-140104482D01*
X42243072Y-139980000D01*
X42240000Y-139350750D01*
X42081250Y-139192000D01*
X40767000Y-139192000D01*
X40767000Y-139212000D01*
X40513000Y-139212000D01*
X40513000Y-139192000D01*
X39198750Y-139192000D01*
X39040000Y-139350750D01*
X39036928Y-139980000D01*
X39049188Y-140104482D01*
X39085498Y-140224180D01*
X39144463Y-140334494D01*
X39223815Y-140431185D01*
X39320506Y-140510537D01*
X39430820Y-140569502D01*
X39550518Y-140605812D01*
X39675000Y-140618072D01*
X39935140Y-140616895D01*
X39834748Y-140658479D01*
X39556313Y-140844523D01*
X39319523Y-141081313D01*
X39133479Y-141359748D01*
X39005330Y-141669128D01*
X38940000Y-141997565D01*
X37505001Y-141997565D01*
X37505001Y-138150000D01*
X39036928Y-138150000D01*
X39040000Y-138779250D01*
X39198750Y-138938000D01*
X40513000Y-138938000D01*
X40513000Y-137673750D01*
X40767000Y-137673750D01*
X40767000Y-138938000D01*
X42081250Y-138938000D01*
X42240000Y-138779250D01*
X42243072Y-138150000D01*
X42230812Y-138025518D01*
X42194502Y-137905820D01*
X42135537Y-137795506D01*
X42056185Y-137698815D01*
X41959494Y-137619463D01*
X41849180Y-137560498D01*
X41729482Y-137524188D01*
X41605000Y-137511928D01*
X40925750Y-137515000D01*
X40767000Y-137673750D01*
X40513000Y-137673750D01*
X40354250Y-137515000D01*
X39675000Y-137511928D01*
X39550518Y-137524188D01*
X39430820Y-137560498D01*
X39320506Y-137619463D01*
X39223815Y-137698815D01*
X39144463Y-137795506D01*
X39085498Y-137905820D01*
X39049188Y-138025518D01*
X39036928Y-138150000D01*
X37505001Y-138150000D01*
X37505001Y-136068153D01*
X37572257Y-136096011D01*
X37868816Y-136155000D01*
X38171184Y-136155000D01*
X38467743Y-136096011D01*
X38747095Y-135980299D01*
X38998505Y-135812312D01*
X39212312Y-135598505D01*
X39358313Y-135380000D01*
X42507678Y-135380000D01*
X42545000Y-135383676D01*
X42582322Y-135380000D01*
X42582333Y-135380000D01*
X42693986Y-135369003D01*
X42837247Y-135325546D01*
X42969276Y-135254974D01*
X43085001Y-135160001D01*
X43108804Y-135130997D01*
X43491114Y-134748688D01*
X43673665Y-134785000D01*
X43956335Y-134785000D01*
X44233574Y-134729853D01*
X44494727Y-134621680D01*
X44729759Y-134464637D01*
X44929637Y-134264759D01*
X45060000Y-134069656D01*
X45060000Y-151740000D01*
G37*
G04 #@! TD.AperFunction*
D24*
X38902497Y-75457503D02*
X39206275Y-75706807D01*
X39552853Y-75892057D01*
X39928912Y-76006133D01*
X40320000Y-76044652D01*
X40711087Y-76006133D01*
X41087146Y-75892057D01*
X41334992Y-75759581D01*
X41334991Y-82784423D01*
X40887306Y-82786448D01*
X40728556Y-82945198D01*
X40728556Y-84209448D01*
X40748556Y-84209448D01*
X40748556Y-84463448D01*
X40728556Y-84463448D01*
X40728556Y-84483448D01*
X40474556Y-84483448D01*
X40474556Y-84463448D01*
X39160306Y-84463448D01*
X39001556Y-84622198D01*
X38998484Y-85251448D01*
X39010744Y-85375930D01*
X39047054Y-85495628D01*
X39106019Y-85605942D01*
X39185371Y-85702633D01*
X39282062Y-85781985D01*
X39392376Y-85840950D01*
X39512074Y-85877260D01*
X39636556Y-85889520D01*
X39896696Y-85888343D01*
X39796304Y-85929927D01*
X39517869Y-86115971D01*
X39281079Y-86352761D01*
X39095035Y-86631196D01*
X38966886Y-86940576D01*
X38901556Y-87269013D01*
X38901556Y-87603883D01*
X38966886Y-87932320D01*
X39095035Y-88241700D01*
X39281079Y-88520135D01*
X39517869Y-88756925D01*
X39796304Y-88942969D01*
X40105684Y-89071118D01*
X40434121Y-89136448D01*
X40768991Y-89136448D01*
X41097428Y-89071118D01*
X41334991Y-88972716D01*
X41334991Y-94200180D01*
X41097428Y-94101778D01*
X40768991Y-94036448D01*
X40434121Y-94036448D01*
X40105684Y-94101778D01*
X39796304Y-94229927D01*
X39517869Y-94415971D01*
X39281079Y-94652761D01*
X39095035Y-94931196D01*
X38966886Y-95240576D01*
X38901556Y-95569013D01*
X38901556Y-95903883D01*
X38966886Y-96232320D01*
X39095035Y-96541700D01*
X39281079Y-96820135D01*
X39517869Y-97056925D01*
X39796304Y-97242969D01*
X40002726Y-97328472D01*
X38890358Y-98440841D01*
X38866920Y-98423359D01*
X38604099Y-98298175D01*
X38456890Y-98253524D01*
X38227000Y-98374845D01*
X38227000Y-99568000D01*
X38247000Y-99568000D01*
X38247000Y-99822000D01*
X38227000Y-99822000D01*
X38227000Y-102108000D01*
X38247000Y-102108000D01*
X38247000Y-102362000D01*
X38227000Y-102362000D01*
X38227000Y-103555155D01*
X38456890Y-103676476D01*
X38515002Y-103658850D01*
X38515002Y-107427233D01*
X32509003Y-113433233D01*
X32479999Y-113457036D01*
X32431597Y-113516015D01*
X32385026Y-113572761D01*
X32355678Y-113627667D01*
X32314454Y-113704791D01*
X32270997Y-113848052D01*
X32260000Y-113959705D01*
X32260000Y-113959715D01*
X32256324Y-113997037D01*
X32260000Y-114034360D01*
X32260000Y-115301928D01*
X32120000Y-115301928D01*
X31995518Y-115314188D01*
X31875820Y-115350498D01*
X31765506Y-115409463D01*
X31668815Y-115488815D01*
X31589463Y-115585506D01*
X31530498Y-115695820D01*
X31494188Y-115815518D01*
X31481928Y-115940000D01*
X31481928Y-117740000D01*
X31494188Y-117864482D01*
X31530498Y-117984180D01*
X31589463Y-118094494D01*
X31668815Y-118191185D01*
X31765506Y-118270537D01*
X31875820Y-118329502D01*
X31995518Y-118365812D01*
X32120000Y-118378072D01*
X33530001Y-118378072D01*
X33530000Y-120701956D01*
X33375241Y-120805363D01*
X33175363Y-121005241D01*
X33018320Y-121240273D01*
X32910147Y-121501426D01*
X32855000Y-121778665D01*
X32855000Y-122061335D01*
X32910147Y-122338574D01*
X33018320Y-122599727D01*
X33175363Y-122834759D01*
X33375241Y-123034637D01*
X33610273Y-123191680D01*
X33871426Y-123299853D01*
X34148665Y-123355000D01*
X34431335Y-123355000D01*
X34708574Y-123299853D01*
X34969727Y-123191680D01*
X35204759Y-123034637D01*
X35404637Y-122834759D01*
X35561680Y-122599727D01*
X35669853Y-122338574D01*
X35725000Y-122061335D01*
X35725000Y-121778665D01*
X36030000Y-121778665D01*
X36030000Y-122061335D01*
X36085147Y-122338574D01*
X36193320Y-122599727D01*
X36350363Y-122834759D01*
X36550241Y-123034637D01*
X36785273Y-123191680D01*
X37046426Y-123299853D01*
X37323665Y-123355000D01*
X37606335Y-123355000D01*
X37883574Y-123299853D01*
X38144727Y-123191680D01*
X38379759Y-123034637D01*
X38579637Y-122834759D01*
X38736680Y-122599727D01*
X38844853Y-122338574D01*
X38900000Y-122061335D01*
X38900000Y-121778665D01*
X38844853Y-121501426D01*
X38736680Y-121240273D01*
X38579637Y-121005241D01*
X38379759Y-120805363D01*
X38144727Y-120648320D01*
X37883574Y-120540147D01*
X37606335Y-120485000D01*
X37323665Y-120485000D01*
X37046426Y-120540147D01*
X36785273Y-120648320D01*
X36550241Y-120805363D01*
X36350363Y-121005241D01*
X36193320Y-121240273D01*
X36085147Y-121501426D01*
X36030000Y-121778665D01*
X35725000Y-121778665D01*
X35669853Y-121501426D01*
X35561680Y-121240273D01*
X35404637Y-121005241D01*
X35204759Y-120805363D01*
X35050000Y-120701957D01*
X35050000Y-118384801D01*
X35111070Y-118323731D01*
X35368816Y-118375000D01*
X35671184Y-118375000D01*
X35967743Y-118316011D01*
X36247095Y-118200299D01*
X36498505Y-118032312D01*
X36712312Y-117818505D01*
X36770000Y-117732169D01*
X36827688Y-117818505D01*
X37041495Y-118032312D01*
X37292905Y-118200299D01*
X37572257Y-118316011D01*
X37868816Y-118375000D01*
X38171184Y-118375000D01*
X38467743Y-118316011D01*
X38491407Y-118306209D01*
X39241312Y-119056114D01*
X39205000Y-119238665D01*
X39205000Y-119521335D01*
X39260147Y-119798574D01*
X39368320Y-120059727D01*
X39525363Y-120294759D01*
X39725241Y-120494637D01*
X39960273Y-120651680D01*
X40221426Y-120759853D01*
X40498665Y-120815000D01*
X40781335Y-120815000D01*
X41058574Y-120759853D01*
X41319727Y-120651680D01*
X41554759Y-120494637D01*
X41630000Y-120419396D01*
X41630000Y-121727667D01*
X41626323Y-121764999D01*
X41640997Y-121913984D01*
X41684453Y-122057245D01*
X41755025Y-122189275D01*
X41794224Y-122237038D01*
X41849999Y-122305000D01*
X41878997Y-122328798D01*
X42416312Y-122866114D01*
X42380000Y-123048665D01*
X42380000Y-123331335D01*
X42435147Y-123608574D01*
X42543320Y-123869727D01*
X42700363Y-124104759D01*
X42900241Y-124304637D01*
X43135273Y-124461680D01*
X43396426Y-124569853D01*
X43673665Y-124625000D01*
X43956335Y-124625000D01*
X44233574Y-124569853D01*
X44494727Y-124461680D01*
X44729759Y-124304637D01*
X44929637Y-124104759D01*
X45060000Y-123909656D01*
X45060000Y-132630344D01*
X44929637Y-132435241D01*
X44729759Y-132235363D01*
X44494727Y-132078320D01*
X44233574Y-131970147D01*
X43956335Y-131915000D01*
X43673665Y-131915000D01*
X43396426Y-131970147D01*
X43135273Y-132078320D01*
X42900241Y-132235363D01*
X42700363Y-132435241D01*
X42543320Y-132670273D01*
X42435147Y-132931426D01*
X42380000Y-133208665D01*
X42380000Y-133491335D01*
X42416312Y-133673886D01*
X42230199Y-133860000D01*
X39358313Y-133860000D01*
X39212312Y-133641495D01*
X38998505Y-133427688D01*
X38747095Y-133259701D01*
X38467743Y-133143989D01*
X38436601Y-133137795D01*
X38579637Y-132994759D01*
X38736680Y-132759727D01*
X38844853Y-132498574D01*
X38900000Y-132221335D01*
X38900000Y-131938665D01*
X38844853Y-131661426D01*
X38736680Y-131400273D01*
X38579637Y-131165241D01*
X38379759Y-130965363D01*
X38144727Y-130808320D01*
X37883574Y-130700147D01*
X37606335Y-130645000D01*
X37323665Y-130645000D01*
X37046426Y-130700147D01*
X36785273Y-130808320D01*
X36550241Y-130965363D01*
X36350363Y-131165241D01*
X36280000Y-131270547D01*
X36280000Y-129314360D01*
X36283676Y-129277037D01*
X36280000Y-129239714D01*
X36280000Y-129239704D01*
X36269003Y-129128051D01*
X36225546Y-128984790D01*
X36154974Y-128852761D01*
X36060001Y-128737036D01*
X36031003Y-128713238D01*
X34079767Y-126762002D01*
X38325000Y-126762002D01*
X38325000Y-127477997D01*
X38353867Y-127771087D01*
X38467943Y-128147146D01*
X38653193Y-128493725D01*
X38902497Y-128797503D01*
X39206275Y-129046807D01*
X39552853Y-129232057D01*
X39928912Y-129346133D01*
X40320000Y-129384652D01*
X40711087Y-129346133D01*
X41087146Y-129232057D01*
X41433725Y-129046807D01*
X41737503Y-128797503D01*
X41986807Y-128493725D01*
X42172057Y-128147147D01*
X42286133Y-127771088D01*
X42315000Y-127477998D01*
X42315000Y-126762003D01*
X42286133Y-126468913D01*
X42172057Y-126092853D01*
X41986807Y-125746275D01*
X41737503Y-125442497D01*
X41433725Y-125193193D01*
X41087147Y-125007943D01*
X40711088Y-124893867D01*
X40320000Y-124855348D01*
X39928913Y-124893867D01*
X39552854Y-125007943D01*
X39206276Y-125193193D01*
X38902498Y-125442497D01*
X38653193Y-125746275D01*
X38467943Y-126092853D01*
X38353867Y-126468912D01*
X38325000Y-126762002D01*
X34079767Y-126762002D01*
X28700000Y-121382236D01*
X28700000Y-119694801D01*
X29045000Y-119349802D01*
X29045000Y-119521335D01*
X29100147Y-119798574D01*
X29208320Y-120059727D01*
X29365363Y-120294759D01*
X29565241Y-120494637D01*
X29800273Y-120651680D01*
X30061426Y-120759853D01*
X30338665Y-120815000D01*
X30621335Y-120815000D01*
X30898574Y-120759853D01*
X31159727Y-120651680D01*
X31394759Y-120494637D01*
X31594637Y-120294759D01*
X31751680Y-120059727D01*
X31859853Y-119798574D01*
X31915000Y-119521335D01*
X31915000Y-119238665D01*
X31859853Y-118961426D01*
X31751680Y-118700273D01*
X31594637Y-118465241D01*
X31394759Y-118265363D01*
X31240000Y-118161957D01*
X31240000Y-113979801D01*
X34896003Y-110323799D01*
X34925000Y-110300002D01*
X35019973Y-110184277D01*
X35090545Y-110052248D01*
X35134002Y-109908987D01*
X35144999Y-109797334D01*
X35144999Y-109797333D01*
X35148676Y-109760001D01*
X35144999Y-109722668D01*
X35144999Y-103658850D01*
X35203110Y-103676476D01*
X35433000Y-103555155D01*
X35433000Y-102362000D01*
X35687000Y-102362000D01*
X35687000Y-103555155D01*
X35916890Y-103676476D01*
X36064099Y-103631825D01*
X36326920Y-103506641D01*
X36560269Y-103332588D01*
X36755178Y-103116355D01*
X36830000Y-102990745D01*
X36904822Y-103116355D01*
X37099731Y-103332588D01*
X37333080Y-103506641D01*
X37595901Y-103631825D01*
X37743110Y-103676476D01*
X37973000Y-103555155D01*
X37973000Y-102362000D01*
X35687000Y-102362000D01*
X35433000Y-102362000D01*
X35413000Y-102362000D01*
X35413000Y-102108000D01*
X35433000Y-102108000D01*
X35433000Y-99822000D01*
X35687000Y-99822000D01*
X35687000Y-102108000D01*
X37973000Y-102108000D01*
X37973000Y-99822000D01*
X35687000Y-99822000D01*
X35433000Y-99822000D01*
X35413000Y-99822000D01*
X35413000Y-99568000D01*
X35433000Y-99568000D01*
X35433000Y-98374845D01*
X35687000Y-98374845D01*
X35687000Y-99568000D01*
X37973000Y-99568000D01*
X37973000Y-98374845D01*
X37743110Y-98253524D01*
X37595901Y-98298175D01*
X37333080Y-98423359D01*
X37099731Y-98597412D01*
X36904822Y-98813645D01*
X36830000Y-98939255D01*
X36755178Y-98813645D01*
X36560269Y-98597412D01*
X36326920Y-98423359D01*
X36064099Y-98298175D01*
X35916890Y-98253524D01*
X35687000Y-98374845D01*
X35433000Y-98374845D01*
X35203110Y-98253524D01*
X35144999Y-98271150D01*
X35144999Y-94747322D01*
X35148675Y-94709999D01*
X35144999Y-94672676D01*
X35144999Y-94672666D01*
X35134002Y-94561013D01*
X35090545Y-94417752D01*
X35089593Y-94415971D01*
X35019973Y-94285722D01*
X34948798Y-94198996D01*
X34925000Y-94169998D01*
X34896001Y-94146199D01*
X34559999Y-93810198D01*
X34559999Y-93059039D01*
X34923096Y-93059039D01*
X34963754Y-93193087D01*
X35083963Y-93447420D01*
X35251481Y-93673414D01*
X35459869Y-93862385D01*
X35701119Y-94007070D01*
X35965960Y-94101909D01*
X36188000Y-93980624D01*
X36188000Y-92837000D01*
X36442000Y-92837000D01*
X36442000Y-93980624D01*
X36664040Y-94101909D01*
X36928881Y-94007070D01*
X37170131Y-93862385D01*
X37378519Y-93673414D01*
X37546037Y-93447420D01*
X37666246Y-93193087D01*
X37706904Y-93059039D01*
X37584915Y-92837000D01*
X36442000Y-92837000D01*
X36188000Y-92837000D01*
X35045085Y-92837000D01*
X34923096Y-93059039D01*
X34559999Y-93059039D01*
X34559999Y-92360961D01*
X34923096Y-92360961D01*
X35045085Y-92583000D01*
X36188000Y-92583000D01*
X36188000Y-91439376D01*
X36442000Y-91439376D01*
X36442000Y-92583000D01*
X37584915Y-92583000D01*
X37706904Y-92360961D01*
X37666246Y-92226913D01*
X37546037Y-91972580D01*
X37378519Y-91746586D01*
X37170131Y-91557615D01*
X36928881Y-91412930D01*
X36664040Y-91318091D01*
X36442000Y-91439376D01*
X36188000Y-91439376D01*
X35965960Y-91318091D01*
X35701119Y-91412930D01*
X35459869Y-91557615D01*
X35251481Y-91746586D01*
X35083963Y-91972580D01*
X34963754Y-92226913D01*
X34923096Y-92360961D01*
X34559999Y-92360961D01*
X34559999Y-91557902D01*
X34713184Y-91596300D01*
X34995512Y-91610217D01*
X35275130Y-91568787D01*
X35541292Y-91473603D01*
X35666514Y-91406671D01*
X35738097Y-91162702D01*
X34925000Y-90349605D01*
X34910858Y-90363748D01*
X34731253Y-90184143D01*
X34745395Y-90170000D01*
X35104605Y-90170000D01*
X35917702Y-90983097D01*
X36161671Y-90911514D01*
X36282571Y-90656004D01*
X36351300Y-90381816D01*
X36365217Y-90099488D01*
X36323787Y-89819870D01*
X36228603Y-89553708D01*
X36161671Y-89428486D01*
X35917702Y-89356903D01*
X35104605Y-90170000D01*
X34745395Y-90170000D01*
X34731253Y-90155858D01*
X34910858Y-89976253D01*
X34925000Y-89990395D01*
X35738097Y-89177298D01*
X35666514Y-88933329D01*
X35411004Y-88812429D01*
X35136816Y-88743700D01*
X34854488Y-88729783D01*
X34574870Y-88771213D01*
X34559999Y-88776531D01*
X34559999Y-88434802D01*
X39001277Y-83993525D01*
X39001556Y-84050698D01*
X39160306Y-84209448D01*
X40474556Y-84209448D01*
X40474556Y-82945198D01*
X40315806Y-82786448D01*
X40208838Y-82785964D01*
X40516004Y-82478798D01*
X40545001Y-82455001D01*
X40639974Y-82339276D01*
X40710546Y-82207247D01*
X40754003Y-82063986D01*
X40765000Y-81952333D01*
X40765000Y-81952332D01*
X40768677Y-81915000D01*
X40765000Y-81877667D01*
X40765000Y-78142325D01*
X40768676Y-78105000D01*
X40765000Y-78067675D01*
X40765000Y-78067667D01*
X40754003Y-77956014D01*
X40710546Y-77812753D01*
X40639974Y-77680724D01*
X40545001Y-77564999D01*
X40516003Y-77541201D01*
X39198793Y-76223992D01*
X39198789Y-76223987D01*
X38860000Y-75885199D01*
X38860000Y-75405720D01*
X38902497Y-75457503D01*
G04 #@! TA.AperFunction,Conductor*
D25*
G36*
X38902497Y-75457503D02*
G01*
X39206275Y-75706807D01*
X39552853Y-75892057D01*
X39928912Y-76006133D01*
X40320000Y-76044652D01*
X40711087Y-76006133D01*
X41087146Y-75892057D01*
X41334992Y-75759581D01*
X41334991Y-82784423D01*
X40887306Y-82786448D01*
X40728556Y-82945198D01*
X40728556Y-84209448D01*
X40748556Y-84209448D01*
X40748556Y-84463448D01*
X40728556Y-84463448D01*
X40728556Y-84483448D01*
X40474556Y-84483448D01*
X40474556Y-84463448D01*
X39160306Y-84463448D01*
X39001556Y-84622198D01*
X38998484Y-85251448D01*
X39010744Y-85375930D01*
X39047054Y-85495628D01*
X39106019Y-85605942D01*
X39185371Y-85702633D01*
X39282062Y-85781985D01*
X39392376Y-85840950D01*
X39512074Y-85877260D01*
X39636556Y-85889520D01*
X39896696Y-85888343D01*
X39796304Y-85929927D01*
X39517869Y-86115971D01*
X39281079Y-86352761D01*
X39095035Y-86631196D01*
X38966886Y-86940576D01*
X38901556Y-87269013D01*
X38901556Y-87603883D01*
X38966886Y-87932320D01*
X39095035Y-88241700D01*
X39281079Y-88520135D01*
X39517869Y-88756925D01*
X39796304Y-88942969D01*
X40105684Y-89071118D01*
X40434121Y-89136448D01*
X40768991Y-89136448D01*
X41097428Y-89071118D01*
X41334991Y-88972716D01*
X41334991Y-94200180D01*
X41097428Y-94101778D01*
X40768991Y-94036448D01*
X40434121Y-94036448D01*
X40105684Y-94101778D01*
X39796304Y-94229927D01*
X39517869Y-94415971D01*
X39281079Y-94652761D01*
X39095035Y-94931196D01*
X38966886Y-95240576D01*
X38901556Y-95569013D01*
X38901556Y-95903883D01*
X38966886Y-96232320D01*
X39095035Y-96541700D01*
X39281079Y-96820135D01*
X39517869Y-97056925D01*
X39796304Y-97242969D01*
X40002726Y-97328472D01*
X38890358Y-98440841D01*
X38866920Y-98423359D01*
X38604099Y-98298175D01*
X38456890Y-98253524D01*
X38227000Y-98374845D01*
X38227000Y-99568000D01*
X38247000Y-99568000D01*
X38247000Y-99822000D01*
X38227000Y-99822000D01*
X38227000Y-102108000D01*
X38247000Y-102108000D01*
X38247000Y-102362000D01*
X38227000Y-102362000D01*
X38227000Y-103555155D01*
X38456890Y-103676476D01*
X38515002Y-103658850D01*
X38515002Y-107427233D01*
X32509003Y-113433233D01*
X32479999Y-113457036D01*
X32431597Y-113516015D01*
X32385026Y-113572761D01*
X32355678Y-113627667D01*
X32314454Y-113704791D01*
X32270997Y-113848052D01*
X32260000Y-113959705D01*
X32260000Y-113959715D01*
X32256324Y-113997037D01*
X32260000Y-114034360D01*
X32260000Y-115301928D01*
X32120000Y-115301928D01*
X31995518Y-115314188D01*
X31875820Y-115350498D01*
X31765506Y-115409463D01*
X31668815Y-115488815D01*
X31589463Y-115585506D01*
X31530498Y-115695820D01*
X31494188Y-115815518D01*
X31481928Y-115940000D01*
X31481928Y-117740000D01*
X31494188Y-117864482D01*
X31530498Y-117984180D01*
X31589463Y-118094494D01*
X31668815Y-118191185D01*
X31765506Y-118270537D01*
X31875820Y-118329502D01*
X31995518Y-118365812D01*
X32120000Y-118378072D01*
X33530001Y-118378072D01*
X33530000Y-120701956D01*
X33375241Y-120805363D01*
X33175363Y-121005241D01*
X33018320Y-121240273D01*
X32910147Y-121501426D01*
X32855000Y-121778665D01*
X32855000Y-122061335D01*
X32910147Y-122338574D01*
X33018320Y-122599727D01*
X33175363Y-122834759D01*
X33375241Y-123034637D01*
X33610273Y-123191680D01*
X33871426Y-123299853D01*
X34148665Y-123355000D01*
X34431335Y-123355000D01*
X34708574Y-123299853D01*
X34969727Y-123191680D01*
X35204759Y-123034637D01*
X35404637Y-122834759D01*
X35561680Y-122599727D01*
X35669853Y-122338574D01*
X35725000Y-122061335D01*
X35725000Y-121778665D01*
X36030000Y-121778665D01*
X36030000Y-122061335D01*
X36085147Y-122338574D01*
X36193320Y-122599727D01*
X36350363Y-122834759D01*
X36550241Y-123034637D01*
X36785273Y-123191680D01*
X37046426Y-123299853D01*
X37323665Y-123355000D01*
X37606335Y-123355000D01*
X37883574Y-123299853D01*
X38144727Y-123191680D01*
X38379759Y-123034637D01*
X38579637Y-122834759D01*
X38736680Y-122599727D01*
X38844853Y-122338574D01*
X38900000Y-122061335D01*
X38900000Y-121778665D01*
X38844853Y-121501426D01*
X38736680Y-121240273D01*
X38579637Y-121005241D01*
X38379759Y-120805363D01*
X38144727Y-120648320D01*
X37883574Y-120540147D01*
X37606335Y-120485000D01*
X37323665Y-120485000D01*
X37046426Y-120540147D01*
X36785273Y-120648320D01*
X36550241Y-120805363D01*
X36350363Y-121005241D01*
X36193320Y-121240273D01*
X36085147Y-121501426D01*
X36030000Y-121778665D01*
X35725000Y-121778665D01*
X35669853Y-121501426D01*
X35561680Y-121240273D01*
X35404637Y-121005241D01*
X35204759Y-120805363D01*
X35050000Y-120701957D01*
X35050000Y-118384801D01*
X35111070Y-118323731D01*
X35368816Y-118375000D01*
X35671184Y-118375000D01*
X35967743Y-118316011D01*
X36247095Y-118200299D01*
X36498505Y-118032312D01*
X36712312Y-117818505D01*
X36770000Y-117732169D01*
X36827688Y-117818505D01*
X37041495Y-118032312D01*
X37292905Y-118200299D01*
X37572257Y-118316011D01*
X37868816Y-118375000D01*
X38171184Y-118375000D01*
X38467743Y-118316011D01*
X38491407Y-118306209D01*
X39241312Y-119056114D01*
X39205000Y-119238665D01*
X39205000Y-119521335D01*
X39260147Y-119798574D01*
X39368320Y-120059727D01*
X39525363Y-120294759D01*
X39725241Y-120494637D01*
X39960273Y-120651680D01*
X40221426Y-120759853D01*
X40498665Y-120815000D01*
X40781335Y-120815000D01*
X41058574Y-120759853D01*
X41319727Y-120651680D01*
X41554759Y-120494637D01*
X41630000Y-120419396D01*
X41630000Y-121727667D01*
X41626323Y-121764999D01*
X41640997Y-121913984D01*
X41684453Y-122057245D01*
X41755025Y-122189275D01*
X41794224Y-122237038D01*
X41849999Y-122305000D01*
X41878997Y-122328798D01*
X42416312Y-122866114D01*
X42380000Y-123048665D01*
X42380000Y-123331335D01*
X42435147Y-123608574D01*
X42543320Y-123869727D01*
X42700363Y-124104759D01*
X42900241Y-124304637D01*
X43135273Y-124461680D01*
X43396426Y-124569853D01*
X43673665Y-124625000D01*
X43956335Y-124625000D01*
X44233574Y-124569853D01*
X44494727Y-124461680D01*
X44729759Y-124304637D01*
X44929637Y-124104759D01*
X45060000Y-123909656D01*
X45060000Y-132630344D01*
X44929637Y-132435241D01*
X44729759Y-132235363D01*
X44494727Y-132078320D01*
X44233574Y-131970147D01*
X43956335Y-131915000D01*
X43673665Y-131915000D01*
X43396426Y-131970147D01*
X43135273Y-132078320D01*
X42900241Y-132235363D01*
X42700363Y-132435241D01*
X42543320Y-132670273D01*
X42435147Y-132931426D01*
X42380000Y-133208665D01*
X42380000Y-133491335D01*
X42416312Y-133673886D01*
X42230199Y-133860000D01*
X39358313Y-133860000D01*
X39212312Y-133641495D01*
X38998505Y-133427688D01*
X38747095Y-133259701D01*
X38467743Y-133143989D01*
X38436601Y-133137795D01*
X38579637Y-132994759D01*
X38736680Y-132759727D01*
X38844853Y-132498574D01*
X38900000Y-132221335D01*
X38900000Y-131938665D01*
X38844853Y-131661426D01*
X38736680Y-131400273D01*
X38579637Y-131165241D01*
X38379759Y-130965363D01*
X38144727Y-130808320D01*
X37883574Y-130700147D01*
X37606335Y-130645000D01*
X37323665Y-130645000D01*
X37046426Y-130700147D01*
X36785273Y-130808320D01*
X36550241Y-130965363D01*
X36350363Y-131165241D01*
X36280000Y-131270547D01*
X36280000Y-129314360D01*
X36283676Y-129277037D01*
X36280000Y-129239714D01*
X36280000Y-129239704D01*
X36269003Y-129128051D01*
X36225546Y-128984790D01*
X36154974Y-128852761D01*
X36060001Y-128737036D01*
X36031003Y-128713238D01*
X34079767Y-126762002D01*
X38325000Y-126762002D01*
X38325000Y-127477997D01*
X38353867Y-127771087D01*
X38467943Y-128147146D01*
X38653193Y-128493725D01*
X38902497Y-128797503D01*
X39206275Y-129046807D01*
X39552853Y-129232057D01*
X39928912Y-129346133D01*
X40320000Y-129384652D01*
X40711087Y-129346133D01*
X41087146Y-129232057D01*
X41433725Y-129046807D01*
X41737503Y-128797503D01*
X41986807Y-128493725D01*
X42172057Y-128147147D01*
X42286133Y-127771088D01*
X42315000Y-127477998D01*
X42315000Y-126762003D01*
X42286133Y-126468913D01*
X42172057Y-126092853D01*
X41986807Y-125746275D01*
X41737503Y-125442497D01*
X41433725Y-125193193D01*
X41087147Y-125007943D01*
X40711088Y-124893867D01*
X40320000Y-124855348D01*
X39928913Y-124893867D01*
X39552854Y-125007943D01*
X39206276Y-125193193D01*
X38902498Y-125442497D01*
X38653193Y-125746275D01*
X38467943Y-126092853D01*
X38353867Y-126468912D01*
X38325000Y-126762002D01*
X34079767Y-126762002D01*
X28700000Y-121382236D01*
X28700000Y-119694801D01*
X29045000Y-119349802D01*
X29045000Y-119521335D01*
X29100147Y-119798574D01*
X29208320Y-120059727D01*
X29365363Y-120294759D01*
X29565241Y-120494637D01*
X29800273Y-120651680D01*
X30061426Y-120759853D01*
X30338665Y-120815000D01*
X30621335Y-120815000D01*
X30898574Y-120759853D01*
X31159727Y-120651680D01*
X31394759Y-120494637D01*
X31594637Y-120294759D01*
X31751680Y-120059727D01*
X31859853Y-119798574D01*
X31915000Y-119521335D01*
X31915000Y-119238665D01*
X31859853Y-118961426D01*
X31751680Y-118700273D01*
X31594637Y-118465241D01*
X31394759Y-118265363D01*
X31240000Y-118161957D01*
X31240000Y-113979801D01*
X34896003Y-110323799D01*
X34925000Y-110300002D01*
X35019973Y-110184277D01*
X35090545Y-110052248D01*
X35134002Y-109908987D01*
X35144999Y-109797334D01*
X35144999Y-109797333D01*
X35148676Y-109760001D01*
X35144999Y-109722668D01*
X35144999Y-103658850D01*
X35203110Y-103676476D01*
X35433000Y-103555155D01*
X35433000Y-102362000D01*
X35687000Y-102362000D01*
X35687000Y-103555155D01*
X35916890Y-103676476D01*
X36064099Y-103631825D01*
X36326920Y-103506641D01*
X36560269Y-103332588D01*
X36755178Y-103116355D01*
X36830000Y-102990745D01*
X36904822Y-103116355D01*
X37099731Y-103332588D01*
X37333080Y-103506641D01*
X37595901Y-103631825D01*
X37743110Y-103676476D01*
X37973000Y-103555155D01*
X37973000Y-102362000D01*
X35687000Y-102362000D01*
X35433000Y-102362000D01*
X35413000Y-102362000D01*
X35413000Y-102108000D01*
X35433000Y-102108000D01*
X35433000Y-99822000D01*
X35687000Y-99822000D01*
X35687000Y-102108000D01*
X37973000Y-102108000D01*
X37973000Y-99822000D01*
X35687000Y-99822000D01*
X35433000Y-99822000D01*
X35413000Y-99822000D01*
X35413000Y-99568000D01*
X35433000Y-99568000D01*
X35433000Y-98374845D01*
X35687000Y-98374845D01*
X35687000Y-99568000D01*
X37973000Y-99568000D01*
X37973000Y-98374845D01*
X37743110Y-98253524D01*
X37595901Y-98298175D01*
X37333080Y-98423359D01*
X37099731Y-98597412D01*
X36904822Y-98813645D01*
X36830000Y-98939255D01*
X36755178Y-98813645D01*
X36560269Y-98597412D01*
X36326920Y-98423359D01*
X36064099Y-98298175D01*
X35916890Y-98253524D01*
X35687000Y-98374845D01*
X35433000Y-98374845D01*
X35203110Y-98253524D01*
X35144999Y-98271150D01*
X35144999Y-94747322D01*
X35148675Y-94709999D01*
X35144999Y-94672676D01*
X35144999Y-94672666D01*
X35134002Y-94561013D01*
X35090545Y-94417752D01*
X35089593Y-94415971D01*
X35019973Y-94285722D01*
X34948798Y-94198996D01*
X34925000Y-94169998D01*
X34896001Y-94146199D01*
X34559999Y-93810198D01*
X34559999Y-93059039D01*
X34923096Y-93059039D01*
X34963754Y-93193087D01*
X35083963Y-93447420D01*
X35251481Y-93673414D01*
X35459869Y-93862385D01*
X35701119Y-94007070D01*
X35965960Y-94101909D01*
X36188000Y-93980624D01*
X36188000Y-92837000D01*
X36442000Y-92837000D01*
X36442000Y-93980624D01*
X36664040Y-94101909D01*
X36928881Y-94007070D01*
X37170131Y-93862385D01*
X37378519Y-93673414D01*
X37546037Y-93447420D01*
X37666246Y-93193087D01*
X37706904Y-93059039D01*
X37584915Y-92837000D01*
X36442000Y-92837000D01*
X36188000Y-92837000D01*
X35045085Y-92837000D01*
X34923096Y-93059039D01*
X34559999Y-93059039D01*
X34559999Y-92360961D01*
X34923096Y-92360961D01*
X35045085Y-92583000D01*
X36188000Y-92583000D01*
X36188000Y-91439376D01*
X36442000Y-91439376D01*
X36442000Y-92583000D01*
X37584915Y-92583000D01*
X37706904Y-92360961D01*
X37666246Y-92226913D01*
X37546037Y-91972580D01*
X37378519Y-91746586D01*
X37170131Y-91557615D01*
X36928881Y-91412930D01*
X36664040Y-91318091D01*
X36442000Y-91439376D01*
X36188000Y-91439376D01*
X35965960Y-91318091D01*
X35701119Y-91412930D01*
X35459869Y-91557615D01*
X35251481Y-91746586D01*
X35083963Y-91972580D01*
X34963754Y-92226913D01*
X34923096Y-92360961D01*
X34559999Y-92360961D01*
X34559999Y-91557902D01*
X34713184Y-91596300D01*
X34995512Y-91610217D01*
X35275130Y-91568787D01*
X35541292Y-91473603D01*
X35666514Y-91406671D01*
X35738097Y-91162702D01*
X34925000Y-90349605D01*
X34910858Y-90363748D01*
X34731253Y-90184143D01*
X34745395Y-90170000D01*
X35104605Y-90170000D01*
X35917702Y-90983097D01*
X36161671Y-90911514D01*
X36282571Y-90656004D01*
X36351300Y-90381816D01*
X36365217Y-90099488D01*
X36323787Y-89819870D01*
X36228603Y-89553708D01*
X36161671Y-89428486D01*
X35917702Y-89356903D01*
X35104605Y-90170000D01*
X34745395Y-90170000D01*
X34731253Y-90155858D01*
X34910858Y-89976253D01*
X34925000Y-89990395D01*
X35738097Y-89177298D01*
X35666514Y-88933329D01*
X35411004Y-88812429D01*
X35136816Y-88743700D01*
X34854488Y-88729783D01*
X34574870Y-88771213D01*
X34559999Y-88776531D01*
X34559999Y-88434802D01*
X39001277Y-83993525D01*
X39001556Y-84050698D01*
X39160306Y-84209448D01*
X40474556Y-84209448D01*
X40474556Y-82945198D01*
X40315806Y-82786448D01*
X40208838Y-82785964D01*
X40516004Y-82478798D01*
X40545001Y-82455001D01*
X40639974Y-82339276D01*
X40710546Y-82207247D01*
X40754003Y-82063986D01*
X40765000Y-81952333D01*
X40765000Y-81952332D01*
X40768677Y-81915000D01*
X40765000Y-81877667D01*
X40765000Y-78142325D01*
X40768676Y-78105000D01*
X40765000Y-78067675D01*
X40765000Y-78067667D01*
X40754003Y-77956014D01*
X40710546Y-77812753D01*
X40639974Y-77680724D01*
X40545001Y-77564999D01*
X40516003Y-77541201D01*
X39198793Y-76223992D01*
X39198789Y-76223987D01*
X38860000Y-75885199D01*
X38860000Y-75405720D01*
X38902497Y-75457503D01*
G37*
G04 #@! TD.AperFunction*
D24*
X45060000Y-115006072D02*
X44999427Y-114937178D01*
X44729329Y-114730469D01*
X44424094Y-114580425D01*
X44211122Y-114515825D01*
X43942000Y-114633875D01*
X43942000Y-116078000D01*
X43962000Y-116078000D01*
X43962000Y-116332000D01*
X43942000Y-116332000D01*
X43942000Y-117776125D01*
X44211122Y-117894175D01*
X44424094Y-117829575D01*
X44729329Y-117679531D01*
X44999427Y-117472822D01*
X45060000Y-117403928D01*
X45060000Y-122470344D01*
X44929637Y-122275241D01*
X44729759Y-122075363D01*
X44494727Y-121918320D01*
X44233574Y-121810147D01*
X43956335Y-121755000D01*
X43673665Y-121755000D01*
X43491114Y-121791312D01*
X43149999Y-121450198D01*
X43149999Y-117802093D01*
X43205906Y-117829575D01*
X43418878Y-117894175D01*
X43688000Y-117776125D01*
X43688000Y-116332000D01*
X43668000Y-116332000D01*
X43668000Y-116078000D01*
X43688000Y-116078000D01*
X43688000Y-114633875D01*
X43418878Y-114515825D01*
X43205906Y-114580425D01*
X43149999Y-114607907D01*
X43149999Y-112864802D01*
X44326003Y-111688799D01*
X44355001Y-111665001D01*
X44449974Y-111549276D01*
X44520546Y-111417247D01*
X44564003Y-111273986D01*
X44575000Y-111162333D01*
X44575000Y-111162325D01*
X44578676Y-111125000D01*
X44575000Y-111087675D01*
X44575000Y-107783072D01*
X44915000Y-107783072D01*
X45039482Y-107770812D01*
X45060000Y-107764588D01*
X45060000Y-115006072D01*
G04 #@! TA.AperFunction,Conductor*
D25*
G36*
X45060000Y-115006072D02*
G01*
X44999427Y-114937178D01*
X44729329Y-114730469D01*
X44424094Y-114580425D01*
X44211122Y-114515825D01*
X43942000Y-114633875D01*
X43942000Y-116078000D01*
X43962000Y-116078000D01*
X43962000Y-116332000D01*
X43942000Y-116332000D01*
X43942000Y-117776125D01*
X44211122Y-117894175D01*
X44424094Y-117829575D01*
X44729329Y-117679531D01*
X44999427Y-117472822D01*
X45060000Y-117403928D01*
X45060000Y-122470344D01*
X44929637Y-122275241D01*
X44729759Y-122075363D01*
X44494727Y-121918320D01*
X44233574Y-121810147D01*
X43956335Y-121755000D01*
X43673665Y-121755000D01*
X43491114Y-121791312D01*
X43149999Y-121450198D01*
X43149999Y-117802093D01*
X43205906Y-117829575D01*
X43418878Y-117894175D01*
X43688000Y-117776125D01*
X43688000Y-116332000D01*
X43668000Y-116332000D01*
X43668000Y-116078000D01*
X43688000Y-116078000D01*
X43688000Y-114633875D01*
X43418878Y-114515825D01*
X43205906Y-114580425D01*
X43149999Y-114607907D01*
X43149999Y-112864802D01*
X44326003Y-111688799D01*
X44355001Y-111665001D01*
X44449974Y-111549276D01*
X44520546Y-111417247D01*
X44564003Y-111273986D01*
X44575000Y-111162333D01*
X44575000Y-111162325D01*
X44578676Y-111125000D01*
X44575000Y-111087675D01*
X44575000Y-107783072D01*
X44915000Y-107783072D01*
X45039482Y-107770812D01*
X45060000Y-107764588D01*
X45060000Y-115006072D01*
G37*
G04 #@! TD.AperFunction*
D24*
X27970001Y-114468569D02*
X27590750Y-114470000D01*
X27432000Y-114628750D01*
X27432000Y-116078000D01*
X27452000Y-116078000D01*
X27452000Y-116332000D01*
X27432000Y-116332000D01*
X27432000Y-117781250D01*
X27590750Y-117940000D01*
X27970001Y-117941431D01*
X27970001Y-118275197D01*
X27428998Y-118816201D01*
X27400000Y-118839999D01*
X27376203Y-118868996D01*
X27376201Y-118868998D01*
X27305026Y-118955724D01*
X27234454Y-119087754D01*
X27204180Y-119187558D01*
X27190998Y-119231014D01*
X27184642Y-119295545D01*
X27176324Y-119380000D01*
X27180001Y-119417332D01*
X27180000Y-121659714D01*
X27176324Y-121697037D01*
X27180000Y-121734359D01*
X27180000Y-121734369D01*
X27182032Y-121755000D01*
X27163665Y-121755000D01*
X26981114Y-121791312D01*
X26510010Y-121320209D01*
X26510010Y-117941921D01*
X27019250Y-117940000D01*
X27178000Y-117781250D01*
X27178000Y-116332000D01*
X27158000Y-116332000D01*
X27158000Y-116078000D01*
X27178000Y-116078000D01*
X27178000Y-114628750D01*
X27019250Y-114470000D01*
X26510010Y-114468079D01*
X26510010Y-107914791D01*
X26737088Y-107687714D01*
X26798919Y-107713325D01*
X27134117Y-107780000D01*
X27475883Y-107780000D01*
X27811081Y-107713325D01*
X27970002Y-107647498D01*
X27970001Y-114468569D01*
G04 #@! TA.AperFunction,Conductor*
D25*
G36*
X27970001Y-114468569D02*
G01*
X27590750Y-114470000D01*
X27432000Y-114628750D01*
X27432000Y-116078000D01*
X27452000Y-116078000D01*
X27452000Y-116332000D01*
X27432000Y-116332000D01*
X27432000Y-117781250D01*
X27590750Y-117940000D01*
X27970001Y-117941431D01*
X27970001Y-118275197D01*
X27428998Y-118816201D01*
X27400000Y-118839999D01*
X27376203Y-118868996D01*
X27376201Y-118868998D01*
X27305026Y-118955724D01*
X27234454Y-119087754D01*
X27204180Y-119187558D01*
X27190998Y-119231014D01*
X27184642Y-119295545D01*
X27176324Y-119380000D01*
X27180001Y-119417332D01*
X27180000Y-121659714D01*
X27176324Y-121697037D01*
X27180000Y-121734359D01*
X27180000Y-121734369D01*
X27182032Y-121755000D01*
X27163665Y-121755000D01*
X26981114Y-121791312D01*
X26510010Y-121320209D01*
X26510010Y-117941921D01*
X27019250Y-117940000D01*
X27178000Y-117781250D01*
X27178000Y-116332000D01*
X27158000Y-116332000D01*
X27158000Y-116078000D01*
X27178000Y-116078000D01*
X27178000Y-114628750D01*
X27019250Y-114470000D01*
X26510010Y-114468079D01*
X26510010Y-107914791D01*
X26737088Y-107687714D01*
X26798919Y-107713325D01*
X27134117Y-107780000D01*
X27475883Y-107780000D01*
X27811081Y-107713325D01*
X27970002Y-107647498D01*
X27970001Y-114468569D01*
G37*
G04 #@! TD.AperFunction*
D24*
X33625000Y-98346235D02*
X33524099Y-98298175D01*
X33376890Y-98253524D01*
X33147000Y-98374845D01*
X33147000Y-99568000D01*
X33167000Y-99568000D01*
X33167000Y-99822000D01*
X33147000Y-99822000D01*
X33147000Y-102108000D01*
X33167000Y-102108000D01*
X33167000Y-102362000D01*
X33147000Y-102362000D01*
X33147000Y-103555155D01*
X33376890Y-103676476D01*
X33524099Y-103631825D01*
X33624999Y-103583765D01*
X33624999Y-109445199D01*
X32421639Y-110648560D01*
X32572057Y-110367147D01*
X32686133Y-109991088D01*
X32715000Y-109697998D01*
X32715000Y-108982003D01*
X32686133Y-108688913D01*
X32572057Y-108312853D01*
X32386807Y-107966275D01*
X32137503Y-107662497D01*
X31833725Y-107413193D01*
X31487147Y-107227943D01*
X31111088Y-107113867D01*
X30720000Y-107075348D01*
X30328913Y-107113867D01*
X29952854Y-107227943D01*
X29606276Y-107413193D01*
X29490001Y-107508617D01*
X29490001Y-107474800D01*
X32261003Y-104703799D01*
X32290001Y-104680001D01*
X32384974Y-104564276D01*
X32455546Y-104432247D01*
X32499003Y-104288986D01*
X32510000Y-104177333D01*
X32513677Y-104140000D01*
X32510000Y-104102667D01*
X32510000Y-103629014D01*
X32515901Y-103631825D01*
X32663110Y-103676476D01*
X32893000Y-103555155D01*
X32893000Y-102362000D01*
X32873000Y-102362000D01*
X32873000Y-102108000D01*
X32893000Y-102108000D01*
X32893000Y-99822000D01*
X32873000Y-99822000D01*
X32873000Y-99568000D01*
X32893000Y-99568000D01*
X32893000Y-98374845D01*
X32663110Y-98253524D01*
X32632521Y-98262802D01*
X32632521Y-97479777D01*
X32718102Y-97515226D01*
X32918061Y-97555000D01*
X33121939Y-97555000D01*
X33321898Y-97515226D01*
X33510256Y-97437205D01*
X33625000Y-97360536D01*
X33625000Y-98346235D01*
G04 #@! TA.AperFunction,Conductor*
D25*
G36*
X33625000Y-98346235D02*
G01*
X33524099Y-98298175D01*
X33376890Y-98253524D01*
X33147000Y-98374845D01*
X33147000Y-99568000D01*
X33167000Y-99568000D01*
X33167000Y-99822000D01*
X33147000Y-99822000D01*
X33147000Y-102108000D01*
X33167000Y-102108000D01*
X33167000Y-102362000D01*
X33147000Y-102362000D01*
X33147000Y-103555155D01*
X33376890Y-103676476D01*
X33524099Y-103631825D01*
X33624999Y-103583765D01*
X33624999Y-109445199D01*
X32421639Y-110648560D01*
X32572057Y-110367147D01*
X32686133Y-109991088D01*
X32715000Y-109697998D01*
X32715000Y-108982003D01*
X32686133Y-108688913D01*
X32572057Y-108312853D01*
X32386807Y-107966275D01*
X32137503Y-107662497D01*
X31833725Y-107413193D01*
X31487147Y-107227943D01*
X31111088Y-107113867D01*
X30720000Y-107075348D01*
X30328913Y-107113867D01*
X29952854Y-107227943D01*
X29606276Y-107413193D01*
X29490001Y-107508617D01*
X29490001Y-107474800D01*
X32261003Y-104703799D01*
X32290001Y-104680001D01*
X32384974Y-104564276D01*
X32455546Y-104432247D01*
X32499003Y-104288986D01*
X32510000Y-104177333D01*
X32513677Y-104140000D01*
X32510000Y-104102667D01*
X32510000Y-103629014D01*
X32515901Y-103631825D01*
X32663110Y-103676476D01*
X32893000Y-103555155D01*
X32893000Y-102362000D01*
X32873000Y-102362000D01*
X32873000Y-102108000D01*
X32893000Y-102108000D01*
X32893000Y-99822000D01*
X32873000Y-99822000D01*
X32873000Y-99568000D01*
X32893000Y-99568000D01*
X32893000Y-98374845D01*
X32663110Y-98253524D01*
X32632521Y-98262802D01*
X32632521Y-97479777D01*
X32718102Y-97515226D01*
X32918061Y-97555000D01*
X33121939Y-97555000D01*
X33321898Y-97515226D01*
X33510256Y-97437205D01*
X33625000Y-97360536D01*
X33625000Y-98346235D01*
G37*
G04 #@! TD.AperFunction*
D24*
X26190363Y-55524759D02*
X26390241Y-55724637D01*
X26545000Y-55828044D01*
X26545001Y-60924078D01*
X26541324Y-60961410D01*
X26545001Y-60998743D01*
X26552414Y-61074002D01*
X26555998Y-61110395D01*
X26599454Y-61253656D01*
X26670026Y-61385686D01*
X26714303Y-61439637D01*
X26765000Y-61501411D01*
X26793998Y-61525209D01*
X30602741Y-65333953D01*
X30435273Y-65403320D01*
X30200241Y-65560363D01*
X30000363Y-65760241D01*
X29843320Y-65995273D01*
X29735147Y-66256426D01*
X29680000Y-66533665D01*
X29680000Y-66816335D01*
X29735147Y-67093574D01*
X29843320Y-67354727D01*
X30000363Y-67589759D01*
X30200241Y-67789637D01*
X30435273Y-67946680D01*
X30696426Y-68054853D01*
X30973665Y-68110000D01*
X31256335Y-68110000D01*
X31533574Y-68054853D01*
X31794727Y-67946680D01*
X32029759Y-67789637D01*
X32229637Y-67589759D01*
X32386680Y-67354727D01*
X32456047Y-67187259D01*
X32737196Y-67468408D01*
X32540363Y-67665241D01*
X32383320Y-67900273D01*
X32275147Y-68161426D01*
X32220000Y-68438665D01*
X32220000Y-68721335D01*
X32275147Y-68998574D01*
X32383320Y-69259727D01*
X32540363Y-69494759D01*
X32740241Y-69694637D01*
X32975273Y-69851680D01*
X33236426Y-69959853D01*
X33513665Y-70015000D01*
X33796335Y-70015000D01*
X34020001Y-69970509D01*
X34020002Y-75635194D01*
X31261524Y-78393673D01*
X31232520Y-78417476D01*
X31197424Y-78460241D01*
X31137547Y-78533201D01*
X31102556Y-78598665D01*
X31066975Y-78665231D01*
X31023518Y-78808492D01*
X31012521Y-78920145D01*
X31012521Y-78920155D01*
X31008845Y-78957477D01*
X31012521Y-78994799D01*
X31012521Y-82788014D01*
X30768270Y-82789119D01*
X30609520Y-82947869D01*
X30609520Y-84212119D01*
X30629520Y-84212119D01*
X30629520Y-84466119D01*
X30609520Y-84466119D01*
X30609520Y-84486119D01*
X30355520Y-84486119D01*
X30355520Y-84466119D01*
X29041270Y-84466119D01*
X28882520Y-84624869D01*
X28879448Y-85254119D01*
X28891708Y-85378601D01*
X28928018Y-85498299D01*
X28986983Y-85608613D01*
X29066335Y-85705304D01*
X29163026Y-85784656D01*
X29273340Y-85843621D01*
X29393038Y-85879931D01*
X29517520Y-85892191D01*
X29777660Y-85891014D01*
X29677268Y-85932598D01*
X29398833Y-86118642D01*
X29162043Y-86355432D01*
X28975999Y-86633867D01*
X28847850Y-86943247D01*
X28782520Y-87271684D01*
X28782520Y-87606554D01*
X28847850Y-87934991D01*
X28975999Y-88244371D01*
X29162043Y-88522806D01*
X29398833Y-88759596D01*
X29677268Y-88945640D01*
X29986648Y-89073789D01*
X30315085Y-89139119D01*
X30649955Y-89139119D01*
X30978392Y-89073789D01*
X31112521Y-89018231D01*
X31112522Y-94160007D01*
X30978392Y-94104449D01*
X30649955Y-94039119D01*
X30315085Y-94039119D01*
X29986648Y-94104449D01*
X29677268Y-94232598D01*
X29398833Y-94418642D01*
X29162043Y-94655432D01*
X28975999Y-94933867D01*
X28847850Y-95243247D01*
X28782520Y-95571684D01*
X28782520Y-95906554D01*
X28847850Y-96234991D01*
X28975999Y-96544371D01*
X29162043Y-96822806D01*
X29398833Y-97059596D01*
X29677268Y-97245640D01*
X29986648Y-97373789D01*
X30315085Y-97439119D01*
X30649955Y-97439119D01*
X30978392Y-97373789D01*
X31112522Y-97318231D01*
X31112522Y-98349647D01*
X30913158Y-98267068D01*
X30626260Y-98210000D01*
X30333740Y-98210000D01*
X30113593Y-98253790D01*
X28185000Y-96325199D01*
X28185000Y-91388043D01*
X28339759Y-91284637D01*
X28539637Y-91084759D01*
X28696680Y-90849727D01*
X28804853Y-90588574D01*
X28860000Y-90311335D01*
X28860000Y-90028665D01*
X28804853Y-89751426D01*
X28696680Y-89490273D01*
X28539637Y-89255241D01*
X28339759Y-89055363D01*
X28185000Y-88951957D01*
X28185000Y-83424119D01*
X28879448Y-83424119D01*
X28882520Y-84053369D01*
X29041270Y-84212119D01*
X30355520Y-84212119D01*
X30355520Y-82947869D01*
X30196770Y-82789119D01*
X29517520Y-82786047D01*
X29393038Y-82798307D01*
X29273340Y-82834617D01*
X29163026Y-82893582D01*
X29066335Y-82972934D01*
X28986983Y-83069625D01*
X28928018Y-83179939D01*
X28891708Y-83299637D01*
X28879448Y-83424119D01*
X28185000Y-83424119D01*
X28185000Y-82744801D01*
X28941005Y-81988797D01*
X28970002Y-81965000D01*
X29042877Y-81876202D01*
X29064975Y-81849276D01*
X29135547Y-81717246D01*
X29164210Y-81622754D01*
X29179004Y-81573985D01*
X29190001Y-81462332D01*
X29190001Y-81462323D01*
X29193677Y-81425000D01*
X29190001Y-81387677D01*
X29190001Y-75320426D01*
X29302497Y-75457503D01*
X29606275Y-75706807D01*
X29952853Y-75892057D01*
X30328912Y-76006133D01*
X30720000Y-76044652D01*
X31111087Y-76006133D01*
X31487146Y-75892057D01*
X31833725Y-75706807D01*
X32137503Y-75457503D01*
X32386807Y-75153725D01*
X32572057Y-74807147D01*
X32686133Y-74431088D01*
X32715000Y-74137998D01*
X32715000Y-73422003D01*
X32686133Y-73128913D01*
X32572057Y-72752853D01*
X32386807Y-72406275D01*
X32137503Y-72102497D01*
X31833725Y-71853193D01*
X31487147Y-71667943D01*
X31111088Y-71553867D01*
X30720000Y-71515348D01*
X30328913Y-71553867D01*
X29952854Y-71667943D01*
X29606276Y-71853193D01*
X29302498Y-72102497D01*
X29190001Y-72239575D01*
X29190001Y-71012326D01*
X29193677Y-70975001D01*
X29190001Y-70937676D01*
X29190001Y-70937668D01*
X29179004Y-70826015D01*
X29135547Y-70682754D01*
X29064975Y-70550725D01*
X28970002Y-70435000D01*
X28941004Y-70411202D01*
X28703688Y-70173886D01*
X28740000Y-69991335D01*
X28740000Y-69708665D01*
X28684853Y-69431426D01*
X28576680Y-69170273D01*
X28419637Y-68935241D01*
X28219759Y-68735363D01*
X27984727Y-68578320D01*
X27723574Y-68470147D01*
X27446335Y-68415000D01*
X27163665Y-68415000D01*
X26886426Y-68470147D01*
X26625273Y-68578320D01*
X26390241Y-68735363D01*
X26190363Y-68935241D01*
X26060000Y-69130343D01*
X26060000Y-65489657D01*
X26190363Y-65684759D01*
X26390241Y-65884637D01*
X26625273Y-66041680D01*
X26886426Y-66149853D01*
X27163665Y-66205000D01*
X27446335Y-66205000D01*
X27723574Y-66149853D01*
X27984727Y-66041680D01*
X28219759Y-65884637D01*
X28419637Y-65684759D01*
X28576680Y-65449727D01*
X28684853Y-65188574D01*
X28740000Y-64911335D01*
X28740000Y-64628665D01*
X28684853Y-64351426D01*
X28576680Y-64090273D01*
X28419637Y-63855241D01*
X28219759Y-63655363D01*
X27984727Y-63498320D01*
X27723574Y-63390147D01*
X27446335Y-63335000D01*
X27163665Y-63335000D01*
X26886426Y-63390147D01*
X26625273Y-63498320D01*
X26390241Y-63655363D01*
X26190363Y-63855241D01*
X26060000Y-64050343D01*
X26060000Y-55329657D01*
X26190363Y-55524759D01*
G04 #@! TA.AperFunction,Conductor*
D25*
G36*
X26190363Y-55524759D02*
G01*
X26390241Y-55724637D01*
X26545000Y-55828044D01*
X26545001Y-60924078D01*
X26541324Y-60961410D01*
X26545001Y-60998743D01*
X26552414Y-61074002D01*
X26555998Y-61110395D01*
X26599454Y-61253656D01*
X26670026Y-61385686D01*
X26714303Y-61439637D01*
X26765000Y-61501411D01*
X26793998Y-61525209D01*
X30602741Y-65333953D01*
X30435273Y-65403320D01*
X30200241Y-65560363D01*
X30000363Y-65760241D01*
X29843320Y-65995273D01*
X29735147Y-66256426D01*
X29680000Y-66533665D01*
X29680000Y-66816335D01*
X29735147Y-67093574D01*
X29843320Y-67354727D01*
X30000363Y-67589759D01*
X30200241Y-67789637D01*
X30435273Y-67946680D01*
X30696426Y-68054853D01*
X30973665Y-68110000D01*
X31256335Y-68110000D01*
X31533574Y-68054853D01*
X31794727Y-67946680D01*
X32029759Y-67789637D01*
X32229637Y-67589759D01*
X32386680Y-67354727D01*
X32456047Y-67187259D01*
X32737196Y-67468408D01*
X32540363Y-67665241D01*
X32383320Y-67900273D01*
X32275147Y-68161426D01*
X32220000Y-68438665D01*
X32220000Y-68721335D01*
X32275147Y-68998574D01*
X32383320Y-69259727D01*
X32540363Y-69494759D01*
X32740241Y-69694637D01*
X32975273Y-69851680D01*
X33236426Y-69959853D01*
X33513665Y-70015000D01*
X33796335Y-70015000D01*
X34020001Y-69970509D01*
X34020002Y-75635194D01*
X31261524Y-78393673D01*
X31232520Y-78417476D01*
X31197424Y-78460241D01*
X31137547Y-78533201D01*
X31102556Y-78598665D01*
X31066975Y-78665231D01*
X31023518Y-78808492D01*
X31012521Y-78920145D01*
X31012521Y-78920155D01*
X31008845Y-78957477D01*
X31012521Y-78994799D01*
X31012521Y-82788014D01*
X30768270Y-82789119D01*
X30609520Y-82947869D01*
X30609520Y-84212119D01*
X30629520Y-84212119D01*
X30629520Y-84466119D01*
X30609520Y-84466119D01*
X30609520Y-84486119D01*
X30355520Y-84486119D01*
X30355520Y-84466119D01*
X29041270Y-84466119D01*
X28882520Y-84624869D01*
X28879448Y-85254119D01*
X28891708Y-85378601D01*
X28928018Y-85498299D01*
X28986983Y-85608613D01*
X29066335Y-85705304D01*
X29163026Y-85784656D01*
X29273340Y-85843621D01*
X29393038Y-85879931D01*
X29517520Y-85892191D01*
X29777660Y-85891014D01*
X29677268Y-85932598D01*
X29398833Y-86118642D01*
X29162043Y-86355432D01*
X28975999Y-86633867D01*
X28847850Y-86943247D01*
X28782520Y-87271684D01*
X28782520Y-87606554D01*
X28847850Y-87934991D01*
X28975999Y-88244371D01*
X29162043Y-88522806D01*
X29398833Y-88759596D01*
X29677268Y-88945640D01*
X29986648Y-89073789D01*
X30315085Y-89139119D01*
X30649955Y-89139119D01*
X30978392Y-89073789D01*
X31112521Y-89018231D01*
X31112522Y-94160007D01*
X30978392Y-94104449D01*
X30649955Y-94039119D01*
X30315085Y-94039119D01*
X29986648Y-94104449D01*
X29677268Y-94232598D01*
X29398833Y-94418642D01*
X29162043Y-94655432D01*
X28975999Y-94933867D01*
X28847850Y-95243247D01*
X28782520Y-95571684D01*
X28782520Y-95906554D01*
X28847850Y-96234991D01*
X28975999Y-96544371D01*
X29162043Y-96822806D01*
X29398833Y-97059596D01*
X29677268Y-97245640D01*
X29986648Y-97373789D01*
X30315085Y-97439119D01*
X30649955Y-97439119D01*
X30978392Y-97373789D01*
X31112522Y-97318231D01*
X31112522Y-98349647D01*
X30913158Y-98267068D01*
X30626260Y-98210000D01*
X30333740Y-98210000D01*
X30113593Y-98253790D01*
X28185000Y-96325199D01*
X28185000Y-91388043D01*
X28339759Y-91284637D01*
X28539637Y-91084759D01*
X28696680Y-90849727D01*
X28804853Y-90588574D01*
X28860000Y-90311335D01*
X28860000Y-90028665D01*
X28804853Y-89751426D01*
X28696680Y-89490273D01*
X28539637Y-89255241D01*
X28339759Y-89055363D01*
X28185000Y-88951957D01*
X28185000Y-83424119D01*
X28879448Y-83424119D01*
X28882520Y-84053369D01*
X29041270Y-84212119D01*
X30355520Y-84212119D01*
X30355520Y-82947869D01*
X30196770Y-82789119D01*
X29517520Y-82786047D01*
X29393038Y-82798307D01*
X29273340Y-82834617D01*
X29163026Y-82893582D01*
X29066335Y-82972934D01*
X28986983Y-83069625D01*
X28928018Y-83179939D01*
X28891708Y-83299637D01*
X28879448Y-83424119D01*
X28185000Y-83424119D01*
X28185000Y-82744801D01*
X28941005Y-81988797D01*
X28970002Y-81965000D01*
X29042877Y-81876202D01*
X29064975Y-81849276D01*
X29135547Y-81717246D01*
X29164210Y-81622754D01*
X29179004Y-81573985D01*
X29190001Y-81462332D01*
X29190001Y-81462323D01*
X29193677Y-81425000D01*
X29190001Y-81387677D01*
X29190001Y-75320426D01*
X29302497Y-75457503D01*
X29606275Y-75706807D01*
X29952853Y-75892057D01*
X30328912Y-76006133D01*
X30720000Y-76044652D01*
X31111087Y-76006133D01*
X31487146Y-75892057D01*
X31833725Y-75706807D01*
X32137503Y-75457503D01*
X32386807Y-75153725D01*
X32572057Y-74807147D01*
X32686133Y-74431088D01*
X32715000Y-74137998D01*
X32715000Y-73422003D01*
X32686133Y-73128913D01*
X32572057Y-72752853D01*
X32386807Y-72406275D01*
X32137503Y-72102497D01*
X31833725Y-71853193D01*
X31487147Y-71667943D01*
X31111088Y-71553867D01*
X30720000Y-71515348D01*
X30328913Y-71553867D01*
X29952854Y-71667943D01*
X29606276Y-71853193D01*
X29302498Y-72102497D01*
X29190001Y-72239575D01*
X29190001Y-71012326D01*
X29193677Y-70975001D01*
X29190001Y-70937676D01*
X29190001Y-70937668D01*
X29179004Y-70826015D01*
X29135547Y-70682754D01*
X29064975Y-70550725D01*
X28970002Y-70435000D01*
X28941004Y-70411202D01*
X28703688Y-70173886D01*
X28740000Y-69991335D01*
X28740000Y-69708665D01*
X28684853Y-69431426D01*
X28576680Y-69170273D01*
X28419637Y-68935241D01*
X28219759Y-68735363D01*
X27984727Y-68578320D01*
X27723574Y-68470147D01*
X27446335Y-68415000D01*
X27163665Y-68415000D01*
X26886426Y-68470147D01*
X26625273Y-68578320D01*
X26390241Y-68735363D01*
X26190363Y-68935241D01*
X26060000Y-69130343D01*
X26060000Y-65489657D01*
X26190363Y-65684759D01*
X26390241Y-65884637D01*
X26625273Y-66041680D01*
X26886426Y-66149853D01*
X27163665Y-66205000D01*
X27446335Y-66205000D01*
X27723574Y-66149853D01*
X27984727Y-66041680D01*
X28219759Y-65884637D01*
X28419637Y-65684759D01*
X28576680Y-65449727D01*
X28684853Y-65188574D01*
X28740000Y-64911335D01*
X28740000Y-64628665D01*
X28684853Y-64351426D01*
X28576680Y-64090273D01*
X28419637Y-63855241D01*
X28219759Y-63655363D01*
X27984727Y-63498320D01*
X27723574Y-63390147D01*
X27446335Y-63335000D01*
X27163665Y-63335000D01*
X26886426Y-63390147D01*
X26625273Y-63498320D01*
X26390241Y-63655363D01*
X26190363Y-63855241D01*
X26060000Y-64050343D01*
X26060000Y-55329657D01*
X26190363Y-55524759D01*
G37*
G04 #@! TD.AperFunction*
D24*
X38610000Y-50731474D02*
X38583087Y-50718754D01*
X38449039Y-50678096D01*
X38227000Y-50800085D01*
X38227000Y-51943000D01*
X38247000Y-51943000D01*
X38247000Y-52197000D01*
X38227000Y-52197000D01*
X38227000Y-52217000D01*
X37973000Y-52217000D01*
X37973000Y-52197000D01*
X37953000Y-52197000D01*
X37953000Y-51943000D01*
X37973000Y-51943000D01*
X37973000Y-50800085D01*
X37750961Y-50678096D01*
X37616913Y-50718754D01*
X37554999Y-50748017D01*
X37554999Y-46069802D01*
X37776114Y-45848688D01*
X37958665Y-45885000D01*
X38241335Y-45885000D01*
X38518574Y-45829853D01*
X38610001Y-45791983D01*
X38610000Y-50731474D01*
G04 #@! TA.AperFunction,Conductor*
D25*
G36*
X38610000Y-50731474D02*
G01*
X38583087Y-50718754D01*
X38449039Y-50678096D01*
X38227000Y-50800085D01*
X38227000Y-51943000D01*
X38247000Y-51943000D01*
X38247000Y-52197000D01*
X38227000Y-52197000D01*
X38227000Y-52217000D01*
X37973000Y-52217000D01*
X37973000Y-52197000D01*
X37953000Y-52197000D01*
X37953000Y-51943000D01*
X37973000Y-51943000D01*
X37973000Y-50800085D01*
X37750961Y-50678096D01*
X37616913Y-50718754D01*
X37554999Y-50748017D01*
X37554999Y-46069802D01*
X37776114Y-45848688D01*
X37958665Y-45885000D01*
X38241335Y-45885000D01*
X38518574Y-45829853D01*
X38610001Y-45791983D01*
X38610000Y-50731474D01*
G37*
G04 #@! TD.AperFunction*
D24*
X33147000Y-44323000D02*
X33167000Y-44323000D01*
X33167000Y-44577000D01*
X33147000Y-44577000D01*
X33147000Y-45719915D01*
X33369039Y-45841904D01*
X33503087Y-45801246D01*
X33757420Y-45681037D01*
X33983414Y-45513519D01*
X34172385Y-45305131D01*
X34283933Y-45119135D01*
X34288320Y-45129727D01*
X34445363Y-45364759D01*
X34645241Y-45564637D01*
X34880273Y-45721680D01*
X35141426Y-45829853D01*
X35418665Y-45885000D01*
X35701335Y-45885000D01*
X35978574Y-45829853D01*
X36034999Y-45806481D01*
X36034999Y-50713519D01*
X35978574Y-50690147D01*
X35701335Y-50635000D01*
X35418665Y-50635000D01*
X35141426Y-50690147D01*
X34880273Y-50798320D01*
X34645241Y-50955363D01*
X34445363Y-51155241D01*
X34290000Y-51387759D01*
X34134637Y-51155241D01*
X33934759Y-50955363D01*
X33699727Y-50798320D01*
X33438574Y-50690147D01*
X33161335Y-50635000D01*
X32878665Y-50635000D01*
X32601426Y-50690147D01*
X32365001Y-50788077D01*
X32365001Y-45719993D01*
X32536913Y-45801246D01*
X32670961Y-45841904D01*
X32893000Y-45719915D01*
X32893000Y-44577000D01*
X32873000Y-44577000D01*
X32873000Y-44323000D01*
X32893000Y-44323000D01*
X32893000Y-44303000D01*
X33147000Y-44303000D01*
X33147000Y-44323000D01*
G04 #@! TA.AperFunction,Conductor*
D25*
G36*
X33147000Y-44323000D02*
G01*
X33167000Y-44323000D01*
X33167000Y-44577000D01*
X33147000Y-44577000D01*
X33147000Y-45719915D01*
X33369039Y-45841904D01*
X33503087Y-45801246D01*
X33757420Y-45681037D01*
X33983414Y-45513519D01*
X34172385Y-45305131D01*
X34283933Y-45119135D01*
X34288320Y-45129727D01*
X34445363Y-45364759D01*
X34645241Y-45564637D01*
X34880273Y-45721680D01*
X35141426Y-45829853D01*
X35418665Y-45885000D01*
X35701335Y-45885000D01*
X35978574Y-45829853D01*
X36034999Y-45806481D01*
X36034999Y-50713519D01*
X35978574Y-50690147D01*
X35701335Y-50635000D01*
X35418665Y-50635000D01*
X35141426Y-50690147D01*
X34880273Y-50798320D01*
X34645241Y-50955363D01*
X34445363Y-51155241D01*
X34290000Y-51387759D01*
X34134637Y-51155241D01*
X33934759Y-50955363D01*
X33699727Y-50798320D01*
X33438574Y-50690147D01*
X33161335Y-50635000D01*
X32878665Y-50635000D01*
X32601426Y-50690147D01*
X32365001Y-50788077D01*
X32365001Y-45719993D01*
X32536913Y-45801246D01*
X32670961Y-45841904D01*
X32893000Y-45719915D01*
X32893000Y-44577000D01*
X32873000Y-44577000D01*
X32873000Y-44323000D01*
X32893000Y-44323000D01*
X32893000Y-44303000D01*
X33147000Y-44303000D01*
X33147000Y-44323000D01*
G37*
G04 #@! TD.AperFunction*
G04 #@! TD*
M02*
