%TF.GenerationSoftware,KiCad,Pcbnew,(5.1.9)-1*%
%TF.CreationDate,2021-05-12T23:24:28-04:00*%
%TF.ProjectId,main,6d61696e-2e6b-4696-9361-645f70636258,rev?*%
%TF.SameCoordinates,Original*%
%TF.FileFunction,Legend,Bot*%
%TF.FilePolarity,Positive*%
%FSLAX46Y46*%
G04 Gerber Fmt 4.6, Leading zero omitted, Abs format (unit mm)*
G04 Created by KiCad (PCBNEW (5.1.9)-1) date 2021-05-12 23:24:28*
%MOMM*%
%LPD*%
G01*
G04 APERTURE LIST*
%ADD10C,0.150000*%
%ADD11C,0.120000*%
%ADD12C,0.068000*%
%ADD13C,0.100000*%
%ADD14C,0.203200*%
%ADD15C,0.254000*%
%ADD16C,0.125000*%
%ADD17C,0.127000*%
G04 APERTURE END LIST*
D10*
X181090914Y-137706433D02*
X182090914Y-137706433D01*
X181709961Y-137706433D02*
X181757580Y-137611195D01*
X181757580Y-137420719D01*
X181709961Y-137325480D01*
X181662342Y-137277861D01*
X181567104Y-137230242D01*
X181281390Y-137230242D01*
X181186152Y-137277861D01*
X181138533Y-137325480D01*
X181090914Y-137420719D01*
X181090914Y-137611195D01*
X181138533Y-137706433D01*
X181090914Y-138611195D02*
X181757580Y-138611195D01*
X181090914Y-138182623D02*
X181614723Y-138182623D01*
X181709961Y-138230242D01*
X181757580Y-138325480D01*
X181757580Y-138468338D01*
X181709961Y-138563576D01*
X181662342Y-138611195D01*
X181757580Y-139515957D02*
X181233771Y-139515957D01*
X181138533Y-139468338D01*
X181090914Y-139373100D01*
X181090914Y-139182623D01*
X181138533Y-139087385D01*
X181709961Y-139515957D02*
X181757580Y-139420719D01*
X181757580Y-139182623D01*
X181709961Y-139087385D01*
X181614723Y-139039766D01*
X181519485Y-139039766D01*
X181424247Y-139087385D01*
X181376628Y-139182623D01*
X181376628Y-139420719D01*
X181329009Y-139515957D01*
X181090914Y-139992147D02*
X181757580Y-139992147D01*
X181186152Y-139992147D02*
X181138533Y-140039766D01*
X181090914Y-140135004D01*
X181090914Y-140277861D01*
X181138533Y-140373100D01*
X181233771Y-140420719D01*
X181757580Y-140420719D01*
X181090914Y-140754052D02*
X181090914Y-141135004D01*
X180757580Y-140896909D02*
X181614723Y-140896909D01*
X181709961Y-140944528D01*
X181757580Y-141039766D01*
X181757580Y-141135004D01*
X181090914Y-142135004D02*
X181757580Y-142373100D01*
X181090914Y-142611195D01*
X181757580Y-143515957D02*
X181757580Y-142944528D01*
X181757580Y-143230242D02*
X180757580Y-143230242D01*
X180900438Y-143135004D01*
X180995676Y-143039766D01*
X181043295Y-142944528D01*
X174243300Y-109513171D02*
X174171871Y-109370314D01*
X174171871Y-109156028D01*
X174243300Y-108941742D01*
X174386157Y-108798885D01*
X174529014Y-108727457D01*
X174814728Y-108656028D01*
X175029014Y-108656028D01*
X175314728Y-108727457D01*
X175457585Y-108798885D01*
X175600442Y-108941742D01*
X175671871Y-109156028D01*
X175671871Y-109298885D01*
X175600442Y-109513171D01*
X175529014Y-109584600D01*
X175029014Y-109584600D01*
X175029014Y-109298885D01*
X175671871Y-110227457D02*
X174671871Y-110227457D01*
X174957585Y-110227457D02*
X174814728Y-110298885D01*
X174743300Y-110370314D01*
X174671871Y-110513171D01*
X174671871Y-110656028D01*
X175671871Y-111798885D02*
X174886157Y-111798885D01*
X174743300Y-111727457D01*
X174671871Y-111584600D01*
X174671871Y-111298885D01*
X174743300Y-111156028D01*
X175600442Y-111798885D02*
X175671871Y-111656028D01*
X175671871Y-111298885D01*
X175600442Y-111156028D01*
X175457585Y-111084600D01*
X175314728Y-111084600D01*
X175171871Y-111156028D01*
X175100442Y-111298885D01*
X175100442Y-111656028D01*
X175029014Y-111798885D01*
X174671871Y-112370314D02*
X175671871Y-112727457D01*
X174671871Y-113084600D02*
X175671871Y-112727457D01*
X176029014Y-112584600D01*
X176100442Y-112513171D01*
X176171871Y-112370314D01*
X175671871Y-114798885D02*
X174171871Y-114798885D01*
X175671871Y-115656028D01*
X174171871Y-115656028D01*
X175671871Y-116584600D02*
X175600442Y-116441742D01*
X175529014Y-116370314D01*
X175386157Y-116298885D01*
X174957585Y-116298885D01*
X174814728Y-116370314D01*
X174743300Y-116441742D01*
X174671871Y-116584600D01*
X174671871Y-116798885D01*
X174743300Y-116941742D01*
X174814728Y-117013171D01*
X174957585Y-117084600D01*
X175386157Y-117084600D01*
X175529014Y-117013171D01*
X175600442Y-116941742D01*
X175671871Y-116798885D01*
X175671871Y-116584600D01*
X175671871Y-117727457D02*
X174671871Y-117727457D01*
X174171871Y-117727457D02*
X174243300Y-117656028D01*
X174314728Y-117727457D01*
X174243300Y-117798885D01*
X174171871Y-117727457D01*
X174314728Y-117727457D01*
X175600442Y-118370314D02*
X175671871Y-118513171D01*
X175671871Y-118798885D01*
X175600442Y-118941742D01*
X175457585Y-119013171D01*
X175386157Y-119013171D01*
X175243300Y-118941742D01*
X175171871Y-118798885D01*
X175171871Y-118584600D01*
X175100442Y-118441742D01*
X174957585Y-118370314D01*
X174886157Y-118370314D01*
X174743300Y-118441742D01*
X174671871Y-118584600D01*
X174671871Y-118798885D01*
X174743300Y-118941742D01*
X175600442Y-120227457D02*
X175671871Y-120084600D01*
X175671871Y-119798885D01*
X175600442Y-119656028D01*
X175457585Y-119584600D01*
X174886157Y-119584600D01*
X174743300Y-119656028D01*
X174671871Y-119798885D01*
X174671871Y-120084600D01*
X174743300Y-120227457D01*
X174886157Y-120298885D01*
X175029014Y-120298885D01*
X175171871Y-119584600D01*
X175243300Y-122013171D02*
X175243300Y-122727457D01*
X175671871Y-121870314D02*
X174171871Y-122370314D01*
X175671871Y-122870314D01*
X174671871Y-124013171D02*
X175671871Y-124013171D01*
X174671871Y-123370314D02*
X175457585Y-123370314D01*
X175600442Y-123441742D01*
X175671871Y-123584600D01*
X175671871Y-123798885D01*
X175600442Y-123941742D01*
X175529014Y-124013171D01*
X175671871Y-125370314D02*
X174171871Y-125370314D01*
X175600442Y-125370314D02*
X175671871Y-125227457D01*
X175671871Y-124941742D01*
X175600442Y-124798885D01*
X175529014Y-124727457D01*
X175386157Y-124656028D01*
X174957585Y-124656028D01*
X174814728Y-124727457D01*
X174743300Y-124798885D01*
X174671871Y-124941742D01*
X174671871Y-125227457D01*
X174743300Y-125370314D01*
X175671871Y-126084600D02*
X174671871Y-126084600D01*
X174171871Y-126084600D02*
X174243300Y-126013171D01*
X174314728Y-126084600D01*
X174243300Y-126156028D01*
X174171871Y-126084600D01*
X174314728Y-126084600D01*
X175671871Y-127013171D02*
X175600442Y-126870314D01*
X175529014Y-126798885D01*
X175386157Y-126727457D01*
X174957585Y-126727457D01*
X174814728Y-126798885D01*
X174743300Y-126870314D01*
X174671871Y-127013171D01*
X174671871Y-127227457D01*
X174743300Y-127370314D01*
X174814728Y-127441742D01*
X174957585Y-127513171D01*
X175386157Y-127513171D01*
X175529014Y-127441742D01*
X175600442Y-127370314D01*
X175671871Y-127227457D01*
X175671871Y-127013171D01*
X165342557Y-90327942D02*
X164199700Y-90327942D01*
X162699700Y-90899371D02*
X163556842Y-90899371D01*
X163128271Y-90899371D02*
X163128271Y-89399371D01*
X163271128Y-89613657D01*
X163413985Y-89756514D01*
X163556842Y-89827942D01*
X162128271Y-89542228D02*
X162056842Y-89470800D01*
X161913985Y-89399371D01*
X161556842Y-89399371D01*
X161413985Y-89470800D01*
X161342557Y-89542228D01*
X161271128Y-89685085D01*
X161271128Y-89827942D01*
X161342557Y-90042228D01*
X162199700Y-90899371D01*
X161271128Y-90899371D01*
X160842557Y-89399371D02*
X160342557Y-90899371D01*
X159842557Y-89399371D01*
D11*
X153555700Y-91097100D02*
X164084000Y-91046300D01*
D10*
X153001628Y-63093714D02*
X152601628Y-63093714D01*
X152658771Y-63093714D02*
X152630200Y-63122285D01*
X152601628Y-63179428D01*
X152601628Y-63265142D01*
X152630200Y-63322285D01*
X152687342Y-63350857D01*
X153001628Y-63350857D01*
X152687342Y-63350857D02*
X152630200Y-63379428D01*
X152601628Y-63436571D01*
X152601628Y-63522285D01*
X152630200Y-63579428D01*
X152687342Y-63608000D01*
X153001628Y-63608000D01*
X153001628Y-63893714D02*
X152601628Y-63893714D01*
X152401628Y-63893714D02*
X152430200Y-63865142D01*
X152458771Y-63893714D01*
X152430200Y-63922285D01*
X152401628Y-63893714D01*
X152458771Y-63893714D01*
X152973057Y-64150857D02*
X153001628Y-64208000D01*
X153001628Y-64322285D01*
X152973057Y-64379428D01*
X152915914Y-64408000D01*
X152887342Y-64408000D01*
X152830200Y-64379428D01*
X152801628Y-64322285D01*
X152801628Y-64236571D01*
X152773057Y-64179428D01*
X152715914Y-64150857D01*
X152687342Y-64150857D01*
X152630200Y-64179428D01*
X152601628Y-64236571D01*
X152601628Y-64322285D01*
X152630200Y-64379428D01*
X153001628Y-64750857D02*
X152973057Y-64693714D01*
X152944485Y-64665142D01*
X152887342Y-64636571D01*
X152715914Y-64636571D01*
X152658771Y-64665142D01*
X152630200Y-64693714D01*
X152601628Y-64750857D01*
X152601628Y-64836571D01*
X152630200Y-64893714D01*
X152658771Y-64922285D01*
X152715914Y-64950857D01*
X152887342Y-64950857D01*
X152944485Y-64922285D01*
X152973057Y-64893714D01*
X153001628Y-64836571D01*
X153001628Y-64750857D01*
X153061957Y-66033728D02*
X153090528Y-66090871D01*
X153090528Y-66205157D01*
X153061957Y-66262300D01*
X153004814Y-66290871D01*
X152976242Y-66290871D01*
X152919100Y-66262300D01*
X152890528Y-66205157D01*
X152890528Y-66119442D01*
X152861957Y-66062300D01*
X152804814Y-66033728D01*
X152776242Y-66033728D01*
X152719100Y-66062300D01*
X152690528Y-66119442D01*
X152690528Y-66205157D01*
X152719100Y-66262300D01*
X153061957Y-66805157D02*
X153090528Y-66748014D01*
X153090528Y-66633728D01*
X153061957Y-66576585D01*
X153033385Y-66548014D01*
X152976242Y-66519442D01*
X152804814Y-66519442D01*
X152747671Y-66548014D01*
X152719100Y-66576585D01*
X152690528Y-66633728D01*
X152690528Y-66748014D01*
X152719100Y-66805157D01*
X153090528Y-67062300D02*
X152490528Y-67062300D01*
X152861957Y-67119442D02*
X153090528Y-67290871D01*
X152690528Y-67290871D02*
X152919100Y-67062300D01*
X159110328Y-65773414D02*
X158710328Y-65773414D01*
X158767471Y-65773414D02*
X158738900Y-65801985D01*
X158710328Y-65859128D01*
X158710328Y-65944842D01*
X158738900Y-66001985D01*
X158796042Y-66030557D01*
X159110328Y-66030557D01*
X158796042Y-66030557D02*
X158738900Y-66059128D01*
X158710328Y-66116271D01*
X158710328Y-66201985D01*
X158738900Y-66259128D01*
X158796042Y-66287700D01*
X159110328Y-66287700D01*
X159110328Y-66659128D02*
X159081757Y-66601985D01*
X159053185Y-66573414D01*
X158996042Y-66544842D01*
X158824614Y-66544842D01*
X158767471Y-66573414D01*
X158738900Y-66601985D01*
X158710328Y-66659128D01*
X158710328Y-66744842D01*
X158738900Y-66801985D01*
X158767471Y-66830557D01*
X158824614Y-66859128D01*
X158996042Y-66859128D01*
X159053185Y-66830557D01*
X159081757Y-66801985D01*
X159110328Y-66744842D01*
X159110328Y-66659128D01*
X159081757Y-67087700D02*
X159110328Y-67144842D01*
X159110328Y-67259128D01*
X159081757Y-67316271D01*
X159024614Y-67344842D01*
X158996042Y-67344842D01*
X158938900Y-67316271D01*
X158910328Y-67259128D01*
X158910328Y-67173414D01*
X158881757Y-67116271D01*
X158824614Y-67087700D01*
X158796042Y-67087700D01*
X158738900Y-67116271D01*
X158710328Y-67173414D01*
X158710328Y-67259128D01*
X158738900Y-67316271D01*
X159110328Y-67601985D02*
X158710328Y-67601985D01*
X158510328Y-67601985D02*
X158538900Y-67573414D01*
X158567471Y-67601985D01*
X158538900Y-67630557D01*
X158510328Y-67601985D01*
X158567471Y-67601985D01*
X154990742Y-71353328D02*
X154990742Y-70953328D01*
X154990742Y-71067614D02*
X154962171Y-71010471D01*
X154933600Y-70981900D01*
X154876457Y-70953328D01*
X154819314Y-70953328D01*
X154647885Y-71324757D02*
X154590742Y-71353328D01*
X154476457Y-71353328D01*
X154419314Y-71324757D01*
X154390742Y-71267614D01*
X154390742Y-71239042D01*
X154419314Y-71181900D01*
X154476457Y-71153328D01*
X154562171Y-71153328D01*
X154619314Y-71124757D01*
X154647885Y-71067614D01*
X154647885Y-71039042D01*
X154619314Y-70981900D01*
X154562171Y-70953328D01*
X154476457Y-70953328D01*
X154419314Y-70981900D01*
X154219314Y-70953328D02*
X153990742Y-70953328D01*
X154133600Y-70753328D02*
X154133600Y-71267614D01*
X154105028Y-71324757D01*
X154047885Y-71353328D01*
X153990742Y-71353328D01*
X157564085Y-70927928D02*
X157564085Y-71413642D01*
X157592657Y-71470785D01*
X157621228Y-71499357D01*
X157678371Y-71527928D01*
X157764085Y-71527928D01*
X157821228Y-71499357D01*
X157564085Y-71299357D02*
X157621228Y-71327928D01*
X157735514Y-71327928D01*
X157792657Y-71299357D01*
X157821228Y-71270785D01*
X157849800Y-71213642D01*
X157849800Y-71042214D01*
X157821228Y-70985071D01*
X157792657Y-70956500D01*
X157735514Y-70927928D01*
X157621228Y-70927928D01*
X157564085Y-70956500D01*
X157278371Y-70927928D02*
X157278371Y-71327928D01*
X157278371Y-70985071D02*
X157249800Y-70956500D01*
X157192657Y-70927928D01*
X157106942Y-70927928D01*
X157049800Y-70956500D01*
X157021228Y-71013642D01*
X157021228Y-71327928D01*
X156478371Y-71327928D02*
X156478371Y-70727928D01*
X156478371Y-71299357D02*
X156535514Y-71327928D01*
X156649800Y-71327928D01*
X156706942Y-71299357D01*
X156735514Y-71270785D01*
X156764085Y-71213642D01*
X156764085Y-71042214D01*
X156735514Y-70985071D01*
X156706942Y-70956500D01*
X156649800Y-70927928D01*
X156535514Y-70927928D01*
X156478371Y-70956500D01*
X157235514Y-61850628D02*
X157521228Y-61850628D01*
X157549800Y-62136342D01*
X157521228Y-62107771D01*
X157464085Y-62079200D01*
X157321228Y-62079200D01*
X157264085Y-62107771D01*
X157235514Y-62136342D01*
X157206942Y-62193485D01*
X157206942Y-62336342D01*
X157235514Y-62393485D01*
X157264085Y-62422057D01*
X157321228Y-62450628D01*
X157464085Y-62450628D01*
X157521228Y-62422057D01*
X157549800Y-62393485D01*
X157006942Y-62050628D02*
X156864085Y-62450628D01*
X156721228Y-62050628D01*
D11*
%TO.C,J15*%
X154559000Y-62805000D02*
X153229000Y-62805000D01*
X153229000Y-62805000D02*
X153229000Y-64135000D01*
X155829000Y-62805000D02*
X155829000Y-65405000D01*
X155829000Y-65405000D02*
X153229000Y-65405000D01*
X153229000Y-65405000D02*
X153229000Y-70545000D01*
X158429000Y-70545000D02*
X153229000Y-70545000D01*
X158429000Y-62805000D02*
X158429000Y-70545000D01*
X158429000Y-62805000D02*
X155829000Y-62805000D01*
D12*
%TO.C,IC1*%
X166291000Y-55604000D02*
X166291000Y-55604000D01*
X166223000Y-55604000D02*
X166223000Y-55604000D01*
D13*
X161175000Y-61162000D02*
X155075000Y-61162000D01*
X161175000Y-54662000D02*
X161175000Y-61162000D01*
X155075000Y-54662000D02*
X161175000Y-54662000D01*
D12*
X166223000Y-55604000D02*
G75*
G03*
X166291000Y-55604000I34000J0D01*
G01*
X166291000Y-55604000D02*
G75*
G03*
X166223000Y-55604000I-34000J0D01*
G01*
D11*
%TO.C,R25*%
X175233000Y-50930436D02*
X175233000Y-51384564D01*
X173763000Y-50930436D02*
X173763000Y-51384564D01*
%TO.C,J2*%
X158810000Y-76394000D02*
X156210000Y-76394000D01*
X158810000Y-76394000D02*
X158810000Y-89214000D01*
X158810000Y-89214000D02*
X153610000Y-89214000D01*
X153610000Y-78994000D02*
X153610000Y-89214000D01*
X156210000Y-78994000D02*
X153610000Y-78994000D01*
X156210000Y-76394000D02*
X156210000Y-78994000D01*
X153610000Y-76394000D02*
X153610000Y-77724000D01*
X154940000Y-76394000D02*
X153610000Y-76394000D01*
%TO.C,C1*%
X160809000Y-66606748D02*
X160809000Y-67129252D01*
X162279000Y-66606748D02*
X162279000Y-67129252D01*
%TO.C,C2*%
X171858000Y-55633252D02*
X171858000Y-55110748D01*
X173328000Y-55633252D02*
X173328000Y-55110748D01*
%TO.C,C3*%
X177265000Y-47424748D02*
X177265000Y-47947252D01*
X175795000Y-47424748D02*
X175795000Y-47947252D01*
%TO.C,C4*%
X177265000Y-51503252D02*
X177265000Y-50980748D01*
X175795000Y-51503252D02*
X175795000Y-50980748D01*
%TO.C,C5*%
X162279000Y-70812252D02*
X162279000Y-70289748D01*
X160809000Y-70812252D02*
X160809000Y-70289748D01*
%TO.C,C6*%
X161932252Y-64362000D02*
X161409748Y-64362000D01*
X161932252Y-62892000D02*
X161409748Y-62892000D01*
%TO.C,C7*%
X162279000Y-74033748D02*
X162279000Y-74556252D01*
X160809000Y-74033748D02*
X160809000Y-74556252D01*
%TO.C,C8*%
X168729252Y-78640000D02*
X168206748Y-78640000D01*
X168729252Y-80110000D02*
X168206748Y-80110000D01*
%TO.C,C9*%
X168140748Y-84863000D02*
X168663252Y-84863000D01*
X168140748Y-86333000D02*
X168663252Y-86333000D01*
%TO.C,C10*%
X168724252Y-80799000D02*
X168201748Y-80799000D01*
X168724252Y-82269000D02*
X168201748Y-82269000D01*
%TO.C,C11*%
X168201748Y-82831000D02*
X168724252Y-82831000D01*
X168201748Y-84301000D02*
X168724252Y-84301000D01*
%TO.C,D1*%
X159947000Y-80864000D02*
X162887000Y-80864000D01*
X159947000Y-81104000D02*
X162887000Y-81104000D01*
X159947000Y-80984000D02*
X162887000Y-80984000D01*
X161417000Y-86544000D02*
X161417000Y-85524000D01*
X161417000Y-79064000D02*
X161417000Y-80084000D01*
X159947000Y-85524000D02*
X159947000Y-80084000D01*
X162887000Y-85524000D02*
X159947000Y-85524000D01*
X162887000Y-80084000D02*
X162887000Y-85524000D01*
X159947000Y-80084000D02*
X162887000Y-80084000D01*
%TO.C,D2*%
X163249000Y-80084000D02*
X166189000Y-80084000D01*
X166189000Y-80084000D02*
X166189000Y-85524000D01*
X166189000Y-85524000D02*
X163249000Y-85524000D01*
X163249000Y-85524000D02*
X163249000Y-80084000D01*
X164719000Y-79064000D02*
X164719000Y-80084000D01*
X164719000Y-86544000D02*
X164719000Y-85524000D01*
X163249000Y-80984000D02*
X166189000Y-80984000D01*
X163249000Y-81104000D02*
X166189000Y-81104000D01*
X163249000Y-80864000D02*
X166189000Y-80864000D01*
%TO.C,D3*%
X175458000Y-46576500D02*
X175458000Y-49261500D01*
X175458000Y-49261500D02*
X173538000Y-49261500D01*
X173538000Y-49261500D02*
X173538000Y-46576500D01*
%TO.C,D4*%
X171379000Y-49261500D02*
X171379000Y-46576500D01*
X173299000Y-49261500D02*
X171379000Y-49261500D01*
X173299000Y-46576500D02*
X173299000Y-49261500D01*
%TO.C,D5*%
X171210000Y-99893000D02*
X171210000Y-100823000D01*
X171210000Y-103053000D02*
X171210000Y-102123000D01*
X171210000Y-103053000D02*
X169050000Y-103053000D01*
X171210000Y-99893000D02*
X169750000Y-99893000D01*
%TO.C,D6*%
X171210000Y-114625000D02*
X169750000Y-114625000D01*
X171210000Y-117785000D02*
X169050000Y-117785000D01*
X171210000Y-117785000D02*
X171210000Y-116855000D01*
X171210000Y-114625000D02*
X171210000Y-115555000D01*
%TO.C,D7*%
X171210000Y-129357000D02*
X169750000Y-129357000D01*
X171210000Y-132517000D02*
X169050000Y-132517000D01*
X171210000Y-132517000D02*
X171210000Y-131587000D01*
X171210000Y-129357000D02*
X171210000Y-130287000D01*
%TO.C,D8*%
X171210000Y-143962000D02*
X171210000Y-144892000D01*
X171210000Y-147122000D02*
X171210000Y-146192000D01*
X171210000Y-147122000D02*
X169050000Y-147122000D01*
X171210000Y-143962000D02*
X169750000Y-143962000D01*
%TO.C,D9*%
X161394000Y-99564000D02*
X159154000Y-99564000D01*
X161394000Y-99324000D02*
X159154000Y-99324000D01*
X161394000Y-99444000D02*
X159154000Y-99444000D01*
X160274000Y-95274000D02*
X160274000Y-95924000D01*
X160274000Y-100814000D02*
X160274000Y-100164000D01*
X161394000Y-95924000D02*
X161394000Y-100164000D01*
X159154000Y-95924000D02*
X161394000Y-95924000D01*
X159154000Y-100164000D02*
X159154000Y-95924000D01*
X161394000Y-100164000D02*
X159154000Y-100164000D01*
%TO.C,D10*%
X161394000Y-114896000D02*
X159154000Y-114896000D01*
X159154000Y-114896000D02*
X159154000Y-110656000D01*
X159154000Y-110656000D02*
X161394000Y-110656000D01*
X161394000Y-110656000D02*
X161394000Y-114896000D01*
X160274000Y-115546000D02*
X160274000Y-114896000D01*
X160274000Y-110006000D02*
X160274000Y-110656000D01*
X161394000Y-114176000D02*
X159154000Y-114176000D01*
X161394000Y-114056000D02*
X159154000Y-114056000D01*
X161394000Y-114296000D02*
X159154000Y-114296000D01*
%TO.C,D11*%
X161267000Y-144360000D02*
X159027000Y-144360000D01*
X159027000Y-144360000D02*
X159027000Y-140120000D01*
X159027000Y-140120000D02*
X161267000Y-140120000D01*
X161267000Y-140120000D02*
X161267000Y-144360000D01*
X160147000Y-145010000D02*
X160147000Y-144360000D01*
X160147000Y-139470000D02*
X160147000Y-140120000D01*
X161267000Y-143640000D02*
X159027000Y-143640000D01*
X161267000Y-143520000D02*
X159027000Y-143520000D01*
X161267000Y-143760000D02*
X159027000Y-143760000D01*
%TO.C,D12*%
X161394000Y-129028000D02*
X159154000Y-129028000D01*
X161394000Y-128788000D02*
X159154000Y-128788000D01*
X161394000Y-128908000D02*
X159154000Y-128908000D01*
X160274000Y-124738000D02*
X160274000Y-125388000D01*
X160274000Y-130278000D02*
X160274000Y-129628000D01*
X161394000Y-125388000D02*
X161394000Y-129628000D01*
X159154000Y-125388000D02*
X161394000Y-125388000D01*
X159154000Y-129628000D02*
X159154000Y-125388000D01*
X161394000Y-129628000D02*
X159154000Y-129628000D01*
%TO.C,J1*%
X165014000Y-52383000D02*
X164614000Y-52833000D01*
X164614000Y-52833000D02*
X165414000Y-52833000D01*
X165414000Y-52833000D02*
X165014000Y-52383000D01*
X170164000Y-46783000D02*
X170164000Y-49583000D01*
X170164000Y-49583000D02*
X170464000Y-49583000D01*
X170464000Y-49583000D02*
X170464000Y-51133000D01*
X162464000Y-46783000D02*
X162464000Y-49583000D01*
X162164000Y-49583000D02*
X162464000Y-49583000D01*
X162164000Y-49583000D02*
X162164000Y-51133000D01*
%TO.C,Q1*%
X155176000Y-95260000D02*
X155176000Y-96190000D01*
X155176000Y-98420000D02*
X155176000Y-97490000D01*
X155176000Y-98420000D02*
X153016000Y-98420000D01*
X155176000Y-95260000D02*
X153716000Y-95260000D01*
%TO.C,Q2*%
X155192000Y-110561000D02*
X153732000Y-110561000D01*
X155192000Y-113721000D02*
X153032000Y-113721000D01*
X155192000Y-113721000D02*
X155192000Y-112791000D01*
X155192000Y-110561000D02*
X155192000Y-111491000D01*
%TO.C,Q3*%
X155081000Y-140660000D02*
X155081000Y-141590000D01*
X155081000Y-143820000D02*
X155081000Y-142890000D01*
X155081000Y-143820000D02*
X152921000Y-143820000D01*
X155081000Y-140660000D02*
X153621000Y-140660000D01*
%TO.C,Q4*%
X154954000Y-125166000D02*
X153494000Y-125166000D01*
X154954000Y-128326000D02*
X152794000Y-128326000D01*
X154954000Y-128326000D02*
X154954000Y-127396000D01*
X154954000Y-125166000D02*
X154954000Y-126096000D01*
%TO.C,R1*%
X169137000Y-55622564D02*
X169137000Y-55168436D01*
X167667000Y-55622564D02*
X167667000Y-55168436D01*
%TO.C,R2*%
X169699000Y-55622564D02*
X169699000Y-55168436D01*
X171169000Y-55622564D02*
X171169000Y-55168436D01*
%TO.C,R3*%
X171296000Y-59004564D02*
X171296000Y-58550436D01*
X169826000Y-59004564D02*
X169826000Y-58550436D01*
%TO.C,R4*%
X171604000Y-50977436D02*
X171604000Y-51431564D01*
X173074000Y-50977436D02*
X173074000Y-51431564D01*
%TO.C,R5*%
X179678000Y-69368936D02*
X179678000Y-69823064D01*
X178208000Y-69368936D02*
X178208000Y-69823064D01*
%TO.C,R6*%
X179678000Y-73051936D02*
X179678000Y-73506064D01*
X178208000Y-73051936D02*
X178208000Y-73506064D01*
%TO.C,R7*%
X180875000Y-69392436D02*
X180875000Y-69846564D01*
X182345000Y-69392436D02*
X182345000Y-69846564D01*
%TO.C,R8*%
X181129000Y-73028436D02*
X181129000Y-73482564D01*
X182599000Y-73028436D02*
X182599000Y-73482564D01*
%TO.C,R9*%
X182091000Y-119988064D02*
X182091000Y-119533936D01*
X180621000Y-119988064D02*
X180621000Y-119533936D01*
%TO.C,R10*%
X180621000Y-134696564D02*
X180621000Y-134242436D01*
X182091000Y-134696564D02*
X182091000Y-134242436D01*
%TO.C,R11*%
X182091000Y-149475564D02*
X182091000Y-149021436D01*
X180621000Y-149475564D02*
X180621000Y-149021436D01*
%TO.C,R12*%
X180621000Y-105279564D02*
X180621000Y-104825436D01*
X182091000Y-105279564D02*
X182091000Y-104825436D01*
%TO.C,R13*%
X171931000Y-104778436D02*
X171931000Y-105232564D01*
X170461000Y-104778436D02*
X170461000Y-105232564D01*
%TO.C,R14*%
X170461000Y-119510436D02*
X170461000Y-119964564D01*
X171931000Y-119510436D02*
X171931000Y-119964564D01*
%TO.C,R15*%
X171931000Y-134242436D02*
X171931000Y-134696564D01*
X170461000Y-134242436D02*
X170461000Y-134696564D01*
%TO.C,R16*%
X170461000Y-148974436D02*
X170461000Y-149428564D01*
X171931000Y-148974436D02*
X171931000Y-149428564D01*
%TO.C,R17*%
X154151000Y-104524436D02*
X154151000Y-104978564D01*
X152681000Y-104524436D02*
X152681000Y-104978564D01*
%TO.C,R18*%
X154151000Y-119256436D02*
X154151000Y-119710564D01*
X152681000Y-119256436D02*
X152681000Y-119710564D01*
%TO.C,R19*%
X154555564Y-93245000D02*
X154101436Y-93245000D01*
X154555564Y-94715000D02*
X154101436Y-94715000D01*
%TO.C,R20*%
X154682564Y-108104000D02*
X154228436Y-108104000D01*
X154682564Y-109574000D02*
X154228436Y-109574000D01*
%TO.C,R21*%
X154151000Y-148743936D02*
X154151000Y-149198064D01*
X152681000Y-148743936D02*
X152681000Y-149198064D01*
%TO.C,R22*%
X154151000Y-134011936D02*
X154151000Y-134466064D01*
X152681000Y-134011936D02*
X152681000Y-134466064D01*
%TO.C,R23*%
X154555564Y-138330000D02*
X154101436Y-138330000D01*
X154555564Y-139800000D02*
X154101436Y-139800000D01*
%TO.C,R24*%
X154532064Y-124306000D02*
X154077936Y-124306000D01*
X154532064Y-122836000D02*
X154077936Y-122836000D01*
D14*
%TO.C,RESET1*%
X158800800Y-49758600D02*
G75*
G03*
X158800800Y-49758600I-1778000J0D01*
G01*
X153974800Y-50784760D02*
X153974800Y-48742600D01*
X160070800Y-50754280D02*
X160070800Y-48742600D01*
X154863800Y-46710600D02*
X159181800Y-46710600D01*
X159181800Y-52806600D02*
X154863800Y-52806600D01*
D10*
%TO.C,U2*%
X165386000Y-73561000D02*
X164111000Y-73561000D01*
X175736000Y-74136000D02*
X175061000Y-74136000D01*
X175736000Y-63786000D02*
X175061000Y-63786000D01*
X165386000Y-63786000D02*
X166061000Y-63786000D01*
X165386000Y-74136000D02*
X166061000Y-74136000D01*
X165386000Y-63786000D02*
X165386000Y-64461000D01*
X175736000Y-63786000D02*
X175736000Y-64461000D01*
X175736000Y-74136000D02*
X175736000Y-73461000D01*
X165386000Y-74136000D02*
X165386000Y-73561000D01*
%TO.C,U3*%
X176350000Y-77192000D02*
X176350000Y-75967000D01*
X179475000Y-77192000D02*
X179475000Y-80542000D01*
X176125000Y-77192000D02*
X176125000Y-80542000D01*
X179475000Y-77192000D02*
X179175000Y-77192000D01*
X179475000Y-80542000D02*
X179175000Y-80542000D01*
X176125000Y-80542000D02*
X176425000Y-80542000D01*
X176125000Y-77192000D02*
X176350000Y-77192000D01*
D11*
%TO.C,U4*%
X177800000Y-82687000D02*
X181250000Y-82687000D01*
X177800000Y-82687000D02*
X175850000Y-82687000D01*
X177800000Y-91557000D02*
X179750000Y-91557000D01*
X177800000Y-91557000D02*
X175850000Y-91557000D01*
%TO.C,Y1*%
X182763000Y-45810000D02*
X182763000Y-58410000D01*
X177663000Y-45810000D02*
X182763000Y-45810000D01*
X177663000Y-58410000D02*
X177663000Y-45810000D01*
%TO.C,J15*%
D10*
X155305023Y-61428380D02*
X155305023Y-62142666D01*
X155352642Y-62285523D01*
X155447880Y-62380761D01*
X155590738Y-62428380D01*
X155685976Y-62428380D01*
X154305023Y-62428380D02*
X154876452Y-62428380D01*
X154590738Y-62428380D02*
X154590738Y-61428380D01*
X154685976Y-61571238D01*
X154781214Y-61666476D01*
X154876452Y-61714095D01*
X153400261Y-61428380D02*
X153876452Y-61428380D01*
X153924071Y-61904571D01*
X153876452Y-61856952D01*
X153781214Y-61809333D01*
X153543119Y-61809333D01*
X153447880Y-61856952D01*
X153400261Y-61904571D01*
X153352642Y-61999809D01*
X153352642Y-62237904D01*
X153400261Y-62333142D01*
X153447880Y-62380761D01*
X153543119Y-62428380D01*
X153781214Y-62428380D01*
X153876452Y-62380761D01*
X153924071Y-62333142D01*
%TO.C,IC1*%
D15*
X165006261Y-58486523D02*
X165006261Y-57216523D01*
X163675785Y-58365571D02*
X163736261Y-58426047D01*
X163917690Y-58486523D01*
X164038642Y-58486523D01*
X164220071Y-58426047D01*
X164341023Y-58305095D01*
X164401500Y-58184142D01*
X164461976Y-57942238D01*
X164461976Y-57760809D01*
X164401500Y-57518904D01*
X164341023Y-57397952D01*
X164220071Y-57277000D01*
X164038642Y-57216523D01*
X163917690Y-57216523D01*
X163736261Y-57277000D01*
X163675785Y-57337476D01*
X162466261Y-58486523D02*
X163191976Y-58486523D01*
X162829119Y-58486523D02*
X162829119Y-57216523D01*
X162950071Y-57397952D01*
X163071023Y-57518904D01*
X163191976Y-57579380D01*
%TO.C,R25*%
D10*
X174998014Y-54970328D02*
X175198014Y-54684614D01*
X175340871Y-54970328D02*
X175340871Y-54370328D01*
X175112300Y-54370328D01*
X175055157Y-54398900D01*
X175026585Y-54427471D01*
X174998014Y-54484614D01*
X174998014Y-54570328D01*
X175026585Y-54627471D01*
X175055157Y-54656042D01*
X175112300Y-54684614D01*
X175340871Y-54684614D01*
X174769442Y-54427471D02*
X174740871Y-54398900D01*
X174683728Y-54370328D01*
X174540871Y-54370328D01*
X174483728Y-54398900D01*
X174455157Y-54427471D01*
X174426585Y-54484614D01*
X174426585Y-54541757D01*
X174455157Y-54627471D01*
X174798014Y-54970328D01*
X174426585Y-54970328D01*
X173883728Y-54370328D02*
X174169442Y-54370328D01*
X174198014Y-54656042D01*
X174169442Y-54627471D01*
X174112300Y-54598900D01*
X173969442Y-54598900D01*
X173912300Y-54627471D01*
X173883728Y-54656042D01*
X173855157Y-54713185D01*
X173855157Y-54856042D01*
X173883728Y-54913185D01*
X173912300Y-54941757D01*
X173969442Y-54970328D01*
X174112300Y-54970328D01*
X174169442Y-54941757D01*
X174198014Y-54913185D01*
%TO.C,J2*%
X156543333Y-74406380D02*
X156543333Y-75120666D01*
X156590952Y-75263523D01*
X156686190Y-75358761D01*
X156829047Y-75406380D01*
X156924285Y-75406380D01*
X156114761Y-74501619D02*
X156067142Y-74454000D01*
X155971904Y-74406380D01*
X155733809Y-74406380D01*
X155638571Y-74454000D01*
X155590952Y-74501619D01*
X155543333Y-74596857D01*
X155543333Y-74692095D01*
X155590952Y-74834952D01*
X156162380Y-75406380D01*
X155543333Y-75406380D01*
%TO.C,C1*%
X160221142Y-66701333D02*
X160268761Y-66653714D01*
X160316380Y-66510857D01*
X160316380Y-66415619D01*
X160268761Y-66272761D01*
X160173523Y-66177523D01*
X160078285Y-66129904D01*
X159887809Y-66082285D01*
X159744952Y-66082285D01*
X159554476Y-66129904D01*
X159459238Y-66177523D01*
X159364000Y-66272761D01*
X159316380Y-66415619D01*
X159316380Y-66510857D01*
X159364000Y-66653714D01*
X159411619Y-66701333D01*
X160316380Y-67653714D02*
X160316380Y-67082285D01*
X160316380Y-67368000D02*
X159316380Y-67368000D01*
X159459238Y-67272761D01*
X159554476Y-67177523D01*
X159602095Y-67082285D01*
%TO.C,C2*%
X174690042Y-56183233D02*
X174737661Y-56135614D01*
X174785280Y-55992757D01*
X174785280Y-55897519D01*
X174737661Y-55754661D01*
X174642423Y-55659423D01*
X174547185Y-55611804D01*
X174356709Y-55564185D01*
X174213852Y-55564185D01*
X174023376Y-55611804D01*
X173928138Y-55659423D01*
X173832900Y-55754661D01*
X173785280Y-55897519D01*
X173785280Y-55992757D01*
X173832900Y-56135614D01*
X173880519Y-56183233D01*
X173880519Y-56564185D02*
X173832900Y-56611804D01*
X173785280Y-56707042D01*
X173785280Y-56945138D01*
X173832900Y-57040376D01*
X173880519Y-57087995D01*
X173975757Y-57135614D01*
X174070995Y-57135614D01*
X174213852Y-57087995D01*
X174785280Y-56516566D01*
X174785280Y-57135614D01*
%TO.C,C3*%
X176617300Y-53782885D02*
X176645871Y-53811457D01*
X176731585Y-53840028D01*
X176788728Y-53840028D01*
X176874442Y-53811457D01*
X176931585Y-53754314D01*
X176960157Y-53697171D01*
X176988728Y-53582885D01*
X176988728Y-53497171D01*
X176960157Y-53382885D01*
X176931585Y-53325742D01*
X176874442Y-53268600D01*
X176788728Y-53240028D01*
X176731585Y-53240028D01*
X176645871Y-53268600D01*
X176617300Y-53297171D01*
X176417300Y-53240028D02*
X176045871Y-53240028D01*
X176245871Y-53468600D01*
X176160157Y-53468600D01*
X176103014Y-53497171D01*
X176074442Y-53525742D01*
X176045871Y-53582885D01*
X176045871Y-53725742D01*
X176074442Y-53782885D01*
X176103014Y-53811457D01*
X176160157Y-53840028D01*
X176331585Y-53840028D01*
X176388728Y-53811457D01*
X176417300Y-53782885D01*
%TO.C,C4*%
X176604600Y-55002085D02*
X176633171Y-55030657D01*
X176718885Y-55059228D01*
X176776028Y-55059228D01*
X176861742Y-55030657D01*
X176918885Y-54973514D01*
X176947457Y-54916371D01*
X176976028Y-54802085D01*
X176976028Y-54716371D01*
X176947457Y-54602085D01*
X176918885Y-54544942D01*
X176861742Y-54487800D01*
X176776028Y-54459228D01*
X176718885Y-54459228D01*
X176633171Y-54487800D01*
X176604600Y-54516371D01*
X176090314Y-54659228D02*
X176090314Y-55059228D01*
X176233171Y-54430657D02*
X176376028Y-54859228D01*
X176004600Y-54859228D01*
%TO.C,C5*%
X160313642Y-70381833D02*
X160361261Y-70334214D01*
X160408880Y-70191357D01*
X160408880Y-70096119D01*
X160361261Y-69953261D01*
X160266023Y-69858023D01*
X160170785Y-69810404D01*
X159980309Y-69762785D01*
X159837452Y-69762785D01*
X159646976Y-69810404D01*
X159551738Y-69858023D01*
X159456500Y-69953261D01*
X159408880Y-70096119D01*
X159408880Y-70191357D01*
X159456500Y-70334214D01*
X159504119Y-70381833D01*
X159408880Y-71286595D02*
X159408880Y-70810404D01*
X159885071Y-70762785D01*
X159837452Y-70810404D01*
X159789833Y-70905642D01*
X159789833Y-71143738D01*
X159837452Y-71238976D01*
X159885071Y-71286595D01*
X159980309Y-71334214D01*
X160218404Y-71334214D01*
X160313642Y-71286595D01*
X160361261Y-71238976D01*
X160408880Y-71143738D01*
X160408880Y-70905642D01*
X160361261Y-70810404D01*
X160313642Y-70762785D01*
%TO.C,C6*%
X161837666Y-62304142D02*
X161885285Y-62351761D01*
X162028142Y-62399380D01*
X162123380Y-62399380D01*
X162266238Y-62351761D01*
X162361476Y-62256523D01*
X162409095Y-62161285D01*
X162456714Y-61970809D01*
X162456714Y-61827952D01*
X162409095Y-61637476D01*
X162361476Y-61542238D01*
X162266238Y-61447000D01*
X162123380Y-61399380D01*
X162028142Y-61399380D01*
X161885285Y-61447000D01*
X161837666Y-61494619D01*
X160980523Y-61399380D02*
X161171000Y-61399380D01*
X161266238Y-61447000D01*
X161313857Y-61494619D01*
X161409095Y-61637476D01*
X161456714Y-61827952D01*
X161456714Y-62208904D01*
X161409095Y-62304142D01*
X161361476Y-62351761D01*
X161266238Y-62399380D01*
X161075761Y-62399380D01*
X160980523Y-62351761D01*
X160932904Y-62304142D01*
X160885285Y-62208904D01*
X160885285Y-61970809D01*
X160932904Y-61875571D01*
X160980523Y-61827952D01*
X161075761Y-61780333D01*
X161266238Y-61780333D01*
X161361476Y-61827952D01*
X161409095Y-61875571D01*
X161456714Y-61970809D01*
%TO.C,C7*%
X160221142Y-74128333D02*
X160268761Y-74080714D01*
X160316380Y-73937857D01*
X160316380Y-73842619D01*
X160268761Y-73699761D01*
X160173523Y-73604523D01*
X160078285Y-73556904D01*
X159887809Y-73509285D01*
X159744952Y-73509285D01*
X159554476Y-73556904D01*
X159459238Y-73604523D01*
X159364000Y-73699761D01*
X159316380Y-73842619D01*
X159316380Y-73937857D01*
X159364000Y-74080714D01*
X159411619Y-74128333D01*
X159316380Y-74461666D02*
X159316380Y-75128333D01*
X160316380Y-74699761D01*
%TO.C,C8*%
X171616666Y-79795642D02*
X171664285Y-79843261D01*
X171807142Y-79890880D01*
X171902380Y-79890880D01*
X172045238Y-79843261D01*
X172140476Y-79748023D01*
X172188095Y-79652785D01*
X172235714Y-79462309D01*
X172235714Y-79319452D01*
X172188095Y-79128976D01*
X172140476Y-79033738D01*
X172045238Y-78938500D01*
X171902380Y-78890880D01*
X171807142Y-78890880D01*
X171664285Y-78938500D01*
X171616666Y-78986119D01*
X171045238Y-79319452D02*
X171140476Y-79271833D01*
X171188095Y-79224214D01*
X171235714Y-79128976D01*
X171235714Y-79081357D01*
X171188095Y-78986119D01*
X171140476Y-78938500D01*
X171045238Y-78890880D01*
X170854761Y-78890880D01*
X170759523Y-78938500D01*
X170711904Y-78986119D01*
X170664285Y-79081357D01*
X170664285Y-79128976D01*
X170711904Y-79224214D01*
X170759523Y-79271833D01*
X170854761Y-79319452D01*
X171045238Y-79319452D01*
X171140476Y-79367071D01*
X171188095Y-79414690D01*
X171235714Y-79509928D01*
X171235714Y-79700404D01*
X171188095Y-79795642D01*
X171140476Y-79843261D01*
X171045238Y-79890880D01*
X170854761Y-79890880D01*
X170759523Y-79843261D01*
X170711904Y-79795642D01*
X170664285Y-79700404D01*
X170664285Y-79509928D01*
X170711904Y-79414690D01*
X170759523Y-79367071D01*
X170854761Y-79319452D01*
%TO.C,C9*%
X171680166Y-85955142D02*
X171727785Y-86002761D01*
X171870642Y-86050380D01*
X171965880Y-86050380D01*
X172108738Y-86002761D01*
X172203976Y-85907523D01*
X172251595Y-85812285D01*
X172299214Y-85621809D01*
X172299214Y-85478952D01*
X172251595Y-85288476D01*
X172203976Y-85193238D01*
X172108738Y-85098000D01*
X171965880Y-85050380D01*
X171870642Y-85050380D01*
X171727785Y-85098000D01*
X171680166Y-85145619D01*
X171203976Y-86050380D02*
X171013500Y-86050380D01*
X170918261Y-86002761D01*
X170870642Y-85955142D01*
X170775404Y-85812285D01*
X170727785Y-85621809D01*
X170727785Y-85240857D01*
X170775404Y-85145619D01*
X170823023Y-85098000D01*
X170918261Y-85050380D01*
X171108738Y-85050380D01*
X171203976Y-85098000D01*
X171251595Y-85145619D01*
X171299214Y-85240857D01*
X171299214Y-85478952D01*
X171251595Y-85574190D01*
X171203976Y-85621809D01*
X171108738Y-85669428D01*
X170918261Y-85669428D01*
X170823023Y-85621809D01*
X170775404Y-85574190D01*
X170727785Y-85478952D01*
%TO.C,C10*%
X172283357Y-81827642D02*
X172330976Y-81875261D01*
X172473833Y-81922880D01*
X172569071Y-81922880D01*
X172711928Y-81875261D01*
X172807166Y-81780023D01*
X172854785Y-81684785D01*
X172902404Y-81494309D01*
X172902404Y-81351452D01*
X172854785Y-81160976D01*
X172807166Y-81065738D01*
X172711928Y-80970500D01*
X172569071Y-80922880D01*
X172473833Y-80922880D01*
X172330976Y-80970500D01*
X172283357Y-81018119D01*
X171330976Y-81922880D02*
X171902404Y-81922880D01*
X171616690Y-81922880D02*
X171616690Y-80922880D01*
X171711928Y-81065738D01*
X171807166Y-81160976D01*
X171902404Y-81208595D01*
X170711928Y-80922880D02*
X170616690Y-80922880D01*
X170521452Y-80970500D01*
X170473833Y-81018119D01*
X170426214Y-81113357D01*
X170378595Y-81303833D01*
X170378595Y-81541928D01*
X170426214Y-81732404D01*
X170473833Y-81827642D01*
X170521452Y-81875261D01*
X170616690Y-81922880D01*
X170711928Y-81922880D01*
X170807166Y-81875261D01*
X170854785Y-81827642D01*
X170902404Y-81732404D01*
X170950023Y-81541928D01*
X170950023Y-81303833D01*
X170902404Y-81113357D01*
X170854785Y-81018119D01*
X170807166Y-80970500D01*
X170711928Y-80922880D01*
%TO.C,C11*%
X172283357Y-83859642D02*
X172330976Y-83907261D01*
X172473833Y-83954880D01*
X172569071Y-83954880D01*
X172711928Y-83907261D01*
X172807166Y-83812023D01*
X172854785Y-83716785D01*
X172902404Y-83526309D01*
X172902404Y-83383452D01*
X172854785Y-83192976D01*
X172807166Y-83097738D01*
X172711928Y-83002500D01*
X172569071Y-82954880D01*
X172473833Y-82954880D01*
X172330976Y-83002500D01*
X172283357Y-83050119D01*
X171330976Y-83954880D02*
X171902404Y-83954880D01*
X171616690Y-83954880D02*
X171616690Y-82954880D01*
X171711928Y-83097738D01*
X171807166Y-83192976D01*
X171902404Y-83240595D01*
X170378595Y-83954880D02*
X170950023Y-83954880D01*
X170664309Y-83954880D02*
X170664309Y-82954880D01*
X170759547Y-83097738D01*
X170854785Y-83192976D01*
X170950023Y-83240595D01*
%TO.C,D1*%
X161869380Y-82446904D02*
X160869380Y-82446904D01*
X160869380Y-82685000D01*
X160917000Y-82827857D01*
X161012238Y-82923095D01*
X161107476Y-82970714D01*
X161297952Y-83018333D01*
X161440809Y-83018333D01*
X161631285Y-82970714D01*
X161726523Y-82923095D01*
X161821761Y-82827857D01*
X161869380Y-82685000D01*
X161869380Y-82446904D01*
X161869380Y-83970714D02*
X161869380Y-83399285D01*
X161869380Y-83685000D02*
X160869380Y-83685000D01*
X161012238Y-83589761D01*
X161107476Y-83494523D01*
X161155095Y-83399285D01*
X159769380Y-77462095D02*
X158769380Y-77462095D01*
X159769380Y-78033523D02*
X159197952Y-77604952D01*
X158769380Y-78033523D02*
X159340809Y-77462095D01*
%TO.C,D2*%
X165171380Y-82446904D02*
X164171380Y-82446904D01*
X164171380Y-82685000D01*
X164219000Y-82827857D01*
X164314238Y-82923095D01*
X164409476Y-82970714D01*
X164599952Y-83018333D01*
X164742809Y-83018333D01*
X164933285Y-82970714D01*
X165028523Y-82923095D01*
X165123761Y-82827857D01*
X165171380Y-82685000D01*
X165171380Y-82446904D01*
X164266619Y-83399285D02*
X164219000Y-83446904D01*
X164171380Y-83542142D01*
X164171380Y-83780238D01*
X164219000Y-83875476D01*
X164266619Y-83923095D01*
X164361857Y-83970714D01*
X164457095Y-83970714D01*
X164599952Y-83923095D01*
X165171380Y-83351666D01*
X165171380Y-83970714D01*
X163071380Y-77462095D02*
X162071380Y-77462095D01*
X163071380Y-78033523D02*
X162499952Y-77604952D01*
X162071380Y-78033523D02*
X162642809Y-77462095D01*
%TO.C,D3*%
X175042457Y-53700328D02*
X175042457Y-53100328D01*
X174899600Y-53100328D01*
X174813885Y-53128900D01*
X174756742Y-53186042D01*
X174728171Y-53243185D01*
X174699600Y-53357471D01*
X174699600Y-53443185D01*
X174728171Y-53557471D01*
X174756742Y-53614614D01*
X174813885Y-53671757D01*
X174899600Y-53700328D01*
X175042457Y-53700328D01*
X174499600Y-53100328D02*
X174128171Y-53100328D01*
X174328171Y-53328900D01*
X174242457Y-53328900D01*
X174185314Y-53357471D01*
X174156742Y-53386042D01*
X174128171Y-53443185D01*
X174128171Y-53586042D01*
X174156742Y-53643185D01*
X174185314Y-53671757D01*
X174242457Y-53700328D01*
X174413885Y-53700328D01*
X174471028Y-53671757D01*
X174499600Y-53643185D01*
%TO.C,D4*%
D16*
X171200728Y-47131342D02*
X170600728Y-47131342D01*
X170600728Y-47274200D01*
X170629300Y-47359914D01*
X170686442Y-47417057D01*
X170743585Y-47445628D01*
X170857871Y-47474200D01*
X170943585Y-47474200D01*
X171057871Y-47445628D01*
X171115014Y-47417057D01*
X171172157Y-47359914D01*
X171200728Y-47274200D01*
X171200728Y-47131342D01*
X170800728Y-47988485D02*
X171200728Y-47988485D01*
X170572157Y-47845628D02*
X171000728Y-47702771D01*
X171000728Y-48074200D01*
%TO.C,D5*%
D10*
X171146695Y-99601280D02*
X171146695Y-98601280D01*
X170908600Y-98601280D01*
X170765742Y-98648900D01*
X170670504Y-98744138D01*
X170622885Y-98839376D01*
X170575266Y-99029852D01*
X170575266Y-99172709D01*
X170622885Y-99363185D01*
X170670504Y-99458423D01*
X170765742Y-99553661D01*
X170908600Y-99601280D01*
X171146695Y-99601280D01*
X169670504Y-98601280D02*
X170146695Y-98601280D01*
X170194314Y-99077471D01*
X170146695Y-99029852D01*
X170051457Y-98982233D01*
X169813361Y-98982233D01*
X169718123Y-99029852D01*
X169670504Y-99077471D01*
X169622885Y-99172709D01*
X169622885Y-99410804D01*
X169670504Y-99506042D01*
X169718123Y-99553661D01*
X169813361Y-99601280D01*
X170051457Y-99601280D01*
X170146695Y-99553661D01*
X170194314Y-99506042D01*
%TO.C,D6*%
X171133995Y-114269780D02*
X171133995Y-113269780D01*
X170895900Y-113269780D01*
X170753042Y-113317400D01*
X170657804Y-113412638D01*
X170610185Y-113507876D01*
X170562566Y-113698352D01*
X170562566Y-113841209D01*
X170610185Y-114031685D01*
X170657804Y-114126923D01*
X170753042Y-114222161D01*
X170895900Y-114269780D01*
X171133995Y-114269780D01*
X169705423Y-113269780D02*
X169895900Y-113269780D01*
X169991138Y-113317400D01*
X170038757Y-113365019D01*
X170133995Y-113507876D01*
X170181614Y-113698352D01*
X170181614Y-114079304D01*
X170133995Y-114174542D01*
X170086376Y-114222161D01*
X169991138Y-114269780D01*
X169800661Y-114269780D01*
X169705423Y-114222161D01*
X169657804Y-114174542D01*
X169610185Y-114079304D01*
X169610185Y-113841209D01*
X169657804Y-113745971D01*
X169705423Y-113698352D01*
X169800661Y-113650733D01*
X169991138Y-113650733D01*
X170086376Y-113698352D01*
X170133995Y-113745971D01*
X170181614Y-113841209D01*
%TO.C,D7*%
X171057795Y-128925580D02*
X171057795Y-127925580D01*
X170819700Y-127925580D01*
X170676842Y-127973200D01*
X170581604Y-128068438D01*
X170533985Y-128163676D01*
X170486366Y-128354152D01*
X170486366Y-128497009D01*
X170533985Y-128687485D01*
X170581604Y-128782723D01*
X170676842Y-128877961D01*
X170819700Y-128925580D01*
X171057795Y-128925580D01*
X170153033Y-127925580D02*
X169486366Y-127925580D01*
X169914938Y-128925580D01*
%TO.C,D8*%
X171006995Y-143416280D02*
X171006995Y-142416280D01*
X170768900Y-142416280D01*
X170626042Y-142463900D01*
X170530804Y-142559138D01*
X170483185Y-142654376D01*
X170435566Y-142844852D01*
X170435566Y-142987709D01*
X170483185Y-143178185D01*
X170530804Y-143273423D01*
X170626042Y-143368661D01*
X170768900Y-143416280D01*
X171006995Y-143416280D01*
X169864138Y-142844852D02*
X169959376Y-142797233D01*
X170006995Y-142749614D01*
X170054614Y-142654376D01*
X170054614Y-142606757D01*
X170006995Y-142511519D01*
X169959376Y-142463900D01*
X169864138Y-142416280D01*
X169673661Y-142416280D01*
X169578423Y-142463900D01*
X169530804Y-142511519D01*
X169483185Y-142606757D01*
X169483185Y-142654376D01*
X169530804Y-142749614D01*
X169578423Y-142797233D01*
X169673661Y-142844852D01*
X169864138Y-142844852D01*
X169959376Y-142892471D01*
X170006995Y-142940090D01*
X170054614Y-143035328D01*
X170054614Y-143225804D01*
X170006995Y-143321042D01*
X169959376Y-143368661D01*
X169864138Y-143416280D01*
X169673661Y-143416280D01*
X169578423Y-143368661D01*
X169530804Y-143321042D01*
X169483185Y-143225804D01*
X169483185Y-143035328D01*
X169530804Y-142940090D01*
X169578423Y-142892471D01*
X169673661Y-142844852D01*
%TO.C,D9*%
X162846380Y-97305904D02*
X161846380Y-97305904D01*
X161846380Y-97544000D01*
X161894000Y-97686857D01*
X161989238Y-97782095D01*
X162084476Y-97829714D01*
X162274952Y-97877333D01*
X162417809Y-97877333D01*
X162608285Y-97829714D01*
X162703523Y-97782095D01*
X162798761Y-97686857D01*
X162846380Y-97544000D01*
X162846380Y-97305904D01*
X162846380Y-98353523D02*
X162846380Y-98544000D01*
X162798761Y-98639238D01*
X162751142Y-98686857D01*
X162608285Y-98782095D01*
X162417809Y-98829714D01*
X162036857Y-98829714D01*
X161941619Y-98782095D01*
X161894000Y-98734476D01*
X161846380Y-98639238D01*
X161846380Y-98448761D01*
X161894000Y-98353523D01*
X161941619Y-98305904D01*
X162036857Y-98258285D01*
X162274952Y-98258285D01*
X162370190Y-98305904D01*
X162417809Y-98353523D01*
X162465428Y-98448761D01*
X162465428Y-98639238D01*
X162417809Y-98734476D01*
X162370190Y-98782095D01*
X162274952Y-98829714D01*
X162526380Y-101592095D02*
X161526380Y-101592095D01*
X162526380Y-102163523D02*
X161954952Y-101734952D01*
X161526380Y-102163523D02*
X162097809Y-101592095D01*
%TO.C,D10*%
X162846380Y-111561714D02*
X161846380Y-111561714D01*
X161846380Y-111799809D01*
X161894000Y-111942666D01*
X161989238Y-112037904D01*
X162084476Y-112085523D01*
X162274952Y-112133142D01*
X162417809Y-112133142D01*
X162608285Y-112085523D01*
X162703523Y-112037904D01*
X162798761Y-111942666D01*
X162846380Y-111799809D01*
X162846380Y-111561714D01*
X162846380Y-113085523D02*
X162846380Y-112514095D01*
X162846380Y-112799809D02*
X161846380Y-112799809D01*
X161989238Y-112704571D01*
X162084476Y-112609333D01*
X162132095Y-112514095D01*
X161846380Y-113704571D02*
X161846380Y-113799809D01*
X161894000Y-113895047D01*
X161941619Y-113942666D01*
X162036857Y-113990285D01*
X162227333Y-114037904D01*
X162465428Y-114037904D01*
X162655904Y-113990285D01*
X162751142Y-113942666D01*
X162798761Y-113895047D01*
X162846380Y-113799809D01*
X162846380Y-113704571D01*
X162798761Y-113609333D01*
X162751142Y-113561714D01*
X162655904Y-113514095D01*
X162465428Y-113466476D01*
X162227333Y-113466476D01*
X162036857Y-113514095D01*
X161941619Y-113561714D01*
X161894000Y-113609333D01*
X161846380Y-113704571D01*
X162526380Y-116324095D02*
X161526380Y-116324095D01*
X162526380Y-116895523D02*
X161954952Y-116466952D01*
X161526380Y-116895523D02*
X162097809Y-116324095D01*
%TO.C,D11*%
X162555180Y-140835214D02*
X161555180Y-140835214D01*
X161555180Y-141073309D01*
X161602800Y-141216166D01*
X161698038Y-141311404D01*
X161793276Y-141359023D01*
X161983752Y-141406642D01*
X162126609Y-141406642D01*
X162317085Y-141359023D01*
X162412323Y-141311404D01*
X162507561Y-141216166D01*
X162555180Y-141073309D01*
X162555180Y-140835214D01*
X162555180Y-142359023D02*
X162555180Y-141787595D01*
X162555180Y-142073309D02*
X161555180Y-142073309D01*
X161698038Y-141978071D01*
X161793276Y-141882833D01*
X161840895Y-141787595D01*
X162555180Y-143311404D02*
X162555180Y-142739976D01*
X162555180Y-143025690D02*
X161555180Y-143025690D01*
X161698038Y-142930452D01*
X161793276Y-142835214D01*
X161840895Y-142739976D01*
X162399380Y-145788095D02*
X161399380Y-145788095D01*
X162399380Y-146359523D02*
X161827952Y-145930952D01*
X161399380Y-146359523D02*
X161970809Y-145788095D01*
%TO.C,D12*%
X162846380Y-126293714D02*
X161846380Y-126293714D01*
X161846380Y-126531809D01*
X161894000Y-126674666D01*
X161989238Y-126769904D01*
X162084476Y-126817523D01*
X162274952Y-126865142D01*
X162417809Y-126865142D01*
X162608285Y-126817523D01*
X162703523Y-126769904D01*
X162798761Y-126674666D01*
X162846380Y-126531809D01*
X162846380Y-126293714D01*
X162846380Y-127817523D02*
X162846380Y-127246095D01*
X162846380Y-127531809D02*
X161846380Y-127531809D01*
X161989238Y-127436571D01*
X162084476Y-127341333D01*
X162132095Y-127246095D01*
X161941619Y-128198476D02*
X161894000Y-128246095D01*
X161846380Y-128341333D01*
X161846380Y-128579428D01*
X161894000Y-128674666D01*
X161941619Y-128722285D01*
X162036857Y-128769904D01*
X162132095Y-128769904D01*
X162274952Y-128722285D01*
X162846380Y-128150857D01*
X162846380Y-128769904D01*
X162526380Y-131056095D02*
X161526380Y-131056095D01*
X162526380Y-131627523D02*
X161954952Y-131198952D01*
X161526380Y-131627523D02*
X162097809Y-131056095D01*
%TO.C,J1*%
X163045733Y-52563780D02*
X163045733Y-53278066D01*
X163093352Y-53420923D01*
X163188590Y-53516161D01*
X163331447Y-53563780D01*
X163426685Y-53563780D01*
X162045733Y-53563780D02*
X162617161Y-53563780D01*
X162331447Y-53563780D02*
X162331447Y-52563780D01*
X162426685Y-52706638D01*
X162521923Y-52801876D01*
X162617161Y-52849495D01*
%TO.C,Q1*%
X154511238Y-99887619D02*
X154606476Y-99840000D01*
X154701714Y-99744761D01*
X154844571Y-99601904D01*
X154939809Y-99554285D01*
X155035047Y-99554285D01*
X154987428Y-99792380D02*
X155082666Y-99744761D01*
X155177904Y-99649523D01*
X155225523Y-99459047D01*
X155225523Y-99125714D01*
X155177904Y-98935238D01*
X155082666Y-98840000D01*
X154987428Y-98792380D01*
X154796952Y-98792380D01*
X154701714Y-98840000D01*
X154606476Y-98935238D01*
X154558857Y-99125714D01*
X154558857Y-99459047D01*
X154606476Y-99649523D01*
X154701714Y-99744761D01*
X154796952Y-99792380D01*
X154987428Y-99792380D01*
X153606476Y-99792380D02*
X154177904Y-99792380D01*
X153892190Y-99792380D02*
X153892190Y-98792380D01*
X153987428Y-98935238D01*
X154082666Y-99030476D01*
X154177904Y-99078095D01*
%TO.C,Q2*%
X154527238Y-115188619D02*
X154622476Y-115141000D01*
X154717714Y-115045761D01*
X154860571Y-114902904D01*
X154955809Y-114855285D01*
X155051047Y-114855285D01*
X155003428Y-115093380D02*
X155098666Y-115045761D01*
X155193904Y-114950523D01*
X155241523Y-114760047D01*
X155241523Y-114426714D01*
X155193904Y-114236238D01*
X155098666Y-114141000D01*
X155003428Y-114093380D01*
X154812952Y-114093380D01*
X154717714Y-114141000D01*
X154622476Y-114236238D01*
X154574857Y-114426714D01*
X154574857Y-114760047D01*
X154622476Y-114950523D01*
X154717714Y-115045761D01*
X154812952Y-115093380D01*
X155003428Y-115093380D01*
X154193904Y-114188619D02*
X154146285Y-114141000D01*
X154051047Y-114093380D01*
X153812952Y-114093380D01*
X153717714Y-114141000D01*
X153670095Y-114188619D01*
X153622476Y-114283857D01*
X153622476Y-114379095D01*
X153670095Y-114521952D01*
X154241523Y-115093380D01*
X153622476Y-115093380D01*
%TO.C,Q3*%
X154416238Y-145287619D02*
X154511476Y-145240000D01*
X154606714Y-145144761D01*
X154749571Y-145001904D01*
X154844809Y-144954285D01*
X154940047Y-144954285D01*
X154892428Y-145192380D02*
X154987666Y-145144761D01*
X155082904Y-145049523D01*
X155130523Y-144859047D01*
X155130523Y-144525714D01*
X155082904Y-144335238D01*
X154987666Y-144240000D01*
X154892428Y-144192380D01*
X154701952Y-144192380D01*
X154606714Y-144240000D01*
X154511476Y-144335238D01*
X154463857Y-144525714D01*
X154463857Y-144859047D01*
X154511476Y-145049523D01*
X154606714Y-145144761D01*
X154701952Y-145192380D01*
X154892428Y-145192380D01*
X154130523Y-144192380D02*
X153511476Y-144192380D01*
X153844809Y-144573333D01*
X153701952Y-144573333D01*
X153606714Y-144620952D01*
X153559095Y-144668571D01*
X153511476Y-144763809D01*
X153511476Y-145001904D01*
X153559095Y-145097142D01*
X153606714Y-145144761D01*
X153701952Y-145192380D01*
X153987666Y-145192380D01*
X154082904Y-145144761D01*
X154130523Y-145097142D01*
%TO.C,Q4*%
X154289238Y-129793619D02*
X154384476Y-129746000D01*
X154479714Y-129650761D01*
X154622571Y-129507904D01*
X154717809Y-129460285D01*
X154813047Y-129460285D01*
X154765428Y-129698380D02*
X154860666Y-129650761D01*
X154955904Y-129555523D01*
X155003523Y-129365047D01*
X155003523Y-129031714D01*
X154955904Y-128841238D01*
X154860666Y-128746000D01*
X154765428Y-128698380D01*
X154574952Y-128698380D01*
X154479714Y-128746000D01*
X154384476Y-128841238D01*
X154336857Y-129031714D01*
X154336857Y-129365047D01*
X154384476Y-129555523D01*
X154479714Y-129650761D01*
X154574952Y-129698380D01*
X154765428Y-129698380D01*
X153479714Y-129031714D02*
X153479714Y-129698380D01*
X153717809Y-128650761D02*
X153955904Y-129365047D01*
X153336857Y-129365047D01*
%TO.C,R1*%
X168375000Y-58005628D02*
X168575000Y-57719914D01*
X168717857Y-58005628D02*
X168717857Y-57405628D01*
X168489285Y-57405628D01*
X168432142Y-57434200D01*
X168403571Y-57462771D01*
X168375000Y-57519914D01*
X168375000Y-57605628D01*
X168403571Y-57662771D01*
X168432142Y-57691342D01*
X168489285Y-57719914D01*
X168717857Y-57719914D01*
X167803571Y-58005628D02*
X168146428Y-58005628D01*
X167975000Y-58005628D02*
X167975000Y-57405628D01*
X168032142Y-57491342D01*
X168089285Y-57548485D01*
X168146428Y-57577057D01*
%TO.C,R2*%
X170622900Y-53395528D02*
X170822900Y-53109814D01*
X170965757Y-53395528D02*
X170965757Y-52795528D01*
X170737185Y-52795528D01*
X170680042Y-52824100D01*
X170651471Y-52852671D01*
X170622900Y-52909814D01*
X170622900Y-52995528D01*
X170651471Y-53052671D01*
X170680042Y-53081242D01*
X170737185Y-53109814D01*
X170965757Y-53109814D01*
X170394328Y-52852671D02*
X170365757Y-52824100D01*
X170308614Y-52795528D01*
X170165757Y-52795528D01*
X170108614Y-52824100D01*
X170080042Y-52852671D01*
X170051471Y-52909814D01*
X170051471Y-52966957D01*
X170080042Y-53052671D01*
X170422900Y-53395528D01*
X170051471Y-53395528D01*
%TO.C,R3*%
X172482428Y-58677500D02*
X172196714Y-58477500D01*
X172482428Y-58334642D02*
X171882428Y-58334642D01*
X171882428Y-58563214D01*
X171911000Y-58620357D01*
X171939571Y-58648928D01*
X171996714Y-58677500D01*
X172082428Y-58677500D01*
X172139571Y-58648928D01*
X172168142Y-58620357D01*
X172196714Y-58563214D01*
X172196714Y-58334642D01*
X171882428Y-58877500D02*
X171882428Y-59248928D01*
X172111000Y-59048928D01*
X172111000Y-59134642D01*
X172139571Y-59191785D01*
X172168142Y-59220357D01*
X172225285Y-59248928D01*
X172368142Y-59248928D01*
X172425285Y-59220357D01*
X172453857Y-59191785D01*
X172482428Y-59134642D01*
X172482428Y-58963214D01*
X172453857Y-58906071D01*
X172425285Y-58877500D01*
%TO.C,R4*%
D16*
X172451700Y-53586028D02*
X172651700Y-53300314D01*
X172794557Y-53586028D02*
X172794557Y-52986028D01*
X172565985Y-52986028D01*
X172508842Y-53014600D01*
X172480271Y-53043171D01*
X172451700Y-53100314D01*
X172451700Y-53186028D01*
X172480271Y-53243171D01*
X172508842Y-53271742D01*
X172565985Y-53300314D01*
X172794557Y-53300314D01*
X171937414Y-53186028D02*
X171937414Y-53586028D01*
X172080271Y-52957457D02*
X172223128Y-53386028D01*
X171851700Y-53386028D01*
%TO.C,R5*%
D10*
X179395380Y-66571833D02*
X178919190Y-66238500D01*
X179395380Y-66000404D02*
X178395380Y-66000404D01*
X178395380Y-66381357D01*
X178443000Y-66476595D01*
X178490619Y-66524214D01*
X178585857Y-66571833D01*
X178728714Y-66571833D01*
X178823952Y-66524214D01*
X178871571Y-66476595D01*
X178919190Y-66381357D01*
X178919190Y-66000404D01*
X178395380Y-67476595D02*
X178395380Y-67000404D01*
X178871571Y-66952785D01*
X178823952Y-67000404D01*
X178776333Y-67095642D01*
X178776333Y-67333738D01*
X178823952Y-67428976D01*
X178871571Y-67476595D01*
X178966809Y-67524214D01*
X179204904Y-67524214D01*
X179300142Y-67476595D01*
X179347761Y-67428976D01*
X179395380Y-67333738D01*
X179395380Y-67095642D01*
X179347761Y-67000404D01*
X179300142Y-66952785D01*
%TO.C,R6*%
X177680880Y-74191833D02*
X177204690Y-73858500D01*
X177680880Y-73620404D02*
X176680880Y-73620404D01*
X176680880Y-74001357D01*
X176728500Y-74096595D01*
X176776119Y-74144214D01*
X176871357Y-74191833D01*
X177014214Y-74191833D01*
X177109452Y-74144214D01*
X177157071Y-74096595D01*
X177204690Y-74001357D01*
X177204690Y-73620404D01*
X176680880Y-75048976D02*
X176680880Y-74858500D01*
X176728500Y-74763261D01*
X176776119Y-74715642D01*
X176918976Y-74620404D01*
X177109452Y-74572785D01*
X177490404Y-74572785D01*
X177585642Y-74620404D01*
X177633261Y-74668023D01*
X177680880Y-74763261D01*
X177680880Y-74953738D01*
X177633261Y-75048976D01*
X177585642Y-75096595D01*
X177490404Y-75144214D01*
X177252309Y-75144214D01*
X177157071Y-75096595D01*
X177109452Y-75048976D01*
X177061833Y-74953738D01*
X177061833Y-74763261D01*
X177109452Y-74668023D01*
X177157071Y-74620404D01*
X177252309Y-74572785D01*
%TO.C,R7*%
X182125880Y-66635333D02*
X181649690Y-66302000D01*
X182125880Y-66063904D02*
X181125880Y-66063904D01*
X181125880Y-66444857D01*
X181173500Y-66540095D01*
X181221119Y-66587714D01*
X181316357Y-66635333D01*
X181459214Y-66635333D01*
X181554452Y-66587714D01*
X181602071Y-66540095D01*
X181649690Y-66444857D01*
X181649690Y-66063904D01*
X181125880Y-66968666D02*
X181125880Y-67635333D01*
X182125880Y-67206761D01*
%TO.C,R8*%
X182316380Y-76033333D02*
X181840190Y-75700000D01*
X182316380Y-75461904D02*
X181316380Y-75461904D01*
X181316380Y-75842857D01*
X181364000Y-75938095D01*
X181411619Y-75985714D01*
X181506857Y-76033333D01*
X181649714Y-76033333D01*
X181744952Y-75985714D01*
X181792571Y-75938095D01*
X181840190Y-75842857D01*
X181840190Y-75461904D01*
X181744952Y-76604761D02*
X181697333Y-76509523D01*
X181649714Y-76461904D01*
X181554476Y-76414285D01*
X181506857Y-76414285D01*
X181411619Y-76461904D01*
X181364000Y-76509523D01*
X181316380Y-76604761D01*
X181316380Y-76795238D01*
X181364000Y-76890476D01*
X181411619Y-76938095D01*
X181506857Y-76985714D01*
X181554476Y-76985714D01*
X181649714Y-76938095D01*
X181697333Y-76890476D01*
X181744952Y-76795238D01*
X181744952Y-76604761D01*
X181792571Y-76509523D01*
X181840190Y-76461904D01*
X181935428Y-76414285D01*
X182125904Y-76414285D01*
X182221142Y-76461904D01*
X182268761Y-76509523D01*
X182316380Y-76604761D01*
X182316380Y-76795238D01*
X182268761Y-76890476D01*
X182221142Y-76938095D01*
X182125904Y-76985714D01*
X181935428Y-76985714D01*
X181840190Y-76938095D01*
X181792571Y-76890476D01*
X181744952Y-76795238D01*
%TO.C,R9*%
X180271680Y-119581633D02*
X179795490Y-119248300D01*
X180271680Y-119010204D02*
X179271680Y-119010204D01*
X179271680Y-119391157D01*
X179319300Y-119486395D01*
X179366919Y-119534014D01*
X179462157Y-119581633D01*
X179605014Y-119581633D01*
X179700252Y-119534014D01*
X179747871Y-119486395D01*
X179795490Y-119391157D01*
X179795490Y-119010204D01*
X180271680Y-120057823D02*
X180271680Y-120248300D01*
X180224061Y-120343538D01*
X180176442Y-120391157D01*
X180033585Y-120486395D01*
X179843109Y-120534014D01*
X179462157Y-120534014D01*
X179366919Y-120486395D01*
X179319300Y-120438776D01*
X179271680Y-120343538D01*
X179271680Y-120153061D01*
X179319300Y-120057823D01*
X179366919Y-120010204D01*
X179462157Y-119962585D01*
X179700252Y-119962585D01*
X179795490Y-120010204D01*
X179843109Y-120057823D01*
X179890728Y-120153061D01*
X179890728Y-120343538D01*
X179843109Y-120438776D01*
X179795490Y-120486395D01*
X179700252Y-120534014D01*
%TO.C,R10*%
X180119280Y-133735842D02*
X179643090Y-133402509D01*
X180119280Y-133164414D02*
X179119280Y-133164414D01*
X179119280Y-133545366D01*
X179166900Y-133640604D01*
X179214519Y-133688223D01*
X179309757Y-133735842D01*
X179452614Y-133735842D01*
X179547852Y-133688223D01*
X179595471Y-133640604D01*
X179643090Y-133545366D01*
X179643090Y-133164414D01*
X180119280Y-134688223D02*
X180119280Y-134116795D01*
X180119280Y-134402509D02*
X179119280Y-134402509D01*
X179262138Y-134307271D01*
X179357376Y-134212033D01*
X179404995Y-134116795D01*
X179119280Y-135307271D02*
X179119280Y-135402509D01*
X179166900Y-135497747D01*
X179214519Y-135545366D01*
X179309757Y-135592985D01*
X179500233Y-135640604D01*
X179738328Y-135640604D01*
X179928804Y-135592985D01*
X180024042Y-135545366D01*
X180071661Y-135497747D01*
X180119280Y-135402509D01*
X180119280Y-135307271D01*
X180071661Y-135212033D01*
X180024042Y-135164414D01*
X179928804Y-135116795D01*
X179738328Y-135069176D01*
X179500233Y-135069176D01*
X179309757Y-135116795D01*
X179214519Y-135164414D01*
X179166900Y-135212033D01*
X179119280Y-135307271D01*
%TO.C,R11*%
X180182780Y-148658342D02*
X179706590Y-148325009D01*
X180182780Y-148086914D02*
X179182780Y-148086914D01*
X179182780Y-148467866D01*
X179230400Y-148563104D01*
X179278019Y-148610723D01*
X179373257Y-148658342D01*
X179516114Y-148658342D01*
X179611352Y-148610723D01*
X179658971Y-148563104D01*
X179706590Y-148467866D01*
X179706590Y-148086914D01*
X180182780Y-149610723D02*
X180182780Y-149039295D01*
X180182780Y-149325009D02*
X179182780Y-149325009D01*
X179325638Y-149229771D01*
X179420876Y-149134533D01*
X179468495Y-149039295D01*
X180182780Y-150563104D02*
X180182780Y-149991676D01*
X180182780Y-150277390D02*
X179182780Y-150277390D01*
X179325638Y-150182152D01*
X179420876Y-150086914D01*
X179468495Y-149991676D01*
%TO.C,R12*%
X180157380Y-104360742D02*
X179681190Y-104027409D01*
X180157380Y-103789314D02*
X179157380Y-103789314D01*
X179157380Y-104170266D01*
X179205000Y-104265504D01*
X179252619Y-104313123D01*
X179347857Y-104360742D01*
X179490714Y-104360742D01*
X179585952Y-104313123D01*
X179633571Y-104265504D01*
X179681190Y-104170266D01*
X179681190Y-103789314D01*
X180157380Y-105313123D02*
X180157380Y-104741695D01*
X180157380Y-105027409D02*
X179157380Y-105027409D01*
X179300238Y-104932171D01*
X179395476Y-104836933D01*
X179443095Y-104741695D01*
X179252619Y-105694076D02*
X179205000Y-105741695D01*
X179157380Y-105836933D01*
X179157380Y-106075028D01*
X179205000Y-106170266D01*
X179252619Y-106217885D01*
X179347857Y-106265504D01*
X179443095Y-106265504D01*
X179585952Y-106217885D01*
X180157380Y-105646457D01*
X180157380Y-106265504D01*
%TO.C,R13*%
X169998380Y-104362642D02*
X169522190Y-104029309D01*
X169998380Y-103791214D02*
X168998380Y-103791214D01*
X168998380Y-104172166D01*
X169046000Y-104267404D01*
X169093619Y-104315023D01*
X169188857Y-104362642D01*
X169331714Y-104362642D01*
X169426952Y-104315023D01*
X169474571Y-104267404D01*
X169522190Y-104172166D01*
X169522190Y-103791214D01*
X169998380Y-105315023D02*
X169998380Y-104743595D01*
X169998380Y-105029309D02*
X168998380Y-105029309D01*
X169141238Y-104934071D01*
X169236476Y-104838833D01*
X169284095Y-104743595D01*
X168998380Y-105648357D02*
X168998380Y-106267404D01*
X169379333Y-105934071D01*
X169379333Y-106076928D01*
X169426952Y-106172166D01*
X169474571Y-106219785D01*
X169569809Y-106267404D01*
X169807904Y-106267404D01*
X169903142Y-106219785D01*
X169950761Y-106172166D01*
X169998380Y-106076928D01*
X169998380Y-105791214D01*
X169950761Y-105695976D01*
X169903142Y-105648357D01*
%TO.C,R14*%
X171546757Y-122804180D02*
X171880090Y-122327990D01*
X172118185Y-122804180D02*
X172118185Y-121804180D01*
X171737233Y-121804180D01*
X171641995Y-121851800D01*
X171594376Y-121899419D01*
X171546757Y-121994657D01*
X171546757Y-122137514D01*
X171594376Y-122232752D01*
X171641995Y-122280371D01*
X171737233Y-122327990D01*
X172118185Y-122327990D01*
X170594376Y-122804180D02*
X171165804Y-122804180D01*
X170880090Y-122804180D02*
X170880090Y-121804180D01*
X170975328Y-121947038D01*
X171070566Y-122042276D01*
X171165804Y-122089895D01*
X169737233Y-122137514D02*
X169737233Y-122804180D01*
X169975328Y-121756561D02*
X170213423Y-122470847D01*
X169594376Y-122470847D01*
%TO.C,R15*%
X171851557Y-137536180D02*
X172184890Y-137059990D01*
X172422985Y-137536180D02*
X172422985Y-136536180D01*
X172042033Y-136536180D01*
X171946795Y-136583800D01*
X171899176Y-136631419D01*
X171851557Y-136726657D01*
X171851557Y-136869514D01*
X171899176Y-136964752D01*
X171946795Y-137012371D01*
X172042033Y-137059990D01*
X172422985Y-137059990D01*
X170899176Y-137536180D02*
X171470604Y-137536180D01*
X171184890Y-137536180D02*
X171184890Y-136536180D01*
X171280128Y-136679038D01*
X171375366Y-136774276D01*
X171470604Y-136821895D01*
X169994414Y-136536180D02*
X170470604Y-136536180D01*
X170518223Y-137012371D01*
X170470604Y-136964752D01*
X170375366Y-136917133D01*
X170137271Y-136917133D01*
X170042033Y-136964752D01*
X169994414Y-137012371D01*
X169946795Y-137107609D01*
X169946795Y-137345704D01*
X169994414Y-137440942D01*
X170042033Y-137488561D01*
X170137271Y-137536180D01*
X170375366Y-137536180D01*
X170470604Y-137488561D01*
X170518223Y-137440942D01*
%TO.C,R16*%
X173489880Y-148137642D02*
X173013690Y-147804309D01*
X173489880Y-147566214D02*
X172489880Y-147566214D01*
X172489880Y-147947166D01*
X172537500Y-148042404D01*
X172585119Y-148090023D01*
X172680357Y-148137642D01*
X172823214Y-148137642D01*
X172918452Y-148090023D01*
X172966071Y-148042404D01*
X173013690Y-147947166D01*
X173013690Y-147566214D01*
X173489880Y-149090023D02*
X173489880Y-148518595D01*
X173489880Y-148804309D02*
X172489880Y-148804309D01*
X172632738Y-148709071D01*
X172727976Y-148613833D01*
X172775595Y-148518595D01*
X172489880Y-149947166D02*
X172489880Y-149756690D01*
X172537500Y-149661452D01*
X172585119Y-149613833D01*
X172727976Y-149518595D01*
X172918452Y-149470976D01*
X173299404Y-149470976D01*
X173394642Y-149518595D01*
X173442261Y-149566214D01*
X173489880Y-149661452D01*
X173489880Y-149851928D01*
X173442261Y-149947166D01*
X173394642Y-149994785D01*
X173299404Y-150042404D01*
X173061309Y-150042404D01*
X172966071Y-149994785D01*
X172918452Y-149947166D01*
X172870833Y-149851928D01*
X172870833Y-149661452D01*
X172918452Y-149566214D01*
X172966071Y-149518595D01*
X173061309Y-149470976D01*
%TO.C,R17*%
X155582880Y-104132142D02*
X155106690Y-103798809D01*
X155582880Y-103560714D02*
X154582880Y-103560714D01*
X154582880Y-103941666D01*
X154630500Y-104036904D01*
X154678119Y-104084523D01*
X154773357Y-104132142D01*
X154916214Y-104132142D01*
X155011452Y-104084523D01*
X155059071Y-104036904D01*
X155106690Y-103941666D01*
X155106690Y-103560714D01*
X155582880Y-105084523D02*
X155582880Y-104513095D01*
X155582880Y-104798809D02*
X154582880Y-104798809D01*
X154725738Y-104703571D01*
X154820976Y-104608333D01*
X154868595Y-104513095D01*
X154582880Y-105417857D02*
X154582880Y-106084523D01*
X155582880Y-105655952D01*
%TO.C,R18*%
X155519380Y-118800642D02*
X155043190Y-118467309D01*
X155519380Y-118229214D02*
X154519380Y-118229214D01*
X154519380Y-118610166D01*
X154567000Y-118705404D01*
X154614619Y-118753023D01*
X154709857Y-118800642D01*
X154852714Y-118800642D01*
X154947952Y-118753023D01*
X154995571Y-118705404D01*
X155043190Y-118610166D01*
X155043190Y-118229214D01*
X155519380Y-119753023D02*
X155519380Y-119181595D01*
X155519380Y-119467309D02*
X154519380Y-119467309D01*
X154662238Y-119372071D01*
X154757476Y-119276833D01*
X154805095Y-119181595D01*
X154947952Y-120324452D02*
X154900333Y-120229214D01*
X154852714Y-120181595D01*
X154757476Y-120133976D01*
X154709857Y-120133976D01*
X154614619Y-120181595D01*
X154567000Y-120229214D01*
X154519380Y-120324452D01*
X154519380Y-120514928D01*
X154567000Y-120610166D01*
X154614619Y-120657785D01*
X154709857Y-120705404D01*
X154757476Y-120705404D01*
X154852714Y-120657785D01*
X154900333Y-120610166D01*
X154947952Y-120514928D01*
X154947952Y-120324452D01*
X154995571Y-120229214D01*
X155043190Y-120181595D01*
X155138428Y-120133976D01*
X155328904Y-120133976D01*
X155424142Y-120181595D01*
X155471761Y-120229214D01*
X155519380Y-120324452D01*
X155519380Y-120514928D01*
X155471761Y-120610166D01*
X155424142Y-120657785D01*
X155328904Y-120705404D01*
X155138428Y-120705404D01*
X155043190Y-120657785D01*
X154995571Y-120610166D01*
X154947952Y-120514928D01*
%TO.C,R19*%
X154971357Y-92782380D02*
X155304690Y-92306190D01*
X155542785Y-92782380D02*
X155542785Y-91782380D01*
X155161833Y-91782380D01*
X155066595Y-91830000D01*
X155018976Y-91877619D01*
X154971357Y-91972857D01*
X154971357Y-92115714D01*
X155018976Y-92210952D01*
X155066595Y-92258571D01*
X155161833Y-92306190D01*
X155542785Y-92306190D01*
X154018976Y-92782380D02*
X154590404Y-92782380D01*
X154304690Y-92782380D02*
X154304690Y-91782380D01*
X154399928Y-91925238D01*
X154495166Y-92020476D01*
X154590404Y-92068095D01*
X153542785Y-92782380D02*
X153352309Y-92782380D01*
X153257071Y-92734761D01*
X153209452Y-92687142D01*
X153114214Y-92544285D01*
X153066595Y-92353809D01*
X153066595Y-91972857D01*
X153114214Y-91877619D01*
X153161833Y-91830000D01*
X153257071Y-91782380D01*
X153447547Y-91782380D01*
X153542785Y-91830000D01*
X153590404Y-91877619D01*
X153638023Y-91972857D01*
X153638023Y-92210952D01*
X153590404Y-92306190D01*
X153542785Y-92353809D01*
X153447547Y-92401428D01*
X153257071Y-92401428D01*
X153161833Y-92353809D01*
X153114214Y-92306190D01*
X153066595Y-92210952D01*
%TO.C,R20*%
X155074857Y-107767380D02*
X155408190Y-107291190D01*
X155646285Y-107767380D02*
X155646285Y-106767380D01*
X155265333Y-106767380D01*
X155170095Y-106815000D01*
X155122476Y-106862619D01*
X155074857Y-106957857D01*
X155074857Y-107100714D01*
X155122476Y-107195952D01*
X155170095Y-107243571D01*
X155265333Y-107291190D01*
X155646285Y-107291190D01*
X154693904Y-106862619D02*
X154646285Y-106815000D01*
X154551047Y-106767380D01*
X154312952Y-106767380D01*
X154217714Y-106815000D01*
X154170095Y-106862619D01*
X154122476Y-106957857D01*
X154122476Y-107053095D01*
X154170095Y-107195952D01*
X154741523Y-107767380D01*
X154122476Y-107767380D01*
X153503428Y-106767380D02*
X153408190Y-106767380D01*
X153312952Y-106815000D01*
X153265333Y-106862619D01*
X153217714Y-106957857D01*
X153170095Y-107148333D01*
X153170095Y-107386428D01*
X153217714Y-107576904D01*
X153265333Y-107672142D01*
X153312952Y-107719761D01*
X153408190Y-107767380D01*
X153503428Y-107767380D01*
X153598666Y-107719761D01*
X153646285Y-107672142D01*
X153693904Y-107576904D01*
X153741523Y-107386428D01*
X153741523Y-107148333D01*
X153693904Y-106957857D01*
X153646285Y-106862619D01*
X153598666Y-106815000D01*
X153503428Y-106767380D01*
%TO.C,R21*%
X155481280Y-148378942D02*
X155005090Y-148045609D01*
X155481280Y-147807514D02*
X154481280Y-147807514D01*
X154481280Y-148188466D01*
X154528900Y-148283704D01*
X154576519Y-148331323D01*
X154671757Y-148378942D01*
X154814614Y-148378942D01*
X154909852Y-148331323D01*
X154957471Y-148283704D01*
X155005090Y-148188466D01*
X155005090Y-147807514D01*
X154576519Y-148759895D02*
X154528900Y-148807514D01*
X154481280Y-148902752D01*
X154481280Y-149140847D01*
X154528900Y-149236085D01*
X154576519Y-149283704D01*
X154671757Y-149331323D01*
X154766995Y-149331323D01*
X154909852Y-149283704D01*
X155481280Y-148712276D01*
X155481280Y-149331323D01*
X155481280Y-150283704D02*
X155481280Y-149712276D01*
X155481280Y-149997990D02*
X154481280Y-149997990D01*
X154624138Y-149902752D01*
X154719376Y-149807514D01*
X154766995Y-149712276D01*
%TO.C,R22*%
X155519380Y-133596142D02*
X155043190Y-133262809D01*
X155519380Y-133024714D02*
X154519380Y-133024714D01*
X154519380Y-133405666D01*
X154567000Y-133500904D01*
X154614619Y-133548523D01*
X154709857Y-133596142D01*
X154852714Y-133596142D01*
X154947952Y-133548523D01*
X154995571Y-133500904D01*
X155043190Y-133405666D01*
X155043190Y-133024714D01*
X154614619Y-133977095D02*
X154567000Y-134024714D01*
X154519380Y-134119952D01*
X154519380Y-134358047D01*
X154567000Y-134453285D01*
X154614619Y-134500904D01*
X154709857Y-134548523D01*
X154805095Y-134548523D01*
X154947952Y-134500904D01*
X155519380Y-133929476D01*
X155519380Y-134548523D01*
X154614619Y-134929476D02*
X154567000Y-134977095D01*
X154519380Y-135072333D01*
X154519380Y-135310428D01*
X154567000Y-135405666D01*
X154614619Y-135453285D01*
X154709857Y-135500904D01*
X154805095Y-135500904D01*
X154947952Y-135453285D01*
X155519380Y-134881857D01*
X155519380Y-135500904D01*
%TO.C,R23*%
X154971357Y-137867380D02*
X155304690Y-137391190D01*
X155542785Y-137867380D02*
X155542785Y-136867380D01*
X155161833Y-136867380D01*
X155066595Y-136915000D01*
X155018976Y-136962619D01*
X154971357Y-137057857D01*
X154971357Y-137200714D01*
X155018976Y-137295952D01*
X155066595Y-137343571D01*
X155161833Y-137391190D01*
X155542785Y-137391190D01*
X154590404Y-136962619D02*
X154542785Y-136915000D01*
X154447547Y-136867380D01*
X154209452Y-136867380D01*
X154114214Y-136915000D01*
X154066595Y-136962619D01*
X154018976Y-137057857D01*
X154018976Y-137153095D01*
X154066595Y-137295952D01*
X154638023Y-137867380D01*
X154018976Y-137867380D01*
X153685642Y-136867380D02*
X153066595Y-136867380D01*
X153399928Y-137248333D01*
X153257071Y-137248333D01*
X153161833Y-137295952D01*
X153114214Y-137343571D01*
X153066595Y-137438809D01*
X153066595Y-137676904D01*
X153114214Y-137772142D01*
X153161833Y-137819761D01*
X153257071Y-137867380D01*
X153542785Y-137867380D01*
X153638023Y-137819761D01*
X153685642Y-137772142D01*
%TO.C,R24*%
X154947857Y-122373380D02*
X155281190Y-121897190D01*
X155519285Y-122373380D02*
X155519285Y-121373380D01*
X155138333Y-121373380D01*
X155043095Y-121421000D01*
X154995476Y-121468619D01*
X154947857Y-121563857D01*
X154947857Y-121706714D01*
X154995476Y-121801952D01*
X155043095Y-121849571D01*
X155138333Y-121897190D01*
X155519285Y-121897190D01*
X154566904Y-121468619D02*
X154519285Y-121421000D01*
X154424047Y-121373380D01*
X154185952Y-121373380D01*
X154090714Y-121421000D01*
X154043095Y-121468619D01*
X153995476Y-121563857D01*
X153995476Y-121659095D01*
X154043095Y-121801952D01*
X154614523Y-122373380D01*
X153995476Y-122373380D01*
X153138333Y-121706714D02*
X153138333Y-122373380D01*
X153376428Y-121325761D02*
X153614523Y-122040047D01*
X152995476Y-122040047D01*
%TO.C,RESET1*%
D17*
X158084157Y-52599771D02*
X158287357Y-52309485D01*
X158432500Y-52599771D02*
X158432500Y-51990171D01*
X158200271Y-51990171D01*
X158142214Y-52019200D01*
X158113185Y-52048228D01*
X158084157Y-52106285D01*
X158084157Y-52193371D01*
X158113185Y-52251428D01*
X158142214Y-52280457D01*
X158200271Y-52309485D01*
X158432500Y-52309485D01*
X157822900Y-52280457D02*
X157619700Y-52280457D01*
X157532614Y-52599771D02*
X157822900Y-52599771D01*
X157822900Y-51990171D01*
X157532614Y-51990171D01*
X157300385Y-52570742D02*
X157213300Y-52599771D01*
X157068157Y-52599771D01*
X157010100Y-52570742D01*
X156981071Y-52541714D01*
X156952042Y-52483657D01*
X156952042Y-52425600D01*
X156981071Y-52367542D01*
X157010100Y-52338514D01*
X157068157Y-52309485D01*
X157184271Y-52280457D01*
X157242328Y-52251428D01*
X157271357Y-52222400D01*
X157300385Y-52164342D01*
X157300385Y-52106285D01*
X157271357Y-52048228D01*
X157242328Y-52019200D01*
X157184271Y-51990171D01*
X157039128Y-51990171D01*
X156952042Y-52019200D01*
X156690785Y-52280457D02*
X156487585Y-52280457D01*
X156400500Y-52599771D02*
X156690785Y-52599771D01*
X156690785Y-51990171D01*
X156400500Y-51990171D01*
X156226328Y-51990171D02*
X155877985Y-51990171D01*
X156052157Y-52599771D02*
X156052157Y-51990171D01*
X155355471Y-52599771D02*
X155703814Y-52599771D01*
X155529642Y-52599771D02*
X155529642Y-51990171D01*
X155587700Y-52077257D01*
X155645757Y-52135314D01*
X155703814Y-52164342D01*
X159769628Y-45551271D02*
X159769628Y-44941671D01*
X159566428Y-45377100D01*
X159363228Y-44941671D01*
X159363228Y-45551271D01*
X158956828Y-44941671D02*
X158840714Y-44941671D01*
X158782657Y-44970700D01*
X158724600Y-45028757D01*
X158695571Y-45144871D01*
X158695571Y-45348071D01*
X158724600Y-45464185D01*
X158782657Y-45522242D01*
X158840714Y-45551271D01*
X158956828Y-45551271D01*
X159014885Y-45522242D01*
X159072942Y-45464185D01*
X159101971Y-45348071D01*
X159101971Y-45144871D01*
X159072942Y-45028757D01*
X159014885Y-44970700D01*
X158956828Y-44941671D01*
X158434314Y-45551271D02*
X158434314Y-44941671D01*
X158231114Y-45377100D01*
X158027914Y-44941671D01*
X158027914Y-45551271D01*
X157737628Y-45319042D02*
X157273171Y-45319042D01*
X156721628Y-44941671D02*
X156837742Y-44941671D01*
X156895800Y-44970700D01*
X156924828Y-44999728D01*
X156982885Y-45086814D01*
X157011914Y-45202928D01*
X157011914Y-45435157D01*
X156982885Y-45493214D01*
X156953857Y-45522242D01*
X156895800Y-45551271D01*
X156779685Y-45551271D01*
X156721628Y-45522242D01*
X156692600Y-45493214D01*
X156663571Y-45435157D01*
X156663571Y-45290014D01*
X156692600Y-45231957D01*
X156721628Y-45202928D01*
X156779685Y-45173900D01*
X156895800Y-45173900D01*
X156953857Y-45202928D01*
X156982885Y-45231957D01*
X157011914Y-45290014D01*
X156402314Y-45493214D02*
X156373285Y-45522242D01*
X156402314Y-45551271D01*
X156431342Y-45522242D01*
X156402314Y-45493214D01*
X156402314Y-45551271D01*
X155995914Y-44941671D02*
X155937857Y-44941671D01*
X155879800Y-44970700D01*
X155850771Y-44999728D01*
X155821742Y-45057785D01*
X155792714Y-45173900D01*
X155792714Y-45319042D01*
X155821742Y-45435157D01*
X155850771Y-45493214D01*
X155879800Y-45522242D01*
X155937857Y-45551271D01*
X155995914Y-45551271D01*
X156053971Y-45522242D01*
X156083000Y-45493214D01*
X156112028Y-45435157D01*
X156141057Y-45319042D01*
X156141057Y-45173900D01*
X156112028Y-45057785D01*
X156083000Y-44999728D01*
X156053971Y-44970700D01*
X155995914Y-44941671D01*
X155531457Y-45551271D02*
X155531457Y-44941671D01*
X155328257Y-45377100D01*
X155125057Y-44941671D01*
X155125057Y-45551271D01*
X154834771Y-45551271D02*
X154834771Y-44941671D01*
X154631571Y-45377100D01*
X154428371Y-44941671D01*
X154428371Y-45551271D01*
%TO.C,U2*%
D10*
X176999804Y-62774580D02*
X176999804Y-63584104D01*
X176952185Y-63679342D01*
X176904566Y-63726961D01*
X176809328Y-63774580D01*
X176618852Y-63774580D01*
X176523614Y-63726961D01*
X176475995Y-63679342D01*
X176428376Y-63584104D01*
X176428376Y-62774580D01*
X175999804Y-62869819D02*
X175952185Y-62822200D01*
X175856947Y-62774580D01*
X175618852Y-62774580D01*
X175523614Y-62822200D01*
X175475995Y-62869819D01*
X175428376Y-62965057D01*
X175428376Y-63060295D01*
X175475995Y-63203152D01*
X176047423Y-63774580D01*
X175428376Y-63774580D01*
%TO.C,U3*%
X179817780Y-77876495D02*
X180627304Y-77876495D01*
X180722542Y-77924114D01*
X180770161Y-77971733D01*
X180817780Y-78066971D01*
X180817780Y-78257447D01*
X180770161Y-78352685D01*
X180722542Y-78400304D01*
X180627304Y-78447923D01*
X179817780Y-78447923D01*
X179817780Y-78828876D02*
X179817780Y-79447923D01*
X180198733Y-79114590D01*
X180198733Y-79257447D01*
X180246352Y-79352685D01*
X180293971Y-79400304D01*
X180389209Y-79447923D01*
X180627304Y-79447923D01*
X180722542Y-79400304D01*
X180770161Y-79352685D01*
X180817780Y-79257447D01*
X180817780Y-78971733D01*
X180770161Y-78876495D01*
X180722542Y-78828876D01*
%TO.C,U4*%
X178409504Y-91819480D02*
X178409504Y-92629004D01*
X178361885Y-92724242D01*
X178314266Y-92771861D01*
X178219028Y-92819480D01*
X178028552Y-92819480D01*
X177933314Y-92771861D01*
X177885695Y-92724242D01*
X177838076Y-92629004D01*
X177838076Y-91819480D01*
X176933314Y-92152814D02*
X176933314Y-92819480D01*
X177171409Y-91771861D02*
X177409504Y-92486147D01*
X176790457Y-92486147D01*
%TO.C,Y1*%
X180189190Y-52033809D02*
X180665380Y-52033809D01*
X179665380Y-51700476D02*
X180189190Y-52033809D01*
X179665380Y-52367142D01*
X180665380Y-53224285D02*
X180665380Y-52652857D01*
X180665380Y-52938571D02*
X179665380Y-52938571D01*
X179808238Y-52843333D01*
X179903476Y-52748095D01*
X179951095Y-52652857D01*
%TD*%
M02*
