%TF.GenerationSoftware,KiCad,Pcbnew,(5.1.9)-1*%
%TF.CreationDate,2021-05-12T23:24:28-04:00*%
%TF.ProjectId,main,6d61696e-2e6b-4696-9361-645f70636258,rev?*%
%TF.SameCoordinates,Original*%
%TF.FileFunction,Copper,L1,Top*%
%TF.FilePolarity,Positive*%
%FSLAX46Y46*%
G04 Gerber Fmt 4.6, Leading zero omitted, Abs format (unit mm)*
G04 Created by KiCad (PCBNEW (5.1.9)-1) date 2021-05-12 23:24:28*
%MOMM*%
%LPD*%
G01*
G04 APERTURE LIST*
%TA.AperFunction,ComponentPad*%
%ADD10O,1.700000X1.700000*%
%TD*%
%TA.AperFunction,ComponentPad*%
%ADD11R,1.700000X1.700000*%
%TD*%
%TA.AperFunction,ComponentPad*%
%ADD12R,2.200000X2.200000*%
%TD*%
%TA.AperFunction,ComponentPad*%
%ADD13O,2.200000X2.200000*%
%TD*%
%TA.AperFunction,ComponentPad*%
%ADD14R,1.600000X1.600000*%
%TD*%
%TA.AperFunction,ComponentPad*%
%ADD15O,1.600000X1.600000*%
%TD*%
%TA.AperFunction,ComponentPad*%
%ADD16O,1.100000X1.500000*%
%TD*%
%TA.AperFunction,ComponentPad*%
%ADD17O,1.350000X1.700000*%
%TD*%
%TA.AperFunction,ComponentPad*%
%ADD18C,2.130000*%
%TD*%
%TA.AperFunction,ComponentPad*%
%ADD19R,1.930000X1.830000*%
%TD*%
%TA.AperFunction,ComponentPad*%
%ADD20C,1.879600*%
%TD*%
%TA.AperFunction,ViaPad*%
%ADD21C,0.800000*%
%TD*%
%TA.AperFunction,Conductor*%
%ADD22C,0.250000*%
%TD*%
%TA.AperFunction,Conductor*%
%ADD23C,0.254000*%
%TD*%
%TA.AperFunction,Conductor*%
%ADD24C,0.100000*%
%TD*%
G04 APERTURE END LIST*
D10*
%TO.P,J15,6*%
%TO.N,GND*%
X157099000Y-69215000D03*
%TO.P,J15,5*%
%TO.N,RST*%
X154559000Y-69215000D03*
%TO.P,J15,4*%
%TO.N,MOSI*%
X157099000Y-66675000D03*
%TO.P,J15,3*%
%TO.N,SCK*%
X154559000Y-66675000D03*
%TO.P,J15,2*%
%TO.N,+5V*%
X157099000Y-64135000D03*
D11*
%TO.P,J15,1*%
%TO.N,MISO*%
X154559000Y-64135000D03*
%TD*%
D10*
%TO.P,J2,10*%
%TO.N,-12V*%
X157480000Y-87884000D03*
%TO.P,J2,9*%
X154940000Y-87884000D03*
%TO.P,J2,8*%
%TO.N,GND*%
X157480000Y-85344000D03*
%TO.P,J2,7*%
X154940000Y-85344000D03*
%TO.P,J2,6*%
X157480000Y-82804000D03*
%TO.P,J2,5*%
X154940000Y-82804000D03*
%TO.P,J2,4*%
X157480000Y-80264000D03*
%TO.P,J2,3*%
X154940000Y-80264000D03*
%TO.P,J2,2*%
%TO.N,+12V*%
X157480000Y-77724000D03*
D11*
%TO.P,J2,1*%
X154940000Y-77724000D03*
%TD*%
D12*
%TO.P,D1,1*%
%TO.N,+12V*%
X161417000Y-77724000D03*
D13*
%TO.P,D1,2*%
%TO.N,GND*%
X161417000Y-87884000D03*
%TD*%
%TO.P,D2,2*%
%TO.N,-12V*%
X164719000Y-87884000D03*
D12*
%TO.P,D2,1*%
%TO.N,GND*%
X164719000Y-77724000D03*
%TD*%
D14*
%TO.P,D9,1*%
%TO.N,Net-(D9-Pad1)*%
X160274000Y-101854000D03*
D15*
%TO.P,D9,2*%
%TO.N,GND*%
X160274000Y-94234000D03*
%TD*%
%TO.P,D10,2*%
%TO.N,GND*%
X160274000Y-108966000D03*
D14*
%TO.P,D10,1*%
%TO.N,Net-(D10-Pad1)*%
X160274000Y-116586000D03*
%TD*%
D15*
%TO.P,D11,2*%
%TO.N,GND*%
X160147000Y-138430000D03*
D14*
%TO.P,D11,1*%
%TO.N,Net-(D11-Pad1)*%
X160147000Y-146050000D03*
%TD*%
%TO.P,D12,1*%
%TO.N,Net-(D12-Pad1)*%
X160274000Y-131318000D03*
D15*
%TO.P,D12,2*%
%TO.N,GND*%
X160274000Y-123698000D03*
%TD*%
D16*
%TO.P,J1,6*%
%TO.N,GND*%
X163894000Y-51403000D03*
X168734000Y-51403000D03*
D17*
X163584000Y-48403000D03*
X169044000Y-48403000D03*
%TD*%
D18*
%TO.P,J3,TN*%
%TO.N,N/C*%
X177800000Y-112066000D03*
D19*
%TO.P,J3,S*%
%TO.N,GND*%
X177800000Y-108966000D03*
D18*
%TO.P,J3,T*%
%TO.N,Net-(J3-PadT)*%
X177800000Y-120366000D03*
%TD*%
%TO.P,J4,T*%
%TO.N,Net-(J4-PadT)*%
X177800000Y-135098000D03*
D19*
%TO.P,J4,S*%
%TO.N,GND*%
X177800000Y-123698000D03*
D18*
%TO.P,J4,TN*%
%TO.N,N/C*%
X177800000Y-126798000D03*
%TD*%
%TO.P,J5,T*%
%TO.N,Net-(J5-PadT)*%
X177800000Y-149830000D03*
D19*
%TO.P,J5,S*%
%TO.N,GND*%
X177800000Y-138430000D03*
D18*
%TO.P,J5,TN*%
%TO.N,N/C*%
X177800000Y-141530000D03*
%TD*%
%TO.P,J6,TN*%
%TO.N,N/C*%
X177800000Y-97334000D03*
D19*
%TO.P,J6,S*%
%TO.N,GND*%
X177800000Y-94234000D03*
D18*
%TO.P,J6,T*%
%TO.N,Net-(J6-PadT)*%
X177800000Y-105634000D03*
%TD*%
%TO.P,J7,TN*%
%TO.N,N/C*%
X167640000Y-97334000D03*
D19*
%TO.P,J7,S*%
%TO.N,GND*%
X167640000Y-94234000D03*
D18*
%TO.P,J7,T*%
%TO.N,Net-(J7-PadT)*%
X167640000Y-105634000D03*
%TD*%
%TO.P,J8,TN*%
%TO.N,N/C*%
X167640000Y-112066000D03*
D19*
%TO.P,J8,S*%
%TO.N,GND*%
X167640000Y-108966000D03*
D18*
%TO.P,J8,T*%
%TO.N,Net-(J8-PadT)*%
X167640000Y-120366000D03*
%TD*%
%TO.P,J9,TN*%
%TO.N,N/C*%
X167640000Y-126828000D03*
D19*
%TO.P,J9,S*%
%TO.N,GND*%
X167640000Y-123728000D03*
D18*
%TO.P,J9,T*%
%TO.N,Net-(J9-PadT)*%
X167640000Y-135128000D03*
%TD*%
%TO.P,J10,T*%
%TO.N,Net-(J10-PadT)*%
X167640000Y-149830000D03*
D19*
%TO.P,J10,S*%
%TO.N,GND*%
X167640000Y-138430000D03*
D18*
%TO.P,J10,TN*%
%TO.N,N/C*%
X167640000Y-141530000D03*
%TD*%
%TO.P,J11,T*%
%TO.N,Net-(J11-PadT)*%
X157480000Y-105634000D03*
D19*
%TO.P,J11,S*%
%TO.N,GND*%
X157480000Y-94234000D03*
D18*
%TO.P,J11,TN*%
%TO.N,N/C*%
X157480000Y-97334000D03*
%TD*%
%TO.P,J12,TN*%
%TO.N,N/C*%
X157480000Y-112066000D03*
D19*
%TO.P,J12,S*%
%TO.N,GND*%
X157480000Y-108966000D03*
D18*
%TO.P,J12,T*%
%TO.N,Net-(J12-PadT)*%
X157480000Y-120366000D03*
%TD*%
%TO.P,J13,T*%
%TO.N,Net-(J13-PadT)*%
X157480000Y-149830000D03*
D19*
%TO.P,J13,S*%
%TO.N,GND*%
X157480000Y-138430000D03*
D18*
%TO.P,J13,TN*%
%TO.N,N/C*%
X157480000Y-141530000D03*
%TD*%
%TO.P,J14,T*%
%TO.N,Net-(J14-PadT)*%
X157480000Y-135128000D03*
D19*
%TO.P,J14,S*%
%TO.N,GND*%
X157480000Y-123728000D03*
D18*
%TO.P,J14,TN*%
%TO.N,N/C*%
X157480000Y-126828000D03*
%TD*%
D20*
%TO.P,RESET1,1*%
%TO.N,GND*%
X153771600Y-52019200D03*
%TO.P,RESET1,2*%
%TO.N,N/C*%
X160274000Y-52019200D03*
%TO.P,RESET1,3*%
%TO.N,RST*%
X153771600Y-47498000D03*
%TO.P,RESET1,4*%
%TO.N,N/C*%
X160274000Y-47498000D03*
%TD*%
D21*
%TO.N,Net-(J1-Pad3)*%
X168402000Y-54483000D03*
%TO.N,GND*%
X169418000Y-79375000D03*
X160655000Y-63627000D03*
%TO.N,+12V*%
X163830000Y-55626000D03*
X161544000Y-67818000D03*
X167513000Y-81534000D03*
X180467000Y-87122000D03*
%TO.N,-12V*%
X175387000Y-87122000D03*
X167386000Y-85725000D03*
%TO.N,GND*%
X169545000Y-52705000D03*
X175514000Y-57150000D03*
X167005000Y-58293000D03*
X179451000Y-63119000D03*
X173609000Y-67310000D03*
X175641000Y-63881000D03*
X168910000Y-65024000D03*
X176530000Y-48636000D03*
X160274000Y-65913000D03*
X163133999Y-70677999D03*
X162941000Y-75438000D03*
X181229000Y-75565000D03*
X172593000Y-57912000D03*
%TO.N,vbus*%
X171704000Y-68707000D03*
X172593000Y-54422000D03*
%TO.N,+5V*%
X181864000Y-72390000D03*
X181737000Y-68707000D03*
X178816000Y-68707000D03*
X178943000Y-72390000D03*
X174498000Y-46639000D03*
X176784000Y-78613000D03*
X163945000Y-60197000D03*
X153416000Y-139192000D03*
X153416000Y-123571000D03*
X153416000Y-108839000D03*
X153416000Y-93980000D03*
X163718000Y-74661000D03*
X169146999Y-66438001D03*
%TO.N,CVA*%
X169799000Y-77343000D03*
X174371000Y-76962000D03*
%TO.N,CVB*%
X172225001Y-85103001D03*
X173482000Y-78994000D03*
%TO.N,CVC*%
X172466000Y-82550000D03*
X172466000Y-77851000D03*
%TO.N,Net-(J1-Pad3)*%
X168148000Y-52832000D03*
%TO.N,Trigger1*%
X165735000Y-81534000D03*
X174752000Y-71501000D03*
%TO.N,Trigger2*%
X163957000Y-95885000D03*
X173863000Y-70359000D03*
%TO.N,Trigger4*%
X162842001Y-81378999D03*
X172974000Y-69469000D03*
%TO.N,Trigger3*%
X164084000Y-111252000D03*
X175812501Y-74377499D03*
%TO.N,Net-(R1-Pad1)*%
X166548000Y-70561000D03*
X168275000Y-56388000D03*
%TO.N,Net-(R2-Pad1)*%
X170434000Y-56261000D03*
X170434000Y-70231000D03*
%TO.N,Net-(R4-Pad2)*%
X166878000Y-66548000D03*
X172339000Y-52070000D03*
%TO.N,Net-(R25-Pad2)*%
X174498000Y-52070000D03*
X174307500Y-65341500D03*
%TD*%
D22*
%TO.N,+12V*%
X167513000Y-81534000D02*
X167513000Y-83820000D01*
X179741999Y-86396999D02*
X180467000Y-87122000D01*
X170089999Y-86396999D02*
X179741999Y-86396999D01*
X167513000Y-83820000D02*
X170089999Y-86396999D01*
X161544000Y-77597000D02*
X161417000Y-77724000D01*
X161544000Y-67818000D02*
X161544000Y-77597000D01*
X166116000Y-57912000D02*
X163830000Y-55626000D01*
X166116000Y-61468000D02*
X166116000Y-57912000D01*
X161544000Y-66040000D02*
X166116000Y-61468000D01*
X161544000Y-67818000D02*
X161544000Y-66040000D01*
%TO.N,vbus*%
X173736000Y-55565000D02*
X172593000Y-54422000D01*
X172593000Y-65278000D02*
X173736000Y-64135000D01*
X172593000Y-67818000D02*
X172593000Y-65278000D01*
X173736000Y-64135000D02*
X173736000Y-55565000D01*
X171704000Y-68707000D02*
X172593000Y-67818000D01*
%TO.N,+5V*%
X178816000Y-68707000D02*
X181737000Y-68707000D01*
X178943000Y-72390000D02*
X181864000Y-72390000D01*
X181864000Y-68834000D02*
X181737000Y-68707000D01*
X181864000Y-72390000D02*
X181864000Y-68834000D01*
X174498000Y-46639000D02*
X176052000Y-46639000D01*
X181737000Y-52324000D02*
X181737000Y-68707000D01*
X176052000Y-46639000D02*
X181737000Y-52324000D01*
X178943000Y-72390000D02*
X178943000Y-76454000D01*
X178943000Y-76454000D02*
X176784000Y-78613000D01*
X176784000Y-78613000D02*
X176784000Y-78613000D01*
X163945000Y-60197000D02*
X161672000Y-60197000D01*
X161672000Y-60197000D02*
X159512000Y-62357000D01*
X159512000Y-87591002D02*
X156933002Y-90170000D01*
X159512000Y-62357000D02*
X159512000Y-87591002D01*
X156933002Y-90170000D02*
X155829000Y-90170000D01*
X155829000Y-90170000D02*
X153416000Y-92583000D01*
X153416000Y-92583000D02*
X153416000Y-93980000D01*
X153416000Y-139192000D02*
X153416000Y-139192000D01*
X153416000Y-123571000D02*
X153416000Y-139192000D01*
X153416000Y-108839000D02*
X153416000Y-123571000D01*
X153416000Y-93980000D02*
X153416000Y-108839000D01*
X169146999Y-66438001D02*
X169146999Y-71518001D01*
X166004000Y-74661000D02*
X163718000Y-74661000D01*
X169146999Y-71518001D02*
X166004000Y-74661000D01*
%TO.N,-12V*%
X168783000Y-87122000D02*
X175387000Y-87122000D01*
X167386000Y-85725000D02*
X168783000Y-87122000D01*
%TO.N,CVA*%
X170180000Y-76962000D02*
X174371000Y-76962000D01*
X169799000Y-77343000D02*
X170180000Y-76962000D01*
%TO.N,CVB*%
X173482000Y-83846002D02*
X173482000Y-78994000D01*
X172225001Y-85103001D02*
X173482000Y-83846002D01*
%TO.N,CVC*%
X172466000Y-82550000D02*
X172466000Y-77851000D01*
%TO.N,Net-(J1-Pad3)*%
X168148000Y-54229000D02*
X168402000Y-54483000D01*
X168148000Y-52832000D02*
X168148000Y-54229000D01*
%TO.N,Trigger1*%
X174752000Y-71501000D02*
X174752000Y-71685002D01*
X174752000Y-71685002D02*
X174752000Y-74422000D01*
X174752000Y-74422000D02*
X172974000Y-76200000D01*
X169868998Y-76200000D02*
X165735000Y-80333998D01*
X172974000Y-76200000D02*
X169868998Y-76200000D01*
X165735000Y-80333998D02*
X165735000Y-81534000D01*
X165735000Y-81534000D02*
X165735000Y-81534000D01*
%TO.N,Trigger2*%
X162941000Y-93218000D02*
X163957000Y-94234000D01*
X162941000Y-86360000D02*
X162941000Y-93218000D01*
X163957000Y-94234000D02*
X163957000Y-95885000D01*
X164465000Y-84836000D02*
X162941000Y-86360000D01*
X164465000Y-80899000D02*
X164465000Y-84836000D01*
X169614010Y-75749990D02*
X164465000Y-80899000D01*
X172408010Y-75749990D02*
X169614010Y-75749990D01*
X173863000Y-74295000D02*
X172408010Y-75749990D01*
X173863000Y-71501000D02*
X173863000Y-74295000D01*
X173863000Y-71501000D02*
X173863000Y-70359000D01*
%TO.N,Trigger4*%
X162842001Y-81378999D02*
X162842001Y-81378999D01*
X162842001Y-76806999D02*
X162842001Y-81378999D01*
X164338000Y-75311000D02*
X162842001Y-76806999D01*
X169416590Y-75311000D02*
X164338000Y-75311000D01*
X169427609Y-75299981D02*
X169416590Y-75311000D01*
X172974000Y-73914000D02*
X171588020Y-75299980D01*
X171588020Y-75299980D02*
X169427609Y-75299981D01*
X172974000Y-69469000D02*
X172974000Y-73914000D01*
%TO.N,Trigger3*%
X164084000Y-111252000D02*
X164084000Y-111252000D01*
X164719000Y-110617000D02*
X164084000Y-111252000D01*
X170180000Y-110617000D02*
X164719000Y-110617000D01*
X181192001Y-85561001D02*
X181192001Y-99604999D01*
X175812501Y-80181501D02*
X181192001Y-85561001D01*
X175812501Y-74377499D02*
X175812501Y-74377499D01*
X181192001Y-99604999D02*
X170180000Y-110617000D01*
X175812501Y-74377499D02*
X175812501Y-80181501D01*
%TO.N,Net-(R1-Pad1)*%
X166148001Y-62072409D02*
X168275000Y-59945410D01*
X166148001Y-70161001D02*
X166148001Y-62072409D01*
X166548000Y-70561000D02*
X166148001Y-70161001D01*
X168275000Y-59945410D02*
X168275000Y-56388000D01*
X168275000Y-56388000D02*
X168275000Y-56261000D01*
%TO.N,Net-(R2-Pad1)*%
X170434000Y-70231000D02*
X170434000Y-56261000D01*
%TO.N,Net-(R4-Pad2)*%
X166878000Y-66548000D02*
X166878000Y-65659000D01*
X166878000Y-65659000D02*
X169418000Y-63119000D01*
X169418000Y-63119000D02*
X169418000Y-54991000D01*
X169418000Y-54991000D02*
X172339000Y-52070000D01*
X172339000Y-52070000D02*
X172339000Y-52070000D01*
%TO.N,Net-(R25-Pad2)*%
X174498000Y-65151000D02*
X174307500Y-65341500D01*
X174498000Y-52070000D02*
X174498000Y-65151000D01*
%TD*%
D23*
%TO.N,GND*%
X181204226Y-73193937D02*
X181373744Y-73307205D01*
X181562102Y-73385226D01*
X181762061Y-73425000D01*
X181965939Y-73425000D01*
X182165898Y-73385226D01*
X182220001Y-73362816D01*
X182220000Y-151740000D01*
X153060000Y-151740000D01*
X153060000Y-149662565D01*
X155780000Y-149662565D01*
X155780000Y-149997435D01*
X155845330Y-150325872D01*
X155973479Y-150635252D01*
X156159523Y-150913687D01*
X156396313Y-151150477D01*
X156674748Y-151336521D01*
X156984128Y-151464670D01*
X157312565Y-151530000D01*
X157647435Y-151530000D01*
X157975872Y-151464670D01*
X158285252Y-151336521D01*
X158563687Y-151150477D01*
X158800477Y-150913687D01*
X158986521Y-150635252D01*
X159114670Y-150325872D01*
X159180000Y-149997435D01*
X159180000Y-149662565D01*
X165940000Y-149662565D01*
X165940000Y-149997435D01*
X166005330Y-150325872D01*
X166133479Y-150635252D01*
X166319523Y-150913687D01*
X166556313Y-151150477D01*
X166834748Y-151336521D01*
X167144128Y-151464670D01*
X167472565Y-151530000D01*
X167807435Y-151530000D01*
X168135872Y-151464670D01*
X168445252Y-151336521D01*
X168723687Y-151150477D01*
X168960477Y-150913687D01*
X169146521Y-150635252D01*
X169274670Y-150325872D01*
X169340000Y-149997435D01*
X169340000Y-149662565D01*
X176100000Y-149662565D01*
X176100000Y-149997435D01*
X176165330Y-150325872D01*
X176293479Y-150635252D01*
X176479523Y-150913687D01*
X176716313Y-151150477D01*
X176994748Y-151336521D01*
X177304128Y-151464670D01*
X177632565Y-151530000D01*
X177967435Y-151530000D01*
X178295872Y-151464670D01*
X178605252Y-151336521D01*
X178883687Y-151150477D01*
X179120477Y-150913687D01*
X179306521Y-150635252D01*
X179434670Y-150325872D01*
X179500000Y-149997435D01*
X179500000Y-149662565D01*
X179434670Y-149334128D01*
X179306521Y-149024748D01*
X179120477Y-148746313D01*
X178883687Y-148509523D01*
X178605252Y-148323479D01*
X178295872Y-148195330D01*
X177967435Y-148130000D01*
X177632565Y-148130000D01*
X177304128Y-148195330D01*
X176994748Y-148323479D01*
X176716313Y-148509523D01*
X176479523Y-148746313D01*
X176293479Y-149024748D01*
X176165330Y-149334128D01*
X176100000Y-149662565D01*
X169340000Y-149662565D01*
X169274670Y-149334128D01*
X169146521Y-149024748D01*
X168960477Y-148746313D01*
X168723687Y-148509523D01*
X168445252Y-148323479D01*
X168135872Y-148195330D01*
X167807435Y-148130000D01*
X167472565Y-148130000D01*
X167144128Y-148195330D01*
X166834748Y-148323479D01*
X166556313Y-148509523D01*
X166319523Y-148746313D01*
X166133479Y-149024748D01*
X166005330Y-149334128D01*
X165940000Y-149662565D01*
X159180000Y-149662565D01*
X159114670Y-149334128D01*
X158986521Y-149024748D01*
X158800477Y-148746313D01*
X158563687Y-148509523D01*
X158285252Y-148323479D01*
X157975872Y-148195330D01*
X157647435Y-148130000D01*
X157312565Y-148130000D01*
X156984128Y-148195330D01*
X156674748Y-148323479D01*
X156396313Y-148509523D01*
X156159523Y-148746313D01*
X155973479Y-149024748D01*
X155845330Y-149334128D01*
X155780000Y-149662565D01*
X153060000Y-149662565D01*
X153060000Y-145250000D01*
X158708928Y-145250000D01*
X158708928Y-146850000D01*
X158721188Y-146974482D01*
X158757498Y-147094180D01*
X158816463Y-147204494D01*
X158895815Y-147301185D01*
X158992506Y-147380537D01*
X159102820Y-147439502D01*
X159222518Y-147475812D01*
X159347000Y-147488072D01*
X160947000Y-147488072D01*
X161071482Y-147475812D01*
X161191180Y-147439502D01*
X161301494Y-147380537D01*
X161398185Y-147301185D01*
X161477537Y-147204494D01*
X161536502Y-147094180D01*
X161572812Y-146974482D01*
X161585072Y-146850000D01*
X161585072Y-145250000D01*
X161572812Y-145125518D01*
X161536502Y-145005820D01*
X161477537Y-144895506D01*
X161398185Y-144798815D01*
X161301494Y-144719463D01*
X161191180Y-144660498D01*
X161071482Y-144624188D01*
X160947000Y-144611928D01*
X159347000Y-144611928D01*
X159222518Y-144624188D01*
X159102820Y-144660498D01*
X158992506Y-144719463D01*
X158895815Y-144798815D01*
X158816463Y-144895506D01*
X158757498Y-145005820D01*
X158721188Y-145125518D01*
X158708928Y-145250000D01*
X153060000Y-145250000D01*
X153060000Y-141362565D01*
X155780000Y-141362565D01*
X155780000Y-141697435D01*
X155845330Y-142025872D01*
X155973479Y-142335252D01*
X156159523Y-142613687D01*
X156396313Y-142850477D01*
X156674748Y-143036521D01*
X156984128Y-143164670D01*
X157312565Y-143230000D01*
X157647435Y-143230000D01*
X157975872Y-143164670D01*
X158285252Y-143036521D01*
X158563687Y-142850477D01*
X158800477Y-142613687D01*
X158986521Y-142335252D01*
X159114670Y-142025872D01*
X159180000Y-141697435D01*
X159180000Y-141362565D01*
X165940000Y-141362565D01*
X165940000Y-141697435D01*
X166005330Y-142025872D01*
X166133479Y-142335252D01*
X166319523Y-142613687D01*
X166556313Y-142850477D01*
X166834748Y-143036521D01*
X167144128Y-143164670D01*
X167472565Y-143230000D01*
X167807435Y-143230000D01*
X168135872Y-143164670D01*
X168445252Y-143036521D01*
X168723687Y-142850477D01*
X168960477Y-142613687D01*
X169146521Y-142335252D01*
X169274670Y-142025872D01*
X169340000Y-141697435D01*
X169340000Y-141362565D01*
X176100000Y-141362565D01*
X176100000Y-141697435D01*
X176165330Y-142025872D01*
X176293479Y-142335252D01*
X176479523Y-142613687D01*
X176716313Y-142850477D01*
X176994748Y-143036521D01*
X177304128Y-143164670D01*
X177632565Y-143230000D01*
X177967435Y-143230000D01*
X178295872Y-143164670D01*
X178605252Y-143036521D01*
X178883687Y-142850477D01*
X179120477Y-142613687D01*
X179306521Y-142335252D01*
X179434670Y-142025872D01*
X179500000Y-141697435D01*
X179500000Y-141362565D01*
X179434670Y-141034128D01*
X179306521Y-140724748D01*
X179120477Y-140446313D01*
X178883687Y-140209523D01*
X178605252Y-140023479D01*
X178504860Y-139981895D01*
X178765000Y-139983072D01*
X178889482Y-139970812D01*
X179009180Y-139934502D01*
X179119494Y-139875537D01*
X179216185Y-139796185D01*
X179295537Y-139699494D01*
X179354502Y-139589180D01*
X179390812Y-139469482D01*
X179403072Y-139345000D01*
X179400000Y-138715750D01*
X179241250Y-138557000D01*
X177927000Y-138557000D01*
X177927000Y-138577000D01*
X177673000Y-138577000D01*
X177673000Y-138557000D01*
X176358750Y-138557000D01*
X176200000Y-138715750D01*
X176196928Y-139345000D01*
X176209188Y-139469482D01*
X176245498Y-139589180D01*
X176304463Y-139699494D01*
X176383815Y-139796185D01*
X176480506Y-139875537D01*
X176590820Y-139934502D01*
X176710518Y-139970812D01*
X176835000Y-139983072D01*
X177095140Y-139981895D01*
X176994748Y-140023479D01*
X176716313Y-140209523D01*
X176479523Y-140446313D01*
X176293479Y-140724748D01*
X176165330Y-141034128D01*
X176100000Y-141362565D01*
X169340000Y-141362565D01*
X169274670Y-141034128D01*
X169146521Y-140724748D01*
X168960477Y-140446313D01*
X168723687Y-140209523D01*
X168445252Y-140023479D01*
X168344860Y-139981895D01*
X168605000Y-139983072D01*
X168729482Y-139970812D01*
X168849180Y-139934502D01*
X168959494Y-139875537D01*
X169056185Y-139796185D01*
X169135537Y-139699494D01*
X169194502Y-139589180D01*
X169230812Y-139469482D01*
X169243072Y-139345000D01*
X169240000Y-138715750D01*
X169081250Y-138557000D01*
X167767000Y-138557000D01*
X167767000Y-138577000D01*
X167513000Y-138577000D01*
X167513000Y-138557000D01*
X166198750Y-138557000D01*
X166040000Y-138715750D01*
X166036928Y-139345000D01*
X166049188Y-139469482D01*
X166085498Y-139589180D01*
X166144463Y-139699494D01*
X166223815Y-139796185D01*
X166320506Y-139875537D01*
X166430820Y-139934502D01*
X166550518Y-139970812D01*
X166675000Y-139983072D01*
X166935140Y-139981895D01*
X166834748Y-140023479D01*
X166556313Y-140209523D01*
X166319523Y-140446313D01*
X166133479Y-140724748D01*
X166005330Y-141034128D01*
X165940000Y-141362565D01*
X159180000Y-141362565D01*
X159114670Y-141034128D01*
X158986521Y-140724748D01*
X158800477Y-140446313D01*
X158563687Y-140209523D01*
X158285252Y-140023479D01*
X158184860Y-139981895D01*
X158445000Y-139983072D01*
X158569482Y-139970812D01*
X158689180Y-139934502D01*
X158799494Y-139875537D01*
X158896185Y-139796185D01*
X158975537Y-139699494D01*
X159034502Y-139589180D01*
X159070812Y-139469482D01*
X159079725Y-139378986D01*
X159183586Y-139493519D01*
X159409580Y-139661037D01*
X159663913Y-139781246D01*
X159797961Y-139821904D01*
X160020000Y-139699915D01*
X160020000Y-138557000D01*
X160274000Y-138557000D01*
X160274000Y-139699915D01*
X160496039Y-139821904D01*
X160630087Y-139781246D01*
X160884420Y-139661037D01*
X161110414Y-139493519D01*
X161299385Y-139285131D01*
X161444070Y-139043881D01*
X161538909Y-138779040D01*
X161417624Y-138557000D01*
X160274000Y-138557000D01*
X160020000Y-138557000D01*
X157607000Y-138557000D01*
X157607000Y-138577000D01*
X157353000Y-138577000D01*
X157353000Y-138557000D01*
X156038750Y-138557000D01*
X155880000Y-138715750D01*
X155876928Y-139345000D01*
X155889188Y-139469482D01*
X155925498Y-139589180D01*
X155984463Y-139699494D01*
X156063815Y-139796185D01*
X156160506Y-139875537D01*
X156270820Y-139934502D01*
X156390518Y-139970812D01*
X156515000Y-139983072D01*
X156775140Y-139981895D01*
X156674748Y-140023479D01*
X156396313Y-140209523D01*
X156159523Y-140446313D01*
X155973479Y-140724748D01*
X155845330Y-141034128D01*
X155780000Y-141362565D01*
X153060000Y-141362565D01*
X153060000Y-140164816D01*
X153114102Y-140187226D01*
X153314061Y-140227000D01*
X153517939Y-140227000D01*
X153717898Y-140187226D01*
X153906256Y-140109205D01*
X154075774Y-139995937D01*
X154219937Y-139851774D01*
X154333205Y-139682256D01*
X154411226Y-139493898D01*
X154451000Y-139293939D01*
X154451000Y-139090061D01*
X154411226Y-138890102D01*
X154333205Y-138701744D01*
X154219937Y-138532226D01*
X154176000Y-138488289D01*
X154176000Y-137515000D01*
X155876928Y-137515000D01*
X155880000Y-138144250D01*
X156038750Y-138303000D01*
X157353000Y-138303000D01*
X157353000Y-137038750D01*
X157607000Y-137038750D01*
X157607000Y-138303000D01*
X160020000Y-138303000D01*
X160020000Y-137160085D01*
X160274000Y-137160085D01*
X160274000Y-138303000D01*
X161417624Y-138303000D01*
X161538909Y-138080960D01*
X161444070Y-137816119D01*
X161299385Y-137574869D01*
X161245095Y-137515000D01*
X166036928Y-137515000D01*
X166040000Y-138144250D01*
X166198750Y-138303000D01*
X167513000Y-138303000D01*
X167513000Y-137038750D01*
X167767000Y-137038750D01*
X167767000Y-138303000D01*
X169081250Y-138303000D01*
X169240000Y-138144250D01*
X169243072Y-137515000D01*
X176196928Y-137515000D01*
X176200000Y-138144250D01*
X176358750Y-138303000D01*
X177673000Y-138303000D01*
X177673000Y-137038750D01*
X177927000Y-137038750D01*
X177927000Y-138303000D01*
X179241250Y-138303000D01*
X179400000Y-138144250D01*
X179403072Y-137515000D01*
X179390812Y-137390518D01*
X179354502Y-137270820D01*
X179295537Y-137160506D01*
X179216185Y-137063815D01*
X179119494Y-136984463D01*
X179009180Y-136925498D01*
X178889482Y-136889188D01*
X178765000Y-136876928D01*
X178085750Y-136880000D01*
X177927000Y-137038750D01*
X177673000Y-137038750D01*
X177514250Y-136880000D01*
X176835000Y-136876928D01*
X176710518Y-136889188D01*
X176590820Y-136925498D01*
X176480506Y-136984463D01*
X176383815Y-137063815D01*
X176304463Y-137160506D01*
X176245498Y-137270820D01*
X176209188Y-137390518D01*
X176196928Y-137515000D01*
X169243072Y-137515000D01*
X169230812Y-137390518D01*
X169194502Y-137270820D01*
X169135537Y-137160506D01*
X169056185Y-137063815D01*
X168959494Y-136984463D01*
X168849180Y-136925498D01*
X168729482Y-136889188D01*
X168605000Y-136876928D01*
X167925750Y-136880000D01*
X167767000Y-137038750D01*
X167513000Y-137038750D01*
X167354250Y-136880000D01*
X166675000Y-136876928D01*
X166550518Y-136889188D01*
X166430820Y-136925498D01*
X166320506Y-136984463D01*
X166223815Y-137063815D01*
X166144463Y-137160506D01*
X166085498Y-137270820D01*
X166049188Y-137390518D01*
X166036928Y-137515000D01*
X161245095Y-137515000D01*
X161110414Y-137366481D01*
X160884420Y-137198963D01*
X160630087Y-137078754D01*
X160496039Y-137038096D01*
X160274000Y-137160085D01*
X160020000Y-137160085D01*
X159797961Y-137038096D01*
X159663913Y-137078754D01*
X159409580Y-137198963D01*
X159183586Y-137366481D01*
X159079725Y-137481014D01*
X159070812Y-137390518D01*
X159034502Y-137270820D01*
X158975537Y-137160506D01*
X158896185Y-137063815D01*
X158799494Y-136984463D01*
X158689180Y-136925498D01*
X158569482Y-136889188D01*
X158445000Y-136876928D01*
X157765750Y-136880000D01*
X157607000Y-137038750D01*
X157353000Y-137038750D01*
X157194250Y-136880000D01*
X156515000Y-136876928D01*
X156390518Y-136889188D01*
X156270820Y-136925498D01*
X156160506Y-136984463D01*
X156063815Y-137063815D01*
X155984463Y-137160506D01*
X155925498Y-137270820D01*
X155889188Y-137390518D01*
X155876928Y-137515000D01*
X154176000Y-137515000D01*
X154176000Y-134960565D01*
X155780000Y-134960565D01*
X155780000Y-135295435D01*
X155845330Y-135623872D01*
X155973479Y-135933252D01*
X156159523Y-136211687D01*
X156396313Y-136448477D01*
X156674748Y-136634521D01*
X156984128Y-136762670D01*
X157312565Y-136828000D01*
X157647435Y-136828000D01*
X157975872Y-136762670D01*
X158285252Y-136634521D01*
X158563687Y-136448477D01*
X158800477Y-136211687D01*
X158986521Y-135933252D01*
X159114670Y-135623872D01*
X159180000Y-135295435D01*
X159180000Y-134960565D01*
X165940000Y-134960565D01*
X165940000Y-135295435D01*
X166005330Y-135623872D01*
X166133479Y-135933252D01*
X166319523Y-136211687D01*
X166556313Y-136448477D01*
X166834748Y-136634521D01*
X167144128Y-136762670D01*
X167472565Y-136828000D01*
X167807435Y-136828000D01*
X168135872Y-136762670D01*
X168445252Y-136634521D01*
X168723687Y-136448477D01*
X168960477Y-136211687D01*
X169146521Y-135933252D01*
X169274670Y-135623872D01*
X169340000Y-135295435D01*
X169340000Y-134960565D01*
X169334033Y-134930565D01*
X176100000Y-134930565D01*
X176100000Y-135265435D01*
X176165330Y-135593872D01*
X176293479Y-135903252D01*
X176479523Y-136181687D01*
X176716313Y-136418477D01*
X176994748Y-136604521D01*
X177304128Y-136732670D01*
X177632565Y-136798000D01*
X177967435Y-136798000D01*
X178295872Y-136732670D01*
X178605252Y-136604521D01*
X178883687Y-136418477D01*
X179120477Y-136181687D01*
X179306521Y-135903252D01*
X179434670Y-135593872D01*
X179500000Y-135265435D01*
X179500000Y-134930565D01*
X179434670Y-134602128D01*
X179306521Y-134292748D01*
X179120477Y-134014313D01*
X178883687Y-133777523D01*
X178605252Y-133591479D01*
X178295872Y-133463330D01*
X177967435Y-133398000D01*
X177632565Y-133398000D01*
X177304128Y-133463330D01*
X176994748Y-133591479D01*
X176716313Y-133777523D01*
X176479523Y-134014313D01*
X176293479Y-134292748D01*
X176165330Y-134602128D01*
X176100000Y-134930565D01*
X169334033Y-134930565D01*
X169274670Y-134632128D01*
X169146521Y-134322748D01*
X168960477Y-134044313D01*
X168723687Y-133807523D01*
X168445252Y-133621479D01*
X168135872Y-133493330D01*
X167807435Y-133428000D01*
X167472565Y-133428000D01*
X167144128Y-133493330D01*
X166834748Y-133621479D01*
X166556313Y-133807523D01*
X166319523Y-134044313D01*
X166133479Y-134322748D01*
X166005330Y-134632128D01*
X165940000Y-134960565D01*
X159180000Y-134960565D01*
X159114670Y-134632128D01*
X158986521Y-134322748D01*
X158800477Y-134044313D01*
X158563687Y-133807523D01*
X158285252Y-133621479D01*
X157975872Y-133493330D01*
X157647435Y-133428000D01*
X157312565Y-133428000D01*
X156984128Y-133493330D01*
X156674748Y-133621479D01*
X156396313Y-133807523D01*
X156159523Y-134044313D01*
X155973479Y-134322748D01*
X155845330Y-134632128D01*
X155780000Y-134960565D01*
X154176000Y-134960565D01*
X154176000Y-130518000D01*
X158835928Y-130518000D01*
X158835928Y-132118000D01*
X158848188Y-132242482D01*
X158884498Y-132362180D01*
X158943463Y-132472494D01*
X159022815Y-132569185D01*
X159119506Y-132648537D01*
X159229820Y-132707502D01*
X159349518Y-132743812D01*
X159474000Y-132756072D01*
X161074000Y-132756072D01*
X161198482Y-132743812D01*
X161318180Y-132707502D01*
X161428494Y-132648537D01*
X161525185Y-132569185D01*
X161604537Y-132472494D01*
X161663502Y-132362180D01*
X161699812Y-132242482D01*
X161712072Y-132118000D01*
X161712072Y-130518000D01*
X161699812Y-130393518D01*
X161663502Y-130273820D01*
X161604537Y-130163506D01*
X161525185Y-130066815D01*
X161428494Y-129987463D01*
X161318180Y-129928498D01*
X161198482Y-129892188D01*
X161074000Y-129879928D01*
X159474000Y-129879928D01*
X159349518Y-129892188D01*
X159229820Y-129928498D01*
X159119506Y-129987463D01*
X159022815Y-130066815D01*
X158943463Y-130163506D01*
X158884498Y-130273820D01*
X158848188Y-130393518D01*
X158835928Y-130518000D01*
X154176000Y-130518000D01*
X154176000Y-126660565D01*
X155780000Y-126660565D01*
X155780000Y-126995435D01*
X155845330Y-127323872D01*
X155973479Y-127633252D01*
X156159523Y-127911687D01*
X156396313Y-128148477D01*
X156674748Y-128334521D01*
X156984128Y-128462670D01*
X157312565Y-128528000D01*
X157647435Y-128528000D01*
X157975872Y-128462670D01*
X158285252Y-128334521D01*
X158563687Y-128148477D01*
X158800477Y-127911687D01*
X158986521Y-127633252D01*
X159114670Y-127323872D01*
X159180000Y-126995435D01*
X159180000Y-126660565D01*
X165940000Y-126660565D01*
X165940000Y-126995435D01*
X166005330Y-127323872D01*
X166133479Y-127633252D01*
X166319523Y-127911687D01*
X166556313Y-128148477D01*
X166834748Y-128334521D01*
X167144128Y-128462670D01*
X167472565Y-128528000D01*
X167807435Y-128528000D01*
X168135872Y-128462670D01*
X168445252Y-128334521D01*
X168723687Y-128148477D01*
X168960477Y-127911687D01*
X169146521Y-127633252D01*
X169274670Y-127323872D01*
X169340000Y-126995435D01*
X169340000Y-126660565D01*
X169334033Y-126630565D01*
X176100000Y-126630565D01*
X176100000Y-126965435D01*
X176165330Y-127293872D01*
X176293479Y-127603252D01*
X176479523Y-127881687D01*
X176716313Y-128118477D01*
X176994748Y-128304521D01*
X177304128Y-128432670D01*
X177632565Y-128498000D01*
X177967435Y-128498000D01*
X178295872Y-128432670D01*
X178605252Y-128304521D01*
X178883687Y-128118477D01*
X179120477Y-127881687D01*
X179306521Y-127603252D01*
X179434670Y-127293872D01*
X179500000Y-126965435D01*
X179500000Y-126630565D01*
X179434670Y-126302128D01*
X179306521Y-125992748D01*
X179120477Y-125714313D01*
X178883687Y-125477523D01*
X178605252Y-125291479D01*
X178504860Y-125249895D01*
X178765000Y-125251072D01*
X178889482Y-125238812D01*
X179009180Y-125202502D01*
X179119494Y-125143537D01*
X179216185Y-125064185D01*
X179295537Y-124967494D01*
X179354502Y-124857180D01*
X179390812Y-124737482D01*
X179403072Y-124613000D01*
X179400000Y-123983750D01*
X179241250Y-123825000D01*
X177927000Y-123825000D01*
X177927000Y-123845000D01*
X177673000Y-123845000D01*
X177673000Y-123825000D01*
X176358750Y-123825000D01*
X176200000Y-123983750D01*
X176196928Y-124613000D01*
X176209188Y-124737482D01*
X176245498Y-124857180D01*
X176304463Y-124967494D01*
X176383815Y-125064185D01*
X176480506Y-125143537D01*
X176590820Y-125202502D01*
X176710518Y-125238812D01*
X176835000Y-125251072D01*
X177095140Y-125249895D01*
X176994748Y-125291479D01*
X176716313Y-125477523D01*
X176479523Y-125714313D01*
X176293479Y-125992748D01*
X176165330Y-126302128D01*
X176100000Y-126630565D01*
X169334033Y-126630565D01*
X169274670Y-126332128D01*
X169146521Y-126022748D01*
X168960477Y-125744313D01*
X168723687Y-125507523D01*
X168445252Y-125321479D01*
X168344860Y-125279895D01*
X168605000Y-125281072D01*
X168729482Y-125268812D01*
X168849180Y-125232502D01*
X168959494Y-125173537D01*
X169056185Y-125094185D01*
X169135537Y-124997494D01*
X169194502Y-124887180D01*
X169230812Y-124767482D01*
X169243072Y-124643000D01*
X169240000Y-124013750D01*
X169081250Y-123855000D01*
X167767000Y-123855000D01*
X167767000Y-123875000D01*
X167513000Y-123875000D01*
X167513000Y-123855000D01*
X166198750Y-123855000D01*
X166040000Y-124013750D01*
X166036928Y-124643000D01*
X166049188Y-124767482D01*
X166085498Y-124887180D01*
X166144463Y-124997494D01*
X166223815Y-125094185D01*
X166320506Y-125173537D01*
X166430820Y-125232502D01*
X166550518Y-125268812D01*
X166675000Y-125281072D01*
X166935140Y-125279895D01*
X166834748Y-125321479D01*
X166556313Y-125507523D01*
X166319523Y-125744313D01*
X166133479Y-126022748D01*
X166005330Y-126332128D01*
X165940000Y-126660565D01*
X159180000Y-126660565D01*
X159114670Y-126332128D01*
X158986521Y-126022748D01*
X158800477Y-125744313D01*
X158563687Y-125507523D01*
X158285252Y-125321479D01*
X158184860Y-125279895D01*
X158445000Y-125281072D01*
X158569482Y-125268812D01*
X158689180Y-125232502D01*
X158799494Y-125173537D01*
X158896185Y-125094185D01*
X158975537Y-124997494D01*
X159034502Y-124887180D01*
X159070812Y-124767482D01*
X159083072Y-124643000D01*
X159082313Y-124487599D01*
X159121615Y-124553131D01*
X159310586Y-124761519D01*
X159536580Y-124929037D01*
X159790913Y-125049246D01*
X159924961Y-125089904D01*
X160147000Y-124967915D01*
X160147000Y-123825000D01*
X160401000Y-123825000D01*
X160401000Y-124967915D01*
X160623039Y-125089904D01*
X160757087Y-125049246D01*
X161011420Y-124929037D01*
X161237414Y-124761519D01*
X161426385Y-124553131D01*
X161571070Y-124311881D01*
X161665909Y-124047040D01*
X161544624Y-123825000D01*
X160401000Y-123825000D01*
X160147000Y-123825000D01*
X159003376Y-123825000D01*
X158963766Y-123897516D01*
X158921250Y-123855000D01*
X157607000Y-123855000D01*
X157607000Y-123875000D01*
X157353000Y-123875000D01*
X157353000Y-123855000D01*
X156038750Y-123855000D01*
X155880000Y-124013750D01*
X155876928Y-124643000D01*
X155889188Y-124767482D01*
X155925498Y-124887180D01*
X155984463Y-124997494D01*
X156063815Y-125094185D01*
X156160506Y-125173537D01*
X156270820Y-125232502D01*
X156390518Y-125268812D01*
X156515000Y-125281072D01*
X156775140Y-125279895D01*
X156674748Y-125321479D01*
X156396313Y-125507523D01*
X156159523Y-125744313D01*
X155973479Y-126022748D01*
X155845330Y-126332128D01*
X155780000Y-126660565D01*
X154176000Y-126660565D01*
X154176000Y-124274711D01*
X154219937Y-124230774D01*
X154333205Y-124061256D01*
X154411226Y-123872898D01*
X154451000Y-123672939D01*
X154451000Y-123469061D01*
X154411226Y-123269102D01*
X154333205Y-123080744D01*
X154219937Y-122911226D01*
X154176000Y-122867289D01*
X154176000Y-122813000D01*
X155876928Y-122813000D01*
X155880000Y-123442250D01*
X156038750Y-123601000D01*
X157353000Y-123601000D01*
X157353000Y-122336750D01*
X157607000Y-122336750D01*
X157607000Y-123601000D01*
X158921250Y-123601000D01*
X158984962Y-123537288D01*
X159003376Y-123571000D01*
X160147000Y-123571000D01*
X160147000Y-122428085D01*
X160401000Y-122428085D01*
X160401000Y-123571000D01*
X161544624Y-123571000D01*
X161665909Y-123348960D01*
X161571070Y-123084119D01*
X161426385Y-122842869D01*
X161399300Y-122813000D01*
X166036928Y-122813000D01*
X166040000Y-123442250D01*
X166198750Y-123601000D01*
X167513000Y-123601000D01*
X167513000Y-122336750D01*
X167767000Y-122336750D01*
X167767000Y-123601000D01*
X169081250Y-123601000D01*
X169240000Y-123442250D01*
X169243072Y-122813000D01*
X169240118Y-122783000D01*
X176196928Y-122783000D01*
X176200000Y-123412250D01*
X176358750Y-123571000D01*
X177673000Y-123571000D01*
X177673000Y-122306750D01*
X177927000Y-122306750D01*
X177927000Y-123571000D01*
X179241250Y-123571000D01*
X179400000Y-123412250D01*
X179403072Y-122783000D01*
X179390812Y-122658518D01*
X179354502Y-122538820D01*
X179295537Y-122428506D01*
X179216185Y-122331815D01*
X179119494Y-122252463D01*
X179009180Y-122193498D01*
X178889482Y-122157188D01*
X178765000Y-122144928D01*
X178085750Y-122148000D01*
X177927000Y-122306750D01*
X177673000Y-122306750D01*
X177514250Y-122148000D01*
X176835000Y-122144928D01*
X176710518Y-122157188D01*
X176590820Y-122193498D01*
X176480506Y-122252463D01*
X176383815Y-122331815D01*
X176304463Y-122428506D01*
X176245498Y-122538820D01*
X176209188Y-122658518D01*
X176196928Y-122783000D01*
X169240118Y-122783000D01*
X169230812Y-122688518D01*
X169194502Y-122568820D01*
X169135537Y-122458506D01*
X169056185Y-122361815D01*
X168959494Y-122282463D01*
X168849180Y-122223498D01*
X168729482Y-122187188D01*
X168605000Y-122174928D01*
X167925750Y-122178000D01*
X167767000Y-122336750D01*
X167513000Y-122336750D01*
X167354250Y-122178000D01*
X166675000Y-122174928D01*
X166550518Y-122187188D01*
X166430820Y-122223498D01*
X166320506Y-122282463D01*
X166223815Y-122361815D01*
X166144463Y-122458506D01*
X166085498Y-122568820D01*
X166049188Y-122688518D01*
X166036928Y-122813000D01*
X161399300Y-122813000D01*
X161237414Y-122634481D01*
X161011420Y-122466963D01*
X160757087Y-122346754D01*
X160623039Y-122306096D01*
X160401000Y-122428085D01*
X160147000Y-122428085D01*
X159924961Y-122306096D01*
X159790913Y-122346754D01*
X159536580Y-122466963D01*
X159310586Y-122634481D01*
X159121615Y-122842869D01*
X159082609Y-122907909D01*
X159083072Y-122813000D01*
X159070812Y-122688518D01*
X159034502Y-122568820D01*
X158975537Y-122458506D01*
X158896185Y-122361815D01*
X158799494Y-122282463D01*
X158689180Y-122223498D01*
X158569482Y-122187188D01*
X158445000Y-122174928D01*
X157765750Y-122178000D01*
X157607000Y-122336750D01*
X157353000Y-122336750D01*
X157194250Y-122178000D01*
X156515000Y-122174928D01*
X156390518Y-122187188D01*
X156270820Y-122223498D01*
X156160506Y-122282463D01*
X156063815Y-122361815D01*
X155984463Y-122458506D01*
X155925498Y-122568820D01*
X155889188Y-122688518D01*
X155876928Y-122813000D01*
X154176000Y-122813000D01*
X154176000Y-120198565D01*
X155780000Y-120198565D01*
X155780000Y-120533435D01*
X155845330Y-120861872D01*
X155973479Y-121171252D01*
X156159523Y-121449687D01*
X156396313Y-121686477D01*
X156674748Y-121872521D01*
X156984128Y-122000670D01*
X157312565Y-122066000D01*
X157647435Y-122066000D01*
X157975872Y-122000670D01*
X158285252Y-121872521D01*
X158563687Y-121686477D01*
X158800477Y-121449687D01*
X158986521Y-121171252D01*
X159114670Y-120861872D01*
X159180000Y-120533435D01*
X159180000Y-120198565D01*
X165940000Y-120198565D01*
X165940000Y-120533435D01*
X166005330Y-120861872D01*
X166133479Y-121171252D01*
X166319523Y-121449687D01*
X166556313Y-121686477D01*
X166834748Y-121872521D01*
X167144128Y-122000670D01*
X167472565Y-122066000D01*
X167807435Y-122066000D01*
X168135872Y-122000670D01*
X168445252Y-121872521D01*
X168723687Y-121686477D01*
X168960477Y-121449687D01*
X169146521Y-121171252D01*
X169274670Y-120861872D01*
X169340000Y-120533435D01*
X169340000Y-120198565D01*
X176100000Y-120198565D01*
X176100000Y-120533435D01*
X176165330Y-120861872D01*
X176293479Y-121171252D01*
X176479523Y-121449687D01*
X176716313Y-121686477D01*
X176994748Y-121872521D01*
X177304128Y-122000670D01*
X177632565Y-122066000D01*
X177967435Y-122066000D01*
X178295872Y-122000670D01*
X178605252Y-121872521D01*
X178883687Y-121686477D01*
X179120477Y-121449687D01*
X179306521Y-121171252D01*
X179434670Y-120861872D01*
X179500000Y-120533435D01*
X179500000Y-120198565D01*
X179434670Y-119870128D01*
X179306521Y-119560748D01*
X179120477Y-119282313D01*
X178883687Y-119045523D01*
X178605252Y-118859479D01*
X178295872Y-118731330D01*
X177967435Y-118666000D01*
X177632565Y-118666000D01*
X177304128Y-118731330D01*
X176994748Y-118859479D01*
X176716313Y-119045523D01*
X176479523Y-119282313D01*
X176293479Y-119560748D01*
X176165330Y-119870128D01*
X176100000Y-120198565D01*
X169340000Y-120198565D01*
X169274670Y-119870128D01*
X169146521Y-119560748D01*
X168960477Y-119282313D01*
X168723687Y-119045523D01*
X168445252Y-118859479D01*
X168135872Y-118731330D01*
X167807435Y-118666000D01*
X167472565Y-118666000D01*
X167144128Y-118731330D01*
X166834748Y-118859479D01*
X166556313Y-119045523D01*
X166319523Y-119282313D01*
X166133479Y-119560748D01*
X166005330Y-119870128D01*
X165940000Y-120198565D01*
X159180000Y-120198565D01*
X159114670Y-119870128D01*
X158986521Y-119560748D01*
X158800477Y-119282313D01*
X158563687Y-119045523D01*
X158285252Y-118859479D01*
X157975872Y-118731330D01*
X157647435Y-118666000D01*
X157312565Y-118666000D01*
X156984128Y-118731330D01*
X156674748Y-118859479D01*
X156396313Y-119045523D01*
X156159523Y-119282313D01*
X155973479Y-119560748D01*
X155845330Y-119870128D01*
X155780000Y-120198565D01*
X154176000Y-120198565D01*
X154176000Y-115786000D01*
X158835928Y-115786000D01*
X158835928Y-117386000D01*
X158848188Y-117510482D01*
X158884498Y-117630180D01*
X158943463Y-117740494D01*
X159022815Y-117837185D01*
X159119506Y-117916537D01*
X159229820Y-117975502D01*
X159349518Y-118011812D01*
X159474000Y-118024072D01*
X161074000Y-118024072D01*
X161198482Y-118011812D01*
X161318180Y-117975502D01*
X161428494Y-117916537D01*
X161525185Y-117837185D01*
X161604537Y-117740494D01*
X161663502Y-117630180D01*
X161699812Y-117510482D01*
X161712072Y-117386000D01*
X161712072Y-115786000D01*
X161699812Y-115661518D01*
X161663502Y-115541820D01*
X161604537Y-115431506D01*
X161525185Y-115334815D01*
X161428494Y-115255463D01*
X161318180Y-115196498D01*
X161198482Y-115160188D01*
X161074000Y-115147928D01*
X159474000Y-115147928D01*
X159349518Y-115160188D01*
X159229820Y-115196498D01*
X159119506Y-115255463D01*
X159022815Y-115334815D01*
X158943463Y-115431506D01*
X158884498Y-115541820D01*
X158848188Y-115661518D01*
X158835928Y-115786000D01*
X154176000Y-115786000D01*
X154176000Y-111898565D01*
X155780000Y-111898565D01*
X155780000Y-112233435D01*
X155845330Y-112561872D01*
X155973479Y-112871252D01*
X156159523Y-113149687D01*
X156396313Y-113386477D01*
X156674748Y-113572521D01*
X156984128Y-113700670D01*
X157312565Y-113766000D01*
X157647435Y-113766000D01*
X157975872Y-113700670D01*
X158285252Y-113572521D01*
X158563687Y-113386477D01*
X158800477Y-113149687D01*
X158986521Y-112871252D01*
X159114670Y-112561872D01*
X159180000Y-112233435D01*
X159180000Y-111898565D01*
X159114670Y-111570128D01*
X158986521Y-111260748D01*
X158800477Y-110982313D01*
X158563687Y-110745523D01*
X158285252Y-110559479D01*
X158184860Y-110517895D01*
X158445000Y-110519072D01*
X158569482Y-110506812D01*
X158689180Y-110470502D01*
X158799494Y-110411537D01*
X158896185Y-110332185D01*
X158975537Y-110235494D01*
X159034502Y-110125180D01*
X159070812Y-110005482D01*
X159083072Y-109881000D01*
X159082461Y-109755845D01*
X159121615Y-109821131D01*
X159310586Y-110029519D01*
X159536580Y-110197037D01*
X159790913Y-110317246D01*
X159924961Y-110357904D01*
X160147000Y-110235915D01*
X160147000Y-109093000D01*
X160401000Y-109093000D01*
X160401000Y-110235915D01*
X160623039Y-110357904D01*
X160757087Y-110317246D01*
X161011420Y-110197037D01*
X161237414Y-110029519D01*
X161426385Y-109821131D01*
X161571070Y-109579881D01*
X161665909Y-109315040D01*
X161544624Y-109093000D01*
X160401000Y-109093000D01*
X160147000Y-109093000D01*
X159003376Y-109093000D01*
X158974364Y-109146114D01*
X158921250Y-109093000D01*
X157607000Y-109093000D01*
X157607000Y-109113000D01*
X157353000Y-109113000D01*
X157353000Y-109093000D01*
X156038750Y-109093000D01*
X155880000Y-109251750D01*
X155876928Y-109881000D01*
X155889188Y-110005482D01*
X155925498Y-110125180D01*
X155984463Y-110235494D01*
X156063815Y-110332185D01*
X156160506Y-110411537D01*
X156270820Y-110470502D01*
X156390518Y-110506812D01*
X156515000Y-110519072D01*
X156775140Y-110517895D01*
X156674748Y-110559479D01*
X156396313Y-110745523D01*
X156159523Y-110982313D01*
X155973479Y-111260748D01*
X155845330Y-111570128D01*
X155780000Y-111898565D01*
X154176000Y-111898565D01*
X154176000Y-109542711D01*
X154219937Y-109498774D01*
X154333205Y-109329256D01*
X154411226Y-109140898D01*
X154451000Y-108940939D01*
X154451000Y-108737061D01*
X154411226Y-108537102D01*
X154333205Y-108348744D01*
X154219937Y-108179226D01*
X154176000Y-108135289D01*
X154176000Y-108051000D01*
X155876928Y-108051000D01*
X155880000Y-108680250D01*
X156038750Y-108839000D01*
X157353000Y-108839000D01*
X157353000Y-107574750D01*
X157607000Y-107574750D01*
X157607000Y-108839000D01*
X158921250Y-108839000D01*
X158974364Y-108785886D01*
X159003376Y-108839000D01*
X160147000Y-108839000D01*
X160147000Y-107696085D01*
X160401000Y-107696085D01*
X160401000Y-108839000D01*
X161544624Y-108839000D01*
X161665909Y-108616960D01*
X161571070Y-108352119D01*
X161426385Y-108110869D01*
X161372095Y-108051000D01*
X166036928Y-108051000D01*
X166040000Y-108680250D01*
X166198750Y-108839000D01*
X167513000Y-108839000D01*
X167513000Y-107574750D01*
X167767000Y-107574750D01*
X167767000Y-108839000D01*
X169081250Y-108839000D01*
X169240000Y-108680250D01*
X169243072Y-108051000D01*
X169230812Y-107926518D01*
X169194502Y-107806820D01*
X169135537Y-107696506D01*
X169056185Y-107599815D01*
X168959494Y-107520463D01*
X168849180Y-107461498D01*
X168729482Y-107425188D01*
X168605000Y-107412928D01*
X167925750Y-107416000D01*
X167767000Y-107574750D01*
X167513000Y-107574750D01*
X167354250Y-107416000D01*
X166675000Y-107412928D01*
X166550518Y-107425188D01*
X166430820Y-107461498D01*
X166320506Y-107520463D01*
X166223815Y-107599815D01*
X166144463Y-107696506D01*
X166085498Y-107806820D01*
X166049188Y-107926518D01*
X166036928Y-108051000D01*
X161372095Y-108051000D01*
X161237414Y-107902481D01*
X161011420Y-107734963D01*
X160757087Y-107614754D01*
X160623039Y-107574096D01*
X160401000Y-107696085D01*
X160147000Y-107696085D01*
X159924961Y-107574096D01*
X159790913Y-107614754D01*
X159536580Y-107734963D01*
X159310586Y-107902481D01*
X159121615Y-108110869D01*
X159082461Y-108176155D01*
X159083072Y-108051000D01*
X159070812Y-107926518D01*
X159034502Y-107806820D01*
X158975537Y-107696506D01*
X158896185Y-107599815D01*
X158799494Y-107520463D01*
X158689180Y-107461498D01*
X158569482Y-107425188D01*
X158445000Y-107412928D01*
X157765750Y-107416000D01*
X157607000Y-107574750D01*
X157353000Y-107574750D01*
X157194250Y-107416000D01*
X156515000Y-107412928D01*
X156390518Y-107425188D01*
X156270820Y-107461498D01*
X156160506Y-107520463D01*
X156063815Y-107599815D01*
X155984463Y-107696506D01*
X155925498Y-107806820D01*
X155889188Y-107926518D01*
X155876928Y-108051000D01*
X154176000Y-108051000D01*
X154176000Y-105466565D01*
X155780000Y-105466565D01*
X155780000Y-105801435D01*
X155845330Y-106129872D01*
X155973479Y-106439252D01*
X156159523Y-106717687D01*
X156396313Y-106954477D01*
X156674748Y-107140521D01*
X156984128Y-107268670D01*
X157312565Y-107334000D01*
X157647435Y-107334000D01*
X157975872Y-107268670D01*
X158285252Y-107140521D01*
X158563687Y-106954477D01*
X158800477Y-106717687D01*
X158986521Y-106439252D01*
X159114670Y-106129872D01*
X159180000Y-105801435D01*
X159180000Y-105466565D01*
X165940000Y-105466565D01*
X165940000Y-105801435D01*
X166005330Y-106129872D01*
X166133479Y-106439252D01*
X166319523Y-106717687D01*
X166556313Y-106954477D01*
X166834748Y-107140521D01*
X167144128Y-107268670D01*
X167472565Y-107334000D01*
X167807435Y-107334000D01*
X168135872Y-107268670D01*
X168445252Y-107140521D01*
X168723687Y-106954477D01*
X168960477Y-106717687D01*
X169146521Y-106439252D01*
X169274670Y-106129872D01*
X169340000Y-105801435D01*
X169340000Y-105466565D01*
X169274670Y-105138128D01*
X169146521Y-104828748D01*
X168960477Y-104550313D01*
X168723687Y-104313523D01*
X168445252Y-104127479D01*
X168135872Y-103999330D01*
X167807435Y-103934000D01*
X167472565Y-103934000D01*
X167144128Y-103999330D01*
X166834748Y-104127479D01*
X166556313Y-104313523D01*
X166319523Y-104550313D01*
X166133479Y-104828748D01*
X166005330Y-105138128D01*
X165940000Y-105466565D01*
X159180000Y-105466565D01*
X159114670Y-105138128D01*
X158986521Y-104828748D01*
X158800477Y-104550313D01*
X158563687Y-104313523D01*
X158285252Y-104127479D01*
X157975872Y-103999330D01*
X157647435Y-103934000D01*
X157312565Y-103934000D01*
X156984128Y-103999330D01*
X156674748Y-104127479D01*
X156396313Y-104313523D01*
X156159523Y-104550313D01*
X155973479Y-104828748D01*
X155845330Y-105138128D01*
X155780000Y-105466565D01*
X154176000Y-105466565D01*
X154176000Y-101054000D01*
X158835928Y-101054000D01*
X158835928Y-102654000D01*
X158848188Y-102778482D01*
X158884498Y-102898180D01*
X158943463Y-103008494D01*
X159022815Y-103105185D01*
X159119506Y-103184537D01*
X159229820Y-103243502D01*
X159349518Y-103279812D01*
X159474000Y-103292072D01*
X161074000Y-103292072D01*
X161198482Y-103279812D01*
X161318180Y-103243502D01*
X161428494Y-103184537D01*
X161525185Y-103105185D01*
X161604537Y-103008494D01*
X161663502Y-102898180D01*
X161699812Y-102778482D01*
X161712072Y-102654000D01*
X161712072Y-101054000D01*
X161699812Y-100929518D01*
X161663502Y-100809820D01*
X161604537Y-100699506D01*
X161525185Y-100602815D01*
X161428494Y-100523463D01*
X161318180Y-100464498D01*
X161198482Y-100428188D01*
X161074000Y-100415928D01*
X159474000Y-100415928D01*
X159349518Y-100428188D01*
X159229820Y-100464498D01*
X159119506Y-100523463D01*
X159022815Y-100602815D01*
X158943463Y-100699506D01*
X158884498Y-100809820D01*
X158848188Y-100929518D01*
X158835928Y-101054000D01*
X154176000Y-101054000D01*
X154176000Y-97166565D01*
X155780000Y-97166565D01*
X155780000Y-97501435D01*
X155845330Y-97829872D01*
X155973479Y-98139252D01*
X156159523Y-98417687D01*
X156396313Y-98654477D01*
X156674748Y-98840521D01*
X156984128Y-98968670D01*
X157312565Y-99034000D01*
X157647435Y-99034000D01*
X157975872Y-98968670D01*
X158285252Y-98840521D01*
X158563687Y-98654477D01*
X158800477Y-98417687D01*
X158986521Y-98139252D01*
X159114670Y-97829872D01*
X159180000Y-97501435D01*
X159180000Y-97166565D01*
X165940000Y-97166565D01*
X165940000Y-97501435D01*
X166005330Y-97829872D01*
X166133479Y-98139252D01*
X166319523Y-98417687D01*
X166556313Y-98654477D01*
X166834748Y-98840521D01*
X167144128Y-98968670D01*
X167472565Y-99034000D01*
X167807435Y-99034000D01*
X168135872Y-98968670D01*
X168445252Y-98840521D01*
X168723687Y-98654477D01*
X168960477Y-98417687D01*
X169146521Y-98139252D01*
X169274670Y-97829872D01*
X169340000Y-97501435D01*
X169340000Y-97166565D01*
X176100000Y-97166565D01*
X176100000Y-97501435D01*
X176165330Y-97829872D01*
X176293479Y-98139252D01*
X176479523Y-98417687D01*
X176716313Y-98654477D01*
X176994748Y-98840521D01*
X177304128Y-98968670D01*
X177632565Y-99034000D01*
X177967435Y-99034000D01*
X178295872Y-98968670D01*
X178605252Y-98840521D01*
X178883687Y-98654477D01*
X179120477Y-98417687D01*
X179306521Y-98139252D01*
X179434670Y-97829872D01*
X179500000Y-97501435D01*
X179500000Y-97166565D01*
X179434670Y-96838128D01*
X179306521Y-96528748D01*
X179120477Y-96250313D01*
X178883687Y-96013523D01*
X178605252Y-95827479D01*
X178504860Y-95785895D01*
X178765000Y-95787072D01*
X178889482Y-95774812D01*
X179009180Y-95738502D01*
X179119494Y-95679537D01*
X179216185Y-95600185D01*
X179295537Y-95503494D01*
X179354502Y-95393180D01*
X179390812Y-95273482D01*
X179403072Y-95149000D01*
X179400000Y-94519750D01*
X179241250Y-94361000D01*
X177927000Y-94361000D01*
X177927000Y-94381000D01*
X177673000Y-94381000D01*
X177673000Y-94361000D01*
X176358750Y-94361000D01*
X176200000Y-94519750D01*
X176196928Y-95149000D01*
X176209188Y-95273482D01*
X176245498Y-95393180D01*
X176304463Y-95503494D01*
X176383815Y-95600185D01*
X176480506Y-95679537D01*
X176590820Y-95738502D01*
X176710518Y-95774812D01*
X176835000Y-95787072D01*
X177095140Y-95785895D01*
X176994748Y-95827479D01*
X176716313Y-96013523D01*
X176479523Y-96250313D01*
X176293479Y-96528748D01*
X176165330Y-96838128D01*
X176100000Y-97166565D01*
X169340000Y-97166565D01*
X169274670Y-96838128D01*
X169146521Y-96528748D01*
X168960477Y-96250313D01*
X168723687Y-96013523D01*
X168445252Y-95827479D01*
X168344860Y-95785895D01*
X168605000Y-95787072D01*
X168729482Y-95774812D01*
X168849180Y-95738502D01*
X168959494Y-95679537D01*
X169056185Y-95600185D01*
X169135537Y-95503494D01*
X169194502Y-95393180D01*
X169230812Y-95273482D01*
X169243072Y-95149000D01*
X169240000Y-94519750D01*
X169081250Y-94361000D01*
X167767000Y-94361000D01*
X167767000Y-94381000D01*
X167513000Y-94381000D01*
X167513000Y-94361000D01*
X166198750Y-94361000D01*
X166040000Y-94519750D01*
X166036928Y-95149000D01*
X166049188Y-95273482D01*
X166085498Y-95393180D01*
X166144463Y-95503494D01*
X166223815Y-95600185D01*
X166320506Y-95679537D01*
X166430820Y-95738502D01*
X166550518Y-95774812D01*
X166675000Y-95787072D01*
X166935140Y-95785895D01*
X166834748Y-95827479D01*
X166556313Y-96013523D01*
X166319523Y-96250313D01*
X166133479Y-96528748D01*
X166005330Y-96838128D01*
X165940000Y-97166565D01*
X159180000Y-97166565D01*
X159114670Y-96838128D01*
X158986521Y-96528748D01*
X158800477Y-96250313D01*
X158563687Y-96013523D01*
X158285252Y-95827479D01*
X158184860Y-95785895D01*
X158445000Y-95787072D01*
X158569482Y-95774812D01*
X158689180Y-95738502D01*
X158799494Y-95679537D01*
X158896185Y-95600185D01*
X158975537Y-95503494D01*
X159034502Y-95393180D01*
X159070812Y-95273482D01*
X159083072Y-95149000D01*
X159082461Y-95023845D01*
X159121615Y-95089131D01*
X159310586Y-95297519D01*
X159536580Y-95465037D01*
X159790913Y-95585246D01*
X159924961Y-95625904D01*
X160147000Y-95503915D01*
X160147000Y-94361000D01*
X160401000Y-94361000D01*
X160401000Y-95503915D01*
X160623039Y-95625904D01*
X160757087Y-95585246D01*
X161011420Y-95465037D01*
X161237414Y-95297519D01*
X161426385Y-95089131D01*
X161571070Y-94847881D01*
X161665909Y-94583040D01*
X161544624Y-94361000D01*
X160401000Y-94361000D01*
X160147000Y-94361000D01*
X159003376Y-94361000D01*
X158974364Y-94414114D01*
X158921250Y-94361000D01*
X157607000Y-94361000D01*
X157607000Y-94381000D01*
X157353000Y-94381000D01*
X157353000Y-94361000D01*
X156038750Y-94361000D01*
X155880000Y-94519750D01*
X155876928Y-95149000D01*
X155889188Y-95273482D01*
X155925498Y-95393180D01*
X155984463Y-95503494D01*
X156063815Y-95600185D01*
X156160506Y-95679537D01*
X156270820Y-95738502D01*
X156390518Y-95774812D01*
X156515000Y-95787072D01*
X156775140Y-95785895D01*
X156674748Y-95827479D01*
X156396313Y-96013523D01*
X156159523Y-96250313D01*
X155973479Y-96528748D01*
X155845330Y-96838128D01*
X155780000Y-97166565D01*
X154176000Y-97166565D01*
X154176000Y-94683711D01*
X154219937Y-94639774D01*
X154333205Y-94470256D01*
X154411226Y-94281898D01*
X154451000Y-94081939D01*
X154451000Y-93878061D01*
X154411226Y-93678102D01*
X154333205Y-93489744D01*
X154219937Y-93320226D01*
X154218711Y-93319000D01*
X155876928Y-93319000D01*
X155880000Y-93948250D01*
X156038750Y-94107000D01*
X157353000Y-94107000D01*
X157353000Y-92842750D01*
X157607000Y-92842750D01*
X157607000Y-94107000D01*
X158921250Y-94107000D01*
X158974364Y-94053886D01*
X159003376Y-94107000D01*
X160147000Y-94107000D01*
X160147000Y-92964085D01*
X160401000Y-92964085D01*
X160401000Y-94107000D01*
X161544624Y-94107000D01*
X161665909Y-93884960D01*
X161571070Y-93620119D01*
X161426385Y-93378869D01*
X161237414Y-93170481D01*
X161011420Y-93002963D01*
X160757087Y-92882754D01*
X160623039Y-92842096D01*
X160401000Y-92964085D01*
X160147000Y-92964085D01*
X159924961Y-92842096D01*
X159790913Y-92882754D01*
X159536580Y-93002963D01*
X159310586Y-93170481D01*
X159121615Y-93378869D01*
X159082461Y-93444155D01*
X159083072Y-93319000D01*
X159070812Y-93194518D01*
X159034502Y-93074820D01*
X158975537Y-92964506D01*
X158896185Y-92867815D01*
X158799494Y-92788463D01*
X158689180Y-92729498D01*
X158569482Y-92693188D01*
X158445000Y-92680928D01*
X157765750Y-92684000D01*
X157607000Y-92842750D01*
X157353000Y-92842750D01*
X157194250Y-92684000D01*
X156515000Y-92680928D01*
X156390518Y-92693188D01*
X156270820Y-92729498D01*
X156160506Y-92788463D01*
X156063815Y-92867815D01*
X155984463Y-92964506D01*
X155925498Y-93074820D01*
X155889188Y-93194518D01*
X155876928Y-93319000D01*
X154218711Y-93319000D01*
X154176000Y-93276289D01*
X154176000Y-92897801D01*
X156143802Y-90930000D01*
X156895680Y-90930000D01*
X156933002Y-90933676D01*
X156970324Y-90930000D01*
X156970335Y-90930000D01*
X157081988Y-90919003D01*
X157225249Y-90875546D01*
X157357278Y-90804974D01*
X157473003Y-90710001D01*
X157496806Y-90680997D01*
X159771002Y-88406802D01*
X159837558Y-88602054D01*
X160007992Y-88896391D01*
X160232573Y-89151822D01*
X160502671Y-89358531D01*
X160807906Y-89508575D01*
X161020878Y-89573175D01*
X161290000Y-89455125D01*
X161290000Y-88011000D01*
X161270000Y-88011000D01*
X161270000Y-87757000D01*
X161290000Y-87757000D01*
X161290000Y-86312875D01*
X161020878Y-86194825D01*
X160807906Y-86259425D01*
X160502671Y-86409469D01*
X160272000Y-86586004D01*
X160272000Y-79457640D01*
X160317000Y-79462072D01*
X162082002Y-79462072D01*
X162082002Y-80675287D01*
X162038064Y-80719225D01*
X161924796Y-80888743D01*
X161846775Y-81077101D01*
X161807001Y-81277060D01*
X161807001Y-81480938D01*
X161846775Y-81680897D01*
X161924796Y-81869255D01*
X162038064Y-82038773D01*
X162182227Y-82182936D01*
X162351745Y-82296204D01*
X162540103Y-82374225D01*
X162740062Y-82413999D01*
X162943940Y-82413999D01*
X163143899Y-82374225D01*
X163332257Y-82296204D01*
X163501775Y-82182936D01*
X163645938Y-82038773D01*
X163705000Y-81950380D01*
X163705001Y-84521196D01*
X162430002Y-85796197D01*
X162400999Y-85819999D01*
X162370635Y-85856998D01*
X162306026Y-85935724D01*
X162262451Y-86017246D01*
X162235454Y-86067754D01*
X162191997Y-86211015D01*
X162181000Y-86322668D01*
X162181000Y-86322678D01*
X162179789Y-86334976D01*
X162026094Y-86259425D01*
X161813122Y-86194825D01*
X161544000Y-86312875D01*
X161544000Y-87757000D01*
X161564000Y-87757000D01*
X161564000Y-88011000D01*
X161544000Y-88011000D01*
X161544000Y-89455125D01*
X161813122Y-89573175D01*
X162026094Y-89508575D01*
X162181000Y-89432428D01*
X162181001Y-93180668D01*
X162177324Y-93218000D01*
X162181001Y-93255333D01*
X162187393Y-93320226D01*
X162191998Y-93366985D01*
X162235454Y-93510246D01*
X162306026Y-93642276D01*
X162372273Y-93722997D01*
X162401000Y-93758001D01*
X162429998Y-93781799D01*
X163197000Y-94548802D01*
X163197001Y-95181288D01*
X163153063Y-95225226D01*
X163039795Y-95394744D01*
X162961774Y-95583102D01*
X162922000Y-95783061D01*
X162922000Y-95986939D01*
X162961774Y-96186898D01*
X163039795Y-96375256D01*
X163153063Y-96544774D01*
X163297226Y-96688937D01*
X163466744Y-96802205D01*
X163655102Y-96880226D01*
X163855061Y-96920000D01*
X164058939Y-96920000D01*
X164258898Y-96880226D01*
X164447256Y-96802205D01*
X164616774Y-96688937D01*
X164760937Y-96544774D01*
X164874205Y-96375256D01*
X164952226Y-96186898D01*
X164992000Y-95986939D01*
X164992000Y-95783061D01*
X164952226Y-95583102D01*
X164874205Y-95394744D01*
X164760937Y-95225226D01*
X164717000Y-95181289D01*
X164717000Y-94271322D01*
X164720676Y-94234000D01*
X164717000Y-94196677D01*
X164717000Y-94196667D01*
X164706003Y-94085014D01*
X164662546Y-93941753D01*
X164632189Y-93884960D01*
X164591974Y-93809723D01*
X164520799Y-93722997D01*
X164497001Y-93693999D01*
X164468004Y-93670202D01*
X164116802Y-93319000D01*
X166036928Y-93319000D01*
X166040000Y-93948250D01*
X166198750Y-94107000D01*
X167513000Y-94107000D01*
X167513000Y-92842750D01*
X167767000Y-92842750D01*
X167767000Y-94107000D01*
X169081250Y-94107000D01*
X169240000Y-93948250D01*
X169243072Y-93319000D01*
X176196928Y-93319000D01*
X176200000Y-93948250D01*
X176358750Y-94107000D01*
X177673000Y-94107000D01*
X177673000Y-92842750D01*
X177927000Y-92842750D01*
X177927000Y-94107000D01*
X179241250Y-94107000D01*
X179400000Y-93948250D01*
X179403072Y-93319000D01*
X179390812Y-93194518D01*
X179354502Y-93074820D01*
X179295537Y-92964506D01*
X179216185Y-92867815D01*
X179119494Y-92788463D01*
X179009180Y-92729498D01*
X178889482Y-92693188D01*
X178765000Y-92680928D01*
X178085750Y-92684000D01*
X177927000Y-92842750D01*
X177673000Y-92842750D01*
X177514250Y-92684000D01*
X176835000Y-92680928D01*
X176710518Y-92693188D01*
X176590820Y-92729498D01*
X176480506Y-92788463D01*
X176383815Y-92867815D01*
X176304463Y-92964506D01*
X176245498Y-93074820D01*
X176209188Y-93194518D01*
X176196928Y-93319000D01*
X169243072Y-93319000D01*
X169230812Y-93194518D01*
X169194502Y-93074820D01*
X169135537Y-92964506D01*
X169056185Y-92867815D01*
X168959494Y-92788463D01*
X168849180Y-92729498D01*
X168729482Y-92693188D01*
X168605000Y-92680928D01*
X167925750Y-92684000D01*
X167767000Y-92842750D01*
X167513000Y-92842750D01*
X167354250Y-92684000D01*
X166675000Y-92680928D01*
X166550518Y-92693188D01*
X166430820Y-92729498D01*
X166320506Y-92788463D01*
X166223815Y-92867815D01*
X166144463Y-92964506D01*
X166085498Y-93074820D01*
X166049188Y-93194518D01*
X166036928Y-93319000D01*
X164116802Y-93319000D01*
X163701000Y-92903199D01*
X163701000Y-89290461D01*
X163897169Y-89421537D01*
X164212919Y-89552325D01*
X164548117Y-89619000D01*
X164889883Y-89619000D01*
X165225081Y-89552325D01*
X165540831Y-89421537D01*
X165824998Y-89231663D01*
X166066663Y-88989998D01*
X166256537Y-88705831D01*
X166387325Y-88390081D01*
X166454000Y-88054883D01*
X166454000Y-87713117D01*
X166387325Y-87377919D01*
X166256537Y-87062169D01*
X166066663Y-86778002D01*
X165824998Y-86536337D01*
X165540831Y-86346463D01*
X165225081Y-86215675D01*
X164889883Y-86149000D01*
X164548117Y-86149000D01*
X164212919Y-86215675D01*
X164122797Y-86253005D01*
X164976008Y-85399795D01*
X165005001Y-85376001D01*
X165028795Y-85347008D01*
X165028799Y-85347004D01*
X165099973Y-85260277D01*
X165113621Y-85234744D01*
X165170546Y-85128247D01*
X165214003Y-84984986D01*
X165225000Y-84873333D01*
X165225000Y-84873324D01*
X165228676Y-84836001D01*
X165225000Y-84798678D01*
X165225000Y-82438013D01*
X165244744Y-82451205D01*
X165433102Y-82529226D01*
X165633061Y-82569000D01*
X165836939Y-82569000D01*
X166036898Y-82529226D01*
X166225256Y-82451205D01*
X166394774Y-82337937D01*
X166538937Y-82193774D01*
X166624000Y-82066468D01*
X166709063Y-82193774D01*
X166753000Y-82237711D01*
X166753001Y-83782668D01*
X166749324Y-83820000D01*
X166753001Y-83857333D01*
X166763998Y-83968986D01*
X166773358Y-83999843D01*
X166807454Y-84112246D01*
X166878026Y-84244276D01*
X166922990Y-84299064D01*
X166973000Y-84360001D01*
X167001998Y-84383799D01*
X167308199Y-84690000D01*
X167284061Y-84690000D01*
X167084102Y-84729774D01*
X166895744Y-84807795D01*
X166726226Y-84921063D01*
X166582063Y-85065226D01*
X166468795Y-85234744D01*
X166390774Y-85423102D01*
X166351000Y-85623061D01*
X166351000Y-85826939D01*
X166390774Y-86026898D01*
X166468795Y-86215256D01*
X166582063Y-86384774D01*
X166726226Y-86528937D01*
X166895744Y-86642205D01*
X167084102Y-86720226D01*
X167284061Y-86760000D01*
X167346199Y-86760000D01*
X168219201Y-87633003D01*
X168242999Y-87662001D01*
X168358724Y-87756974D01*
X168490753Y-87827546D01*
X168634014Y-87871003D01*
X168745667Y-87882000D01*
X168745676Y-87882000D01*
X168782999Y-87885676D01*
X168820322Y-87882000D01*
X174683289Y-87882000D01*
X174727226Y-87925937D01*
X174896744Y-88039205D01*
X175085102Y-88117226D01*
X175285061Y-88157000D01*
X175488939Y-88157000D01*
X175688898Y-88117226D01*
X175877256Y-88039205D01*
X176046774Y-87925937D01*
X176190937Y-87781774D01*
X176304205Y-87612256D01*
X176382226Y-87423898D01*
X176422000Y-87223939D01*
X176422000Y-87156999D01*
X179427198Y-87156999D01*
X179432000Y-87161801D01*
X179432000Y-87223939D01*
X179471774Y-87423898D01*
X179549795Y-87612256D01*
X179663063Y-87781774D01*
X179807226Y-87925937D01*
X179976744Y-88039205D01*
X180165102Y-88117226D01*
X180365061Y-88157000D01*
X180432001Y-88157000D01*
X180432002Y-99290196D01*
X169865199Y-109857000D01*
X169242955Y-109857000D01*
X169240000Y-109251750D01*
X169081250Y-109093000D01*
X167767000Y-109093000D01*
X167767000Y-109113000D01*
X167513000Y-109113000D01*
X167513000Y-109093000D01*
X166198750Y-109093000D01*
X166040000Y-109251750D01*
X166037045Y-109857000D01*
X164756333Y-109857000D01*
X164719000Y-109853323D01*
X164681667Y-109857000D01*
X164570014Y-109867997D01*
X164426753Y-109911454D01*
X164294724Y-109982026D01*
X164178999Y-110076999D01*
X164155200Y-110105998D01*
X164044198Y-110217000D01*
X163982061Y-110217000D01*
X163782102Y-110256774D01*
X163593744Y-110334795D01*
X163424226Y-110448063D01*
X163280063Y-110592226D01*
X163166795Y-110761744D01*
X163088774Y-110950102D01*
X163049000Y-111150061D01*
X163049000Y-111353939D01*
X163088774Y-111553898D01*
X163166795Y-111742256D01*
X163280063Y-111911774D01*
X163424226Y-112055937D01*
X163593744Y-112169205D01*
X163782102Y-112247226D01*
X163982061Y-112287000D01*
X164185939Y-112287000D01*
X164385898Y-112247226D01*
X164574256Y-112169205D01*
X164743774Y-112055937D01*
X164887937Y-111911774D01*
X165001205Y-111742256D01*
X165079226Y-111553898D01*
X165114413Y-111377000D01*
X166085326Y-111377000D01*
X166005330Y-111570128D01*
X165940000Y-111898565D01*
X165940000Y-112233435D01*
X166005330Y-112561872D01*
X166133479Y-112871252D01*
X166319523Y-113149687D01*
X166556313Y-113386477D01*
X166834748Y-113572521D01*
X167144128Y-113700670D01*
X167472565Y-113766000D01*
X167807435Y-113766000D01*
X168135872Y-113700670D01*
X168445252Y-113572521D01*
X168723687Y-113386477D01*
X168960477Y-113149687D01*
X169146521Y-112871252D01*
X169274670Y-112561872D01*
X169340000Y-112233435D01*
X169340000Y-111898565D01*
X176100000Y-111898565D01*
X176100000Y-112233435D01*
X176165330Y-112561872D01*
X176293479Y-112871252D01*
X176479523Y-113149687D01*
X176716313Y-113386477D01*
X176994748Y-113572521D01*
X177304128Y-113700670D01*
X177632565Y-113766000D01*
X177967435Y-113766000D01*
X178295872Y-113700670D01*
X178605252Y-113572521D01*
X178883687Y-113386477D01*
X179120477Y-113149687D01*
X179306521Y-112871252D01*
X179434670Y-112561872D01*
X179500000Y-112233435D01*
X179500000Y-111898565D01*
X179434670Y-111570128D01*
X179306521Y-111260748D01*
X179120477Y-110982313D01*
X178883687Y-110745523D01*
X178605252Y-110559479D01*
X178504860Y-110517895D01*
X178765000Y-110519072D01*
X178889482Y-110506812D01*
X179009180Y-110470502D01*
X179119494Y-110411537D01*
X179216185Y-110332185D01*
X179295537Y-110235494D01*
X179354502Y-110125180D01*
X179390812Y-110005482D01*
X179403072Y-109881000D01*
X179400000Y-109251750D01*
X179241250Y-109093000D01*
X177927000Y-109093000D01*
X177927000Y-109113000D01*
X177673000Y-109113000D01*
X177673000Y-109093000D01*
X176358750Y-109093000D01*
X176200000Y-109251750D01*
X176196928Y-109881000D01*
X176209188Y-110005482D01*
X176245498Y-110125180D01*
X176304463Y-110235494D01*
X176383815Y-110332185D01*
X176480506Y-110411537D01*
X176590820Y-110470502D01*
X176710518Y-110506812D01*
X176835000Y-110519072D01*
X177095140Y-110517895D01*
X176994748Y-110559479D01*
X176716313Y-110745523D01*
X176479523Y-110982313D01*
X176293479Y-111260748D01*
X176165330Y-111570128D01*
X176100000Y-111898565D01*
X169340000Y-111898565D01*
X169274670Y-111570128D01*
X169194674Y-111377000D01*
X170142678Y-111377000D01*
X170180000Y-111380676D01*
X170217322Y-111377000D01*
X170217333Y-111377000D01*
X170328986Y-111366003D01*
X170472247Y-111322546D01*
X170604276Y-111251974D01*
X170720001Y-111157001D01*
X170743804Y-111127997D01*
X173820801Y-108051000D01*
X176196928Y-108051000D01*
X176200000Y-108680250D01*
X176358750Y-108839000D01*
X177673000Y-108839000D01*
X177673000Y-107574750D01*
X177927000Y-107574750D01*
X177927000Y-108839000D01*
X179241250Y-108839000D01*
X179400000Y-108680250D01*
X179403072Y-108051000D01*
X179390812Y-107926518D01*
X179354502Y-107806820D01*
X179295537Y-107696506D01*
X179216185Y-107599815D01*
X179119494Y-107520463D01*
X179009180Y-107461498D01*
X178889482Y-107425188D01*
X178765000Y-107412928D01*
X178085750Y-107416000D01*
X177927000Y-107574750D01*
X177673000Y-107574750D01*
X177514250Y-107416000D01*
X176835000Y-107412928D01*
X176710518Y-107425188D01*
X176590820Y-107461498D01*
X176480506Y-107520463D01*
X176383815Y-107599815D01*
X176304463Y-107696506D01*
X176245498Y-107806820D01*
X176209188Y-107926518D01*
X176196928Y-108051000D01*
X173820801Y-108051000D01*
X176100000Y-105771801D01*
X176100000Y-105801435D01*
X176165330Y-106129872D01*
X176293479Y-106439252D01*
X176479523Y-106717687D01*
X176716313Y-106954477D01*
X176994748Y-107140521D01*
X177304128Y-107268670D01*
X177632565Y-107334000D01*
X177967435Y-107334000D01*
X178295872Y-107268670D01*
X178605252Y-107140521D01*
X178883687Y-106954477D01*
X179120477Y-106717687D01*
X179306521Y-106439252D01*
X179434670Y-106129872D01*
X179500000Y-105801435D01*
X179500000Y-105466565D01*
X179434670Y-105138128D01*
X179306521Y-104828748D01*
X179120477Y-104550313D01*
X178883687Y-104313523D01*
X178605252Y-104127479D01*
X178295872Y-103999330D01*
X177967435Y-103934000D01*
X177937802Y-103934000D01*
X181703004Y-100168798D01*
X181732002Y-100145000D01*
X181826975Y-100029275D01*
X181897547Y-99897246D01*
X181941004Y-99753985D01*
X181952001Y-99642332D01*
X181952001Y-99642323D01*
X181955677Y-99605000D01*
X181952001Y-99567677D01*
X181952001Y-85598324D01*
X181955677Y-85561001D01*
X181952001Y-85523678D01*
X181952001Y-85523668D01*
X181941004Y-85412015D01*
X181897547Y-85268754D01*
X181826975Y-85136725D01*
X181732002Y-85021000D01*
X181703005Y-84997203D01*
X176572501Y-79866700D01*
X176572501Y-79626207D01*
X176682061Y-79648000D01*
X176885939Y-79648000D01*
X177085898Y-79608226D01*
X177274256Y-79530205D01*
X177443774Y-79416937D01*
X177587937Y-79272774D01*
X177701205Y-79103256D01*
X177779226Y-78914898D01*
X177819000Y-78714939D01*
X177819000Y-78652801D01*
X179454003Y-77017799D01*
X179483001Y-76994001D01*
X179532411Y-76933795D01*
X179577974Y-76878277D01*
X179648546Y-76746247D01*
X179671749Y-76669754D01*
X179692003Y-76602986D01*
X179703000Y-76491333D01*
X179703000Y-76491324D01*
X179706676Y-76454001D01*
X179703000Y-76416678D01*
X179703000Y-73150000D01*
X181160289Y-73150000D01*
X181204226Y-73193937D01*
%TA.AperFunction,Conductor*%
D24*
G36*
X181204226Y-73193937D02*
G01*
X181373744Y-73307205D01*
X181562102Y-73385226D01*
X181762061Y-73425000D01*
X181965939Y-73425000D01*
X182165898Y-73385226D01*
X182220001Y-73362816D01*
X182220000Y-151740000D01*
X153060000Y-151740000D01*
X153060000Y-149662565D01*
X155780000Y-149662565D01*
X155780000Y-149997435D01*
X155845330Y-150325872D01*
X155973479Y-150635252D01*
X156159523Y-150913687D01*
X156396313Y-151150477D01*
X156674748Y-151336521D01*
X156984128Y-151464670D01*
X157312565Y-151530000D01*
X157647435Y-151530000D01*
X157975872Y-151464670D01*
X158285252Y-151336521D01*
X158563687Y-151150477D01*
X158800477Y-150913687D01*
X158986521Y-150635252D01*
X159114670Y-150325872D01*
X159180000Y-149997435D01*
X159180000Y-149662565D01*
X165940000Y-149662565D01*
X165940000Y-149997435D01*
X166005330Y-150325872D01*
X166133479Y-150635252D01*
X166319523Y-150913687D01*
X166556313Y-151150477D01*
X166834748Y-151336521D01*
X167144128Y-151464670D01*
X167472565Y-151530000D01*
X167807435Y-151530000D01*
X168135872Y-151464670D01*
X168445252Y-151336521D01*
X168723687Y-151150477D01*
X168960477Y-150913687D01*
X169146521Y-150635252D01*
X169274670Y-150325872D01*
X169340000Y-149997435D01*
X169340000Y-149662565D01*
X176100000Y-149662565D01*
X176100000Y-149997435D01*
X176165330Y-150325872D01*
X176293479Y-150635252D01*
X176479523Y-150913687D01*
X176716313Y-151150477D01*
X176994748Y-151336521D01*
X177304128Y-151464670D01*
X177632565Y-151530000D01*
X177967435Y-151530000D01*
X178295872Y-151464670D01*
X178605252Y-151336521D01*
X178883687Y-151150477D01*
X179120477Y-150913687D01*
X179306521Y-150635252D01*
X179434670Y-150325872D01*
X179500000Y-149997435D01*
X179500000Y-149662565D01*
X179434670Y-149334128D01*
X179306521Y-149024748D01*
X179120477Y-148746313D01*
X178883687Y-148509523D01*
X178605252Y-148323479D01*
X178295872Y-148195330D01*
X177967435Y-148130000D01*
X177632565Y-148130000D01*
X177304128Y-148195330D01*
X176994748Y-148323479D01*
X176716313Y-148509523D01*
X176479523Y-148746313D01*
X176293479Y-149024748D01*
X176165330Y-149334128D01*
X176100000Y-149662565D01*
X169340000Y-149662565D01*
X169274670Y-149334128D01*
X169146521Y-149024748D01*
X168960477Y-148746313D01*
X168723687Y-148509523D01*
X168445252Y-148323479D01*
X168135872Y-148195330D01*
X167807435Y-148130000D01*
X167472565Y-148130000D01*
X167144128Y-148195330D01*
X166834748Y-148323479D01*
X166556313Y-148509523D01*
X166319523Y-148746313D01*
X166133479Y-149024748D01*
X166005330Y-149334128D01*
X165940000Y-149662565D01*
X159180000Y-149662565D01*
X159114670Y-149334128D01*
X158986521Y-149024748D01*
X158800477Y-148746313D01*
X158563687Y-148509523D01*
X158285252Y-148323479D01*
X157975872Y-148195330D01*
X157647435Y-148130000D01*
X157312565Y-148130000D01*
X156984128Y-148195330D01*
X156674748Y-148323479D01*
X156396313Y-148509523D01*
X156159523Y-148746313D01*
X155973479Y-149024748D01*
X155845330Y-149334128D01*
X155780000Y-149662565D01*
X153060000Y-149662565D01*
X153060000Y-145250000D01*
X158708928Y-145250000D01*
X158708928Y-146850000D01*
X158721188Y-146974482D01*
X158757498Y-147094180D01*
X158816463Y-147204494D01*
X158895815Y-147301185D01*
X158992506Y-147380537D01*
X159102820Y-147439502D01*
X159222518Y-147475812D01*
X159347000Y-147488072D01*
X160947000Y-147488072D01*
X161071482Y-147475812D01*
X161191180Y-147439502D01*
X161301494Y-147380537D01*
X161398185Y-147301185D01*
X161477537Y-147204494D01*
X161536502Y-147094180D01*
X161572812Y-146974482D01*
X161585072Y-146850000D01*
X161585072Y-145250000D01*
X161572812Y-145125518D01*
X161536502Y-145005820D01*
X161477537Y-144895506D01*
X161398185Y-144798815D01*
X161301494Y-144719463D01*
X161191180Y-144660498D01*
X161071482Y-144624188D01*
X160947000Y-144611928D01*
X159347000Y-144611928D01*
X159222518Y-144624188D01*
X159102820Y-144660498D01*
X158992506Y-144719463D01*
X158895815Y-144798815D01*
X158816463Y-144895506D01*
X158757498Y-145005820D01*
X158721188Y-145125518D01*
X158708928Y-145250000D01*
X153060000Y-145250000D01*
X153060000Y-141362565D01*
X155780000Y-141362565D01*
X155780000Y-141697435D01*
X155845330Y-142025872D01*
X155973479Y-142335252D01*
X156159523Y-142613687D01*
X156396313Y-142850477D01*
X156674748Y-143036521D01*
X156984128Y-143164670D01*
X157312565Y-143230000D01*
X157647435Y-143230000D01*
X157975872Y-143164670D01*
X158285252Y-143036521D01*
X158563687Y-142850477D01*
X158800477Y-142613687D01*
X158986521Y-142335252D01*
X159114670Y-142025872D01*
X159180000Y-141697435D01*
X159180000Y-141362565D01*
X165940000Y-141362565D01*
X165940000Y-141697435D01*
X166005330Y-142025872D01*
X166133479Y-142335252D01*
X166319523Y-142613687D01*
X166556313Y-142850477D01*
X166834748Y-143036521D01*
X167144128Y-143164670D01*
X167472565Y-143230000D01*
X167807435Y-143230000D01*
X168135872Y-143164670D01*
X168445252Y-143036521D01*
X168723687Y-142850477D01*
X168960477Y-142613687D01*
X169146521Y-142335252D01*
X169274670Y-142025872D01*
X169340000Y-141697435D01*
X169340000Y-141362565D01*
X176100000Y-141362565D01*
X176100000Y-141697435D01*
X176165330Y-142025872D01*
X176293479Y-142335252D01*
X176479523Y-142613687D01*
X176716313Y-142850477D01*
X176994748Y-143036521D01*
X177304128Y-143164670D01*
X177632565Y-143230000D01*
X177967435Y-143230000D01*
X178295872Y-143164670D01*
X178605252Y-143036521D01*
X178883687Y-142850477D01*
X179120477Y-142613687D01*
X179306521Y-142335252D01*
X179434670Y-142025872D01*
X179500000Y-141697435D01*
X179500000Y-141362565D01*
X179434670Y-141034128D01*
X179306521Y-140724748D01*
X179120477Y-140446313D01*
X178883687Y-140209523D01*
X178605252Y-140023479D01*
X178504860Y-139981895D01*
X178765000Y-139983072D01*
X178889482Y-139970812D01*
X179009180Y-139934502D01*
X179119494Y-139875537D01*
X179216185Y-139796185D01*
X179295537Y-139699494D01*
X179354502Y-139589180D01*
X179390812Y-139469482D01*
X179403072Y-139345000D01*
X179400000Y-138715750D01*
X179241250Y-138557000D01*
X177927000Y-138557000D01*
X177927000Y-138577000D01*
X177673000Y-138577000D01*
X177673000Y-138557000D01*
X176358750Y-138557000D01*
X176200000Y-138715750D01*
X176196928Y-139345000D01*
X176209188Y-139469482D01*
X176245498Y-139589180D01*
X176304463Y-139699494D01*
X176383815Y-139796185D01*
X176480506Y-139875537D01*
X176590820Y-139934502D01*
X176710518Y-139970812D01*
X176835000Y-139983072D01*
X177095140Y-139981895D01*
X176994748Y-140023479D01*
X176716313Y-140209523D01*
X176479523Y-140446313D01*
X176293479Y-140724748D01*
X176165330Y-141034128D01*
X176100000Y-141362565D01*
X169340000Y-141362565D01*
X169274670Y-141034128D01*
X169146521Y-140724748D01*
X168960477Y-140446313D01*
X168723687Y-140209523D01*
X168445252Y-140023479D01*
X168344860Y-139981895D01*
X168605000Y-139983072D01*
X168729482Y-139970812D01*
X168849180Y-139934502D01*
X168959494Y-139875537D01*
X169056185Y-139796185D01*
X169135537Y-139699494D01*
X169194502Y-139589180D01*
X169230812Y-139469482D01*
X169243072Y-139345000D01*
X169240000Y-138715750D01*
X169081250Y-138557000D01*
X167767000Y-138557000D01*
X167767000Y-138577000D01*
X167513000Y-138577000D01*
X167513000Y-138557000D01*
X166198750Y-138557000D01*
X166040000Y-138715750D01*
X166036928Y-139345000D01*
X166049188Y-139469482D01*
X166085498Y-139589180D01*
X166144463Y-139699494D01*
X166223815Y-139796185D01*
X166320506Y-139875537D01*
X166430820Y-139934502D01*
X166550518Y-139970812D01*
X166675000Y-139983072D01*
X166935140Y-139981895D01*
X166834748Y-140023479D01*
X166556313Y-140209523D01*
X166319523Y-140446313D01*
X166133479Y-140724748D01*
X166005330Y-141034128D01*
X165940000Y-141362565D01*
X159180000Y-141362565D01*
X159114670Y-141034128D01*
X158986521Y-140724748D01*
X158800477Y-140446313D01*
X158563687Y-140209523D01*
X158285252Y-140023479D01*
X158184860Y-139981895D01*
X158445000Y-139983072D01*
X158569482Y-139970812D01*
X158689180Y-139934502D01*
X158799494Y-139875537D01*
X158896185Y-139796185D01*
X158975537Y-139699494D01*
X159034502Y-139589180D01*
X159070812Y-139469482D01*
X159079725Y-139378986D01*
X159183586Y-139493519D01*
X159409580Y-139661037D01*
X159663913Y-139781246D01*
X159797961Y-139821904D01*
X160020000Y-139699915D01*
X160020000Y-138557000D01*
X160274000Y-138557000D01*
X160274000Y-139699915D01*
X160496039Y-139821904D01*
X160630087Y-139781246D01*
X160884420Y-139661037D01*
X161110414Y-139493519D01*
X161299385Y-139285131D01*
X161444070Y-139043881D01*
X161538909Y-138779040D01*
X161417624Y-138557000D01*
X160274000Y-138557000D01*
X160020000Y-138557000D01*
X157607000Y-138557000D01*
X157607000Y-138577000D01*
X157353000Y-138577000D01*
X157353000Y-138557000D01*
X156038750Y-138557000D01*
X155880000Y-138715750D01*
X155876928Y-139345000D01*
X155889188Y-139469482D01*
X155925498Y-139589180D01*
X155984463Y-139699494D01*
X156063815Y-139796185D01*
X156160506Y-139875537D01*
X156270820Y-139934502D01*
X156390518Y-139970812D01*
X156515000Y-139983072D01*
X156775140Y-139981895D01*
X156674748Y-140023479D01*
X156396313Y-140209523D01*
X156159523Y-140446313D01*
X155973479Y-140724748D01*
X155845330Y-141034128D01*
X155780000Y-141362565D01*
X153060000Y-141362565D01*
X153060000Y-140164816D01*
X153114102Y-140187226D01*
X153314061Y-140227000D01*
X153517939Y-140227000D01*
X153717898Y-140187226D01*
X153906256Y-140109205D01*
X154075774Y-139995937D01*
X154219937Y-139851774D01*
X154333205Y-139682256D01*
X154411226Y-139493898D01*
X154451000Y-139293939D01*
X154451000Y-139090061D01*
X154411226Y-138890102D01*
X154333205Y-138701744D01*
X154219937Y-138532226D01*
X154176000Y-138488289D01*
X154176000Y-137515000D01*
X155876928Y-137515000D01*
X155880000Y-138144250D01*
X156038750Y-138303000D01*
X157353000Y-138303000D01*
X157353000Y-137038750D01*
X157607000Y-137038750D01*
X157607000Y-138303000D01*
X160020000Y-138303000D01*
X160020000Y-137160085D01*
X160274000Y-137160085D01*
X160274000Y-138303000D01*
X161417624Y-138303000D01*
X161538909Y-138080960D01*
X161444070Y-137816119D01*
X161299385Y-137574869D01*
X161245095Y-137515000D01*
X166036928Y-137515000D01*
X166040000Y-138144250D01*
X166198750Y-138303000D01*
X167513000Y-138303000D01*
X167513000Y-137038750D01*
X167767000Y-137038750D01*
X167767000Y-138303000D01*
X169081250Y-138303000D01*
X169240000Y-138144250D01*
X169243072Y-137515000D01*
X176196928Y-137515000D01*
X176200000Y-138144250D01*
X176358750Y-138303000D01*
X177673000Y-138303000D01*
X177673000Y-137038750D01*
X177927000Y-137038750D01*
X177927000Y-138303000D01*
X179241250Y-138303000D01*
X179400000Y-138144250D01*
X179403072Y-137515000D01*
X179390812Y-137390518D01*
X179354502Y-137270820D01*
X179295537Y-137160506D01*
X179216185Y-137063815D01*
X179119494Y-136984463D01*
X179009180Y-136925498D01*
X178889482Y-136889188D01*
X178765000Y-136876928D01*
X178085750Y-136880000D01*
X177927000Y-137038750D01*
X177673000Y-137038750D01*
X177514250Y-136880000D01*
X176835000Y-136876928D01*
X176710518Y-136889188D01*
X176590820Y-136925498D01*
X176480506Y-136984463D01*
X176383815Y-137063815D01*
X176304463Y-137160506D01*
X176245498Y-137270820D01*
X176209188Y-137390518D01*
X176196928Y-137515000D01*
X169243072Y-137515000D01*
X169230812Y-137390518D01*
X169194502Y-137270820D01*
X169135537Y-137160506D01*
X169056185Y-137063815D01*
X168959494Y-136984463D01*
X168849180Y-136925498D01*
X168729482Y-136889188D01*
X168605000Y-136876928D01*
X167925750Y-136880000D01*
X167767000Y-137038750D01*
X167513000Y-137038750D01*
X167354250Y-136880000D01*
X166675000Y-136876928D01*
X166550518Y-136889188D01*
X166430820Y-136925498D01*
X166320506Y-136984463D01*
X166223815Y-137063815D01*
X166144463Y-137160506D01*
X166085498Y-137270820D01*
X166049188Y-137390518D01*
X166036928Y-137515000D01*
X161245095Y-137515000D01*
X161110414Y-137366481D01*
X160884420Y-137198963D01*
X160630087Y-137078754D01*
X160496039Y-137038096D01*
X160274000Y-137160085D01*
X160020000Y-137160085D01*
X159797961Y-137038096D01*
X159663913Y-137078754D01*
X159409580Y-137198963D01*
X159183586Y-137366481D01*
X159079725Y-137481014D01*
X159070812Y-137390518D01*
X159034502Y-137270820D01*
X158975537Y-137160506D01*
X158896185Y-137063815D01*
X158799494Y-136984463D01*
X158689180Y-136925498D01*
X158569482Y-136889188D01*
X158445000Y-136876928D01*
X157765750Y-136880000D01*
X157607000Y-137038750D01*
X157353000Y-137038750D01*
X157194250Y-136880000D01*
X156515000Y-136876928D01*
X156390518Y-136889188D01*
X156270820Y-136925498D01*
X156160506Y-136984463D01*
X156063815Y-137063815D01*
X155984463Y-137160506D01*
X155925498Y-137270820D01*
X155889188Y-137390518D01*
X155876928Y-137515000D01*
X154176000Y-137515000D01*
X154176000Y-134960565D01*
X155780000Y-134960565D01*
X155780000Y-135295435D01*
X155845330Y-135623872D01*
X155973479Y-135933252D01*
X156159523Y-136211687D01*
X156396313Y-136448477D01*
X156674748Y-136634521D01*
X156984128Y-136762670D01*
X157312565Y-136828000D01*
X157647435Y-136828000D01*
X157975872Y-136762670D01*
X158285252Y-136634521D01*
X158563687Y-136448477D01*
X158800477Y-136211687D01*
X158986521Y-135933252D01*
X159114670Y-135623872D01*
X159180000Y-135295435D01*
X159180000Y-134960565D01*
X165940000Y-134960565D01*
X165940000Y-135295435D01*
X166005330Y-135623872D01*
X166133479Y-135933252D01*
X166319523Y-136211687D01*
X166556313Y-136448477D01*
X166834748Y-136634521D01*
X167144128Y-136762670D01*
X167472565Y-136828000D01*
X167807435Y-136828000D01*
X168135872Y-136762670D01*
X168445252Y-136634521D01*
X168723687Y-136448477D01*
X168960477Y-136211687D01*
X169146521Y-135933252D01*
X169274670Y-135623872D01*
X169340000Y-135295435D01*
X169340000Y-134960565D01*
X169334033Y-134930565D01*
X176100000Y-134930565D01*
X176100000Y-135265435D01*
X176165330Y-135593872D01*
X176293479Y-135903252D01*
X176479523Y-136181687D01*
X176716313Y-136418477D01*
X176994748Y-136604521D01*
X177304128Y-136732670D01*
X177632565Y-136798000D01*
X177967435Y-136798000D01*
X178295872Y-136732670D01*
X178605252Y-136604521D01*
X178883687Y-136418477D01*
X179120477Y-136181687D01*
X179306521Y-135903252D01*
X179434670Y-135593872D01*
X179500000Y-135265435D01*
X179500000Y-134930565D01*
X179434670Y-134602128D01*
X179306521Y-134292748D01*
X179120477Y-134014313D01*
X178883687Y-133777523D01*
X178605252Y-133591479D01*
X178295872Y-133463330D01*
X177967435Y-133398000D01*
X177632565Y-133398000D01*
X177304128Y-133463330D01*
X176994748Y-133591479D01*
X176716313Y-133777523D01*
X176479523Y-134014313D01*
X176293479Y-134292748D01*
X176165330Y-134602128D01*
X176100000Y-134930565D01*
X169334033Y-134930565D01*
X169274670Y-134632128D01*
X169146521Y-134322748D01*
X168960477Y-134044313D01*
X168723687Y-133807523D01*
X168445252Y-133621479D01*
X168135872Y-133493330D01*
X167807435Y-133428000D01*
X167472565Y-133428000D01*
X167144128Y-133493330D01*
X166834748Y-133621479D01*
X166556313Y-133807523D01*
X166319523Y-134044313D01*
X166133479Y-134322748D01*
X166005330Y-134632128D01*
X165940000Y-134960565D01*
X159180000Y-134960565D01*
X159114670Y-134632128D01*
X158986521Y-134322748D01*
X158800477Y-134044313D01*
X158563687Y-133807523D01*
X158285252Y-133621479D01*
X157975872Y-133493330D01*
X157647435Y-133428000D01*
X157312565Y-133428000D01*
X156984128Y-133493330D01*
X156674748Y-133621479D01*
X156396313Y-133807523D01*
X156159523Y-134044313D01*
X155973479Y-134322748D01*
X155845330Y-134632128D01*
X155780000Y-134960565D01*
X154176000Y-134960565D01*
X154176000Y-130518000D01*
X158835928Y-130518000D01*
X158835928Y-132118000D01*
X158848188Y-132242482D01*
X158884498Y-132362180D01*
X158943463Y-132472494D01*
X159022815Y-132569185D01*
X159119506Y-132648537D01*
X159229820Y-132707502D01*
X159349518Y-132743812D01*
X159474000Y-132756072D01*
X161074000Y-132756072D01*
X161198482Y-132743812D01*
X161318180Y-132707502D01*
X161428494Y-132648537D01*
X161525185Y-132569185D01*
X161604537Y-132472494D01*
X161663502Y-132362180D01*
X161699812Y-132242482D01*
X161712072Y-132118000D01*
X161712072Y-130518000D01*
X161699812Y-130393518D01*
X161663502Y-130273820D01*
X161604537Y-130163506D01*
X161525185Y-130066815D01*
X161428494Y-129987463D01*
X161318180Y-129928498D01*
X161198482Y-129892188D01*
X161074000Y-129879928D01*
X159474000Y-129879928D01*
X159349518Y-129892188D01*
X159229820Y-129928498D01*
X159119506Y-129987463D01*
X159022815Y-130066815D01*
X158943463Y-130163506D01*
X158884498Y-130273820D01*
X158848188Y-130393518D01*
X158835928Y-130518000D01*
X154176000Y-130518000D01*
X154176000Y-126660565D01*
X155780000Y-126660565D01*
X155780000Y-126995435D01*
X155845330Y-127323872D01*
X155973479Y-127633252D01*
X156159523Y-127911687D01*
X156396313Y-128148477D01*
X156674748Y-128334521D01*
X156984128Y-128462670D01*
X157312565Y-128528000D01*
X157647435Y-128528000D01*
X157975872Y-128462670D01*
X158285252Y-128334521D01*
X158563687Y-128148477D01*
X158800477Y-127911687D01*
X158986521Y-127633252D01*
X159114670Y-127323872D01*
X159180000Y-126995435D01*
X159180000Y-126660565D01*
X165940000Y-126660565D01*
X165940000Y-126995435D01*
X166005330Y-127323872D01*
X166133479Y-127633252D01*
X166319523Y-127911687D01*
X166556313Y-128148477D01*
X166834748Y-128334521D01*
X167144128Y-128462670D01*
X167472565Y-128528000D01*
X167807435Y-128528000D01*
X168135872Y-128462670D01*
X168445252Y-128334521D01*
X168723687Y-128148477D01*
X168960477Y-127911687D01*
X169146521Y-127633252D01*
X169274670Y-127323872D01*
X169340000Y-126995435D01*
X169340000Y-126660565D01*
X169334033Y-126630565D01*
X176100000Y-126630565D01*
X176100000Y-126965435D01*
X176165330Y-127293872D01*
X176293479Y-127603252D01*
X176479523Y-127881687D01*
X176716313Y-128118477D01*
X176994748Y-128304521D01*
X177304128Y-128432670D01*
X177632565Y-128498000D01*
X177967435Y-128498000D01*
X178295872Y-128432670D01*
X178605252Y-128304521D01*
X178883687Y-128118477D01*
X179120477Y-127881687D01*
X179306521Y-127603252D01*
X179434670Y-127293872D01*
X179500000Y-126965435D01*
X179500000Y-126630565D01*
X179434670Y-126302128D01*
X179306521Y-125992748D01*
X179120477Y-125714313D01*
X178883687Y-125477523D01*
X178605252Y-125291479D01*
X178504860Y-125249895D01*
X178765000Y-125251072D01*
X178889482Y-125238812D01*
X179009180Y-125202502D01*
X179119494Y-125143537D01*
X179216185Y-125064185D01*
X179295537Y-124967494D01*
X179354502Y-124857180D01*
X179390812Y-124737482D01*
X179403072Y-124613000D01*
X179400000Y-123983750D01*
X179241250Y-123825000D01*
X177927000Y-123825000D01*
X177927000Y-123845000D01*
X177673000Y-123845000D01*
X177673000Y-123825000D01*
X176358750Y-123825000D01*
X176200000Y-123983750D01*
X176196928Y-124613000D01*
X176209188Y-124737482D01*
X176245498Y-124857180D01*
X176304463Y-124967494D01*
X176383815Y-125064185D01*
X176480506Y-125143537D01*
X176590820Y-125202502D01*
X176710518Y-125238812D01*
X176835000Y-125251072D01*
X177095140Y-125249895D01*
X176994748Y-125291479D01*
X176716313Y-125477523D01*
X176479523Y-125714313D01*
X176293479Y-125992748D01*
X176165330Y-126302128D01*
X176100000Y-126630565D01*
X169334033Y-126630565D01*
X169274670Y-126332128D01*
X169146521Y-126022748D01*
X168960477Y-125744313D01*
X168723687Y-125507523D01*
X168445252Y-125321479D01*
X168344860Y-125279895D01*
X168605000Y-125281072D01*
X168729482Y-125268812D01*
X168849180Y-125232502D01*
X168959494Y-125173537D01*
X169056185Y-125094185D01*
X169135537Y-124997494D01*
X169194502Y-124887180D01*
X169230812Y-124767482D01*
X169243072Y-124643000D01*
X169240000Y-124013750D01*
X169081250Y-123855000D01*
X167767000Y-123855000D01*
X167767000Y-123875000D01*
X167513000Y-123875000D01*
X167513000Y-123855000D01*
X166198750Y-123855000D01*
X166040000Y-124013750D01*
X166036928Y-124643000D01*
X166049188Y-124767482D01*
X166085498Y-124887180D01*
X166144463Y-124997494D01*
X166223815Y-125094185D01*
X166320506Y-125173537D01*
X166430820Y-125232502D01*
X166550518Y-125268812D01*
X166675000Y-125281072D01*
X166935140Y-125279895D01*
X166834748Y-125321479D01*
X166556313Y-125507523D01*
X166319523Y-125744313D01*
X166133479Y-126022748D01*
X166005330Y-126332128D01*
X165940000Y-126660565D01*
X159180000Y-126660565D01*
X159114670Y-126332128D01*
X158986521Y-126022748D01*
X158800477Y-125744313D01*
X158563687Y-125507523D01*
X158285252Y-125321479D01*
X158184860Y-125279895D01*
X158445000Y-125281072D01*
X158569482Y-125268812D01*
X158689180Y-125232502D01*
X158799494Y-125173537D01*
X158896185Y-125094185D01*
X158975537Y-124997494D01*
X159034502Y-124887180D01*
X159070812Y-124767482D01*
X159083072Y-124643000D01*
X159082313Y-124487599D01*
X159121615Y-124553131D01*
X159310586Y-124761519D01*
X159536580Y-124929037D01*
X159790913Y-125049246D01*
X159924961Y-125089904D01*
X160147000Y-124967915D01*
X160147000Y-123825000D01*
X160401000Y-123825000D01*
X160401000Y-124967915D01*
X160623039Y-125089904D01*
X160757087Y-125049246D01*
X161011420Y-124929037D01*
X161237414Y-124761519D01*
X161426385Y-124553131D01*
X161571070Y-124311881D01*
X161665909Y-124047040D01*
X161544624Y-123825000D01*
X160401000Y-123825000D01*
X160147000Y-123825000D01*
X159003376Y-123825000D01*
X158963766Y-123897516D01*
X158921250Y-123855000D01*
X157607000Y-123855000D01*
X157607000Y-123875000D01*
X157353000Y-123875000D01*
X157353000Y-123855000D01*
X156038750Y-123855000D01*
X155880000Y-124013750D01*
X155876928Y-124643000D01*
X155889188Y-124767482D01*
X155925498Y-124887180D01*
X155984463Y-124997494D01*
X156063815Y-125094185D01*
X156160506Y-125173537D01*
X156270820Y-125232502D01*
X156390518Y-125268812D01*
X156515000Y-125281072D01*
X156775140Y-125279895D01*
X156674748Y-125321479D01*
X156396313Y-125507523D01*
X156159523Y-125744313D01*
X155973479Y-126022748D01*
X155845330Y-126332128D01*
X155780000Y-126660565D01*
X154176000Y-126660565D01*
X154176000Y-124274711D01*
X154219937Y-124230774D01*
X154333205Y-124061256D01*
X154411226Y-123872898D01*
X154451000Y-123672939D01*
X154451000Y-123469061D01*
X154411226Y-123269102D01*
X154333205Y-123080744D01*
X154219937Y-122911226D01*
X154176000Y-122867289D01*
X154176000Y-122813000D01*
X155876928Y-122813000D01*
X155880000Y-123442250D01*
X156038750Y-123601000D01*
X157353000Y-123601000D01*
X157353000Y-122336750D01*
X157607000Y-122336750D01*
X157607000Y-123601000D01*
X158921250Y-123601000D01*
X158984962Y-123537288D01*
X159003376Y-123571000D01*
X160147000Y-123571000D01*
X160147000Y-122428085D01*
X160401000Y-122428085D01*
X160401000Y-123571000D01*
X161544624Y-123571000D01*
X161665909Y-123348960D01*
X161571070Y-123084119D01*
X161426385Y-122842869D01*
X161399300Y-122813000D01*
X166036928Y-122813000D01*
X166040000Y-123442250D01*
X166198750Y-123601000D01*
X167513000Y-123601000D01*
X167513000Y-122336750D01*
X167767000Y-122336750D01*
X167767000Y-123601000D01*
X169081250Y-123601000D01*
X169240000Y-123442250D01*
X169243072Y-122813000D01*
X169240118Y-122783000D01*
X176196928Y-122783000D01*
X176200000Y-123412250D01*
X176358750Y-123571000D01*
X177673000Y-123571000D01*
X177673000Y-122306750D01*
X177927000Y-122306750D01*
X177927000Y-123571000D01*
X179241250Y-123571000D01*
X179400000Y-123412250D01*
X179403072Y-122783000D01*
X179390812Y-122658518D01*
X179354502Y-122538820D01*
X179295537Y-122428506D01*
X179216185Y-122331815D01*
X179119494Y-122252463D01*
X179009180Y-122193498D01*
X178889482Y-122157188D01*
X178765000Y-122144928D01*
X178085750Y-122148000D01*
X177927000Y-122306750D01*
X177673000Y-122306750D01*
X177514250Y-122148000D01*
X176835000Y-122144928D01*
X176710518Y-122157188D01*
X176590820Y-122193498D01*
X176480506Y-122252463D01*
X176383815Y-122331815D01*
X176304463Y-122428506D01*
X176245498Y-122538820D01*
X176209188Y-122658518D01*
X176196928Y-122783000D01*
X169240118Y-122783000D01*
X169230812Y-122688518D01*
X169194502Y-122568820D01*
X169135537Y-122458506D01*
X169056185Y-122361815D01*
X168959494Y-122282463D01*
X168849180Y-122223498D01*
X168729482Y-122187188D01*
X168605000Y-122174928D01*
X167925750Y-122178000D01*
X167767000Y-122336750D01*
X167513000Y-122336750D01*
X167354250Y-122178000D01*
X166675000Y-122174928D01*
X166550518Y-122187188D01*
X166430820Y-122223498D01*
X166320506Y-122282463D01*
X166223815Y-122361815D01*
X166144463Y-122458506D01*
X166085498Y-122568820D01*
X166049188Y-122688518D01*
X166036928Y-122813000D01*
X161399300Y-122813000D01*
X161237414Y-122634481D01*
X161011420Y-122466963D01*
X160757087Y-122346754D01*
X160623039Y-122306096D01*
X160401000Y-122428085D01*
X160147000Y-122428085D01*
X159924961Y-122306096D01*
X159790913Y-122346754D01*
X159536580Y-122466963D01*
X159310586Y-122634481D01*
X159121615Y-122842869D01*
X159082609Y-122907909D01*
X159083072Y-122813000D01*
X159070812Y-122688518D01*
X159034502Y-122568820D01*
X158975537Y-122458506D01*
X158896185Y-122361815D01*
X158799494Y-122282463D01*
X158689180Y-122223498D01*
X158569482Y-122187188D01*
X158445000Y-122174928D01*
X157765750Y-122178000D01*
X157607000Y-122336750D01*
X157353000Y-122336750D01*
X157194250Y-122178000D01*
X156515000Y-122174928D01*
X156390518Y-122187188D01*
X156270820Y-122223498D01*
X156160506Y-122282463D01*
X156063815Y-122361815D01*
X155984463Y-122458506D01*
X155925498Y-122568820D01*
X155889188Y-122688518D01*
X155876928Y-122813000D01*
X154176000Y-122813000D01*
X154176000Y-120198565D01*
X155780000Y-120198565D01*
X155780000Y-120533435D01*
X155845330Y-120861872D01*
X155973479Y-121171252D01*
X156159523Y-121449687D01*
X156396313Y-121686477D01*
X156674748Y-121872521D01*
X156984128Y-122000670D01*
X157312565Y-122066000D01*
X157647435Y-122066000D01*
X157975872Y-122000670D01*
X158285252Y-121872521D01*
X158563687Y-121686477D01*
X158800477Y-121449687D01*
X158986521Y-121171252D01*
X159114670Y-120861872D01*
X159180000Y-120533435D01*
X159180000Y-120198565D01*
X165940000Y-120198565D01*
X165940000Y-120533435D01*
X166005330Y-120861872D01*
X166133479Y-121171252D01*
X166319523Y-121449687D01*
X166556313Y-121686477D01*
X166834748Y-121872521D01*
X167144128Y-122000670D01*
X167472565Y-122066000D01*
X167807435Y-122066000D01*
X168135872Y-122000670D01*
X168445252Y-121872521D01*
X168723687Y-121686477D01*
X168960477Y-121449687D01*
X169146521Y-121171252D01*
X169274670Y-120861872D01*
X169340000Y-120533435D01*
X169340000Y-120198565D01*
X176100000Y-120198565D01*
X176100000Y-120533435D01*
X176165330Y-120861872D01*
X176293479Y-121171252D01*
X176479523Y-121449687D01*
X176716313Y-121686477D01*
X176994748Y-121872521D01*
X177304128Y-122000670D01*
X177632565Y-122066000D01*
X177967435Y-122066000D01*
X178295872Y-122000670D01*
X178605252Y-121872521D01*
X178883687Y-121686477D01*
X179120477Y-121449687D01*
X179306521Y-121171252D01*
X179434670Y-120861872D01*
X179500000Y-120533435D01*
X179500000Y-120198565D01*
X179434670Y-119870128D01*
X179306521Y-119560748D01*
X179120477Y-119282313D01*
X178883687Y-119045523D01*
X178605252Y-118859479D01*
X178295872Y-118731330D01*
X177967435Y-118666000D01*
X177632565Y-118666000D01*
X177304128Y-118731330D01*
X176994748Y-118859479D01*
X176716313Y-119045523D01*
X176479523Y-119282313D01*
X176293479Y-119560748D01*
X176165330Y-119870128D01*
X176100000Y-120198565D01*
X169340000Y-120198565D01*
X169274670Y-119870128D01*
X169146521Y-119560748D01*
X168960477Y-119282313D01*
X168723687Y-119045523D01*
X168445252Y-118859479D01*
X168135872Y-118731330D01*
X167807435Y-118666000D01*
X167472565Y-118666000D01*
X167144128Y-118731330D01*
X166834748Y-118859479D01*
X166556313Y-119045523D01*
X166319523Y-119282313D01*
X166133479Y-119560748D01*
X166005330Y-119870128D01*
X165940000Y-120198565D01*
X159180000Y-120198565D01*
X159114670Y-119870128D01*
X158986521Y-119560748D01*
X158800477Y-119282313D01*
X158563687Y-119045523D01*
X158285252Y-118859479D01*
X157975872Y-118731330D01*
X157647435Y-118666000D01*
X157312565Y-118666000D01*
X156984128Y-118731330D01*
X156674748Y-118859479D01*
X156396313Y-119045523D01*
X156159523Y-119282313D01*
X155973479Y-119560748D01*
X155845330Y-119870128D01*
X155780000Y-120198565D01*
X154176000Y-120198565D01*
X154176000Y-115786000D01*
X158835928Y-115786000D01*
X158835928Y-117386000D01*
X158848188Y-117510482D01*
X158884498Y-117630180D01*
X158943463Y-117740494D01*
X159022815Y-117837185D01*
X159119506Y-117916537D01*
X159229820Y-117975502D01*
X159349518Y-118011812D01*
X159474000Y-118024072D01*
X161074000Y-118024072D01*
X161198482Y-118011812D01*
X161318180Y-117975502D01*
X161428494Y-117916537D01*
X161525185Y-117837185D01*
X161604537Y-117740494D01*
X161663502Y-117630180D01*
X161699812Y-117510482D01*
X161712072Y-117386000D01*
X161712072Y-115786000D01*
X161699812Y-115661518D01*
X161663502Y-115541820D01*
X161604537Y-115431506D01*
X161525185Y-115334815D01*
X161428494Y-115255463D01*
X161318180Y-115196498D01*
X161198482Y-115160188D01*
X161074000Y-115147928D01*
X159474000Y-115147928D01*
X159349518Y-115160188D01*
X159229820Y-115196498D01*
X159119506Y-115255463D01*
X159022815Y-115334815D01*
X158943463Y-115431506D01*
X158884498Y-115541820D01*
X158848188Y-115661518D01*
X158835928Y-115786000D01*
X154176000Y-115786000D01*
X154176000Y-111898565D01*
X155780000Y-111898565D01*
X155780000Y-112233435D01*
X155845330Y-112561872D01*
X155973479Y-112871252D01*
X156159523Y-113149687D01*
X156396313Y-113386477D01*
X156674748Y-113572521D01*
X156984128Y-113700670D01*
X157312565Y-113766000D01*
X157647435Y-113766000D01*
X157975872Y-113700670D01*
X158285252Y-113572521D01*
X158563687Y-113386477D01*
X158800477Y-113149687D01*
X158986521Y-112871252D01*
X159114670Y-112561872D01*
X159180000Y-112233435D01*
X159180000Y-111898565D01*
X159114670Y-111570128D01*
X158986521Y-111260748D01*
X158800477Y-110982313D01*
X158563687Y-110745523D01*
X158285252Y-110559479D01*
X158184860Y-110517895D01*
X158445000Y-110519072D01*
X158569482Y-110506812D01*
X158689180Y-110470502D01*
X158799494Y-110411537D01*
X158896185Y-110332185D01*
X158975537Y-110235494D01*
X159034502Y-110125180D01*
X159070812Y-110005482D01*
X159083072Y-109881000D01*
X159082461Y-109755845D01*
X159121615Y-109821131D01*
X159310586Y-110029519D01*
X159536580Y-110197037D01*
X159790913Y-110317246D01*
X159924961Y-110357904D01*
X160147000Y-110235915D01*
X160147000Y-109093000D01*
X160401000Y-109093000D01*
X160401000Y-110235915D01*
X160623039Y-110357904D01*
X160757087Y-110317246D01*
X161011420Y-110197037D01*
X161237414Y-110029519D01*
X161426385Y-109821131D01*
X161571070Y-109579881D01*
X161665909Y-109315040D01*
X161544624Y-109093000D01*
X160401000Y-109093000D01*
X160147000Y-109093000D01*
X159003376Y-109093000D01*
X158974364Y-109146114D01*
X158921250Y-109093000D01*
X157607000Y-109093000D01*
X157607000Y-109113000D01*
X157353000Y-109113000D01*
X157353000Y-109093000D01*
X156038750Y-109093000D01*
X155880000Y-109251750D01*
X155876928Y-109881000D01*
X155889188Y-110005482D01*
X155925498Y-110125180D01*
X155984463Y-110235494D01*
X156063815Y-110332185D01*
X156160506Y-110411537D01*
X156270820Y-110470502D01*
X156390518Y-110506812D01*
X156515000Y-110519072D01*
X156775140Y-110517895D01*
X156674748Y-110559479D01*
X156396313Y-110745523D01*
X156159523Y-110982313D01*
X155973479Y-111260748D01*
X155845330Y-111570128D01*
X155780000Y-111898565D01*
X154176000Y-111898565D01*
X154176000Y-109542711D01*
X154219937Y-109498774D01*
X154333205Y-109329256D01*
X154411226Y-109140898D01*
X154451000Y-108940939D01*
X154451000Y-108737061D01*
X154411226Y-108537102D01*
X154333205Y-108348744D01*
X154219937Y-108179226D01*
X154176000Y-108135289D01*
X154176000Y-108051000D01*
X155876928Y-108051000D01*
X155880000Y-108680250D01*
X156038750Y-108839000D01*
X157353000Y-108839000D01*
X157353000Y-107574750D01*
X157607000Y-107574750D01*
X157607000Y-108839000D01*
X158921250Y-108839000D01*
X158974364Y-108785886D01*
X159003376Y-108839000D01*
X160147000Y-108839000D01*
X160147000Y-107696085D01*
X160401000Y-107696085D01*
X160401000Y-108839000D01*
X161544624Y-108839000D01*
X161665909Y-108616960D01*
X161571070Y-108352119D01*
X161426385Y-108110869D01*
X161372095Y-108051000D01*
X166036928Y-108051000D01*
X166040000Y-108680250D01*
X166198750Y-108839000D01*
X167513000Y-108839000D01*
X167513000Y-107574750D01*
X167767000Y-107574750D01*
X167767000Y-108839000D01*
X169081250Y-108839000D01*
X169240000Y-108680250D01*
X169243072Y-108051000D01*
X169230812Y-107926518D01*
X169194502Y-107806820D01*
X169135537Y-107696506D01*
X169056185Y-107599815D01*
X168959494Y-107520463D01*
X168849180Y-107461498D01*
X168729482Y-107425188D01*
X168605000Y-107412928D01*
X167925750Y-107416000D01*
X167767000Y-107574750D01*
X167513000Y-107574750D01*
X167354250Y-107416000D01*
X166675000Y-107412928D01*
X166550518Y-107425188D01*
X166430820Y-107461498D01*
X166320506Y-107520463D01*
X166223815Y-107599815D01*
X166144463Y-107696506D01*
X166085498Y-107806820D01*
X166049188Y-107926518D01*
X166036928Y-108051000D01*
X161372095Y-108051000D01*
X161237414Y-107902481D01*
X161011420Y-107734963D01*
X160757087Y-107614754D01*
X160623039Y-107574096D01*
X160401000Y-107696085D01*
X160147000Y-107696085D01*
X159924961Y-107574096D01*
X159790913Y-107614754D01*
X159536580Y-107734963D01*
X159310586Y-107902481D01*
X159121615Y-108110869D01*
X159082461Y-108176155D01*
X159083072Y-108051000D01*
X159070812Y-107926518D01*
X159034502Y-107806820D01*
X158975537Y-107696506D01*
X158896185Y-107599815D01*
X158799494Y-107520463D01*
X158689180Y-107461498D01*
X158569482Y-107425188D01*
X158445000Y-107412928D01*
X157765750Y-107416000D01*
X157607000Y-107574750D01*
X157353000Y-107574750D01*
X157194250Y-107416000D01*
X156515000Y-107412928D01*
X156390518Y-107425188D01*
X156270820Y-107461498D01*
X156160506Y-107520463D01*
X156063815Y-107599815D01*
X155984463Y-107696506D01*
X155925498Y-107806820D01*
X155889188Y-107926518D01*
X155876928Y-108051000D01*
X154176000Y-108051000D01*
X154176000Y-105466565D01*
X155780000Y-105466565D01*
X155780000Y-105801435D01*
X155845330Y-106129872D01*
X155973479Y-106439252D01*
X156159523Y-106717687D01*
X156396313Y-106954477D01*
X156674748Y-107140521D01*
X156984128Y-107268670D01*
X157312565Y-107334000D01*
X157647435Y-107334000D01*
X157975872Y-107268670D01*
X158285252Y-107140521D01*
X158563687Y-106954477D01*
X158800477Y-106717687D01*
X158986521Y-106439252D01*
X159114670Y-106129872D01*
X159180000Y-105801435D01*
X159180000Y-105466565D01*
X165940000Y-105466565D01*
X165940000Y-105801435D01*
X166005330Y-106129872D01*
X166133479Y-106439252D01*
X166319523Y-106717687D01*
X166556313Y-106954477D01*
X166834748Y-107140521D01*
X167144128Y-107268670D01*
X167472565Y-107334000D01*
X167807435Y-107334000D01*
X168135872Y-107268670D01*
X168445252Y-107140521D01*
X168723687Y-106954477D01*
X168960477Y-106717687D01*
X169146521Y-106439252D01*
X169274670Y-106129872D01*
X169340000Y-105801435D01*
X169340000Y-105466565D01*
X169274670Y-105138128D01*
X169146521Y-104828748D01*
X168960477Y-104550313D01*
X168723687Y-104313523D01*
X168445252Y-104127479D01*
X168135872Y-103999330D01*
X167807435Y-103934000D01*
X167472565Y-103934000D01*
X167144128Y-103999330D01*
X166834748Y-104127479D01*
X166556313Y-104313523D01*
X166319523Y-104550313D01*
X166133479Y-104828748D01*
X166005330Y-105138128D01*
X165940000Y-105466565D01*
X159180000Y-105466565D01*
X159114670Y-105138128D01*
X158986521Y-104828748D01*
X158800477Y-104550313D01*
X158563687Y-104313523D01*
X158285252Y-104127479D01*
X157975872Y-103999330D01*
X157647435Y-103934000D01*
X157312565Y-103934000D01*
X156984128Y-103999330D01*
X156674748Y-104127479D01*
X156396313Y-104313523D01*
X156159523Y-104550313D01*
X155973479Y-104828748D01*
X155845330Y-105138128D01*
X155780000Y-105466565D01*
X154176000Y-105466565D01*
X154176000Y-101054000D01*
X158835928Y-101054000D01*
X158835928Y-102654000D01*
X158848188Y-102778482D01*
X158884498Y-102898180D01*
X158943463Y-103008494D01*
X159022815Y-103105185D01*
X159119506Y-103184537D01*
X159229820Y-103243502D01*
X159349518Y-103279812D01*
X159474000Y-103292072D01*
X161074000Y-103292072D01*
X161198482Y-103279812D01*
X161318180Y-103243502D01*
X161428494Y-103184537D01*
X161525185Y-103105185D01*
X161604537Y-103008494D01*
X161663502Y-102898180D01*
X161699812Y-102778482D01*
X161712072Y-102654000D01*
X161712072Y-101054000D01*
X161699812Y-100929518D01*
X161663502Y-100809820D01*
X161604537Y-100699506D01*
X161525185Y-100602815D01*
X161428494Y-100523463D01*
X161318180Y-100464498D01*
X161198482Y-100428188D01*
X161074000Y-100415928D01*
X159474000Y-100415928D01*
X159349518Y-100428188D01*
X159229820Y-100464498D01*
X159119506Y-100523463D01*
X159022815Y-100602815D01*
X158943463Y-100699506D01*
X158884498Y-100809820D01*
X158848188Y-100929518D01*
X158835928Y-101054000D01*
X154176000Y-101054000D01*
X154176000Y-97166565D01*
X155780000Y-97166565D01*
X155780000Y-97501435D01*
X155845330Y-97829872D01*
X155973479Y-98139252D01*
X156159523Y-98417687D01*
X156396313Y-98654477D01*
X156674748Y-98840521D01*
X156984128Y-98968670D01*
X157312565Y-99034000D01*
X157647435Y-99034000D01*
X157975872Y-98968670D01*
X158285252Y-98840521D01*
X158563687Y-98654477D01*
X158800477Y-98417687D01*
X158986521Y-98139252D01*
X159114670Y-97829872D01*
X159180000Y-97501435D01*
X159180000Y-97166565D01*
X165940000Y-97166565D01*
X165940000Y-97501435D01*
X166005330Y-97829872D01*
X166133479Y-98139252D01*
X166319523Y-98417687D01*
X166556313Y-98654477D01*
X166834748Y-98840521D01*
X167144128Y-98968670D01*
X167472565Y-99034000D01*
X167807435Y-99034000D01*
X168135872Y-98968670D01*
X168445252Y-98840521D01*
X168723687Y-98654477D01*
X168960477Y-98417687D01*
X169146521Y-98139252D01*
X169274670Y-97829872D01*
X169340000Y-97501435D01*
X169340000Y-97166565D01*
X176100000Y-97166565D01*
X176100000Y-97501435D01*
X176165330Y-97829872D01*
X176293479Y-98139252D01*
X176479523Y-98417687D01*
X176716313Y-98654477D01*
X176994748Y-98840521D01*
X177304128Y-98968670D01*
X177632565Y-99034000D01*
X177967435Y-99034000D01*
X178295872Y-98968670D01*
X178605252Y-98840521D01*
X178883687Y-98654477D01*
X179120477Y-98417687D01*
X179306521Y-98139252D01*
X179434670Y-97829872D01*
X179500000Y-97501435D01*
X179500000Y-97166565D01*
X179434670Y-96838128D01*
X179306521Y-96528748D01*
X179120477Y-96250313D01*
X178883687Y-96013523D01*
X178605252Y-95827479D01*
X178504860Y-95785895D01*
X178765000Y-95787072D01*
X178889482Y-95774812D01*
X179009180Y-95738502D01*
X179119494Y-95679537D01*
X179216185Y-95600185D01*
X179295537Y-95503494D01*
X179354502Y-95393180D01*
X179390812Y-95273482D01*
X179403072Y-95149000D01*
X179400000Y-94519750D01*
X179241250Y-94361000D01*
X177927000Y-94361000D01*
X177927000Y-94381000D01*
X177673000Y-94381000D01*
X177673000Y-94361000D01*
X176358750Y-94361000D01*
X176200000Y-94519750D01*
X176196928Y-95149000D01*
X176209188Y-95273482D01*
X176245498Y-95393180D01*
X176304463Y-95503494D01*
X176383815Y-95600185D01*
X176480506Y-95679537D01*
X176590820Y-95738502D01*
X176710518Y-95774812D01*
X176835000Y-95787072D01*
X177095140Y-95785895D01*
X176994748Y-95827479D01*
X176716313Y-96013523D01*
X176479523Y-96250313D01*
X176293479Y-96528748D01*
X176165330Y-96838128D01*
X176100000Y-97166565D01*
X169340000Y-97166565D01*
X169274670Y-96838128D01*
X169146521Y-96528748D01*
X168960477Y-96250313D01*
X168723687Y-96013523D01*
X168445252Y-95827479D01*
X168344860Y-95785895D01*
X168605000Y-95787072D01*
X168729482Y-95774812D01*
X168849180Y-95738502D01*
X168959494Y-95679537D01*
X169056185Y-95600185D01*
X169135537Y-95503494D01*
X169194502Y-95393180D01*
X169230812Y-95273482D01*
X169243072Y-95149000D01*
X169240000Y-94519750D01*
X169081250Y-94361000D01*
X167767000Y-94361000D01*
X167767000Y-94381000D01*
X167513000Y-94381000D01*
X167513000Y-94361000D01*
X166198750Y-94361000D01*
X166040000Y-94519750D01*
X166036928Y-95149000D01*
X166049188Y-95273482D01*
X166085498Y-95393180D01*
X166144463Y-95503494D01*
X166223815Y-95600185D01*
X166320506Y-95679537D01*
X166430820Y-95738502D01*
X166550518Y-95774812D01*
X166675000Y-95787072D01*
X166935140Y-95785895D01*
X166834748Y-95827479D01*
X166556313Y-96013523D01*
X166319523Y-96250313D01*
X166133479Y-96528748D01*
X166005330Y-96838128D01*
X165940000Y-97166565D01*
X159180000Y-97166565D01*
X159114670Y-96838128D01*
X158986521Y-96528748D01*
X158800477Y-96250313D01*
X158563687Y-96013523D01*
X158285252Y-95827479D01*
X158184860Y-95785895D01*
X158445000Y-95787072D01*
X158569482Y-95774812D01*
X158689180Y-95738502D01*
X158799494Y-95679537D01*
X158896185Y-95600185D01*
X158975537Y-95503494D01*
X159034502Y-95393180D01*
X159070812Y-95273482D01*
X159083072Y-95149000D01*
X159082461Y-95023845D01*
X159121615Y-95089131D01*
X159310586Y-95297519D01*
X159536580Y-95465037D01*
X159790913Y-95585246D01*
X159924961Y-95625904D01*
X160147000Y-95503915D01*
X160147000Y-94361000D01*
X160401000Y-94361000D01*
X160401000Y-95503915D01*
X160623039Y-95625904D01*
X160757087Y-95585246D01*
X161011420Y-95465037D01*
X161237414Y-95297519D01*
X161426385Y-95089131D01*
X161571070Y-94847881D01*
X161665909Y-94583040D01*
X161544624Y-94361000D01*
X160401000Y-94361000D01*
X160147000Y-94361000D01*
X159003376Y-94361000D01*
X158974364Y-94414114D01*
X158921250Y-94361000D01*
X157607000Y-94361000D01*
X157607000Y-94381000D01*
X157353000Y-94381000D01*
X157353000Y-94361000D01*
X156038750Y-94361000D01*
X155880000Y-94519750D01*
X155876928Y-95149000D01*
X155889188Y-95273482D01*
X155925498Y-95393180D01*
X155984463Y-95503494D01*
X156063815Y-95600185D01*
X156160506Y-95679537D01*
X156270820Y-95738502D01*
X156390518Y-95774812D01*
X156515000Y-95787072D01*
X156775140Y-95785895D01*
X156674748Y-95827479D01*
X156396313Y-96013523D01*
X156159523Y-96250313D01*
X155973479Y-96528748D01*
X155845330Y-96838128D01*
X155780000Y-97166565D01*
X154176000Y-97166565D01*
X154176000Y-94683711D01*
X154219937Y-94639774D01*
X154333205Y-94470256D01*
X154411226Y-94281898D01*
X154451000Y-94081939D01*
X154451000Y-93878061D01*
X154411226Y-93678102D01*
X154333205Y-93489744D01*
X154219937Y-93320226D01*
X154218711Y-93319000D01*
X155876928Y-93319000D01*
X155880000Y-93948250D01*
X156038750Y-94107000D01*
X157353000Y-94107000D01*
X157353000Y-92842750D01*
X157607000Y-92842750D01*
X157607000Y-94107000D01*
X158921250Y-94107000D01*
X158974364Y-94053886D01*
X159003376Y-94107000D01*
X160147000Y-94107000D01*
X160147000Y-92964085D01*
X160401000Y-92964085D01*
X160401000Y-94107000D01*
X161544624Y-94107000D01*
X161665909Y-93884960D01*
X161571070Y-93620119D01*
X161426385Y-93378869D01*
X161237414Y-93170481D01*
X161011420Y-93002963D01*
X160757087Y-92882754D01*
X160623039Y-92842096D01*
X160401000Y-92964085D01*
X160147000Y-92964085D01*
X159924961Y-92842096D01*
X159790913Y-92882754D01*
X159536580Y-93002963D01*
X159310586Y-93170481D01*
X159121615Y-93378869D01*
X159082461Y-93444155D01*
X159083072Y-93319000D01*
X159070812Y-93194518D01*
X159034502Y-93074820D01*
X158975537Y-92964506D01*
X158896185Y-92867815D01*
X158799494Y-92788463D01*
X158689180Y-92729498D01*
X158569482Y-92693188D01*
X158445000Y-92680928D01*
X157765750Y-92684000D01*
X157607000Y-92842750D01*
X157353000Y-92842750D01*
X157194250Y-92684000D01*
X156515000Y-92680928D01*
X156390518Y-92693188D01*
X156270820Y-92729498D01*
X156160506Y-92788463D01*
X156063815Y-92867815D01*
X155984463Y-92964506D01*
X155925498Y-93074820D01*
X155889188Y-93194518D01*
X155876928Y-93319000D01*
X154218711Y-93319000D01*
X154176000Y-93276289D01*
X154176000Y-92897801D01*
X156143802Y-90930000D01*
X156895680Y-90930000D01*
X156933002Y-90933676D01*
X156970324Y-90930000D01*
X156970335Y-90930000D01*
X157081988Y-90919003D01*
X157225249Y-90875546D01*
X157357278Y-90804974D01*
X157473003Y-90710001D01*
X157496806Y-90680997D01*
X159771002Y-88406802D01*
X159837558Y-88602054D01*
X160007992Y-88896391D01*
X160232573Y-89151822D01*
X160502671Y-89358531D01*
X160807906Y-89508575D01*
X161020878Y-89573175D01*
X161290000Y-89455125D01*
X161290000Y-88011000D01*
X161270000Y-88011000D01*
X161270000Y-87757000D01*
X161290000Y-87757000D01*
X161290000Y-86312875D01*
X161020878Y-86194825D01*
X160807906Y-86259425D01*
X160502671Y-86409469D01*
X160272000Y-86586004D01*
X160272000Y-79457640D01*
X160317000Y-79462072D01*
X162082002Y-79462072D01*
X162082002Y-80675287D01*
X162038064Y-80719225D01*
X161924796Y-80888743D01*
X161846775Y-81077101D01*
X161807001Y-81277060D01*
X161807001Y-81480938D01*
X161846775Y-81680897D01*
X161924796Y-81869255D01*
X162038064Y-82038773D01*
X162182227Y-82182936D01*
X162351745Y-82296204D01*
X162540103Y-82374225D01*
X162740062Y-82413999D01*
X162943940Y-82413999D01*
X163143899Y-82374225D01*
X163332257Y-82296204D01*
X163501775Y-82182936D01*
X163645938Y-82038773D01*
X163705000Y-81950380D01*
X163705001Y-84521196D01*
X162430002Y-85796197D01*
X162400999Y-85819999D01*
X162370635Y-85856998D01*
X162306026Y-85935724D01*
X162262451Y-86017246D01*
X162235454Y-86067754D01*
X162191997Y-86211015D01*
X162181000Y-86322668D01*
X162181000Y-86322678D01*
X162179789Y-86334976D01*
X162026094Y-86259425D01*
X161813122Y-86194825D01*
X161544000Y-86312875D01*
X161544000Y-87757000D01*
X161564000Y-87757000D01*
X161564000Y-88011000D01*
X161544000Y-88011000D01*
X161544000Y-89455125D01*
X161813122Y-89573175D01*
X162026094Y-89508575D01*
X162181000Y-89432428D01*
X162181001Y-93180668D01*
X162177324Y-93218000D01*
X162181001Y-93255333D01*
X162187393Y-93320226D01*
X162191998Y-93366985D01*
X162235454Y-93510246D01*
X162306026Y-93642276D01*
X162372273Y-93722997D01*
X162401000Y-93758001D01*
X162429998Y-93781799D01*
X163197000Y-94548802D01*
X163197001Y-95181288D01*
X163153063Y-95225226D01*
X163039795Y-95394744D01*
X162961774Y-95583102D01*
X162922000Y-95783061D01*
X162922000Y-95986939D01*
X162961774Y-96186898D01*
X163039795Y-96375256D01*
X163153063Y-96544774D01*
X163297226Y-96688937D01*
X163466744Y-96802205D01*
X163655102Y-96880226D01*
X163855061Y-96920000D01*
X164058939Y-96920000D01*
X164258898Y-96880226D01*
X164447256Y-96802205D01*
X164616774Y-96688937D01*
X164760937Y-96544774D01*
X164874205Y-96375256D01*
X164952226Y-96186898D01*
X164992000Y-95986939D01*
X164992000Y-95783061D01*
X164952226Y-95583102D01*
X164874205Y-95394744D01*
X164760937Y-95225226D01*
X164717000Y-95181289D01*
X164717000Y-94271322D01*
X164720676Y-94234000D01*
X164717000Y-94196677D01*
X164717000Y-94196667D01*
X164706003Y-94085014D01*
X164662546Y-93941753D01*
X164632189Y-93884960D01*
X164591974Y-93809723D01*
X164520799Y-93722997D01*
X164497001Y-93693999D01*
X164468004Y-93670202D01*
X164116802Y-93319000D01*
X166036928Y-93319000D01*
X166040000Y-93948250D01*
X166198750Y-94107000D01*
X167513000Y-94107000D01*
X167513000Y-92842750D01*
X167767000Y-92842750D01*
X167767000Y-94107000D01*
X169081250Y-94107000D01*
X169240000Y-93948250D01*
X169243072Y-93319000D01*
X176196928Y-93319000D01*
X176200000Y-93948250D01*
X176358750Y-94107000D01*
X177673000Y-94107000D01*
X177673000Y-92842750D01*
X177927000Y-92842750D01*
X177927000Y-94107000D01*
X179241250Y-94107000D01*
X179400000Y-93948250D01*
X179403072Y-93319000D01*
X179390812Y-93194518D01*
X179354502Y-93074820D01*
X179295537Y-92964506D01*
X179216185Y-92867815D01*
X179119494Y-92788463D01*
X179009180Y-92729498D01*
X178889482Y-92693188D01*
X178765000Y-92680928D01*
X178085750Y-92684000D01*
X177927000Y-92842750D01*
X177673000Y-92842750D01*
X177514250Y-92684000D01*
X176835000Y-92680928D01*
X176710518Y-92693188D01*
X176590820Y-92729498D01*
X176480506Y-92788463D01*
X176383815Y-92867815D01*
X176304463Y-92964506D01*
X176245498Y-93074820D01*
X176209188Y-93194518D01*
X176196928Y-93319000D01*
X169243072Y-93319000D01*
X169230812Y-93194518D01*
X169194502Y-93074820D01*
X169135537Y-92964506D01*
X169056185Y-92867815D01*
X168959494Y-92788463D01*
X168849180Y-92729498D01*
X168729482Y-92693188D01*
X168605000Y-92680928D01*
X167925750Y-92684000D01*
X167767000Y-92842750D01*
X167513000Y-92842750D01*
X167354250Y-92684000D01*
X166675000Y-92680928D01*
X166550518Y-92693188D01*
X166430820Y-92729498D01*
X166320506Y-92788463D01*
X166223815Y-92867815D01*
X166144463Y-92964506D01*
X166085498Y-93074820D01*
X166049188Y-93194518D01*
X166036928Y-93319000D01*
X164116802Y-93319000D01*
X163701000Y-92903199D01*
X163701000Y-89290461D01*
X163897169Y-89421537D01*
X164212919Y-89552325D01*
X164548117Y-89619000D01*
X164889883Y-89619000D01*
X165225081Y-89552325D01*
X165540831Y-89421537D01*
X165824998Y-89231663D01*
X166066663Y-88989998D01*
X166256537Y-88705831D01*
X166387325Y-88390081D01*
X166454000Y-88054883D01*
X166454000Y-87713117D01*
X166387325Y-87377919D01*
X166256537Y-87062169D01*
X166066663Y-86778002D01*
X165824998Y-86536337D01*
X165540831Y-86346463D01*
X165225081Y-86215675D01*
X164889883Y-86149000D01*
X164548117Y-86149000D01*
X164212919Y-86215675D01*
X164122797Y-86253005D01*
X164976008Y-85399795D01*
X165005001Y-85376001D01*
X165028795Y-85347008D01*
X165028799Y-85347004D01*
X165099973Y-85260277D01*
X165113621Y-85234744D01*
X165170546Y-85128247D01*
X165214003Y-84984986D01*
X165225000Y-84873333D01*
X165225000Y-84873324D01*
X165228676Y-84836001D01*
X165225000Y-84798678D01*
X165225000Y-82438013D01*
X165244744Y-82451205D01*
X165433102Y-82529226D01*
X165633061Y-82569000D01*
X165836939Y-82569000D01*
X166036898Y-82529226D01*
X166225256Y-82451205D01*
X166394774Y-82337937D01*
X166538937Y-82193774D01*
X166624000Y-82066468D01*
X166709063Y-82193774D01*
X166753000Y-82237711D01*
X166753001Y-83782668D01*
X166749324Y-83820000D01*
X166753001Y-83857333D01*
X166763998Y-83968986D01*
X166773358Y-83999843D01*
X166807454Y-84112246D01*
X166878026Y-84244276D01*
X166922990Y-84299064D01*
X166973000Y-84360001D01*
X167001998Y-84383799D01*
X167308199Y-84690000D01*
X167284061Y-84690000D01*
X167084102Y-84729774D01*
X166895744Y-84807795D01*
X166726226Y-84921063D01*
X166582063Y-85065226D01*
X166468795Y-85234744D01*
X166390774Y-85423102D01*
X166351000Y-85623061D01*
X166351000Y-85826939D01*
X166390774Y-86026898D01*
X166468795Y-86215256D01*
X166582063Y-86384774D01*
X166726226Y-86528937D01*
X166895744Y-86642205D01*
X167084102Y-86720226D01*
X167284061Y-86760000D01*
X167346199Y-86760000D01*
X168219201Y-87633003D01*
X168242999Y-87662001D01*
X168358724Y-87756974D01*
X168490753Y-87827546D01*
X168634014Y-87871003D01*
X168745667Y-87882000D01*
X168745676Y-87882000D01*
X168782999Y-87885676D01*
X168820322Y-87882000D01*
X174683289Y-87882000D01*
X174727226Y-87925937D01*
X174896744Y-88039205D01*
X175085102Y-88117226D01*
X175285061Y-88157000D01*
X175488939Y-88157000D01*
X175688898Y-88117226D01*
X175877256Y-88039205D01*
X176046774Y-87925937D01*
X176190937Y-87781774D01*
X176304205Y-87612256D01*
X176382226Y-87423898D01*
X176422000Y-87223939D01*
X176422000Y-87156999D01*
X179427198Y-87156999D01*
X179432000Y-87161801D01*
X179432000Y-87223939D01*
X179471774Y-87423898D01*
X179549795Y-87612256D01*
X179663063Y-87781774D01*
X179807226Y-87925937D01*
X179976744Y-88039205D01*
X180165102Y-88117226D01*
X180365061Y-88157000D01*
X180432001Y-88157000D01*
X180432002Y-99290196D01*
X169865199Y-109857000D01*
X169242955Y-109857000D01*
X169240000Y-109251750D01*
X169081250Y-109093000D01*
X167767000Y-109093000D01*
X167767000Y-109113000D01*
X167513000Y-109113000D01*
X167513000Y-109093000D01*
X166198750Y-109093000D01*
X166040000Y-109251750D01*
X166037045Y-109857000D01*
X164756333Y-109857000D01*
X164719000Y-109853323D01*
X164681667Y-109857000D01*
X164570014Y-109867997D01*
X164426753Y-109911454D01*
X164294724Y-109982026D01*
X164178999Y-110076999D01*
X164155200Y-110105998D01*
X164044198Y-110217000D01*
X163982061Y-110217000D01*
X163782102Y-110256774D01*
X163593744Y-110334795D01*
X163424226Y-110448063D01*
X163280063Y-110592226D01*
X163166795Y-110761744D01*
X163088774Y-110950102D01*
X163049000Y-111150061D01*
X163049000Y-111353939D01*
X163088774Y-111553898D01*
X163166795Y-111742256D01*
X163280063Y-111911774D01*
X163424226Y-112055937D01*
X163593744Y-112169205D01*
X163782102Y-112247226D01*
X163982061Y-112287000D01*
X164185939Y-112287000D01*
X164385898Y-112247226D01*
X164574256Y-112169205D01*
X164743774Y-112055937D01*
X164887937Y-111911774D01*
X165001205Y-111742256D01*
X165079226Y-111553898D01*
X165114413Y-111377000D01*
X166085326Y-111377000D01*
X166005330Y-111570128D01*
X165940000Y-111898565D01*
X165940000Y-112233435D01*
X166005330Y-112561872D01*
X166133479Y-112871252D01*
X166319523Y-113149687D01*
X166556313Y-113386477D01*
X166834748Y-113572521D01*
X167144128Y-113700670D01*
X167472565Y-113766000D01*
X167807435Y-113766000D01*
X168135872Y-113700670D01*
X168445252Y-113572521D01*
X168723687Y-113386477D01*
X168960477Y-113149687D01*
X169146521Y-112871252D01*
X169274670Y-112561872D01*
X169340000Y-112233435D01*
X169340000Y-111898565D01*
X176100000Y-111898565D01*
X176100000Y-112233435D01*
X176165330Y-112561872D01*
X176293479Y-112871252D01*
X176479523Y-113149687D01*
X176716313Y-113386477D01*
X176994748Y-113572521D01*
X177304128Y-113700670D01*
X177632565Y-113766000D01*
X177967435Y-113766000D01*
X178295872Y-113700670D01*
X178605252Y-113572521D01*
X178883687Y-113386477D01*
X179120477Y-113149687D01*
X179306521Y-112871252D01*
X179434670Y-112561872D01*
X179500000Y-112233435D01*
X179500000Y-111898565D01*
X179434670Y-111570128D01*
X179306521Y-111260748D01*
X179120477Y-110982313D01*
X178883687Y-110745523D01*
X178605252Y-110559479D01*
X178504860Y-110517895D01*
X178765000Y-110519072D01*
X178889482Y-110506812D01*
X179009180Y-110470502D01*
X179119494Y-110411537D01*
X179216185Y-110332185D01*
X179295537Y-110235494D01*
X179354502Y-110125180D01*
X179390812Y-110005482D01*
X179403072Y-109881000D01*
X179400000Y-109251750D01*
X179241250Y-109093000D01*
X177927000Y-109093000D01*
X177927000Y-109113000D01*
X177673000Y-109113000D01*
X177673000Y-109093000D01*
X176358750Y-109093000D01*
X176200000Y-109251750D01*
X176196928Y-109881000D01*
X176209188Y-110005482D01*
X176245498Y-110125180D01*
X176304463Y-110235494D01*
X176383815Y-110332185D01*
X176480506Y-110411537D01*
X176590820Y-110470502D01*
X176710518Y-110506812D01*
X176835000Y-110519072D01*
X177095140Y-110517895D01*
X176994748Y-110559479D01*
X176716313Y-110745523D01*
X176479523Y-110982313D01*
X176293479Y-111260748D01*
X176165330Y-111570128D01*
X176100000Y-111898565D01*
X169340000Y-111898565D01*
X169274670Y-111570128D01*
X169194674Y-111377000D01*
X170142678Y-111377000D01*
X170180000Y-111380676D01*
X170217322Y-111377000D01*
X170217333Y-111377000D01*
X170328986Y-111366003D01*
X170472247Y-111322546D01*
X170604276Y-111251974D01*
X170720001Y-111157001D01*
X170743804Y-111127997D01*
X173820801Y-108051000D01*
X176196928Y-108051000D01*
X176200000Y-108680250D01*
X176358750Y-108839000D01*
X177673000Y-108839000D01*
X177673000Y-107574750D01*
X177927000Y-107574750D01*
X177927000Y-108839000D01*
X179241250Y-108839000D01*
X179400000Y-108680250D01*
X179403072Y-108051000D01*
X179390812Y-107926518D01*
X179354502Y-107806820D01*
X179295537Y-107696506D01*
X179216185Y-107599815D01*
X179119494Y-107520463D01*
X179009180Y-107461498D01*
X178889482Y-107425188D01*
X178765000Y-107412928D01*
X178085750Y-107416000D01*
X177927000Y-107574750D01*
X177673000Y-107574750D01*
X177514250Y-107416000D01*
X176835000Y-107412928D01*
X176710518Y-107425188D01*
X176590820Y-107461498D01*
X176480506Y-107520463D01*
X176383815Y-107599815D01*
X176304463Y-107696506D01*
X176245498Y-107806820D01*
X176209188Y-107926518D01*
X176196928Y-108051000D01*
X173820801Y-108051000D01*
X176100000Y-105771801D01*
X176100000Y-105801435D01*
X176165330Y-106129872D01*
X176293479Y-106439252D01*
X176479523Y-106717687D01*
X176716313Y-106954477D01*
X176994748Y-107140521D01*
X177304128Y-107268670D01*
X177632565Y-107334000D01*
X177967435Y-107334000D01*
X178295872Y-107268670D01*
X178605252Y-107140521D01*
X178883687Y-106954477D01*
X179120477Y-106717687D01*
X179306521Y-106439252D01*
X179434670Y-106129872D01*
X179500000Y-105801435D01*
X179500000Y-105466565D01*
X179434670Y-105138128D01*
X179306521Y-104828748D01*
X179120477Y-104550313D01*
X178883687Y-104313523D01*
X178605252Y-104127479D01*
X178295872Y-103999330D01*
X177967435Y-103934000D01*
X177937802Y-103934000D01*
X181703004Y-100168798D01*
X181732002Y-100145000D01*
X181826975Y-100029275D01*
X181897547Y-99897246D01*
X181941004Y-99753985D01*
X181952001Y-99642332D01*
X181952001Y-99642323D01*
X181955677Y-99605000D01*
X181952001Y-99567677D01*
X181952001Y-85598324D01*
X181955677Y-85561001D01*
X181952001Y-85523678D01*
X181952001Y-85523668D01*
X181941004Y-85412015D01*
X181897547Y-85268754D01*
X181826975Y-85136725D01*
X181732002Y-85021000D01*
X181703005Y-84997203D01*
X176572501Y-79866700D01*
X176572501Y-79626207D01*
X176682061Y-79648000D01*
X176885939Y-79648000D01*
X177085898Y-79608226D01*
X177274256Y-79530205D01*
X177443774Y-79416937D01*
X177587937Y-79272774D01*
X177701205Y-79103256D01*
X177779226Y-78914898D01*
X177819000Y-78714939D01*
X177819000Y-78652801D01*
X179454003Y-77017799D01*
X179483001Y-76994001D01*
X179532411Y-76933795D01*
X179577974Y-76878277D01*
X179648546Y-76746247D01*
X179671749Y-76669754D01*
X179692003Y-76602986D01*
X179703000Y-76491333D01*
X179703000Y-76491324D01*
X179706676Y-76454001D01*
X179703000Y-76416678D01*
X179703000Y-73150000D01*
X181160289Y-73150000D01*
X181204226Y-73193937D01*
G37*
%TD.AperFunction*%
D23*
X159050773Y-46494123D02*
X158878430Y-46752052D01*
X158759718Y-47038648D01*
X158699200Y-47342896D01*
X158699200Y-47653104D01*
X158759718Y-47957352D01*
X158878430Y-48243948D01*
X159050773Y-48501877D01*
X159270123Y-48721227D01*
X159528052Y-48893570D01*
X159814648Y-49012282D01*
X160118896Y-49072800D01*
X160429104Y-49072800D01*
X160733352Y-49012282D01*
X161019948Y-48893570D01*
X161255941Y-48735884D01*
X162280325Y-48735884D01*
X162336176Y-48987185D01*
X162439981Y-49222761D01*
X162587750Y-49433559D01*
X162773804Y-49611478D01*
X162990993Y-49749681D01*
X163230971Y-49842857D01*
X163254600Y-49845910D01*
X163457000Y-49722224D01*
X163457000Y-48530000D01*
X163711000Y-48530000D01*
X163711000Y-49722224D01*
X163913400Y-49845910D01*
X163937029Y-49842857D01*
X164177007Y-49749681D01*
X164394196Y-49611478D01*
X164580250Y-49433559D01*
X164728019Y-49222761D01*
X164831824Y-48987185D01*
X164887675Y-48735884D01*
X167740325Y-48735884D01*
X167796176Y-48987185D01*
X167899981Y-49222761D01*
X168047750Y-49433559D01*
X168233804Y-49611478D01*
X168450993Y-49749681D01*
X168690971Y-49842857D01*
X168714600Y-49845910D01*
X168917000Y-49722224D01*
X168917000Y-48530000D01*
X169171000Y-48530000D01*
X169171000Y-49722224D01*
X169373400Y-49845910D01*
X169397029Y-49842857D01*
X169637007Y-49749681D01*
X169854196Y-49611478D01*
X170040250Y-49433559D01*
X170188019Y-49222761D01*
X170291824Y-48987185D01*
X170347675Y-48735884D01*
X170197573Y-48530000D01*
X169171000Y-48530000D01*
X168917000Y-48530000D01*
X167890427Y-48530000D01*
X167740325Y-48735884D01*
X164887675Y-48735884D01*
X164737573Y-48530000D01*
X163711000Y-48530000D01*
X163457000Y-48530000D01*
X162430427Y-48530000D01*
X162280325Y-48735884D01*
X161255941Y-48735884D01*
X161277877Y-48721227D01*
X161497227Y-48501877D01*
X161669570Y-48243948D01*
X161741573Y-48070116D01*
X162280325Y-48070116D01*
X162430427Y-48276000D01*
X163457000Y-48276000D01*
X163457000Y-47083776D01*
X163711000Y-47083776D01*
X163711000Y-48276000D01*
X164737573Y-48276000D01*
X164887675Y-48070116D01*
X167740325Y-48070116D01*
X167890427Y-48276000D01*
X168917000Y-48276000D01*
X168917000Y-47083776D01*
X169171000Y-47083776D01*
X169171000Y-48276000D01*
X170197573Y-48276000D01*
X170347675Y-48070116D01*
X170291824Y-47818815D01*
X170188019Y-47583239D01*
X170040250Y-47372441D01*
X169854196Y-47194522D01*
X169637007Y-47056319D01*
X169397029Y-46963143D01*
X169373400Y-46960090D01*
X169171000Y-47083776D01*
X168917000Y-47083776D01*
X168714600Y-46960090D01*
X168690971Y-46963143D01*
X168450993Y-47056319D01*
X168233804Y-47194522D01*
X168047750Y-47372441D01*
X167899981Y-47583239D01*
X167796176Y-47818815D01*
X167740325Y-48070116D01*
X164887675Y-48070116D01*
X164831824Y-47818815D01*
X164728019Y-47583239D01*
X164580250Y-47372441D01*
X164394196Y-47194522D01*
X164177007Y-47056319D01*
X163937029Y-46963143D01*
X163913400Y-46960090D01*
X163711000Y-47083776D01*
X163457000Y-47083776D01*
X163254600Y-46960090D01*
X163230971Y-46963143D01*
X162990993Y-47056319D01*
X162773804Y-47194522D01*
X162587750Y-47372441D01*
X162439981Y-47583239D01*
X162336176Y-47818815D01*
X162280325Y-48070116D01*
X161741573Y-48070116D01*
X161788282Y-47957352D01*
X161848800Y-47653104D01*
X161848800Y-47342896D01*
X161788282Y-47038648D01*
X161669570Y-46752052D01*
X161497227Y-46494123D01*
X161383104Y-46380000D01*
X173494241Y-46380000D01*
X173463000Y-46537061D01*
X173463000Y-46740939D01*
X173502774Y-46940898D01*
X173580795Y-47129256D01*
X173694063Y-47298774D01*
X173838226Y-47442937D01*
X174007744Y-47556205D01*
X174196102Y-47634226D01*
X174396061Y-47674000D01*
X174599939Y-47674000D01*
X174799898Y-47634226D01*
X174988256Y-47556205D01*
X175157774Y-47442937D01*
X175201711Y-47399000D01*
X175737199Y-47399000D01*
X180977000Y-52638802D01*
X180977001Y-67947000D01*
X179519711Y-67947000D01*
X179475774Y-67903063D01*
X179306256Y-67789795D01*
X179117898Y-67711774D01*
X178917939Y-67672000D01*
X178714061Y-67672000D01*
X178514102Y-67711774D01*
X178325744Y-67789795D01*
X178156226Y-67903063D01*
X178012063Y-68047226D01*
X177898795Y-68216744D01*
X177820774Y-68405102D01*
X177781000Y-68605061D01*
X177781000Y-68808939D01*
X177820774Y-69008898D01*
X177898795Y-69197256D01*
X178012063Y-69366774D01*
X178156226Y-69510937D01*
X178325744Y-69624205D01*
X178514102Y-69702226D01*
X178714061Y-69742000D01*
X178917939Y-69742000D01*
X179117898Y-69702226D01*
X179306256Y-69624205D01*
X179475774Y-69510937D01*
X179519711Y-69467000D01*
X181033289Y-69467000D01*
X181077226Y-69510937D01*
X181104001Y-69528827D01*
X181104000Y-71630000D01*
X179646711Y-71630000D01*
X179602774Y-71586063D01*
X179433256Y-71472795D01*
X179244898Y-71394774D01*
X179044939Y-71355000D01*
X178841061Y-71355000D01*
X178641102Y-71394774D01*
X178452744Y-71472795D01*
X178283226Y-71586063D01*
X178139063Y-71730226D01*
X178025795Y-71899744D01*
X177947774Y-72088102D01*
X177908000Y-72288061D01*
X177908000Y-72491939D01*
X177947774Y-72691898D01*
X178025795Y-72880256D01*
X178139063Y-73049774D01*
X178183000Y-73093711D01*
X178183001Y-76139197D01*
X176744199Y-77578000D01*
X176682061Y-77578000D01*
X176572501Y-77599793D01*
X176572501Y-75081210D01*
X176616438Y-75037273D01*
X176729706Y-74867755D01*
X176807727Y-74679397D01*
X176847501Y-74479438D01*
X176847501Y-74275560D01*
X176807727Y-74075601D01*
X176729706Y-73887243D01*
X176616438Y-73717725D01*
X176472275Y-73573562D01*
X176302757Y-73460294D01*
X176114399Y-73382273D01*
X175914440Y-73342499D01*
X175710562Y-73342499D01*
X175512000Y-73381995D01*
X175512000Y-72204711D01*
X175555937Y-72160774D01*
X175669205Y-71991256D01*
X175747226Y-71802898D01*
X175787000Y-71602939D01*
X175787000Y-71399061D01*
X175747226Y-71199102D01*
X175669205Y-71010744D01*
X175555937Y-70841226D01*
X175411774Y-70697063D01*
X175242256Y-70583795D01*
X175053898Y-70505774D01*
X174895355Y-70474238D01*
X174898000Y-70460939D01*
X174898000Y-70257061D01*
X174858226Y-70057102D01*
X174780205Y-69868744D01*
X174666937Y-69699226D01*
X174522774Y-69555063D01*
X174353256Y-69441795D01*
X174164898Y-69363774D01*
X174001897Y-69331351D01*
X173969226Y-69167102D01*
X173891205Y-68978744D01*
X173777937Y-68809226D01*
X173633774Y-68665063D01*
X173464256Y-68551795D01*
X173275898Y-68473774D01*
X173075939Y-68434000D01*
X173051802Y-68434000D01*
X173104004Y-68381798D01*
X173133001Y-68358001D01*
X173227974Y-68242276D01*
X173298546Y-68110247D01*
X173342003Y-67966986D01*
X173353000Y-67855333D01*
X173353000Y-67855323D01*
X173356676Y-67818000D01*
X173353000Y-67780677D01*
X173353000Y-65741719D01*
X173390295Y-65831756D01*
X173503563Y-66001274D01*
X173647726Y-66145437D01*
X173817244Y-66258705D01*
X174005602Y-66336726D01*
X174205561Y-66376500D01*
X174409439Y-66376500D01*
X174609398Y-66336726D01*
X174797756Y-66258705D01*
X174967274Y-66145437D01*
X175111437Y-66001274D01*
X175224705Y-65831756D01*
X175302726Y-65643398D01*
X175342500Y-65443439D01*
X175342500Y-65239561D01*
X175302726Y-65039602D01*
X175258000Y-64931625D01*
X175258000Y-52773711D01*
X175301937Y-52729774D01*
X175415205Y-52560256D01*
X175493226Y-52371898D01*
X175533000Y-52171939D01*
X175533000Y-51968061D01*
X175493226Y-51768102D01*
X175415205Y-51579744D01*
X175301937Y-51410226D01*
X175157774Y-51266063D01*
X174988256Y-51152795D01*
X174799898Y-51074774D01*
X174599939Y-51035000D01*
X174396061Y-51035000D01*
X174196102Y-51074774D01*
X174007744Y-51152795D01*
X173838226Y-51266063D01*
X173694063Y-51410226D01*
X173580795Y-51579744D01*
X173502774Y-51768102D01*
X173463000Y-51968061D01*
X173463000Y-52171939D01*
X173502774Y-52371898D01*
X173580795Y-52560256D01*
X173694063Y-52729774D01*
X173738000Y-52773711D01*
X173738000Y-54492199D01*
X173628000Y-54382199D01*
X173628000Y-54320061D01*
X173588226Y-54120102D01*
X173510205Y-53931744D01*
X173396937Y-53762226D01*
X173252774Y-53618063D01*
X173083256Y-53504795D01*
X172894898Y-53426774D01*
X172694939Y-53387000D01*
X172491061Y-53387000D01*
X172291102Y-53426774D01*
X172102744Y-53504795D01*
X171933226Y-53618063D01*
X171789063Y-53762226D01*
X171675795Y-53931744D01*
X171597774Y-54120102D01*
X171558000Y-54320061D01*
X171558000Y-54523939D01*
X171597774Y-54723898D01*
X171675795Y-54912256D01*
X171789063Y-55081774D01*
X171933226Y-55225937D01*
X172102744Y-55339205D01*
X172291102Y-55417226D01*
X172491061Y-55457000D01*
X172553199Y-55457000D01*
X172976001Y-55879803D01*
X172976000Y-63820198D01*
X172081998Y-64714201D01*
X172053000Y-64737999D01*
X172029202Y-64766997D01*
X172029201Y-64766998D01*
X171958026Y-64853724D01*
X171887454Y-64985754D01*
X171843998Y-65129015D01*
X171829324Y-65278000D01*
X171833001Y-65315332D01*
X171833000Y-67503198D01*
X171664198Y-67672000D01*
X171602061Y-67672000D01*
X171402102Y-67711774D01*
X171213744Y-67789795D01*
X171194000Y-67802987D01*
X171194000Y-56964711D01*
X171237937Y-56920774D01*
X171351205Y-56751256D01*
X171429226Y-56562898D01*
X171469000Y-56362939D01*
X171469000Y-56159061D01*
X171429226Y-55959102D01*
X171351205Y-55770744D01*
X171237937Y-55601226D01*
X171093774Y-55457063D01*
X170924256Y-55343795D01*
X170735898Y-55265774D01*
X170535939Y-55226000D01*
X170332061Y-55226000D01*
X170239362Y-55244439D01*
X172378802Y-53105000D01*
X172440939Y-53105000D01*
X172640898Y-53065226D01*
X172829256Y-52987205D01*
X172998774Y-52873937D01*
X173142937Y-52729774D01*
X173256205Y-52560256D01*
X173334226Y-52371898D01*
X173374000Y-52171939D01*
X173374000Y-51968061D01*
X173334226Y-51768102D01*
X173256205Y-51579744D01*
X173142937Y-51410226D01*
X172998774Y-51266063D01*
X172829256Y-51152795D01*
X172640898Y-51074774D01*
X172440939Y-51035000D01*
X172237061Y-51035000D01*
X172037102Y-51074774D01*
X171848744Y-51152795D01*
X171679226Y-51266063D01*
X171535063Y-51410226D01*
X171421795Y-51579744D01*
X171343774Y-51768102D01*
X171304000Y-51968061D01*
X171304000Y-52030198D01*
X169325722Y-54008477D01*
X169319205Y-53992744D01*
X169205937Y-53823226D01*
X169061774Y-53679063D01*
X168908000Y-53576315D01*
X168908000Y-53535711D01*
X168951937Y-53491774D01*
X169065205Y-53322256D01*
X169143226Y-53133898D01*
X169183000Y-52933939D01*
X169183000Y-52730061D01*
X169177498Y-52702403D01*
X169298039Y-52652131D01*
X169491877Y-52521934D01*
X169656590Y-52356422D01*
X169785848Y-52161957D01*
X169874684Y-51946011D01*
X169919684Y-51716884D01*
X169764152Y-51530000D01*
X168861000Y-51530000D01*
X168861000Y-51550000D01*
X168607000Y-51550000D01*
X168607000Y-51530000D01*
X167703848Y-51530000D01*
X167548316Y-51716884D01*
X167593316Y-51946011D01*
X167597134Y-51955293D01*
X167488226Y-52028063D01*
X167344063Y-52172226D01*
X167230795Y-52341744D01*
X167152774Y-52530102D01*
X167113000Y-52730061D01*
X167113000Y-52933939D01*
X167152774Y-53133898D01*
X167230795Y-53322256D01*
X167344063Y-53491774D01*
X167388001Y-53535712D01*
X167388001Y-54191668D01*
X167384324Y-54229000D01*
X167388604Y-54272451D01*
X167367000Y-54381061D01*
X167367000Y-54584939D01*
X167406774Y-54784898D01*
X167484795Y-54973256D01*
X167598063Y-55142774D01*
X167742226Y-55286937D01*
X167911744Y-55400205D01*
X167933453Y-55409197D01*
X167784744Y-55470795D01*
X167615226Y-55584063D01*
X167471063Y-55728226D01*
X167357795Y-55897744D01*
X167279774Y-56086102D01*
X167240000Y-56286061D01*
X167240000Y-56489939D01*
X167279774Y-56689898D01*
X167357795Y-56878256D01*
X167471063Y-57047774D01*
X167515001Y-57091712D01*
X167515000Y-59630608D01*
X166876000Y-60269608D01*
X166876000Y-57949322D01*
X166879676Y-57911999D01*
X166876000Y-57874676D01*
X166876000Y-57874667D01*
X166865003Y-57763014D01*
X166821546Y-57619753D01*
X166750974Y-57487724D01*
X166656001Y-57371999D01*
X166627003Y-57348201D01*
X164865000Y-55586199D01*
X164865000Y-55524061D01*
X164825226Y-55324102D01*
X164747205Y-55135744D01*
X164633937Y-54966226D01*
X164489774Y-54822063D01*
X164320256Y-54708795D01*
X164131898Y-54630774D01*
X163931939Y-54591000D01*
X163728061Y-54591000D01*
X163528102Y-54630774D01*
X163339744Y-54708795D01*
X163170226Y-54822063D01*
X163026063Y-54966226D01*
X162912795Y-55135744D01*
X162834774Y-55324102D01*
X162795000Y-55524061D01*
X162795000Y-55727939D01*
X162834774Y-55927898D01*
X162912795Y-56116256D01*
X163026063Y-56285774D01*
X163170226Y-56429937D01*
X163339744Y-56543205D01*
X163528102Y-56621226D01*
X163728061Y-56661000D01*
X163790199Y-56661000D01*
X165356001Y-58226803D01*
X165356000Y-61153197D01*
X161032998Y-65476201D01*
X161004000Y-65499999D01*
X160980202Y-65528997D01*
X160980201Y-65528998D01*
X160909026Y-65615724D01*
X160838454Y-65747754D01*
X160794998Y-65891015D01*
X160780324Y-66040000D01*
X160784001Y-66077332D01*
X160784000Y-67114289D01*
X160740063Y-67158226D01*
X160626795Y-67327744D01*
X160548774Y-67516102D01*
X160509000Y-67716061D01*
X160509000Y-67919939D01*
X160548774Y-68119898D01*
X160626795Y-68308256D01*
X160740063Y-68477774D01*
X160784000Y-68521711D01*
X160784001Y-75985928D01*
X160317000Y-75985928D01*
X160272000Y-75990360D01*
X160272000Y-62671801D01*
X161986802Y-60957000D01*
X163241289Y-60957000D01*
X163285226Y-61000937D01*
X163454744Y-61114205D01*
X163643102Y-61192226D01*
X163843061Y-61232000D01*
X164046939Y-61232000D01*
X164246898Y-61192226D01*
X164435256Y-61114205D01*
X164604774Y-61000937D01*
X164748937Y-60856774D01*
X164862205Y-60687256D01*
X164940226Y-60498898D01*
X164980000Y-60298939D01*
X164980000Y-60095061D01*
X164940226Y-59895102D01*
X164862205Y-59706744D01*
X164748937Y-59537226D01*
X164604774Y-59393063D01*
X164435256Y-59279795D01*
X164246898Y-59201774D01*
X164046939Y-59162000D01*
X163843061Y-59162000D01*
X163643102Y-59201774D01*
X163454744Y-59279795D01*
X163285226Y-59393063D01*
X163241289Y-59437000D01*
X161709322Y-59437000D01*
X161671999Y-59433324D01*
X161634676Y-59437000D01*
X161634667Y-59437000D01*
X161523014Y-59447997D01*
X161379753Y-59491454D01*
X161247724Y-59562026D01*
X161131999Y-59656999D01*
X161108201Y-59685997D01*
X159001003Y-61793196D01*
X158971999Y-61816999D01*
X158916871Y-61884174D01*
X158877026Y-61932724D01*
X158822317Y-62035076D01*
X158806454Y-62064754D01*
X158762997Y-62208015D01*
X158752000Y-62319668D01*
X158752000Y-62319678D01*
X158748324Y-62357000D01*
X158752000Y-62394322D01*
X158752001Y-76954754D01*
X158633475Y-76777368D01*
X158426632Y-76570525D01*
X158183411Y-76408010D01*
X157913158Y-76296068D01*
X157626260Y-76239000D01*
X157333740Y-76239000D01*
X157046842Y-76296068D01*
X156776589Y-76408010D01*
X156533368Y-76570525D01*
X156401513Y-76702380D01*
X156379502Y-76629820D01*
X156320537Y-76519506D01*
X156241185Y-76422815D01*
X156144494Y-76343463D01*
X156034180Y-76284498D01*
X155914482Y-76248188D01*
X155790000Y-76235928D01*
X154090000Y-76235928D01*
X153965518Y-76248188D01*
X153845820Y-76284498D01*
X153735506Y-76343463D01*
X153638815Y-76422815D01*
X153559463Y-76519506D01*
X153500498Y-76629820D01*
X153464188Y-76749518D01*
X153451928Y-76874000D01*
X153451928Y-78574000D01*
X153464188Y-78698482D01*
X153500498Y-78818180D01*
X153559463Y-78928494D01*
X153638815Y-79025185D01*
X153735506Y-79104537D01*
X153845820Y-79163502D01*
X153926466Y-79187966D01*
X153842412Y-79263731D01*
X153668359Y-79497080D01*
X153543175Y-79759901D01*
X153498524Y-79907110D01*
X153619845Y-80137000D01*
X154813000Y-80137000D01*
X154813000Y-80117000D01*
X155067000Y-80117000D01*
X155067000Y-80137000D01*
X157353000Y-80137000D01*
X157353000Y-80117000D01*
X157607000Y-80117000D01*
X157607000Y-80137000D01*
X157627000Y-80137000D01*
X157627000Y-80391000D01*
X157607000Y-80391000D01*
X157607000Y-82677000D01*
X157627000Y-82677000D01*
X157627000Y-82931000D01*
X157607000Y-82931000D01*
X157607000Y-85217000D01*
X157627000Y-85217000D01*
X157627000Y-85471000D01*
X157607000Y-85471000D01*
X157607000Y-85491000D01*
X157353000Y-85491000D01*
X157353000Y-85471000D01*
X155067000Y-85471000D01*
X155067000Y-85491000D01*
X154813000Y-85491000D01*
X154813000Y-85471000D01*
X153619845Y-85471000D01*
X153498524Y-85700890D01*
X153543175Y-85848099D01*
X153668359Y-86110920D01*
X153842412Y-86344269D01*
X154058645Y-86539178D01*
X154175534Y-86608805D01*
X153993368Y-86730525D01*
X153786525Y-86937368D01*
X153624010Y-87180589D01*
X153512068Y-87450842D01*
X153455000Y-87737740D01*
X153455000Y-88030260D01*
X153512068Y-88317158D01*
X153624010Y-88587411D01*
X153786525Y-88830632D01*
X153993368Y-89037475D01*
X154236589Y-89199990D01*
X154506842Y-89311932D01*
X154793740Y-89369000D01*
X155086260Y-89369000D01*
X155373158Y-89311932D01*
X155643411Y-89199990D01*
X155886632Y-89037475D01*
X156093475Y-88830632D01*
X156210000Y-88656240D01*
X156326525Y-88830632D01*
X156533368Y-89037475D01*
X156776589Y-89199990D01*
X156813091Y-89215110D01*
X156618201Y-89410000D01*
X155866322Y-89410000D01*
X155828999Y-89406324D01*
X155791676Y-89410000D01*
X155791667Y-89410000D01*
X155680014Y-89420997D01*
X155536753Y-89464454D01*
X155404724Y-89535026D01*
X155288999Y-89629999D01*
X155265201Y-89658997D01*
X153060000Y-91864199D01*
X153060000Y-83160890D01*
X153498524Y-83160890D01*
X153543175Y-83308099D01*
X153668359Y-83570920D01*
X153842412Y-83804269D01*
X154058645Y-83999178D01*
X154184255Y-84074000D01*
X154058645Y-84148822D01*
X153842412Y-84343731D01*
X153668359Y-84577080D01*
X153543175Y-84839901D01*
X153498524Y-84987110D01*
X153619845Y-85217000D01*
X154813000Y-85217000D01*
X154813000Y-82931000D01*
X155067000Y-82931000D01*
X155067000Y-85217000D01*
X157353000Y-85217000D01*
X157353000Y-82931000D01*
X155067000Y-82931000D01*
X154813000Y-82931000D01*
X153619845Y-82931000D01*
X153498524Y-83160890D01*
X153060000Y-83160890D01*
X153060000Y-80620890D01*
X153498524Y-80620890D01*
X153543175Y-80768099D01*
X153668359Y-81030920D01*
X153842412Y-81264269D01*
X154058645Y-81459178D01*
X154184255Y-81534000D01*
X154058645Y-81608822D01*
X153842412Y-81803731D01*
X153668359Y-82037080D01*
X153543175Y-82299901D01*
X153498524Y-82447110D01*
X153619845Y-82677000D01*
X154813000Y-82677000D01*
X154813000Y-80391000D01*
X155067000Y-80391000D01*
X155067000Y-82677000D01*
X157353000Y-82677000D01*
X157353000Y-80391000D01*
X155067000Y-80391000D01*
X154813000Y-80391000D01*
X153619845Y-80391000D01*
X153498524Y-80620890D01*
X153060000Y-80620890D01*
X153060000Y-63285000D01*
X153070928Y-63285000D01*
X153070928Y-64985000D01*
X153083188Y-65109482D01*
X153119498Y-65229180D01*
X153178463Y-65339494D01*
X153257815Y-65436185D01*
X153354506Y-65515537D01*
X153464820Y-65574502D01*
X153537380Y-65596513D01*
X153405525Y-65728368D01*
X153243010Y-65971589D01*
X153131068Y-66241842D01*
X153074000Y-66528740D01*
X153074000Y-66821260D01*
X153131068Y-67108158D01*
X153243010Y-67378411D01*
X153405525Y-67621632D01*
X153612368Y-67828475D01*
X153786760Y-67945000D01*
X153612368Y-68061525D01*
X153405525Y-68268368D01*
X153243010Y-68511589D01*
X153131068Y-68781842D01*
X153074000Y-69068740D01*
X153074000Y-69361260D01*
X153131068Y-69648158D01*
X153243010Y-69918411D01*
X153405525Y-70161632D01*
X153612368Y-70368475D01*
X153855589Y-70530990D01*
X154125842Y-70642932D01*
X154412740Y-70700000D01*
X154705260Y-70700000D01*
X154992158Y-70642932D01*
X155262411Y-70530990D01*
X155505632Y-70368475D01*
X155712475Y-70161632D01*
X155830100Y-69985594D01*
X156001412Y-70215269D01*
X156217645Y-70410178D01*
X156467748Y-70559157D01*
X156742109Y-70656481D01*
X156972000Y-70535814D01*
X156972000Y-69342000D01*
X157226000Y-69342000D01*
X157226000Y-70535814D01*
X157455891Y-70656481D01*
X157730252Y-70559157D01*
X157980355Y-70410178D01*
X158196588Y-70215269D01*
X158370641Y-69981920D01*
X158495825Y-69719099D01*
X158540476Y-69571890D01*
X158419155Y-69342000D01*
X157226000Y-69342000D01*
X156972000Y-69342000D01*
X156952000Y-69342000D01*
X156952000Y-69088000D01*
X156972000Y-69088000D01*
X156972000Y-69068000D01*
X157226000Y-69068000D01*
X157226000Y-69088000D01*
X158419155Y-69088000D01*
X158540476Y-68858110D01*
X158495825Y-68710901D01*
X158370641Y-68448080D01*
X158196588Y-68214731D01*
X157980355Y-68019822D01*
X157863466Y-67950195D01*
X158045632Y-67828475D01*
X158252475Y-67621632D01*
X158414990Y-67378411D01*
X158526932Y-67108158D01*
X158584000Y-66821260D01*
X158584000Y-66528740D01*
X158526932Y-66241842D01*
X158414990Y-65971589D01*
X158252475Y-65728368D01*
X158045632Y-65521525D01*
X157871240Y-65405000D01*
X158045632Y-65288475D01*
X158252475Y-65081632D01*
X158414990Y-64838411D01*
X158526932Y-64568158D01*
X158584000Y-64281260D01*
X158584000Y-63988740D01*
X158526932Y-63701842D01*
X158414990Y-63431589D01*
X158252475Y-63188368D01*
X158045632Y-62981525D01*
X157802411Y-62819010D01*
X157532158Y-62707068D01*
X157245260Y-62650000D01*
X156952740Y-62650000D01*
X156665842Y-62707068D01*
X156395589Y-62819010D01*
X156152368Y-62981525D01*
X156020513Y-63113380D01*
X155998502Y-63040820D01*
X155939537Y-62930506D01*
X155860185Y-62833815D01*
X155763494Y-62754463D01*
X155653180Y-62695498D01*
X155533482Y-62659188D01*
X155409000Y-62646928D01*
X153709000Y-62646928D01*
X153584518Y-62659188D01*
X153464820Y-62695498D01*
X153354506Y-62754463D01*
X153257815Y-62833815D01*
X153178463Y-62930506D01*
X153119498Y-63040820D01*
X153083188Y-63160518D01*
X153070928Y-63285000D01*
X153060000Y-63285000D01*
X153060000Y-53424373D01*
X153226576Y-53504797D01*
X153526875Y-53582581D01*
X153836577Y-53600284D01*
X154143784Y-53557227D01*
X154436686Y-53455065D01*
X154595977Y-53369923D01*
X154684471Y-53111676D01*
X153771600Y-52198805D01*
X153757458Y-52212948D01*
X153577853Y-52033343D01*
X153591995Y-52019200D01*
X153951205Y-52019200D01*
X154864076Y-52932071D01*
X155122323Y-52843577D01*
X155257197Y-52564224D01*
X155334981Y-52263925D01*
X155352684Y-51954223D01*
X155340053Y-51864096D01*
X158699200Y-51864096D01*
X158699200Y-52174304D01*
X158759718Y-52478552D01*
X158878430Y-52765148D01*
X159050773Y-53023077D01*
X159270123Y-53242427D01*
X159528052Y-53414770D01*
X159814648Y-53533482D01*
X160118896Y-53594000D01*
X160429104Y-53594000D01*
X160733352Y-53533482D01*
X161019948Y-53414770D01*
X161277877Y-53242427D01*
X161497227Y-53023077D01*
X161669570Y-52765148D01*
X161788282Y-52478552D01*
X161848800Y-52174304D01*
X161848800Y-51864096D01*
X161819519Y-51716884D01*
X162708316Y-51716884D01*
X162753316Y-51946011D01*
X162842152Y-52161957D01*
X162971410Y-52356422D01*
X163136123Y-52521934D01*
X163329961Y-52652131D01*
X163545474Y-52742011D01*
X163584256Y-52746803D01*
X163767000Y-52621361D01*
X163767000Y-51530000D01*
X164021000Y-51530000D01*
X164021000Y-52621361D01*
X164203744Y-52746803D01*
X164242526Y-52742011D01*
X164458039Y-52652131D01*
X164651877Y-52521934D01*
X164816590Y-52356422D01*
X164945848Y-52161957D01*
X165034684Y-51946011D01*
X165079684Y-51716884D01*
X164924152Y-51530000D01*
X164021000Y-51530000D01*
X163767000Y-51530000D01*
X162863848Y-51530000D01*
X162708316Y-51716884D01*
X161819519Y-51716884D01*
X161788282Y-51559848D01*
X161669570Y-51273252D01*
X161546535Y-51089116D01*
X162708316Y-51089116D01*
X162863848Y-51276000D01*
X163767000Y-51276000D01*
X163767000Y-50184639D01*
X164021000Y-50184639D01*
X164021000Y-51276000D01*
X164924152Y-51276000D01*
X165079684Y-51089116D01*
X167548316Y-51089116D01*
X167703848Y-51276000D01*
X168607000Y-51276000D01*
X168607000Y-50184639D01*
X168861000Y-50184639D01*
X168861000Y-51276000D01*
X169764152Y-51276000D01*
X169919684Y-51089116D01*
X169874684Y-50859989D01*
X169785848Y-50644043D01*
X169656590Y-50449578D01*
X169491877Y-50284066D01*
X169298039Y-50153869D01*
X169082526Y-50063989D01*
X169043744Y-50059197D01*
X168861000Y-50184639D01*
X168607000Y-50184639D01*
X168424256Y-50059197D01*
X168385474Y-50063989D01*
X168169961Y-50153869D01*
X167976123Y-50284066D01*
X167811410Y-50449578D01*
X167682152Y-50644043D01*
X167593316Y-50859989D01*
X167548316Y-51089116D01*
X165079684Y-51089116D01*
X165034684Y-50859989D01*
X164945848Y-50644043D01*
X164816590Y-50449578D01*
X164651877Y-50284066D01*
X164458039Y-50153869D01*
X164242526Y-50063989D01*
X164203744Y-50059197D01*
X164021000Y-50184639D01*
X163767000Y-50184639D01*
X163584256Y-50059197D01*
X163545474Y-50063989D01*
X163329961Y-50153869D01*
X163136123Y-50284066D01*
X162971410Y-50449578D01*
X162842152Y-50644043D01*
X162753316Y-50859989D01*
X162708316Y-51089116D01*
X161546535Y-51089116D01*
X161497227Y-51015323D01*
X161277877Y-50795973D01*
X161019948Y-50623630D01*
X160733352Y-50504918D01*
X160429104Y-50444400D01*
X160118896Y-50444400D01*
X159814648Y-50504918D01*
X159528052Y-50623630D01*
X159270123Y-50795973D01*
X159050773Y-51015323D01*
X158878430Y-51273252D01*
X158759718Y-51559848D01*
X158699200Y-51864096D01*
X155340053Y-51864096D01*
X155309627Y-51647016D01*
X155207465Y-51354114D01*
X155122323Y-51194823D01*
X154864076Y-51106329D01*
X153951205Y-52019200D01*
X153591995Y-52019200D01*
X153577853Y-52005058D01*
X153757458Y-51825453D01*
X153771600Y-51839595D01*
X154684471Y-50926724D01*
X154595977Y-50668477D01*
X154316624Y-50533603D01*
X154016325Y-50455819D01*
X153706623Y-50438116D01*
X153399416Y-50481173D01*
X153106514Y-50583335D01*
X153060000Y-50608197D01*
X153060000Y-48907797D01*
X153312248Y-49012282D01*
X153616496Y-49072800D01*
X153926704Y-49072800D01*
X154230952Y-49012282D01*
X154517548Y-48893570D01*
X154775477Y-48721227D01*
X154994827Y-48501877D01*
X155167170Y-48243948D01*
X155285882Y-47957352D01*
X155346400Y-47653104D01*
X155346400Y-47342896D01*
X155285882Y-47038648D01*
X155167170Y-46752052D01*
X154994827Y-46494123D01*
X154880704Y-46380000D01*
X159164896Y-46380000D01*
X159050773Y-46494123D01*
%TA.AperFunction,Conductor*%
D24*
G36*
X159050773Y-46494123D02*
G01*
X158878430Y-46752052D01*
X158759718Y-47038648D01*
X158699200Y-47342896D01*
X158699200Y-47653104D01*
X158759718Y-47957352D01*
X158878430Y-48243948D01*
X159050773Y-48501877D01*
X159270123Y-48721227D01*
X159528052Y-48893570D01*
X159814648Y-49012282D01*
X160118896Y-49072800D01*
X160429104Y-49072800D01*
X160733352Y-49012282D01*
X161019948Y-48893570D01*
X161255941Y-48735884D01*
X162280325Y-48735884D01*
X162336176Y-48987185D01*
X162439981Y-49222761D01*
X162587750Y-49433559D01*
X162773804Y-49611478D01*
X162990993Y-49749681D01*
X163230971Y-49842857D01*
X163254600Y-49845910D01*
X163457000Y-49722224D01*
X163457000Y-48530000D01*
X163711000Y-48530000D01*
X163711000Y-49722224D01*
X163913400Y-49845910D01*
X163937029Y-49842857D01*
X164177007Y-49749681D01*
X164394196Y-49611478D01*
X164580250Y-49433559D01*
X164728019Y-49222761D01*
X164831824Y-48987185D01*
X164887675Y-48735884D01*
X167740325Y-48735884D01*
X167796176Y-48987185D01*
X167899981Y-49222761D01*
X168047750Y-49433559D01*
X168233804Y-49611478D01*
X168450993Y-49749681D01*
X168690971Y-49842857D01*
X168714600Y-49845910D01*
X168917000Y-49722224D01*
X168917000Y-48530000D01*
X169171000Y-48530000D01*
X169171000Y-49722224D01*
X169373400Y-49845910D01*
X169397029Y-49842857D01*
X169637007Y-49749681D01*
X169854196Y-49611478D01*
X170040250Y-49433559D01*
X170188019Y-49222761D01*
X170291824Y-48987185D01*
X170347675Y-48735884D01*
X170197573Y-48530000D01*
X169171000Y-48530000D01*
X168917000Y-48530000D01*
X167890427Y-48530000D01*
X167740325Y-48735884D01*
X164887675Y-48735884D01*
X164737573Y-48530000D01*
X163711000Y-48530000D01*
X163457000Y-48530000D01*
X162430427Y-48530000D01*
X162280325Y-48735884D01*
X161255941Y-48735884D01*
X161277877Y-48721227D01*
X161497227Y-48501877D01*
X161669570Y-48243948D01*
X161741573Y-48070116D01*
X162280325Y-48070116D01*
X162430427Y-48276000D01*
X163457000Y-48276000D01*
X163457000Y-47083776D01*
X163711000Y-47083776D01*
X163711000Y-48276000D01*
X164737573Y-48276000D01*
X164887675Y-48070116D01*
X167740325Y-48070116D01*
X167890427Y-48276000D01*
X168917000Y-48276000D01*
X168917000Y-47083776D01*
X169171000Y-47083776D01*
X169171000Y-48276000D01*
X170197573Y-48276000D01*
X170347675Y-48070116D01*
X170291824Y-47818815D01*
X170188019Y-47583239D01*
X170040250Y-47372441D01*
X169854196Y-47194522D01*
X169637007Y-47056319D01*
X169397029Y-46963143D01*
X169373400Y-46960090D01*
X169171000Y-47083776D01*
X168917000Y-47083776D01*
X168714600Y-46960090D01*
X168690971Y-46963143D01*
X168450993Y-47056319D01*
X168233804Y-47194522D01*
X168047750Y-47372441D01*
X167899981Y-47583239D01*
X167796176Y-47818815D01*
X167740325Y-48070116D01*
X164887675Y-48070116D01*
X164831824Y-47818815D01*
X164728019Y-47583239D01*
X164580250Y-47372441D01*
X164394196Y-47194522D01*
X164177007Y-47056319D01*
X163937029Y-46963143D01*
X163913400Y-46960090D01*
X163711000Y-47083776D01*
X163457000Y-47083776D01*
X163254600Y-46960090D01*
X163230971Y-46963143D01*
X162990993Y-47056319D01*
X162773804Y-47194522D01*
X162587750Y-47372441D01*
X162439981Y-47583239D01*
X162336176Y-47818815D01*
X162280325Y-48070116D01*
X161741573Y-48070116D01*
X161788282Y-47957352D01*
X161848800Y-47653104D01*
X161848800Y-47342896D01*
X161788282Y-47038648D01*
X161669570Y-46752052D01*
X161497227Y-46494123D01*
X161383104Y-46380000D01*
X173494241Y-46380000D01*
X173463000Y-46537061D01*
X173463000Y-46740939D01*
X173502774Y-46940898D01*
X173580795Y-47129256D01*
X173694063Y-47298774D01*
X173838226Y-47442937D01*
X174007744Y-47556205D01*
X174196102Y-47634226D01*
X174396061Y-47674000D01*
X174599939Y-47674000D01*
X174799898Y-47634226D01*
X174988256Y-47556205D01*
X175157774Y-47442937D01*
X175201711Y-47399000D01*
X175737199Y-47399000D01*
X180977000Y-52638802D01*
X180977001Y-67947000D01*
X179519711Y-67947000D01*
X179475774Y-67903063D01*
X179306256Y-67789795D01*
X179117898Y-67711774D01*
X178917939Y-67672000D01*
X178714061Y-67672000D01*
X178514102Y-67711774D01*
X178325744Y-67789795D01*
X178156226Y-67903063D01*
X178012063Y-68047226D01*
X177898795Y-68216744D01*
X177820774Y-68405102D01*
X177781000Y-68605061D01*
X177781000Y-68808939D01*
X177820774Y-69008898D01*
X177898795Y-69197256D01*
X178012063Y-69366774D01*
X178156226Y-69510937D01*
X178325744Y-69624205D01*
X178514102Y-69702226D01*
X178714061Y-69742000D01*
X178917939Y-69742000D01*
X179117898Y-69702226D01*
X179306256Y-69624205D01*
X179475774Y-69510937D01*
X179519711Y-69467000D01*
X181033289Y-69467000D01*
X181077226Y-69510937D01*
X181104001Y-69528827D01*
X181104000Y-71630000D01*
X179646711Y-71630000D01*
X179602774Y-71586063D01*
X179433256Y-71472795D01*
X179244898Y-71394774D01*
X179044939Y-71355000D01*
X178841061Y-71355000D01*
X178641102Y-71394774D01*
X178452744Y-71472795D01*
X178283226Y-71586063D01*
X178139063Y-71730226D01*
X178025795Y-71899744D01*
X177947774Y-72088102D01*
X177908000Y-72288061D01*
X177908000Y-72491939D01*
X177947774Y-72691898D01*
X178025795Y-72880256D01*
X178139063Y-73049774D01*
X178183000Y-73093711D01*
X178183001Y-76139197D01*
X176744199Y-77578000D01*
X176682061Y-77578000D01*
X176572501Y-77599793D01*
X176572501Y-75081210D01*
X176616438Y-75037273D01*
X176729706Y-74867755D01*
X176807727Y-74679397D01*
X176847501Y-74479438D01*
X176847501Y-74275560D01*
X176807727Y-74075601D01*
X176729706Y-73887243D01*
X176616438Y-73717725D01*
X176472275Y-73573562D01*
X176302757Y-73460294D01*
X176114399Y-73382273D01*
X175914440Y-73342499D01*
X175710562Y-73342499D01*
X175512000Y-73381995D01*
X175512000Y-72204711D01*
X175555937Y-72160774D01*
X175669205Y-71991256D01*
X175747226Y-71802898D01*
X175787000Y-71602939D01*
X175787000Y-71399061D01*
X175747226Y-71199102D01*
X175669205Y-71010744D01*
X175555937Y-70841226D01*
X175411774Y-70697063D01*
X175242256Y-70583795D01*
X175053898Y-70505774D01*
X174895355Y-70474238D01*
X174898000Y-70460939D01*
X174898000Y-70257061D01*
X174858226Y-70057102D01*
X174780205Y-69868744D01*
X174666937Y-69699226D01*
X174522774Y-69555063D01*
X174353256Y-69441795D01*
X174164898Y-69363774D01*
X174001897Y-69331351D01*
X173969226Y-69167102D01*
X173891205Y-68978744D01*
X173777937Y-68809226D01*
X173633774Y-68665063D01*
X173464256Y-68551795D01*
X173275898Y-68473774D01*
X173075939Y-68434000D01*
X173051802Y-68434000D01*
X173104004Y-68381798D01*
X173133001Y-68358001D01*
X173227974Y-68242276D01*
X173298546Y-68110247D01*
X173342003Y-67966986D01*
X173353000Y-67855333D01*
X173353000Y-67855323D01*
X173356676Y-67818000D01*
X173353000Y-67780677D01*
X173353000Y-65741719D01*
X173390295Y-65831756D01*
X173503563Y-66001274D01*
X173647726Y-66145437D01*
X173817244Y-66258705D01*
X174005602Y-66336726D01*
X174205561Y-66376500D01*
X174409439Y-66376500D01*
X174609398Y-66336726D01*
X174797756Y-66258705D01*
X174967274Y-66145437D01*
X175111437Y-66001274D01*
X175224705Y-65831756D01*
X175302726Y-65643398D01*
X175342500Y-65443439D01*
X175342500Y-65239561D01*
X175302726Y-65039602D01*
X175258000Y-64931625D01*
X175258000Y-52773711D01*
X175301937Y-52729774D01*
X175415205Y-52560256D01*
X175493226Y-52371898D01*
X175533000Y-52171939D01*
X175533000Y-51968061D01*
X175493226Y-51768102D01*
X175415205Y-51579744D01*
X175301937Y-51410226D01*
X175157774Y-51266063D01*
X174988256Y-51152795D01*
X174799898Y-51074774D01*
X174599939Y-51035000D01*
X174396061Y-51035000D01*
X174196102Y-51074774D01*
X174007744Y-51152795D01*
X173838226Y-51266063D01*
X173694063Y-51410226D01*
X173580795Y-51579744D01*
X173502774Y-51768102D01*
X173463000Y-51968061D01*
X173463000Y-52171939D01*
X173502774Y-52371898D01*
X173580795Y-52560256D01*
X173694063Y-52729774D01*
X173738000Y-52773711D01*
X173738000Y-54492199D01*
X173628000Y-54382199D01*
X173628000Y-54320061D01*
X173588226Y-54120102D01*
X173510205Y-53931744D01*
X173396937Y-53762226D01*
X173252774Y-53618063D01*
X173083256Y-53504795D01*
X172894898Y-53426774D01*
X172694939Y-53387000D01*
X172491061Y-53387000D01*
X172291102Y-53426774D01*
X172102744Y-53504795D01*
X171933226Y-53618063D01*
X171789063Y-53762226D01*
X171675795Y-53931744D01*
X171597774Y-54120102D01*
X171558000Y-54320061D01*
X171558000Y-54523939D01*
X171597774Y-54723898D01*
X171675795Y-54912256D01*
X171789063Y-55081774D01*
X171933226Y-55225937D01*
X172102744Y-55339205D01*
X172291102Y-55417226D01*
X172491061Y-55457000D01*
X172553199Y-55457000D01*
X172976001Y-55879803D01*
X172976000Y-63820198D01*
X172081998Y-64714201D01*
X172053000Y-64737999D01*
X172029202Y-64766997D01*
X172029201Y-64766998D01*
X171958026Y-64853724D01*
X171887454Y-64985754D01*
X171843998Y-65129015D01*
X171829324Y-65278000D01*
X171833001Y-65315332D01*
X171833000Y-67503198D01*
X171664198Y-67672000D01*
X171602061Y-67672000D01*
X171402102Y-67711774D01*
X171213744Y-67789795D01*
X171194000Y-67802987D01*
X171194000Y-56964711D01*
X171237937Y-56920774D01*
X171351205Y-56751256D01*
X171429226Y-56562898D01*
X171469000Y-56362939D01*
X171469000Y-56159061D01*
X171429226Y-55959102D01*
X171351205Y-55770744D01*
X171237937Y-55601226D01*
X171093774Y-55457063D01*
X170924256Y-55343795D01*
X170735898Y-55265774D01*
X170535939Y-55226000D01*
X170332061Y-55226000D01*
X170239362Y-55244439D01*
X172378802Y-53105000D01*
X172440939Y-53105000D01*
X172640898Y-53065226D01*
X172829256Y-52987205D01*
X172998774Y-52873937D01*
X173142937Y-52729774D01*
X173256205Y-52560256D01*
X173334226Y-52371898D01*
X173374000Y-52171939D01*
X173374000Y-51968061D01*
X173334226Y-51768102D01*
X173256205Y-51579744D01*
X173142937Y-51410226D01*
X172998774Y-51266063D01*
X172829256Y-51152795D01*
X172640898Y-51074774D01*
X172440939Y-51035000D01*
X172237061Y-51035000D01*
X172037102Y-51074774D01*
X171848744Y-51152795D01*
X171679226Y-51266063D01*
X171535063Y-51410226D01*
X171421795Y-51579744D01*
X171343774Y-51768102D01*
X171304000Y-51968061D01*
X171304000Y-52030198D01*
X169325722Y-54008477D01*
X169319205Y-53992744D01*
X169205937Y-53823226D01*
X169061774Y-53679063D01*
X168908000Y-53576315D01*
X168908000Y-53535711D01*
X168951937Y-53491774D01*
X169065205Y-53322256D01*
X169143226Y-53133898D01*
X169183000Y-52933939D01*
X169183000Y-52730061D01*
X169177498Y-52702403D01*
X169298039Y-52652131D01*
X169491877Y-52521934D01*
X169656590Y-52356422D01*
X169785848Y-52161957D01*
X169874684Y-51946011D01*
X169919684Y-51716884D01*
X169764152Y-51530000D01*
X168861000Y-51530000D01*
X168861000Y-51550000D01*
X168607000Y-51550000D01*
X168607000Y-51530000D01*
X167703848Y-51530000D01*
X167548316Y-51716884D01*
X167593316Y-51946011D01*
X167597134Y-51955293D01*
X167488226Y-52028063D01*
X167344063Y-52172226D01*
X167230795Y-52341744D01*
X167152774Y-52530102D01*
X167113000Y-52730061D01*
X167113000Y-52933939D01*
X167152774Y-53133898D01*
X167230795Y-53322256D01*
X167344063Y-53491774D01*
X167388001Y-53535712D01*
X167388001Y-54191668D01*
X167384324Y-54229000D01*
X167388604Y-54272451D01*
X167367000Y-54381061D01*
X167367000Y-54584939D01*
X167406774Y-54784898D01*
X167484795Y-54973256D01*
X167598063Y-55142774D01*
X167742226Y-55286937D01*
X167911744Y-55400205D01*
X167933453Y-55409197D01*
X167784744Y-55470795D01*
X167615226Y-55584063D01*
X167471063Y-55728226D01*
X167357795Y-55897744D01*
X167279774Y-56086102D01*
X167240000Y-56286061D01*
X167240000Y-56489939D01*
X167279774Y-56689898D01*
X167357795Y-56878256D01*
X167471063Y-57047774D01*
X167515001Y-57091712D01*
X167515000Y-59630608D01*
X166876000Y-60269608D01*
X166876000Y-57949322D01*
X166879676Y-57911999D01*
X166876000Y-57874676D01*
X166876000Y-57874667D01*
X166865003Y-57763014D01*
X166821546Y-57619753D01*
X166750974Y-57487724D01*
X166656001Y-57371999D01*
X166627003Y-57348201D01*
X164865000Y-55586199D01*
X164865000Y-55524061D01*
X164825226Y-55324102D01*
X164747205Y-55135744D01*
X164633937Y-54966226D01*
X164489774Y-54822063D01*
X164320256Y-54708795D01*
X164131898Y-54630774D01*
X163931939Y-54591000D01*
X163728061Y-54591000D01*
X163528102Y-54630774D01*
X163339744Y-54708795D01*
X163170226Y-54822063D01*
X163026063Y-54966226D01*
X162912795Y-55135744D01*
X162834774Y-55324102D01*
X162795000Y-55524061D01*
X162795000Y-55727939D01*
X162834774Y-55927898D01*
X162912795Y-56116256D01*
X163026063Y-56285774D01*
X163170226Y-56429937D01*
X163339744Y-56543205D01*
X163528102Y-56621226D01*
X163728061Y-56661000D01*
X163790199Y-56661000D01*
X165356001Y-58226803D01*
X165356000Y-61153197D01*
X161032998Y-65476201D01*
X161004000Y-65499999D01*
X160980202Y-65528997D01*
X160980201Y-65528998D01*
X160909026Y-65615724D01*
X160838454Y-65747754D01*
X160794998Y-65891015D01*
X160780324Y-66040000D01*
X160784001Y-66077332D01*
X160784000Y-67114289D01*
X160740063Y-67158226D01*
X160626795Y-67327744D01*
X160548774Y-67516102D01*
X160509000Y-67716061D01*
X160509000Y-67919939D01*
X160548774Y-68119898D01*
X160626795Y-68308256D01*
X160740063Y-68477774D01*
X160784000Y-68521711D01*
X160784001Y-75985928D01*
X160317000Y-75985928D01*
X160272000Y-75990360D01*
X160272000Y-62671801D01*
X161986802Y-60957000D01*
X163241289Y-60957000D01*
X163285226Y-61000937D01*
X163454744Y-61114205D01*
X163643102Y-61192226D01*
X163843061Y-61232000D01*
X164046939Y-61232000D01*
X164246898Y-61192226D01*
X164435256Y-61114205D01*
X164604774Y-61000937D01*
X164748937Y-60856774D01*
X164862205Y-60687256D01*
X164940226Y-60498898D01*
X164980000Y-60298939D01*
X164980000Y-60095061D01*
X164940226Y-59895102D01*
X164862205Y-59706744D01*
X164748937Y-59537226D01*
X164604774Y-59393063D01*
X164435256Y-59279795D01*
X164246898Y-59201774D01*
X164046939Y-59162000D01*
X163843061Y-59162000D01*
X163643102Y-59201774D01*
X163454744Y-59279795D01*
X163285226Y-59393063D01*
X163241289Y-59437000D01*
X161709322Y-59437000D01*
X161671999Y-59433324D01*
X161634676Y-59437000D01*
X161634667Y-59437000D01*
X161523014Y-59447997D01*
X161379753Y-59491454D01*
X161247724Y-59562026D01*
X161131999Y-59656999D01*
X161108201Y-59685997D01*
X159001003Y-61793196D01*
X158971999Y-61816999D01*
X158916871Y-61884174D01*
X158877026Y-61932724D01*
X158822317Y-62035076D01*
X158806454Y-62064754D01*
X158762997Y-62208015D01*
X158752000Y-62319668D01*
X158752000Y-62319678D01*
X158748324Y-62357000D01*
X158752000Y-62394322D01*
X158752001Y-76954754D01*
X158633475Y-76777368D01*
X158426632Y-76570525D01*
X158183411Y-76408010D01*
X157913158Y-76296068D01*
X157626260Y-76239000D01*
X157333740Y-76239000D01*
X157046842Y-76296068D01*
X156776589Y-76408010D01*
X156533368Y-76570525D01*
X156401513Y-76702380D01*
X156379502Y-76629820D01*
X156320537Y-76519506D01*
X156241185Y-76422815D01*
X156144494Y-76343463D01*
X156034180Y-76284498D01*
X155914482Y-76248188D01*
X155790000Y-76235928D01*
X154090000Y-76235928D01*
X153965518Y-76248188D01*
X153845820Y-76284498D01*
X153735506Y-76343463D01*
X153638815Y-76422815D01*
X153559463Y-76519506D01*
X153500498Y-76629820D01*
X153464188Y-76749518D01*
X153451928Y-76874000D01*
X153451928Y-78574000D01*
X153464188Y-78698482D01*
X153500498Y-78818180D01*
X153559463Y-78928494D01*
X153638815Y-79025185D01*
X153735506Y-79104537D01*
X153845820Y-79163502D01*
X153926466Y-79187966D01*
X153842412Y-79263731D01*
X153668359Y-79497080D01*
X153543175Y-79759901D01*
X153498524Y-79907110D01*
X153619845Y-80137000D01*
X154813000Y-80137000D01*
X154813000Y-80117000D01*
X155067000Y-80117000D01*
X155067000Y-80137000D01*
X157353000Y-80137000D01*
X157353000Y-80117000D01*
X157607000Y-80117000D01*
X157607000Y-80137000D01*
X157627000Y-80137000D01*
X157627000Y-80391000D01*
X157607000Y-80391000D01*
X157607000Y-82677000D01*
X157627000Y-82677000D01*
X157627000Y-82931000D01*
X157607000Y-82931000D01*
X157607000Y-85217000D01*
X157627000Y-85217000D01*
X157627000Y-85471000D01*
X157607000Y-85471000D01*
X157607000Y-85491000D01*
X157353000Y-85491000D01*
X157353000Y-85471000D01*
X155067000Y-85471000D01*
X155067000Y-85491000D01*
X154813000Y-85491000D01*
X154813000Y-85471000D01*
X153619845Y-85471000D01*
X153498524Y-85700890D01*
X153543175Y-85848099D01*
X153668359Y-86110920D01*
X153842412Y-86344269D01*
X154058645Y-86539178D01*
X154175534Y-86608805D01*
X153993368Y-86730525D01*
X153786525Y-86937368D01*
X153624010Y-87180589D01*
X153512068Y-87450842D01*
X153455000Y-87737740D01*
X153455000Y-88030260D01*
X153512068Y-88317158D01*
X153624010Y-88587411D01*
X153786525Y-88830632D01*
X153993368Y-89037475D01*
X154236589Y-89199990D01*
X154506842Y-89311932D01*
X154793740Y-89369000D01*
X155086260Y-89369000D01*
X155373158Y-89311932D01*
X155643411Y-89199990D01*
X155886632Y-89037475D01*
X156093475Y-88830632D01*
X156210000Y-88656240D01*
X156326525Y-88830632D01*
X156533368Y-89037475D01*
X156776589Y-89199990D01*
X156813091Y-89215110D01*
X156618201Y-89410000D01*
X155866322Y-89410000D01*
X155828999Y-89406324D01*
X155791676Y-89410000D01*
X155791667Y-89410000D01*
X155680014Y-89420997D01*
X155536753Y-89464454D01*
X155404724Y-89535026D01*
X155288999Y-89629999D01*
X155265201Y-89658997D01*
X153060000Y-91864199D01*
X153060000Y-83160890D01*
X153498524Y-83160890D01*
X153543175Y-83308099D01*
X153668359Y-83570920D01*
X153842412Y-83804269D01*
X154058645Y-83999178D01*
X154184255Y-84074000D01*
X154058645Y-84148822D01*
X153842412Y-84343731D01*
X153668359Y-84577080D01*
X153543175Y-84839901D01*
X153498524Y-84987110D01*
X153619845Y-85217000D01*
X154813000Y-85217000D01*
X154813000Y-82931000D01*
X155067000Y-82931000D01*
X155067000Y-85217000D01*
X157353000Y-85217000D01*
X157353000Y-82931000D01*
X155067000Y-82931000D01*
X154813000Y-82931000D01*
X153619845Y-82931000D01*
X153498524Y-83160890D01*
X153060000Y-83160890D01*
X153060000Y-80620890D01*
X153498524Y-80620890D01*
X153543175Y-80768099D01*
X153668359Y-81030920D01*
X153842412Y-81264269D01*
X154058645Y-81459178D01*
X154184255Y-81534000D01*
X154058645Y-81608822D01*
X153842412Y-81803731D01*
X153668359Y-82037080D01*
X153543175Y-82299901D01*
X153498524Y-82447110D01*
X153619845Y-82677000D01*
X154813000Y-82677000D01*
X154813000Y-80391000D01*
X155067000Y-80391000D01*
X155067000Y-82677000D01*
X157353000Y-82677000D01*
X157353000Y-80391000D01*
X155067000Y-80391000D01*
X154813000Y-80391000D01*
X153619845Y-80391000D01*
X153498524Y-80620890D01*
X153060000Y-80620890D01*
X153060000Y-63285000D01*
X153070928Y-63285000D01*
X153070928Y-64985000D01*
X153083188Y-65109482D01*
X153119498Y-65229180D01*
X153178463Y-65339494D01*
X153257815Y-65436185D01*
X153354506Y-65515537D01*
X153464820Y-65574502D01*
X153537380Y-65596513D01*
X153405525Y-65728368D01*
X153243010Y-65971589D01*
X153131068Y-66241842D01*
X153074000Y-66528740D01*
X153074000Y-66821260D01*
X153131068Y-67108158D01*
X153243010Y-67378411D01*
X153405525Y-67621632D01*
X153612368Y-67828475D01*
X153786760Y-67945000D01*
X153612368Y-68061525D01*
X153405525Y-68268368D01*
X153243010Y-68511589D01*
X153131068Y-68781842D01*
X153074000Y-69068740D01*
X153074000Y-69361260D01*
X153131068Y-69648158D01*
X153243010Y-69918411D01*
X153405525Y-70161632D01*
X153612368Y-70368475D01*
X153855589Y-70530990D01*
X154125842Y-70642932D01*
X154412740Y-70700000D01*
X154705260Y-70700000D01*
X154992158Y-70642932D01*
X155262411Y-70530990D01*
X155505632Y-70368475D01*
X155712475Y-70161632D01*
X155830100Y-69985594D01*
X156001412Y-70215269D01*
X156217645Y-70410178D01*
X156467748Y-70559157D01*
X156742109Y-70656481D01*
X156972000Y-70535814D01*
X156972000Y-69342000D01*
X157226000Y-69342000D01*
X157226000Y-70535814D01*
X157455891Y-70656481D01*
X157730252Y-70559157D01*
X157980355Y-70410178D01*
X158196588Y-70215269D01*
X158370641Y-69981920D01*
X158495825Y-69719099D01*
X158540476Y-69571890D01*
X158419155Y-69342000D01*
X157226000Y-69342000D01*
X156972000Y-69342000D01*
X156952000Y-69342000D01*
X156952000Y-69088000D01*
X156972000Y-69088000D01*
X156972000Y-69068000D01*
X157226000Y-69068000D01*
X157226000Y-69088000D01*
X158419155Y-69088000D01*
X158540476Y-68858110D01*
X158495825Y-68710901D01*
X158370641Y-68448080D01*
X158196588Y-68214731D01*
X157980355Y-68019822D01*
X157863466Y-67950195D01*
X158045632Y-67828475D01*
X158252475Y-67621632D01*
X158414990Y-67378411D01*
X158526932Y-67108158D01*
X158584000Y-66821260D01*
X158584000Y-66528740D01*
X158526932Y-66241842D01*
X158414990Y-65971589D01*
X158252475Y-65728368D01*
X158045632Y-65521525D01*
X157871240Y-65405000D01*
X158045632Y-65288475D01*
X158252475Y-65081632D01*
X158414990Y-64838411D01*
X158526932Y-64568158D01*
X158584000Y-64281260D01*
X158584000Y-63988740D01*
X158526932Y-63701842D01*
X158414990Y-63431589D01*
X158252475Y-63188368D01*
X158045632Y-62981525D01*
X157802411Y-62819010D01*
X157532158Y-62707068D01*
X157245260Y-62650000D01*
X156952740Y-62650000D01*
X156665842Y-62707068D01*
X156395589Y-62819010D01*
X156152368Y-62981525D01*
X156020513Y-63113380D01*
X155998502Y-63040820D01*
X155939537Y-62930506D01*
X155860185Y-62833815D01*
X155763494Y-62754463D01*
X155653180Y-62695498D01*
X155533482Y-62659188D01*
X155409000Y-62646928D01*
X153709000Y-62646928D01*
X153584518Y-62659188D01*
X153464820Y-62695498D01*
X153354506Y-62754463D01*
X153257815Y-62833815D01*
X153178463Y-62930506D01*
X153119498Y-63040820D01*
X153083188Y-63160518D01*
X153070928Y-63285000D01*
X153060000Y-63285000D01*
X153060000Y-53424373D01*
X153226576Y-53504797D01*
X153526875Y-53582581D01*
X153836577Y-53600284D01*
X154143784Y-53557227D01*
X154436686Y-53455065D01*
X154595977Y-53369923D01*
X154684471Y-53111676D01*
X153771600Y-52198805D01*
X153757458Y-52212948D01*
X153577853Y-52033343D01*
X153591995Y-52019200D01*
X153951205Y-52019200D01*
X154864076Y-52932071D01*
X155122323Y-52843577D01*
X155257197Y-52564224D01*
X155334981Y-52263925D01*
X155352684Y-51954223D01*
X155340053Y-51864096D01*
X158699200Y-51864096D01*
X158699200Y-52174304D01*
X158759718Y-52478552D01*
X158878430Y-52765148D01*
X159050773Y-53023077D01*
X159270123Y-53242427D01*
X159528052Y-53414770D01*
X159814648Y-53533482D01*
X160118896Y-53594000D01*
X160429104Y-53594000D01*
X160733352Y-53533482D01*
X161019948Y-53414770D01*
X161277877Y-53242427D01*
X161497227Y-53023077D01*
X161669570Y-52765148D01*
X161788282Y-52478552D01*
X161848800Y-52174304D01*
X161848800Y-51864096D01*
X161819519Y-51716884D01*
X162708316Y-51716884D01*
X162753316Y-51946011D01*
X162842152Y-52161957D01*
X162971410Y-52356422D01*
X163136123Y-52521934D01*
X163329961Y-52652131D01*
X163545474Y-52742011D01*
X163584256Y-52746803D01*
X163767000Y-52621361D01*
X163767000Y-51530000D01*
X164021000Y-51530000D01*
X164021000Y-52621361D01*
X164203744Y-52746803D01*
X164242526Y-52742011D01*
X164458039Y-52652131D01*
X164651877Y-52521934D01*
X164816590Y-52356422D01*
X164945848Y-52161957D01*
X165034684Y-51946011D01*
X165079684Y-51716884D01*
X164924152Y-51530000D01*
X164021000Y-51530000D01*
X163767000Y-51530000D01*
X162863848Y-51530000D01*
X162708316Y-51716884D01*
X161819519Y-51716884D01*
X161788282Y-51559848D01*
X161669570Y-51273252D01*
X161546535Y-51089116D01*
X162708316Y-51089116D01*
X162863848Y-51276000D01*
X163767000Y-51276000D01*
X163767000Y-50184639D01*
X164021000Y-50184639D01*
X164021000Y-51276000D01*
X164924152Y-51276000D01*
X165079684Y-51089116D01*
X167548316Y-51089116D01*
X167703848Y-51276000D01*
X168607000Y-51276000D01*
X168607000Y-50184639D01*
X168861000Y-50184639D01*
X168861000Y-51276000D01*
X169764152Y-51276000D01*
X169919684Y-51089116D01*
X169874684Y-50859989D01*
X169785848Y-50644043D01*
X169656590Y-50449578D01*
X169491877Y-50284066D01*
X169298039Y-50153869D01*
X169082526Y-50063989D01*
X169043744Y-50059197D01*
X168861000Y-50184639D01*
X168607000Y-50184639D01*
X168424256Y-50059197D01*
X168385474Y-50063989D01*
X168169961Y-50153869D01*
X167976123Y-50284066D01*
X167811410Y-50449578D01*
X167682152Y-50644043D01*
X167593316Y-50859989D01*
X167548316Y-51089116D01*
X165079684Y-51089116D01*
X165034684Y-50859989D01*
X164945848Y-50644043D01*
X164816590Y-50449578D01*
X164651877Y-50284066D01*
X164458039Y-50153869D01*
X164242526Y-50063989D01*
X164203744Y-50059197D01*
X164021000Y-50184639D01*
X163767000Y-50184639D01*
X163584256Y-50059197D01*
X163545474Y-50063989D01*
X163329961Y-50153869D01*
X163136123Y-50284066D01*
X162971410Y-50449578D01*
X162842152Y-50644043D01*
X162753316Y-50859989D01*
X162708316Y-51089116D01*
X161546535Y-51089116D01*
X161497227Y-51015323D01*
X161277877Y-50795973D01*
X161019948Y-50623630D01*
X160733352Y-50504918D01*
X160429104Y-50444400D01*
X160118896Y-50444400D01*
X159814648Y-50504918D01*
X159528052Y-50623630D01*
X159270123Y-50795973D01*
X159050773Y-51015323D01*
X158878430Y-51273252D01*
X158759718Y-51559848D01*
X158699200Y-51864096D01*
X155340053Y-51864096D01*
X155309627Y-51647016D01*
X155207465Y-51354114D01*
X155122323Y-51194823D01*
X154864076Y-51106329D01*
X153951205Y-52019200D01*
X153591995Y-52019200D01*
X153577853Y-52005058D01*
X153757458Y-51825453D01*
X153771600Y-51839595D01*
X154684471Y-50926724D01*
X154595977Y-50668477D01*
X154316624Y-50533603D01*
X154016325Y-50455819D01*
X153706623Y-50438116D01*
X153399416Y-50481173D01*
X153106514Y-50583335D01*
X153060000Y-50608197D01*
X153060000Y-48907797D01*
X153312248Y-49012282D01*
X153616496Y-49072800D01*
X153926704Y-49072800D01*
X154230952Y-49012282D01*
X154517548Y-48893570D01*
X154775477Y-48721227D01*
X154994827Y-48501877D01*
X155167170Y-48243948D01*
X155285882Y-47957352D01*
X155346400Y-47653104D01*
X155346400Y-47342896D01*
X155285882Y-47038648D01*
X155167170Y-46752052D01*
X154994827Y-46494123D01*
X154880704Y-46380000D01*
X159164896Y-46380000D01*
X159050773Y-46494123D01*
G37*
%TD.AperFunction*%
D23*
X171431000Y-77749061D02*
X171431000Y-77952939D01*
X171470774Y-78152898D01*
X171548795Y-78341256D01*
X171662063Y-78510774D01*
X171706001Y-78554712D01*
X171706000Y-81846289D01*
X171662063Y-81890226D01*
X171548795Y-82059744D01*
X171470774Y-82248102D01*
X171431000Y-82448061D01*
X171431000Y-82651939D01*
X171470774Y-82851898D01*
X171548795Y-83040256D01*
X171662063Y-83209774D01*
X171806226Y-83353937D01*
X171975744Y-83467205D01*
X172164102Y-83545226D01*
X172364061Y-83585000D01*
X172567939Y-83585000D01*
X172693095Y-83560105D01*
X172185200Y-84068001D01*
X172123062Y-84068001D01*
X171923103Y-84107775D01*
X171734745Y-84185796D01*
X171565227Y-84299064D01*
X171421064Y-84443227D01*
X171307796Y-84612745D01*
X171229775Y-84801103D01*
X171190001Y-85001062D01*
X171190001Y-85204940D01*
X171229775Y-85404899D01*
X171307796Y-85593257D01*
X171337023Y-85636999D01*
X170404801Y-85636999D01*
X168273000Y-83505199D01*
X168273000Y-82237711D01*
X168316937Y-82193774D01*
X168430205Y-82024256D01*
X168508226Y-81835898D01*
X168548000Y-81635939D01*
X168548000Y-81432061D01*
X168508226Y-81232102D01*
X168430205Y-81043744D01*
X168316937Y-80874226D01*
X168172774Y-80730063D01*
X168003256Y-80616795D01*
X167814898Y-80538774D01*
X167614939Y-80499000D01*
X167411061Y-80499000D01*
X167211102Y-80538774D01*
X167022744Y-80616795D01*
X166853226Y-80730063D01*
X166709063Y-80874226D01*
X166624000Y-81001532D01*
X166538937Y-80874226D01*
X166495000Y-80830289D01*
X166495000Y-80648799D01*
X169068044Y-78075755D01*
X169139226Y-78146937D01*
X169308744Y-78260205D01*
X169497102Y-78338226D01*
X169697061Y-78378000D01*
X169900939Y-78378000D01*
X170100898Y-78338226D01*
X170289256Y-78260205D01*
X170458774Y-78146937D01*
X170602937Y-78002774D01*
X170716205Y-77833256D01*
X170762289Y-77722000D01*
X171436383Y-77722000D01*
X171431000Y-77749061D01*
%TA.AperFunction,Conductor*%
D24*
G36*
X171431000Y-77749061D02*
G01*
X171431000Y-77952939D01*
X171470774Y-78152898D01*
X171548795Y-78341256D01*
X171662063Y-78510774D01*
X171706001Y-78554712D01*
X171706000Y-81846289D01*
X171662063Y-81890226D01*
X171548795Y-82059744D01*
X171470774Y-82248102D01*
X171431000Y-82448061D01*
X171431000Y-82651939D01*
X171470774Y-82851898D01*
X171548795Y-83040256D01*
X171662063Y-83209774D01*
X171806226Y-83353937D01*
X171975744Y-83467205D01*
X172164102Y-83545226D01*
X172364061Y-83585000D01*
X172567939Y-83585000D01*
X172693095Y-83560105D01*
X172185200Y-84068001D01*
X172123062Y-84068001D01*
X171923103Y-84107775D01*
X171734745Y-84185796D01*
X171565227Y-84299064D01*
X171421064Y-84443227D01*
X171307796Y-84612745D01*
X171229775Y-84801103D01*
X171190001Y-85001062D01*
X171190001Y-85204940D01*
X171229775Y-85404899D01*
X171307796Y-85593257D01*
X171337023Y-85636999D01*
X170404801Y-85636999D01*
X168273000Y-83505199D01*
X168273000Y-82237711D01*
X168316937Y-82193774D01*
X168430205Y-82024256D01*
X168508226Y-81835898D01*
X168548000Y-81635939D01*
X168548000Y-81432061D01*
X168508226Y-81232102D01*
X168430205Y-81043744D01*
X168316937Y-80874226D01*
X168172774Y-80730063D01*
X168003256Y-80616795D01*
X167814898Y-80538774D01*
X167614939Y-80499000D01*
X167411061Y-80499000D01*
X167211102Y-80538774D01*
X167022744Y-80616795D01*
X166853226Y-80730063D01*
X166709063Y-80874226D01*
X166624000Y-81001532D01*
X166538937Y-80874226D01*
X166495000Y-80830289D01*
X166495000Y-80648799D01*
X169068044Y-78075755D01*
X169139226Y-78146937D01*
X169308744Y-78260205D01*
X169497102Y-78338226D01*
X169697061Y-78378000D01*
X169900939Y-78378000D01*
X170100898Y-78338226D01*
X170289256Y-78260205D01*
X170458774Y-78146937D01*
X170602937Y-78002774D01*
X170716205Y-77833256D01*
X170762289Y-77722000D01*
X171436383Y-77722000D01*
X171431000Y-77749061D01*
G37*
%TD.AperFunction*%
D23*
X166366724Y-77922474D02*
X166295250Y-77851000D01*
X164846000Y-77851000D01*
X164846000Y-79300250D01*
X164917474Y-79371724D01*
X163954003Y-80335196D01*
X163924999Y-80358999D01*
X163898737Y-80391000D01*
X163830026Y-80474724D01*
X163776394Y-80575062D01*
X163759454Y-80606754D01*
X163715997Y-80750015D01*
X163709640Y-80814562D01*
X163645938Y-80719225D01*
X163602001Y-80675288D01*
X163602001Y-79460398D01*
X163619000Y-79462072D01*
X164433250Y-79459000D01*
X164592000Y-79300250D01*
X164592000Y-77851000D01*
X164572000Y-77851000D01*
X164572000Y-77597000D01*
X164592000Y-77597000D01*
X164592000Y-77577000D01*
X164846000Y-77577000D01*
X164846000Y-77597000D01*
X166295250Y-77597000D01*
X166454000Y-77438250D01*
X166457072Y-76624000D01*
X166444812Y-76499518D01*
X166408502Y-76379820D01*
X166349537Y-76269506D01*
X166270185Y-76172815D01*
X166173494Y-76093463D01*
X166131469Y-76071000D01*
X168218198Y-76071000D01*
X166366724Y-77922474D01*
%TA.AperFunction,Conductor*%
D24*
G36*
X166366724Y-77922474D02*
G01*
X166295250Y-77851000D01*
X164846000Y-77851000D01*
X164846000Y-79300250D01*
X164917474Y-79371724D01*
X163954003Y-80335196D01*
X163924999Y-80358999D01*
X163898737Y-80391000D01*
X163830026Y-80474724D01*
X163776394Y-80575062D01*
X163759454Y-80606754D01*
X163715997Y-80750015D01*
X163709640Y-80814562D01*
X163645938Y-80719225D01*
X163602001Y-80675288D01*
X163602001Y-79460398D01*
X163619000Y-79462072D01*
X164433250Y-79459000D01*
X164592000Y-79300250D01*
X164592000Y-77851000D01*
X164572000Y-77851000D01*
X164572000Y-77597000D01*
X164592000Y-77597000D01*
X164592000Y-77577000D01*
X164846000Y-77577000D01*
X164846000Y-77597000D01*
X166295250Y-77597000D01*
X166454000Y-77438250D01*
X166457072Y-76624000D01*
X166444812Y-76499518D01*
X166408502Y-76379820D01*
X166349537Y-76269506D01*
X166270185Y-76172815D01*
X166173494Y-76093463D01*
X166131469Y-76071000D01*
X168218198Y-76071000D01*
X166366724Y-77922474D01*
G37*
%TD.AperFunction*%
D23*
X165388001Y-70123679D02*
X165384325Y-70161001D01*
X165388001Y-70198323D01*
X165388001Y-70198333D01*
X165398998Y-70309986D01*
X165442455Y-70453247D01*
X165513000Y-70585226D01*
X165513000Y-70662939D01*
X165552774Y-70862898D01*
X165630795Y-71051256D01*
X165744063Y-71220774D01*
X165888226Y-71364937D01*
X166057744Y-71478205D01*
X166246102Y-71556226D01*
X166446061Y-71596000D01*
X166649939Y-71596000D01*
X166849898Y-71556226D01*
X167038256Y-71478205D01*
X167207774Y-71364937D01*
X167351937Y-71220774D01*
X167465205Y-71051256D01*
X167543226Y-70862898D01*
X167583000Y-70662939D01*
X167583000Y-70459061D01*
X167543226Y-70259102D01*
X167465205Y-70070744D01*
X167351937Y-69901226D01*
X167207774Y-69757063D01*
X167038256Y-69643795D01*
X166908001Y-69589841D01*
X166908001Y-67583000D01*
X166979939Y-67583000D01*
X167179898Y-67543226D01*
X167368256Y-67465205D01*
X167537774Y-67351937D01*
X167681937Y-67207774D01*
X167795205Y-67038256D01*
X167873226Y-66849898D01*
X167913000Y-66649939D01*
X167913000Y-66446061D01*
X167873226Y-66246102D01*
X167795205Y-66057744D01*
X167698615Y-65913186D01*
X169674000Y-63937802D01*
X169674000Y-65545348D01*
X169637255Y-65520796D01*
X169448897Y-65442775D01*
X169248938Y-65403001D01*
X169045060Y-65403001D01*
X168845101Y-65442775D01*
X168656743Y-65520796D01*
X168487225Y-65634064D01*
X168343062Y-65778227D01*
X168229794Y-65947745D01*
X168151773Y-66136103D01*
X168111999Y-66336062D01*
X168111999Y-66539940D01*
X168151773Y-66739899D01*
X168229794Y-66928257D01*
X168343062Y-67097775D01*
X168386999Y-67141712D01*
X168387000Y-71203198D01*
X165689199Y-73901000D01*
X164421711Y-73901000D01*
X164377774Y-73857063D01*
X164208256Y-73743795D01*
X164019898Y-73665774D01*
X163819939Y-73626000D01*
X163616061Y-73626000D01*
X163416102Y-73665774D01*
X163227744Y-73743795D01*
X163058226Y-73857063D01*
X162914063Y-74001226D01*
X162800795Y-74170744D01*
X162722774Y-74359102D01*
X162683000Y-74559061D01*
X162683000Y-74762939D01*
X162722774Y-74962898D01*
X162800795Y-75151256D01*
X162914063Y-75320774D01*
X163058226Y-75464937D01*
X163088820Y-75485379D01*
X162581881Y-75992318D01*
X162517000Y-75985928D01*
X162304000Y-75985928D01*
X162304000Y-68521711D01*
X162347937Y-68477774D01*
X162461205Y-68308256D01*
X162539226Y-68119898D01*
X162579000Y-67919939D01*
X162579000Y-67716061D01*
X162539226Y-67516102D01*
X162461205Y-67327744D01*
X162347937Y-67158226D01*
X162304000Y-67114289D01*
X162304000Y-66354801D01*
X165388002Y-63270801D01*
X165388001Y-70123679D01*
%TA.AperFunction,Conductor*%
D24*
G36*
X165388001Y-70123679D02*
G01*
X165384325Y-70161001D01*
X165388001Y-70198323D01*
X165388001Y-70198333D01*
X165398998Y-70309986D01*
X165442455Y-70453247D01*
X165513000Y-70585226D01*
X165513000Y-70662939D01*
X165552774Y-70862898D01*
X165630795Y-71051256D01*
X165744063Y-71220774D01*
X165888226Y-71364937D01*
X166057744Y-71478205D01*
X166246102Y-71556226D01*
X166446061Y-71596000D01*
X166649939Y-71596000D01*
X166849898Y-71556226D01*
X167038256Y-71478205D01*
X167207774Y-71364937D01*
X167351937Y-71220774D01*
X167465205Y-71051256D01*
X167543226Y-70862898D01*
X167583000Y-70662939D01*
X167583000Y-70459061D01*
X167543226Y-70259102D01*
X167465205Y-70070744D01*
X167351937Y-69901226D01*
X167207774Y-69757063D01*
X167038256Y-69643795D01*
X166908001Y-69589841D01*
X166908001Y-67583000D01*
X166979939Y-67583000D01*
X167179898Y-67543226D01*
X167368256Y-67465205D01*
X167537774Y-67351937D01*
X167681937Y-67207774D01*
X167795205Y-67038256D01*
X167873226Y-66849898D01*
X167913000Y-66649939D01*
X167913000Y-66446061D01*
X167873226Y-66246102D01*
X167795205Y-66057744D01*
X167698615Y-65913186D01*
X169674000Y-63937802D01*
X169674000Y-65545348D01*
X169637255Y-65520796D01*
X169448897Y-65442775D01*
X169248938Y-65403001D01*
X169045060Y-65403001D01*
X168845101Y-65442775D01*
X168656743Y-65520796D01*
X168487225Y-65634064D01*
X168343062Y-65778227D01*
X168229794Y-65947745D01*
X168151773Y-66136103D01*
X168111999Y-66336062D01*
X168111999Y-66539940D01*
X168151773Y-66739899D01*
X168229794Y-66928257D01*
X168343062Y-67097775D01*
X168386999Y-67141712D01*
X168387000Y-71203198D01*
X165689199Y-73901000D01*
X164421711Y-73901000D01*
X164377774Y-73857063D01*
X164208256Y-73743795D01*
X164019898Y-73665774D01*
X163819939Y-73626000D01*
X163616061Y-73626000D01*
X163416102Y-73665774D01*
X163227744Y-73743795D01*
X163058226Y-73857063D01*
X162914063Y-74001226D01*
X162800795Y-74170744D01*
X162722774Y-74359102D01*
X162683000Y-74559061D01*
X162683000Y-74762939D01*
X162722774Y-74962898D01*
X162800795Y-75151256D01*
X162914063Y-75320774D01*
X163058226Y-75464937D01*
X163088820Y-75485379D01*
X162581881Y-75992318D01*
X162517000Y-75985928D01*
X162304000Y-75985928D01*
X162304000Y-68521711D01*
X162347937Y-68477774D01*
X162461205Y-68308256D01*
X162539226Y-68119898D01*
X162579000Y-67919939D01*
X162579000Y-67716061D01*
X162539226Y-67516102D01*
X162461205Y-67327744D01*
X162347937Y-67158226D01*
X162304000Y-67114289D01*
X162304000Y-66354801D01*
X165388002Y-63270801D01*
X165388001Y-70123679D01*
G37*
%TD.AperFunction*%
%TD*%
M02*
