%TF.GenerationSoftware,KiCad,Pcbnew,(5.1.9)-1*%
%TF.CreationDate,2021-05-10T23:50:46-04:00*%
%TF.ProjectId,main,6d61696e-2e6b-4696-9361-645f70636258,rev?*%
%TF.SameCoordinates,Original*%
%TF.FileFunction,Copper,L1,Top*%
%TF.FilePolarity,Positive*%
%FSLAX46Y46*%
G04 Gerber Fmt 4.6, Leading zero omitted, Abs format (unit mm)*
G04 Created by KiCad (PCBNEW (5.1.9)-1) date 2021-05-10 23:50:46*
%MOMM*%
%LPD*%
G01*
G04 APERTURE LIST*
%TA.AperFunction,ComponentPad*%
%ADD10O,1.700000X1.700000*%
%TD*%
%TA.AperFunction,ComponentPad*%
%ADD11R,1.700000X1.700000*%
%TD*%
%TA.AperFunction,ComponentPad*%
%ADD12R,2.200000X2.200000*%
%TD*%
%TA.AperFunction,ComponentPad*%
%ADD13O,2.200000X2.200000*%
%TD*%
%TA.AperFunction,ComponentPad*%
%ADD14R,1.600000X1.600000*%
%TD*%
%TA.AperFunction,ComponentPad*%
%ADD15O,1.600000X1.600000*%
%TD*%
%TA.AperFunction,ComponentPad*%
%ADD16O,1.100000X1.500000*%
%TD*%
%TA.AperFunction,ComponentPad*%
%ADD17O,1.350000X1.700000*%
%TD*%
%TA.AperFunction,ComponentPad*%
%ADD18C,2.130000*%
%TD*%
%TA.AperFunction,ComponentPad*%
%ADD19R,1.930000X1.830000*%
%TD*%
%TA.AperFunction,ComponentPad*%
%ADD20C,1.879600*%
%TD*%
%TA.AperFunction,ViaPad*%
%ADD21C,0.800000*%
%TD*%
%TA.AperFunction,Conductor*%
%ADD22C,0.250000*%
%TD*%
%TA.AperFunction,Conductor*%
%ADD23C,0.254000*%
%TD*%
%TA.AperFunction,Conductor*%
%ADD24C,0.100000*%
%TD*%
G04 APERTURE END LIST*
D10*
%TO.P,J15,6*%
%TO.N,GND*%
X171069000Y-89535000D03*
%TO.P,J15,5*%
%TO.N,RST*%
X168529000Y-89535000D03*
%TO.P,J15,4*%
%TO.N,MOSI*%
X171069000Y-86995000D03*
%TO.P,J15,3*%
%TO.N,SCK*%
X168529000Y-86995000D03*
%TO.P,J15,2*%
%TO.N,+5V*%
X171069000Y-84455000D03*
D11*
%TO.P,J15,1*%
%TO.N,MISO*%
X168529000Y-84455000D03*
%TD*%
D10*
%TO.P,J2,10*%
%TO.N,-12V*%
X157480000Y-87884000D03*
%TO.P,J2,9*%
X154940000Y-87884000D03*
%TO.P,J2,8*%
%TO.N,GND*%
X157480000Y-85344000D03*
%TO.P,J2,7*%
X154940000Y-85344000D03*
%TO.P,J2,6*%
X157480000Y-82804000D03*
%TO.P,J2,5*%
X154940000Y-82804000D03*
%TO.P,J2,4*%
X157480000Y-80264000D03*
%TO.P,J2,3*%
X154940000Y-80264000D03*
%TO.P,J2,2*%
%TO.N,+12V*%
X157480000Y-77724000D03*
D11*
%TO.P,J2,1*%
X154940000Y-77724000D03*
%TD*%
D12*
%TO.P,D1,1*%
%TO.N,+12V*%
X161417000Y-77724000D03*
D13*
%TO.P,D1,2*%
%TO.N,GND*%
X161417000Y-87884000D03*
%TD*%
%TO.P,D2,2*%
%TO.N,-12V*%
X164719000Y-87884000D03*
D12*
%TO.P,D2,1*%
%TO.N,GND*%
X164719000Y-77724000D03*
%TD*%
D14*
%TO.P,D9,1*%
%TO.N,Net-(D9-Pad1)*%
X160274000Y-101854000D03*
D15*
%TO.P,D9,2*%
%TO.N,GND*%
X160274000Y-94234000D03*
%TD*%
%TO.P,D10,2*%
%TO.N,GND*%
X160274000Y-108966000D03*
D14*
%TO.P,D10,1*%
%TO.N,Net-(D10-Pad1)*%
X160274000Y-116586000D03*
%TD*%
D15*
%TO.P,D11,2*%
%TO.N,GND*%
X160147000Y-138430000D03*
D14*
%TO.P,D11,1*%
%TO.N,Net-(D11-Pad1)*%
X160147000Y-146050000D03*
%TD*%
%TO.P,D12,1*%
%TO.N,Net-(D12-Pad1)*%
X160274000Y-131318000D03*
D15*
%TO.P,D12,2*%
%TO.N,GND*%
X160274000Y-123698000D03*
%TD*%
D16*
%TO.P,J1,6*%
%TO.N,GND*%
X168911000Y-51848000D03*
X164071000Y-51848000D03*
D17*
X169221000Y-54848000D03*
X163761000Y-54848000D03*
%TD*%
D18*
%TO.P,J3,TN*%
%TO.N,N/C*%
X177800000Y-112066000D03*
D19*
%TO.P,J3,S*%
%TO.N,GND*%
X177800000Y-108966000D03*
D18*
%TO.P,J3,T*%
%TO.N,Net-(J3-PadT)*%
X177800000Y-120366000D03*
%TD*%
%TO.P,J4,T*%
%TO.N,Net-(J4-PadT)*%
X177800000Y-135098000D03*
D19*
%TO.P,J4,S*%
%TO.N,GND*%
X177800000Y-123698000D03*
D18*
%TO.P,J4,TN*%
%TO.N,N/C*%
X177800000Y-126798000D03*
%TD*%
%TO.P,J5,T*%
%TO.N,Net-(J5-PadT)*%
X177800000Y-149830000D03*
D19*
%TO.P,J5,S*%
%TO.N,GND*%
X177800000Y-138430000D03*
D18*
%TO.P,J5,TN*%
%TO.N,N/C*%
X177800000Y-141530000D03*
%TD*%
%TO.P,J6,TN*%
%TO.N,N/C*%
X177800000Y-97334000D03*
D19*
%TO.P,J6,S*%
%TO.N,GND*%
X177800000Y-94234000D03*
D18*
%TO.P,J6,T*%
%TO.N,Net-(J6-PadT)*%
X177800000Y-105634000D03*
%TD*%
%TO.P,J7,TN*%
%TO.N,N/C*%
X167640000Y-97334000D03*
D19*
%TO.P,J7,S*%
%TO.N,GND*%
X167640000Y-94234000D03*
D18*
%TO.P,J7,T*%
%TO.N,Net-(J7-PadT)*%
X167640000Y-105634000D03*
%TD*%
%TO.P,J8,TN*%
%TO.N,N/C*%
X167640000Y-112066000D03*
D19*
%TO.P,J8,S*%
%TO.N,GND*%
X167640000Y-108966000D03*
D18*
%TO.P,J8,T*%
%TO.N,Net-(J8-PadT)*%
X167640000Y-120366000D03*
%TD*%
%TO.P,J9,TN*%
%TO.N,N/C*%
X167640000Y-126828000D03*
D19*
%TO.P,J9,S*%
%TO.N,GND*%
X167640000Y-123728000D03*
D18*
%TO.P,J9,T*%
%TO.N,Net-(J9-PadT)*%
X167640000Y-135128000D03*
%TD*%
%TO.P,J10,T*%
%TO.N,Net-(J10-PadT)*%
X167640000Y-149830000D03*
D19*
%TO.P,J10,S*%
%TO.N,GND*%
X167640000Y-138430000D03*
D18*
%TO.P,J10,TN*%
%TO.N,N/C*%
X167640000Y-141530000D03*
%TD*%
%TO.P,J11,T*%
%TO.N,Net-(J11-PadT)*%
X157480000Y-105634000D03*
D19*
%TO.P,J11,S*%
%TO.N,GND*%
X157480000Y-94234000D03*
D18*
%TO.P,J11,TN*%
%TO.N,N/C*%
X157480000Y-97334000D03*
%TD*%
%TO.P,J12,TN*%
%TO.N,N/C*%
X157480000Y-112066000D03*
D19*
%TO.P,J12,S*%
%TO.N,GND*%
X157480000Y-108966000D03*
D18*
%TO.P,J12,T*%
%TO.N,Net-(J12-PadT)*%
X157480000Y-120366000D03*
%TD*%
%TO.P,J13,T*%
%TO.N,Net-(J13-PadT)*%
X157480000Y-149830000D03*
D19*
%TO.P,J13,S*%
%TO.N,GND*%
X157480000Y-138430000D03*
D18*
%TO.P,J13,TN*%
%TO.N,N/C*%
X157480000Y-141530000D03*
%TD*%
%TO.P,J14,T*%
%TO.N,Net-(J14-PadT)*%
X157480000Y-135128000D03*
D19*
%TO.P,J14,S*%
%TO.N,GND*%
X157480000Y-123728000D03*
D18*
%TO.P,J14,TN*%
%TO.N,N/C*%
X157480000Y-126828000D03*
%TD*%
D20*
%TO.P,RESET1,1*%
%TO.N,GND*%
X153974800Y-57378600D03*
%TO.P,RESET1,2*%
%TO.N,N/C*%
X160477200Y-57378600D03*
%TO.P,RESET1,3*%
%TO.N,RST*%
X153974800Y-52857400D03*
%TO.P,RESET1,4*%
%TO.N,N/C*%
X160477200Y-52857400D03*
%TD*%
D21*
%TO.N,Net-(R1-Pad1)*%
X163068000Y-60325000D03*
%TO.N,+12V*%
X167513000Y-79502000D03*
%TO.N,GND*%
X156210000Y-62103000D03*
X162687000Y-65918000D03*
X169418000Y-79502000D03*
X178054000Y-78994000D03*
%TO.N,+5V*%
X154813000Y-136652000D03*
X154813000Y-121666000D03*
X154813000Y-92456000D03*
X154813000Y-107061000D03*
X167132000Y-58523500D03*
X162433000Y-64135000D03*
X164782500Y-74930000D03*
X161561997Y-85580003D03*
%TO.N,-12V*%
X165862000Y-90805000D03*
X175260000Y-87122000D03*
%TO.N,CVA*%
X173736000Y-92075000D03*
X173736000Y-81915000D03*
%TO.N,CVB*%
X172415000Y-76149000D03*
X174498000Y-93091000D03*
%TO.N,CVC*%
X175260000Y-94361000D03*
X171196000Y-76200000D03*
%TO.N,CVD*%
X169418000Y-76073000D03*
X176149000Y-95885000D03*
%TO.N,Trigger1*%
X174402750Y-70326250D03*
X168275000Y-92202000D03*
%TO.N,Trigger2*%
X173037500Y-68834000D03*
X163293999Y-102968999D03*
%TO.N,Trigger4*%
X174015500Y-68034000D03*
X165481000Y-103695500D03*
%TO.N,Trigger3*%
X164084000Y-73865000D03*
X154305000Y-100076000D03*
%TO.N,Net-(R1-Pad1)*%
X166497000Y-70485000D03*
%TO.N,Net-(R4-Pad2)*%
X167386000Y-67310000D03*
X174117000Y-59713500D03*
%TO.N,SCL*%
X174371000Y-64643000D03*
X178943000Y-70508500D03*
%TO.N,SDA*%
X173215000Y-64630000D03*
X178943000Y-74191500D03*
%TO.N,Net-(R11-Pad2)*%
X181356000Y-140589000D03*
X175325000Y-84580500D03*
%TO.N,RST*%
X157581600Y-52857400D03*
X153416000Y-90678000D03*
%TD*%
D22*
%TO.N,+5V*%
X154813000Y-136652000D02*
X154813000Y-136652000D01*
X154813000Y-121666000D02*
X154813000Y-136652000D01*
X157734000Y-91440000D02*
X155829000Y-91440000D01*
X154813000Y-92456000D02*
X154813000Y-92456000D01*
X159004000Y-90170000D02*
X157734000Y-91440000D01*
X159004000Y-88187998D02*
X159004000Y-90170000D01*
X161561997Y-85630001D02*
X159004000Y-88187998D01*
X154813000Y-113919000D02*
X154813000Y-121666000D01*
X155829000Y-91440000D02*
X154813000Y-92456000D01*
X154813000Y-113742202D02*
X154813000Y-113919000D01*
X154813000Y-107061000D02*
X154813000Y-113919000D01*
X161561997Y-85630001D02*
X161561997Y-85580003D01*
X161561997Y-81932997D02*
X159639000Y-80010000D01*
X159639000Y-80010000D02*
X159639000Y-76708000D01*
X159639000Y-76708000D02*
X162052000Y-74295000D01*
X162433000Y-64135000D02*
X161290000Y-62992000D01*
X161290000Y-62992000D02*
X161290000Y-60325000D01*
X161290000Y-60325000D02*
X162306000Y-59309000D01*
X166346500Y-59309000D02*
X167132000Y-58523500D01*
X162306000Y-59309000D02*
X166346500Y-59309000D01*
X162052000Y-74295000D02*
X163258500Y-74295000D01*
X163258500Y-74295000D02*
X163449000Y-74295000D01*
X163449000Y-74295000D02*
X164084000Y-74930000D01*
X164084000Y-74930000D02*
X164782500Y-74930000D01*
X164782500Y-74930000D02*
X164782500Y-74930000D01*
X155384500Y-106489500D02*
X154813000Y-107061000D01*
X155384500Y-98552000D02*
X155384500Y-106489500D01*
X154813000Y-97980500D02*
X155384500Y-98552000D01*
X154813000Y-92456000D02*
X154813000Y-97980500D01*
X161561997Y-85580003D02*
X161561997Y-81932997D01*
%TO.N,-12V*%
X165862000Y-90805000D02*
X168148000Y-90805000D01*
X168148000Y-90805000D02*
X176403000Y-99060000D01*
X179190001Y-91617003D02*
X175260000Y-87687002D01*
X179190001Y-98001201D02*
X179190001Y-91617003D01*
X178131202Y-99060000D02*
X179190001Y-98001201D01*
X176403000Y-99060000D02*
X178131202Y-99060000D01*
X175260000Y-87687002D02*
X175260000Y-87122000D01*
X175260000Y-87122000D02*
X175260000Y-87122000D01*
%TO.N,CVA*%
X173736000Y-81915000D02*
X173736000Y-81915000D01*
X173736000Y-81915000D02*
X173736000Y-92075000D01*
%TO.N,CVB*%
X174498000Y-93091000D02*
X173545500Y-93091000D01*
X173010999Y-92556499D02*
X173010999Y-81316999D01*
X173545500Y-93091000D02*
X173010999Y-92556499D01*
X172415000Y-80721000D02*
X172415000Y-76149000D01*
X173010999Y-81316999D02*
X172415000Y-80721000D01*
%TO.N,CVC*%
X171972001Y-75423999D02*
X171196000Y-76200000D01*
X172763001Y-75423999D02*
X171972001Y-75423999D01*
X173140001Y-75800999D02*
X172763001Y-75423999D01*
X173140001Y-80245999D02*
X173140001Y-75800999D01*
X174461001Y-91726999D02*
X174461001Y-81566999D01*
X175260000Y-92525998D02*
X174461001Y-91726999D01*
X174461001Y-81566999D02*
X173140001Y-80245999D01*
X175260000Y-94361000D02*
X175260000Y-92525998D01*
%TO.N,CVD*%
X170143001Y-76798001D02*
X170143001Y-80544501D01*
X169418000Y-76073000D02*
X170143001Y-76798001D01*
X172560990Y-92862675D02*
X175583315Y-95885000D01*
X172560989Y-82962489D02*
X172560990Y-92862675D01*
X175583315Y-95885000D02*
X176149000Y-95885000D01*
X170143001Y-80544501D02*
X172560989Y-82962489D01*
%TO.N,Trigger1*%
X166185998Y-92202000D02*
X168275000Y-92202000D01*
X165136999Y-91153001D02*
X166185998Y-92202000D01*
X165136999Y-90456999D02*
X165136999Y-91153001D01*
X166179500Y-89414498D02*
X165136999Y-90456999D01*
X166179500Y-77983815D02*
X166179500Y-89414498D01*
X173837065Y-70326250D02*
X166179500Y-77983815D01*
X174402750Y-70326250D02*
X173837065Y-70326250D01*
%TO.N,Trigger2*%
X163293999Y-76363999D02*
X163293999Y-79283499D01*
X163358999Y-76298999D02*
X163293999Y-76363999D01*
X165572501Y-76298999D02*
X163358999Y-76298999D01*
X173037500Y-68834000D02*
X165572501Y-76298999D01*
X163293999Y-79283499D02*
X164973000Y-80962500D01*
X163293999Y-87199999D02*
X163293999Y-102968999D01*
X164973000Y-85520998D02*
X163293999Y-87199999D01*
X164973000Y-80962500D02*
X164973000Y-85520998D01*
X163293999Y-102968999D02*
X163293999Y-102968999D01*
%TO.N,Trigger4*%
X162842001Y-76179587D02*
X162842001Y-80038001D01*
X163172598Y-75848990D02*
X162842001Y-76179587D01*
X164936513Y-75848989D02*
X163172598Y-75848990D01*
X172751502Y-68034000D02*
X164936513Y-75848989D01*
X174015500Y-68034000D02*
X172751502Y-68034000D01*
X162842001Y-80038001D02*
X163893500Y-81089500D01*
X162568998Y-103317000D02*
X162947498Y-103695500D01*
X162568998Y-102620998D02*
X162568998Y-103317000D01*
X162843989Y-87013599D02*
X162843989Y-102346007D01*
X163893500Y-85964088D02*
X162843989Y-87013599D01*
X162843989Y-102346007D02*
X162568998Y-102620998D01*
X163893500Y-81089500D02*
X163893500Y-85964088D01*
X162947498Y-103695500D02*
X165481000Y-103695500D01*
X165481000Y-103695500D02*
X165481000Y-103695500D01*
%TO.N,Trigger3*%
X163635400Y-73844990D02*
X159263510Y-73844990D01*
X163655410Y-73865000D02*
X163635400Y-73844990D01*
X164084000Y-73865000D02*
X163655410Y-73865000D01*
X156115001Y-90080997D02*
X154051000Y-92144998D01*
X156115001Y-76993499D02*
X156115001Y-90080997D01*
X159263510Y-73844990D02*
X156115001Y-76993499D01*
X154051000Y-92144998D02*
X154051000Y-99758500D01*
X154051000Y-99758500D02*
X154051000Y-99822000D01*
X154051000Y-99822000D02*
X154305000Y-100076000D01*
X154305000Y-100076000D02*
X154305000Y-100076000D01*
%TO.N,Net-(R1-Pad1)*%
X163467999Y-60724999D02*
X163467999Y-67455999D01*
X163068000Y-60325000D02*
X163467999Y-60724999D01*
X163467999Y-67455999D02*
X166497000Y-70485000D01*
X166497000Y-70485000D02*
X166497000Y-70485000D01*
%TO.N,Net-(R4-Pad2)*%
X167386000Y-67310000D02*
X167386000Y-67310000D01*
X174117000Y-60579000D02*
X167386000Y-67310000D01*
X174117000Y-59713500D02*
X174117000Y-60579000D01*
%TO.N,SCL*%
X174371000Y-64643000D02*
X177165000Y-64643000D01*
X178943000Y-66421000D02*
X178943000Y-70508500D01*
X177165000Y-64643000D02*
X178943000Y-66421000D01*
%TO.N,SDA*%
X173215000Y-64630000D02*
X173215000Y-64630000D01*
X173215000Y-64630000D02*
X175514000Y-66929000D01*
X175514000Y-66929000D02*
X177546000Y-66929000D01*
X177546000Y-66929000D02*
X177927000Y-67310000D01*
X177927000Y-73175500D02*
X178943000Y-74191500D01*
X177927000Y-67310000D02*
X177927000Y-73175500D01*
%TO.N,Net-(R11-Pad2)*%
X175325000Y-84580500D02*
X181232000Y-90487500D01*
X181232000Y-140465000D02*
X181356000Y-140589000D01*
X181232000Y-90487500D02*
X181232000Y-140465000D01*
%TO.N,RST*%
X157581600Y-52857400D02*
X157581600Y-56159400D01*
X157581600Y-56159400D02*
X152750010Y-60990990D01*
X152750010Y-60990990D02*
X152750010Y-90012010D01*
X152750010Y-90012010D02*
X153416000Y-90678000D01*
X153416000Y-90678000D02*
X153416000Y-90678000D01*
%TD*%
D23*
%TO.N,GND*%
X175223061Y-85615500D02*
X175285199Y-85615500D01*
X180472000Y-90802302D01*
X180472001Y-140049048D01*
X180438795Y-140098744D01*
X180360774Y-140287102D01*
X180321000Y-140487061D01*
X180321000Y-140690939D01*
X180360774Y-140890898D01*
X180438795Y-141079256D01*
X180552063Y-141248774D01*
X180696226Y-141392937D01*
X180865744Y-141506205D01*
X181054102Y-141584226D01*
X181254061Y-141624000D01*
X181457939Y-141624000D01*
X181657898Y-141584226D01*
X181846256Y-141506205D01*
X182015774Y-141392937D01*
X182159937Y-141248774D01*
X182220000Y-141158883D01*
X182220000Y-151740000D01*
X153060000Y-151740000D01*
X153060000Y-149662565D01*
X155780000Y-149662565D01*
X155780000Y-149997435D01*
X155845330Y-150325872D01*
X155973479Y-150635252D01*
X156159523Y-150913687D01*
X156396313Y-151150477D01*
X156674748Y-151336521D01*
X156984128Y-151464670D01*
X157312565Y-151530000D01*
X157647435Y-151530000D01*
X157975872Y-151464670D01*
X158285252Y-151336521D01*
X158563687Y-151150477D01*
X158800477Y-150913687D01*
X158986521Y-150635252D01*
X159114670Y-150325872D01*
X159180000Y-149997435D01*
X159180000Y-149662565D01*
X165940000Y-149662565D01*
X165940000Y-149997435D01*
X166005330Y-150325872D01*
X166133479Y-150635252D01*
X166319523Y-150913687D01*
X166556313Y-151150477D01*
X166834748Y-151336521D01*
X167144128Y-151464670D01*
X167472565Y-151530000D01*
X167807435Y-151530000D01*
X168135872Y-151464670D01*
X168445252Y-151336521D01*
X168723687Y-151150477D01*
X168960477Y-150913687D01*
X169146521Y-150635252D01*
X169274670Y-150325872D01*
X169340000Y-149997435D01*
X169340000Y-149662565D01*
X176100000Y-149662565D01*
X176100000Y-149997435D01*
X176165330Y-150325872D01*
X176293479Y-150635252D01*
X176479523Y-150913687D01*
X176716313Y-151150477D01*
X176994748Y-151336521D01*
X177304128Y-151464670D01*
X177632565Y-151530000D01*
X177967435Y-151530000D01*
X178295872Y-151464670D01*
X178605252Y-151336521D01*
X178883687Y-151150477D01*
X179120477Y-150913687D01*
X179306521Y-150635252D01*
X179434670Y-150325872D01*
X179500000Y-149997435D01*
X179500000Y-149662565D01*
X179434670Y-149334128D01*
X179306521Y-149024748D01*
X179120477Y-148746313D01*
X178883687Y-148509523D01*
X178605252Y-148323479D01*
X178295872Y-148195330D01*
X177967435Y-148130000D01*
X177632565Y-148130000D01*
X177304128Y-148195330D01*
X176994748Y-148323479D01*
X176716313Y-148509523D01*
X176479523Y-148746313D01*
X176293479Y-149024748D01*
X176165330Y-149334128D01*
X176100000Y-149662565D01*
X169340000Y-149662565D01*
X169274670Y-149334128D01*
X169146521Y-149024748D01*
X168960477Y-148746313D01*
X168723687Y-148509523D01*
X168445252Y-148323479D01*
X168135872Y-148195330D01*
X167807435Y-148130000D01*
X167472565Y-148130000D01*
X167144128Y-148195330D01*
X166834748Y-148323479D01*
X166556313Y-148509523D01*
X166319523Y-148746313D01*
X166133479Y-149024748D01*
X166005330Y-149334128D01*
X165940000Y-149662565D01*
X159180000Y-149662565D01*
X159114670Y-149334128D01*
X158986521Y-149024748D01*
X158800477Y-148746313D01*
X158563687Y-148509523D01*
X158285252Y-148323479D01*
X157975872Y-148195330D01*
X157647435Y-148130000D01*
X157312565Y-148130000D01*
X156984128Y-148195330D01*
X156674748Y-148323479D01*
X156396313Y-148509523D01*
X156159523Y-148746313D01*
X155973479Y-149024748D01*
X155845330Y-149334128D01*
X155780000Y-149662565D01*
X153060000Y-149662565D01*
X153060000Y-145250000D01*
X158708928Y-145250000D01*
X158708928Y-146850000D01*
X158721188Y-146974482D01*
X158757498Y-147094180D01*
X158816463Y-147204494D01*
X158895815Y-147301185D01*
X158992506Y-147380537D01*
X159102820Y-147439502D01*
X159222518Y-147475812D01*
X159347000Y-147488072D01*
X160947000Y-147488072D01*
X161071482Y-147475812D01*
X161191180Y-147439502D01*
X161301494Y-147380537D01*
X161398185Y-147301185D01*
X161477537Y-147204494D01*
X161536502Y-147094180D01*
X161572812Y-146974482D01*
X161585072Y-146850000D01*
X161585072Y-145250000D01*
X161572812Y-145125518D01*
X161536502Y-145005820D01*
X161477537Y-144895506D01*
X161398185Y-144798815D01*
X161301494Y-144719463D01*
X161191180Y-144660498D01*
X161071482Y-144624188D01*
X160947000Y-144611928D01*
X159347000Y-144611928D01*
X159222518Y-144624188D01*
X159102820Y-144660498D01*
X158992506Y-144719463D01*
X158895815Y-144798815D01*
X158816463Y-144895506D01*
X158757498Y-145005820D01*
X158721188Y-145125518D01*
X158708928Y-145250000D01*
X153060000Y-145250000D01*
X153060000Y-141362565D01*
X155780000Y-141362565D01*
X155780000Y-141697435D01*
X155845330Y-142025872D01*
X155973479Y-142335252D01*
X156159523Y-142613687D01*
X156396313Y-142850477D01*
X156674748Y-143036521D01*
X156984128Y-143164670D01*
X157312565Y-143230000D01*
X157647435Y-143230000D01*
X157975872Y-143164670D01*
X158285252Y-143036521D01*
X158563687Y-142850477D01*
X158800477Y-142613687D01*
X158986521Y-142335252D01*
X159114670Y-142025872D01*
X159180000Y-141697435D01*
X159180000Y-141362565D01*
X165940000Y-141362565D01*
X165940000Y-141697435D01*
X166005330Y-142025872D01*
X166133479Y-142335252D01*
X166319523Y-142613687D01*
X166556313Y-142850477D01*
X166834748Y-143036521D01*
X167144128Y-143164670D01*
X167472565Y-143230000D01*
X167807435Y-143230000D01*
X168135872Y-143164670D01*
X168445252Y-143036521D01*
X168723687Y-142850477D01*
X168960477Y-142613687D01*
X169146521Y-142335252D01*
X169274670Y-142025872D01*
X169340000Y-141697435D01*
X169340000Y-141362565D01*
X176100000Y-141362565D01*
X176100000Y-141697435D01*
X176165330Y-142025872D01*
X176293479Y-142335252D01*
X176479523Y-142613687D01*
X176716313Y-142850477D01*
X176994748Y-143036521D01*
X177304128Y-143164670D01*
X177632565Y-143230000D01*
X177967435Y-143230000D01*
X178295872Y-143164670D01*
X178605252Y-143036521D01*
X178883687Y-142850477D01*
X179120477Y-142613687D01*
X179306521Y-142335252D01*
X179434670Y-142025872D01*
X179500000Y-141697435D01*
X179500000Y-141362565D01*
X179434670Y-141034128D01*
X179306521Y-140724748D01*
X179120477Y-140446313D01*
X178883687Y-140209523D01*
X178605252Y-140023479D01*
X178504860Y-139981895D01*
X178765000Y-139983072D01*
X178889482Y-139970812D01*
X179009180Y-139934502D01*
X179119494Y-139875537D01*
X179216185Y-139796185D01*
X179295537Y-139699494D01*
X179354502Y-139589180D01*
X179390812Y-139469482D01*
X179403072Y-139345000D01*
X179400000Y-138715750D01*
X179241250Y-138557000D01*
X177927000Y-138557000D01*
X177927000Y-138577000D01*
X177673000Y-138577000D01*
X177673000Y-138557000D01*
X176358750Y-138557000D01*
X176200000Y-138715750D01*
X176196928Y-139345000D01*
X176209188Y-139469482D01*
X176245498Y-139589180D01*
X176304463Y-139699494D01*
X176383815Y-139796185D01*
X176480506Y-139875537D01*
X176590820Y-139934502D01*
X176710518Y-139970812D01*
X176835000Y-139983072D01*
X177095140Y-139981895D01*
X176994748Y-140023479D01*
X176716313Y-140209523D01*
X176479523Y-140446313D01*
X176293479Y-140724748D01*
X176165330Y-141034128D01*
X176100000Y-141362565D01*
X169340000Y-141362565D01*
X169274670Y-141034128D01*
X169146521Y-140724748D01*
X168960477Y-140446313D01*
X168723687Y-140209523D01*
X168445252Y-140023479D01*
X168344860Y-139981895D01*
X168605000Y-139983072D01*
X168729482Y-139970812D01*
X168849180Y-139934502D01*
X168959494Y-139875537D01*
X169056185Y-139796185D01*
X169135537Y-139699494D01*
X169194502Y-139589180D01*
X169230812Y-139469482D01*
X169243072Y-139345000D01*
X169240000Y-138715750D01*
X169081250Y-138557000D01*
X167767000Y-138557000D01*
X167767000Y-138577000D01*
X167513000Y-138577000D01*
X167513000Y-138557000D01*
X166198750Y-138557000D01*
X166040000Y-138715750D01*
X166036928Y-139345000D01*
X166049188Y-139469482D01*
X166085498Y-139589180D01*
X166144463Y-139699494D01*
X166223815Y-139796185D01*
X166320506Y-139875537D01*
X166430820Y-139934502D01*
X166550518Y-139970812D01*
X166675000Y-139983072D01*
X166935140Y-139981895D01*
X166834748Y-140023479D01*
X166556313Y-140209523D01*
X166319523Y-140446313D01*
X166133479Y-140724748D01*
X166005330Y-141034128D01*
X165940000Y-141362565D01*
X159180000Y-141362565D01*
X159114670Y-141034128D01*
X158986521Y-140724748D01*
X158800477Y-140446313D01*
X158563687Y-140209523D01*
X158285252Y-140023479D01*
X158184860Y-139981895D01*
X158445000Y-139983072D01*
X158569482Y-139970812D01*
X158689180Y-139934502D01*
X158799494Y-139875537D01*
X158896185Y-139796185D01*
X158975537Y-139699494D01*
X159034502Y-139589180D01*
X159070812Y-139469482D01*
X159079725Y-139378986D01*
X159183586Y-139493519D01*
X159409580Y-139661037D01*
X159663913Y-139781246D01*
X159797961Y-139821904D01*
X160020000Y-139699915D01*
X160020000Y-138557000D01*
X160274000Y-138557000D01*
X160274000Y-139699915D01*
X160496039Y-139821904D01*
X160630087Y-139781246D01*
X160884420Y-139661037D01*
X161110414Y-139493519D01*
X161299385Y-139285131D01*
X161444070Y-139043881D01*
X161538909Y-138779040D01*
X161417624Y-138557000D01*
X160274000Y-138557000D01*
X160020000Y-138557000D01*
X157607000Y-138557000D01*
X157607000Y-138577000D01*
X157353000Y-138577000D01*
X157353000Y-138557000D01*
X156038750Y-138557000D01*
X155880000Y-138715750D01*
X155876928Y-139345000D01*
X155889188Y-139469482D01*
X155925498Y-139589180D01*
X155984463Y-139699494D01*
X156063815Y-139796185D01*
X156160506Y-139875537D01*
X156270820Y-139934502D01*
X156390518Y-139970812D01*
X156515000Y-139983072D01*
X156775140Y-139981895D01*
X156674748Y-140023479D01*
X156396313Y-140209523D01*
X156159523Y-140446313D01*
X155973479Y-140724748D01*
X155845330Y-141034128D01*
X155780000Y-141362565D01*
X153060000Y-141362565D01*
X153060000Y-91650816D01*
X153114102Y-91673226D01*
X153314061Y-91713000D01*
X153422363Y-91713000D01*
X153416026Y-91720722D01*
X153362719Y-91820452D01*
X153345454Y-91852752D01*
X153301997Y-91996013D01*
X153291000Y-92107666D01*
X153291000Y-92107676D01*
X153287324Y-92144998D01*
X153291000Y-92182320D01*
X153291001Y-99721158D01*
X153291000Y-99721168D01*
X153291000Y-99784678D01*
X153287324Y-99822000D01*
X153291000Y-99859322D01*
X153291000Y-99859333D01*
X153291603Y-99865455D01*
X153270000Y-99974061D01*
X153270000Y-100177939D01*
X153309774Y-100377898D01*
X153387795Y-100566256D01*
X153501063Y-100735774D01*
X153645226Y-100879937D01*
X153814744Y-100993205D01*
X154003102Y-101071226D01*
X154203061Y-101111000D01*
X154406939Y-101111000D01*
X154606898Y-101071226D01*
X154624500Y-101063935D01*
X154624501Y-106043218D01*
X154511102Y-106065774D01*
X154322744Y-106143795D01*
X154153226Y-106257063D01*
X154009063Y-106401226D01*
X153895795Y-106570744D01*
X153817774Y-106759102D01*
X153778000Y-106959061D01*
X153778000Y-107162939D01*
X153817774Y-107362898D01*
X153895795Y-107551256D01*
X154009063Y-107720774D01*
X154053000Y-107764711D01*
X154053001Y-113704860D01*
X154053000Y-113704870D01*
X154053000Y-113881668D01*
X154053001Y-120962288D01*
X154009063Y-121006226D01*
X153895795Y-121175744D01*
X153817774Y-121364102D01*
X153778000Y-121564061D01*
X153778000Y-121767939D01*
X153817774Y-121967898D01*
X153895795Y-122156256D01*
X154009063Y-122325774D01*
X154053000Y-122369711D01*
X154053001Y-135948288D01*
X154009063Y-135992226D01*
X153895795Y-136161744D01*
X153817774Y-136350102D01*
X153778000Y-136550061D01*
X153778000Y-136753939D01*
X153817774Y-136953898D01*
X153895795Y-137142256D01*
X154009063Y-137311774D01*
X154153226Y-137455937D01*
X154322744Y-137569205D01*
X154511102Y-137647226D01*
X154711061Y-137687000D01*
X154914939Y-137687000D01*
X155114898Y-137647226D01*
X155303256Y-137569205D01*
X155384379Y-137515000D01*
X155876928Y-137515000D01*
X155880000Y-138144250D01*
X156038750Y-138303000D01*
X157353000Y-138303000D01*
X157353000Y-137038750D01*
X157607000Y-137038750D01*
X157607000Y-138303000D01*
X160020000Y-138303000D01*
X160020000Y-137160085D01*
X160274000Y-137160085D01*
X160274000Y-138303000D01*
X161417624Y-138303000D01*
X161538909Y-138080960D01*
X161444070Y-137816119D01*
X161299385Y-137574869D01*
X161245095Y-137515000D01*
X166036928Y-137515000D01*
X166040000Y-138144250D01*
X166198750Y-138303000D01*
X167513000Y-138303000D01*
X167513000Y-137038750D01*
X167767000Y-137038750D01*
X167767000Y-138303000D01*
X169081250Y-138303000D01*
X169240000Y-138144250D01*
X169243072Y-137515000D01*
X176196928Y-137515000D01*
X176200000Y-138144250D01*
X176358750Y-138303000D01*
X177673000Y-138303000D01*
X177673000Y-137038750D01*
X177927000Y-137038750D01*
X177927000Y-138303000D01*
X179241250Y-138303000D01*
X179400000Y-138144250D01*
X179403072Y-137515000D01*
X179390812Y-137390518D01*
X179354502Y-137270820D01*
X179295537Y-137160506D01*
X179216185Y-137063815D01*
X179119494Y-136984463D01*
X179009180Y-136925498D01*
X178889482Y-136889188D01*
X178765000Y-136876928D01*
X178085750Y-136880000D01*
X177927000Y-137038750D01*
X177673000Y-137038750D01*
X177514250Y-136880000D01*
X176835000Y-136876928D01*
X176710518Y-136889188D01*
X176590820Y-136925498D01*
X176480506Y-136984463D01*
X176383815Y-137063815D01*
X176304463Y-137160506D01*
X176245498Y-137270820D01*
X176209188Y-137390518D01*
X176196928Y-137515000D01*
X169243072Y-137515000D01*
X169230812Y-137390518D01*
X169194502Y-137270820D01*
X169135537Y-137160506D01*
X169056185Y-137063815D01*
X168959494Y-136984463D01*
X168849180Y-136925498D01*
X168729482Y-136889188D01*
X168605000Y-136876928D01*
X167925750Y-136880000D01*
X167767000Y-137038750D01*
X167513000Y-137038750D01*
X167354250Y-136880000D01*
X166675000Y-136876928D01*
X166550518Y-136889188D01*
X166430820Y-136925498D01*
X166320506Y-136984463D01*
X166223815Y-137063815D01*
X166144463Y-137160506D01*
X166085498Y-137270820D01*
X166049188Y-137390518D01*
X166036928Y-137515000D01*
X161245095Y-137515000D01*
X161110414Y-137366481D01*
X160884420Y-137198963D01*
X160630087Y-137078754D01*
X160496039Y-137038096D01*
X160274000Y-137160085D01*
X160020000Y-137160085D01*
X159797961Y-137038096D01*
X159663913Y-137078754D01*
X159409580Y-137198963D01*
X159183586Y-137366481D01*
X159079725Y-137481014D01*
X159070812Y-137390518D01*
X159034502Y-137270820D01*
X158975537Y-137160506D01*
X158896185Y-137063815D01*
X158799494Y-136984463D01*
X158689180Y-136925498D01*
X158569482Y-136889188D01*
X158445000Y-136876928D01*
X157765750Y-136880000D01*
X157607000Y-137038750D01*
X157353000Y-137038750D01*
X157194250Y-136880000D01*
X156515000Y-136876928D01*
X156390518Y-136889188D01*
X156270820Y-136925498D01*
X156160506Y-136984463D01*
X156063815Y-137063815D01*
X155984463Y-137160506D01*
X155925498Y-137270820D01*
X155889188Y-137390518D01*
X155876928Y-137515000D01*
X155384379Y-137515000D01*
X155472774Y-137455937D01*
X155616937Y-137311774D01*
X155730205Y-137142256D01*
X155808226Y-136953898D01*
X155848000Y-136753939D01*
X155848000Y-136550061D01*
X155808226Y-136350102D01*
X155730205Y-136161744D01*
X155616937Y-135992226D01*
X155573000Y-135948289D01*
X155573000Y-134960565D01*
X155780000Y-134960565D01*
X155780000Y-135295435D01*
X155845330Y-135623872D01*
X155973479Y-135933252D01*
X156159523Y-136211687D01*
X156396313Y-136448477D01*
X156674748Y-136634521D01*
X156984128Y-136762670D01*
X157312565Y-136828000D01*
X157647435Y-136828000D01*
X157975872Y-136762670D01*
X158285252Y-136634521D01*
X158563687Y-136448477D01*
X158800477Y-136211687D01*
X158986521Y-135933252D01*
X159114670Y-135623872D01*
X159180000Y-135295435D01*
X159180000Y-134960565D01*
X165940000Y-134960565D01*
X165940000Y-135295435D01*
X166005330Y-135623872D01*
X166133479Y-135933252D01*
X166319523Y-136211687D01*
X166556313Y-136448477D01*
X166834748Y-136634521D01*
X167144128Y-136762670D01*
X167472565Y-136828000D01*
X167807435Y-136828000D01*
X168135872Y-136762670D01*
X168445252Y-136634521D01*
X168723687Y-136448477D01*
X168960477Y-136211687D01*
X169146521Y-135933252D01*
X169274670Y-135623872D01*
X169340000Y-135295435D01*
X169340000Y-134960565D01*
X169334033Y-134930565D01*
X176100000Y-134930565D01*
X176100000Y-135265435D01*
X176165330Y-135593872D01*
X176293479Y-135903252D01*
X176479523Y-136181687D01*
X176716313Y-136418477D01*
X176994748Y-136604521D01*
X177304128Y-136732670D01*
X177632565Y-136798000D01*
X177967435Y-136798000D01*
X178295872Y-136732670D01*
X178605252Y-136604521D01*
X178883687Y-136418477D01*
X179120477Y-136181687D01*
X179306521Y-135903252D01*
X179434670Y-135593872D01*
X179500000Y-135265435D01*
X179500000Y-134930565D01*
X179434670Y-134602128D01*
X179306521Y-134292748D01*
X179120477Y-134014313D01*
X178883687Y-133777523D01*
X178605252Y-133591479D01*
X178295872Y-133463330D01*
X177967435Y-133398000D01*
X177632565Y-133398000D01*
X177304128Y-133463330D01*
X176994748Y-133591479D01*
X176716313Y-133777523D01*
X176479523Y-134014313D01*
X176293479Y-134292748D01*
X176165330Y-134602128D01*
X176100000Y-134930565D01*
X169334033Y-134930565D01*
X169274670Y-134632128D01*
X169146521Y-134322748D01*
X168960477Y-134044313D01*
X168723687Y-133807523D01*
X168445252Y-133621479D01*
X168135872Y-133493330D01*
X167807435Y-133428000D01*
X167472565Y-133428000D01*
X167144128Y-133493330D01*
X166834748Y-133621479D01*
X166556313Y-133807523D01*
X166319523Y-134044313D01*
X166133479Y-134322748D01*
X166005330Y-134632128D01*
X165940000Y-134960565D01*
X159180000Y-134960565D01*
X159114670Y-134632128D01*
X158986521Y-134322748D01*
X158800477Y-134044313D01*
X158563687Y-133807523D01*
X158285252Y-133621479D01*
X157975872Y-133493330D01*
X157647435Y-133428000D01*
X157312565Y-133428000D01*
X156984128Y-133493330D01*
X156674748Y-133621479D01*
X156396313Y-133807523D01*
X156159523Y-134044313D01*
X155973479Y-134322748D01*
X155845330Y-134632128D01*
X155780000Y-134960565D01*
X155573000Y-134960565D01*
X155573000Y-130518000D01*
X158835928Y-130518000D01*
X158835928Y-132118000D01*
X158848188Y-132242482D01*
X158884498Y-132362180D01*
X158943463Y-132472494D01*
X159022815Y-132569185D01*
X159119506Y-132648537D01*
X159229820Y-132707502D01*
X159349518Y-132743812D01*
X159474000Y-132756072D01*
X161074000Y-132756072D01*
X161198482Y-132743812D01*
X161318180Y-132707502D01*
X161428494Y-132648537D01*
X161525185Y-132569185D01*
X161604537Y-132472494D01*
X161663502Y-132362180D01*
X161699812Y-132242482D01*
X161712072Y-132118000D01*
X161712072Y-130518000D01*
X161699812Y-130393518D01*
X161663502Y-130273820D01*
X161604537Y-130163506D01*
X161525185Y-130066815D01*
X161428494Y-129987463D01*
X161318180Y-129928498D01*
X161198482Y-129892188D01*
X161074000Y-129879928D01*
X159474000Y-129879928D01*
X159349518Y-129892188D01*
X159229820Y-129928498D01*
X159119506Y-129987463D01*
X159022815Y-130066815D01*
X158943463Y-130163506D01*
X158884498Y-130273820D01*
X158848188Y-130393518D01*
X158835928Y-130518000D01*
X155573000Y-130518000D01*
X155573000Y-126660565D01*
X155780000Y-126660565D01*
X155780000Y-126995435D01*
X155845330Y-127323872D01*
X155973479Y-127633252D01*
X156159523Y-127911687D01*
X156396313Y-128148477D01*
X156674748Y-128334521D01*
X156984128Y-128462670D01*
X157312565Y-128528000D01*
X157647435Y-128528000D01*
X157975872Y-128462670D01*
X158285252Y-128334521D01*
X158563687Y-128148477D01*
X158800477Y-127911687D01*
X158986521Y-127633252D01*
X159114670Y-127323872D01*
X159180000Y-126995435D01*
X159180000Y-126660565D01*
X165940000Y-126660565D01*
X165940000Y-126995435D01*
X166005330Y-127323872D01*
X166133479Y-127633252D01*
X166319523Y-127911687D01*
X166556313Y-128148477D01*
X166834748Y-128334521D01*
X167144128Y-128462670D01*
X167472565Y-128528000D01*
X167807435Y-128528000D01*
X168135872Y-128462670D01*
X168445252Y-128334521D01*
X168723687Y-128148477D01*
X168960477Y-127911687D01*
X169146521Y-127633252D01*
X169274670Y-127323872D01*
X169340000Y-126995435D01*
X169340000Y-126660565D01*
X169334033Y-126630565D01*
X176100000Y-126630565D01*
X176100000Y-126965435D01*
X176165330Y-127293872D01*
X176293479Y-127603252D01*
X176479523Y-127881687D01*
X176716313Y-128118477D01*
X176994748Y-128304521D01*
X177304128Y-128432670D01*
X177632565Y-128498000D01*
X177967435Y-128498000D01*
X178295872Y-128432670D01*
X178605252Y-128304521D01*
X178883687Y-128118477D01*
X179120477Y-127881687D01*
X179306521Y-127603252D01*
X179434670Y-127293872D01*
X179500000Y-126965435D01*
X179500000Y-126630565D01*
X179434670Y-126302128D01*
X179306521Y-125992748D01*
X179120477Y-125714313D01*
X178883687Y-125477523D01*
X178605252Y-125291479D01*
X178504860Y-125249895D01*
X178765000Y-125251072D01*
X178889482Y-125238812D01*
X179009180Y-125202502D01*
X179119494Y-125143537D01*
X179216185Y-125064185D01*
X179295537Y-124967494D01*
X179354502Y-124857180D01*
X179390812Y-124737482D01*
X179403072Y-124613000D01*
X179400000Y-123983750D01*
X179241250Y-123825000D01*
X177927000Y-123825000D01*
X177927000Y-123845000D01*
X177673000Y-123845000D01*
X177673000Y-123825000D01*
X176358750Y-123825000D01*
X176200000Y-123983750D01*
X176196928Y-124613000D01*
X176209188Y-124737482D01*
X176245498Y-124857180D01*
X176304463Y-124967494D01*
X176383815Y-125064185D01*
X176480506Y-125143537D01*
X176590820Y-125202502D01*
X176710518Y-125238812D01*
X176835000Y-125251072D01*
X177095140Y-125249895D01*
X176994748Y-125291479D01*
X176716313Y-125477523D01*
X176479523Y-125714313D01*
X176293479Y-125992748D01*
X176165330Y-126302128D01*
X176100000Y-126630565D01*
X169334033Y-126630565D01*
X169274670Y-126332128D01*
X169146521Y-126022748D01*
X168960477Y-125744313D01*
X168723687Y-125507523D01*
X168445252Y-125321479D01*
X168344860Y-125279895D01*
X168605000Y-125281072D01*
X168729482Y-125268812D01*
X168849180Y-125232502D01*
X168959494Y-125173537D01*
X169056185Y-125094185D01*
X169135537Y-124997494D01*
X169194502Y-124887180D01*
X169230812Y-124767482D01*
X169243072Y-124643000D01*
X169240000Y-124013750D01*
X169081250Y-123855000D01*
X167767000Y-123855000D01*
X167767000Y-123875000D01*
X167513000Y-123875000D01*
X167513000Y-123855000D01*
X166198750Y-123855000D01*
X166040000Y-124013750D01*
X166036928Y-124643000D01*
X166049188Y-124767482D01*
X166085498Y-124887180D01*
X166144463Y-124997494D01*
X166223815Y-125094185D01*
X166320506Y-125173537D01*
X166430820Y-125232502D01*
X166550518Y-125268812D01*
X166675000Y-125281072D01*
X166935140Y-125279895D01*
X166834748Y-125321479D01*
X166556313Y-125507523D01*
X166319523Y-125744313D01*
X166133479Y-126022748D01*
X166005330Y-126332128D01*
X165940000Y-126660565D01*
X159180000Y-126660565D01*
X159114670Y-126332128D01*
X158986521Y-126022748D01*
X158800477Y-125744313D01*
X158563687Y-125507523D01*
X158285252Y-125321479D01*
X158184860Y-125279895D01*
X158445000Y-125281072D01*
X158569482Y-125268812D01*
X158689180Y-125232502D01*
X158799494Y-125173537D01*
X158896185Y-125094185D01*
X158975537Y-124997494D01*
X159034502Y-124887180D01*
X159070812Y-124767482D01*
X159083072Y-124643000D01*
X159082313Y-124487599D01*
X159121615Y-124553131D01*
X159310586Y-124761519D01*
X159536580Y-124929037D01*
X159790913Y-125049246D01*
X159924961Y-125089904D01*
X160147000Y-124967915D01*
X160147000Y-123825000D01*
X160401000Y-123825000D01*
X160401000Y-124967915D01*
X160623039Y-125089904D01*
X160757087Y-125049246D01*
X161011420Y-124929037D01*
X161237414Y-124761519D01*
X161426385Y-124553131D01*
X161571070Y-124311881D01*
X161665909Y-124047040D01*
X161544624Y-123825000D01*
X160401000Y-123825000D01*
X160147000Y-123825000D01*
X159003376Y-123825000D01*
X158963766Y-123897516D01*
X158921250Y-123855000D01*
X157607000Y-123855000D01*
X157607000Y-123875000D01*
X157353000Y-123875000D01*
X157353000Y-123855000D01*
X156038750Y-123855000D01*
X155880000Y-124013750D01*
X155876928Y-124643000D01*
X155889188Y-124767482D01*
X155925498Y-124887180D01*
X155984463Y-124997494D01*
X156063815Y-125094185D01*
X156160506Y-125173537D01*
X156270820Y-125232502D01*
X156390518Y-125268812D01*
X156515000Y-125281072D01*
X156775140Y-125279895D01*
X156674748Y-125321479D01*
X156396313Y-125507523D01*
X156159523Y-125744313D01*
X155973479Y-126022748D01*
X155845330Y-126332128D01*
X155780000Y-126660565D01*
X155573000Y-126660565D01*
X155573000Y-122813000D01*
X155876928Y-122813000D01*
X155880000Y-123442250D01*
X156038750Y-123601000D01*
X157353000Y-123601000D01*
X157353000Y-122336750D01*
X157607000Y-122336750D01*
X157607000Y-123601000D01*
X158921250Y-123601000D01*
X158984962Y-123537288D01*
X159003376Y-123571000D01*
X160147000Y-123571000D01*
X160147000Y-122428085D01*
X160401000Y-122428085D01*
X160401000Y-123571000D01*
X161544624Y-123571000D01*
X161665909Y-123348960D01*
X161571070Y-123084119D01*
X161426385Y-122842869D01*
X161399300Y-122813000D01*
X166036928Y-122813000D01*
X166040000Y-123442250D01*
X166198750Y-123601000D01*
X167513000Y-123601000D01*
X167513000Y-122336750D01*
X167767000Y-122336750D01*
X167767000Y-123601000D01*
X169081250Y-123601000D01*
X169240000Y-123442250D01*
X169243072Y-122813000D01*
X169240118Y-122783000D01*
X176196928Y-122783000D01*
X176200000Y-123412250D01*
X176358750Y-123571000D01*
X177673000Y-123571000D01*
X177673000Y-122306750D01*
X177927000Y-122306750D01*
X177927000Y-123571000D01*
X179241250Y-123571000D01*
X179400000Y-123412250D01*
X179403072Y-122783000D01*
X179390812Y-122658518D01*
X179354502Y-122538820D01*
X179295537Y-122428506D01*
X179216185Y-122331815D01*
X179119494Y-122252463D01*
X179009180Y-122193498D01*
X178889482Y-122157188D01*
X178765000Y-122144928D01*
X178085750Y-122148000D01*
X177927000Y-122306750D01*
X177673000Y-122306750D01*
X177514250Y-122148000D01*
X176835000Y-122144928D01*
X176710518Y-122157188D01*
X176590820Y-122193498D01*
X176480506Y-122252463D01*
X176383815Y-122331815D01*
X176304463Y-122428506D01*
X176245498Y-122538820D01*
X176209188Y-122658518D01*
X176196928Y-122783000D01*
X169240118Y-122783000D01*
X169230812Y-122688518D01*
X169194502Y-122568820D01*
X169135537Y-122458506D01*
X169056185Y-122361815D01*
X168959494Y-122282463D01*
X168849180Y-122223498D01*
X168729482Y-122187188D01*
X168605000Y-122174928D01*
X167925750Y-122178000D01*
X167767000Y-122336750D01*
X167513000Y-122336750D01*
X167354250Y-122178000D01*
X166675000Y-122174928D01*
X166550518Y-122187188D01*
X166430820Y-122223498D01*
X166320506Y-122282463D01*
X166223815Y-122361815D01*
X166144463Y-122458506D01*
X166085498Y-122568820D01*
X166049188Y-122688518D01*
X166036928Y-122813000D01*
X161399300Y-122813000D01*
X161237414Y-122634481D01*
X161011420Y-122466963D01*
X160757087Y-122346754D01*
X160623039Y-122306096D01*
X160401000Y-122428085D01*
X160147000Y-122428085D01*
X159924961Y-122306096D01*
X159790913Y-122346754D01*
X159536580Y-122466963D01*
X159310586Y-122634481D01*
X159121615Y-122842869D01*
X159082609Y-122907909D01*
X159083072Y-122813000D01*
X159070812Y-122688518D01*
X159034502Y-122568820D01*
X158975537Y-122458506D01*
X158896185Y-122361815D01*
X158799494Y-122282463D01*
X158689180Y-122223498D01*
X158569482Y-122187188D01*
X158445000Y-122174928D01*
X157765750Y-122178000D01*
X157607000Y-122336750D01*
X157353000Y-122336750D01*
X157194250Y-122178000D01*
X156515000Y-122174928D01*
X156390518Y-122187188D01*
X156270820Y-122223498D01*
X156160506Y-122282463D01*
X156063815Y-122361815D01*
X155984463Y-122458506D01*
X155925498Y-122568820D01*
X155889188Y-122688518D01*
X155876928Y-122813000D01*
X155573000Y-122813000D01*
X155573000Y-122369711D01*
X155616937Y-122325774D01*
X155730205Y-122156256D01*
X155808226Y-121967898D01*
X155848000Y-121767939D01*
X155848000Y-121564061D01*
X155808226Y-121364102D01*
X155730205Y-121175744D01*
X155616937Y-121006226D01*
X155573000Y-120962289D01*
X155573000Y-120198565D01*
X155780000Y-120198565D01*
X155780000Y-120533435D01*
X155845330Y-120861872D01*
X155973479Y-121171252D01*
X156159523Y-121449687D01*
X156396313Y-121686477D01*
X156674748Y-121872521D01*
X156984128Y-122000670D01*
X157312565Y-122066000D01*
X157647435Y-122066000D01*
X157975872Y-122000670D01*
X158285252Y-121872521D01*
X158563687Y-121686477D01*
X158800477Y-121449687D01*
X158986521Y-121171252D01*
X159114670Y-120861872D01*
X159180000Y-120533435D01*
X159180000Y-120198565D01*
X165940000Y-120198565D01*
X165940000Y-120533435D01*
X166005330Y-120861872D01*
X166133479Y-121171252D01*
X166319523Y-121449687D01*
X166556313Y-121686477D01*
X166834748Y-121872521D01*
X167144128Y-122000670D01*
X167472565Y-122066000D01*
X167807435Y-122066000D01*
X168135872Y-122000670D01*
X168445252Y-121872521D01*
X168723687Y-121686477D01*
X168960477Y-121449687D01*
X169146521Y-121171252D01*
X169274670Y-120861872D01*
X169340000Y-120533435D01*
X169340000Y-120198565D01*
X176100000Y-120198565D01*
X176100000Y-120533435D01*
X176165330Y-120861872D01*
X176293479Y-121171252D01*
X176479523Y-121449687D01*
X176716313Y-121686477D01*
X176994748Y-121872521D01*
X177304128Y-122000670D01*
X177632565Y-122066000D01*
X177967435Y-122066000D01*
X178295872Y-122000670D01*
X178605252Y-121872521D01*
X178883687Y-121686477D01*
X179120477Y-121449687D01*
X179306521Y-121171252D01*
X179434670Y-120861872D01*
X179500000Y-120533435D01*
X179500000Y-120198565D01*
X179434670Y-119870128D01*
X179306521Y-119560748D01*
X179120477Y-119282313D01*
X178883687Y-119045523D01*
X178605252Y-118859479D01*
X178295872Y-118731330D01*
X177967435Y-118666000D01*
X177632565Y-118666000D01*
X177304128Y-118731330D01*
X176994748Y-118859479D01*
X176716313Y-119045523D01*
X176479523Y-119282313D01*
X176293479Y-119560748D01*
X176165330Y-119870128D01*
X176100000Y-120198565D01*
X169340000Y-120198565D01*
X169274670Y-119870128D01*
X169146521Y-119560748D01*
X168960477Y-119282313D01*
X168723687Y-119045523D01*
X168445252Y-118859479D01*
X168135872Y-118731330D01*
X167807435Y-118666000D01*
X167472565Y-118666000D01*
X167144128Y-118731330D01*
X166834748Y-118859479D01*
X166556313Y-119045523D01*
X166319523Y-119282313D01*
X166133479Y-119560748D01*
X166005330Y-119870128D01*
X165940000Y-120198565D01*
X159180000Y-120198565D01*
X159114670Y-119870128D01*
X158986521Y-119560748D01*
X158800477Y-119282313D01*
X158563687Y-119045523D01*
X158285252Y-118859479D01*
X157975872Y-118731330D01*
X157647435Y-118666000D01*
X157312565Y-118666000D01*
X156984128Y-118731330D01*
X156674748Y-118859479D01*
X156396313Y-119045523D01*
X156159523Y-119282313D01*
X155973479Y-119560748D01*
X155845330Y-119870128D01*
X155780000Y-120198565D01*
X155573000Y-120198565D01*
X155573000Y-115786000D01*
X158835928Y-115786000D01*
X158835928Y-117386000D01*
X158848188Y-117510482D01*
X158884498Y-117630180D01*
X158943463Y-117740494D01*
X159022815Y-117837185D01*
X159119506Y-117916537D01*
X159229820Y-117975502D01*
X159349518Y-118011812D01*
X159474000Y-118024072D01*
X161074000Y-118024072D01*
X161198482Y-118011812D01*
X161318180Y-117975502D01*
X161428494Y-117916537D01*
X161525185Y-117837185D01*
X161604537Y-117740494D01*
X161663502Y-117630180D01*
X161699812Y-117510482D01*
X161712072Y-117386000D01*
X161712072Y-115786000D01*
X161699812Y-115661518D01*
X161663502Y-115541820D01*
X161604537Y-115431506D01*
X161525185Y-115334815D01*
X161428494Y-115255463D01*
X161318180Y-115196498D01*
X161198482Y-115160188D01*
X161074000Y-115147928D01*
X159474000Y-115147928D01*
X159349518Y-115160188D01*
X159229820Y-115196498D01*
X159119506Y-115255463D01*
X159022815Y-115334815D01*
X158943463Y-115431506D01*
X158884498Y-115541820D01*
X158848188Y-115661518D01*
X158835928Y-115786000D01*
X155573000Y-115786000D01*
X155573000Y-111898565D01*
X155780000Y-111898565D01*
X155780000Y-112233435D01*
X155845330Y-112561872D01*
X155973479Y-112871252D01*
X156159523Y-113149687D01*
X156396313Y-113386477D01*
X156674748Y-113572521D01*
X156984128Y-113700670D01*
X157312565Y-113766000D01*
X157647435Y-113766000D01*
X157975872Y-113700670D01*
X158285252Y-113572521D01*
X158563687Y-113386477D01*
X158800477Y-113149687D01*
X158986521Y-112871252D01*
X159114670Y-112561872D01*
X159180000Y-112233435D01*
X159180000Y-111898565D01*
X165940000Y-111898565D01*
X165940000Y-112233435D01*
X166005330Y-112561872D01*
X166133479Y-112871252D01*
X166319523Y-113149687D01*
X166556313Y-113386477D01*
X166834748Y-113572521D01*
X167144128Y-113700670D01*
X167472565Y-113766000D01*
X167807435Y-113766000D01*
X168135872Y-113700670D01*
X168445252Y-113572521D01*
X168723687Y-113386477D01*
X168960477Y-113149687D01*
X169146521Y-112871252D01*
X169274670Y-112561872D01*
X169340000Y-112233435D01*
X169340000Y-111898565D01*
X176100000Y-111898565D01*
X176100000Y-112233435D01*
X176165330Y-112561872D01*
X176293479Y-112871252D01*
X176479523Y-113149687D01*
X176716313Y-113386477D01*
X176994748Y-113572521D01*
X177304128Y-113700670D01*
X177632565Y-113766000D01*
X177967435Y-113766000D01*
X178295872Y-113700670D01*
X178605252Y-113572521D01*
X178883687Y-113386477D01*
X179120477Y-113149687D01*
X179306521Y-112871252D01*
X179434670Y-112561872D01*
X179500000Y-112233435D01*
X179500000Y-111898565D01*
X179434670Y-111570128D01*
X179306521Y-111260748D01*
X179120477Y-110982313D01*
X178883687Y-110745523D01*
X178605252Y-110559479D01*
X178504860Y-110517895D01*
X178765000Y-110519072D01*
X178889482Y-110506812D01*
X179009180Y-110470502D01*
X179119494Y-110411537D01*
X179216185Y-110332185D01*
X179295537Y-110235494D01*
X179354502Y-110125180D01*
X179390812Y-110005482D01*
X179403072Y-109881000D01*
X179400000Y-109251750D01*
X179241250Y-109093000D01*
X177927000Y-109093000D01*
X177927000Y-109113000D01*
X177673000Y-109113000D01*
X177673000Y-109093000D01*
X176358750Y-109093000D01*
X176200000Y-109251750D01*
X176196928Y-109881000D01*
X176209188Y-110005482D01*
X176245498Y-110125180D01*
X176304463Y-110235494D01*
X176383815Y-110332185D01*
X176480506Y-110411537D01*
X176590820Y-110470502D01*
X176710518Y-110506812D01*
X176835000Y-110519072D01*
X177095140Y-110517895D01*
X176994748Y-110559479D01*
X176716313Y-110745523D01*
X176479523Y-110982313D01*
X176293479Y-111260748D01*
X176165330Y-111570128D01*
X176100000Y-111898565D01*
X169340000Y-111898565D01*
X169274670Y-111570128D01*
X169146521Y-111260748D01*
X168960477Y-110982313D01*
X168723687Y-110745523D01*
X168445252Y-110559479D01*
X168344860Y-110517895D01*
X168605000Y-110519072D01*
X168729482Y-110506812D01*
X168849180Y-110470502D01*
X168959494Y-110411537D01*
X169056185Y-110332185D01*
X169135537Y-110235494D01*
X169194502Y-110125180D01*
X169230812Y-110005482D01*
X169243072Y-109881000D01*
X169240000Y-109251750D01*
X169081250Y-109093000D01*
X167767000Y-109093000D01*
X167767000Y-109113000D01*
X167513000Y-109113000D01*
X167513000Y-109093000D01*
X166198750Y-109093000D01*
X166040000Y-109251750D01*
X166036928Y-109881000D01*
X166049188Y-110005482D01*
X166085498Y-110125180D01*
X166144463Y-110235494D01*
X166223815Y-110332185D01*
X166320506Y-110411537D01*
X166430820Y-110470502D01*
X166550518Y-110506812D01*
X166675000Y-110519072D01*
X166935140Y-110517895D01*
X166834748Y-110559479D01*
X166556313Y-110745523D01*
X166319523Y-110982313D01*
X166133479Y-111260748D01*
X166005330Y-111570128D01*
X165940000Y-111898565D01*
X159180000Y-111898565D01*
X159114670Y-111570128D01*
X158986521Y-111260748D01*
X158800477Y-110982313D01*
X158563687Y-110745523D01*
X158285252Y-110559479D01*
X158184860Y-110517895D01*
X158445000Y-110519072D01*
X158569482Y-110506812D01*
X158689180Y-110470502D01*
X158799494Y-110411537D01*
X158896185Y-110332185D01*
X158975537Y-110235494D01*
X159034502Y-110125180D01*
X159070812Y-110005482D01*
X159083072Y-109881000D01*
X159082461Y-109755845D01*
X159121615Y-109821131D01*
X159310586Y-110029519D01*
X159536580Y-110197037D01*
X159790913Y-110317246D01*
X159924961Y-110357904D01*
X160147000Y-110235915D01*
X160147000Y-109093000D01*
X160401000Y-109093000D01*
X160401000Y-110235915D01*
X160623039Y-110357904D01*
X160757087Y-110317246D01*
X161011420Y-110197037D01*
X161237414Y-110029519D01*
X161426385Y-109821131D01*
X161571070Y-109579881D01*
X161665909Y-109315040D01*
X161544624Y-109093000D01*
X160401000Y-109093000D01*
X160147000Y-109093000D01*
X159003376Y-109093000D01*
X158974364Y-109146114D01*
X158921250Y-109093000D01*
X157607000Y-109093000D01*
X157607000Y-109113000D01*
X157353000Y-109113000D01*
X157353000Y-109093000D01*
X156038750Y-109093000D01*
X155880000Y-109251750D01*
X155876928Y-109881000D01*
X155889188Y-110005482D01*
X155925498Y-110125180D01*
X155984463Y-110235494D01*
X156063815Y-110332185D01*
X156160506Y-110411537D01*
X156270820Y-110470502D01*
X156390518Y-110506812D01*
X156515000Y-110519072D01*
X156775140Y-110517895D01*
X156674748Y-110559479D01*
X156396313Y-110745523D01*
X156159523Y-110982313D01*
X155973479Y-111260748D01*
X155845330Y-111570128D01*
X155780000Y-111898565D01*
X155573000Y-111898565D01*
X155573000Y-108051000D01*
X155876928Y-108051000D01*
X155880000Y-108680250D01*
X156038750Y-108839000D01*
X157353000Y-108839000D01*
X157353000Y-107574750D01*
X157607000Y-107574750D01*
X157607000Y-108839000D01*
X158921250Y-108839000D01*
X158974364Y-108785886D01*
X159003376Y-108839000D01*
X160147000Y-108839000D01*
X160147000Y-107696085D01*
X160401000Y-107696085D01*
X160401000Y-108839000D01*
X161544624Y-108839000D01*
X161665909Y-108616960D01*
X161571070Y-108352119D01*
X161426385Y-108110869D01*
X161372095Y-108051000D01*
X166036928Y-108051000D01*
X166040000Y-108680250D01*
X166198750Y-108839000D01*
X167513000Y-108839000D01*
X167513000Y-107574750D01*
X167767000Y-107574750D01*
X167767000Y-108839000D01*
X169081250Y-108839000D01*
X169240000Y-108680250D01*
X169243072Y-108051000D01*
X176196928Y-108051000D01*
X176200000Y-108680250D01*
X176358750Y-108839000D01*
X177673000Y-108839000D01*
X177673000Y-107574750D01*
X177927000Y-107574750D01*
X177927000Y-108839000D01*
X179241250Y-108839000D01*
X179400000Y-108680250D01*
X179403072Y-108051000D01*
X179390812Y-107926518D01*
X179354502Y-107806820D01*
X179295537Y-107696506D01*
X179216185Y-107599815D01*
X179119494Y-107520463D01*
X179009180Y-107461498D01*
X178889482Y-107425188D01*
X178765000Y-107412928D01*
X178085750Y-107416000D01*
X177927000Y-107574750D01*
X177673000Y-107574750D01*
X177514250Y-107416000D01*
X176835000Y-107412928D01*
X176710518Y-107425188D01*
X176590820Y-107461498D01*
X176480506Y-107520463D01*
X176383815Y-107599815D01*
X176304463Y-107696506D01*
X176245498Y-107806820D01*
X176209188Y-107926518D01*
X176196928Y-108051000D01*
X169243072Y-108051000D01*
X169230812Y-107926518D01*
X169194502Y-107806820D01*
X169135537Y-107696506D01*
X169056185Y-107599815D01*
X168959494Y-107520463D01*
X168849180Y-107461498D01*
X168729482Y-107425188D01*
X168605000Y-107412928D01*
X167925750Y-107416000D01*
X167767000Y-107574750D01*
X167513000Y-107574750D01*
X167354250Y-107416000D01*
X166675000Y-107412928D01*
X166550518Y-107425188D01*
X166430820Y-107461498D01*
X166320506Y-107520463D01*
X166223815Y-107599815D01*
X166144463Y-107696506D01*
X166085498Y-107806820D01*
X166049188Y-107926518D01*
X166036928Y-108051000D01*
X161372095Y-108051000D01*
X161237414Y-107902481D01*
X161011420Y-107734963D01*
X160757087Y-107614754D01*
X160623039Y-107574096D01*
X160401000Y-107696085D01*
X160147000Y-107696085D01*
X159924961Y-107574096D01*
X159790913Y-107614754D01*
X159536580Y-107734963D01*
X159310586Y-107902481D01*
X159121615Y-108110869D01*
X159082461Y-108176155D01*
X159083072Y-108051000D01*
X159070812Y-107926518D01*
X159034502Y-107806820D01*
X158975537Y-107696506D01*
X158896185Y-107599815D01*
X158799494Y-107520463D01*
X158689180Y-107461498D01*
X158569482Y-107425188D01*
X158445000Y-107412928D01*
X157765750Y-107416000D01*
X157607000Y-107574750D01*
X157353000Y-107574750D01*
X157194250Y-107416000D01*
X156515000Y-107412928D01*
X156390518Y-107425188D01*
X156270820Y-107461498D01*
X156160506Y-107520463D01*
X156063815Y-107599815D01*
X155984463Y-107696506D01*
X155925498Y-107806820D01*
X155889188Y-107926518D01*
X155876928Y-108051000D01*
X155573000Y-108051000D01*
X155573000Y-107764711D01*
X155616937Y-107720774D01*
X155730205Y-107551256D01*
X155808226Y-107362898D01*
X155848000Y-107162939D01*
X155848000Y-107100802D01*
X155895502Y-107053300D01*
X155924501Y-107029501D01*
X155986072Y-106954477D01*
X156019474Y-106913777D01*
X156090046Y-106781747D01*
X156109478Y-106717687D01*
X156125104Y-106666175D01*
X156159523Y-106717687D01*
X156396313Y-106954477D01*
X156674748Y-107140521D01*
X156984128Y-107268670D01*
X157312565Y-107334000D01*
X157647435Y-107334000D01*
X157975872Y-107268670D01*
X158285252Y-107140521D01*
X158563687Y-106954477D01*
X158800477Y-106717687D01*
X158986521Y-106439252D01*
X159114670Y-106129872D01*
X159180000Y-105801435D01*
X159180000Y-105466565D01*
X165940000Y-105466565D01*
X165940000Y-105801435D01*
X166005330Y-106129872D01*
X166133479Y-106439252D01*
X166319523Y-106717687D01*
X166556313Y-106954477D01*
X166834748Y-107140521D01*
X167144128Y-107268670D01*
X167472565Y-107334000D01*
X167807435Y-107334000D01*
X168135872Y-107268670D01*
X168445252Y-107140521D01*
X168723687Y-106954477D01*
X168960477Y-106717687D01*
X169146521Y-106439252D01*
X169274670Y-106129872D01*
X169340000Y-105801435D01*
X169340000Y-105466565D01*
X176100000Y-105466565D01*
X176100000Y-105801435D01*
X176165330Y-106129872D01*
X176293479Y-106439252D01*
X176479523Y-106717687D01*
X176716313Y-106954477D01*
X176994748Y-107140521D01*
X177304128Y-107268670D01*
X177632565Y-107334000D01*
X177967435Y-107334000D01*
X178295872Y-107268670D01*
X178605252Y-107140521D01*
X178883687Y-106954477D01*
X179120477Y-106717687D01*
X179306521Y-106439252D01*
X179434670Y-106129872D01*
X179500000Y-105801435D01*
X179500000Y-105466565D01*
X179434670Y-105138128D01*
X179306521Y-104828748D01*
X179120477Y-104550313D01*
X178883687Y-104313523D01*
X178605252Y-104127479D01*
X178295872Y-103999330D01*
X177967435Y-103934000D01*
X177632565Y-103934000D01*
X177304128Y-103999330D01*
X176994748Y-104127479D01*
X176716313Y-104313523D01*
X176479523Y-104550313D01*
X176293479Y-104828748D01*
X176165330Y-105138128D01*
X176100000Y-105466565D01*
X169340000Y-105466565D01*
X169274670Y-105138128D01*
X169146521Y-104828748D01*
X168960477Y-104550313D01*
X168723687Y-104313523D01*
X168445252Y-104127479D01*
X168135872Y-103999330D01*
X167807435Y-103934000D01*
X167472565Y-103934000D01*
X167144128Y-103999330D01*
X166834748Y-104127479D01*
X166556313Y-104313523D01*
X166319523Y-104550313D01*
X166133479Y-104828748D01*
X166005330Y-105138128D01*
X165940000Y-105466565D01*
X159180000Y-105466565D01*
X159114670Y-105138128D01*
X158986521Y-104828748D01*
X158800477Y-104550313D01*
X158563687Y-104313523D01*
X158285252Y-104127479D01*
X157975872Y-103999330D01*
X157647435Y-103934000D01*
X157312565Y-103934000D01*
X156984128Y-103999330D01*
X156674748Y-104127479D01*
X156396313Y-104313523D01*
X156159523Y-104550313D01*
X156144500Y-104572797D01*
X156144500Y-101054000D01*
X158835928Y-101054000D01*
X158835928Y-102654000D01*
X158848188Y-102778482D01*
X158884498Y-102898180D01*
X158943463Y-103008494D01*
X159022815Y-103105185D01*
X159119506Y-103184537D01*
X159229820Y-103243502D01*
X159349518Y-103279812D01*
X159474000Y-103292072D01*
X161074000Y-103292072D01*
X161198482Y-103279812D01*
X161318180Y-103243502D01*
X161428494Y-103184537D01*
X161525185Y-103105185D01*
X161604537Y-103008494D01*
X161663502Y-102898180D01*
X161699812Y-102778482D01*
X161712072Y-102654000D01*
X161712072Y-101054000D01*
X161699812Y-100929518D01*
X161663502Y-100809820D01*
X161604537Y-100699506D01*
X161525185Y-100602815D01*
X161428494Y-100523463D01*
X161318180Y-100464498D01*
X161198482Y-100428188D01*
X161074000Y-100415928D01*
X159474000Y-100415928D01*
X159349518Y-100428188D01*
X159229820Y-100464498D01*
X159119506Y-100523463D01*
X159022815Y-100602815D01*
X158943463Y-100699506D01*
X158884498Y-100809820D01*
X158848188Y-100929518D01*
X158835928Y-101054000D01*
X156144500Y-101054000D01*
X156144500Y-98589322D01*
X156148176Y-98551999D01*
X156144500Y-98514676D01*
X156144500Y-98514667D01*
X156133503Y-98403014D01*
X156120020Y-98358567D01*
X156159523Y-98417687D01*
X156396313Y-98654477D01*
X156674748Y-98840521D01*
X156984128Y-98968670D01*
X157312565Y-99034000D01*
X157647435Y-99034000D01*
X157975872Y-98968670D01*
X158285252Y-98840521D01*
X158563687Y-98654477D01*
X158800477Y-98417687D01*
X158986521Y-98139252D01*
X159114670Y-97829872D01*
X159180000Y-97501435D01*
X159180000Y-97166565D01*
X159114670Y-96838128D01*
X158986521Y-96528748D01*
X158800477Y-96250313D01*
X158563687Y-96013523D01*
X158285252Y-95827479D01*
X158184860Y-95785895D01*
X158445000Y-95787072D01*
X158569482Y-95774812D01*
X158689180Y-95738502D01*
X158799494Y-95679537D01*
X158896185Y-95600185D01*
X158975537Y-95503494D01*
X159034502Y-95393180D01*
X159070812Y-95273482D01*
X159083072Y-95149000D01*
X159082461Y-95023845D01*
X159121615Y-95089131D01*
X159310586Y-95297519D01*
X159536580Y-95465037D01*
X159790913Y-95585246D01*
X159924961Y-95625904D01*
X160147000Y-95503915D01*
X160147000Y-94361000D01*
X160401000Y-94361000D01*
X160401000Y-95503915D01*
X160623039Y-95625904D01*
X160757087Y-95585246D01*
X161011420Y-95465037D01*
X161237414Y-95297519D01*
X161426385Y-95089131D01*
X161571070Y-94847881D01*
X161665909Y-94583040D01*
X161544624Y-94361000D01*
X160401000Y-94361000D01*
X160147000Y-94361000D01*
X159003376Y-94361000D01*
X158974364Y-94414114D01*
X158921250Y-94361000D01*
X157607000Y-94361000D01*
X157607000Y-94381000D01*
X157353000Y-94381000D01*
X157353000Y-94361000D01*
X156038750Y-94361000D01*
X155880000Y-94519750D01*
X155876928Y-95149000D01*
X155889188Y-95273482D01*
X155925498Y-95393180D01*
X155984463Y-95503494D01*
X156063815Y-95600185D01*
X156160506Y-95679537D01*
X156270820Y-95738502D01*
X156390518Y-95774812D01*
X156515000Y-95787072D01*
X156775140Y-95785895D01*
X156674748Y-95827479D01*
X156396313Y-96013523D01*
X156159523Y-96250313D01*
X155973479Y-96528748D01*
X155845330Y-96838128D01*
X155780000Y-97166565D01*
X155780000Y-97501435D01*
X155845330Y-97829872D01*
X155918847Y-98007359D01*
X155895504Y-97988202D01*
X155573000Y-97665699D01*
X155573000Y-93319000D01*
X155876928Y-93319000D01*
X155880000Y-93948250D01*
X156038750Y-94107000D01*
X157353000Y-94107000D01*
X157353000Y-92842750D01*
X157607000Y-92842750D01*
X157607000Y-94107000D01*
X158921250Y-94107000D01*
X158974364Y-94053886D01*
X159003376Y-94107000D01*
X160147000Y-94107000D01*
X160147000Y-92964085D01*
X160401000Y-92964085D01*
X160401000Y-94107000D01*
X161544624Y-94107000D01*
X161665909Y-93884960D01*
X161571070Y-93620119D01*
X161426385Y-93378869D01*
X161237414Y-93170481D01*
X161011420Y-93002963D01*
X160757087Y-92882754D01*
X160623039Y-92842096D01*
X160401000Y-92964085D01*
X160147000Y-92964085D01*
X159924961Y-92842096D01*
X159790913Y-92882754D01*
X159536580Y-93002963D01*
X159310586Y-93170481D01*
X159121615Y-93378869D01*
X159082461Y-93444155D01*
X159083072Y-93319000D01*
X159070812Y-93194518D01*
X159034502Y-93074820D01*
X158975537Y-92964506D01*
X158896185Y-92867815D01*
X158799494Y-92788463D01*
X158689180Y-92729498D01*
X158569482Y-92693188D01*
X158445000Y-92680928D01*
X157765750Y-92684000D01*
X157607000Y-92842750D01*
X157353000Y-92842750D01*
X157194250Y-92684000D01*
X156515000Y-92680928D01*
X156390518Y-92693188D01*
X156270820Y-92729498D01*
X156160506Y-92788463D01*
X156063815Y-92867815D01*
X155984463Y-92964506D01*
X155925498Y-93074820D01*
X155889188Y-93194518D01*
X155876928Y-93319000D01*
X155573000Y-93319000D01*
X155573000Y-93159711D01*
X155616937Y-93115774D01*
X155730205Y-92946256D01*
X155808226Y-92757898D01*
X155848000Y-92557939D01*
X155848000Y-92495801D01*
X156143802Y-92200000D01*
X157696678Y-92200000D01*
X157734000Y-92203676D01*
X157771322Y-92200000D01*
X157771333Y-92200000D01*
X157882986Y-92189003D01*
X158026247Y-92145546D01*
X158158276Y-92074974D01*
X158274001Y-91980001D01*
X158297804Y-91950997D01*
X159515003Y-90733799D01*
X159544001Y-90710001D01*
X159638974Y-90594276D01*
X159709546Y-90462247D01*
X159753003Y-90318986D01*
X159764000Y-90207333D01*
X159764000Y-90207324D01*
X159767676Y-90170001D01*
X159764000Y-90132678D01*
X159764000Y-88502799D01*
X159793626Y-88473173D01*
X159837558Y-88602054D01*
X160007992Y-88896391D01*
X160232573Y-89151822D01*
X160502671Y-89358531D01*
X160807906Y-89508575D01*
X161020878Y-89573175D01*
X161290000Y-89455125D01*
X161290000Y-88011000D01*
X161270000Y-88011000D01*
X161270000Y-87757000D01*
X161290000Y-87757000D01*
X161290000Y-87737000D01*
X161544000Y-87737000D01*
X161544000Y-87757000D01*
X161564000Y-87757000D01*
X161564000Y-88011000D01*
X161544000Y-88011000D01*
X161544000Y-89455125D01*
X161813122Y-89573175D01*
X162026094Y-89508575D01*
X162083989Y-89480116D01*
X162083990Y-102031205D01*
X162058001Y-102057194D01*
X162028997Y-102080997D01*
X161973869Y-102148172D01*
X161934024Y-102196722D01*
X161863453Y-102328751D01*
X161863452Y-102328752D01*
X161819995Y-102472013D01*
X161808998Y-102583666D01*
X161808998Y-102583676D01*
X161805322Y-102620998D01*
X161808998Y-102658320D01*
X161808998Y-103279678D01*
X161805322Y-103317000D01*
X161808998Y-103354322D01*
X161808998Y-103354333D01*
X161819995Y-103465986D01*
X161844423Y-103546514D01*
X161863452Y-103609246D01*
X161934024Y-103741276D01*
X162005199Y-103828002D01*
X162028998Y-103857001D01*
X162057996Y-103880799D01*
X162383694Y-104206497D01*
X162407497Y-104235501D01*
X162523222Y-104330474D01*
X162655251Y-104401046D01*
X162798512Y-104444503D01*
X162910165Y-104455500D01*
X162910175Y-104455500D01*
X162947498Y-104459176D01*
X162984821Y-104455500D01*
X164777289Y-104455500D01*
X164821226Y-104499437D01*
X164990744Y-104612705D01*
X165179102Y-104690726D01*
X165379061Y-104730500D01*
X165582939Y-104730500D01*
X165782898Y-104690726D01*
X165971256Y-104612705D01*
X166140774Y-104499437D01*
X166284937Y-104355274D01*
X166398205Y-104185756D01*
X166476226Y-103997398D01*
X166516000Y-103797439D01*
X166516000Y-103593561D01*
X166476226Y-103393602D01*
X166398205Y-103205244D01*
X166284937Y-103035726D01*
X166140774Y-102891563D01*
X165971256Y-102778295D01*
X165782898Y-102700274D01*
X165582939Y-102660500D01*
X165379061Y-102660500D01*
X165179102Y-102700274D01*
X164990744Y-102778295D01*
X164821226Y-102891563D01*
X164777289Y-102935500D01*
X164328999Y-102935500D01*
X164328999Y-102867060D01*
X164289225Y-102667101D01*
X164211204Y-102478743D01*
X164097936Y-102309225D01*
X164053999Y-102265288D01*
X164053999Y-97166565D01*
X165940000Y-97166565D01*
X165940000Y-97501435D01*
X166005330Y-97829872D01*
X166133479Y-98139252D01*
X166319523Y-98417687D01*
X166556313Y-98654477D01*
X166834748Y-98840521D01*
X167144128Y-98968670D01*
X167472565Y-99034000D01*
X167807435Y-99034000D01*
X168135872Y-98968670D01*
X168445252Y-98840521D01*
X168723687Y-98654477D01*
X168960477Y-98417687D01*
X169146521Y-98139252D01*
X169274670Y-97829872D01*
X169340000Y-97501435D01*
X169340000Y-97166565D01*
X169274670Y-96838128D01*
X169146521Y-96528748D01*
X168960477Y-96250313D01*
X168723687Y-96013523D01*
X168445252Y-95827479D01*
X168344860Y-95785895D01*
X168605000Y-95787072D01*
X168729482Y-95774812D01*
X168849180Y-95738502D01*
X168959494Y-95679537D01*
X169056185Y-95600185D01*
X169135537Y-95503494D01*
X169194502Y-95393180D01*
X169230812Y-95273482D01*
X169243072Y-95149000D01*
X169240000Y-94519750D01*
X169081250Y-94361000D01*
X167767000Y-94361000D01*
X167767000Y-94381000D01*
X167513000Y-94381000D01*
X167513000Y-94361000D01*
X166198750Y-94361000D01*
X166040000Y-94519750D01*
X166036928Y-95149000D01*
X166049188Y-95273482D01*
X166085498Y-95393180D01*
X166144463Y-95503494D01*
X166223815Y-95600185D01*
X166320506Y-95679537D01*
X166430820Y-95738502D01*
X166550518Y-95774812D01*
X166675000Y-95787072D01*
X166935140Y-95785895D01*
X166834748Y-95827479D01*
X166556313Y-96013523D01*
X166319523Y-96250313D01*
X166133479Y-96528748D01*
X166005330Y-96838128D01*
X165940000Y-97166565D01*
X164053999Y-97166565D01*
X164053999Y-89486498D01*
X164212919Y-89552325D01*
X164548117Y-89619000D01*
X164889883Y-89619000D01*
X164902758Y-89616439D01*
X164626001Y-89893195D01*
X164596998Y-89916998D01*
X164551487Y-89972454D01*
X164502025Y-90032723D01*
X164433462Y-90160995D01*
X164431453Y-90164753D01*
X164387996Y-90308014D01*
X164376999Y-90419667D01*
X164376999Y-90419677D01*
X164373323Y-90456999D01*
X164376999Y-90494321D01*
X164376999Y-91115679D01*
X164373323Y-91153001D01*
X164376999Y-91190323D01*
X164376999Y-91190334D01*
X164387996Y-91301987D01*
X164412062Y-91381321D01*
X164431453Y-91445247D01*
X164502025Y-91577277D01*
X164573200Y-91664003D01*
X164596999Y-91693002D01*
X164625997Y-91716800D01*
X165622199Y-92713003D01*
X165645997Y-92742001D01*
X165674995Y-92765799D01*
X165761722Y-92836974D01*
X165893751Y-92907546D01*
X166037012Y-92951003D01*
X166146680Y-92961804D01*
X166144463Y-92964506D01*
X166085498Y-93074820D01*
X166049188Y-93194518D01*
X166036928Y-93319000D01*
X166040000Y-93948250D01*
X166198750Y-94107000D01*
X167513000Y-94107000D01*
X167513000Y-94087000D01*
X167767000Y-94087000D01*
X167767000Y-94107000D01*
X169081250Y-94107000D01*
X169240000Y-93948250D01*
X169243072Y-93319000D01*
X169230812Y-93194518D01*
X169194502Y-93074820D01*
X169135537Y-92964506D01*
X169063718Y-92876993D01*
X169078937Y-92861774D01*
X169099379Y-92831180D01*
X175839201Y-99571003D01*
X175862999Y-99600001D01*
X175891997Y-99623799D01*
X175978723Y-99694974D01*
X176110753Y-99765546D01*
X176254014Y-99809003D01*
X176365667Y-99820000D01*
X176365677Y-99820000D01*
X176403000Y-99823676D01*
X176440323Y-99820000D01*
X178093880Y-99820000D01*
X178131202Y-99823676D01*
X178168524Y-99820000D01*
X178168535Y-99820000D01*
X178280188Y-99809003D01*
X178423449Y-99765546D01*
X178555478Y-99694974D01*
X178671203Y-99600001D01*
X178695006Y-99570998D01*
X179701005Y-98564999D01*
X179730002Y-98541202D01*
X179770790Y-98491502D01*
X179824975Y-98425478D01*
X179895547Y-98293448D01*
X179905768Y-98259753D01*
X179939004Y-98150187D01*
X179950001Y-98038534D01*
X179950001Y-98038524D01*
X179953677Y-98001201D01*
X179950001Y-97963878D01*
X179950001Y-91654328D01*
X179953677Y-91617003D01*
X179950001Y-91579678D01*
X179950001Y-91579670D01*
X179939004Y-91468017D01*
X179895547Y-91324756D01*
X179824975Y-91192727D01*
X179730002Y-91077002D01*
X179701004Y-91053204D01*
X176201471Y-87553672D01*
X176255226Y-87423898D01*
X176295000Y-87223939D01*
X176295000Y-87020061D01*
X176255226Y-86820102D01*
X176177205Y-86631744D01*
X176063937Y-86462226D01*
X175919774Y-86318063D01*
X175750256Y-86204795D01*
X175561898Y-86126774D01*
X175361939Y-86087000D01*
X175221001Y-86087000D01*
X175221001Y-85615090D01*
X175223061Y-85615500D01*
%TA.AperFunction,Conductor*%
D24*
G36*
X175223061Y-85615500D02*
G01*
X175285199Y-85615500D01*
X180472000Y-90802302D01*
X180472001Y-140049048D01*
X180438795Y-140098744D01*
X180360774Y-140287102D01*
X180321000Y-140487061D01*
X180321000Y-140690939D01*
X180360774Y-140890898D01*
X180438795Y-141079256D01*
X180552063Y-141248774D01*
X180696226Y-141392937D01*
X180865744Y-141506205D01*
X181054102Y-141584226D01*
X181254061Y-141624000D01*
X181457939Y-141624000D01*
X181657898Y-141584226D01*
X181846256Y-141506205D01*
X182015774Y-141392937D01*
X182159937Y-141248774D01*
X182220000Y-141158883D01*
X182220000Y-151740000D01*
X153060000Y-151740000D01*
X153060000Y-149662565D01*
X155780000Y-149662565D01*
X155780000Y-149997435D01*
X155845330Y-150325872D01*
X155973479Y-150635252D01*
X156159523Y-150913687D01*
X156396313Y-151150477D01*
X156674748Y-151336521D01*
X156984128Y-151464670D01*
X157312565Y-151530000D01*
X157647435Y-151530000D01*
X157975872Y-151464670D01*
X158285252Y-151336521D01*
X158563687Y-151150477D01*
X158800477Y-150913687D01*
X158986521Y-150635252D01*
X159114670Y-150325872D01*
X159180000Y-149997435D01*
X159180000Y-149662565D01*
X165940000Y-149662565D01*
X165940000Y-149997435D01*
X166005330Y-150325872D01*
X166133479Y-150635252D01*
X166319523Y-150913687D01*
X166556313Y-151150477D01*
X166834748Y-151336521D01*
X167144128Y-151464670D01*
X167472565Y-151530000D01*
X167807435Y-151530000D01*
X168135872Y-151464670D01*
X168445252Y-151336521D01*
X168723687Y-151150477D01*
X168960477Y-150913687D01*
X169146521Y-150635252D01*
X169274670Y-150325872D01*
X169340000Y-149997435D01*
X169340000Y-149662565D01*
X176100000Y-149662565D01*
X176100000Y-149997435D01*
X176165330Y-150325872D01*
X176293479Y-150635252D01*
X176479523Y-150913687D01*
X176716313Y-151150477D01*
X176994748Y-151336521D01*
X177304128Y-151464670D01*
X177632565Y-151530000D01*
X177967435Y-151530000D01*
X178295872Y-151464670D01*
X178605252Y-151336521D01*
X178883687Y-151150477D01*
X179120477Y-150913687D01*
X179306521Y-150635252D01*
X179434670Y-150325872D01*
X179500000Y-149997435D01*
X179500000Y-149662565D01*
X179434670Y-149334128D01*
X179306521Y-149024748D01*
X179120477Y-148746313D01*
X178883687Y-148509523D01*
X178605252Y-148323479D01*
X178295872Y-148195330D01*
X177967435Y-148130000D01*
X177632565Y-148130000D01*
X177304128Y-148195330D01*
X176994748Y-148323479D01*
X176716313Y-148509523D01*
X176479523Y-148746313D01*
X176293479Y-149024748D01*
X176165330Y-149334128D01*
X176100000Y-149662565D01*
X169340000Y-149662565D01*
X169274670Y-149334128D01*
X169146521Y-149024748D01*
X168960477Y-148746313D01*
X168723687Y-148509523D01*
X168445252Y-148323479D01*
X168135872Y-148195330D01*
X167807435Y-148130000D01*
X167472565Y-148130000D01*
X167144128Y-148195330D01*
X166834748Y-148323479D01*
X166556313Y-148509523D01*
X166319523Y-148746313D01*
X166133479Y-149024748D01*
X166005330Y-149334128D01*
X165940000Y-149662565D01*
X159180000Y-149662565D01*
X159114670Y-149334128D01*
X158986521Y-149024748D01*
X158800477Y-148746313D01*
X158563687Y-148509523D01*
X158285252Y-148323479D01*
X157975872Y-148195330D01*
X157647435Y-148130000D01*
X157312565Y-148130000D01*
X156984128Y-148195330D01*
X156674748Y-148323479D01*
X156396313Y-148509523D01*
X156159523Y-148746313D01*
X155973479Y-149024748D01*
X155845330Y-149334128D01*
X155780000Y-149662565D01*
X153060000Y-149662565D01*
X153060000Y-145250000D01*
X158708928Y-145250000D01*
X158708928Y-146850000D01*
X158721188Y-146974482D01*
X158757498Y-147094180D01*
X158816463Y-147204494D01*
X158895815Y-147301185D01*
X158992506Y-147380537D01*
X159102820Y-147439502D01*
X159222518Y-147475812D01*
X159347000Y-147488072D01*
X160947000Y-147488072D01*
X161071482Y-147475812D01*
X161191180Y-147439502D01*
X161301494Y-147380537D01*
X161398185Y-147301185D01*
X161477537Y-147204494D01*
X161536502Y-147094180D01*
X161572812Y-146974482D01*
X161585072Y-146850000D01*
X161585072Y-145250000D01*
X161572812Y-145125518D01*
X161536502Y-145005820D01*
X161477537Y-144895506D01*
X161398185Y-144798815D01*
X161301494Y-144719463D01*
X161191180Y-144660498D01*
X161071482Y-144624188D01*
X160947000Y-144611928D01*
X159347000Y-144611928D01*
X159222518Y-144624188D01*
X159102820Y-144660498D01*
X158992506Y-144719463D01*
X158895815Y-144798815D01*
X158816463Y-144895506D01*
X158757498Y-145005820D01*
X158721188Y-145125518D01*
X158708928Y-145250000D01*
X153060000Y-145250000D01*
X153060000Y-141362565D01*
X155780000Y-141362565D01*
X155780000Y-141697435D01*
X155845330Y-142025872D01*
X155973479Y-142335252D01*
X156159523Y-142613687D01*
X156396313Y-142850477D01*
X156674748Y-143036521D01*
X156984128Y-143164670D01*
X157312565Y-143230000D01*
X157647435Y-143230000D01*
X157975872Y-143164670D01*
X158285252Y-143036521D01*
X158563687Y-142850477D01*
X158800477Y-142613687D01*
X158986521Y-142335252D01*
X159114670Y-142025872D01*
X159180000Y-141697435D01*
X159180000Y-141362565D01*
X165940000Y-141362565D01*
X165940000Y-141697435D01*
X166005330Y-142025872D01*
X166133479Y-142335252D01*
X166319523Y-142613687D01*
X166556313Y-142850477D01*
X166834748Y-143036521D01*
X167144128Y-143164670D01*
X167472565Y-143230000D01*
X167807435Y-143230000D01*
X168135872Y-143164670D01*
X168445252Y-143036521D01*
X168723687Y-142850477D01*
X168960477Y-142613687D01*
X169146521Y-142335252D01*
X169274670Y-142025872D01*
X169340000Y-141697435D01*
X169340000Y-141362565D01*
X176100000Y-141362565D01*
X176100000Y-141697435D01*
X176165330Y-142025872D01*
X176293479Y-142335252D01*
X176479523Y-142613687D01*
X176716313Y-142850477D01*
X176994748Y-143036521D01*
X177304128Y-143164670D01*
X177632565Y-143230000D01*
X177967435Y-143230000D01*
X178295872Y-143164670D01*
X178605252Y-143036521D01*
X178883687Y-142850477D01*
X179120477Y-142613687D01*
X179306521Y-142335252D01*
X179434670Y-142025872D01*
X179500000Y-141697435D01*
X179500000Y-141362565D01*
X179434670Y-141034128D01*
X179306521Y-140724748D01*
X179120477Y-140446313D01*
X178883687Y-140209523D01*
X178605252Y-140023479D01*
X178504860Y-139981895D01*
X178765000Y-139983072D01*
X178889482Y-139970812D01*
X179009180Y-139934502D01*
X179119494Y-139875537D01*
X179216185Y-139796185D01*
X179295537Y-139699494D01*
X179354502Y-139589180D01*
X179390812Y-139469482D01*
X179403072Y-139345000D01*
X179400000Y-138715750D01*
X179241250Y-138557000D01*
X177927000Y-138557000D01*
X177927000Y-138577000D01*
X177673000Y-138577000D01*
X177673000Y-138557000D01*
X176358750Y-138557000D01*
X176200000Y-138715750D01*
X176196928Y-139345000D01*
X176209188Y-139469482D01*
X176245498Y-139589180D01*
X176304463Y-139699494D01*
X176383815Y-139796185D01*
X176480506Y-139875537D01*
X176590820Y-139934502D01*
X176710518Y-139970812D01*
X176835000Y-139983072D01*
X177095140Y-139981895D01*
X176994748Y-140023479D01*
X176716313Y-140209523D01*
X176479523Y-140446313D01*
X176293479Y-140724748D01*
X176165330Y-141034128D01*
X176100000Y-141362565D01*
X169340000Y-141362565D01*
X169274670Y-141034128D01*
X169146521Y-140724748D01*
X168960477Y-140446313D01*
X168723687Y-140209523D01*
X168445252Y-140023479D01*
X168344860Y-139981895D01*
X168605000Y-139983072D01*
X168729482Y-139970812D01*
X168849180Y-139934502D01*
X168959494Y-139875537D01*
X169056185Y-139796185D01*
X169135537Y-139699494D01*
X169194502Y-139589180D01*
X169230812Y-139469482D01*
X169243072Y-139345000D01*
X169240000Y-138715750D01*
X169081250Y-138557000D01*
X167767000Y-138557000D01*
X167767000Y-138577000D01*
X167513000Y-138577000D01*
X167513000Y-138557000D01*
X166198750Y-138557000D01*
X166040000Y-138715750D01*
X166036928Y-139345000D01*
X166049188Y-139469482D01*
X166085498Y-139589180D01*
X166144463Y-139699494D01*
X166223815Y-139796185D01*
X166320506Y-139875537D01*
X166430820Y-139934502D01*
X166550518Y-139970812D01*
X166675000Y-139983072D01*
X166935140Y-139981895D01*
X166834748Y-140023479D01*
X166556313Y-140209523D01*
X166319523Y-140446313D01*
X166133479Y-140724748D01*
X166005330Y-141034128D01*
X165940000Y-141362565D01*
X159180000Y-141362565D01*
X159114670Y-141034128D01*
X158986521Y-140724748D01*
X158800477Y-140446313D01*
X158563687Y-140209523D01*
X158285252Y-140023479D01*
X158184860Y-139981895D01*
X158445000Y-139983072D01*
X158569482Y-139970812D01*
X158689180Y-139934502D01*
X158799494Y-139875537D01*
X158896185Y-139796185D01*
X158975537Y-139699494D01*
X159034502Y-139589180D01*
X159070812Y-139469482D01*
X159079725Y-139378986D01*
X159183586Y-139493519D01*
X159409580Y-139661037D01*
X159663913Y-139781246D01*
X159797961Y-139821904D01*
X160020000Y-139699915D01*
X160020000Y-138557000D01*
X160274000Y-138557000D01*
X160274000Y-139699915D01*
X160496039Y-139821904D01*
X160630087Y-139781246D01*
X160884420Y-139661037D01*
X161110414Y-139493519D01*
X161299385Y-139285131D01*
X161444070Y-139043881D01*
X161538909Y-138779040D01*
X161417624Y-138557000D01*
X160274000Y-138557000D01*
X160020000Y-138557000D01*
X157607000Y-138557000D01*
X157607000Y-138577000D01*
X157353000Y-138577000D01*
X157353000Y-138557000D01*
X156038750Y-138557000D01*
X155880000Y-138715750D01*
X155876928Y-139345000D01*
X155889188Y-139469482D01*
X155925498Y-139589180D01*
X155984463Y-139699494D01*
X156063815Y-139796185D01*
X156160506Y-139875537D01*
X156270820Y-139934502D01*
X156390518Y-139970812D01*
X156515000Y-139983072D01*
X156775140Y-139981895D01*
X156674748Y-140023479D01*
X156396313Y-140209523D01*
X156159523Y-140446313D01*
X155973479Y-140724748D01*
X155845330Y-141034128D01*
X155780000Y-141362565D01*
X153060000Y-141362565D01*
X153060000Y-91650816D01*
X153114102Y-91673226D01*
X153314061Y-91713000D01*
X153422363Y-91713000D01*
X153416026Y-91720722D01*
X153362719Y-91820452D01*
X153345454Y-91852752D01*
X153301997Y-91996013D01*
X153291000Y-92107666D01*
X153291000Y-92107676D01*
X153287324Y-92144998D01*
X153291000Y-92182320D01*
X153291001Y-99721158D01*
X153291000Y-99721168D01*
X153291000Y-99784678D01*
X153287324Y-99822000D01*
X153291000Y-99859322D01*
X153291000Y-99859333D01*
X153291603Y-99865455D01*
X153270000Y-99974061D01*
X153270000Y-100177939D01*
X153309774Y-100377898D01*
X153387795Y-100566256D01*
X153501063Y-100735774D01*
X153645226Y-100879937D01*
X153814744Y-100993205D01*
X154003102Y-101071226D01*
X154203061Y-101111000D01*
X154406939Y-101111000D01*
X154606898Y-101071226D01*
X154624500Y-101063935D01*
X154624501Y-106043218D01*
X154511102Y-106065774D01*
X154322744Y-106143795D01*
X154153226Y-106257063D01*
X154009063Y-106401226D01*
X153895795Y-106570744D01*
X153817774Y-106759102D01*
X153778000Y-106959061D01*
X153778000Y-107162939D01*
X153817774Y-107362898D01*
X153895795Y-107551256D01*
X154009063Y-107720774D01*
X154053000Y-107764711D01*
X154053001Y-113704860D01*
X154053000Y-113704870D01*
X154053000Y-113881668D01*
X154053001Y-120962288D01*
X154009063Y-121006226D01*
X153895795Y-121175744D01*
X153817774Y-121364102D01*
X153778000Y-121564061D01*
X153778000Y-121767939D01*
X153817774Y-121967898D01*
X153895795Y-122156256D01*
X154009063Y-122325774D01*
X154053000Y-122369711D01*
X154053001Y-135948288D01*
X154009063Y-135992226D01*
X153895795Y-136161744D01*
X153817774Y-136350102D01*
X153778000Y-136550061D01*
X153778000Y-136753939D01*
X153817774Y-136953898D01*
X153895795Y-137142256D01*
X154009063Y-137311774D01*
X154153226Y-137455937D01*
X154322744Y-137569205D01*
X154511102Y-137647226D01*
X154711061Y-137687000D01*
X154914939Y-137687000D01*
X155114898Y-137647226D01*
X155303256Y-137569205D01*
X155384379Y-137515000D01*
X155876928Y-137515000D01*
X155880000Y-138144250D01*
X156038750Y-138303000D01*
X157353000Y-138303000D01*
X157353000Y-137038750D01*
X157607000Y-137038750D01*
X157607000Y-138303000D01*
X160020000Y-138303000D01*
X160020000Y-137160085D01*
X160274000Y-137160085D01*
X160274000Y-138303000D01*
X161417624Y-138303000D01*
X161538909Y-138080960D01*
X161444070Y-137816119D01*
X161299385Y-137574869D01*
X161245095Y-137515000D01*
X166036928Y-137515000D01*
X166040000Y-138144250D01*
X166198750Y-138303000D01*
X167513000Y-138303000D01*
X167513000Y-137038750D01*
X167767000Y-137038750D01*
X167767000Y-138303000D01*
X169081250Y-138303000D01*
X169240000Y-138144250D01*
X169243072Y-137515000D01*
X176196928Y-137515000D01*
X176200000Y-138144250D01*
X176358750Y-138303000D01*
X177673000Y-138303000D01*
X177673000Y-137038750D01*
X177927000Y-137038750D01*
X177927000Y-138303000D01*
X179241250Y-138303000D01*
X179400000Y-138144250D01*
X179403072Y-137515000D01*
X179390812Y-137390518D01*
X179354502Y-137270820D01*
X179295537Y-137160506D01*
X179216185Y-137063815D01*
X179119494Y-136984463D01*
X179009180Y-136925498D01*
X178889482Y-136889188D01*
X178765000Y-136876928D01*
X178085750Y-136880000D01*
X177927000Y-137038750D01*
X177673000Y-137038750D01*
X177514250Y-136880000D01*
X176835000Y-136876928D01*
X176710518Y-136889188D01*
X176590820Y-136925498D01*
X176480506Y-136984463D01*
X176383815Y-137063815D01*
X176304463Y-137160506D01*
X176245498Y-137270820D01*
X176209188Y-137390518D01*
X176196928Y-137515000D01*
X169243072Y-137515000D01*
X169230812Y-137390518D01*
X169194502Y-137270820D01*
X169135537Y-137160506D01*
X169056185Y-137063815D01*
X168959494Y-136984463D01*
X168849180Y-136925498D01*
X168729482Y-136889188D01*
X168605000Y-136876928D01*
X167925750Y-136880000D01*
X167767000Y-137038750D01*
X167513000Y-137038750D01*
X167354250Y-136880000D01*
X166675000Y-136876928D01*
X166550518Y-136889188D01*
X166430820Y-136925498D01*
X166320506Y-136984463D01*
X166223815Y-137063815D01*
X166144463Y-137160506D01*
X166085498Y-137270820D01*
X166049188Y-137390518D01*
X166036928Y-137515000D01*
X161245095Y-137515000D01*
X161110414Y-137366481D01*
X160884420Y-137198963D01*
X160630087Y-137078754D01*
X160496039Y-137038096D01*
X160274000Y-137160085D01*
X160020000Y-137160085D01*
X159797961Y-137038096D01*
X159663913Y-137078754D01*
X159409580Y-137198963D01*
X159183586Y-137366481D01*
X159079725Y-137481014D01*
X159070812Y-137390518D01*
X159034502Y-137270820D01*
X158975537Y-137160506D01*
X158896185Y-137063815D01*
X158799494Y-136984463D01*
X158689180Y-136925498D01*
X158569482Y-136889188D01*
X158445000Y-136876928D01*
X157765750Y-136880000D01*
X157607000Y-137038750D01*
X157353000Y-137038750D01*
X157194250Y-136880000D01*
X156515000Y-136876928D01*
X156390518Y-136889188D01*
X156270820Y-136925498D01*
X156160506Y-136984463D01*
X156063815Y-137063815D01*
X155984463Y-137160506D01*
X155925498Y-137270820D01*
X155889188Y-137390518D01*
X155876928Y-137515000D01*
X155384379Y-137515000D01*
X155472774Y-137455937D01*
X155616937Y-137311774D01*
X155730205Y-137142256D01*
X155808226Y-136953898D01*
X155848000Y-136753939D01*
X155848000Y-136550061D01*
X155808226Y-136350102D01*
X155730205Y-136161744D01*
X155616937Y-135992226D01*
X155573000Y-135948289D01*
X155573000Y-134960565D01*
X155780000Y-134960565D01*
X155780000Y-135295435D01*
X155845330Y-135623872D01*
X155973479Y-135933252D01*
X156159523Y-136211687D01*
X156396313Y-136448477D01*
X156674748Y-136634521D01*
X156984128Y-136762670D01*
X157312565Y-136828000D01*
X157647435Y-136828000D01*
X157975872Y-136762670D01*
X158285252Y-136634521D01*
X158563687Y-136448477D01*
X158800477Y-136211687D01*
X158986521Y-135933252D01*
X159114670Y-135623872D01*
X159180000Y-135295435D01*
X159180000Y-134960565D01*
X165940000Y-134960565D01*
X165940000Y-135295435D01*
X166005330Y-135623872D01*
X166133479Y-135933252D01*
X166319523Y-136211687D01*
X166556313Y-136448477D01*
X166834748Y-136634521D01*
X167144128Y-136762670D01*
X167472565Y-136828000D01*
X167807435Y-136828000D01*
X168135872Y-136762670D01*
X168445252Y-136634521D01*
X168723687Y-136448477D01*
X168960477Y-136211687D01*
X169146521Y-135933252D01*
X169274670Y-135623872D01*
X169340000Y-135295435D01*
X169340000Y-134960565D01*
X169334033Y-134930565D01*
X176100000Y-134930565D01*
X176100000Y-135265435D01*
X176165330Y-135593872D01*
X176293479Y-135903252D01*
X176479523Y-136181687D01*
X176716313Y-136418477D01*
X176994748Y-136604521D01*
X177304128Y-136732670D01*
X177632565Y-136798000D01*
X177967435Y-136798000D01*
X178295872Y-136732670D01*
X178605252Y-136604521D01*
X178883687Y-136418477D01*
X179120477Y-136181687D01*
X179306521Y-135903252D01*
X179434670Y-135593872D01*
X179500000Y-135265435D01*
X179500000Y-134930565D01*
X179434670Y-134602128D01*
X179306521Y-134292748D01*
X179120477Y-134014313D01*
X178883687Y-133777523D01*
X178605252Y-133591479D01*
X178295872Y-133463330D01*
X177967435Y-133398000D01*
X177632565Y-133398000D01*
X177304128Y-133463330D01*
X176994748Y-133591479D01*
X176716313Y-133777523D01*
X176479523Y-134014313D01*
X176293479Y-134292748D01*
X176165330Y-134602128D01*
X176100000Y-134930565D01*
X169334033Y-134930565D01*
X169274670Y-134632128D01*
X169146521Y-134322748D01*
X168960477Y-134044313D01*
X168723687Y-133807523D01*
X168445252Y-133621479D01*
X168135872Y-133493330D01*
X167807435Y-133428000D01*
X167472565Y-133428000D01*
X167144128Y-133493330D01*
X166834748Y-133621479D01*
X166556313Y-133807523D01*
X166319523Y-134044313D01*
X166133479Y-134322748D01*
X166005330Y-134632128D01*
X165940000Y-134960565D01*
X159180000Y-134960565D01*
X159114670Y-134632128D01*
X158986521Y-134322748D01*
X158800477Y-134044313D01*
X158563687Y-133807523D01*
X158285252Y-133621479D01*
X157975872Y-133493330D01*
X157647435Y-133428000D01*
X157312565Y-133428000D01*
X156984128Y-133493330D01*
X156674748Y-133621479D01*
X156396313Y-133807523D01*
X156159523Y-134044313D01*
X155973479Y-134322748D01*
X155845330Y-134632128D01*
X155780000Y-134960565D01*
X155573000Y-134960565D01*
X155573000Y-130518000D01*
X158835928Y-130518000D01*
X158835928Y-132118000D01*
X158848188Y-132242482D01*
X158884498Y-132362180D01*
X158943463Y-132472494D01*
X159022815Y-132569185D01*
X159119506Y-132648537D01*
X159229820Y-132707502D01*
X159349518Y-132743812D01*
X159474000Y-132756072D01*
X161074000Y-132756072D01*
X161198482Y-132743812D01*
X161318180Y-132707502D01*
X161428494Y-132648537D01*
X161525185Y-132569185D01*
X161604537Y-132472494D01*
X161663502Y-132362180D01*
X161699812Y-132242482D01*
X161712072Y-132118000D01*
X161712072Y-130518000D01*
X161699812Y-130393518D01*
X161663502Y-130273820D01*
X161604537Y-130163506D01*
X161525185Y-130066815D01*
X161428494Y-129987463D01*
X161318180Y-129928498D01*
X161198482Y-129892188D01*
X161074000Y-129879928D01*
X159474000Y-129879928D01*
X159349518Y-129892188D01*
X159229820Y-129928498D01*
X159119506Y-129987463D01*
X159022815Y-130066815D01*
X158943463Y-130163506D01*
X158884498Y-130273820D01*
X158848188Y-130393518D01*
X158835928Y-130518000D01*
X155573000Y-130518000D01*
X155573000Y-126660565D01*
X155780000Y-126660565D01*
X155780000Y-126995435D01*
X155845330Y-127323872D01*
X155973479Y-127633252D01*
X156159523Y-127911687D01*
X156396313Y-128148477D01*
X156674748Y-128334521D01*
X156984128Y-128462670D01*
X157312565Y-128528000D01*
X157647435Y-128528000D01*
X157975872Y-128462670D01*
X158285252Y-128334521D01*
X158563687Y-128148477D01*
X158800477Y-127911687D01*
X158986521Y-127633252D01*
X159114670Y-127323872D01*
X159180000Y-126995435D01*
X159180000Y-126660565D01*
X165940000Y-126660565D01*
X165940000Y-126995435D01*
X166005330Y-127323872D01*
X166133479Y-127633252D01*
X166319523Y-127911687D01*
X166556313Y-128148477D01*
X166834748Y-128334521D01*
X167144128Y-128462670D01*
X167472565Y-128528000D01*
X167807435Y-128528000D01*
X168135872Y-128462670D01*
X168445252Y-128334521D01*
X168723687Y-128148477D01*
X168960477Y-127911687D01*
X169146521Y-127633252D01*
X169274670Y-127323872D01*
X169340000Y-126995435D01*
X169340000Y-126660565D01*
X169334033Y-126630565D01*
X176100000Y-126630565D01*
X176100000Y-126965435D01*
X176165330Y-127293872D01*
X176293479Y-127603252D01*
X176479523Y-127881687D01*
X176716313Y-128118477D01*
X176994748Y-128304521D01*
X177304128Y-128432670D01*
X177632565Y-128498000D01*
X177967435Y-128498000D01*
X178295872Y-128432670D01*
X178605252Y-128304521D01*
X178883687Y-128118477D01*
X179120477Y-127881687D01*
X179306521Y-127603252D01*
X179434670Y-127293872D01*
X179500000Y-126965435D01*
X179500000Y-126630565D01*
X179434670Y-126302128D01*
X179306521Y-125992748D01*
X179120477Y-125714313D01*
X178883687Y-125477523D01*
X178605252Y-125291479D01*
X178504860Y-125249895D01*
X178765000Y-125251072D01*
X178889482Y-125238812D01*
X179009180Y-125202502D01*
X179119494Y-125143537D01*
X179216185Y-125064185D01*
X179295537Y-124967494D01*
X179354502Y-124857180D01*
X179390812Y-124737482D01*
X179403072Y-124613000D01*
X179400000Y-123983750D01*
X179241250Y-123825000D01*
X177927000Y-123825000D01*
X177927000Y-123845000D01*
X177673000Y-123845000D01*
X177673000Y-123825000D01*
X176358750Y-123825000D01*
X176200000Y-123983750D01*
X176196928Y-124613000D01*
X176209188Y-124737482D01*
X176245498Y-124857180D01*
X176304463Y-124967494D01*
X176383815Y-125064185D01*
X176480506Y-125143537D01*
X176590820Y-125202502D01*
X176710518Y-125238812D01*
X176835000Y-125251072D01*
X177095140Y-125249895D01*
X176994748Y-125291479D01*
X176716313Y-125477523D01*
X176479523Y-125714313D01*
X176293479Y-125992748D01*
X176165330Y-126302128D01*
X176100000Y-126630565D01*
X169334033Y-126630565D01*
X169274670Y-126332128D01*
X169146521Y-126022748D01*
X168960477Y-125744313D01*
X168723687Y-125507523D01*
X168445252Y-125321479D01*
X168344860Y-125279895D01*
X168605000Y-125281072D01*
X168729482Y-125268812D01*
X168849180Y-125232502D01*
X168959494Y-125173537D01*
X169056185Y-125094185D01*
X169135537Y-124997494D01*
X169194502Y-124887180D01*
X169230812Y-124767482D01*
X169243072Y-124643000D01*
X169240000Y-124013750D01*
X169081250Y-123855000D01*
X167767000Y-123855000D01*
X167767000Y-123875000D01*
X167513000Y-123875000D01*
X167513000Y-123855000D01*
X166198750Y-123855000D01*
X166040000Y-124013750D01*
X166036928Y-124643000D01*
X166049188Y-124767482D01*
X166085498Y-124887180D01*
X166144463Y-124997494D01*
X166223815Y-125094185D01*
X166320506Y-125173537D01*
X166430820Y-125232502D01*
X166550518Y-125268812D01*
X166675000Y-125281072D01*
X166935140Y-125279895D01*
X166834748Y-125321479D01*
X166556313Y-125507523D01*
X166319523Y-125744313D01*
X166133479Y-126022748D01*
X166005330Y-126332128D01*
X165940000Y-126660565D01*
X159180000Y-126660565D01*
X159114670Y-126332128D01*
X158986521Y-126022748D01*
X158800477Y-125744313D01*
X158563687Y-125507523D01*
X158285252Y-125321479D01*
X158184860Y-125279895D01*
X158445000Y-125281072D01*
X158569482Y-125268812D01*
X158689180Y-125232502D01*
X158799494Y-125173537D01*
X158896185Y-125094185D01*
X158975537Y-124997494D01*
X159034502Y-124887180D01*
X159070812Y-124767482D01*
X159083072Y-124643000D01*
X159082313Y-124487599D01*
X159121615Y-124553131D01*
X159310586Y-124761519D01*
X159536580Y-124929037D01*
X159790913Y-125049246D01*
X159924961Y-125089904D01*
X160147000Y-124967915D01*
X160147000Y-123825000D01*
X160401000Y-123825000D01*
X160401000Y-124967915D01*
X160623039Y-125089904D01*
X160757087Y-125049246D01*
X161011420Y-124929037D01*
X161237414Y-124761519D01*
X161426385Y-124553131D01*
X161571070Y-124311881D01*
X161665909Y-124047040D01*
X161544624Y-123825000D01*
X160401000Y-123825000D01*
X160147000Y-123825000D01*
X159003376Y-123825000D01*
X158963766Y-123897516D01*
X158921250Y-123855000D01*
X157607000Y-123855000D01*
X157607000Y-123875000D01*
X157353000Y-123875000D01*
X157353000Y-123855000D01*
X156038750Y-123855000D01*
X155880000Y-124013750D01*
X155876928Y-124643000D01*
X155889188Y-124767482D01*
X155925498Y-124887180D01*
X155984463Y-124997494D01*
X156063815Y-125094185D01*
X156160506Y-125173537D01*
X156270820Y-125232502D01*
X156390518Y-125268812D01*
X156515000Y-125281072D01*
X156775140Y-125279895D01*
X156674748Y-125321479D01*
X156396313Y-125507523D01*
X156159523Y-125744313D01*
X155973479Y-126022748D01*
X155845330Y-126332128D01*
X155780000Y-126660565D01*
X155573000Y-126660565D01*
X155573000Y-122813000D01*
X155876928Y-122813000D01*
X155880000Y-123442250D01*
X156038750Y-123601000D01*
X157353000Y-123601000D01*
X157353000Y-122336750D01*
X157607000Y-122336750D01*
X157607000Y-123601000D01*
X158921250Y-123601000D01*
X158984962Y-123537288D01*
X159003376Y-123571000D01*
X160147000Y-123571000D01*
X160147000Y-122428085D01*
X160401000Y-122428085D01*
X160401000Y-123571000D01*
X161544624Y-123571000D01*
X161665909Y-123348960D01*
X161571070Y-123084119D01*
X161426385Y-122842869D01*
X161399300Y-122813000D01*
X166036928Y-122813000D01*
X166040000Y-123442250D01*
X166198750Y-123601000D01*
X167513000Y-123601000D01*
X167513000Y-122336750D01*
X167767000Y-122336750D01*
X167767000Y-123601000D01*
X169081250Y-123601000D01*
X169240000Y-123442250D01*
X169243072Y-122813000D01*
X169240118Y-122783000D01*
X176196928Y-122783000D01*
X176200000Y-123412250D01*
X176358750Y-123571000D01*
X177673000Y-123571000D01*
X177673000Y-122306750D01*
X177927000Y-122306750D01*
X177927000Y-123571000D01*
X179241250Y-123571000D01*
X179400000Y-123412250D01*
X179403072Y-122783000D01*
X179390812Y-122658518D01*
X179354502Y-122538820D01*
X179295537Y-122428506D01*
X179216185Y-122331815D01*
X179119494Y-122252463D01*
X179009180Y-122193498D01*
X178889482Y-122157188D01*
X178765000Y-122144928D01*
X178085750Y-122148000D01*
X177927000Y-122306750D01*
X177673000Y-122306750D01*
X177514250Y-122148000D01*
X176835000Y-122144928D01*
X176710518Y-122157188D01*
X176590820Y-122193498D01*
X176480506Y-122252463D01*
X176383815Y-122331815D01*
X176304463Y-122428506D01*
X176245498Y-122538820D01*
X176209188Y-122658518D01*
X176196928Y-122783000D01*
X169240118Y-122783000D01*
X169230812Y-122688518D01*
X169194502Y-122568820D01*
X169135537Y-122458506D01*
X169056185Y-122361815D01*
X168959494Y-122282463D01*
X168849180Y-122223498D01*
X168729482Y-122187188D01*
X168605000Y-122174928D01*
X167925750Y-122178000D01*
X167767000Y-122336750D01*
X167513000Y-122336750D01*
X167354250Y-122178000D01*
X166675000Y-122174928D01*
X166550518Y-122187188D01*
X166430820Y-122223498D01*
X166320506Y-122282463D01*
X166223815Y-122361815D01*
X166144463Y-122458506D01*
X166085498Y-122568820D01*
X166049188Y-122688518D01*
X166036928Y-122813000D01*
X161399300Y-122813000D01*
X161237414Y-122634481D01*
X161011420Y-122466963D01*
X160757087Y-122346754D01*
X160623039Y-122306096D01*
X160401000Y-122428085D01*
X160147000Y-122428085D01*
X159924961Y-122306096D01*
X159790913Y-122346754D01*
X159536580Y-122466963D01*
X159310586Y-122634481D01*
X159121615Y-122842869D01*
X159082609Y-122907909D01*
X159083072Y-122813000D01*
X159070812Y-122688518D01*
X159034502Y-122568820D01*
X158975537Y-122458506D01*
X158896185Y-122361815D01*
X158799494Y-122282463D01*
X158689180Y-122223498D01*
X158569482Y-122187188D01*
X158445000Y-122174928D01*
X157765750Y-122178000D01*
X157607000Y-122336750D01*
X157353000Y-122336750D01*
X157194250Y-122178000D01*
X156515000Y-122174928D01*
X156390518Y-122187188D01*
X156270820Y-122223498D01*
X156160506Y-122282463D01*
X156063815Y-122361815D01*
X155984463Y-122458506D01*
X155925498Y-122568820D01*
X155889188Y-122688518D01*
X155876928Y-122813000D01*
X155573000Y-122813000D01*
X155573000Y-122369711D01*
X155616937Y-122325774D01*
X155730205Y-122156256D01*
X155808226Y-121967898D01*
X155848000Y-121767939D01*
X155848000Y-121564061D01*
X155808226Y-121364102D01*
X155730205Y-121175744D01*
X155616937Y-121006226D01*
X155573000Y-120962289D01*
X155573000Y-120198565D01*
X155780000Y-120198565D01*
X155780000Y-120533435D01*
X155845330Y-120861872D01*
X155973479Y-121171252D01*
X156159523Y-121449687D01*
X156396313Y-121686477D01*
X156674748Y-121872521D01*
X156984128Y-122000670D01*
X157312565Y-122066000D01*
X157647435Y-122066000D01*
X157975872Y-122000670D01*
X158285252Y-121872521D01*
X158563687Y-121686477D01*
X158800477Y-121449687D01*
X158986521Y-121171252D01*
X159114670Y-120861872D01*
X159180000Y-120533435D01*
X159180000Y-120198565D01*
X165940000Y-120198565D01*
X165940000Y-120533435D01*
X166005330Y-120861872D01*
X166133479Y-121171252D01*
X166319523Y-121449687D01*
X166556313Y-121686477D01*
X166834748Y-121872521D01*
X167144128Y-122000670D01*
X167472565Y-122066000D01*
X167807435Y-122066000D01*
X168135872Y-122000670D01*
X168445252Y-121872521D01*
X168723687Y-121686477D01*
X168960477Y-121449687D01*
X169146521Y-121171252D01*
X169274670Y-120861872D01*
X169340000Y-120533435D01*
X169340000Y-120198565D01*
X176100000Y-120198565D01*
X176100000Y-120533435D01*
X176165330Y-120861872D01*
X176293479Y-121171252D01*
X176479523Y-121449687D01*
X176716313Y-121686477D01*
X176994748Y-121872521D01*
X177304128Y-122000670D01*
X177632565Y-122066000D01*
X177967435Y-122066000D01*
X178295872Y-122000670D01*
X178605252Y-121872521D01*
X178883687Y-121686477D01*
X179120477Y-121449687D01*
X179306521Y-121171252D01*
X179434670Y-120861872D01*
X179500000Y-120533435D01*
X179500000Y-120198565D01*
X179434670Y-119870128D01*
X179306521Y-119560748D01*
X179120477Y-119282313D01*
X178883687Y-119045523D01*
X178605252Y-118859479D01*
X178295872Y-118731330D01*
X177967435Y-118666000D01*
X177632565Y-118666000D01*
X177304128Y-118731330D01*
X176994748Y-118859479D01*
X176716313Y-119045523D01*
X176479523Y-119282313D01*
X176293479Y-119560748D01*
X176165330Y-119870128D01*
X176100000Y-120198565D01*
X169340000Y-120198565D01*
X169274670Y-119870128D01*
X169146521Y-119560748D01*
X168960477Y-119282313D01*
X168723687Y-119045523D01*
X168445252Y-118859479D01*
X168135872Y-118731330D01*
X167807435Y-118666000D01*
X167472565Y-118666000D01*
X167144128Y-118731330D01*
X166834748Y-118859479D01*
X166556313Y-119045523D01*
X166319523Y-119282313D01*
X166133479Y-119560748D01*
X166005330Y-119870128D01*
X165940000Y-120198565D01*
X159180000Y-120198565D01*
X159114670Y-119870128D01*
X158986521Y-119560748D01*
X158800477Y-119282313D01*
X158563687Y-119045523D01*
X158285252Y-118859479D01*
X157975872Y-118731330D01*
X157647435Y-118666000D01*
X157312565Y-118666000D01*
X156984128Y-118731330D01*
X156674748Y-118859479D01*
X156396313Y-119045523D01*
X156159523Y-119282313D01*
X155973479Y-119560748D01*
X155845330Y-119870128D01*
X155780000Y-120198565D01*
X155573000Y-120198565D01*
X155573000Y-115786000D01*
X158835928Y-115786000D01*
X158835928Y-117386000D01*
X158848188Y-117510482D01*
X158884498Y-117630180D01*
X158943463Y-117740494D01*
X159022815Y-117837185D01*
X159119506Y-117916537D01*
X159229820Y-117975502D01*
X159349518Y-118011812D01*
X159474000Y-118024072D01*
X161074000Y-118024072D01*
X161198482Y-118011812D01*
X161318180Y-117975502D01*
X161428494Y-117916537D01*
X161525185Y-117837185D01*
X161604537Y-117740494D01*
X161663502Y-117630180D01*
X161699812Y-117510482D01*
X161712072Y-117386000D01*
X161712072Y-115786000D01*
X161699812Y-115661518D01*
X161663502Y-115541820D01*
X161604537Y-115431506D01*
X161525185Y-115334815D01*
X161428494Y-115255463D01*
X161318180Y-115196498D01*
X161198482Y-115160188D01*
X161074000Y-115147928D01*
X159474000Y-115147928D01*
X159349518Y-115160188D01*
X159229820Y-115196498D01*
X159119506Y-115255463D01*
X159022815Y-115334815D01*
X158943463Y-115431506D01*
X158884498Y-115541820D01*
X158848188Y-115661518D01*
X158835928Y-115786000D01*
X155573000Y-115786000D01*
X155573000Y-111898565D01*
X155780000Y-111898565D01*
X155780000Y-112233435D01*
X155845330Y-112561872D01*
X155973479Y-112871252D01*
X156159523Y-113149687D01*
X156396313Y-113386477D01*
X156674748Y-113572521D01*
X156984128Y-113700670D01*
X157312565Y-113766000D01*
X157647435Y-113766000D01*
X157975872Y-113700670D01*
X158285252Y-113572521D01*
X158563687Y-113386477D01*
X158800477Y-113149687D01*
X158986521Y-112871252D01*
X159114670Y-112561872D01*
X159180000Y-112233435D01*
X159180000Y-111898565D01*
X165940000Y-111898565D01*
X165940000Y-112233435D01*
X166005330Y-112561872D01*
X166133479Y-112871252D01*
X166319523Y-113149687D01*
X166556313Y-113386477D01*
X166834748Y-113572521D01*
X167144128Y-113700670D01*
X167472565Y-113766000D01*
X167807435Y-113766000D01*
X168135872Y-113700670D01*
X168445252Y-113572521D01*
X168723687Y-113386477D01*
X168960477Y-113149687D01*
X169146521Y-112871252D01*
X169274670Y-112561872D01*
X169340000Y-112233435D01*
X169340000Y-111898565D01*
X176100000Y-111898565D01*
X176100000Y-112233435D01*
X176165330Y-112561872D01*
X176293479Y-112871252D01*
X176479523Y-113149687D01*
X176716313Y-113386477D01*
X176994748Y-113572521D01*
X177304128Y-113700670D01*
X177632565Y-113766000D01*
X177967435Y-113766000D01*
X178295872Y-113700670D01*
X178605252Y-113572521D01*
X178883687Y-113386477D01*
X179120477Y-113149687D01*
X179306521Y-112871252D01*
X179434670Y-112561872D01*
X179500000Y-112233435D01*
X179500000Y-111898565D01*
X179434670Y-111570128D01*
X179306521Y-111260748D01*
X179120477Y-110982313D01*
X178883687Y-110745523D01*
X178605252Y-110559479D01*
X178504860Y-110517895D01*
X178765000Y-110519072D01*
X178889482Y-110506812D01*
X179009180Y-110470502D01*
X179119494Y-110411537D01*
X179216185Y-110332185D01*
X179295537Y-110235494D01*
X179354502Y-110125180D01*
X179390812Y-110005482D01*
X179403072Y-109881000D01*
X179400000Y-109251750D01*
X179241250Y-109093000D01*
X177927000Y-109093000D01*
X177927000Y-109113000D01*
X177673000Y-109113000D01*
X177673000Y-109093000D01*
X176358750Y-109093000D01*
X176200000Y-109251750D01*
X176196928Y-109881000D01*
X176209188Y-110005482D01*
X176245498Y-110125180D01*
X176304463Y-110235494D01*
X176383815Y-110332185D01*
X176480506Y-110411537D01*
X176590820Y-110470502D01*
X176710518Y-110506812D01*
X176835000Y-110519072D01*
X177095140Y-110517895D01*
X176994748Y-110559479D01*
X176716313Y-110745523D01*
X176479523Y-110982313D01*
X176293479Y-111260748D01*
X176165330Y-111570128D01*
X176100000Y-111898565D01*
X169340000Y-111898565D01*
X169274670Y-111570128D01*
X169146521Y-111260748D01*
X168960477Y-110982313D01*
X168723687Y-110745523D01*
X168445252Y-110559479D01*
X168344860Y-110517895D01*
X168605000Y-110519072D01*
X168729482Y-110506812D01*
X168849180Y-110470502D01*
X168959494Y-110411537D01*
X169056185Y-110332185D01*
X169135537Y-110235494D01*
X169194502Y-110125180D01*
X169230812Y-110005482D01*
X169243072Y-109881000D01*
X169240000Y-109251750D01*
X169081250Y-109093000D01*
X167767000Y-109093000D01*
X167767000Y-109113000D01*
X167513000Y-109113000D01*
X167513000Y-109093000D01*
X166198750Y-109093000D01*
X166040000Y-109251750D01*
X166036928Y-109881000D01*
X166049188Y-110005482D01*
X166085498Y-110125180D01*
X166144463Y-110235494D01*
X166223815Y-110332185D01*
X166320506Y-110411537D01*
X166430820Y-110470502D01*
X166550518Y-110506812D01*
X166675000Y-110519072D01*
X166935140Y-110517895D01*
X166834748Y-110559479D01*
X166556313Y-110745523D01*
X166319523Y-110982313D01*
X166133479Y-111260748D01*
X166005330Y-111570128D01*
X165940000Y-111898565D01*
X159180000Y-111898565D01*
X159114670Y-111570128D01*
X158986521Y-111260748D01*
X158800477Y-110982313D01*
X158563687Y-110745523D01*
X158285252Y-110559479D01*
X158184860Y-110517895D01*
X158445000Y-110519072D01*
X158569482Y-110506812D01*
X158689180Y-110470502D01*
X158799494Y-110411537D01*
X158896185Y-110332185D01*
X158975537Y-110235494D01*
X159034502Y-110125180D01*
X159070812Y-110005482D01*
X159083072Y-109881000D01*
X159082461Y-109755845D01*
X159121615Y-109821131D01*
X159310586Y-110029519D01*
X159536580Y-110197037D01*
X159790913Y-110317246D01*
X159924961Y-110357904D01*
X160147000Y-110235915D01*
X160147000Y-109093000D01*
X160401000Y-109093000D01*
X160401000Y-110235915D01*
X160623039Y-110357904D01*
X160757087Y-110317246D01*
X161011420Y-110197037D01*
X161237414Y-110029519D01*
X161426385Y-109821131D01*
X161571070Y-109579881D01*
X161665909Y-109315040D01*
X161544624Y-109093000D01*
X160401000Y-109093000D01*
X160147000Y-109093000D01*
X159003376Y-109093000D01*
X158974364Y-109146114D01*
X158921250Y-109093000D01*
X157607000Y-109093000D01*
X157607000Y-109113000D01*
X157353000Y-109113000D01*
X157353000Y-109093000D01*
X156038750Y-109093000D01*
X155880000Y-109251750D01*
X155876928Y-109881000D01*
X155889188Y-110005482D01*
X155925498Y-110125180D01*
X155984463Y-110235494D01*
X156063815Y-110332185D01*
X156160506Y-110411537D01*
X156270820Y-110470502D01*
X156390518Y-110506812D01*
X156515000Y-110519072D01*
X156775140Y-110517895D01*
X156674748Y-110559479D01*
X156396313Y-110745523D01*
X156159523Y-110982313D01*
X155973479Y-111260748D01*
X155845330Y-111570128D01*
X155780000Y-111898565D01*
X155573000Y-111898565D01*
X155573000Y-108051000D01*
X155876928Y-108051000D01*
X155880000Y-108680250D01*
X156038750Y-108839000D01*
X157353000Y-108839000D01*
X157353000Y-107574750D01*
X157607000Y-107574750D01*
X157607000Y-108839000D01*
X158921250Y-108839000D01*
X158974364Y-108785886D01*
X159003376Y-108839000D01*
X160147000Y-108839000D01*
X160147000Y-107696085D01*
X160401000Y-107696085D01*
X160401000Y-108839000D01*
X161544624Y-108839000D01*
X161665909Y-108616960D01*
X161571070Y-108352119D01*
X161426385Y-108110869D01*
X161372095Y-108051000D01*
X166036928Y-108051000D01*
X166040000Y-108680250D01*
X166198750Y-108839000D01*
X167513000Y-108839000D01*
X167513000Y-107574750D01*
X167767000Y-107574750D01*
X167767000Y-108839000D01*
X169081250Y-108839000D01*
X169240000Y-108680250D01*
X169243072Y-108051000D01*
X176196928Y-108051000D01*
X176200000Y-108680250D01*
X176358750Y-108839000D01*
X177673000Y-108839000D01*
X177673000Y-107574750D01*
X177927000Y-107574750D01*
X177927000Y-108839000D01*
X179241250Y-108839000D01*
X179400000Y-108680250D01*
X179403072Y-108051000D01*
X179390812Y-107926518D01*
X179354502Y-107806820D01*
X179295537Y-107696506D01*
X179216185Y-107599815D01*
X179119494Y-107520463D01*
X179009180Y-107461498D01*
X178889482Y-107425188D01*
X178765000Y-107412928D01*
X178085750Y-107416000D01*
X177927000Y-107574750D01*
X177673000Y-107574750D01*
X177514250Y-107416000D01*
X176835000Y-107412928D01*
X176710518Y-107425188D01*
X176590820Y-107461498D01*
X176480506Y-107520463D01*
X176383815Y-107599815D01*
X176304463Y-107696506D01*
X176245498Y-107806820D01*
X176209188Y-107926518D01*
X176196928Y-108051000D01*
X169243072Y-108051000D01*
X169230812Y-107926518D01*
X169194502Y-107806820D01*
X169135537Y-107696506D01*
X169056185Y-107599815D01*
X168959494Y-107520463D01*
X168849180Y-107461498D01*
X168729482Y-107425188D01*
X168605000Y-107412928D01*
X167925750Y-107416000D01*
X167767000Y-107574750D01*
X167513000Y-107574750D01*
X167354250Y-107416000D01*
X166675000Y-107412928D01*
X166550518Y-107425188D01*
X166430820Y-107461498D01*
X166320506Y-107520463D01*
X166223815Y-107599815D01*
X166144463Y-107696506D01*
X166085498Y-107806820D01*
X166049188Y-107926518D01*
X166036928Y-108051000D01*
X161372095Y-108051000D01*
X161237414Y-107902481D01*
X161011420Y-107734963D01*
X160757087Y-107614754D01*
X160623039Y-107574096D01*
X160401000Y-107696085D01*
X160147000Y-107696085D01*
X159924961Y-107574096D01*
X159790913Y-107614754D01*
X159536580Y-107734963D01*
X159310586Y-107902481D01*
X159121615Y-108110869D01*
X159082461Y-108176155D01*
X159083072Y-108051000D01*
X159070812Y-107926518D01*
X159034502Y-107806820D01*
X158975537Y-107696506D01*
X158896185Y-107599815D01*
X158799494Y-107520463D01*
X158689180Y-107461498D01*
X158569482Y-107425188D01*
X158445000Y-107412928D01*
X157765750Y-107416000D01*
X157607000Y-107574750D01*
X157353000Y-107574750D01*
X157194250Y-107416000D01*
X156515000Y-107412928D01*
X156390518Y-107425188D01*
X156270820Y-107461498D01*
X156160506Y-107520463D01*
X156063815Y-107599815D01*
X155984463Y-107696506D01*
X155925498Y-107806820D01*
X155889188Y-107926518D01*
X155876928Y-108051000D01*
X155573000Y-108051000D01*
X155573000Y-107764711D01*
X155616937Y-107720774D01*
X155730205Y-107551256D01*
X155808226Y-107362898D01*
X155848000Y-107162939D01*
X155848000Y-107100802D01*
X155895502Y-107053300D01*
X155924501Y-107029501D01*
X155986072Y-106954477D01*
X156019474Y-106913777D01*
X156090046Y-106781747D01*
X156109478Y-106717687D01*
X156125104Y-106666175D01*
X156159523Y-106717687D01*
X156396313Y-106954477D01*
X156674748Y-107140521D01*
X156984128Y-107268670D01*
X157312565Y-107334000D01*
X157647435Y-107334000D01*
X157975872Y-107268670D01*
X158285252Y-107140521D01*
X158563687Y-106954477D01*
X158800477Y-106717687D01*
X158986521Y-106439252D01*
X159114670Y-106129872D01*
X159180000Y-105801435D01*
X159180000Y-105466565D01*
X165940000Y-105466565D01*
X165940000Y-105801435D01*
X166005330Y-106129872D01*
X166133479Y-106439252D01*
X166319523Y-106717687D01*
X166556313Y-106954477D01*
X166834748Y-107140521D01*
X167144128Y-107268670D01*
X167472565Y-107334000D01*
X167807435Y-107334000D01*
X168135872Y-107268670D01*
X168445252Y-107140521D01*
X168723687Y-106954477D01*
X168960477Y-106717687D01*
X169146521Y-106439252D01*
X169274670Y-106129872D01*
X169340000Y-105801435D01*
X169340000Y-105466565D01*
X176100000Y-105466565D01*
X176100000Y-105801435D01*
X176165330Y-106129872D01*
X176293479Y-106439252D01*
X176479523Y-106717687D01*
X176716313Y-106954477D01*
X176994748Y-107140521D01*
X177304128Y-107268670D01*
X177632565Y-107334000D01*
X177967435Y-107334000D01*
X178295872Y-107268670D01*
X178605252Y-107140521D01*
X178883687Y-106954477D01*
X179120477Y-106717687D01*
X179306521Y-106439252D01*
X179434670Y-106129872D01*
X179500000Y-105801435D01*
X179500000Y-105466565D01*
X179434670Y-105138128D01*
X179306521Y-104828748D01*
X179120477Y-104550313D01*
X178883687Y-104313523D01*
X178605252Y-104127479D01*
X178295872Y-103999330D01*
X177967435Y-103934000D01*
X177632565Y-103934000D01*
X177304128Y-103999330D01*
X176994748Y-104127479D01*
X176716313Y-104313523D01*
X176479523Y-104550313D01*
X176293479Y-104828748D01*
X176165330Y-105138128D01*
X176100000Y-105466565D01*
X169340000Y-105466565D01*
X169274670Y-105138128D01*
X169146521Y-104828748D01*
X168960477Y-104550313D01*
X168723687Y-104313523D01*
X168445252Y-104127479D01*
X168135872Y-103999330D01*
X167807435Y-103934000D01*
X167472565Y-103934000D01*
X167144128Y-103999330D01*
X166834748Y-104127479D01*
X166556313Y-104313523D01*
X166319523Y-104550313D01*
X166133479Y-104828748D01*
X166005330Y-105138128D01*
X165940000Y-105466565D01*
X159180000Y-105466565D01*
X159114670Y-105138128D01*
X158986521Y-104828748D01*
X158800477Y-104550313D01*
X158563687Y-104313523D01*
X158285252Y-104127479D01*
X157975872Y-103999330D01*
X157647435Y-103934000D01*
X157312565Y-103934000D01*
X156984128Y-103999330D01*
X156674748Y-104127479D01*
X156396313Y-104313523D01*
X156159523Y-104550313D01*
X156144500Y-104572797D01*
X156144500Y-101054000D01*
X158835928Y-101054000D01*
X158835928Y-102654000D01*
X158848188Y-102778482D01*
X158884498Y-102898180D01*
X158943463Y-103008494D01*
X159022815Y-103105185D01*
X159119506Y-103184537D01*
X159229820Y-103243502D01*
X159349518Y-103279812D01*
X159474000Y-103292072D01*
X161074000Y-103292072D01*
X161198482Y-103279812D01*
X161318180Y-103243502D01*
X161428494Y-103184537D01*
X161525185Y-103105185D01*
X161604537Y-103008494D01*
X161663502Y-102898180D01*
X161699812Y-102778482D01*
X161712072Y-102654000D01*
X161712072Y-101054000D01*
X161699812Y-100929518D01*
X161663502Y-100809820D01*
X161604537Y-100699506D01*
X161525185Y-100602815D01*
X161428494Y-100523463D01*
X161318180Y-100464498D01*
X161198482Y-100428188D01*
X161074000Y-100415928D01*
X159474000Y-100415928D01*
X159349518Y-100428188D01*
X159229820Y-100464498D01*
X159119506Y-100523463D01*
X159022815Y-100602815D01*
X158943463Y-100699506D01*
X158884498Y-100809820D01*
X158848188Y-100929518D01*
X158835928Y-101054000D01*
X156144500Y-101054000D01*
X156144500Y-98589322D01*
X156148176Y-98551999D01*
X156144500Y-98514676D01*
X156144500Y-98514667D01*
X156133503Y-98403014D01*
X156120020Y-98358567D01*
X156159523Y-98417687D01*
X156396313Y-98654477D01*
X156674748Y-98840521D01*
X156984128Y-98968670D01*
X157312565Y-99034000D01*
X157647435Y-99034000D01*
X157975872Y-98968670D01*
X158285252Y-98840521D01*
X158563687Y-98654477D01*
X158800477Y-98417687D01*
X158986521Y-98139252D01*
X159114670Y-97829872D01*
X159180000Y-97501435D01*
X159180000Y-97166565D01*
X159114670Y-96838128D01*
X158986521Y-96528748D01*
X158800477Y-96250313D01*
X158563687Y-96013523D01*
X158285252Y-95827479D01*
X158184860Y-95785895D01*
X158445000Y-95787072D01*
X158569482Y-95774812D01*
X158689180Y-95738502D01*
X158799494Y-95679537D01*
X158896185Y-95600185D01*
X158975537Y-95503494D01*
X159034502Y-95393180D01*
X159070812Y-95273482D01*
X159083072Y-95149000D01*
X159082461Y-95023845D01*
X159121615Y-95089131D01*
X159310586Y-95297519D01*
X159536580Y-95465037D01*
X159790913Y-95585246D01*
X159924961Y-95625904D01*
X160147000Y-95503915D01*
X160147000Y-94361000D01*
X160401000Y-94361000D01*
X160401000Y-95503915D01*
X160623039Y-95625904D01*
X160757087Y-95585246D01*
X161011420Y-95465037D01*
X161237414Y-95297519D01*
X161426385Y-95089131D01*
X161571070Y-94847881D01*
X161665909Y-94583040D01*
X161544624Y-94361000D01*
X160401000Y-94361000D01*
X160147000Y-94361000D01*
X159003376Y-94361000D01*
X158974364Y-94414114D01*
X158921250Y-94361000D01*
X157607000Y-94361000D01*
X157607000Y-94381000D01*
X157353000Y-94381000D01*
X157353000Y-94361000D01*
X156038750Y-94361000D01*
X155880000Y-94519750D01*
X155876928Y-95149000D01*
X155889188Y-95273482D01*
X155925498Y-95393180D01*
X155984463Y-95503494D01*
X156063815Y-95600185D01*
X156160506Y-95679537D01*
X156270820Y-95738502D01*
X156390518Y-95774812D01*
X156515000Y-95787072D01*
X156775140Y-95785895D01*
X156674748Y-95827479D01*
X156396313Y-96013523D01*
X156159523Y-96250313D01*
X155973479Y-96528748D01*
X155845330Y-96838128D01*
X155780000Y-97166565D01*
X155780000Y-97501435D01*
X155845330Y-97829872D01*
X155918847Y-98007359D01*
X155895504Y-97988202D01*
X155573000Y-97665699D01*
X155573000Y-93319000D01*
X155876928Y-93319000D01*
X155880000Y-93948250D01*
X156038750Y-94107000D01*
X157353000Y-94107000D01*
X157353000Y-92842750D01*
X157607000Y-92842750D01*
X157607000Y-94107000D01*
X158921250Y-94107000D01*
X158974364Y-94053886D01*
X159003376Y-94107000D01*
X160147000Y-94107000D01*
X160147000Y-92964085D01*
X160401000Y-92964085D01*
X160401000Y-94107000D01*
X161544624Y-94107000D01*
X161665909Y-93884960D01*
X161571070Y-93620119D01*
X161426385Y-93378869D01*
X161237414Y-93170481D01*
X161011420Y-93002963D01*
X160757087Y-92882754D01*
X160623039Y-92842096D01*
X160401000Y-92964085D01*
X160147000Y-92964085D01*
X159924961Y-92842096D01*
X159790913Y-92882754D01*
X159536580Y-93002963D01*
X159310586Y-93170481D01*
X159121615Y-93378869D01*
X159082461Y-93444155D01*
X159083072Y-93319000D01*
X159070812Y-93194518D01*
X159034502Y-93074820D01*
X158975537Y-92964506D01*
X158896185Y-92867815D01*
X158799494Y-92788463D01*
X158689180Y-92729498D01*
X158569482Y-92693188D01*
X158445000Y-92680928D01*
X157765750Y-92684000D01*
X157607000Y-92842750D01*
X157353000Y-92842750D01*
X157194250Y-92684000D01*
X156515000Y-92680928D01*
X156390518Y-92693188D01*
X156270820Y-92729498D01*
X156160506Y-92788463D01*
X156063815Y-92867815D01*
X155984463Y-92964506D01*
X155925498Y-93074820D01*
X155889188Y-93194518D01*
X155876928Y-93319000D01*
X155573000Y-93319000D01*
X155573000Y-93159711D01*
X155616937Y-93115774D01*
X155730205Y-92946256D01*
X155808226Y-92757898D01*
X155848000Y-92557939D01*
X155848000Y-92495801D01*
X156143802Y-92200000D01*
X157696678Y-92200000D01*
X157734000Y-92203676D01*
X157771322Y-92200000D01*
X157771333Y-92200000D01*
X157882986Y-92189003D01*
X158026247Y-92145546D01*
X158158276Y-92074974D01*
X158274001Y-91980001D01*
X158297804Y-91950997D01*
X159515003Y-90733799D01*
X159544001Y-90710001D01*
X159638974Y-90594276D01*
X159709546Y-90462247D01*
X159753003Y-90318986D01*
X159764000Y-90207333D01*
X159764000Y-90207324D01*
X159767676Y-90170001D01*
X159764000Y-90132678D01*
X159764000Y-88502799D01*
X159793626Y-88473173D01*
X159837558Y-88602054D01*
X160007992Y-88896391D01*
X160232573Y-89151822D01*
X160502671Y-89358531D01*
X160807906Y-89508575D01*
X161020878Y-89573175D01*
X161290000Y-89455125D01*
X161290000Y-88011000D01*
X161270000Y-88011000D01*
X161270000Y-87757000D01*
X161290000Y-87757000D01*
X161290000Y-87737000D01*
X161544000Y-87737000D01*
X161544000Y-87757000D01*
X161564000Y-87757000D01*
X161564000Y-88011000D01*
X161544000Y-88011000D01*
X161544000Y-89455125D01*
X161813122Y-89573175D01*
X162026094Y-89508575D01*
X162083989Y-89480116D01*
X162083990Y-102031205D01*
X162058001Y-102057194D01*
X162028997Y-102080997D01*
X161973869Y-102148172D01*
X161934024Y-102196722D01*
X161863453Y-102328751D01*
X161863452Y-102328752D01*
X161819995Y-102472013D01*
X161808998Y-102583666D01*
X161808998Y-102583676D01*
X161805322Y-102620998D01*
X161808998Y-102658320D01*
X161808998Y-103279678D01*
X161805322Y-103317000D01*
X161808998Y-103354322D01*
X161808998Y-103354333D01*
X161819995Y-103465986D01*
X161844423Y-103546514D01*
X161863452Y-103609246D01*
X161934024Y-103741276D01*
X162005199Y-103828002D01*
X162028998Y-103857001D01*
X162057996Y-103880799D01*
X162383694Y-104206497D01*
X162407497Y-104235501D01*
X162523222Y-104330474D01*
X162655251Y-104401046D01*
X162798512Y-104444503D01*
X162910165Y-104455500D01*
X162910175Y-104455500D01*
X162947498Y-104459176D01*
X162984821Y-104455500D01*
X164777289Y-104455500D01*
X164821226Y-104499437D01*
X164990744Y-104612705D01*
X165179102Y-104690726D01*
X165379061Y-104730500D01*
X165582939Y-104730500D01*
X165782898Y-104690726D01*
X165971256Y-104612705D01*
X166140774Y-104499437D01*
X166284937Y-104355274D01*
X166398205Y-104185756D01*
X166476226Y-103997398D01*
X166516000Y-103797439D01*
X166516000Y-103593561D01*
X166476226Y-103393602D01*
X166398205Y-103205244D01*
X166284937Y-103035726D01*
X166140774Y-102891563D01*
X165971256Y-102778295D01*
X165782898Y-102700274D01*
X165582939Y-102660500D01*
X165379061Y-102660500D01*
X165179102Y-102700274D01*
X164990744Y-102778295D01*
X164821226Y-102891563D01*
X164777289Y-102935500D01*
X164328999Y-102935500D01*
X164328999Y-102867060D01*
X164289225Y-102667101D01*
X164211204Y-102478743D01*
X164097936Y-102309225D01*
X164053999Y-102265288D01*
X164053999Y-97166565D01*
X165940000Y-97166565D01*
X165940000Y-97501435D01*
X166005330Y-97829872D01*
X166133479Y-98139252D01*
X166319523Y-98417687D01*
X166556313Y-98654477D01*
X166834748Y-98840521D01*
X167144128Y-98968670D01*
X167472565Y-99034000D01*
X167807435Y-99034000D01*
X168135872Y-98968670D01*
X168445252Y-98840521D01*
X168723687Y-98654477D01*
X168960477Y-98417687D01*
X169146521Y-98139252D01*
X169274670Y-97829872D01*
X169340000Y-97501435D01*
X169340000Y-97166565D01*
X169274670Y-96838128D01*
X169146521Y-96528748D01*
X168960477Y-96250313D01*
X168723687Y-96013523D01*
X168445252Y-95827479D01*
X168344860Y-95785895D01*
X168605000Y-95787072D01*
X168729482Y-95774812D01*
X168849180Y-95738502D01*
X168959494Y-95679537D01*
X169056185Y-95600185D01*
X169135537Y-95503494D01*
X169194502Y-95393180D01*
X169230812Y-95273482D01*
X169243072Y-95149000D01*
X169240000Y-94519750D01*
X169081250Y-94361000D01*
X167767000Y-94361000D01*
X167767000Y-94381000D01*
X167513000Y-94381000D01*
X167513000Y-94361000D01*
X166198750Y-94361000D01*
X166040000Y-94519750D01*
X166036928Y-95149000D01*
X166049188Y-95273482D01*
X166085498Y-95393180D01*
X166144463Y-95503494D01*
X166223815Y-95600185D01*
X166320506Y-95679537D01*
X166430820Y-95738502D01*
X166550518Y-95774812D01*
X166675000Y-95787072D01*
X166935140Y-95785895D01*
X166834748Y-95827479D01*
X166556313Y-96013523D01*
X166319523Y-96250313D01*
X166133479Y-96528748D01*
X166005330Y-96838128D01*
X165940000Y-97166565D01*
X164053999Y-97166565D01*
X164053999Y-89486498D01*
X164212919Y-89552325D01*
X164548117Y-89619000D01*
X164889883Y-89619000D01*
X164902758Y-89616439D01*
X164626001Y-89893195D01*
X164596998Y-89916998D01*
X164551487Y-89972454D01*
X164502025Y-90032723D01*
X164433462Y-90160995D01*
X164431453Y-90164753D01*
X164387996Y-90308014D01*
X164376999Y-90419667D01*
X164376999Y-90419677D01*
X164373323Y-90456999D01*
X164376999Y-90494321D01*
X164376999Y-91115679D01*
X164373323Y-91153001D01*
X164376999Y-91190323D01*
X164376999Y-91190334D01*
X164387996Y-91301987D01*
X164412062Y-91381321D01*
X164431453Y-91445247D01*
X164502025Y-91577277D01*
X164573200Y-91664003D01*
X164596999Y-91693002D01*
X164625997Y-91716800D01*
X165622199Y-92713003D01*
X165645997Y-92742001D01*
X165674995Y-92765799D01*
X165761722Y-92836974D01*
X165893751Y-92907546D01*
X166037012Y-92951003D01*
X166146680Y-92961804D01*
X166144463Y-92964506D01*
X166085498Y-93074820D01*
X166049188Y-93194518D01*
X166036928Y-93319000D01*
X166040000Y-93948250D01*
X166198750Y-94107000D01*
X167513000Y-94107000D01*
X167513000Y-94087000D01*
X167767000Y-94087000D01*
X167767000Y-94107000D01*
X169081250Y-94107000D01*
X169240000Y-93948250D01*
X169243072Y-93319000D01*
X169230812Y-93194518D01*
X169194502Y-93074820D01*
X169135537Y-92964506D01*
X169063718Y-92876993D01*
X169078937Y-92861774D01*
X169099379Y-92831180D01*
X175839201Y-99571003D01*
X175862999Y-99600001D01*
X175891997Y-99623799D01*
X175978723Y-99694974D01*
X176110753Y-99765546D01*
X176254014Y-99809003D01*
X176365667Y-99820000D01*
X176365677Y-99820000D01*
X176403000Y-99823676D01*
X176440323Y-99820000D01*
X178093880Y-99820000D01*
X178131202Y-99823676D01*
X178168524Y-99820000D01*
X178168535Y-99820000D01*
X178280188Y-99809003D01*
X178423449Y-99765546D01*
X178555478Y-99694974D01*
X178671203Y-99600001D01*
X178695006Y-99570998D01*
X179701005Y-98564999D01*
X179730002Y-98541202D01*
X179770790Y-98491502D01*
X179824975Y-98425478D01*
X179895547Y-98293448D01*
X179905768Y-98259753D01*
X179939004Y-98150187D01*
X179950001Y-98038534D01*
X179950001Y-98038524D01*
X179953677Y-98001201D01*
X179950001Y-97963878D01*
X179950001Y-91654328D01*
X179953677Y-91617003D01*
X179950001Y-91579678D01*
X179950001Y-91579670D01*
X179939004Y-91468017D01*
X179895547Y-91324756D01*
X179824975Y-91192727D01*
X179730002Y-91077002D01*
X179701004Y-91053204D01*
X176201471Y-87553672D01*
X176255226Y-87423898D01*
X176295000Y-87223939D01*
X176295000Y-87020061D01*
X176255226Y-86820102D01*
X176177205Y-86631744D01*
X176063937Y-86462226D01*
X175919774Y-86318063D01*
X175750256Y-86204795D01*
X175561898Y-86126774D01*
X175361939Y-86087000D01*
X175221001Y-86087000D01*
X175221001Y-85615090D01*
X175223061Y-85615500D01*
G37*
%TD.AperFunction*%
D23*
X159731252Y-51461830D02*
X159473323Y-51634173D01*
X159253973Y-51853523D01*
X159081630Y-52111452D01*
X158962918Y-52398048D01*
X158902400Y-52702296D01*
X158902400Y-53012504D01*
X158962918Y-53316752D01*
X159081630Y-53603348D01*
X159253973Y-53861277D01*
X159473323Y-54080627D01*
X159731252Y-54252970D01*
X160017848Y-54371682D01*
X160322096Y-54432200D01*
X160632304Y-54432200D01*
X160936552Y-54371682D01*
X161223148Y-54252970D01*
X161481077Y-54080627D01*
X161700427Y-53861277D01*
X161872770Y-53603348D01*
X161991482Y-53316752D01*
X162052000Y-53012504D01*
X162052000Y-52702296D01*
X161991482Y-52398048D01*
X161893660Y-52161884D01*
X162885316Y-52161884D01*
X162930316Y-52391011D01*
X163019152Y-52606957D01*
X163148410Y-52801422D01*
X163313123Y-52966934D01*
X163506961Y-53097131D01*
X163722474Y-53187011D01*
X163761256Y-53191803D01*
X163944000Y-53066361D01*
X163944000Y-51975000D01*
X164198000Y-51975000D01*
X164198000Y-53066361D01*
X164380744Y-53191803D01*
X164419526Y-53187011D01*
X164635039Y-53097131D01*
X164828877Y-52966934D01*
X164993590Y-52801422D01*
X165122848Y-52606957D01*
X165211684Y-52391011D01*
X165256684Y-52161884D01*
X167725316Y-52161884D01*
X167770316Y-52391011D01*
X167859152Y-52606957D01*
X167988410Y-52801422D01*
X168153123Y-52966934D01*
X168346961Y-53097131D01*
X168562474Y-53187011D01*
X168601256Y-53191803D01*
X168784000Y-53066361D01*
X168784000Y-51975000D01*
X169038000Y-51975000D01*
X169038000Y-53066361D01*
X169220744Y-53191803D01*
X169259526Y-53187011D01*
X169475039Y-53097131D01*
X169668877Y-52966934D01*
X169833590Y-52801422D01*
X169962848Y-52606957D01*
X170051684Y-52391011D01*
X170096684Y-52161884D01*
X169941152Y-51975000D01*
X169038000Y-51975000D01*
X168784000Y-51975000D01*
X167880848Y-51975000D01*
X167725316Y-52161884D01*
X165256684Y-52161884D01*
X165101152Y-51975000D01*
X164198000Y-51975000D01*
X163944000Y-51975000D01*
X163040848Y-51975000D01*
X162885316Y-52161884D01*
X161893660Y-52161884D01*
X161872770Y-52111452D01*
X161700427Y-51853523D01*
X161481077Y-51634173D01*
X161223148Y-51461830D01*
X161218730Y-51460000D01*
X162899872Y-51460000D01*
X162885316Y-51534116D01*
X163040848Y-51721000D01*
X163944000Y-51721000D01*
X163944000Y-51701000D01*
X164198000Y-51701000D01*
X164198000Y-51721000D01*
X165101152Y-51721000D01*
X165256684Y-51534116D01*
X165242128Y-51460000D01*
X167739872Y-51460000D01*
X167725316Y-51534116D01*
X167880848Y-51721000D01*
X168784000Y-51721000D01*
X168784000Y-51701000D01*
X169038000Y-51701000D01*
X169038000Y-51721000D01*
X169941152Y-51721000D01*
X170096684Y-51534116D01*
X170082128Y-51460000D01*
X182220001Y-51460000D01*
X182220000Y-140019117D01*
X182159937Y-139929226D01*
X182015774Y-139785063D01*
X181992000Y-139769178D01*
X181992000Y-90524833D01*
X181995677Y-90487500D01*
X181981003Y-90338514D01*
X181937546Y-90195253D01*
X181866974Y-90063224D01*
X181795799Y-89976497D01*
X181772001Y-89947499D01*
X181743004Y-89923702D01*
X176360000Y-84540699D01*
X176360000Y-84478561D01*
X176320226Y-84278602D01*
X176242205Y-84090244D01*
X176128937Y-83920726D01*
X175984774Y-83776563D01*
X175815256Y-83663295D01*
X175626898Y-83585274D01*
X175426939Y-83545500D01*
X175223061Y-83545500D01*
X175221001Y-83545910D01*
X175221001Y-81604321D01*
X175224677Y-81566998D01*
X175221001Y-81529675D01*
X175221001Y-81529666D01*
X175210004Y-81418013D01*
X175166547Y-81274752D01*
X175109493Y-81168013D01*
X175095975Y-81142722D01*
X175024800Y-81055996D01*
X175001002Y-81026998D01*
X174972004Y-81003200D01*
X173900001Y-79931198D01*
X173900001Y-75838332D01*
X173903678Y-75800999D01*
X173889004Y-75652013D01*
X173845547Y-75508752D01*
X173810644Y-75443454D01*
X173774975Y-75376723D01*
X173680002Y-75260998D01*
X173650998Y-75237195D01*
X173326805Y-74913002D01*
X173303002Y-74883998D01*
X173187277Y-74789025D01*
X173055248Y-74718453D01*
X172911987Y-74674996D01*
X172800334Y-74663999D01*
X172800323Y-74663999D01*
X172763001Y-74660323D01*
X172725679Y-74663999D01*
X172009323Y-74663999D01*
X171972000Y-74660323D01*
X171934677Y-74663999D01*
X171934668Y-74663999D01*
X171823015Y-74674996D01*
X171679754Y-74718453D01*
X171547724Y-74789025D01*
X171502093Y-74826474D01*
X171432000Y-74883998D01*
X171408202Y-74912997D01*
X171156198Y-75165000D01*
X171094061Y-75165000D01*
X170894102Y-75204774D01*
X170705744Y-75282795D01*
X170536226Y-75396063D01*
X170392063Y-75540226D01*
X170346092Y-75609027D01*
X170335205Y-75582744D01*
X170221937Y-75413226D01*
X170077774Y-75269063D01*
X170012601Y-75225516D01*
X173970595Y-71267522D01*
X174100852Y-71321476D01*
X174300811Y-71361250D01*
X174504689Y-71361250D01*
X174704648Y-71321476D01*
X174893006Y-71243455D01*
X175062524Y-71130187D01*
X175206687Y-70986024D01*
X175319955Y-70816506D01*
X175397976Y-70628148D01*
X175437750Y-70428189D01*
X175437750Y-70224311D01*
X175397976Y-70024352D01*
X175319955Y-69835994D01*
X175206687Y-69666476D01*
X175062524Y-69522313D01*
X174893006Y-69409045D01*
X174704648Y-69331024D01*
X174504689Y-69291250D01*
X174300811Y-69291250D01*
X174100852Y-69331024D01*
X173912494Y-69409045D01*
X173886402Y-69426479D01*
X173954705Y-69324256D01*
X174032726Y-69135898D01*
X174046033Y-69069000D01*
X174117439Y-69069000D01*
X174317398Y-69029226D01*
X174505756Y-68951205D01*
X174675274Y-68837937D01*
X174819437Y-68693774D01*
X174932705Y-68524256D01*
X175010726Y-68335898D01*
X175050500Y-68135939D01*
X175050500Y-67932061D01*
X175010726Y-67732102D01*
X174932705Y-67543744D01*
X174819437Y-67374226D01*
X174675274Y-67230063D01*
X174505756Y-67116795D01*
X174317398Y-67038774D01*
X174117439Y-66999000D01*
X173913561Y-66999000D01*
X173713602Y-67038774D01*
X173525244Y-67116795D01*
X173355726Y-67230063D01*
X173311789Y-67274000D01*
X172788824Y-67274000D01*
X172751501Y-67270324D01*
X172714178Y-67274000D01*
X172714169Y-67274000D01*
X172602516Y-67284997D01*
X172459255Y-67328454D01*
X172327226Y-67399026D01*
X172327224Y-67399027D01*
X172327225Y-67399027D01*
X172240498Y-67470201D01*
X172240494Y-67470205D01*
X172211501Y-67493999D01*
X172187707Y-67522992D01*
X165513456Y-74197245D01*
X165442274Y-74126063D01*
X165272756Y-74012795D01*
X165119000Y-73949107D01*
X165119000Y-73763061D01*
X165079226Y-73563102D01*
X165001205Y-73374744D01*
X164887937Y-73205226D01*
X164743774Y-73061063D01*
X164574256Y-72947795D01*
X164385898Y-72869774D01*
X164185939Y-72830000D01*
X163982061Y-72830000D01*
X163782102Y-72869774D01*
X163593744Y-72947795D01*
X163424226Y-73061063D01*
X163400299Y-73084990D01*
X159300832Y-73084990D01*
X159263509Y-73081314D01*
X159226186Y-73084990D01*
X159226177Y-73084990D01*
X159114524Y-73095987D01*
X158971263Y-73139444D01*
X158839233Y-73210016D01*
X158760910Y-73274295D01*
X158723509Y-73304989D01*
X158699711Y-73333987D01*
X155797074Y-76236625D01*
X155790000Y-76235928D01*
X154090000Y-76235928D01*
X153965518Y-76248188D01*
X153845820Y-76284498D01*
X153735506Y-76343463D01*
X153638815Y-76422815D01*
X153559463Y-76519506D01*
X153510010Y-76612025D01*
X153510010Y-61305791D01*
X154490801Y-60325000D01*
X160526324Y-60325000D01*
X160530001Y-60362332D01*
X160530000Y-62954677D01*
X160526324Y-62992000D01*
X160530000Y-63029322D01*
X160530000Y-63029332D01*
X160540997Y-63140985D01*
X160564297Y-63217795D01*
X160584454Y-63284246D01*
X160655026Y-63416276D01*
X160694871Y-63464826D01*
X160749999Y-63532001D01*
X160779002Y-63555804D01*
X161398000Y-64174802D01*
X161398000Y-64236939D01*
X161437774Y-64436898D01*
X161515795Y-64625256D01*
X161629063Y-64794774D01*
X161773226Y-64938937D01*
X161942744Y-65052205D01*
X162131102Y-65130226D01*
X162331061Y-65170000D01*
X162534939Y-65170000D01*
X162708000Y-65135576D01*
X162708000Y-67418667D01*
X162704323Y-67455999D01*
X162718997Y-67604984D01*
X162762453Y-67748245D01*
X162833025Y-67880275D01*
X162886122Y-67944973D01*
X162927999Y-67996000D01*
X162956997Y-68019798D01*
X165462000Y-70524802D01*
X165462000Y-70586939D01*
X165501774Y-70786898D01*
X165579795Y-70975256D01*
X165693063Y-71144774D01*
X165837226Y-71288937D01*
X166006744Y-71402205D01*
X166195102Y-71480226D01*
X166395061Y-71520000D01*
X166598939Y-71520000D01*
X166798898Y-71480226D01*
X166987256Y-71402205D01*
X167156774Y-71288937D01*
X167300937Y-71144774D01*
X167414205Y-70975256D01*
X167492226Y-70786898D01*
X167532000Y-70586939D01*
X167532000Y-70383061D01*
X167492226Y-70183102D01*
X167414205Y-69994744D01*
X167300937Y-69825226D01*
X167156774Y-69681063D01*
X166987256Y-69567795D01*
X166798898Y-69489774D01*
X166598939Y-69450000D01*
X166536802Y-69450000D01*
X164294863Y-67208061D01*
X166351000Y-67208061D01*
X166351000Y-67411939D01*
X166390774Y-67611898D01*
X166468795Y-67800256D01*
X166582063Y-67969774D01*
X166726226Y-68113937D01*
X166895744Y-68227205D01*
X167084102Y-68305226D01*
X167284061Y-68345000D01*
X167487939Y-68345000D01*
X167687898Y-68305226D01*
X167876256Y-68227205D01*
X168045774Y-68113937D01*
X168189937Y-67969774D01*
X168303205Y-67800256D01*
X168381226Y-67611898D01*
X168421000Y-67411939D01*
X168421000Y-67349801D01*
X171242740Y-64528061D01*
X172180000Y-64528061D01*
X172180000Y-64731939D01*
X172219774Y-64931898D01*
X172297795Y-65120256D01*
X172411063Y-65289774D01*
X172555226Y-65433937D01*
X172724744Y-65547205D01*
X172913102Y-65625226D01*
X173113061Y-65665000D01*
X173175199Y-65665000D01*
X174950200Y-67440002D01*
X174973999Y-67469001D01*
X175002997Y-67492799D01*
X175089723Y-67563974D01*
X175166447Y-67604984D01*
X175221753Y-67634546D01*
X175365014Y-67678003D01*
X175476667Y-67689000D01*
X175476677Y-67689000D01*
X175514000Y-67692676D01*
X175551322Y-67689000D01*
X177167000Y-67689000D01*
X177167001Y-73138168D01*
X177163324Y-73175500D01*
X177177998Y-73324485D01*
X177221454Y-73467746D01*
X177292026Y-73599776D01*
X177358273Y-73680497D01*
X177387000Y-73715501D01*
X177415998Y-73739299D01*
X177908000Y-74231302D01*
X177908000Y-74293439D01*
X177947774Y-74493398D01*
X178025795Y-74681756D01*
X178139063Y-74851274D01*
X178283226Y-74995437D01*
X178452744Y-75108705D01*
X178641102Y-75186726D01*
X178841061Y-75226500D01*
X179044939Y-75226500D01*
X179244898Y-75186726D01*
X179433256Y-75108705D01*
X179602774Y-74995437D01*
X179746937Y-74851274D01*
X179860205Y-74681756D01*
X179938226Y-74493398D01*
X179978000Y-74293439D01*
X179978000Y-74089561D01*
X179938226Y-73889602D01*
X179860205Y-73701244D01*
X179746937Y-73531726D01*
X179602774Y-73387563D01*
X179433256Y-73274295D01*
X179244898Y-73196274D01*
X179044939Y-73156500D01*
X178982802Y-73156500D01*
X178687000Y-72860699D01*
X178687000Y-71512856D01*
X178841061Y-71543500D01*
X179044939Y-71543500D01*
X179244898Y-71503726D01*
X179433256Y-71425705D01*
X179602774Y-71312437D01*
X179746937Y-71168274D01*
X179860205Y-70998756D01*
X179938226Y-70810398D01*
X179978000Y-70610439D01*
X179978000Y-70406561D01*
X179938226Y-70206602D01*
X179860205Y-70018244D01*
X179746937Y-69848726D01*
X179703000Y-69804789D01*
X179703000Y-66458325D01*
X179706676Y-66421000D01*
X179703000Y-66383675D01*
X179703000Y-66383667D01*
X179692003Y-66272014D01*
X179648546Y-66128753D01*
X179577974Y-65996724D01*
X179483001Y-65880999D01*
X179454004Y-65857202D01*
X177728804Y-64132003D01*
X177705001Y-64102999D01*
X177589276Y-64008026D01*
X177457247Y-63937454D01*
X177313986Y-63893997D01*
X177202333Y-63883000D01*
X177202322Y-63883000D01*
X177165000Y-63879324D01*
X177127678Y-63883000D01*
X175074711Y-63883000D01*
X175030774Y-63839063D01*
X174861256Y-63725795D01*
X174672898Y-63647774D01*
X174472939Y-63608000D01*
X174269061Y-63608000D01*
X174069102Y-63647774D01*
X173880744Y-63725795D01*
X173802728Y-63777924D01*
X173705256Y-63712795D01*
X173516898Y-63634774D01*
X173316939Y-63595000D01*
X173113061Y-63595000D01*
X172913102Y-63634774D01*
X172724744Y-63712795D01*
X172555226Y-63826063D01*
X172411063Y-63970226D01*
X172297795Y-64139744D01*
X172219774Y-64328102D01*
X172180000Y-64528061D01*
X171242740Y-64528061D01*
X174628008Y-61142795D01*
X174657001Y-61119001D01*
X174680795Y-61090008D01*
X174680799Y-61090004D01*
X174751973Y-61003277D01*
X174758541Y-60990990D01*
X174822546Y-60871247D01*
X174866003Y-60727986D01*
X174877000Y-60616333D01*
X174877000Y-60616324D01*
X174880676Y-60579001D01*
X174877000Y-60541678D01*
X174877000Y-60417211D01*
X174920937Y-60373274D01*
X175034205Y-60203756D01*
X175112226Y-60015398D01*
X175152000Y-59815439D01*
X175152000Y-59611561D01*
X175112226Y-59411602D01*
X175034205Y-59223244D01*
X174920937Y-59053726D01*
X174776774Y-58909563D01*
X174607256Y-58796295D01*
X174418898Y-58718274D01*
X174218939Y-58678500D01*
X174015061Y-58678500D01*
X173815102Y-58718274D01*
X173626744Y-58796295D01*
X173457226Y-58909563D01*
X173313063Y-59053726D01*
X173199795Y-59223244D01*
X173121774Y-59411602D01*
X173082000Y-59611561D01*
X173082000Y-59815439D01*
X173121774Y-60015398D01*
X173199795Y-60203756D01*
X173286972Y-60334225D01*
X167346199Y-66275000D01*
X167284061Y-66275000D01*
X167084102Y-66314774D01*
X166895744Y-66392795D01*
X166726226Y-66506063D01*
X166582063Y-66650226D01*
X166468795Y-66819744D01*
X166390774Y-67008102D01*
X166351000Y-67208061D01*
X164294863Y-67208061D01*
X164227999Y-67141198D01*
X164227999Y-60762321D01*
X164231675Y-60724998D01*
X164227999Y-60687676D01*
X164227999Y-60687666D01*
X164217002Y-60576013D01*
X164173545Y-60432752D01*
X164103000Y-60300774D01*
X164103000Y-60223061D01*
X164072356Y-60069000D01*
X166309178Y-60069000D01*
X166346500Y-60072676D01*
X166383822Y-60069000D01*
X166383833Y-60069000D01*
X166495486Y-60058003D01*
X166638747Y-60014546D01*
X166770776Y-59943974D01*
X166886501Y-59849001D01*
X166910303Y-59819998D01*
X167171801Y-59558500D01*
X167233939Y-59558500D01*
X167433898Y-59518726D01*
X167622256Y-59440705D01*
X167791774Y-59327437D01*
X167935937Y-59183274D01*
X168049205Y-59013756D01*
X168127226Y-58825398D01*
X168167000Y-58625439D01*
X168167000Y-58421561D01*
X168127226Y-58221602D01*
X168049205Y-58033244D01*
X167935937Y-57863726D01*
X167791774Y-57719563D01*
X167622256Y-57606295D01*
X167433898Y-57528274D01*
X167233939Y-57488500D01*
X167030061Y-57488500D01*
X166830102Y-57528274D01*
X166641744Y-57606295D01*
X166472226Y-57719563D01*
X166328063Y-57863726D01*
X166214795Y-58033244D01*
X166136774Y-58221602D01*
X166097000Y-58421561D01*
X166097000Y-58483699D01*
X166031699Y-58549000D01*
X162343322Y-58549000D01*
X162306000Y-58545324D01*
X162268677Y-58549000D01*
X162268667Y-58549000D01*
X162157014Y-58559997D01*
X162019117Y-58601827D01*
X162013753Y-58603454D01*
X161881723Y-58674026D01*
X161814344Y-58729323D01*
X161765999Y-58768999D01*
X161742201Y-58797997D01*
X160778998Y-59761201D01*
X160750000Y-59784999D01*
X160726202Y-59813997D01*
X160726201Y-59813998D01*
X160655026Y-59900724D01*
X160584454Y-60032754D01*
X160540998Y-60176015D01*
X160526324Y-60325000D01*
X154490801Y-60325000D01*
X157592305Y-57223496D01*
X158902400Y-57223496D01*
X158902400Y-57533704D01*
X158962918Y-57837952D01*
X159081630Y-58124548D01*
X159253973Y-58382477D01*
X159473323Y-58601827D01*
X159731252Y-58774170D01*
X160017848Y-58892882D01*
X160322096Y-58953400D01*
X160632304Y-58953400D01*
X160936552Y-58892882D01*
X161223148Y-58774170D01*
X161481077Y-58601827D01*
X161700427Y-58382477D01*
X161872770Y-58124548D01*
X161991482Y-57837952D01*
X162052000Y-57533704D01*
X162052000Y-57223496D01*
X161991482Y-56919248D01*
X161872770Y-56632652D01*
X161700427Y-56374723D01*
X161481077Y-56155373D01*
X161223148Y-55983030D01*
X160936552Y-55864318D01*
X160632304Y-55803800D01*
X160322096Y-55803800D01*
X160017848Y-55864318D01*
X159731252Y-55983030D01*
X159473323Y-56155373D01*
X159253973Y-56374723D01*
X159081630Y-56632652D01*
X158962918Y-56919248D01*
X158902400Y-57223496D01*
X157592305Y-57223496D01*
X158092603Y-56723199D01*
X158121601Y-56699401D01*
X158147932Y-56667317D01*
X158216574Y-56583677D01*
X158287146Y-56451647D01*
X158310480Y-56374723D01*
X158330603Y-56308386D01*
X158341600Y-56196733D01*
X158341600Y-56196724D01*
X158345276Y-56159401D01*
X158341600Y-56122078D01*
X158341600Y-55180884D01*
X162457325Y-55180884D01*
X162513176Y-55432185D01*
X162616981Y-55667761D01*
X162764750Y-55878559D01*
X162950804Y-56056478D01*
X163167993Y-56194681D01*
X163407971Y-56287857D01*
X163431600Y-56290910D01*
X163634000Y-56167224D01*
X163634000Y-54975000D01*
X163888000Y-54975000D01*
X163888000Y-56167224D01*
X164090400Y-56290910D01*
X164114029Y-56287857D01*
X164354007Y-56194681D01*
X164571196Y-56056478D01*
X164757250Y-55878559D01*
X164905019Y-55667761D01*
X165008824Y-55432185D01*
X165064675Y-55180884D01*
X167917325Y-55180884D01*
X167973176Y-55432185D01*
X168076981Y-55667761D01*
X168224750Y-55878559D01*
X168410804Y-56056478D01*
X168627993Y-56194681D01*
X168867971Y-56287857D01*
X168891600Y-56290910D01*
X169094000Y-56167224D01*
X169094000Y-54975000D01*
X169348000Y-54975000D01*
X169348000Y-56167224D01*
X169550400Y-56290910D01*
X169574029Y-56287857D01*
X169814007Y-56194681D01*
X170031196Y-56056478D01*
X170217250Y-55878559D01*
X170365019Y-55667761D01*
X170468824Y-55432185D01*
X170524675Y-55180884D01*
X170374573Y-54975000D01*
X169348000Y-54975000D01*
X169094000Y-54975000D01*
X168067427Y-54975000D01*
X167917325Y-55180884D01*
X165064675Y-55180884D01*
X164914573Y-54975000D01*
X163888000Y-54975000D01*
X163634000Y-54975000D01*
X162607427Y-54975000D01*
X162457325Y-55180884D01*
X158341600Y-55180884D01*
X158341600Y-54515116D01*
X162457325Y-54515116D01*
X162607427Y-54721000D01*
X163634000Y-54721000D01*
X163634000Y-53528776D01*
X163888000Y-53528776D01*
X163888000Y-54721000D01*
X164914573Y-54721000D01*
X165064675Y-54515116D01*
X167917325Y-54515116D01*
X168067427Y-54721000D01*
X169094000Y-54721000D01*
X169094000Y-53528776D01*
X169348000Y-53528776D01*
X169348000Y-54721000D01*
X170374573Y-54721000D01*
X170524675Y-54515116D01*
X170468824Y-54263815D01*
X170365019Y-54028239D01*
X170217250Y-53817441D01*
X170031196Y-53639522D01*
X169814007Y-53501319D01*
X169574029Y-53408143D01*
X169550400Y-53405090D01*
X169348000Y-53528776D01*
X169094000Y-53528776D01*
X168891600Y-53405090D01*
X168867971Y-53408143D01*
X168627993Y-53501319D01*
X168410804Y-53639522D01*
X168224750Y-53817441D01*
X168076981Y-54028239D01*
X167973176Y-54263815D01*
X167917325Y-54515116D01*
X165064675Y-54515116D01*
X165008824Y-54263815D01*
X164905019Y-54028239D01*
X164757250Y-53817441D01*
X164571196Y-53639522D01*
X164354007Y-53501319D01*
X164114029Y-53408143D01*
X164090400Y-53405090D01*
X163888000Y-53528776D01*
X163634000Y-53528776D01*
X163431600Y-53405090D01*
X163407971Y-53408143D01*
X163167993Y-53501319D01*
X162950804Y-53639522D01*
X162764750Y-53817441D01*
X162616981Y-54028239D01*
X162513176Y-54263815D01*
X162457325Y-54515116D01*
X158341600Y-54515116D01*
X158341600Y-53561111D01*
X158385537Y-53517174D01*
X158498805Y-53347656D01*
X158576826Y-53159298D01*
X158616600Y-52959339D01*
X158616600Y-52755461D01*
X158576826Y-52555502D01*
X158498805Y-52367144D01*
X158385537Y-52197626D01*
X158241374Y-52053463D01*
X158071856Y-51940195D01*
X157883498Y-51862174D01*
X157683539Y-51822400D01*
X157479661Y-51822400D01*
X157279702Y-51862174D01*
X157091344Y-51940195D01*
X156921826Y-52053463D01*
X156777663Y-52197626D01*
X156664395Y-52367144D01*
X156586374Y-52555502D01*
X156546600Y-52755461D01*
X156546600Y-52959339D01*
X156586374Y-53159298D01*
X156664395Y-53347656D01*
X156777663Y-53517174D01*
X156821600Y-53561111D01*
X156821601Y-55844597D01*
X155530892Y-57135306D01*
X155512827Y-57006416D01*
X155410665Y-56713514D01*
X155325523Y-56554223D01*
X155067276Y-56465729D01*
X154154405Y-57378600D01*
X154168548Y-57392743D01*
X153988943Y-57572348D01*
X153974800Y-57558205D01*
X153960658Y-57572348D01*
X153781053Y-57392743D01*
X153795195Y-57378600D01*
X153781053Y-57364458D01*
X153960658Y-57184853D01*
X153974800Y-57198995D01*
X154887671Y-56286124D01*
X154799177Y-56027877D01*
X154519824Y-55893003D01*
X154219525Y-55815219D01*
X153909823Y-55797516D01*
X153602616Y-55840573D01*
X153309714Y-55942735D01*
X153150423Y-56027877D01*
X153061930Y-56286122D01*
X153060000Y-56284192D01*
X153060000Y-54140146D01*
X153228852Y-54252970D01*
X153515448Y-54371682D01*
X153819696Y-54432200D01*
X154129904Y-54432200D01*
X154434152Y-54371682D01*
X154720748Y-54252970D01*
X154978677Y-54080627D01*
X155198027Y-53861277D01*
X155370370Y-53603348D01*
X155489082Y-53316752D01*
X155549600Y-53012504D01*
X155549600Y-52702296D01*
X155489082Y-52398048D01*
X155370370Y-52111452D01*
X155198027Y-51853523D01*
X154978677Y-51634173D01*
X154720748Y-51461830D01*
X154716330Y-51460000D01*
X159735670Y-51460000D01*
X159731252Y-51461830D01*
%TA.AperFunction,Conductor*%
D24*
G36*
X159731252Y-51461830D02*
G01*
X159473323Y-51634173D01*
X159253973Y-51853523D01*
X159081630Y-52111452D01*
X158962918Y-52398048D01*
X158902400Y-52702296D01*
X158902400Y-53012504D01*
X158962918Y-53316752D01*
X159081630Y-53603348D01*
X159253973Y-53861277D01*
X159473323Y-54080627D01*
X159731252Y-54252970D01*
X160017848Y-54371682D01*
X160322096Y-54432200D01*
X160632304Y-54432200D01*
X160936552Y-54371682D01*
X161223148Y-54252970D01*
X161481077Y-54080627D01*
X161700427Y-53861277D01*
X161872770Y-53603348D01*
X161991482Y-53316752D01*
X162052000Y-53012504D01*
X162052000Y-52702296D01*
X161991482Y-52398048D01*
X161893660Y-52161884D01*
X162885316Y-52161884D01*
X162930316Y-52391011D01*
X163019152Y-52606957D01*
X163148410Y-52801422D01*
X163313123Y-52966934D01*
X163506961Y-53097131D01*
X163722474Y-53187011D01*
X163761256Y-53191803D01*
X163944000Y-53066361D01*
X163944000Y-51975000D01*
X164198000Y-51975000D01*
X164198000Y-53066361D01*
X164380744Y-53191803D01*
X164419526Y-53187011D01*
X164635039Y-53097131D01*
X164828877Y-52966934D01*
X164993590Y-52801422D01*
X165122848Y-52606957D01*
X165211684Y-52391011D01*
X165256684Y-52161884D01*
X167725316Y-52161884D01*
X167770316Y-52391011D01*
X167859152Y-52606957D01*
X167988410Y-52801422D01*
X168153123Y-52966934D01*
X168346961Y-53097131D01*
X168562474Y-53187011D01*
X168601256Y-53191803D01*
X168784000Y-53066361D01*
X168784000Y-51975000D01*
X169038000Y-51975000D01*
X169038000Y-53066361D01*
X169220744Y-53191803D01*
X169259526Y-53187011D01*
X169475039Y-53097131D01*
X169668877Y-52966934D01*
X169833590Y-52801422D01*
X169962848Y-52606957D01*
X170051684Y-52391011D01*
X170096684Y-52161884D01*
X169941152Y-51975000D01*
X169038000Y-51975000D01*
X168784000Y-51975000D01*
X167880848Y-51975000D01*
X167725316Y-52161884D01*
X165256684Y-52161884D01*
X165101152Y-51975000D01*
X164198000Y-51975000D01*
X163944000Y-51975000D01*
X163040848Y-51975000D01*
X162885316Y-52161884D01*
X161893660Y-52161884D01*
X161872770Y-52111452D01*
X161700427Y-51853523D01*
X161481077Y-51634173D01*
X161223148Y-51461830D01*
X161218730Y-51460000D01*
X162899872Y-51460000D01*
X162885316Y-51534116D01*
X163040848Y-51721000D01*
X163944000Y-51721000D01*
X163944000Y-51701000D01*
X164198000Y-51701000D01*
X164198000Y-51721000D01*
X165101152Y-51721000D01*
X165256684Y-51534116D01*
X165242128Y-51460000D01*
X167739872Y-51460000D01*
X167725316Y-51534116D01*
X167880848Y-51721000D01*
X168784000Y-51721000D01*
X168784000Y-51701000D01*
X169038000Y-51701000D01*
X169038000Y-51721000D01*
X169941152Y-51721000D01*
X170096684Y-51534116D01*
X170082128Y-51460000D01*
X182220001Y-51460000D01*
X182220000Y-140019117D01*
X182159937Y-139929226D01*
X182015774Y-139785063D01*
X181992000Y-139769178D01*
X181992000Y-90524833D01*
X181995677Y-90487500D01*
X181981003Y-90338514D01*
X181937546Y-90195253D01*
X181866974Y-90063224D01*
X181795799Y-89976497D01*
X181772001Y-89947499D01*
X181743004Y-89923702D01*
X176360000Y-84540699D01*
X176360000Y-84478561D01*
X176320226Y-84278602D01*
X176242205Y-84090244D01*
X176128937Y-83920726D01*
X175984774Y-83776563D01*
X175815256Y-83663295D01*
X175626898Y-83585274D01*
X175426939Y-83545500D01*
X175223061Y-83545500D01*
X175221001Y-83545910D01*
X175221001Y-81604321D01*
X175224677Y-81566998D01*
X175221001Y-81529675D01*
X175221001Y-81529666D01*
X175210004Y-81418013D01*
X175166547Y-81274752D01*
X175109493Y-81168013D01*
X175095975Y-81142722D01*
X175024800Y-81055996D01*
X175001002Y-81026998D01*
X174972004Y-81003200D01*
X173900001Y-79931198D01*
X173900001Y-75838332D01*
X173903678Y-75800999D01*
X173889004Y-75652013D01*
X173845547Y-75508752D01*
X173810644Y-75443454D01*
X173774975Y-75376723D01*
X173680002Y-75260998D01*
X173650998Y-75237195D01*
X173326805Y-74913002D01*
X173303002Y-74883998D01*
X173187277Y-74789025D01*
X173055248Y-74718453D01*
X172911987Y-74674996D01*
X172800334Y-74663999D01*
X172800323Y-74663999D01*
X172763001Y-74660323D01*
X172725679Y-74663999D01*
X172009323Y-74663999D01*
X171972000Y-74660323D01*
X171934677Y-74663999D01*
X171934668Y-74663999D01*
X171823015Y-74674996D01*
X171679754Y-74718453D01*
X171547724Y-74789025D01*
X171502093Y-74826474D01*
X171432000Y-74883998D01*
X171408202Y-74912997D01*
X171156198Y-75165000D01*
X171094061Y-75165000D01*
X170894102Y-75204774D01*
X170705744Y-75282795D01*
X170536226Y-75396063D01*
X170392063Y-75540226D01*
X170346092Y-75609027D01*
X170335205Y-75582744D01*
X170221937Y-75413226D01*
X170077774Y-75269063D01*
X170012601Y-75225516D01*
X173970595Y-71267522D01*
X174100852Y-71321476D01*
X174300811Y-71361250D01*
X174504689Y-71361250D01*
X174704648Y-71321476D01*
X174893006Y-71243455D01*
X175062524Y-71130187D01*
X175206687Y-70986024D01*
X175319955Y-70816506D01*
X175397976Y-70628148D01*
X175437750Y-70428189D01*
X175437750Y-70224311D01*
X175397976Y-70024352D01*
X175319955Y-69835994D01*
X175206687Y-69666476D01*
X175062524Y-69522313D01*
X174893006Y-69409045D01*
X174704648Y-69331024D01*
X174504689Y-69291250D01*
X174300811Y-69291250D01*
X174100852Y-69331024D01*
X173912494Y-69409045D01*
X173886402Y-69426479D01*
X173954705Y-69324256D01*
X174032726Y-69135898D01*
X174046033Y-69069000D01*
X174117439Y-69069000D01*
X174317398Y-69029226D01*
X174505756Y-68951205D01*
X174675274Y-68837937D01*
X174819437Y-68693774D01*
X174932705Y-68524256D01*
X175010726Y-68335898D01*
X175050500Y-68135939D01*
X175050500Y-67932061D01*
X175010726Y-67732102D01*
X174932705Y-67543744D01*
X174819437Y-67374226D01*
X174675274Y-67230063D01*
X174505756Y-67116795D01*
X174317398Y-67038774D01*
X174117439Y-66999000D01*
X173913561Y-66999000D01*
X173713602Y-67038774D01*
X173525244Y-67116795D01*
X173355726Y-67230063D01*
X173311789Y-67274000D01*
X172788824Y-67274000D01*
X172751501Y-67270324D01*
X172714178Y-67274000D01*
X172714169Y-67274000D01*
X172602516Y-67284997D01*
X172459255Y-67328454D01*
X172327226Y-67399026D01*
X172327224Y-67399027D01*
X172327225Y-67399027D01*
X172240498Y-67470201D01*
X172240494Y-67470205D01*
X172211501Y-67493999D01*
X172187707Y-67522992D01*
X165513456Y-74197245D01*
X165442274Y-74126063D01*
X165272756Y-74012795D01*
X165119000Y-73949107D01*
X165119000Y-73763061D01*
X165079226Y-73563102D01*
X165001205Y-73374744D01*
X164887937Y-73205226D01*
X164743774Y-73061063D01*
X164574256Y-72947795D01*
X164385898Y-72869774D01*
X164185939Y-72830000D01*
X163982061Y-72830000D01*
X163782102Y-72869774D01*
X163593744Y-72947795D01*
X163424226Y-73061063D01*
X163400299Y-73084990D01*
X159300832Y-73084990D01*
X159263509Y-73081314D01*
X159226186Y-73084990D01*
X159226177Y-73084990D01*
X159114524Y-73095987D01*
X158971263Y-73139444D01*
X158839233Y-73210016D01*
X158760910Y-73274295D01*
X158723509Y-73304989D01*
X158699711Y-73333987D01*
X155797074Y-76236625D01*
X155790000Y-76235928D01*
X154090000Y-76235928D01*
X153965518Y-76248188D01*
X153845820Y-76284498D01*
X153735506Y-76343463D01*
X153638815Y-76422815D01*
X153559463Y-76519506D01*
X153510010Y-76612025D01*
X153510010Y-61305791D01*
X154490801Y-60325000D01*
X160526324Y-60325000D01*
X160530001Y-60362332D01*
X160530000Y-62954677D01*
X160526324Y-62992000D01*
X160530000Y-63029322D01*
X160530000Y-63029332D01*
X160540997Y-63140985D01*
X160564297Y-63217795D01*
X160584454Y-63284246D01*
X160655026Y-63416276D01*
X160694871Y-63464826D01*
X160749999Y-63532001D01*
X160779002Y-63555804D01*
X161398000Y-64174802D01*
X161398000Y-64236939D01*
X161437774Y-64436898D01*
X161515795Y-64625256D01*
X161629063Y-64794774D01*
X161773226Y-64938937D01*
X161942744Y-65052205D01*
X162131102Y-65130226D01*
X162331061Y-65170000D01*
X162534939Y-65170000D01*
X162708000Y-65135576D01*
X162708000Y-67418667D01*
X162704323Y-67455999D01*
X162718997Y-67604984D01*
X162762453Y-67748245D01*
X162833025Y-67880275D01*
X162886122Y-67944973D01*
X162927999Y-67996000D01*
X162956997Y-68019798D01*
X165462000Y-70524802D01*
X165462000Y-70586939D01*
X165501774Y-70786898D01*
X165579795Y-70975256D01*
X165693063Y-71144774D01*
X165837226Y-71288937D01*
X166006744Y-71402205D01*
X166195102Y-71480226D01*
X166395061Y-71520000D01*
X166598939Y-71520000D01*
X166798898Y-71480226D01*
X166987256Y-71402205D01*
X167156774Y-71288937D01*
X167300937Y-71144774D01*
X167414205Y-70975256D01*
X167492226Y-70786898D01*
X167532000Y-70586939D01*
X167532000Y-70383061D01*
X167492226Y-70183102D01*
X167414205Y-69994744D01*
X167300937Y-69825226D01*
X167156774Y-69681063D01*
X166987256Y-69567795D01*
X166798898Y-69489774D01*
X166598939Y-69450000D01*
X166536802Y-69450000D01*
X164294863Y-67208061D01*
X166351000Y-67208061D01*
X166351000Y-67411939D01*
X166390774Y-67611898D01*
X166468795Y-67800256D01*
X166582063Y-67969774D01*
X166726226Y-68113937D01*
X166895744Y-68227205D01*
X167084102Y-68305226D01*
X167284061Y-68345000D01*
X167487939Y-68345000D01*
X167687898Y-68305226D01*
X167876256Y-68227205D01*
X168045774Y-68113937D01*
X168189937Y-67969774D01*
X168303205Y-67800256D01*
X168381226Y-67611898D01*
X168421000Y-67411939D01*
X168421000Y-67349801D01*
X171242740Y-64528061D01*
X172180000Y-64528061D01*
X172180000Y-64731939D01*
X172219774Y-64931898D01*
X172297795Y-65120256D01*
X172411063Y-65289774D01*
X172555226Y-65433937D01*
X172724744Y-65547205D01*
X172913102Y-65625226D01*
X173113061Y-65665000D01*
X173175199Y-65665000D01*
X174950200Y-67440002D01*
X174973999Y-67469001D01*
X175002997Y-67492799D01*
X175089723Y-67563974D01*
X175166447Y-67604984D01*
X175221753Y-67634546D01*
X175365014Y-67678003D01*
X175476667Y-67689000D01*
X175476677Y-67689000D01*
X175514000Y-67692676D01*
X175551322Y-67689000D01*
X177167000Y-67689000D01*
X177167001Y-73138168D01*
X177163324Y-73175500D01*
X177177998Y-73324485D01*
X177221454Y-73467746D01*
X177292026Y-73599776D01*
X177358273Y-73680497D01*
X177387000Y-73715501D01*
X177415998Y-73739299D01*
X177908000Y-74231302D01*
X177908000Y-74293439D01*
X177947774Y-74493398D01*
X178025795Y-74681756D01*
X178139063Y-74851274D01*
X178283226Y-74995437D01*
X178452744Y-75108705D01*
X178641102Y-75186726D01*
X178841061Y-75226500D01*
X179044939Y-75226500D01*
X179244898Y-75186726D01*
X179433256Y-75108705D01*
X179602774Y-74995437D01*
X179746937Y-74851274D01*
X179860205Y-74681756D01*
X179938226Y-74493398D01*
X179978000Y-74293439D01*
X179978000Y-74089561D01*
X179938226Y-73889602D01*
X179860205Y-73701244D01*
X179746937Y-73531726D01*
X179602774Y-73387563D01*
X179433256Y-73274295D01*
X179244898Y-73196274D01*
X179044939Y-73156500D01*
X178982802Y-73156500D01*
X178687000Y-72860699D01*
X178687000Y-71512856D01*
X178841061Y-71543500D01*
X179044939Y-71543500D01*
X179244898Y-71503726D01*
X179433256Y-71425705D01*
X179602774Y-71312437D01*
X179746937Y-71168274D01*
X179860205Y-70998756D01*
X179938226Y-70810398D01*
X179978000Y-70610439D01*
X179978000Y-70406561D01*
X179938226Y-70206602D01*
X179860205Y-70018244D01*
X179746937Y-69848726D01*
X179703000Y-69804789D01*
X179703000Y-66458325D01*
X179706676Y-66421000D01*
X179703000Y-66383675D01*
X179703000Y-66383667D01*
X179692003Y-66272014D01*
X179648546Y-66128753D01*
X179577974Y-65996724D01*
X179483001Y-65880999D01*
X179454004Y-65857202D01*
X177728804Y-64132003D01*
X177705001Y-64102999D01*
X177589276Y-64008026D01*
X177457247Y-63937454D01*
X177313986Y-63893997D01*
X177202333Y-63883000D01*
X177202322Y-63883000D01*
X177165000Y-63879324D01*
X177127678Y-63883000D01*
X175074711Y-63883000D01*
X175030774Y-63839063D01*
X174861256Y-63725795D01*
X174672898Y-63647774D01*
X174472939Y-63608000D01*
X174269061Y-63608000D01*
X174069102Y-63647774D01*
X173880744Y-63725795D01*
X173802728Y-63777924D01*
X173705256Y-63712795D01*
X173516898Y-63634774D01*
X173316939Y-63595000D01*
X173113061Y-63595000D01*
X172913102Y-63634774D01*
X172724744Y-63712795D01*
X172555226Y-63826063D01*
X172411063Y-63970226D01*
X172297795Y-64139744D01*
X172219774Y-64328102D01*
X172180000Y-64528061D01*
X171242740Y-64528061D01*
X174628008Y-61142795D01*
X174657001Y-61119001D01*
X174680795Y-61090008D01*
X174680799Y-61090004D01*
X174751973Y-61003277D01*
X174758541Y-60990990D01*
X174822546Y-60871247D01*
X174866003Y-60727986D01*
X174877000Y-60616333D01*
X174877000Y-60616324D01*
X174880676Y-60579001D01*
X174877000Y-60541678D01*
X174877000Y-60417211D01*
X174920937Y-60373274D01*
X175034205Y-60203756D01*
X175112226Y-60015398D01*
X175152000Y-59815439D01*
X175152000Y-59611561D01*
X175112226Y-59411602D01*
X175034205Y-59223244D01*
X174920937Y-59053726D01*
X174776774Y-58909563D01*
X174607256Y-58796295D01*
X174418898Y-58718274D01*
X174218939Y-58678500D01*
X174015061Y-58678500D01*
X173815102Y-58718274D01*
X173626744Y-58796295D01*
X173457226Y-58909563D01*
X173313063Y-59053726D01*
X173199795Y-59223244D01*
X173121774Y-59411602D01*
X173082000Y-59611561D01*
X173082000Y-59815439D01*
X173121774Y-60015398D01*
X173199795Y-60203756D01*
X173286972Y-60334225D01*
X167346199Y-66275000D01*
X167284061Y-66275000D01*
X167084102Y-66314774D01*
X166895744Y-66392795D01*
X166726226Y-66506063D01*
X166582063Y-66650226D01*
X166468795Y-66819744D01*
X166390774Y-67008102D01*
X166351000Y-67208061D01*
X164294863Y-67208061D01*
X164227999Y-67141198D01*
X164227999Y-60762321D01*
X164231675Y-60724998D01*
X164227999Y-60687676D01*
X164227999Y-60687666D01*
X164217002Y-60576013D01*
X164173545Y-60432752D01*
X164103000Y-60300774D01*
X164103000Y-60223061D01*
X164072356Y-60069000D01*
X166309178Y-60069000D01*
X166346500Y-60072676D01*
X166383822Y-60069000D01*
X166383833Y-60069000D01*
X166495486Y-60058003D01*
X166638747Y-60014546D01*
X166770776Y-59943974D01*
X166886501Y-59849001D01*
X166910303Y-59819998D01*
X167171801Y-59558500D01*
X167233939Y-59558500D01*
X167433898Y-59518726D01*
X167622256Y-59440705D01*
X167791774Y-59327437D01*
X167935937Y-59183274D01*
X168049205Y-59013756D01*
X168127226Y-58825398D01*
X168167000Y-58625439D01*
X168167000Y-58421561D01*
X168127226Y-58221602D01*
X168049205Y-58033244D01*
X167935937Y-57863726D01*
X167791774Y-57719563D01*
X167622256Y-57606295D01*
X167433898Y-57528274D01*
X167233939Y-57488500D01*
X167030061Y-57488500D01*
X166830102Y-57528274D01*
X166641744Y-57606295D01*
X166472226Y-57719563D01*
X166328063Y-57863726D01*
X166214795Y-58033244D01*
X166136774Y-58221602D01*
X166097000Y-58421561D01*
X166097000Y-58483699D01*
X166031699Y-58549000D01*
X162343322Y-58549000D01*
X162306000Y-58545324D01*
X162268677Y-58549000D01*
X162268667Y-58549000D01*
X162157014Y-58559997D01*
X162019117Y-58601827D01*
X162013753Y-58603454D01*
X161881723Y-58674026D01*
X161814344Y-58729323D01*
X161765999Y-58768999D01*
X161742201Y-58797997D01*
X160778998Y-59761201D01*
X160750000Y-59784999D01*
X160726202Y-59813997D01*
X160726201Y-59813998D01*
X160655026Y-59900724D01*
X160584454Y-60032754D01*
X160540998Y-60176015D01*
X160526324Y-60325000D01*
X154490801Y-60325000D01*
X157592305Y-57223496D01*
X158902400Y-57223496D01*
X158902400Y-57533704D01*
X158962918Y-57837952D01*
X159081630Y-58124548D01*
X159253973Y-58382477D01*
X159473323Y-58601827D01*
X159731252Y-58774170D01*
X160017848Y-58892882D01*
X160322096Y-58953400D01*
X160632304Y-58953400D01*
X160936552Y-58892882D01*
X161223148Y-58774170D01*
X161481077Y-58601827D01*
X161700427Y-58382477D01*
X161872770Y-58124548D01*
X161991482Y-57837952D01*
X162052000Y-57533704D01*
X162052000Y-57223496D01*
X161991482Y-56919248D01*
X161872770Y-56632652D01*
X161700427Y-56374723D01*
X161481077Y-56155373D01*
X161223148Y-55983030D01*
X160936552Y-55864318D01*
X160632304Y-55803800D01*
X160322096Y-55803800D01*
X160017848Y-55864318D01*
X159731252Y-55983030D01*
X159473323Y-56155373D01*
X159253973Y-56374723D01*
X159081630Y-56632652D01*
X158962918Y-56919248D01*
X158902400Y-57223496D01*
X157592305Y-57223496D01*
X158092603Y-56723199D01*
X158121601Y-56699401D01*
X158147932Y-56667317D01*
X158216574Y-56583677D01*
X158287146Y-56451647D01*
X158310480Y-56374723D01*
X158330603Y-56308386D01*
X158341600Y-56196733D01*
X158341600Y-56196724D01*
X158345276Y-56159401D01*
X158341600Y-56122078D01*
X158341600Y-55180884D01*
X162457325Y-55180884D01*
X162513176Y-55432185D01*
X162616981Y-55667761D01*
X162764750Y-55878559D01*
X162950804Y-56056478D01*
X163167993Y-56194681D01*
X163407971Y-56287857D01*
X163431600Y-56290910D01*
X163634000Y-56167224D01*
X163634000Y-54975000D01*
X163888000Y-54975000D01*
X163888000Y-56167224D01*
X164090400Y-56290910D01*
X164114029Y-56287857D01*
X164354007Y-56194681D01*
X164571196Y-56056478D01*
X164757250Y-55878559D01*
X164905019Y-55667761D01*
X165008824Y-55432185D01*
X165064675Y-55180884D01*
X167917325Y-55180884D01*
X167973176Y-55432185D01*
X168076981Y-55667761D01*
X168224750Y-55878559D01*
X168410804Y-56056478D01*
X168627993Y-56194681D01*
X168867971Y-56287857D01*
X168891600Y-56290910D01*
X169094000Y-56167224D01*
X169094000Y-54975000D01*
X169348000Y-54975000D01*
X169348000Y-56167224D01*
X169550400Y-56290910D01*
X169574029Y-56287857D01*
X169814007Y-56194681D01*
X170031196Y-56056478D01*
X170217250Y-55878559D01*
X170365019Y-55667761D01*
X170468824Y-55432185D01*
X170524675Y-55180884D01*
X170374573Y-54975000D01*
X169348000Y-54975000D01*
X169094000Y-54975000D01*
X168067427Y-54975000D01*
X167917325Y-55180884D01*
X165064675Y-55180884D01*
X164914573Y-54975000D01*
X163888000Y-54975000D01*
X163634000Y-54975000D01*
X162607427Y-54975000D01*
X162457325Y-55180884D01*
X158341600Y-55180884D01*
X158341600Y-54515116D01*
X162457325Y-54515116D01*
X162607427Y-54721000D01*
X163634000Y-54721000D01*
X163634000Y-53528776D01*
X163888000Y-53528776D01*
X163888000Y-54721000D01*
X164914573Y-54721000D01*
X165064675Y-54515116D01*
X167917325Y-54515116D01*
X168067427Y-54721000D01*
X169094000Y-54721000D01*
X169094000Y-53528776D01*
X169348000Y-53528776D01*
X169348000Y-54721000D01*
X170374573Y-54721000D01*
X170524675Y-54515116D01*
X170468824Y-54263815D01*
X170365019Y-54028239D01*
X170217250Y-53817441D01*
X170031196Y-53639522D01*
X169814007Y-53501319D01*
X169574029Y-53408143D01*
X169550400Y-53405090D01*
X169348000Y-53528776D01*
X169094000Y-53528776D01*
X168891600Y-53405090D01*
X168867971Y-53408143D01*
X168627993Y-53501319D01*
X168410804Y-53639522D01*
X168224750Y-53817441D01*
X168076981Y-54028239D01*
X167973176Y-54263815D01*
X167917325Y-54515116D01*
X165064675Y-54515116D01*
X165008824Y-54263815D01*
X164905019Y-54028239D01*
X164757250Y-53817441D01*
X164571196Y-53639522D01*
X164354007Y-53501319D01*
X164114029Y-53408143D01*
X164090400Y-53405090D01*
X163888000Y-53528776D01*
X163634000Y-53528776D01*
X163431600Y-53405090D01*
X163407971Y-53408143D01*
X163167993Y-53501319D01*
X162950804Y-53639522D01*
X162764750Y-53817441D01*
X162616981Y-54028239D01*
X162513176Y-54263815D01*
X162457325Y-54515116D01*
X158341600Y-54515116D01*
X158341600Y-53561111D01*
X158385537Y-53517174D01*
X158498805Y-53347656D01*
X158576826Y-53159298D01*
X158616600Y-52959339D01*
X158616600Y-52755461D01*
X158576826Y-52555502D01*
X158498805Y-52367144D01*
X158385537Y-52197626D01*
X158241374Y-52053463D01*
X158071856Y-51940195D01*
X157883498Y-51862174D01*
X157683539Y-51822400D01*
X157479661Y-51822400D01*
X157279702Y-51862174D01*
X157091344Y-51940195D01*
X156921826Y-52053463D01*
X156777663Y-52197626D01*
X156664395Y-52367144D01*
X156586374Y-52555502D01*
X156546600Y-52755461D01*
X156546600Y-52959339D01*
X156586374Y-53159298D01*
X156664395Y-53347656D01*
X156777663Y-53517174D01*
X156821600Y-53561111D01*
X156821601Y-55844597D01*
X155530892Y-57135306D01*
X155512827Y-57006416D01*
X155410665Y-56713514D01*
X155325523Y-56554223D01*
X155067276Y-56465729D01*
X154154405Y-57378600D01*
X154168548Y-57392743D01*
X153988943Y-57572348D01*
X153974800Y-57558205D01*
X153960658Y-57572348D01*
X153781053Y-57392743D01*
X153795195Y-57378600D01*
X153781053Y-57364458D01*
X153960658Y-57184853D01*
X153974800Y-57198995D01*
X154887671Y-56286124D01*
X154799177Y-56027877D01*
X154519824Y-55893003D01*
X154219525Y-55815219D01*
X153909823Y-55797516D01*
X153602616Y-55840573D01*
X153309714Y-55942735D01*
X153150423Y-56027877D01*
X153061930Y-56286122D01*
X153060000Y-56284192D01*
X153060000Y-54140146D01*
X153228852Y-54252970D01*
X153515448Y-54371682D01*
X153819696Y-54432200D01*
X154129904Y-54432200D01*
X154434152Y-54371682D01*
X154720748Y-54252970D01*
X154978677Y-54080627D01*
X155198027Y-53861277D01*
X155370370Y-53603348D01*
X155489082Y-53316752D01*
X155549600Y-53012504D01*
X155549600Y-52702296D01*
X155489082Y-52398048D01*
X155370370Y-52111452D01*
X155198027Y-51853523D01*
X154978677Y-51634173D01*
X154720748Y-51461830D01*
X154716330Y-51460000D01*
X159735670Y-51460000D01*
X159731252Y-51461830D01*
G37*
%TD.AperFunction*%
D23*
X171196000Y-89408000D02*
X171216000Y-89408000D01*
X171216000Y-89662000D01*
X171196000Y-89662000D01*
X171196000Y-90855814D01*
X171425891Y-90976481D01*
X171700252Y-90879157D01*
X171800991Y-90819150D01*
X171800991Y-92825343D01*
X171797314Y-92862675D01*
X171811988Y-93011660D01*
X171855444Y-93154921D01*
X171926016Y-93286951D01*
X171990705Y-93365774D01*
X172020990Y-93402676D01*
X172049988Y-93426474D01*
X175019516Y-96396003D01*
X175043314Y-96425001D01*
X175072312Y-96448799D01*
X175159038Y-96519974D01*
X175291068Y-96590546D01*
X175434276Y-96633987D01*
X175489226Y-96688937D01*
X175658744Y-96802205D01*
X175847102Y-96880226D01*
X176047061Y-96920000D01*
X176149045Y-96920000D01*
X176100000Y-97166565D01*
X176100000Y-97501435D01*
X176144884Y-97727082D01*
X169254219Y-90836418D01*
X169475632Y-90688475D01*
X169682475Y-90481632D01*
X169800100Y-90305594D01*
X169971412Y-90535269D01*
X170187645Y-90730178D01*
X170437748Y-90879157D01*
X170712109Y-90976481D01*
X170942000Y-90855814D01*
X170942000Y-89662000D01*
X170922000Y-89662000D01*
X170922000Y-89408000D01*
X170942000Y-89408000D01*
X170942000Y-89388000D01*
X171196000Y-89388000D01*
X171196000Y-89408000D01*
%TA.AperFunction,Conductor*%
D24*
G36*
X171196000Y-89408000D02*
G01*
X171216000Y-89408000D01*
X171216000Y-89662000D01*
X171196000Y-89662000D01*
X171196000Y-90855814D01*
X171425891Y-90976481D01*
X171700252Y-90879157D01*
X171800991Y-90819150D01*
X171800991Y-92825343D01*
X171797314Y-92862675D01*
X171811988Y-93011660D01*
X171855444Y-93154921D01*
X171926016Y-93286951D01*
X171990705Y-93365774D01*
X172020990Y-93402676D01*
X172049988Y-93426474D01*
X175019516Y-96396003D01*
X175043314Y-96425001D01*
X175072312Y-96448799D01*
X175159038Y-96519974D01*
X175291068Y-96590546D01*
X175434276Y-96633987D01*
X175489226Y-96688937D01*
X175658744Y-96802205D01*
X175847102Y-96880226D01*
X176047061Y-96920000D01*
X176149045Y-96920000D01*
X176100000Y-97166565D01*
X176100000Y-97501435D01*
X176144884Y-97727082D01*
X169254219Y-90836418D01*
X169475632Y-90688475D01*
X169682475Y-90481632D01*
X169800100Y-90305594D01*
X169971412Y-90535269D01*
X170187645Y-90730178D01*
X170437748Y-90879157D01*
X170712109Y-90976481D01*
X170942000Y-90855814D01*
X170942000Y-89662000D01*
X170922000Y-89662000D01*
X170922000Y-89408000D01*
X170942000Y-89408000D01*
X170942000Y-89388000D01*
X171196000Y-89388000D01*
X171196000Y-89408000D01*
G37*
%TD.AperFunction*%
D23*
X178430002Y-91931806D02*
X178430002Y-92682443D01*
X178085750Y-92684000D01*
X177927000Y-92842750D01*
X177927000Y-94107000D01*
X177947000Y-94107000D01*
X177947000Y-94361000D01*
X177927000Y-94361000D01*
X177927000Y-94381000D01*
X177673000Y-94381000D01*
X177673000Y-94361000D01*
X177653000Y-94361000D01*
X177653000Y-94107000D01*
X177673000Y-94107000D01*
X177673000Y-92842750D01*
X177514250Y-92684000D01*
X176835000Y-92680928D01*
X176710518Y-92693188D01*
X176590820Y-92729498D01*
X176480506Y-92788463D01*
X176383815Y-92867815D01*
X176304463Y-92964506D01*
X176245498Y-93074820D01*
X176209188Y-93194518D01*
X176196928Y-93319000D01*
X176199889Y-93925508D01*
X176177205Y-93870744D01*
X176063937Y-93701226D01*
X176020000Y-93657289D01*
X176020000Y-92563320D01*
X176023676Y-92525997D01*
X176020000Y-92488674D01*
X176020000Y-92488665D01*
X176009003Y-92377012D01*
X175965546Y-92233751D01*
X175894974Y-92101722D01*
X175800001Y-91985997D01*
X175771002Y-91962199D01*
X175221001Y-91412198D01*
X175221001Y-88722804D01*
X178430002Y-91931806D01*
%TA.AperFunction,Conductor*%
D24*
G36*
X178430002Y-91931806D02*
G01*
X178430002Y-92682443D01*
X178085750Y-92684000D01*
X177927000Y-92842750D01*
X177927000Y-94107000D01*
X177947000Y-94107000D01*
X177947000Y-94361000D01*
X177927000Y-94361000D01*
X177927000Y-94381000D01*
X177673000Y-94381000D01*
X177673000Y-94361000D01*
X177653000Y-94361000D01*
X177653000Y-94107000D01*
X177673000Y-94107000D01*
X177673000Y-92842750D01*
X177514250Y-92684000D01*
X176835000Y-92680928D01*
X176710518Y-92693188D01*
X176590820Y-92729498D01*
X176480506Y-92788463D01*
X176383815Y-92867815D01*
X176304463Y-92964506D01*
X176245498Y-93074820D01*
X176209188Y-93194518D01*
X176196928Y-93319000D01*
X176199889Y-93925508D01*
X176177205Y-93870744D01*
X176063937Y-93701226D01*
X176020000Y-93657289D01*
X176020000Y-92563320D01*
X176023676Y-92525997D01*
X176020000Y-92488674D01*
X176020000Y-92488665D01*
X176009003Y-92377012D01*
X175965546Y-92233751D01*
X175894974Y-92101722D01*
X175800001Y-91985997D01*
X175771002Y-91962199D01*
X175221001Y-91412198D01*
X175221001Y-88722804D01*
X178430002Y-91931806D01*
G37*
%TD.AperFunction*%
D23*
X168614063Y-76732774D02*
X168758226Y-76876937D01*
X168927744Y-76990205D01*
X169116102Y-77068226D01*
X169316061Y-77108000D01*
X169378198Y-77108000D01*
X169383001Y-77112803D01*
X169383002Y-80507169D01*
X169379325Y-80544501D01*
X169383002Y-80581834D01*
X169393999Y-80693487D01*
X169402345Y-80721000D01*
X169437455Y-80836747D01*
X169508027Y-80968777D01*
X169559027Y-81030920D01*
X169603001Y-81084502D01*
X169631999Y-81108300D01*
X171585136Y-83061438D01*
X171502158Y-83027068D01*
X171215260Y-82970000D01*
X170922740Y-82970000D01*
X170635842Y-83027068D01*
X170365589Y-83139010D01*
X170122368Y-83301525D01*
X169990513Y-83433380D01*
X169968502Y-83360820D01*
X169909537Y-83250506D01*
X169830185Y-83153815D01*
X169733494Y-83074463D01*
X169623180Y-83015498D01*
X169503482Y-82979188D01*
X169379000Y-82966928D01*
X167679000Y-82966928D01*
X167554518Y-82979188D01*
X167434820Y-83015498D01*
X167324506Y-83074463D01*
X167227815Y-83153815D01*
X167148463Y-83250506D01*
X167089498Y-83360820D01*
X167053188Y-83480518D01*
X167040928Y-83605000D01*
X167040928Y-85305000D01*
X167053188Y-85429482D01*
X167089498Y-85549180D01*
X167148463Y-85659494D01*
X167227815Y-85756185D01*
X167324506Y-85835537D01*
X167434820Y-85894502D01*
X167507380Y-85916513D01*
X167375525Y-86048368D01*
X167213010Y-86291589D01*
X167101068Y-86561842D01*
X167044000Y-86848740D01*
X167044000Y-87141260D01*
X167101068Y-87428158D01*
X167213010Y-87698411D01*
X167375525Y-87941632D01*
X167582368Y-88148475D01*
X167756760Y-88265000D01*
X167582368Y-88381525D01*
X167375525Y-88588368D01*
X167213010Y-88831589D01*
X167101068Y-89101842D01*
X167044000Y-89388740D01*
X167044000Y-89681260D01*
X167101068Y-89968158D01*
X167132897Y-90045000D01*
X166623800Y-90045000D01*
X166690503Y-89978297D01*
X166719501Y-89954499D01*
X166782484Y-89877754D01*
X166814474Y-89838775D01*
X166885046Y-89706745D01*
X166900220Y-89656722D01*
X166928503Y-89563484D01*
X166939500Y-89451831D01*
X166939500Y-89451822D01*
X166943176Y-89414499D01*
X166939500Y-89377176D01*
X166939500Y-80363583D01*
X167022744Y-80419205D01*
X167211102Y-80497226D01*
X167411061Y-80537000D01*
X167614939Y-80537000D01*
X167814898Y-80497226D01*
X168003256Y-80419205D01*
X168172774Y-80305937D01*
X168316937Y-80161774D01*
X168430205Y-79992256D01*
X168508226Y-79803898D01*
X168548000Y-79603939D01*
X168548000Y-79400061D01*
X168508226Y-79200102D01*
X168430205Y-79011744D01*
X168316937Y-78842226D01*
X168172774Y-78698063D01*
X168003256Y-78584795D01*
X167814898Y-78506774D01*
X167614939Y-78467000D01*
X167411061Y-78467000D01*
X167211102Y-78506774D01*
X167022744Y-78584795D01*
X166939500Y-78640417D01*
X166939500Y-78298616D01*
X168570516Y-76667601D01*
X168614063Y-76732774D01*
%TA.AperFunction,Conductor*%
D24*
G36*
X168614063Y-76732774D02*
G01*
X168758226Y-76876937D01*
X168927744Y-76990205D01*
X169116102Y-77068226D01*
X169316061Y-77108000D01*
X169378198Y-77108000D01*
X169383001Y-77112803D01*
X169383002Y-80507169D01*
X169379325Y-80544501D01*
X169383002Y-80581834D01*
X169393999Y-80693487D01*
X169402345Y-80721000D01*
X169437455Y-80836747D01*
X169508027Y-80968777D01*
X169559027Y-81030920D01*
X169603001Y-81084502D01*
X169631999Y-81108300D01*
X171585136Y-83061438D01*
X171502158Y-83027068D01*
X171215260Y-82970000D01*
X170922740Y-82970000D01*
X170635842Y-83027068D01*
X170365589Y-83139010D01*
X170122368Y-83301525D01*
X169990513Y-83433380D01*
X169968502Y-83360820D01*
X169909537Y-83250506D01*
X169830185Y-83153815D01*
X169733494Y-83074463D01*
X169623180Y-83015498D01*
X169503482Y-82979188D01*
X169379000Y-82966928D01*
X167679000Y-82966928D01*
X167554518Y-82979188D01*
X167434820Y-83015498D01*
X167324506Y-83074463D01*
X167227815Y-83153815D01*
X167148463Y-83250506D01*
X167089498Y-83360820D01*
X167053188Y-83480518D01*
X167040928Y-83605000D01*
X167040928Y-85305000D01*
X167053188Y-85429482D01*
X167089498Y-85549180D01*
X167148463Y-85659494D01*
X167227815Y-85756185D01*
X167324506Y-85835537D01*
X167434820Y-85894502D01*
X167507380Y-85916513D01*
X167375525Y-86048368D01*
X167213010Y-86291589D01*
X167101068Y-86561842D01*
X167044000Y-86848740D01*
X167044000Y-87141260D01*
X167101068Y-87428158D01*
X167213010Y-87698411D01*
X167375525Y-87941632D01*
X167582368Y-88148475D01*
X167756760Y-88265000D01*
X167582368Y-88381525D01*
X167375525Y-88588368D01*
X167213010Y-88831589D01*
X167101068Y-89101842D01*
X167044000Y-89388740D01*
X167044000Y-89681260D01*
X167101068Y-89968158D01*
X167132897Y-90045000D01*
X166623800Y-90045000D01*
X166690503Y-89978297D01*
X166719501Y-89954499D01*
X166782484Y-89877754D01*
X166814474Y-89838775D01*
X166885046Y-89706745D01*
X166900220Y-89656722D01*
X166928503Y-89563484D01*
X166939500Y-89451831D01*
X166939500Y-89451822D01*
X166943176Y-89414499D01*
X166939500Y-89377176D01*
X166939500Y-80363583D01*
X167022744Y-80419205D01*
X167211102Y-80497226D01*
X167411061Y-80537000D01*
X167614939Y-80537000D01*
X167814898Y-80497226D01*
X168003256Y-80419205D01*
X168172774Y-80305937D01*
X168316937Y-80161774D01*
X168430205Y-79992256D01*
X168508226Y-79803898D01*
X168548000Y-79603939D01*
X168548000Y-79400061D01*
X168508226Y-79200102D01*
X168430205Y-79011744D01*
X168316937Y-78842226D01*
X168172774Y-78698063D01*
X168003256Y-78584795D01*
X167814898Y-78506774D01*
X167614939Y-78467000D01*
X167411061Y-78467000D01*
X167211102Y-78506774D01*
X167022744Y-78584795D01*
X166939500Y-78640417D01*
X166939500Y-78298616D01*
X168570516Y-76667601D01*
X168614063Y-76732774D01*
G37*
%TD.AperFunction*%
D23*
X157607000Y-80137000D02*
X157627000Y-80137000D01*
X157627000Y-80391000D01*
X157607000Y-80391000D01*
X157607000Y-82677000D01*
X158800155Y-82677000D01*
X158921476Y-82447110D01*
X158876825Y-82299901D01*
X158751641Y-82037080D01*
X158577588Y-81803731D01*
X158361355Y-81608822D01*
X158235745Y-81534000D01*
X158361355Y-81459178D01*
X158577588Y-81264269D01*
X158751641Y-81030920D01*
X158876825Y-80768099D01*
X158921476Y-80620890D01*
X158800156Y-80391002D01*
X158965000Y-80391002D01*
X158965000Y-80361264D01*
X159004026Y-80434276D01*
X159020645Y-80454526D01*
X159098999Y-80550001D01*
X159128002Y-80573804D01*
X160801998Y-82247801D01*
X160801997Y-84876292D01*
X160758060Y-84920229D01*
X160644792Y-85089747D01*
X160566771Y-85278105D01*
X160526997Y-85478064D01*
X160526997Y-85590199D01*
X158837176Y-87280021D01*
X158795990Y-87180589D01*
X158633475Y-86937368D01*
X158426632Y-86730525D01*
X158244466Y-86608805D01*
X158361355Y-86539178D01*
X158577588Y-86344269D01*
X158751641Y-86110920D01*
X158876825Y-85848099D01*
X158921476Y-85700890D01*
X158800155Y-85471000D01*
X157607000Y-85471000D01*
X157607000Y-85491000D01*
X157353000Y-85491000D01*
X157353000Y-85471000D01*
X157333000Y-85471000D01*
X157333000Y-85217000D01*
X157353000Y-85217000D01*
X157353000Y-82931000D01*
X157607000Y-82931000D01*
X157607000Y-85217000D01*
X158800155Y-85217000D01*
X158921476Y-84987110D01*
X158876825Y-84839901D01*
X158751641Y-84577080D01*
X158577588Y-84343731D01*
X158361355Y-84148822D01*
X158235745Y-84074000D01*
X158361355Y-83999178D01*
X158577588Y-83804269D01*
X158751641Y-83570920D01*
X158876825Y-83308099D01*
X158921476Y-83160890D01*
X158800155Y-82931000D01*
X157607000Y-82931000D01*
X157353000Y-82931000D01*
X157333000Y-82931000D01*
X157333000Y-82677000D01*
X157353000Y-82677000D01*
X157353000Y-80391000D01*
X157333000Y-80391000D01*
X157333000Y-80137000D01*
X157353000Y-80137000D01*
X157353000Y-80117000D01*
X157607000Y-80117000D01*
X157607000Y-80137000D01*
%TA.AperFunction,Conductor*%
D24*
G36*
X157607000Y-80137000D02*
G01*
X157627000Y-80137000D01*
X157627000Y-80391000D01*
X157607000Y-80391000D01*
X157607000Y-82677000D01*
X158800155Y-82677000D01*
X158921476Y-82447110D01*
X158876825Y-82299901D01*
X158751641Y-82037080D01*
X158577588Y-81803731D01*
X158361355Y-81608822D01*
X158235745Y-81534000D01*
X158361355Y-81459178D01*
X158577588Y-81264269D01*
X158751641Y-81030920D01*
X158876825Y-80768099D01*
X158921476Y-80620890D01*
X158800156Y-80391002D01*
X158965000Y-80391002D01*
X158965000Y-80361264D01*
X159004026Y-80434276D01*
X159020645Y-80454526D01*
X159098999Y-80550001D01*
X159128002Y-80573804D01*
X160801998Y-82247801D01*
X160801997Y-84876292D01*
X160758060Y-84920229D01*
X160644792Y-85089747D01*
X160566771Y-85278105D01*
X160526997Y-85478064D01*
X160526997Y-85590199D01*
X158837176Y-87280021D01*
X158795990Y-87180589D01*
X158633475Y-86937368D01*
X158426632Y-86730525D01*
X158244466Y-86608805D01*
X158361355Y-86539178D01*
X158577588Y-86344269D01*
X158751641Y-86110920D01*
X158876825Y-85848099D01*
X158921476Y-85700890D01*
X158800155Y-85471000D01*
X157607000Y-85471000D01*
X157607000Y-85491000D01*
X157353000Y-85491000D01*
X157353000Y-85471000D01*
X157333000Y-85471000D01*
X157333000Y-85217000D01*
X157353000Y-85217000D01*
X157353000Y-82931000D01*
X157607000Y-82931000D01*
X157607000Y-85217000D01*
X158800155Y-85217000D01*
X158921476Y-84987110D01*
X158876825Y-84839901D01*
X158751641Y-84577080D01*
X158577588Y-84343731D01*
X158361355Y-84148822D01*
X158235745Y-84074000D01*
X158361355Y-83999178D01*
X158577588Y-83804269D01*
X158751641Y-83570920D01*
X158876825Y-83308099D01*
X158921476Y-83160890D01*
X158800155Y-82931000D01*
X157607000Y-82931000D01*
X157353000Y-82931000D01*
X157333000Y-82931000D01*
X157333000Y-82677000D01*
X157353000Y-82677000D01*
X157353000Y-80391000D01*
X157333000Y-80391000D01*
X157333000Y-80137000D01*
X157353000Y-80137000D01*
X157353000Y-80117000D01*
X157607000Y-80117000D01*
X157607000Y-80137000D01*
G37*
%TD.AperFunction*%
D23*
X155067000Y-80137000D02*
X155087000Y-80137000D01*
X155087000Y-80391000D01*
X155067000Y-80391000D01*
X155067000Y-82677000D01*
X155087000Y-82677000D01*
X155087000Y-82931000D01*
X155067000Y-82931000D01*
X155067000Y-85217000D01*
X155087000Y-85217000D01*
X155087000Y-85471000D01*
X155067000Y-85471000D01*
X155067000Y-85491000D01*
X154813000Y-85491000D01*
X154813000Y-85471000D01*
X154793000Y-85471000D01*
X154793000Y-85217000D01*
X154813000Y-85217000D01*
X154813000Y-82931000D01*
X154793000Y-82931000D01*
X154793000Y-82677000D01*
X154813000Y-82677000D01*
X154813000Y-80391000D01*
X154793000Y-80391000D01*
X154793000Y-80137000D01*
X154813000Y-80137000D01*
X154813000Y-80117000D01*
X155067000Y-80117000D01*
X155067000Y-80137000D01*
%TA.AperFunction,Conductor*%
D24*
G36*
X155067000Y-80137000D02*
G01*
X155087000Y-80137000D01*
X155087000Y-80391000D01*
X155067000Y-80391000D01*
X155067000Y-82677000D01*
X155087000Y-82677000D01*
X155087000Y-82931000D01*
X155067000Y-82931000D01*
X155067000Y-85217000D01*
X155087000Y-85217000D01*
X155087000Y-85471000D01*
X155067000Y-85471000D01*
X155067000Y-85491000D01*
X154813000Y-85491000D01*
X154813000Y-85471000D01*
X154793000Y-85471000D01*
X154793000Y-85217000D01*
X154813000Y-85217000D01*
X154813000Y-82931000D01*
X154793000Y-82931000D01*
X154793000Y-82677000D01*
X154813000Y-82677000D01*
X154813000Y-80391000D01*
X154793000Y-80391000D01*
X154793000Y-80137000D01*
X154813000Y-80137000D01*
X154813000Y-80117000D01*
X155067000Y-80117000D01*
X155067000Y-80137000D01*
G37*
%TD.AperFunction*%
D23*
X164846000Y-77597000D02*
X164866000Y-77597000D01*
X164866000Y-77851000D01*
X164846000Y-77851000D01*
X164846000Y-79300250D01*
X165004750Y-79459000D01*
X165419500Y-79460565D01*
X165419500Y-80334198D01*
X164488776Y-79403474D01*
X164592000Y-79300250D01*
X164592000Y-77851000D01*
X164572000Y-77851000D01*
X164572000Y-77597000D01*
X164592000Y-77597000D01*
X164592000Y-77577000D01*
X164846000Y-77577000D01*
X164846000Y-77597000D01*
%TA.AperFunction,Conductor*%
D24*
G36*
X164846000Y-77597000D02*
G01*
X164866000Y-77597000D01*
X164866000Y-77851000D01*
X164846000Y-77851000D01*
X164846000Y-79300250D01*
X165004750Y-79459000D01*
X165419500Y-79460565D01*
X165419500Y-80334198D01*
X164488776Y-79403474D01*
X164592000Y-79300250D01*
X164592000Y-77851000D01*
X164572000Y-77851000D01*
X164572000Y-77597000D01*
X164592000Y-77597000D01*
X164592000Y-77577000D01*
X164846000Y-77577000D01*
X164846000Y-77597000D01*
G37*
%TD.AperFunction*%
%TD*%
M02*
