%TF.GenerationSoftware,KiCad,Pcbnew,(5.1.9)-1*%
%TF.CreationDate,2021-05-10T23:50:46-04:00*%
%TF.ProjectId,main,6d61696e-2e6b-4696-9361-645f70636258,rev?*%
%TF.SameCoordinates,Original*%
%TF.FileFunction,Legend,Bot*%
%TF.FilePolarity,Positive*%
%FSLAX46Y46*%
G04 Gerber Fmt 4.6, Leading zero omitted, Abs format (unit mm)*
G04 Created by KiCad (PCBNEW (5.1.9)-1) date 2021-05-10 23:50:46*
%MOMM*%
%LPD*%
G01*
G04 APERTURE LIST*
%ADD10C,0.120000*%
%ADD11C,0.068000*%
%ADD12C,0.100000*%
%ADD13C,0.203200*%
%ADD14C,0.150000*%
%ADD15C,0.254000*%
%ADD16C,0.127000*%
G04 APERTURE END LIST*
D10*
%TO.C,J15*%
X172399000Y-83125000D02*
X169799000Y-83125000D01*
X172399000Y-83125000D02*
X172399000Y-90865000D01*
X172399000Y-90865000D02*
X167199000Y-90865000D01*
X167199000Y-85725000D02*
X167199000Y-90865000D01*
X169799000Y-85725000D02*
X167199000Y-85725000D01*
X169799000Y-83125000D02*
X169799000Y-85725000D01*
X167199000Y-83125000D02*
X167199000Y-84455000D01*
X168529000Y-83125000D02*
X167199000Y-83125000D01*
D11*
%TO.C,IC1*%
X159153000Y-72231000D02*
G75*
G03*
X159153000Y-72299000I0J-34000D01*
G01*
X159153000Y-72299000D02*
G75*
G03*
X159153000Y-72231000I0J34000D01*
G01*
D12*
X160095000Y-61083000D02*
X160095000Y-67183000D01*
X160095000Y-67183000D02*
X153595000Y-67183000D01*
X153595000Y-67183000D02*
X153595000Y-61083000D01*
D11*
X159153000Y-72231000D02*
X159153000Y-72231000D01*
X159153000Y-72299000D02*
X159153000Y-72299000D01*
D10*
%TO.C,R25*%
X171350000Y-58573936D02*
X171350000Y-59028064D01*
X172820000Y-58573936D02*
X172820000Y-59028064D01*
%TO.C,J2*%
X154940000Y-76394000D02*
X153610000Y-76394000D01*
X153610000Y-76394000D02*
X153610000Y-77724000D01*
X156210000Y-76394000D02*
X156210000Y-78994000D01*
X156210000Y-78994000D02*
X153610000Y-78994000D01*
X153610000Y-78994000D02*
X153610000Y-89214000D01*
X158810000Y-89214000D02*
X153610000Y-89214000D01*
X158810000Y-76394000D02*
X158810000Y-89214000D01*
X158810000Y-76394000D02*
X156210000Y-76394000D01*
%TO.C,C1*%
X163422000Y-66606748D02*
X163422000Y-67129252D01*
X161952000Y-66606748D02*
X161952000Y-67129252D01*
%TO.C,C2*%
X168729252Y-76735000D02*
X168206748Y-76735000D01*
X168729252Y-78205000D02*
X168206748Y-78205000D01*
%TO.C,C3*%
X170026000Y-59758252D02*
X170026000Y-59235748D01*
X168556000Y-59758252D02*
X168556000Y-59235748D01*
%TO.C,C4*%
X175795000Y-60520252D02*
X175795000Y-59997748D01*
X177265000Y-60520252D02*
X177265000Y-59997748D01*
%TO.C,C5*%
X161952000Y-70812252D02*
X161952000Y-70289748D01*
X163422000Y-70812252D02*
X163422000Y-70289748D01*
%TO.C,C6*%
X163295000Y-63446252D02*
X163295000Y-62923748D01*
X161825000Y-63446252D02*
X161825000Y-62923748D01*
%TO.C,C7*%
X161952000Y-74033748D02*
X161952000Y-74556252D01*
X163422000Y-74033748D02*
X163422000Y-74556252D01*
%TO.C,C8*%
X168729252Y-80237000D02*
X168206748Y-80237000D01*
X168729252Y-78767000D02*
X168206748Y-78767000D01*
%TO.C,C9*%
X161617252Y-90070000D02*
X161094748Y-90070000D01*
X161617252Y-91540000D02*
X161094748Y-91540000D01*
%TO.C,C10*%
X168724252Y-82269000D02*
X168201748Y-82269000D01*
X168724252Y-80799000D02*
X168201748Y-80799000D01*
%TO.C,C11*%
X165173252Y-90070000D02*
X164650748Y-90070000D01*
X165173252Y-91540000D02*
X164650748Y-91540000D01*
%TO.C,D1*%
X159947000Y-80084000D02*
X162887000Y-80084000D01*
X162887000Y-80084000D02*
X162887000Y-85524000D01*
X162887000Y-85524000D02*
X159947000Y-85524000D01*
X159947000Y-85524000D02*
X159947000Y-80084000D01*
X161417000Y-79064000D02*
X161417000Y-80084000D01*
X161417000Y-86544000D02*
X161417000Y-85524000D01*
X159947000Y-80984000D02*
X162887000Y-80984000D01*
X159947000Y-81104000D02*
X162887000Y-81104000D01*
X159947000Y-80864000D02*
X162887000Y-80864000D01*
%TO.C,D2*%
X163249000Y-80864000D02*
X166189000Y-80864000D01*
X163249000Y-81104000D02*
X166189000Y-81104000D01*
X163249000Y-80984000D02*
X166189000Y-80984000D01*
X164719000Y-86544000D02*
X164719000Y-85524000D01*
X164719000Y-79064000D02*
X164719000Y-80084000D01*
X163249000Y-85524000D02*
X163249000Y-80084000D01*
X166189000Y-85524000D02*
X163249000Y-85524000D01*
X166189000Y-80084000D02*
X166189000Y-85524000D01*
X163249000Y-80084000D02*
X166189000Y-80084000D01*
%TO.C,D3*%
X171125000Y-56676000D02*
X171125000Y-53991000D01*
X173045000Y-56676000D02*
X171125000Y-56676000D01*
X173045000Y-53991000D02*
X173045000Y-56676000D01*
%TO.C,D4*%
X175077000Y-53991000D02*
X175077000Y-56676000D01*
X175077000Y-56676000D02*
X173157000Y-56676000D01*
X173157000Y-56676000D02*
X173157000Y-53991000D01*
%TO.C,D5*%
X171210000Y-99893000D02*
X169750000Y-99893000D01*
X171210000Y-103053000D02*
X169050000Y-103053000D01*
X171210000Y-103053000D02*
X171210000Y-102123000D01*
X171210000Y-99893000D02*
X171210000Y-100823000D01*
%TO.C,D6*%
X171210000Y-114625000D02*
X171210000Y-115555000D01*
X171210000Y-117785000D02*
X171210000Y-116855000D01*
X171210000Y-117785000D02*
X169050000Y-117785000D01*
X171210000Y-114625000D02*
X169750000Y-114625000D01*
%TO.C,D7*%
X171210000Y-129357000D02*
X171210000Y-130287000D01*
X171210000Y-132517000D02*
X171210000Y-131587000D01*
X171210000Y-132517000D02*
X169050000Y-132517000D01*
X171210000Y-129357000D02*
X169750000Y-129357000D01*
%TO.C,D8*%
X171210000Y-143962000D02*
X169750000Y-143962000D01*
X171210000Y-147122000D02*
X169050000Y-147122000D01*
X171210000Y-147122000D02*
X171210000Y-146192000D01*
X171210000Y-143962000D02*
X171210000Y-144892000D01*
%TO.C,D9*%
X161394000Y-100164000D02*
X159154000Y-100164000D01*
X159154000Y-100164000D02*
X159154000Y-95924000D01*
X159154000Y-95924000D02*
X161394000Y-95924000D01*
X161394000Y-95924000D02*
X161394000Y-100164000D01*
X160274000Y-100814000D02*
X160274000Y-100164000D01*
X160274000Y-95274000D02*
X160274000Y-95924000D01*
X161394000Y-99444000D02*
X159154000Y-99444000D01*
X161394000Y-99324000D02*
X159154000Y-99324000D01*
X161394000Y-99564000D02*
X159154000Y-99564000D01*
%TO.C,D10*%
X161394000Y-114296000D02*
X159154000Y-114296000D01*
X161394000Y-114056000D02*
X159154000Y-114056000D01*
X161394000Y-114176000D02*
X159154000Y-114176000D01*
X160274000Y-110006000D02*
X160274000Y-110656000D01*
X160274000Y-115546000D02*
X160274000Y-114896000D01*
X161394000Y-110656000D02*
X161394000Y-114896000D01*
X159154000Y-110656000D02*
X161394000Y-110656000D01*
X159154000Y-114896000D02*
X159154000Y-110656000D01*
X161394000Y-114896000D02*
X159154000Y-114896000D01*
%TO.C,D11*%
X161267000Y-143760000D02*
X159027000Y-143760000D01*
X161267000Y-143520000D02*
X159027000Y-143520000D01*
X161267000Y-143640000D02*
X159027000Y-143640000D01*
X160147000Y-139470000D02*
X160147000Y-140120000D01*
X160147000Y-145010000D02*
X160147000Y-144360000D01*
X161267000Y-140120000D02*
X161267000Y-144360000D01*
X159027000Y-140120000D02*
X161267000Y-140120000D01*
X159027000Y-144360000D02*
X159027000Y-140120000D01*
X161267000Y-144360000D02*
X159027000Y-144360000D01*
%TO.C,D12*%
X161394000Y-129628000D02*
X159154000Y-129628000D01*
X159154000Y-129628000D02*
X159154000Y-125388000D01*
X159154000Y-125388000D02*
X161394000Y-125388000D01*
X161394000Y-125388000D02*
X161394000Y-129628000D01*
X160274000Y-130278000D02*
X160274000Y-129628000D01*
X160274000Y-124738000D02*
X160274000Y-125388000D01*
X161394000Y-128908000D02*
X159154000Y-128908000D01*
X161394000Y-128788000D02*
X159154000Y-128788000D01*
X161394000Y-129028000D02*
X159154000Y-129028000D01*
%TO.C,J1*%
X170641000Y-53668000D02*
X170641000Y-52118000D01*
X170641000Y-53668000D02*
X170341000Y-53668000D01*
X170341000Y-56468000D02*
X170341000Y-53668000D01*
X162341000Y-53668000D02*
X162341000Y-52118000D01*
X162641000Y-53668000D02*
X162341000Y-53668000D01*
X162641000Y-56468000D02*
X162641000Y-53668000D01*
X167391000Y-50418000D02*
X167791000Y-50868000D01*
X168191000Y-50418000D02*
X167391000Y-50418000D01*
X167791000Y-50868000D02*
X168191000Y-50418000D01*
%TO.C,Q1*%
X155176000Y-95260000D02*
X153716000Y-95260000D01*
X155176000Y-98420000D02*
X153016000Y-98420000D01*
X155176000Y-98420000D02*
X155176000Y-97490000D01*
X155176000Y-95260000D02*
X155176000Y-96190000D01*
%TO.C,Q2*%
X155192000Y-110561000D02*
X155192000Y-111491000D01*
X155192000Y-113721000D02*
X155192000Y-112791000D01*
X155192000Y-113721000D02*
X153032000Y-113721000D01*
X155192000Y-110561000D02*
X153732000Y-110561000D01*
%TO.C,Q3*%
X155081000Y-140660000D02*
X153621000Y-140660000D01*
X155081000Y-143820000D02*
X152921000Y-143820000D01*
X155081000Y-143820000D02*
X155081000Y-142890000D01*
X155081000Y-140660000D02*
X155081000Y-141590000D01*
%TO.C,Q4*%
X154954000Y-125166000D02*
X154954000Y-126096000D01*
X154954000Y-128326000D02*
X154954000Y-127396000D01*
X154954000Y-128326000D02*
X152794000Y-128326000D01*
X154954000Y-125166000D02*
X153494000Y-125166000D01*
%TO.C,R1*%
X162333000Y-59663064D02*
X162333000Y-59208936D01*
X163803000Y-59663064D02*
X163803000Y-59208936D01*
%TO.C,R2*%
X165835000Y-59663064D02*
X165835000Y-59208936D01*
X164365000Y-59663064D02*
X164365000Y-59208936D01*
%TO.C,R3*%
X167867000Y-59208936D02*
X167867000Y-59663064D01*
X166397000Y-59208936D02*
X166397000Y-59663064D01*
%TO.C,R4*%
X174852000Y-58573936D02*
X174852000Y-59028064D01*
X173382000Y-58573936D02*
X173382000Y-59028064D01*
%TO.C,R5*%
X178208000Y-69368936D02*
X178208000Y-69823064D01*
X179678000Y-69368936D02*
X179678000Y-69823064D01*
%TO.C,R6*%
X178208000Y-73051936D02*
X178208000Y-73506064D01*
X179678000Y-73051936D02*
X179678000Y-73506064D01*
%TO.C,R7*%
X181837000Y-69392436D02*
X181837000Y-69846564D01*
X180367000Y-69392436D02*
X180367000Y-69846564D01*
%TO.C,R8*%
X181837000Y-73028436D02*
X181837000Y-73482564D01*
X180367000Y-73028436D02*
X180367000Y-73482564D01*
%TO.C,R9*%
X180621000Y-119988064D02*
X180621000Y-119533936D01*
X182091000Y-119988064D02*
X182091000Y-119533936D01*
%TO.C,R10*%
X182091000Y-134696564D02*
X182091000Y-134242436D01*
X180621000Y-134696564D02*
X180621000Y-134242436D01*
%TO.C,R11*%
X180621000Y-149475564D02*
X180621000Y-149021436D01*
X182091000Y-149475564D02*
X182091000Y-149021436D01*
%TO.C,R12*%
X182091000Y-105279564D02*
X182091000Y-104825436D01*
X180621000Y-105279564D02*
X180621000Y-104825436D01*
%TO.C,R13*%
X170461000Y-104778436D02*
X170461000Y-105232564D01*
X171931000Y-104778436D02*
X171931000Y-105232564D01*
%TO.C,R14*%
X171931000Y-119510436D02*
X171931000Y-119964564D01*
X170461000Y-119510436D02*
X170461000Y-119964564D01*
%TO.C,R15*%
X170461000Y-134242436D02*
X170461000Y-134696564D01*
X171931000Y-134242436D02*
X171931000Y-134696564D01*
%TO.C,R16*%
X171931000Y-148974436D02*
X171931000Y-149428564D01*
X170461000Y-148974436D02*
X170461000Y-149428564D01*
%TO.C,R17*%
X152681000Y-104524436D02*
X152681000Y-104978564D01*
X154151000Y-104524436D02*
X154151000Y-104978564D01*
%TO.C,R18*%
X152681000Y-119256436D02*
X152681000Y-119710564D01*
X154151000Y-119256436D02*
X154151000Y-119710564D01*
%TO.C,R19*%
X154555564Y-94715000D02*
X154101436Y-94715000D01*
X154555564Y-93245000D02*
X154101436Y-93245000D01*
%TO.C,R20*%
X154682564Y-109574000D02*
X154228436Y-109574000D01*
X154682564Y-108104000D02*
X154228436Y-108104000D01*
%TO.C,R21*%
X152681000Y-148743936D02*
X152681000Y-149198064D01*
X154151000Y-148743936D02*
X154151000Y-149198064D01*
%TO.C,R22*%
X152681000Y-134011936D02*
X152681000Y-134466064D01*
X154151000Y-134011936D02*
X154151000Y-134466064D01*
%TO.C,R23*%
X154555564Y-139800000D02*
X154101436Y-139800000D01*
X154555564Y-138330000D02*
X154101436Y-138330000D01*
%TO.C,R24*%
X154532064Y-122836000D02*
X154077936Y-122836000D01*
X154532064Y-124306000D02*
X154077936Y-124306000D01*
D13*
%TO.C,RESET1*%
X159385000Y-58166000D02*
X155067000Y-58166000D01*
X155067000Y-52070000D02*
X159385000Y-52070000D01*
X160274000Y-56113680D02*
X160274000Y-54102000D01*
X154178000Y-56144160D02*
X154178000Y-54102000D01*
X159004000Y-55118000D02*
G75*
G03*
X159004000Y-55118000I-1778000J0D01*
G01*
D14*
%TO.C,U2*%
X165640000Y-74009000D02*
X165640000Y-73434000D01*
X175990000Y-74009000D02*
X175990000Y-73334000D01*
X175990000Y-63659000D02*
X175990000Y-64334000D01*
X165640000Y-63659000D02*
X165640000Y-64334000D01*
X165640000Y-74009000D02*
X166315000Y-74009000D01*
X165640000Y-63659000D02*
X166315000Y-63659000D01*
X175990000Y-63659000D02*
X175315000Y-63659000D01*
X175990000Y-74009000D02*
X175315000Y-74009000D01*
X165640000Y-73434000D02*
X164365000Y-73434000D01*
%TO.C,U3*%
X176125000Y-77192000D02*
X176350000Y-77192000D01*
X176125000Y-80542000D02*
X176425000Y-80542000D01*
X179475000Y-80542000D02*
X179175000Y-80542000D01*
X179475000Y-77192000D02*
X179175000Y-77192000D01*
X176125000Y-77192000D02*
X176125000Y-80542000D01*
X179475000Y-77192000D02*
X179475000Y-80542000D01*
X176350000Y-77192000D02*
X176350000Y-75967000D01*
D10*
%TO.C,U4*%
X177800000Y-91557000D02*
X175850000Y-91557000D01*
X177800000Y-91557000D02*
X179750000Y-91557000D01*
X177800000Y-82687000D02*
X175850000Y-82687000D01*
X177800000Y-82687000D02*
X181250000Y-82687000D01*
%TO.C,Y1*%
X177663000Y-63490000D02*
X177663000Y-50890000D01*
X177663000Y-50890000D02*
X182763000Y-50890000D01*
X182763000Y-50890000D02*
X182763000Y-63490000D01*
%TO.C,J15*%
D14*
X170608523Y-81137380D02*
X170608523Y-81851666D01*
X170656142Y-81994523D01*
X170751380Y-82089761D01*
X170894238Y-82137380D01*
X170989476Y-82137380D01*
X169608523Y-82137380D02*
X170179952Y-82137380D01*
X169894238Y-82137380D02*
X169894238Y-81137380D01*
X169989476Y-81280238D01*
X170084714Y-81375476D01*
X170179952Y-81423095D01*
X168703761Y-81137380D02*
X169179952Y-81137380D01*
X169227571Y-81613571D01*
X169179952Y-81565952D01*
X169084714Y-81518333D01*
X168846619Y-81518333D01*
X168751380Y-81565952D01*
X168703761Y-81613571D01*
X168656142Y-81708809D01*
X168656142Y-81946904D01*
X168703761Y-82042142D01*
X168751380Y-82089761D01*
X168846619Y-82137380D01*
X169084714Y-82137380D01*
X169179952Y-82089761D01*
X169227571Y-82042142D01*
%TO.C,IC1*%
D15*
X157419523Y-64786238D02*
X156149523Y-64786238D01*
X157298571Y-66116714D02*
X157359047Y-66056238D01*
X157419523Y-65874809D01*
X157419523Y-65753857D01*
X157359047Y-65572428D01*
X157238095Y-65451476D01*
X157117142Y-65391000D01*
X156875238Y-65330523D01*
X156693809Y-65330523D01*
X156451904Y-65391000D01*
X156330952Y-65451476D01*
X156210000Y-65572428D01*
X156149523Y-65753857D01*
X156149523Y-65874809D01*
X156210000Y-66056238D01*
X156270476Y-66116714D01*
X157419523Y-67326238D02*
X157419523Y-66600523D01*
X157419523Y-66963380D02*
X156149523Y-66963380D01*
X156330952Y-66842428D01*
X156451904Y-66721476D01*
X156512380Y-66600523D01*
%TO.C,R25*%
D14*
X170887380Y-58158142D02*
X170411190Y-57824809D01*
X170887380Y-57586714D02*
X169887380Y-57586714D01*
X169887380Y-57967666D01*
X169935000Y-58062904D01*
X169982619Y-58110523D01*
X170077857Y-58158142D01*
X170220714Y-58158142D01*
X170315952Y-58110523D01*
X170363571Y-58062904D01*
X170411190Y-57967666D01*
X170411190Y-57586714D01*
X169982619Y-58539095D02*
X169935000Y-58586714D01*
X169887380Y-58681952D01*
X169887380Y-58920047D01*
X169935000Y-59015285D01*
X169982619Y-59062904D01*
X170077857Y-59110523D01*
X170173095Y-59110523D01*
X170315952Y-59062904D01*
X170887380Y-58491476D01*
X170887380Y-59110523D01*
X169887380Y-60015285D02*
X169887380Y-59539095D01*
X170363571Y-59491476D01*
X170315952Y-59539095D01*
X170268333Y-59634333D01*
X170268333Y-59872428D01*
X170315952Y-59967666D01*
X170363571Y-60015285D01*
X170458809Y-60062904D01*
X170696904Y-60062904D01*
X170792142Y-60015285D01*
X170839761Y-59967666D01*
X170887380Y-59872428D01*
X170887380Y-59634333D01*
X170839761Y-59539095D01*
X170792142Y-59491476D01*
%TO.C,J2*%
X156543333Y-74406380D02*
X156543333Y-75120666D01*
X156590952Y-75263523D01*
X156686190Y-75358761D01*
X156829047Y-75406380D01*
X156924285Y-75406380D01*
X156114761Y-74501619D02*
X156067142Y-74454000D01*
X155971904Y-74406380D01*
X155733809Y-74406380D01*
X155638571Y-74454000D01*
X155590952Y-74501619D01*
X155543333Y-74596857D01*
X155543333Y-74692095D01*
X155590952Y-74834952D01*
X156162380Y-75406380D01*
X155543333Y-75406380D01*
%TO.C,C1*%
X161364142Y-66701333D02*
X161411761Y-66653714D01*
X161459380Y-66510857D01*
X161459380Y-66415619D01*
X161411761Y-66272761D01*
X161316523Y-66177523D01*
X161221285Y-66129904D01*
X161030809Y-66082285D01*
X160887952Y-66082285D01*
X160697476Y-66129904D01*
X160602238Y-66177523D01*
X160507000Y-66272761D01*
X160459380Y-66415619D01*
X160459380Y-66510857D01*
X160507000Y-66653714D01*
X160554619Y-66701333D01*
X161459380Y-67653714D02*
X161459380Y-67082285D01*
X161459380Y-67368000D02*
X160459380Y-67368000D01*
X160602238Y-67272761D01*
X160697476Y-67177523D01*
X160745095Y-67082285D01*
%TO.C,C2*%
X168634666Y-76147142D02*
X168682285Y-76194761D01*
X168825142Y-76242380D01*
X168920380Y-76242380D01*
X169063238Y-76194761D01*
X169158476Y-76099523D01*
X169206095Y-76004285D01*
X169253714Y-75813809D01*
X169253714Y-75670952D01*
X169206095Y-75480476D01*
X169158476Y-75385238D01*
X169063238Y-75290000D01*
X168920380Y-75242380D01*
X168825142Y-75242380D01*
X168682285Y-75290000D01*
X168634666Y-75337619D01*
X168253714Y-75337619D02*
X168206095Y-75290000D01*
X168110857Y-75242380D01*
X167872761Y-75242380D01*
X167777523Y-75290000D01*
X167729904Y-75337619D01*
X167682285Y-75432857D01*
X167682285Y-75528095D01*
X167729904Y-75670952D01*
X168301333Y-76242380D01*
X167682285Y-76242380D01*
%TO.C,C3*%
X171328142Y-59330333D02*
X171375761Y-59282714D01*
X171423380Y-59139857D01*
X171423380Y-59044619D01*
X171375761Y-58901761D01*
X171280523Y-58806523D01*
X171185285Y-58758904D01*
X170994809Y-58711285D01*
X170851952Y-58711285D01*
X170661476Y-58758904D01*
X170566238Y-58806523D01*
X170471000Y-58901761D01*
X170423380Y-59044619D01*
X170423380Y-59139857D01*
X170471000Y-59282714D01*
X170518619Y-59330333D01*
X170423380Y-59663666D02*
X170423380Y-60282714D01*
X170804333Y-59949380D01*
X170804333Y-60092238D01*
X170851952Y-60187476D01*
X170899571Y-60235095D01*
X170994809Y-60282714D01*
X171232904Y-60282714D01*
X171328142Y-60235095D01*
X171375761Y-60187476D01*
X171423380Y-60092238D01*
X171423380Y-59806523D01*
X171375761Y-59711285D01*
X171328142Y-59663666D01*
%TO.C,C4*%
X178567142Y-60092333D02*
X178614761Y-60044714D01*
X178662380Y-59901857D01*
X178662380Y-59806619D01*
X178614761Y-59663761D01*
X178519523Y-59568523D01*
X178424285Y-59520904D01*
X178233809Y-59473285D01*
X178090952Y-59473285D01*
X177900476Y-59520904D01*
X177805238Y-59568523D01*
X177710000Y-59663761D01*
X177662380Y-59806619D01*
X177662380Y-59901857D01*
X177710000Y-60044714D01*
X177757619Y-60092333D01*
X177995714Y-60949476D02*
X178662380Y-60949476D01*
X177614761Y-60711380D02*
X178329047Y-60473285D01*
X178329047Y-61092333D01*
%TO.C,C5*%
X164724142Y-70384333D02*
X164771761Y-70336714D01*
X164819380Y-70193857D01*
X164819380Y-70098619D01*
X164771761Y-69955761D01*
X164676523Y-69860523D01*
X164581285Y-69812904D01*
X164390809Y-69765285D01*
X164247952Y-69765285D01*
X164057476Y-69812904D01*
X163962238Y-69860523D01*
X163867000Y-69955761D01*
X163819380Y-70098619D01*
X163819380Y-70193857D01*
X163867000Y-70336714D01*
X163914619Y-70384333D01*
X163819380Y-71289095D02*
X163819380Y-70812904D01*
X164295571Y-70765285D01*
X164247952Y-70812904D01*
X164200333Y-70908142D01*
X164200333Y-71146238D01*
X164247952Y-71241476D01*
X164295571Y-71289095D01*
X164390809Y-71336714D01*
X164628904Y-71336714D01*
X164724142Y-71289095D01*
X164771761Y-71241476D01*
X164819380Y-71146238D01*
X164819380Y-70908142D01*
X164771761Y-70812904D01*
X164724142Y-70765285D01*
%TO.C,C6*%
X164597142Y-63018333D02*
X164644761Y-62970714D01*
X164692380Y-62827857D01*
X164692380Y-62732619D01*
X164644761Y-62589761D01*
X164549523Y-62494523D01*
X164454285Y-62446904D01*
X164263809Y-62399285D01*
X164120952Y-62399285D01*
X163930476Y-62446904D01*
X163835238Y-62494523D01*
X163740000Y-62589761D01*
X163692380Y-62732619D01*
X163692380Y-62827857D01*
X163740000Y-62970714D01*
X163787619Y-63018333D01*
X163692380Y-63875476D02*
X163692380Y-63685000D01*
X163740000Y-63589761D01*
X163787619Y-63542142D01*
X163930476Y-63446904D01*
X164120952Y-63399285D01*
X164501904Y-63399285D01*
X164597142Y-63446904D01*
X164644761Y-63494523D01*
X164692380Y-63589761D01*
X164692380Y-63780238D01*
X164644761Y-63875476D01*
X164597142Y-63923095D01*
X164501904Y-63970714D01*
X164263809Y-63970714D01*
X164168571Y-63923095D01*
X164120952Y-63875476D01*
X164073333Y-63780238D01*
X164073333Y-63589761D01*
X164120952Y-63494523D01*
X164168571Y-63446904D01*
X164263809Y-63399285D01*
%TO.C,C7*%
X161364142Y-74128333D02*
X161411761Y-74080714D01*
X161459380Y-73937857D01*
X161459380Y-73842619D01*
X161411761Y-73699761D01*
X161316523Y-73604523D01*
X161221285Y-73556904D01*
X161030809Y-73509285D01*
X160887952Y-73509285D01*
X160697476Y-73556904D01*
X160602238Y-73604523D01*
X160507000Y-73699761D01*
X160459380Y-73842619D01*
X160459380Y-73937857D01*
X160507000Y-74080714D01*
X160554619Y-74128333D01*
X160459380Y-74461666D02*
X160459380Y-75128333D01*
X161459380Y-74699761D01*
%TO.C,C8*%
X168634666Y-78179142D02*
X168682285Y-78226761D01*
X168825142Y-78274380D01*
X168920380Y-78274380D01*
X169063238Y-78226761D01*
X169158476Y-78131523D01*
X169206095Y-78036285D01*
X169253714Y-77845809D01*
X169253714Y-77702952D01*
X169206095Y-77512476D01*
X169158476Y-77417238D01*
X169063238Y-77322000D01*
X168920380Y-77274380D01*
X168825142Y-77274380D01*
X168682285Y-77322000D01*
X168634666Y-77369619D01*
X168063238Y-77702952D02*
X168158476Y-77655333D01*
X168206095Y-77607714D01*
X168253714Y-77512476D01*
X168253714Y-77464857D01*
X168206095Y-77369619D01*
X168158476Y-77322000D01*
X168063238Y-77274380D01*
X167872761Y-77274380D01*
X167777523Y-77322000D01*
X167729904Y-77369619D01*
X167682285Y-77464857D01*
X167682285Y-77512476D01*
X167729904Y-77607714D01*
X167777523Y-77655333D01*
X167872761Y-77702952D01*
X168063238Y-77702952D01*
X168158476Y-77750571D01*
X168206095Y-77798190D01*
X168253714Y-77893428D01*
X168253714Y-78083904D01*
X168206095Y-78179142D01*
X168158476Y-78226761D01*
X168063238Y-78274380D01*
X167872761Y-78274380D01*
X167777523Y-78226761D01*
X167729904Y-78179142D01*
X167682285Y-78083904D01*
X167682285Y-77893428D01*
X167729904Y-77798190D01*
X167777523Y-77750571D01*
X167872761Y-77702952D01*
%TO.C,C9*%
X161522666Y-89482142D02*
X161570285Y-89529761D01*
X161713142Y-89577380D01*
X161808380Y-89577380D01*
X161951238Y-89529761D01*
X162046476Y-89434523D01*
X162094095Y-89339285D01*
X162141714Y-89148809D01*
X162141714Y-89005952D01*
X162094095Y-88815476D01*
X162046476Y-88720238D01*
X161951238Y-88625000D01*
X161808380Y-88577380D01*
X161713142Y-88577380D01*
X161570285Y-88625000D01*
X161522666Y-88672619D01*
X161046476Y-89577380D02*
X160856000Y-89577380D01*
X160760761Y-89529761D01*
X160713142Y-89482142D01*
X160617904Y-89339285D01*
X160570285Y-89148809D01*
X160570285Y-88767857D01*
X160617904Y-88672619D01*
X160665523Y-88625000D01*
X160760761Y-88577380D01*
X160951238Y-88577380D01*
X161046476Y-88625000D01*
X161094095Y-88672619D01*
X161141714Y-88767857D01*
X161141714Y-89005952D01*
X161094095Y-89101190D01*
X161046476Y-89148809D01*
X160951238Y-89196428D01*
X160760761Y-89196428D01*
X160665523Y-89148809D01*
X160617904Y-89101190D01*
X160570285Y-89005952D01*
%TO.C,C10*%
X169105857Y-80211142D02*
X169153476Y-80258761D01*
X169296333Y-80306380D01*
X169391571Y-80306380D01*
X169534428Y-80258761D01*
X169629666Y-80163523D01*
X169677285Y-80068285D01*
X169724904Y-79877809D01*
X169724904Y-79734952D01*
X169677285Y-79544476D01*
X169629666Y-79449238D01*
X169534428Y-79354000D01*
X169391571Y-79306380D01*
X169296333Y-79306380D01*
X169153476Y-79354000D01*
X169105857Y-79401619D01*
X168153476Y-80306380D02*
X168724904Y-80306380D01*
X168439190Y-80306380D02*
X168439190Y-79306380D01*
X168534428Y-79449238D01*
X168629666Y-79544476D01*
X168724904Y-79592095D01*
X167534428Y-79306380D02*
X167439190Y-79306380D01*
X167343952Y-79354000D01*
X167296333Y-79401619D01*
X167248714Y-79496857D01*
X167201095Y-79687333D01*
X167201095Y-79925428D01*
X167248714Y-80115904D01*
X167296333Y-80211142D01*
X167343952Y-80258761D01*
X167439190Y-80306380D01*
X167534428Y-80306380D01*
X167629666Y-80258761D01*
X167677285Y-80211142D01*
X167724904Y-80115904D01*
X167772523Y-79925428D01*
X167772523Y-79687333D01*
X167724904Y-79496857D01*
X167677285Y-79401619D01*
X167629666Y-79354000D01*
X167534428Y-79306380D01*
%TO.C,C11*%
X165554857Y-89482142D02*
X165602476Y-89529761D01*
X165745333Y-89577380D01*
X165840571Y-89577380D01*
X165983428Y-89529761D01*
X166078666Y-89434523D01*
X166126285Y-89339285D01*
X166173904Y-89148809D01*
X166173904Y-89005952D01*
X166126285Y-88815476D01*
X166078666Y-88720238D01*
X165983428Y-88625000D01*
X165840571Y-88577380D01*
X165745333Y-88577380D01*
X165602476Y-88625000D01*
X165554857Y-88672619D01*
X164602476Y-89577380D02*
X165173904Y-89577380D01*
X164888190Y-89577380D02*
X164888190Y-88577380D01*
X164983428Y-88720238D01*
X165078666Y-88815476D01*
X165173904Y-88863095D01*
X163650095Y-89577380D02*
X164221523Y-89577380D01*
X163935809Y-89577380D02*
X163935809Y-88577380D01*
X164031047Y-88720238D01*
X164126285Y-88815476D01*
X164221523Y-88863095D01*
%TO.C,D1*%
X159399380Y-82065904D02*
X158399380Y-82065904D01*
X158399380Y-82304000D01*
X158447000Y-82446857D01*
X158542238Y-82542095D01*
X158637476Y-82589714D01*
X158827952Y-82637333D01*
X158970809Y-82637333D01*
X159161285Y-82589714D01*
X159256523Y-82542095D01*
X159351761Y-82446857D01*
X159399380Y-82304000D01*
X159399380Y-82065904D01*
X159399380Y-83589714D02*
X159399380Y-83018285D01*
X159399380Y-83304000D02*
X158399380Y-83304000D01*
X158542238Y-83208761D01*
X158637476Y-83113523D01*
X158685095Y-83018285D01*
X159769380Y-77462095D02*
X158769380Y-77462095D01*
X159769380Y-78033523D02*
X159197952Y-77604952D01*
X158769380Y-78033523D02*
X159340809Y-77462095D01*
%TO.C,D2*%
X162701380Y-82065904D02*
X161701380Y-82065904D01*
X161701380Y-82304000D01*
X161749000Y-82446857D01*
X161844238Y-82542095D01*
X161939476Y-82589714D01*
X162129952Y-82637333D01*
X162272809Y-82637333D01*
X162463285Y-82589714D01*
X162558523Y-82542095D01*
X162653761Y-82446857D01*
X162701380Y-82304000D01*
X162701380Y-82065904D01*
X161796619Y-83018285D02*
X161749000Y-83065904D01*
X161701380Y-83161142D01*
X161701380Y-83399238D01*
X161749000Y-83494476D01*
X161796619Y-83542095D01*
X161891857Y-83589714D01*
X161987095Y-83589714D01*
X162129952Y-83542095D01*
X162701380Y-82970666D01*
X162701380Y-83589714D01*
X163071380Y-77462095D02*
X162071380Y-77462095D01*
X163071380Y-78033523D02*
X162499952Y-77604952D01*
X162071380Y-78033523D02*
X162642809Y-77462095D01*
%TO.C,D3*%
X174187380Y-54252904D02*
X173187380Y-54252904D01*
X173187380Y-54491000D01*
X173235000Y-54633857D01*
X173330238Y-54729095D01*
X173425476Y-54776714D01*
X173615952Y-54824333D01*
X173758809Y-54824333D01*
X173949285Y-54776714D01*
X174044523Y-54729095D01*
X174139761Y-54633857D01*
X174187380Y-54491000D01*
X174187380Y-54252904D01*
X173187380Y-55157666D02*
X173187380Y-55776714D01*
X173568333Y-55443380D01*
X173568333Y-55586238D01*
X173615952Y-55681476D01*
X173663571Y-55729095D01*
X173758809Y-55776714D01*
X173996904Y-55776714D01*
X174092142Y-55729095D01*
X174139761Y-55681476D01*
X174187380Y-55586238D01*
X174187380Y-55300523D01*
X174139761Y-55205285D01*
X174092142Y-55157666D01*
%TO.C,D4*%
X176219380Y-54252904D02*
X175219380Y-54252904D01*
X175219380Y-54491000D01*
X175267000Y-54633857D01*
X175362238Y-54729095D01*
X175457476Y-54776714D01*
X175647952Y-54824333D01*
X175790809Y-54824333D01*
X175981285Y-54776714D01*
X176076523Y-54729095D01*
X176171761Y-54633857D01*
X176219380Y-54491000D01*
X176219380Y-54252904D01*
X175552714Y-55681476D02*
X176219380Y-55681476D01*
X175171761Y-55443380D02*
X175886047Y-55205285D01*
X175886047Y-55824333D01*
%TO.C,D5*%
X171188095Y-104425380D02*
X171188095Y-103425380D01*
X170950000Y-103425380D01*
X170807142Y-103473000D01*
X170711904Y-103568238D01*
X170664285Y-103663476D01*
X170616666Y-103853952D01*
X170616666Y-103996809D01*
X170664285Y-104187285D01*
X170711904Y-104282523D01*
X170807142Y-104377761D01*
X170950000Y-104425380D01*
X171188095Y-104425380D01*
X169711904Y-103425380D02*
X170188095Y-103425380D01*
X170235714Y-103901571D01*
X170188095Y-103853952D01*
X170092857Y-103806333D01*
X169854761Y-103806333D01*
X169759523Y-103853952D01*
X169711904Y-103901571D01*
X169664285Y-103996809D01*
X169664285Y-104234904D01*
X169711904Y-104330142D01*
X169759523Y-104377761D01*
X169854761Y-104425380D01*
X170092857Y-104425380D01*
X170188095Y-104377761D01*
X170235714Y-104330142D01*
%TO.C,D6*%
X171188095Y-119157380D02*
X171188095Y-118157380D01*
X170950000Y-118157380D01*
X170807142Y-118205000D01*
X170711904Y-118300238D01*
X170664285Y-118395476D01*
X170616666Y-118585952D01*
X170616666Y-118728809D01*
X170664285Y-118919285D01*
X170711904Y-119014523D01*
X170807142Y-119109761D01*
X170950000Y-119157380D01*
X171188095Y-119157380D01*
X169759523Y-118157380D02*
X169950000Y-118157380D01*
X170045238Y-118205000D01*
X170092857Y-118252619D01*
X170188095Y-118395476D01*
X170235714Y-118585952D01*
X170235714Y-118966904D01*
X170188095Y-119062142D01*
X170140476Y-119109761D01*
X170045238Y-119157380D01*
X169854761Y-119157380D01*
X169759523Y-119109761D01*
X169711904Y-119062142D01*
X169664285Y-118966904D01*
X169664285Y-118728809D01*
X169711904Y-118633571D01*
X169759523Y-118585952D01*
X169854761Y-118538333D01*
X170045238Y-118538333D01*
X170140476Y-118585952D01*
X170188095Y-118633571D01*
X170235714Y-118728809D01*
%TO.C,D7*%
X171188095Y-133889380D02*
X171188095Y-132889380D01*
X170950000Y-132889380D01*
X170807142Y-132937000D01*
X170711904Y-133032238D01*
X170664285Y-133127476D01*
X170616666Y-133317952D01*
X170616666Y-133460809D01*
X170664285Y-133651285D01*
X170711904Y-133746523D01*
X170807142Y-133841761D01*
X170950000Y-133889380D01*
X171188095Y-133889380D01*
X170283333Y-132889380D02*
X169616666Y-132889380D01*
X170045238Y-133889380D01*
%TO.C,D8*%
X171188095Y-148494380D02*
X171188095Y-147494380D01*
X170950000Y-147494380D01*
X170807142Y-147542000D01*
X170711904Y-147637238D01*
X170664285Y-147732476D01*
X170616666Y-147922952D01*
X170616666Y-148065809D01*
X170664285Y-148256285D01*
X170711904Y-148351523D01*
X170807142Y-148446761D01*
X170950000Y-148494380D01*
X171188095Y-148494380D01*
X170045238Y-147922952D02*
X170140476Y-147875333D01*
X170188095Y-147827714D01*
X170235714Y-147732476D01*
X170235714Y-147684857D01*
X170188095Y-147589619D01*
X170140476Y-147542000D01*
X170045238Y-147494380D01*
X169854761Y-147494380D01*
X169759523Y-147542000D01*
X169711904Y-147589619D01*
X169664285Y-147684857D01*
X169664285Y-147732476D01*
X169711904Y-147827714D01*
X169759523Y-147875333D01*
X169854761Y-147922952D01*
X170045238Y-147922952D01*
X170140476Y-147970571D01*
X170188095Y-148018190D01*
X170235714Y-148113428D01*
X170235714Y-148303904D01*
X170188095Y-148399142D01*
X170140476Y-148446761D01*
X170045238Y-148494380D01*
X169854761Y-148494380D01*
X169759523Y-148446761D01*
X169711904Y-148399142D01*
X169664285Y-148303904D01*
X169664285Y-148113428D01*
X169711904Y-148018190D01*
X169759523Y-147970571D01*
X169854761Y-147922952D01*
%TO.C,D9*%
X162846380Y-97305904D02*
X161846380Y-97305904D01*
X161846380Y-97544000D01*
X161894000Y-97686857D01*
X161989238Y-97782095D01*
X162084476Y-97829714D01*
X162274952Y-97877333D01*
X162417809Y-97877333D01*
X162608285Y-97829714D01*
X162703523Y-97782095D01*
X162798761Y-97686857D01*
X162846380Y-97544000D01*
X162846380Y-97305904D01*
X162846380Y-98353523D02*
X162846380Y-98544000D01*
X162798761Y-98639238D01*
X162751142Y-98686857D01*
X162608285Y-98782095D01*
X162417809Y-98829714D01*
X162036857Y-98829714D01*
X161941619Y-98782095D01*
X161894000Y-98734476D01*
X161846380Y-98639238D01*
X161846380Y-98448761D01*
X161894000Y-98353523D01*
X161941619Y-98305904D01*
X162036857Y-98258285D01*
X162274952Y-98258285D01*
X162370190Y-98305904D01*
X162417809Y-98353523D01*
X162465428Y-98448761D01*
X162465428Y-98639238D01*
X162417809Y-98734476D01*
X162370190Y-98782095D01*
X162274952Y-98829714D01*
X162526380Y-101592095D02*
X161526380Y-101592095D01*
X162526380Y-102163523D02*
X161954952Y-101734952D01*
X161526380Y-102163523D02*
X162097809Y-101592095D01*
%TO.C,D10*%
X162846380Y-111561714D02*
X161846380Y-111561714D01*
X161846380Y-111799809D01*
X161894000Y-111942666D01*
X161989238Y-112037904D01*
X162084476Y-112085523D01*
X162274952Y-112133142D01*
X162417809Y-112133142D01*
X162608285Y-112085523D01*
X162703523Y-112037904D01*
X162798761Y-111942666D01*
X162846380Y-111799809D01*
X162846380Y-111561714D01*
X162846380Y-113085523D02*
X162846380Y-112514095D01*
X162846380Y-112799809D02*
X161846380Y-112799809D01*
X161989238Y-112704571D01*
X162084476Y-112609333D01*
X162132095Y-112514095D01*
X161846380Y-113704571D02*
X161846380Y-113799809D01*
X161894000Y-113895047D01*
X161941619Y-113942666D01*
X162036857Y-113990285D01*
X162227333Y-114037904D01*
X162465428Y-114037904D01*
X162655904Y-113990285D01*
X162751142Y-113942666D01*
X162798761Y-113895047D01*
X162846380Y-113799809D01*
X162846380Y-113704571D01*
X162798761Y-113609333D01*
X162751142Y-113561714D01*
X162655904Y-113514095D01*
X162465428Y-113466476D01*
X162227333Y-113466476D01*
X162036857Y-113514095D01*
X161941619Y-113561714D01*
X161894000Y-113609333D01*
X161846380Y-113704571D01*
X162526380Y-116324095D02*
X161526380Y-116324095D01*
X162526380Y-116895523D02*
X161954952Y-116466952D01*
X161526380Y-116895523D02*
X162097809Y-116324095D01*
%TO.C,D11*%
X162719380Y-141025714D02*
X161719380Y-141025714D01*
X161719380Y-141263809D01*
X161767000Y-141406666D01*
X161862238Y-141501904D01*
X161957476Y-141549523D01*
X162147952Y-141597142D01*
X162290809Y-141597142D01*
X162481285Y-141549523D01*
X162576523Y-141501904D01*
X162671761Y-141406666D01*
X162719380Y-141263809D01*
X162719380Y-141025714D01*
X162719380Y-142549523D02*
X162719380Y-141978095D01*
X162719380Y-142263809D02*
X161719380Y-142263809D01*
X161862238Y-142168571D01*
X161957476Y-142073333D01*
X162005095Y-141978095D01*
X162719380Y-143501904D02*
X162719380Y-142930476D01*
X162719380Y-143216190D02*
X161719380Y-143216190D01*
X161862238Y-143120952D01*
X161957476Y-143025714D01*
X162005095Y-142930476D01*
X162399380Y-145788095D02*
X161399380Y-145788095D01*
X162399380Y-146359523D02*
X161827952Y-145930952D01*
X161399380Y-146359523D02*
X161970809Y-145788095D01*
%TO.C,D12*%
X162846380Y-126293714D02*
X161846380Y-126293714D01*
X161846380Y-126531809D01*
X161894000Y-126674666D01*
X161989238Y-126769904D01*
X162084476Y-126817523D01*
X162274952Y-126865142D01*
X162417809Y-126865142D01*
X162608285Y-126817523D01*
X162703523Y-126769904D01*
X162798761Y-126674666D01*
X162846380Y-126531809D01*
X162846380Y-126293714D01*
X162846380Y-127817523D02*
X162846380Y-127246095D01*
X162846380Y-127531809D02*
X161846380Y-127531809D01*
X161989238Y-127436571D01*
X162084476Y-127341333D01*
X162132095Y-127246095D01*
X161941619Y-128198476D02*
X161894000Y-128246095D01*
X161846380Y-128341333D01*
X161846380Y-128579428D01*
X161894000Y-128674666D01*
X161941619Y-128722285D01*
X162036857Y-128769904D01*
X162132095Y-128769904D01*
X162274952Y-128722285D01*
X162846380Y-128150857D01*
X162846380Y-128769904D01*
X162526380Y-131056095D02*
X161526380Y-131056095D01*
X162526380Y-131627523D02*
X161954952Y-131198952D01*
X161526380Y-131627523D02*
X162097809Y-131056095D01*
%TO.C,J1*%
X164874333Y-49820380D02*
X164874333Y-50534666D01*
X164921952Y-50677523D01*
X165017190Y-50772761D01*
X165160047Y-50820380D01*
X165255285Y-50820380D01*
X163874333Y-50820380D02*
X164445761Y-50820380D01*
X164160047Y-50820380D02*
X164160047Y-49820380D01*
X164255285Y-49963238D01*
X164350523Y-50058476D01*
X164445761Y-50106095D01*
%TO.C,Q1*%
X154511238Y-99887619D02*
X154606476Y-99840000D01*
X154701714Y-99744761D01*
X154844571Y-99601904D01*
X154939809Y-99554285D01*
X155035047Y-99554285D01*
X154987428Y-99792380D02*
X155082666Y-99744761D01*
X155177904Y-99649523D01*
X155225523Y-99459047D01*
X155225523Y-99125714D01*
X155177904Y-98935238D01*
X155082666Y-98840000D01*
X154987428Y-98792380D01*
X154796952Y-98792380D01*
X154701714Y-98840000D01*
X154606476Y-98935238D01*
X154558857Y-99125714D01*
X154558857Y-99459047D01*
X154606476Y-99649523D01*
X154701714Y-99744761D01*
X154796952Y-99792380D01*
X154987428Y-99792380D01*
X153606476Y-99792380D02*
X154177904Y-99792380D01*
X153892190Y-99792380D02*
X153892190Y-98792380D01*
X153987428Y-98935238D01*
X154082666Y-99030476D01*
X154177904Y-99078095D01*
%TO.C,Q2*%
X154527238Y-115188619D02*
X154622476Y-115141000D01*
X154717714Y-115045761D01*
X154860571Y-114902904D01*
X154955809Y-114855285D01*
X155051047Y-114855285D01*
X155003428Y-115093380D02*
X155098666Y-115045761D01*
X155193904Y-114950523D01*
X155241523Y-114760047D01*
X155241523Y-114426714D01*
X155193904Y-114236238D01*
X155098666Y-114141000D01*
X155003428Y-114093380D01*
X154812952Y-114093380D01*
X154717714Y-114141000D01*
X154622476Y-114236238D01*
X154574857Y-114426714D01*
X154574857Y-114760047D01*
X154622476Y-114950523D01*
X154717714Y-115045761D01*
X154812952Y-115093380D01*
X155003428Y-115093380D01*
X154193904Y-114188619D02*
X154146285Y-114141000D01*
X154051047Y-114093380D01*
X153812952Y-114093380D01*
X153717714Y-114141000D01*
X153670095Y-114188619D01*
X153622476Y-114283857D01*
X153622476Y-114379095D01*
X153670095Y-114521952D01*
X154241523Y-115093380D01*
X153622476Y-115093380D01*
%TO.C,Q3*%
X154416238Y-145287619D02*
X154511476Y-145240000D01*
X154606714Y-145144761D01*
X154749571Y-145001904D01*
X154844809Y-144954285D01*
X154940047Y-144954285D01*
X154892428Y-145192380D02*
X154987666Y-145144761D01*
X155082904Y-145049523D01*
X155130523Y-144859047D01*
X155130523Y-144525714D01*
X155082904Y-144335238D01*
X154987666Y-144240000D01*
X154892428Y-144192380D01*
X154701952Y-144192380D01*
X154606714Y-144240000D01*
X154511476Y-144335238D01*
X154463857Y-144525714D01*
X154463857Y-144859047D01*
X154511476Y-145049523D01*
X154606714Y-145144761D01*
X154701952Y-145192380D01*
X154892428Y-145192380D01*
X154130523Y-144192380D02*
X153511476Y-144192380D01*
X153844809Y-144573333D01*
X153701952Y-144573333D01*
X153606714Y-144620952D01*
X153559095Y-144668571D01*
X153511476Y-144763809D01*
X153511476Y-145001904D01*
X153559095Y-145097142D01*
X153606714Y-145144761D01*
X153701952Y-145192380D01*
X153987666Y-145192380D01*
X154082904Y-145144761D01*
X154130523Y-145097142D01*
%TO.C,Q4*%
X154289238Y-129793619D02*
X154384476Y-129746000D01*
X154479714Y-129650761D01*
X154622571Y-129507904D01*
X154717809Y-129460285D01*
X154813047Y-129460285D01*
X154765428Y-129698380D02*
X154860666Y-129650761D01*
X154955904Y-129555523D01*
X155003523Y-129365047D01*
X155003523Y-129031714D01*
X154955904Y-128841238D01*
X154860666Y-128746000D01*
X154765428Y-128698380D01*
X154574952Y-128698380D01*
X154479714Y-128746000D01*
X154384476Y-128841238D01*
X154336857Y-129031714D01*
X154336857Y-129365047D01*
X154384476Y-129555523D01*
X154479714Y-129650761D01*
X154574952Y-129698380D01*
X154765428Y-129698380D01*
X153479714Y-129031714D02*
X153479714Y-129698380D01*
X153717809Y-128650761D02*
X153955904Y-129365047D01*
X153336857Y-129365047D01*
%TO.C,R1*%
X165170380Y-59269333D02*
X164694190Y-58936000D01*
X165170380Y-58697904D02*
X164170380Y-58697904D01*
X164170380Y-59078857D01*
X164218000Y-59174095D01*
X164265619Y-59221714D01*
X164360857Y-59269333D01*
X164503714Y-59269333D01*
X164598952Y-59221714D01*
X164646571Y-59174095D01*
X164694190Y-59078857D01*
X164694190Y-58697904D01*
X165170380Y-60221714D02*
X165170380Y-59650285D01*
X165170380Y-59936000D02*
X164170380Y-59936000D01*
X164313238Y-59840761D01*
X164408476Y-59745523D01*
X164456095Y-59650285D01*
%TO.C,R2*%
X167202380Y-59269333D02*
X166726190Y-58936000D01*
X167202380Y-58697904D02*
X166202380Y-58697904D01*
X166202380Y-59078857D01*
X166250000Y-59174095D01*
X166297619Y-59221714D01*
X166392857Y-59269333D01*
X166535714Y-59269333D01*
X166630952Y-59221714D01*
X166678571Y-59174095D01*
X166726190Y-59078857D01*
X166726190Y-58697904D01*
X166297619Y-59650285D02*
X166250000Y-59697904D01*
X166202380Y-59793142D01*
X166202380Y-60031238D01*
X166250000Y-60126476D01*
X166297619Y-60174095D01*
X166392857Y-60221714D01*
X166488095Y-60221714D01*
X166630952Y-60174095D01*
X167202380Y-59602666D01*
X167202380Y-60221714D01*
%TO.C,R3*%
X165934380Y-59269333D02*
X165458190Y-58936000D01*
X165934380Y-58697904D02*
X164934380Y-58697904D01*
X164934380Y-59078857D01*
X164982000Y-59174095D01*
X165029619Y-59221714D01*
X165124857Y-59269333D01*
X165267714Y-59269333D01*
X165362952Y-59221714D01*
X165410571Y-59174095D01*
X165458190Y-59078857D01*
X165458190Y-58697904D01*
X164934380Y-59602666D02*
X164934380Y-60221714D01*
X165315333Y-59888380D01*
X165315333Y-60031238D01*
X165362952Y-60126476D01*
X165410571Y-60174095D01*
X165505809Y-60221714D01*
X165743904Y-60221714D01*
X165839142Y-60174095D01*
X165886761Y-60126476D01*
X165934380Y-60031238D01*
X165934380Y-59745523D01*
X165886761Y-59650285D01*
X165839142Y-59602666D01*
%TO.C,R4*%
X172919380Y-58634333D02*
X172443190Y-58301000D01*
X172919380Y-58062904D02*
X171919380Y-58062904D01*
X171919380Y-58443857D01*
X171967000Y-58539095D01*
X172014619Y-58586714D01*
X172109857Y-58634333D01*
X172252714Y-58634333D01*
X172347952Y-58586714D01*
X172395571Y-58539095D01*
X172443190Y-58443857D01*
X172443190Y-58062904D01*
X172252714Y-59491476D02*
X172919380Y-59491476D01*
X171871761Y-59253380D02*
X172586047Y-59015285D01*
X172586047Y-59634333D01*
%TO.C,R5*%
X177745380Y-69429333D02*
X177269190Y-69096000D01*
X177745380Y-68857904D02*
X176745380Y-68857904D01*
X176745380Y-69238857D01*
X176793000Y-69334095D01*
X176840619Y-69381714D01*
X176935857Y-69429333D01*
X177078714Y-69429333D01*
X177173952Y-69381714D01*
X177221571Y-69334095D01*
X177269190Y-69238857D01*
X177269190Y-68857904D01*
X176745380Y-70334095D02*
X176745380Y-69857904D01*
X177221571Y-69810285D01*
X177173952Y-69857904D01*
X177126333Y-69953142D01*
X177126333Y-70191238D01*
X177173952Y-70286476D01*
X177221571Y-70334095D01*
X177316809Y-70381714D01*
X177554904Y-70381714D01*
X177650142Y-70334095D01*
X177697761Y-70286476D01*
X177745380Y-70191238D01*
X177745380Y-69953142D01*
X177697761Y-69857904D01*
X177650142Y-69810285D01*
%TO.C,R6*%
X177745380Y-73112333D02*
X177269190Y-72779000D01*
X177745380Y-72540904D02*
X176745380Y-72540904D01*
X176745380Y-72921857D01*
X176793000Y-73017095D01*
X176840619Y-73064714D01*
X176935857Y-73112333D01*
X177078714Y-73112333D01*
X177173952Y-73064714D01*
X177221571Y-73017095D01*
X177269190Y-72921857D01*
X177269190Y-72540904D01*
X176745380Y-73969476D02*
X176745380Y-73779000D01*
X176793000Y-73683761D01*
X176840619Y-73636142D01*
X176983476Y-73540904D01*
X177173952Y-73493285D01*
X177554904Y-73493285D01*
X177650142Y-73540904D01*
X177697761Y-73588523D01*
X177745380Y-73683761D01*
X177745380Y-73874238D01*
X177697761Y-73969476D01*
X177650142Y-74017095D01*
X177554904Y-74064714D01*
X177316809Y-74064714D01*
X177221571Y-74017095D01*
X177173952Y-73969476D01*
X177126333Y-73874238D01*
X177126333Y-73683761D01*
X177173952Y-73588523D01*
X177221571Y-73540904D01*
X177316809Y-73493285D01*
%TO.C,R7*%
X179904380Y-69452833D02*
X179428190Y-69119500D01*
X179904380Y-68881404D02*
X178904380Y-68881404D01*
X178904380Y-69262357D01*
X178952000Y-69357595D01*
X178999619Y-69405214D01*
X179094857Y-69452833D01*
X179237714Y-69452833D01*
X179332952Y-69405214D01*
X179380571Y-69357595D01*
X179428190Y-69262357D01*
X179428190Y-68881404D01*
X178904380Y-69786166D02*
X178904380Y-70452833D01*
X179904380Y-70024261D01*
%TO.C,R8*%
X179904380Y-73088833D02*
X179428190Y-72755500D01*
X179904380Y-72517404D02*
X178904380Y-72517404D01*
X178904380Y-72898357D01*
X178952000Y-72993595D01*
X178999619Y-73041214D01*
X179094857Y-73088833D01*
X179237714Y-73088833D01*
X179332952Y-73041214D01*
X179380571Y-72993595D01*
X179428190Y-72898357D01*
X179428190Y-72517404D01*
X179332952Y-73660261D02*
X179285333Y-73565023D01*
X179237714Y-73517404D01*
X179142476Y-73469785D01*
X179094857Y-73469785D01*
X178999619Y-73517404D01*
X178952000Y-73565023D01*
X178904380Y-73660261D01*
X178904380Y-73850738D01*
X178952000Y-73945976D01*
X178999619Y-73993595D01*
X179094857Y-74041214D01*
X179142476Y-74041214D01*
X179237714Y-73993595D01*
X179285333Y-73945976D01*
X179332952Y-73850738D01*
X179332952Y-73660261D01*
X179380571Y-73565023D01*
X179428190Y-73517404D01*
X179523428Y-73469785D01*
X179713904Y-73469785D01*
X179809142Y-73517404D01*
X179856761Y-73565023D01*
X179904380Y-73660261D01*
X179904380Y-73850738D01*
X179856761Y-73945976D01*
X179809142Y-73993595D01*
X179713904Y-74041214D01*
X179523428Y-74041214D01*
X179428190Y-73993595D01*
X179380571Y-73945976D01*
X179332952Y-73850738D01*
%TO.C,R9*%
X183458380Y-119594333D02*
X182982190Y-119261000D01*
X183458380Y-119022904D02*
X182458380Y-119022904D01*
X182458380Y-119403857D01*
X182506000Y-119499095D01*
X182553619Y-119546714D01*
X182648857Y-119594333D01*
X182791714Y-119594333D01*
X182886952Y-119546714D01*
X182934571Y-119499095D01*
X182982190Y-119403857D01*
X182982190Y-119022904D01*
X183458380Y-120070523D02*
X183458380Y-120261000D01*
X183410761Y-120356238D01*
X183363142Y-120403857D01*
X183220285Y-120499095D01*
X183029809Y-120546714D01*
X182648857Y-120546714D01*
X182553619Y-120499095D01*
X182506000Y-120451476D01*
X182458380Y-120356238D01*
X182458380Y-120165761D01*
X182506000Y-120070523D01*
X182553619Y-120022904D01*
X182648857Y-119975285D01*
X182886952Y-119975285D01*
X182982190Y-120022904D01*
X183029809Y-120070523D01*
X183077428Y-120165761D01*
X183077428Y-120356238D01*
X183029809Y-120451476D01*
X182982190Y-120499095D01*
X182886952Y-120546714D01*
%TO.C,R10*%
X183458380Y-133826642D02*
X182982190Y-133493309D01*
X183458380Y-133255214D02*
X182458380Y-133255214D01*
X182458380Y-133636166D01*
X182506000Y-133731404D01*
X182553619Y-133779023D01*
X182648857Y-133826642D01*
X182791714Y-133826642D01*
X182886952Y-133779023D01*
X182934571Y-133731404D01*
X182982190Y-133636166D01*
X182982190Y-133255214D01*
X183458380Y-134779023D02*
X183458380Y-134207595D01*
X183458380Y-134493309D02*
X182458380Y-134493309D01*
X182601238Y-134398071D01*
X182696476Y-134302833D01*
X182744095Y-134207595D01*
X182458380Y-135398071D02*
X182458380Y-135493309D01*
X182506000Y-135588547D01*
X182553619Y-135636166D01*
X182648857Y-135683785D01*
X182839333Y-135731404D01*
X183077428Y-135731404D01*
X183267904Y-135683785D01*
X183363142Y-135636166D01*
X183410761Y-135588547D01*
X183458380Y-135493309D01*
X183458380Y-135398071D01*
X183410761Y-135302833D01*
X183363142Y-135255214D01*
X183267904Y-135207595D01*
X183077428Y-135159976D01*
X182839333Y-135159976D01*
X182648857Y-135207595D01*
X182553619Y-135255214D01*
X182506000Y-135302833D01*
X182458380Y-135398071D01*
%TO.C,R11*%
X183458380Y-148605642D02*
X182982190Y-148272309D01*
X183458380Y-148034214D02*
X182458380Y-148034214D01*
X182458380Y-148415166D01*
X182506000Y-148510404D01*
X182553619Y-148558023D01*
X182648857Y-148605642D01*
X182791714Y-148605642D01*
X182886952Y-148558023D01*
X182934571Y-148510404D01*
X182982190Y-148415166D01*
X182982190Y-148034214D01*
X183458380Y-149558023D02*
X183458380Y-148986595D01*
X183458380Y-149272309D02*
X182458380Y-149272309D01*
X182601238Y-149177071D01*
X182696476Y-149081833D01*
X182744095Y-148986595D01*
X183458380Y-150510404D02*
X183458380Y-149938976D01*
X183458380Y-150224690D02*
X182458380Y-150224690D01*
X182601238Y-150129452D01*
X182696476Y-150034214D01*
X182744095Y-149938976D01*
%TO.C,R12*%
X183458380Y-104409642D02*
X182982190Y-104076309D01*
X183458380Y-103838214D02*
X182458380Y-103838214D01*
X182458380Y-104219166D01*
X182506000Y-104314404D01*
X182553619Y-104362023D01*
X182648857Y-104409642D01*
X182791714Y-104409642D01*
X182886952Y-104362023D01*
X182934571Y-104314404D01*
X182982190Y-104219166D01*
X182982190Y-103838214D01*
X183458380Y-105362023D02*
X183458380Y-104790595D01*
X183458380Y-105076309D02*
X182458380Y-105076309D01*
X182601238Y-104981071D01*
X182696476Y-104885833D01*
X182744095Y-104790595D01*
X182553619Y-105742976D02*
X182506000Y-105790595D01*
X182458380Y-105885833D01*
X182458380Y-106123928D01*
X182506000Y-106219166D01*
X182553619Y-106266785D01*
X182648857Y-106314404D01*
X182744095Y-106314404D01*
X182886952Y-106266785D01*
X183458380Y-105695357D01*
X183458380Y-106314404D01*
%TO.C,R13*%
X169998380Y-104362642D02*
X169522190Y-104029309D01*
X169998380Y-103791214D02*
X168998380Y-103791214D01*
X168998380Y-104172166D01*
X169046000Y-104267404D01*
X169093619Y-104315023D01*
X169188857Y-104362642D01*
X169331714Y-104362642D01*
X169426952Y-104315023D01*
X169474571Y-104267404D01*
X169522190Y-104172166D01*
X169522190Y-103791214D01*
X169998380Y-105315023D02*
X169998380Y-104743595D01*
X169998380Y-105029309D02*
X168998380Y-105029309D01*
X169141238Y-104934071D01*
X169236476Y-104838833D01*
X169284095Y-104743595D01*
X168998380Y-105648357D02*
X168998380Y-106267404D01*
X169379333Y-105934071D01*
X169379333Y-106076928D01*
X169426952Y-106172166D01*
X169474571Y-106219785D01*
X169569809Y-106267404D01*
X169807904Y-106267404D01*
X169903142Y-106219785D01*
X169950761Y-106172166D01*
X169998380Y-106076928D01*
X169998380Y-105791214D01*
X169950761Y-105695976D01*
X169903142Y-105648357D01*
%TO.C,R14*%
X169998380Y-119094642D02*
X169522190Y-118761309D01*
X169998380Y-118523214D02*
X168998380Y-118523214D01*
X168998380Y-118904166D01*
X169046000Y-118999404D01*
X169093619Y-119047023D01*
X169188857Y-119094642D01*
X169331714Y-119094642D01*
X169426952Y-119047023D01*
X169474571Y-118999404D01*
X169522190Y-118904166D01*
X169522190Y-118523214D01*
X169998380Y-120047023D02*
X169998380Y-119475595D01*
X169998380Y-119761309D02*
X168998380Y-119761309D01*
X169141238Y-119666071D01*
X169236476Y-119570833D01*
X169284095Y-119475595D01*
X169331714Y-120904166D02*
X169998380Y-120904166D01*
X168950761Y-120666071D02*
X169665047Y-120427976D01*
X169665047Y-121047023D01*
%TO.C,R15*%
X169998380Y-133826642D02*
X169522190Y-133493309D01*
X169998380Y-133255214D02*
X168998380Y-133255214D01*
X168998380Y-133636166D01*
X169046000Y-133731404D01*
X169093619Y-133779023D01*
X169188857Y-133826642D01*
X169331714Y-133826642D01*
X169426952Y-133779023D01*
X169474571Y-133731404D01*
X169522190Y-133636166D01*
X169522190Y-133255214D01*
X169998380Y-134779023D02*
X169998380Y-134207595D01*
X169998380Y-134493309D02*
X168998380Y-134493309D01*
X169141238Y-134398071D01*
X169236476Y-134302833D01*
X169284095Y-134207595D01*
X168998380Y-135683785D02*
X168998380Y-135207595D01*
X169474571Y-135159976D01*
X169426952Y-135207595D01*
X169379333Y-135302833D01*
X169379333Y-135540928D01*
X169426952Y-135636166D01*
X169474571Y-135683785D01*
X169569809Y-135731404D01*
X169807904Y-135731404D01*
X169903142Y-135683785D01*
X169950761Y-135636166D01*
X169998380Y-135540928D01*
X169998380Y-135302833D01*
X169950761Y-135207595D01*
X169903142Y-135159976D01*
%TO.C,R16*%
X169998380Y-148558642D02*
X169522190Y-148225309D01*
X169998380Y-147987214D02*
X168998380Y-147987214D01*
X168998380Y-148368166D01*
X169046000Y-148463404D01*
X169093619Y-148511023D01*
X169188857Y-148558642D01*
X169331714Y-148558642D01*
X169426952Y-148511023D01*
X169474571Y-148463404D01*
X169522190Y-148368166D01*
X169522190Y-147987214D01*
X169998380Y-149511023D02*
X169998380Y-148939595D01*
X169998380Y-149225309D02*
X168998380Y-149225309D01*
X169141238Y-149130071D01*
X169236476Y-149034833D01*
X169284095Y-148939595D01*
X168998380Y-150368166D02*
X168998380Y-150177690D01*
X169046000Y-150082452D01*
X169093619Y-150034833D01*
X169236476Y-149939595D01*
X169426952Y-149891976D01*
X169807904Y-149891976D01*
X169903142Y-149939595D01*
X169950761Y-149987214D01*
X169998380Y-150082452D01*
X169998380Y-150272928D01*
X169950761Y-150368166D01*
X169903142Y-150415785D01*
X169807904Y-150463404D01*
X169569809Y-150463404D01*
X169474571Y-150415785D01*
X169426952Y-150368166D01*
X169379333Y-150272928D01*
X169379333Y-150082452D01*
X169426952Y-149987214D01*
X169474571Y-149939595D01*
X169569809Y-149891976D01*
%TO.C,R17*%
X152218380Y-104108642D02*
X151742190Y-103775309D01*
X152218380Y-103537214D02*
X151218380Y-103537214D01*
X151218380Y-103918166D01*
X151266000Y-104013404D01*
X151313619Y-104061023D01*
X151408857Y-104108642D01*
X151551714Y-104108642D01*
X151646952Y-104061023D01*
X151694571Y-104013404D01*
X151742190Y-103918166D01*
X151742190Y-103537214D01*
X152218380Y-105061023D02*
X152218380Y-104489595D01*
X152218380Y-104775309D02*
X151218380Y-104775309D01*
X151361238Y-104680071D01*
X151456476Y-104584833D01*
X151504095Y-104489595D01*
X151218380Y-105394357D02*
X151218380Y-106061023D01*
X152218380Y-105632452D01*
%TO.C,R18*%
X152218380Y-118840642D02*
X151742190Y-118507309D01*
X152218380Y-118269214D02*
X151218380Y-118269214D01*
X151218380Y-118650166D01*
X151266000Y-118745404D01*
X151313619Y-118793023D01*
X151408857Y-118840642D01*
X151551714Y-118840642D01*
X151646952Y-118793023D01*
X151694571Y-118745404D01*
X151742190Y-118650166D01*
X151742190Y-118269214D01*
X152218380Y-119793023D02*
X152218380Y-119221595D01*
X152218380Y-119507309D02*
X151218380Y-119507309D01*
X151361238Y-119412071D01*
X151456476Y-119316833D01*
X151504095Y-119221595D01*
X151646952Y-120364452D02*
X151599333Y-120269214D01*
X151551714Y-120221595D01*
X151456476Y-120173976D01*
X151408857Y-120173976D01*
X151313619Y-120221595D01*
X151266000Y-120269214D01*
X151218380Y-120364452D01*
X151218380Y-120554928D01*
X151266000Y-120650166D01*
X151313619Y-120697785D01*
X151408857Y-120745404D01*
X151456476Y-120745404D01*
X151551714Y-120697785D01*
X151599333Y-120650166D01*
X151646952Y-120554928D01*
X151646952Y-120364452D01*
X151694571Y-120269214D01*
X151742190Y-120221595D01*
X151837428Y-120173976D01*
X152027904Y-120173976D01*
X152123142Y-120221595D01*
X152170761Y-120269214D01*
X152218380Y-120364452D01*
X152218380Y-120554928D01*
X152170761Y-120650166D01*
X152123142Y-120697785D01*
X152027904Y-120745404D01*
X151837428Y-120745404D01*
X151742190Y-120697785D01*
X151694571Y-120650166D01*
X151646952Y-120554928D01*
%TO.C,R19*%
X154971357Y-92782380D02*
X155304690Y-92306190D01*
X155542785Y-92782380D02*
X155542785Y-91782380D01*
X155161833Y-91782380D01*
X155066595Y-91830000D01*
X155018976Y-91877619D01*
X154971357Y-91972857D01*
X154971357Y-92115714D01*
X155018976Y-92210952D01*
X155066595Y-92258571D01*
X155161833Y-92306190D01*
X155542785Y-92306190D01*
X154018976Y-92782380D02*
X154590404Y-92782380D01*
X154304690Y-92782380D02*
X154304690Y-91782380D01*
X154399928Y-91925238D01*
X154495166Y-92020476D01*
X154590404Y-92068095D01*
X153542785Y-92782380D02*
X153352309Y-92782380D01*
X153257071Y-92734761D01*
X153209452Y-92687142D01*
X153114214Y-92544285D01*
X153066595Y-92353809D01*
X153066595Y-91972857D01*
X153114214Y-91877619D01*
X153161833Y-91830000D01*
X153257071Y-91782380D01*
X153447547Y-91782380D01*
X153542785Y-91830000D01*
X153590404Y-91877619D01*
X153638023Y-91972857D01*
X153638023Y-92210952D01*
X153590404Y-92306190D01*
X153542785Y-92353809D01*
X153447547Y-92401428D01*
X153257071Y-92401428D01*
X153161833Y-92353809D01*
X153114214Y-92306190D01*
X153066595Y-92210952D01*
%TO.C,R20*%
X155098357Y-107641380D02*
X155431690Y-107165190D01*
X155669785Y-107641380D02*
X155669785Y-106641380D01*
X155288833Y-106641380D01*
X155193595Y-106689000D01*
X155145976Y-106736619D01*
X155098357Y-106831857D01*
X155098357Y-106974714D01*
X155145976Y-107069952D01*
X155193595Y-107117571D01*
X155288833Y-107165190D01*
X155669785Y-107165190D01*
X154717404Y-106736619D02*
X154669785Y-106689000D01*
X154574547Y-106641380D01*
X154336452Y-106641380D01*
X154241214Y-106689000D01*
X154193595Y-106736619D01*
X154145976Y-106831857D01*
X154145976Y-106927095D01*
X154193595Y-107069952D01*
X154765023Y-107641380D01*
X154145976Y-107641380D01*
X153526928Y-106641380D02*
X153431690Y-106641380D01*
X153336452Y-106689000D01*
X153288833Y-106736619D01*
X153241214Y-106831857D01*
X153193595Y-107022333D01*
X153193595Y-107260428D01*
X153241214Y-107450904D01*
X153288833Y-107546142D01*
X153336452Y-107593761D01*
X153431690Y-107641380D01*
X153526928Y-107641380D01*
X153622166Y-107593761D01*
X153669785Y-107546142D01*
X153717404Y-107450904D01*
X153765023Y-107260428D01*
X153765023Y-107022333D01*
X153717404Y-106831857D01*
X153669785Y-106736619D01*
X153622166Y-106689000D01*
X153526928Y-106641380D01*
%TO.C,R21*%
X152218380Y-148328142D02*
X151742190Y-147994809D01*
X152218380Y-147756714D02*
X151218380Y-147756714D01*
X151218380Y-148137666D01*
X151266000Y-148232904D01*
X151313619Y-148280523D01*
X151408857Y-148328142D01*
X151551714Y-148328142D01*
X151646952Y-148280523D01*
X151694571Y-148232904D01*
X151742190Y-148137666D01*
X151742190Y-147756714D01*
X151313619Y-148709095D02*
X151266000Y-148756714D01*
X151218380Y-148851952D01*
X151218380Y-149090047D01*
X151266000Y-149185285D01*
X151313619Y-149232904D01*
X151408857Y-149280523D01*
X151504095Y-149280523D01*
X151646952Y-149232904D01*
X152218380Y-148661476D01*
X152218380Y-149280523D01*
X152218380Y-150232904D02*
X152218380Y-149661476D01*
X152218380Y-149947190D02*
X151218380Y-149947190D01*
X151361238Y-149851952D01*
X151456476Y-149756714D01*
X151504095Y-149661476D01*
%TO.C,R22*%
X152218380Y-133596142D02*
X151742190Y-133262809D01*
X152218380Y-133024714D02*
X151218380Y-133024714D01*
X151218380Y-133405666D01*
X151266000Y-133500904D01*
X151313619Y-133548523D01*
X151408857Y-133596142D01*
X151551714Y-133596142D01*
X151646952Y-133548523D01*
X151694571Y-133500904D01*
X151742190Y-133405666D01*
X151742190Y-133024714D01*
X151313619Y-133977095D02*
X151266000Y-134024714D01*
X151218380Y-134119952D01*
X151218380Y-134358047D01*
X151266000Y-134453285D01*
X151313619Y-134500904D01*
X151408857Y-134548523D01*
X151504095Y-134548523D01*
X151646952Y-134500904D01*
X152218380Y-133929476D01*
X152218380Y-134548523D01*
X151313619Y-134929476D02*
X151266000Y-134977095D01*
X151218380Y-135072333D01*
X151218380Y-135310428D01*
X151266000Y-135405666D01*
X151313619Y-135453285D01*
X151408857Y-135500904D01*
X151504095Y-135500904D01*
X151646952Y-135453285D01*
X152218380Y-134881857D01*
X152218380Y-135500904D01*
%TO.C,R23*%
X154971357Y-137867380D02*
X155304690Y-137391190D01*
X155542785Y-137867380D02*
X155542785Y-136867380D01*
X155161833Y-136867380D01*
X155066595Y-136915000D01*
X155018976Y-136962619D01*
X154971357Y-137057857D01*
X154971357Y-137200714D01*
X155018976Y-137295952D01*
X155066595Y-137343571D01*
X155161833Y-137391190D01*
X155542785Y-137391190D01*
X154590404Y-136962619D02*
X154542785Y-136915000D01*
X154447547Y-136867380D01*
X154209452Y-136867380D01*
X154114214Y-136915000D01*
X154066595Y-136962619D01*
X154018976Y-137057857D01*
X154018976Y-137153095D01*
X154066595Y-137295952D01*
X154638023Y-137867380D01*
X154018976Y-137867380D01*
X153685642Y-136867380D02*
X153066595Y-136867380D01*
X153399928Y-137248333D01*
X153257071Y-137248333D01*
X153161833Y-137295952D01*
X153114214Y-137343571D01*
X153066595Y-137438809D01*
X153066595Y-137676904D01*
X153114214Y-137772142D01*
X153161833Y-137819761D01*
X153257071Y-137867380D01*
X153542785Y-137867380D01*
X153638023Y-137819761D01*
X153685642Y-137772142D01*
%TO.C,R24*%
X154947857Y-122373380D02*
X155281190Y-121897190D01*
X155519285Y-122373380D02*
X155519285Y-121373380D01*
X155138333Y-121373380D01*
X155043095Y-121421000D01*
X154995476Y-121468619D01*
X154947857Y-121563857D01*
X154947857Y-121706714D01*
X154995476Y-121801952D01*
X155043095Y-121849571D01*
X155138333Y-121897190D01*
X155519285Y-121897190D01*
X154566904Y-121468619D02*
X154519285Y-121421000D01*
X154424047Y-121373380D01*
X154185952Y-121373380D01*
X154090714Y-121421000D01*
X154043095Y-121468619D01*
X153995476Y-121563857D01*
X153995476Y-121659095D01*
X154043095Y-121801952D01*
X154614523Y-122373380D01*
X153995476Y-122373380D01*
X153138333Y-121706714D02*
X153138333Y-122373380D01*
X153376428Y-121325761D02*
X153614523Y-122040047D01*
X152995476Y-122040047D01*
%TO.C,RESET1*%
D16*
X158401657Y-59076771D02*
X158604857Y-58786485D01*
X158750000Y-59076771D02*
X158750000Y-58467171D01*
X158517771Y-58467171D01*
X158459714Y-58496200D01*
X158430685Y-58525228D01*
X158401657Y-58583285D01*
X158401657Y-58670371D01*
X158430685Y-58728428D01*
X158459714Y-58757457D01*
X158517771Y-58786485D01*
X158750000Y-58786485D01*
X158140400Y-58757457D02*
X157937200Y-58757457D01*
X157850114Y-59076771D02*
X158140400Y-59076771D01*
X158140400Y-58467171D01*
X157850114Y-58467171D01*
X157617885Y-59047742D02*
X157530800Y-59076771D01*
X157385657Y-59076771D01*
X157327600Y-59047742D01*
X157298571Y-59018714D01*
X157269542Y-58960657D01*
X157269542Y-58902600D01*
X157298571Y-58844542D01*
X157327600Y-58815514D01*
X157385657Y-58786485D01*
X157501771Y-58757457D01*
X157559828Y-58728428D01*
X157588857Y-58699400D01*
X157617885Y-58641342D01*
X157617885Y-58583285D01*
X157588857Y-58525228D01*
X157559828Y-58496200D01*
X157501771Y-58467171D01*
X157356628Y-58467171D01*
X157269542Y-58496200D01*
X157008285Y-58757457D02*
X156805085Y-58757457D01*
X156718000Y-59076771D02*
X157008285Y-59076771D01*
X157008285Y-58467171D01*
X156718000Y-58467171D01*
X156543828Y-58467171D02*
X156195485Y-58467171D01*
X156369657Y-59076771D02*
X156369657Y-58467171D01*
X155672971Y-59076771D02*
X156021314Y-59076771D01*
X155847142Y-59076771D02*
X155847142Y-58467171D01*
X155905200Y-58554257D01*
X155963257Y-58612314D01*
X156021314Y-58641342D01*
X159896628Y-51583771D02*
X159896628Y-50974171D01*
X159693428Y-51409600D01*
X159490228Y-50974171D01*
X159490228Y-51583771D01*
X159083828Y-50974171D02*
X158967714Y-50974171D01*
X158909657Y-51003200D01*
X158851600Y-51061257D01*
X158822571Y-51177371D01*
X158822571Y-51380571D01*
X158851600Y-51496685D01*
X158909657Y-51554742D01*
X158967714Y-51583771D01*
X159083828Y-51583771D01*
X159141885Y-51554742D01*
X159199942Y-51496685D01*
X159228971Y-51380571D01*
X159228971Y-51177371D01*
X159199942Y-51061257D01*
X159141885Y-51003200D01*
X159083828Y-50974171D01*
X158561314Y-51583771D02*
X158561314Y-50974171D01*
X158358114Y-51409600D01*
X158154914Y-50974171D01*
X158154914Y-51583771D01*
X157864628Y-51351542D02*
X157400171Y-51351542D01*
X156848628Y-50974171D02*
X156964742Y-50974171D01*
X157022800Y-51003200D01*
X157051828Y-51032228D01*
X157109885Y-51119314D01*
X157138914Y-51235428D01*
X157138914Y-51467657D01*
X157109885Y-51525714D01*
X157080857Y-51554742D01*
X157022800Y-51583771D01*
X156906685Y-51583771D01*
X156848628Y-51554742D01*
X156819600Y-51525714D01*
X156790571Y-51467657D01*
X156790571Y-51322514D01*
X156819600Y-51264457D01*
X156848628Y-51235428D01*
X156906685Y-51206400D01*
X157022800Y-51206400D01*
X157080857Y-51235428D01*
X157109885Y-51264457D01*
X157138914Y-51322514D01*
X156529314Y-51525714D02*
X156500285Y-51554742D01*
X156529314Y-51583771D01*
X156558342Y-51554742D01*
X156529314Y-51525714D01*
X156529314Y-51583771D01*
X156122914Y-50974171D02*
X156064857Y-50974171D01*
X156006800Y-51003200D01*
X155977771Y-51032228D01*
X155948742Y-51090285D01*
X155919714Y-51206400D01*
X155919714Y-51351542D01*
X155948742Y-51467657D01*
X155977771Y-51525714D01*
X156006800Y-51554742D01*
X156064857Y-51583771D01*
X156122914Y-51583771D01*
X156180971Y-51554742D01*
X156210000Y-51525714D01*
X156239028Y-51467657D01*
X156268057Y-51351542D01*
X156268057Y-51206400D01*
X156239028Y-51090285D01*
X156210000Y-51032228D01*
X156180971Y-51003200D01*
X156122914Y-50974171D01*
X155658457Y-51583771D02*
X155658457Y-50974171D01*
X155455257Y-51409600D01*
X155252057Y-50974171D01*
X155252057Y-51583771D01*
X154961771Y-51583771D02*
X154961771Y-50974171D01*
X154758571Y-51409600D01*
X154555371Y-50974171D01*
X154555371Y-51583771D01*
%TO.C,U2*%
D14*
X171576904Y-75736380D02*
X171576904Y-76545904D01*
X171529285Y-76641142D01*
X171481666Y-76688761D01*
X171386428Y-76736380D01*
X171195952Y-76736380D01*
X171100714Y-76688761D01*
X171053095Y-76641142D01*
X171005476Y-76545904D01*
X171005476Y-75736380D01*
X170576904Y-75831619D02*
X170529285Y-75784000D01*
X170434047Y-75736380D01*
X170195952Y-75736380D01*
X170100714Y-75784000D01*
X170053095Y-75831619D01*
X170005476Y-75926857D01*
X170005476Y-76022095D01*
X170053095Y-76164952D01*
X170624523Y-76736380D01*
X170005476Y-76736380D01*
%TO.C,U3*%
X174652380Y-78105095D02*
X175461904Y-78105095D01*
X175557142Y-78152714D01*
X175604761Y-78200333D01*
X175652380Y-78295571D01*
X175652380Y-78486047D01*
X175604761Y-78581285D01*
X175557142Y-78628904D01*
X175461904Y-78676523D01*
X174652380Y-78676523D01*
X174652380Y-79057476D02*
X174652380Y-79676523D01*
X175033333Y-79343190D01*
X175033333Y-79486047D01*
X175080952Y-79581285D01*
X175128571Y-79628904D01*
X175223809Y-79676523D01*
X175461904Y-79676523D01*
X175557142Y-79628904D01*
X175604761Y-79581285D01*
X175652380Y-79486047D01*
X175652380Y-79200333D01*
X175604761Y-79105095D01*
X175557142Y-79057476D01*
%TO.C,U4*%
X178561904Y-81294380D02*
X178561904Y-82103904D01*
X178514285Y-82199142D01*
X178466666Y-82246761D01*
X178371428Y-82294380D01*
X178180952Y-82294380D01*
X178085714Y-82246761D01*
X178038095Y-82199142D01*
X177990476Y-82103904D01*
X177990476Y-81294380D01*
X177085714Y-81627714D02*
X177085714Y-82294380D01*
X177323809Y-81246761D02*
X177561904Y-81961047D01*
X176942857Y-81961047D01*
%TO.C,Y1*%
X176639190Y-57113809D02*
X177115380Y-57113809D01*
X176115380Y-56780476D02*
X176639190Y-57113809D01*
X176115380Y-57447142D01*
X177115380Y-58304285D02*
X177115380Y-57732857D01*
X177115380Y-58018571D02*
X176115380Y-58018571D01*
X176258238Y-57923333D01*
X176353476Y-57828095D01*
X176401095Y-57732857D01*
%TD*%
M02*
