%TF.GenerationSoftware,KiCad,Pcbnew,(5.1.9)-1*%
%TF.CreationDate,2021-05-09T23:01:39-04:00*%
%TF.ProjectId,main,6d61696e-2e6b-4696-9361-645f70636258,rev?*%
%TF.SameCoordinates,Original*%
%TF.FileFunction,Copper,L1,Top*%
%TF.FilePolarity,Positive*%
%FSLAX46Y46*%
G04 Gerber Fmt 4.6, Leading zero omitted, Abs format (unit mm)*
G04 Created by KiCad (PCBNEW (5.1.9)-1) date 2021-05-09 23:01:39*
%MOMM*%
%LPD*%
G01*
G04 APERTURE LIST*
%TA.AperFunction,ComponentPad*%
%ADD10O,1.700000X1.700000*%
%TD*%
%TA.AperFunction,ComponentPad*%
%ADD11R,1.700000X1.700000*%
%TD*%
%TA.AperFunction,ComponentPad*%
%ADD12R,2.200000X2.200000*%
%TD*%
%TA.AperFunction,ComponentPad*%
%ADD13O,2.200000X2.200000*%
%TD*%
%TA.AperFunction,ComponentPad*%
%ADD14R,1.600000X1.600000*%
%TD*%
%TA.AperFunction,ComponentPad*%
%ADD15O,1.600000X1.600000*%
%TD*%
%TA.AperFunction,ComponentPad*%
%ADD16O,1.100000X1.500000*%
%TD*%
%TA.AperFunction,ComponentPad*%
%ADD17O,1.350000X1.700000*%
%TD*%
%TA.AperFunction,ComponentPad*%
%ADD18C,2.130000*%
%TD*%
%TA.AperFunction,ComponentPad*%
%ADD19R,1.930000X1.830000*%
%TD*%
%TA.AperFunction,ComponentPad*%
%ADD20C,1.879600*%
%TD*%
%TA.AperFunction,ViaPad*%
%ADD21C,0.800000*%
%TD*%
%TA.AperFunction,Conductor*%
%ADD22C,0.250000*%
%TD*%
%TA.AperFunction,Conductor*%
%ADD23C,0.254000*%
%TD*%
%TA.AperFunction,Conductor*%
%ADD24C,0.100000*%
%TD*%
G04 APERTURE END LIST*
D10*
%TO.P,J15,6*%
%TO.N,GND*%
X171069000Y-89535000D03*
%TO.P,J15,5*%
%TO.N,RST*%
X168529000Y-89535000D03*
%TO.P,J15,4*%
%TO.N,MOSI*%
X171069000Y-86995000D03*
%TO.P,J15,3*%
%TO.N,SCK*%
X168529000Y-86995000D03*
%TO.P,J15,2*%
%TO.N,+5V*%
X171069000Y-84455000D03*
D11*
%TO.P,J15,1*%
%TO.N,MISO*%
X168529000Y-84455000D03*
%TD*%
D10*
%TO.P,J2,10*%
%TO.N,-12V*%
X157480000Y-87884000D03*
%TO.P,J2,9*%
X154940000Y-87884000D03*
%TO.P,J2,8*%
%TO.N,GND*%
X157480000Y-85344000D03*
%TO.P,J2,7*%
X154940000Y-85344000D03*
%TO.P,J2,6*%
X157480000Y-82804000D03*
%TO.P,J2,5*%
X154940000Y-82804000D03*
%TO.P,J2,4*%
X157480000Y-80264000D03*
%TO.P,J2,3*%
X154940000Y-80264000D03*
%TO.P,J2,2*%
%TO.N,+12V*%
X157480000Y-77724000D03*
D11*
%TO.P,J2,1*%
X154940000Y-77724000D03*
%TD*%
D12*
%TO.P,D1,1*%
%TO.N,+12V*%
X161417000Y-77724000D03*
D13*
%TO.P,D1,2*%
%TO.N,GND*%
X161417000Y-87884000D03*
%TD*%
%TO.P,D2,2*%
%TO.N,-12V*%
X164719000Y-87884000D03*
D12*
%TO.P,D2,1*%
%TO.N,GND*%
X164719000Y-77724000D03*
%TD*%
D14*
%TO.P,D9,1*%
%TO.N,Net-(D9-Pad1)*%
X160274000Y-101854000D03*
D15*
%TO.P,D9,2*%
%TO.N,GND*%
X160274000Y-94234000D03*
%TD*%
%TO.P,D10,2*%
%TO.N,GND*%
X160274000Y-108966000D03*
D14*
%TO.P,D10,1*%
%TO.N,Net-(D10-Pad1)*%
X160274000Y-116586000D03*
%TD*%
D15*
%TO.P,D11,2*%
%TO.N,GND*%
X160147000Y-138430000D03*
D14*
%TO.P,D11,1*%
%TO.N,Net-(D11-Pad1)*%
X160147000Y-146050000D03*
%TD*%
%TO.P,D12,1*%
%TO.N,Net-(D12-Pad1)*%
X160274000Y-131318000D03*
D15*
%TO.P,D12,2*%
%TO.N,GND*%
X160274000Y-123698000D03*
%TD*%
D16*
%TO.P,J1,6*%
%TO.N,GND*%
X168911000Y-51848000D03*
X164071000Y-51848000D03*
D17*
X169221000Y-54848000D03*
X163761000Y-54848000D03*
%TD*%
D18*
%TO.P,J3,TN*%
%TO.N,N/C*%
X177800000Y-112066000D03*
D19*
%TO.P,J3,S*%
%TO.N,GND*%
X177800000Y-108966000D03*
D18*
%TO.P,J3,T*%
%TO.N,Net-(J3-PadT)*%
X177800000Y-120366000D03*
%TD*%
%TO.P,J4,T*%
%TO.N,Net-(J4-PadT)*%
X177800000Y-135098000D03*
D19*
%TO.P,J4,S*%
%TO.N,GND*%
X177800000Y-123698000D03*
D18*
%TO.P,J4,TN*%
%TO.N,N/C*%
X177800000Y-126798000D03*
%TD*%
%TO.P,J5,T*%
%TO.N,Net-(J5-PadT)*%
X177800000Y-149830000D03*
D19*
%TO.P,J5,S*%
%TO.N,GND*%
X177800000Y-138430000D03*
D18*
%TO.P,J5,TN*%
%TO.N,N/C*%
X177800000Y-141530000D03*
%TD*%
%TO.P,J6,TN*%
%TO.N,N/C*%
X177800000Y-97334000D03*
D19*
%TO.P,J6,S*%
%TO.N,GND*%
X177800000Y-94234000D03*
D18*
%TO.P,J6,T*%
%TO.N,Net-(J6-PadT)*%
X177800000Y-105634000D03*
%TD*%
%TO.P,J7,TN*%
%TO.N,N/C*%
X167640000Y-97334000D03*
D19*
%TO.P,J7,S*%
%TO.N,GND*%
X167640000Y-94234000D03*
D18*
%TO.P,J7,T*%
%TO.N,Net-(J7-PadT)*%
X167640000Y-105634000D03*
%TD*%
%TO.P,J8,TN*%
%TO.N,N/C*%
X167640000Y-112066000D03*
D19*
%TO.P,J8,S*%
%TO.N,GND*%
X167640000Y-108966000D03*
D18*
%TO.P,J8,T*%
%TO.N,Net-(J8-PadT)*%
X167640000Y-120366000D03*
%TD*%
%TO.P,J9,TN*%
%TO.N,N/C*%
X167640000Y-126828000D03*
D19*
%TO.P,J9,S*%
%TO.N,GND*%
X167640000Y-123728000D03*
D18*
%TO.P,J9,T*%
%TO.N,Net-(J9-PadT)*%
X167640000Y-135128000D03*
%TD*%
%TO.P,J10,T*%
%TO.N,Net-(J10-PadT)*%
X167640000Y-149830000D03*
D19*
%TO.P,J10,S*%
%TO.N,GND*%
X167640000Y-138430000D03*
D18*
%TO.P,J10,TN*%
%TO.N,N/C*%
X167640000Y-141530000D03*
%TD*%
%TO.P,J11,T*%
%TO.N,Net-(J11-PadT)*%
X157480000Y-105634000D03*
D19*
%TO.P,J11,S*%
%TO.N,GND*%
X157480000Y-94234000D03*
D18*
%TO.P,J11,TN*%
%TO.N,N/C*%
X157480000Y-97334000D03*
%TD*%
%TO.P,J12,TN*%
%TO.N,N/C*%
X157480000Y-112066000D03*
D19*
%TO.P,J12,S*%
%TO.N,GND*%
X157480000Y-108966000D03*
D18*
%TO.P,J12,T*%
%TO.N,Net-(J12-PadT)*%
X157480000Y-120366000D03*
%TD*%
%TO.P,J13,T*%
%TO.N,Net-(J13-PadT)*%
X157480000Y-149830000D03*
D19*
%TO.P,J13,S*%
%TO.N,GND*%
X157480000Y-138430000D03*
D18*
%TO.P,J13,TN*%
%TO.N,N/C*%
X157480000Y-141530000D03*
%TD*%
%TO.P,J14,T*%
%TO.N,Net-(J14-PadT)*%
X157480000Y-135128000D03*
D19*
%TO.P,J14,S*%
%TO.N,GND*%
X157480000Y-123728000D03*
D18*
%TO.P,J14,TN*%
%TO.N,N/C*%
X157480000Y-126828000D03*
%TD*%
D20*
%TO.P,RESET1,1*%
%TO.N,GND*%
X153974800Y-57378600D03*
%TO.P,RESET1,2*%
%TO.N,N/C*%
X160477200Y-57378600D03*
%TO.P,RESET1,3*%
%TO.N,RST*%
X153974800Y-52857400D03*
%TO.P,RESET1,4*%
%TO.N,N/C*%
X160477200Y-52857400D03*
%TD*%
D21*
%TO.N,SCL*%
X174371000Y-64643000D03*
X175514000Y-76835000D03*
%TO.N,SDA*%
X173215000Y-64630000D03*
X175895000Y-78486000D03*
%TD*%
D22*
%TO.N,SCL*%
X174371000Y-64643000D02*
X174371000Y-75692000D01*
X174371000Y-75692000D02*
X175514000Y-76835000D01*
X175514000Y-76835000D02*
X175514000Y-76835000D01*
%TO.N,SDA*%
X173215000Y-64630000D02*
X173215000Y-67805000D01*
X173215000Y-67805000D02*
X173215000Y-75806000D01*
X173215000Y-75806000D02*
X175895000Y-78486000D01*
X175895000Y-78486000D02*
X175895000Y-78486000D01*
%TD*%
D23*
%TO.N,GND*%
X159731252Y-51461830D02*
X159473323Y-51634173D01*
X159253973Y-51853523D01*
X159081630Y-52111452D01*
X158962918Y-52398048D01*
X158902400Y-52702296D01*
X158902400Y-53012504D01*
X158962918Y-53316752D01*
X159081630Y-53603348D01*
X159253973Y-53861277D01*
X159473323Y-54080627D01*
X159731252Y-54252970D01*
X160017848Y-54371682D01*
X160322096Y-54432200D01*
X160632304Y-54432200D01*
X160936552Y-54371682D01*
X161223148Y-54252970D01*
X161481077Y-54080627D01*
X161700427Y-53861277D01*
X161872770Y-53603348D01*
X161991482Y-53316752D01*
X162052000Y-53012504D01*
X162052000Y-52702296D01*
X161991482Y-52398048D01*
X161893660Y-52161884D01*
X162885316Y-52161884D01*
X162930316Y-52391011D01*
X163019152Y-52606957D01*
X163148410Y-52801422D01*
X163313123Y-52966934D01*
X163506961Y-53097131D01*
X163722474Y-53187011D01*
X163761256Y-53191803D01*
X163944000Y-53066361D01*
X163944000Y-51975000D01*
X164198000Y-51975000D01*
X164198000Y-53066361D01*
X164380744Y-53191803D01*
X164419526Y-53187011D01*
X164635039Y-53097131D01*
X164828877Y-52966934D01*
X164993590Y-52801422D01*
X165122848Y-52606957D01*
X165211684Y-52391011D01*
X165256684Y-52161884D01*
X167725316Y-52161884D01*
X167770316Y-52391011D01*
X167859152Y-52606957D01*
X167988410Y-52801422D01*
X168153123Y-52966934D01*
X168346961Y-53097131D01*
X168562474Y-53187011D01*
X168601256Y-53191803D01*
X168784000Y-53066361D01*
X168784000Y-51975000D01*
X169038000Y-51975000D01*
X169038000Y-53066361D01*
X169220744Y-53191803D01*
X169259526Y-53187011D01*
X169475039Y-53097131D01*
X169668877Y-52966934D01*
X169833590Y-52801422D01*
X169962848Y-52606957D01*
X170051684Y-52391011D01*
X170096684Y-52161884D01*
X169941152Y-51975000D01*
X169038000Y-51975000D01*
X168784000Y-51975000D01*
X167880848Y-51975000D01*
X167725316Y-52161884D01*
X165256684Y-52161884D01*
X165101152Y-51975000D01*
X164198000Y-51975000D01*
X163944000Y-51975000D01*
X163040848Y-51975000D01*
X162885316Y-52161884D01*
X161893660Y-52161884D01*
X161872770Y-52111452D01*
X161700427Y-51853523D01*
X161481077Y-51634173D01*
X161223148Y-51461830D01*
X161218730Y-51460000D01*
X162899872Y-51460000D01*
X162885316Y-51534116D01*
X163040848Y-51721000D01*
X163944000Y-51721000D01*
X163944000Y-51701000D01*
X164198000Y-51701000D01*
X164198000Y-51721000D01*
X165101152Y-51721000D01*
X165256684Y-51534116D01*
X165242128Y-51460000D01*
X167739872Y-51460000D01*
X167725316Y-51534116D01*
X167880848Y-51721000D01*
X168784000Y-51721000D01*
X168784000Y-51701000D01*
X169038000Y-51701000D01*
X169038000Y-51721000D01*
X169941152Y-51721000D01*
X170096684Y-51534116D01*
X170082128Y-51460000D01*
X182220001Y-51460000D01*
X182220000Y-151740000D01*
X153060000Y-151740000D01*
X153060000Y-149662565D01*
X155780000Y-149662565D01*
X155780000Y-149997435D01*
X155845330Y-150325872D01*
X155973479Y-150635252D01*
X156159523Y-150913687D01*
X156396313Y-151150477D01*
X156674748Y-151336521D01*
X156984128Y-151464670D01*
X157312565Y-151530000D01*
X157647435Y-151530000D01*
X157975872Y-151464670D01*
X158285252Y-151336521D01*
X158563687Y-151150477D01*
X158800477Y-150913687D01*
X158986521Y-150635252D01*
X159114670Y-150325872D01*
X159180000Y-149997435D01*
X159180000Y-149662565D01*
X165940000Y-149662565D01*
X165940000Y-149997435D01*
X166005330Y-150325872D01*
X166133479Y-150635252D01*
X166319523Y-150913687D01*
X166556313Y-151150477D01*
X166834748Y-151336521D01*
X167144128Y-151464670D01*
X167472565Y-151530000D01*
X167807435Y-151530000D01*
X168135872Y-151464670D01*
X168445252Y-151336521D01*
X168723687Y-151150477D01*
X168960477Y-150913687D01*
X169146521Y-150635252D01*
X169274670Y-150325872D01*
X169340000Y-149997435D01*
X169340000Y-149662565D01*
X176100000Y-149662565D01*
X176100000Y-149997435D01*
X176165330Y-150325872D01*
X176293479Y-150635252D01*
X176479523Y-150913687D01*
X176716313Y-151150477D01*
X176994748Y-151336521D01*
X177304128Y-151464670D01*
X177632565Y-151530000D01*
X177967435Y-151530000D01*
X178295872Y-151464670D01*
X178605252Y-151336521D01*
X178883687Y-151150477D01*
X179120477Y-150913687D01*
X179306521Y-150635252D01*
X179434670Y-150325872D01*
X179500000Y-149997435D01*
X179500000Y-149662565D01*
X179434670Y-149334128D01*
X179306521Y-149024748D01*
X179120477Y-148746313D01*
X178883687Y-148509523D01*
X178605252Y-148323479D01*
X178295872Y-148195330D01*
X177967435Y-148130000D01*
X177632565Y-148130000D01*
X177304128Y-148195330D01*
X176994748Y-148323479D01*
X176716313Y-148509523D01*
X176479523Y-148746313D01*
X176293479Y-149024748D01*
X176165330Y-149334128D01*
X176100000Y-149662565D01*
X169340000Y-149662565D01*
X169274670Y-149334128D01*
X169146521Y-149024748D01*
X168960477Y-148746313D01*
X168723687Y-148509523D01*
X168445252Y-148323479D01*
X168135872Y-148195330D01*
X167807435Y-148130000D01*
X167472565Y-148130000D01*
X167144128Y-148195330D01*
X166834748Y-148323479D01*
X166556313Y-148509523D01*
X166319523Y-148746313D01*
X166133479Y-149024748D01*
X166005330Y-149334128D01*
X165940000Y-149662565D01*
X159180000Y-149662565D01*
X159114670Y-149334128D01*
X158986521Y-149024748D01*
X158800477Y-148746313D01*
X158563687Y-148509523D01*
X158285252Y-148323479D01*
X157975872Y-148195330D01*
X157647435Y-148130000D01*
X157312565Y-148130000D01*
X156984128Y-148195330D01*
X156674748Y-148323479D01*
X156396313Y-148509523D01*
X156159523Y-148746313D01*
X155973479Y-149024748D01*
X155845330Y-149334128D01*
X155780000Y-149662565D01*
X153060000Y-149662565D01*
X153060000Y-145250000D01*
X158708928Y-145250000D01*
X158708928Y-146850000D01*
X158721188Y-146974482D01*
X158757498Y-147094180D01*
X158816463Y-147204494D01*
X158895815Y-147301185D01*
X158992506Y-147380537D01*
X159102820Y-147439502D01*
X159222518Y-147475812D01*
X159347000Y-147488072D01*
X160947000Y-147488072D01*
X161071482Y-147475812D01*
X161191180Y-147439502D01*
X161301494Y-147380537D01*
X161398185Y-147301185D01*
X161477537Y-147204494D01*
X161536502Y-147094180D01*
X161572812Y-146974482D01*
X161585072Y-146850000D01*
X161585072Y-145250000D01*
X161572812Y-145125518D01*
X161536502Y-145005820D01*
X161477537Y-144895506D01*
X161398185Y-144798815D01*
X161301494Y-144719463D01*
X161191180Y-144660498D01*
X161071482Y-144624188D01*
X160947000Y-144611928D01*
X159347000Y-144611928D01*
X159222518Y-144624188D01*
X159102820Y-144660498D01*
X158992506Y-144719463D01*
X158895815Y-144798815D01*
X158816463Y-144895506D01*
X158757498Y-145005820D01*
X158721188Y-145125518D01*
X158708928Y-145250000D01*
X153060000Y-145250000D01*
X153060000Y-141362565D01*
X155780000Y-141362565D01*
X155780000Y-141697435D01*
X155845330Y-142025872D01*
X155973479Y-142335252D01*
X156159523Y-142613687D01*
X156396313Y-142850477D01*
X156674748Y-143036521D01*
X156984128Y-143164670D01*
X157312565Y-143230000D01*
X157647435Y-143230000D01*
X157975872Y-143164670D01*
X158285252Y-143036521D01*
X158563687Y-142850477D01*
X158800477Y-142613687D01*
X158986521Y-142335252D01*
X159114670Y-142025872D01*
X159180000Y-141697435D01*
X159180000Y-141362565D01*
X165940000Y-141362565D01*
X165940000Y-141697435D01*
X166005330Y-142025872D01*
X166133479Y-142335252D01*
X166319523Y-142613687D01*
X166556313Y-142850477D01*
X166834748Y-143036521D01*
X167144128Y-143164670D01*
X167472565Y-143230000D01*
X167807435Y-143230000D01*
X168135872Y-143164670D01*
X168445252Y-143036521D01*
X168723687Y-142850477D01*
X168960477Y-142613687D01*
X169146521Y-142335252D01*
X169274670Y-142025872D01*
X169340000Y-141697435D01*
X169340000Y-141362565D01*
X176100000Y-141362565D01*
X176100000Y-141697435D01*
X176165330Y-142025872D01*
X176293479Y-142335252D01*
X176479523Y-142613687D01*
X176716313Y-142850477D01*
X176994748Y-143036521D01*
X177304128Y-143164670D01*
X177632565Y-143230000D01*
X177967435Y-143230000D01*
X178295872Y-143164670D01*
X178605252Y-143036521D01*
X178883687Y-142850477D01*
X179120477Y-142613687D01*
X179306521Y-142335252D01*
X179434670Y-142025872D01*
X179500000Y-141697435D01*
X179500000Y-141362565D01*
X179434670Y-141034128D01*
X179306521Y-140724748D01*
X179120477Y-140446313D01*
X178883687Y-140209523D01*
X178605252Y-140023479D01*
X178504860Y-139981895D01*
X178765000Y-139983072D01*
X178889482Y-139970812D01*
X179009180Y-139934502D01*
X179119494Y-139875537D01*
X179216185Y-139796185D01*
X179295537Y-139699494D01*
X179354502Y-139589180D01*
X179390812Y-139469482D01*
X179403072Y-139345000D01*
X179400000Y-138715750D01*
X179241250Y-138557000D01*
X177927000Y-138557000D01*
X177927000Y-138577000D01*
X177673000Y-138577000D01*
X177673000Y-138557000D01*
X176358750Y-138557000D01*
X176200000Y-138715750D01*
X176196928Y-139345000D01*
X176209188Y-139469482D01*
X176245498Y-139589180D01*
X176304463Y-139699494D01*
X176383815Y-139796185D01*
X176480506Y-139875537D01*
X176590820Y-139934502D01*
X176710518Y-139970812D01*
X176835000Y-139983072D01*
X177095140Y-139981895D01*
X176994748Y-140023479D01*
X176716313Y-140209523D01*
X176479523Y-140446313D01*
X176293479Y-140724748D01*
X176165330Y-141034128D01*
X176100000Y-141362565D01*
X169340000Y-141362565D01*
X169274670Y-141034128D01*
X169146521Y-140724748D01*
X168960477Y-140446313D01*
X168723687Y-140209523D01*
X168445252Y-140023479D01*
X168344860Y-139981895D01*
X168605000Y-139983072D01*
X168729482Y-139970812D01*
X168849180Y-139934502D01*
X168959494Y-139875537D01*
X169056185Y-139796185D01*
X169135537Y-139699494D01*
X169194502Y-139589180D01*
X169230812Y-139469482D01*
X169243072Y-139345000D01*
X169240000Y-138715750D01*
X169081250Y-138557000D01*
X167767000Y-138557000D01*
X167767000Y-138577000D01*
X167513000Y-138577000D01*
X167513000Y-138557000D01*
X166198750Y-138557000D01*
X166040000Y-138715750D01*
X166036928Y-139345000D01*
X166049188Y-139469482D01*
X166085498Y-139589180D01*
X166144463Y-139699494D01*
X166223815Y-139796185D01*
X166320506Y-139875537D01*
X166430820Y-139934502D01*
X166550518Y-139970812D01*
X166675000Y-139983072D01*
X166935140Y-139981895D01*
X166834748Y-140023479D01*
X166556313Y-140209523D01*
X166319523Y-140446313D01*
X166133479Y-140724748D01*
X166005330Y-141034128D01*
X165940000Y-141362565D01*
X159180000Y-141362565D01*
X159114670Y-141034128D01*
X158986521Y-140724748D01*
X158800477Y-140446313D01*
X158563687Y-140209523D01*
X158285252Y-140023479D01*
X158184860Y-139981895D01*
X158445000Y-139983072D01*
X158569482Y-139970812D01*
X158689180Y-139934502D01*
X158799494Y-139875537D01*
X158896185Y-139796185D01*
X158975537Y-139699494D01*
X159034502Y-139589180D01*
X159070812Y-139469482D01*
X159079725Y-139378986D01*
X159183586Y-139493519D01*
X159409580Y-139661037D01*
X159663913Y-139781246D01*
X159797961Y-139821904D01*
X160020000Y-139699915D01*
X160020000Y-138557000D01*
X160274000Y-138557000D01*
X160274000Y-139699915D01*
X160496039Y-139821904D01*
X160630087Y-139781246D01*
X160884420Y-139661037D01*
X161110414Y-139493519D01*
X161299385Y-139285131D01*
X161444070Y-139043881D01*
X161538909Y-138779040D01*
X161417624Y-138557000D01*
X160274000Y-138557000D01*
X160020000Y-138557000D01*
X157607000Y-138557000D01*
X157607000Y-138577000D01*
X157353000Y-138577000D01*
X157353000Y-138557000D01*
X156038750Y-138557000D01*
X155880000Y-138715750D01*
X155876928Y-139345000D01*
X155889188Y-139469482D01*
X155925498Y-139589180D01*
X155984463Y-139699494D01*
X156063815Y-139796185D01*
X156160506Y-139875537D01*
X156270820Y-139934502D01*
X156390518Y-139970812D01*
X156515000Y-139983072D01*
X156775140Y-139981895D01*
X156674748Y-140023479D01*
X156396313Y-140209523D01*
X156159523Y-140446313D01*
X155973479Y-140724748D01*
X155845330Y-141034128D01*
X155780000Y-141362565D01*
X153060000Y-141362565D01*
X153060000Y-137515000D01*
X155876928Y-137515000D01*
X155880000Y-138144250D01*
X156038750Y-138303000D01*
X157353000Y-138303000D01*
X157353000Y-137038750D01*
X157607000Y-137038750D01*
X157607000Y-138303000D01*
X160020000Y-138303000D01*
X160020000Y-137160085D01*
X160274000Y-137160085D01*
X160274000Y-138303000D01*
X161417624Y-138303000D01*
X161538909Y-138080960D01*
X161444070Y-137816119D01*
X161299385Y-137574869D01*
X161245095Y-137515000D01*
X166036928Y-137515000D01*
X166040000Y-138144250D01*
X166198750Y-138303000D01*
X167513000Y-138303000D01*
X167513000Y-137038750D01*
X167767000Y-137038750D01*
X167767000Y-138303000D01*
X169081250Y-138303000D01*
X169240000Y-138144250D01*
X169243072Y-137515000D01*
X176196928Y-137515000D01*
X176200000Y-138144250D01*
X176358750Y-138303000D01*
X177673000Y-138303000D01*
X177673000Y-137038750D01*
X177927000Y-137038750D01*
X177927000Y-138303000D01*
X179241250Y-138303000D01*
X179400000Y-138144250D01*
X179403072Y-137515000D01*
X179390812Y-137390518D01*
X179354502Y-137270820D01*
X179295537Y-137160506D01*
X179216185Y-137063815D01*
X179119494Y-136984463D01*
X179009180Y-136925498D01*
X178889482Y-136889188D01*
X178765000Y-136876928D01*
X178085750Y-136880000D01*
X177927000Y-137038750D01*
X177673000Y-137038750D01*
X177514250Y-136880000D01*
X176835000Y-136876928D01*
X176710518Y-136889188D01*
X176590820Y-136925498D01*
X176480506Y-136984463D01*
X176383815Y-137063815D01*
X176304463Y-137160506D01*
X176245498Y-137270820D01*
X176209188Y-137390518D01*
X176196928Y-137515000D01*
X169243072Y-137515000D01*
X169230812Y-137390518D01*
X169194502Y-137270820D01*
X169135537Y-137160506D01*
X169056185Y-137063815D01*
X168959494Y-136984463D01*
X168849180Y-136925498D01*
X168729482Y-136889188D01*
X168605000Y-136876928D01*
X167925750Y-136880000D01*
X167767000Y-137038750D01*
X167513000Y-137038750D01*
X167354250Y-136880000D01*
X166675000Y-136876928D01*
X166550518Y-136889188D01*
X166430820Y-136925498D01*
X166320506Y-136984463D01*
X166223815Y-137063815D01*
X166144463Y-137160506D01*
X166085498Y-137270820D01*
X166049188Y-137390518D01*
X166036928Y-137515000D01*
X161245095Y-137515000D01*
X161110414Y-137366481D01*
X160884420Y-137198963D01*
X160630087Y-137078754D01*
X160496039Y-137038096D01*
X160274000Y-137160085D01*
X160020000Y-137160085D01*
X159797961Y-137038096D01*
X159663913Y-137078754D01*
X159409580Y-137198963D01*
X159183586Y-137366481D01*
X159079725Y-137481014D01*
X159070812Y-137390518D01*
X159034502Y-137270820D01*
X158975537Y-137160506D01*
X158896185Y-137063815D01*
X158799494Y-136984463D01*
X158689180Y-136925498D01*
X158569482Y-136889188D01*
X158445000Y-136876928D01*
X157765750Y-136880000D01*
X157607000Y-137038750D01*
X157353000Y-137038750D01*
X157194250Y-136880000D01*
X156515000Y-136876928D01*
X156390518Y-136889188D01*
X156270820Y-136925498D01*
X156160506Y-136984463D01*
X156063815Y-137063815D01*
X155984463Y-137160506D01*
X155925498Y-137270820D01*
X155889188Y-137390518D01*
X155876928Y-137515000D01*
X153060000Y-137515000D01*
X153060000Y-134960565D01*
X155780000Y-134960565D01*
X155780000Y-135295435D01*
X155845330Y-135623872D01*
X155973479Y-135933252D01*
X156159523Y-136211687D01*
X156396313Y-136448477D01*
X156674748Y-136634521D01*
X156984128Y-136762670D01*
X157312565Y-136828000D01*
X157647435Y-136828000D01*
X157975872Y-136762670D01*
X158285252Y-136634521D01*
X158563687Y-136448477D01*
X158800477Y-136211687D01*
X158986521Y-135933252D01*
X159114670Y-135623872D01*
X159180000Y-135295435D01*
X159180000Y-134960565D01*
X165940000Y-134960565D01*
X165940000Y-135295435D01*
X166005330Y-135623872D01*
X166133479Y-135933252D01*
X166319523Y-136211687D01*
X166556313Y-136448477D01*
X166834748Y-136634521D01*
X167144128Y-136762670D01*
X167472565Y-136828000D01*
X167807435Y-136828000D01*
X168135872Y-136762670D01*
X168445252Y-136634521D01*
X168723687Y-136448477D01*
X168960477Y-136211687D01*
X169146521Y-135933252D01*
X169274670Y-135623872D01*
X169340000Y-135295435D01*
X169340000Y-134960565D01*
X169334033Y-134930565D01*
X176100000Y-134930565D01*
X176100000Y-135265435D01*
X176165330Y-135593872D01*
X176293479Y-135903252D01*
X176479523Y-136181687D01*
X176716313Y-136418477D01*
X176994748Y-136604521D01*
X177304128Y-136732670D01*
X177632565Y-136798000D01*
X177967435Y-136798000D01*
X178295872Y-136732670D01*
X178605252Y-136604521D01*
X178883687Y-136418477D01*
X179120477Y-136181687D01*
X179306521Y-135903252D01*
X179434670Y-135593872D01*
X179500000Y-135265435D01*
X179500000Y-134930565D01*
X179434670Y-134602128D01*
X179306521Y-134292748D01*
X179120477Y-134014313D01*
X178883687Y-133777523D01*
X178605252Y-133591479D01*
X178295872Y-133463330D01*
X177967435Y-133398000D01*
X177632565Y-133398000D01*
X177304128Y-133463330D01*
X176994748Y-133591479D01*
X176716313Y-133777523D01*
X176479523Y-134014313D01*
X176293479Y-134292748D01*
X176165330Y-134602128D01*
X176100000Y-134930565D01*
X169334033Y-134930565D01*
X169274670Y-134632128D01*
X169146521Y-134322748D01*
X168960477Y-134044313D01*
X168723687Y-133807523D01*
X168445252Y-133621479D01*
X168135872Y-133493330D01*
X167807435Y-133428000D01*
X167472565Y-133428000D01*
X167144128Y-133493330D01*
X166834748Y-133621479D01*
X166556313Y-133807523D01*
X166319523Y-134044313D01*
X166133479Y-134322748D01*
X166005330Y-134632128D01*
X165940000Y-134960565D01*
X159180000Y-134960565D01*
X159114670Y-134632128D01*
X158986521Y-134322748D01*
X158800477Y-134044313D01*
X158563687Y-133807523D01*
X158285252Y-133621479D01*
X157975872Y-133493330D01*
X157647435Y-133428000D01*
X157312565Y-133428000D01*
X156984128Y-133493330D01*
X156674748Y-133621479D01*
X156396313Y-133807523D01*
X156159523Y-134044313D01*
X155973479Y-134322748D01*
X155845330Y-134632128D01*
X155780000Y-134960565D01*
X153060000Y-134960565D01*
X153060000Y-130518000D01*
X158835928Y-130518000D01*
X158835928Y-132118000D01*
X158848188Y-132242482D01*
X158884498Y-132362180D01*
X158943463Y-132472494D01*
X159022815Y-132569185D01*
X159119506Y-132648537D01*
X159229820Y-132707502D01*
X159349518Y-132743812D01*
X159474000Y-132756072D01*
X161074000Y-132756072D01*
X161198482Y-132743812D01*
X161318180Y-132707502D01*
X161428494Y-132648537D01*
X161525185Y-132569185D01*
X161604537Y-132472494D01*
X161663502Y-132362180D01*
X161699812Y-132242482D01*
X161712072Y-132118000D01*
X161712072Y-130518000D01*
X161699812Y-130393518D01*
X161663502Y-130273820D01*
X161604537Y-130163506D01*
X161525185Y-130066815D01*
X161428494Y-129987463D01*
X161318180Y-129928498D01*
X161198482Y-129892188D01*
X161074000Y-129879928D01*
X159474000Y-129879928D01*
X159349518Y-129892188D01*
X159229820Y-129928498D01*
X159119506Y-129987463D01*
X159022815Y-130066815D01*
X158943463Y-130163506D01*
X158884498Y-130273820D01*
X158848188Y-130393518D01*
X158835928Y-130518000D01*
X153060000Y-130518000D01*
X153060000Y-126660565D01*
X155780000Y-126660565D01*
X155780000Y-126995435D01*
X155845330Y-127323872D01*
X155973479Y-127633252D01*
X156159523Y-127911687D01*
X156396313Y-128148477D01*
X156674748Y-128334521D01*
X156984128Y-128462670D01*
X157312565Y-128528000D01*
X157647435Y-128528000D01*
X157975872Y-128462670D01*
X158285252Y-128334521D01*
X158563687Y-128148477D01*
X158800477Y-127911687D01*
X158986521Y-127633252D01*
X159114670Y-127323872D01*
X159180000Y-126995435D01*
X159180000Y-126660565D01*
X165940000Y-126660565D01*
X165940000Y-126995435D01*
X166005330Y-127323872D01*
X166133479Y-127633252D01*
X166319523Y-127911687D01*
X166556313Y-128148477D01*
X166834748Y-128334521D01*
X167144128Y-128462670D01*
X167472565Y-128528000D01*
X167807435Y-128528000D01*
X168135872Y-128462670D01*
X168445252Y-128334521D01*
X168723687Y-128148477D01*
X168960477Y-127911687D01*
X169146521Y-127633252D01*
X169274670Y-127323872D01*
X169340000Y-126995435D01*
X169340000Y-126660565D01*
X169334033Y-126630565D01*
X176100000Y-126630565D01*
X176100000Y-126965435D01*
X176165330Y-127293872D01*
X176293479Y-127603252D01*
X176479523Y-127881687D01*
X176716313Y-128118477D01*
X176994748Y-128304521D01*
X177304128Y-128432670D01*
X177632565Y-128498000D01*
X177967435Y-128498000D01*
X178295872Y-128432670D01*
X178605252Y-128304521D01*
X178883687Y-128118477D01*
X179120477Y-127881687D01*
X179306521Y-127603252D01*
X179434670Y-127293872D01*
X179500000Y-126965435D01*
X179500000Y-126630565D01*
X179434670Y-126302128D01*
X179306521Y-125992748D01*
X179120477Y-125714313D01*
X178883687Y-125477523D01*
X178605252Y-125291479D01*
X178504860Y-125249895D01*
X178765000Y-125251072D01*
X178889482Y-125238812D01*
X179009180Y-125202502D01*
X179119494Y-125143537D01*
X179216185Y-125064185D01*
X179295537Y-124967494D01*
X179354502Y-124857180D01*
X179390812Y-124737482D01*
X179403072Y-124613000D01*
X179400000Y-123983750D01*
X179241250Y-123825000D01*
X177927000Y-123825000D01*
X177927000Y-123845000D01*
X177673000Y-123845000D01*
X177673000Y-123825000D01*
X176358750Y-123825000D01*
X176200000Y-123983750D01*
X176196928Y-124613000D01*
X176209188Y-124737482D01*
X176245498Y-124857180D01*
X176304463Y-124967494D01*
X176383815Y-125064185D01*
X176480506Y-125143537D01*
X176590820Y-125202502D01*
X176710518Y-125238812D01*
X176835000Y-125251072D01*
X177095140Y-125249895D01*
X176994748Y-125291479D01*
X176716313Y-125477523D01*
X176479523Y-125714313D01*
X176293479Y-125992748D01*
X176165330Y-126302128D01*
X176100000Y-126630565D01*
X169334033Y-126630565D01*
X169274670Y-126332128D01*
X169146521Y-126022748D01*
X168960477Y-125744313D01*
X168723687Y-125507523D01*
X168445252Y-125321479D01*
X168344860Y-125279895D01*
X168605000Y-125281072D01*
X168729482Y-125268812D01*
X168849180Y-125232502D01*
X168959494Y-125173537D01*
X169056185Y-125094185D01*
X169135537Y-124997494D01*
X169194502Y-124887180D01*
X169230812Y-124767482D01*
X169243072Y-124643000D01*
X169240000Y-124013750D01*
X169081250Y-123855000D01*
X167767000Y-123855000D01*
X167767000Y-123875000D01*
X167513000Y-123875000D01*
X167513000Y-123855000D01*
X166198750Y-123855000D01*
X166040000Y-124013750D01*
X166036928Y-124643000D01*
X166049188Y-124767482D01*
X166085498Y-124887180D01*
X166144463Y-124997494D01*
X166223815Y-125094185D01*
X166320506Y-125173537D01*
X166430820Y-125232502D01*
X166550518Y-125268812D01*
X166675000Y-125281072D01*
X166935140Y-125279895D01*
X166834748Y-125321479D01*
X166556313Y-125507523D01*
X166319523Y-125744313D01*
X166133479Y-126022748D01*
X166005330Y-126332128D01*
X165940000Y-126660565D01*
X159180000Y-126660565D01*
X159114670Y-126332128D01*
X158986521Y-126022748D01*
X158800477Y-125744313D01*
X158563687Y-125507523D01*
X158285252Y-125321479D01*
X158184860Y-125279895D01*
X158445000Y-125281072D01*
X158569482Y-125268812D01*
X158689180Y-125232502D01*
X158799494Y-125173537D01*
X158896185Y-125094185D01*
X158975537Y-124997494D01*
X159034502Y-124887180D01*
X159070812Y-124767482D01*
X159083072Y-124643000D01*
X159082313Y-124487599D01*
X159121615Y-124553131D01*
X159310586Y-124761519D01*
X159536580Y-124929037D01*
X159790913Y-125049246D01*
X159924961Y-125089904D01*
X160147000Y-124967915D01*
X160147000Y-123825000D01*
X160401000Y-123825000D01*
X160401000Y-124967915D01*
X160623039Y-125089904D01*
X160757087Y-125049246D01*
X161011420Y-124929037D01*
X161237414Y-124761519D01*
X161426385Y-124553131D01*
X161571070Y-124311881D01*
X161665909Y-124047040D01*
X161544624Y-123825000D01*
X160401000Y-123825000D01*
X160147000Y-123825000D01*
X159003376Y-123825000D01*
X158963766Y-123897516D01*
X158921250Y-123855000D01*
X157607000Y-123855000D01*
X157607000Y-123875000D01*
X157353000Y-123875000D01*
X157353000Y-123855000D01*
X156038750Y-123855000D01*
X155880000Y-124013750D01*
X155876928Y-124643000D01*
X155889188Y-124767482D01*
X155925498Y-124887180D01*
X155984463Y-124997494D01*
X156063815Y-125094185D01*
X156160506Y-125173537D01*
X156270820Y-125232502D01*
X156390518Y-125268812D01*
X156515000Y-125281072D01*
X156775140Y-125279895D01*
X156674748Y-125321479D01*
X156396313Y-125507523D01*
X156159523Y-125744313D01*
X155973479Y-126022748D01*
X155845330Y-126332128D01*
X155780000Y-126660565D01*
X153060000Y-126660565D01*
X153060000Y-122813000D01*
X155876928Y-122813000D01*
X155880000Y-123442250D01*
X156038750Y-123601000D01*
X157353000Y-123601000D01*
X157353000Y-122336750D01*
X157607000Y-122336750D01*
X157607000Y-123601000D01*
X158921250Y-123601000D01*
X158984962Y-123537288D01*
X159003376Y-123571000D01*
X160147000Y-123571000D01*
X160147000Y-122428085D01*
X160401000Y-122428085D01*
X160401000Y-123571000D01*
X161544624Y-123571000D01*
X161665909Y-123348960D01*
X161571070Y-123084119D01*
X161426385Y-122842869D01*
X161399300Y-122813000D01*
X166036928Y-122813000D01*
X166040000Y-123442250D01*
X166198750Y-123601000D01*
X167513000Y-123601000D01*
X167513000Y-122336750D01*
X167767000Y-122336750D01*
X167767000Y-123601000D01*
X169081250Y-123601000D01*
X169240000Y-123442250D01*
X169243072Y-122813000D01*
X169240118Y-122783000D01*
X176196928Y-122783000D01*
X176200000Y-123412250D01*
X176358750Y-123571000D01*
X177673000Y-123571000D01*
X177673000Y-122306750D01*
X177927000Y-122306750D01*
X177927000Y-123571000D01*
X179241250Y-123571000D01*
X179400000Y-123412250D01*
X179403072Y-122783000D01*
X179390812Y-122658518D01*
X179354502Y-122538820D01*
X179295537Y-122428506D01*
X179216185Y-122331815D01*
X179119494Y-122252463D01*
X179009180Y-122193498D01*
X178889482Y-122157188D01*
X178765000Y-122144928D01*
X178085750Y-122148000D01*
X177927000Y-122306750D01*
X177673000Y-122306750D01*
X177514250Y-122148000D01*
X176835000Y-122144928D01*
X176710518Y-122157188D01*
X176590820Y-122193498D01*
X176480506Y-122252463D01*
X176383815Y-122331815D01*
X176304463Y-122428506D01*
X176245498Y-122538820D01*
X176209188Y-122658518D01*
X176196928Y-122783000D01*
X169240118Y-122783000D01*
X169230812Y-122688518D01*
X169194502Y-122568820D01*
X169135537Y-122458506D01*
X169056185Y-122361815D01*
X168959494Y-122282463D01*
X168849180Y-122223498D01*
X168729482Y-122187188D01*
X168605000Y-122174928D01*
X167925750Y-122178000D01*
X167767000Y-122336750D01*
X167513000Y-122336750D01*
X167354250Y-122178000D01*
X166675000Y-122174928D01*
X166550518Y-122187188D01*
X166430820Y-122223498D01*
X166320506Y-122282463D01*
X166223815Y-122361815D01*
X166144463Y-122458506D01*
X166085498Y-122568820D01*
X166049188Y-122688518D01*
X166036928Y-122813000D01*
X161399300Y-122813000D01*
X161237414Y-122634481D01*
X161011420Y-122466963D01*
X160757087Y-122346754D01*
X160623039Y-122306096D01*
X160401000Y-122428085D01*
X160147000Y-122428085D01*
X159924961Y-122306096D01*
X159790913Y-122346754D01*
X159536580Y-122466963D01*
X159310586Y-122634481D01*
X159121615Y-122842869D01*
X159082609Y-122907909D01*
X159083072Y-122813000D01*
X159070812Y-122688518D01*
X159034502Y-122568820D01*
X158975537Y-122458506D01*
X158896185Y-122361815D01*
X158799494Y-122282463D01*
X158689180Y-122223498D01*
X158569482Y-122187188D01*
X158445000Y-122174928D01*
X157765750Y-122178000D01*
X157607000Y-122336750D01*
X157353000Y-122336750D01*
X157194250Y-122178000D01*
X156515000Y-122174928D01*
X156390518Y-122187188D01*
X156270820Y-122223498D01*
X156160506Y-122282463D01*
X156063815Y-122361815D01*
X155984463Y-122458506D01*
X155925498Y-122568820D01*
X155889188Y-122688518D01*
X155876928Y-122813000D01*
X153060000Y-122813000D01*
X153060000Y-120198565D01*
X155780000Y-120198565D01*
X155780000Y-120533435D01*
X155845330Y-120861872D01*
X155973479Y-121171252D01*
X156159523Y-121449687D01*
X156396313Y-121686477D01*
X156674748Y-121872521D01*
X156984128Y-122000670D01*
X157312565Y-122066000D01*
X157647435Y-122066000D01*
X157975872Y-122000670D01*
X158285252Y-121872521D01*
X158563687Y-121686477D01*
X158800477Y-121449687D01*
X158986521Y-121171252D01*
X159114670Y-120861872D01*
X159180000Y-120533435D01*
X159180000Y-120198565D01*
X165940000Y-120198565D01*
X165940000Y-120533435D01*
X166005330Y-120861872D01*
X166133479Y-121171252D01*
X166319523Y-121449687D01*
X166556313Y-121686477D01*
X166834748Y-121872521D01*
X167144128Y-122000670D01*
X167472565Y-122066000D01*
X167807435Y-122066000D01*
X168135872Y-122000670D01*
X168445252Y-121872521D01*
X168723687Y-121686477D01*
X168960477Y-121449687D01*
X169146521Y-121171252D01*
X169274670Y-120861872D01*
X169340000Y-120533435D01*
X169340000Y-120198565D01*
X176100000Y-120198565D01*
X176100000Y-120533435D01*
X176165330Y-120861872D01*
X176293479Y-121171252D01*
X176479523Y-121449687D01*
X176716313Y-121686477D01*
X176994748Y-121872521D01*
X177304128Y-122000670D01*
X177632565Y-122066000D01*
X177967435Y-122066000D01*
X178295872Y-122000670D01*
X178605252Y-121872521D01*
X178883687Y-121686477D01*
X179120477Y-121449687D01*
X179306521Y-121171252D01*
X179434670Y-120861872D01*
X179500000Y-120533435D01*
X179500000Y-120198565D01*
X179434670Y-119870128D01*
X179306521Y-119560748D01*
X179120477Y-119282313D01*
X178883687Y-119045523D01*
X178605252Y-118859479D01*
X178295872Y-118731330D01*
X177967435Y-118666000D01*
X177632565Y-118666000D01*
X177304128Y-118731330D01*
X176994748Y-118859479D01*
X176716313Y-119045523D01*
X176479523Y-119282313D01*
X176293479Y-119560748D01*
X176165330Y-119870128D01*
X176100000Y-120198565D01*
X169340000Y-120198565D01*
X169274670Y-119870128D01*
X169146521Y-119560748D01*
X168960477Y-119282313D01*
X168723687Y-119045523D01*
X168445252Y-118859479D01*
X168135872Y-118731330D01*
X167807435Y-118666000D01*
X167472565Y-118666000D01*
X167144128Y-118731330D01*
X166834748Y-118859479D01*
X166556313Y-119045523D01*
X166319523Y-119282313D01*
X166133479Y-119560748D01*
X166005330Y-119870128D01*
X165940000Y-120198565D01*
X159180000Y-120198565D01*
X159114670Y-119870128D01*
X158986521Y-119560748D01*
X158800477Y-119282313D01*
X158563687Y-119045523D01*
X158285252Y-118859479D01*
X157975872Y-118731330D01*
X157647435Y-118666000D01*
X157312565Y-118666000D01*
X156984128Y-118731330D01*
X156674748Y-118859479D01*
X156396313Y-119045523D01*
X156159523Y-119282313D01*
X155973479Y-119560748D01*
X155845330Y-119870128D01*
X155780000Y-120198565D01*
X153060000Y-120198565D01*
X153060000Y-115786000D01*
X158835928Y-115786000D01*
X158835928Y-117386000D01*
X158848188Y-117510482D01*
X158884498Y-117630180D01*
X158943463Y-117740494D01*
X159022815Y-117837185D01*
X159119506Y-117916537D01*
X159229820Y-117975502D01*
X159349518Y-118011812D01*
X159474000Y-118024072D01*
X161074000Y-118024072D01*
X161198482Y-118011812D01*
X161318180Y-117975502D01*
X161428494Y-117916537D01*
X161525185Y-117837185D01*
X161604537Y-117740494D01*
X161663502Y-117630180D01*
X161699812Y-117510482D01*
X161712072Y-117386000D01*
X161712072Y-115786000D01*
X161699812Y-115661518D01*
X161663502Y-115541820D01*
X161604537Y-115431506D01*
X161525185Y-115334815D01*
X161428494Y-115255463D01*
X161318180Y-115196498D01*
X161198482Y-115160188D01*
X161074000Y-115147928D01*
X159474000Y-115147928D01*
X159349518Y-115160188D01*
X159229820Y-115196498D01*
X159119506Y-115255463D01*
X159022815Y-115334815D01*
X158943463Y-115431506D01*
X158884498Y-115541820D01*
X158848188Y-115661518D01*
X158835928Y-115786000D01*
X153060000Y-115786000D01*
X153060000Y-111898565D01*
X155780000Y-111898565D01*
X155780000Y-112233435D01*
X155845330Y-112561872D01*
X155973479Y-112871252D01*
X156159523Y-113149687D01*
X156396313Y-113386477D01*
X156674748Y-113572521D01*
X156984128Y-113700670D01*
X157312565Y-113766000D01*
X157647435Y-113766000D01*
X157975872Y-113700670D01*
X158285252Y-113572521D01*
X158563687Y-113386477D01*
X158800477Y-113149687D01*
X158986521Y-112871252D01*
X159114670Y-112561872D01*
X159180000Y-112233435D01*
X159180000Y-111898565D01*
X165940000Y-111898565D01*
X165940000Y-112233435D01*
X166005330Y-112561872D01*
X166133479Y-112871252D01*
X166319523Y-113149687D01*
X166556313Y-113386477D01*
X166834748Y-113572521D01*
X167144128Y-113700670D01*
X167472565Y-113766000D01*
X167807435Y-113766000D01*
X168135872Y-113700670D01*
X168445252Y-113572521D01*
X168723687Y-113386477D01*
X168960477Y-113149687D01*
X169146521Y-112871252D01*
X169274670Y-112561872D01*
X169340000Y-112233435D01*
X169340000Y-111898565D01*
X176100000Y-111898565D01*
X176100000Y-112233435D01*
X176165330Y-112561872D01*
X176293479Y-112871252D01*
X176479523Y-113149687D01*
X176716313Y-113386477D01*
X176994748Y-113572521D01*
X177304128Y-113700670D01*
X177632565Y-113766000D01*
X177967435Y-113766000D01*
X178295872Y-113700670D01*
X178605252Y-113572521D01*
X178883687Y-113386477D01*
X179120477Y-113149687D01*
X179306521Y-112871252D01*
X179434670Y-112561872D01*
X179500000Y-112233435D01*
X179500000Y-111898565D01*
X179434670Y-111570128D01*
X179306521Y-111260748D01*
X179120477Y-110982313D01*
X178883687Y-110745523D01*
X178605252Y-110559479D01*
X178504860Y-110517895D01*
X178765000Y-110519072D01*
X178889482Y-110506812D01*
X179009180Y-110470502D01*
X179119494Y-110411537D01*
X179216185Y-110332185D01*
X179295537Y-110235494D01*
X179354502Y-110125180D01*
X179390812Y-110005482D01*
X179403072Y-109881000D01*
X179400000Y-109251750D01*
X179241250Y-109093000D01*
X177927000Y-109093000D01*
X177927000Y-109113000D01*
X177673000Y-109113000D01*
X177673000Y-109093000D01*
X176358750Y-109093000D01*
X176200000Y-109251750D01*
X176196928Y-109881000D01*
X176209188Y-110005482D01*
X176245498Y-110125180D01*
X176304463Y-110235494D01*
X176383815Y-110332185D01*
X176480506Y-110411537D01*
X176590820Y-110470502D01*
X176710518Y-110506812D01*
X176835000Y-110519072D01*
X177095140Y-110517895D01*
X176994748Y-110559479D01*
X176716313Y-110745523D01*
X176479523Y-110982313D01*
X176293479Y-111260748D01*
X176165330Y-111570128D01*
X176100000Y-111898565D01*
X169340000Y-111898565D01*
X169274670Y-111570128D01*
X169146521Y-111260748D01*
X168960477Y-110982313D01*
X168723687Y-110745523D01*
X168445252Y-110559479D01*
X168344860Y-110517895D01*
X168605000Y-110519072D01*
X168729482Y-110506812D01*
X168849180Y-110470502D01*
X168959494Y-110411537D01*
X169056185Y-110332185D01*
X169135537Y-110235494D01*
X169194502Y-110125180D01*
X169230812Y-110005482D01*
X169243072Y-109881000D01*
X169240000Y-109251750D01*
X169081250Y-109093000D01*
X167767000Y-109093000D01*
X167767000Y-109113000D01*
X167513000Y-109113000D01*
X167513000Y-109093000D01*
X166198750Y-109093000D01*
X166040000Y-109251750D01*
X166036928Y-109881000D01*
X166049188Y-110005482D01*
X166085498Y-110125180D01*
X166144463Y-110235494D01*
X166223815Y-110332185D01*
X166320506Y-110411537D01*
X166430820Y-110470502D01*
X166550518Y-110506812D01*
X166675000Y-110519072D01*
X166935140Y-110517895D01*
X166834748Y-110559479D01*
X166556313Y-110745523D01*
X166319523Y-110982313D01*
X166133479Y-111260748D01*
X166005330Y-111570128D01*
X165940000Y-111898565D01*
X159180000Y-111898565D01*
X159114670Y-111570128D01*
X158986521Y-111260748D01*
X158800477Y-110982313D01*
X158563687Y-110745523D01*
X158285252Y-110559479D01*
X158184860Y-110517895D01*
X158445000Y-110519072D01*
X158569482Y-110506812D01*
X158689180Y-110470502D01*
X158799494Y-110411537D01*
X158896185Y-110332185D01*
X158975537Y-110235494D01*
X159034502Y-110125180D01*
X159070812Y-110005482D01*
X159083072Y-109881000D01*
X159082461Y-109755845D01*
X159121615Y-109821131D01*
X159310586Y-110029519D01*
X159536580Y-110197037D01*
X159790913Y-110317246D01*
X159924961Y-110357904D01*
X160147000Y-110235915D01*
X160147000Y-109093000D01*
X160401000Y-109093000D01*
X160401000Y-110235915D01*
X160623039Y-110357904D01*
X160757087Y-110317246D01*
X161011420Y-110197037D01*
X161237414Y-110029519D01*
X161426385Y-109821131D01*
X161571070Y-109579881D01*
X161665909Y-109315040D01*
X161544624Y-109093000D01*
X160401000Y-109093000D01*
X160147000Y-109093000D01*
X159003376Y-109093000D01*
X158974364Y-109146114D01*
X158921250Y-109093000D01*
X157607000Y-109093000D01*
X157607000Y-109113000D01*
X157353000Y-109113000D01*
X157353000Y-109093000D01*
X156038750Y-109093000D01*
X155880000Y-109251750D01*
X155876928Y-109881000D01*
X155889188Y-110005482D01*
X155925498Y-110125180D01*
X155984463Y-110235494D01*
X156063815Y-110332185D01*
X156160506Y-110411537D01*
X156270820Y-110470502D01*
X156390518Y-110506812D01*
X156515000Y-110519072D01*
X156775140Y-110517895D01*
X156674748Y-110559479D01*
X156396313Y-110745523D01*
X156159523Y-110982313D01*
X155973479Y-111260748D01*
X155845330Y-111570128D01*
X155780000Y-111898565D01*
X153060000Y-111898565D01*
X153060000Y-108051000D01*
X155876928Y-108051000D01*
X155880000Y-108680250D01*
X156038750Y-108839000D01*
X157353000Y-108839000D01*
X157353000Y-107574750D01*
X157607000Y-107574750D01*
X157607000Y-108839000D01*
X158921250Y-108839000D01*
X158974364Y-108785886D01*
X159003376Y-108839000D01*
X160147000Y-108839000D01*
X160147000Y-107696085D01*
X160401000Y-107696085D01*
X160401000Y-108839000D01*
X161544624Y-108839000D01*
X161665909Y-108616960D01*
X161571070Y-108352119D01*
X161426385Y-108110869D01*
X161372095Y-108051000D01*
X166036928Y-108051000D01*
X166040000Y-108680250D01*
X166198750Y-108839000D01*
X167513000Y-108839000D01*
X167513000Y-107574750D01*
X167767000Y-107574750D01*
X167767000Y-108839000D01*
X169081250Y-108839000D01*
X169240000Y-108680250D01*
X169243072Y-108051000D01*
X176196928Y-108051000D01*
X176200000Y-108680250D01*
X176358750Y-108839000D01*
X177673000Y-108839000D01*
X177673000Y-107574750D01*
X177927000Y-107574750D01*
X177927000Y-108839000D01*
X179241250Y-108839000D01*
X179400000Y-108680250D01*
X179403072Y-108051000D01*
X179390812Y-107926518D01*
X179354502Y-107806820D01*
X179295537Y-107696506D01*
X179216185Y-107599815D01*
X179119494Y-107520463D01*
X179009180Y-107461498D01*
X178889482Y-107425188D01*
X178765000Y-107412928D01*
X178085750Y-107416000D01*
X177927000Y-107574750D01*
X177673000Y-107574750D01*
X177514250Y-107416000D01*
X176835000Y-107412928D01*
X176710518Y-107425188D01*
X176590820Y-107461498D01*
X176480506Y-107520463D01*
X176383815Y-107599815D01*
X176304463Y-107696506D01*
X176245498Y-107806820D01*
X176209188Y-107926518D01*
X176196928Y-108051000D01*
X169243072Y-108051000D01*
X169230812Y-107926518D01*
X169194502Y-107806820D01*
X169135537Y-107696506D01*
X169056185Y-107599815D01*
X168959494Y-107520463D01*
X168849180Y-107461498D01*
X168729482Y-107425188D01*
X168605000Y-107412928D01*
X167925750Y-107416000D01*
X167767000Y-107574750D01*
X167513000Y-107574750D01*
X167354250Y-107416000D01*
X166675000Y-107412928D01*
X166550518Y-107425188D01*
X166430820Y-107461498D01*
X166320506Y-107520463D01*
X166223815Y-107599815D01*
X166144463Y-107696506D01*
X166085498Y-107806820D01*
X166049188Y-107926518D01*
X166036928Y-108051000D01*
X161372095Y-108051000D01*
X161237414Y-107902481D01*
X161011420Y-107734963D01*
X160757087Y-107614754D01*
X160623039Y-107574096D01*
X160401000Y-107696085D01*
X160147000Y-107696085D01*
X159924961Y-107574096D01*
X159790913Y-107614754D01*
X159536580Y-107734963D01*
X159310586Y-107902481D01*
X159121615Y-108110869D01*
X159082461Y-108176155D01*
X159083072Y-108051000D01*
X159070812Y-107926518D01*
X159034502Y-107806820D01*
X158975537Y-107696506D01*
X158896185Y-107599815D01*
X158799494Y-107520463D01*
X158689180Y-107461498D01*
X158569482Y-107425188D01*
X158445000Y-107412928D01*
X157765750Y-107416000D01*
X157607000Y-107574750D01*
X157353000Y-107574750D01*
X157194250Y-107416000D01*
X156515000Y-107412928D01*
X156390518Y-107425188D01*
X156270820Y-107461498D01*
X156160506Y-107520463D01*
X156063815Y-107599815D01*
X155984463Y-107696506D01*
X155925498Y-107806820D01*
X155889188Y-107926518D01*
X155876928Y-108051000D01*
X153060000Y-108051000D01*
X153060000Y-105466565D01*
X155780000Y-105466565D01*
X155780000Y-105801435D01*
X155845330Y-106129872D01*
X155973479Y-106439252D01*
X156159523Y-106717687D01*
X156396313Y-106954477D01*
X156674748Y-107140521D01*
X156984128Y-107268670D01*
X157312565Y-107334000D01*
X157647435Y-107334000D01*
X157975872Y-107268670D01*
X158285252Y-107140521D01*
X158563687Y-106954477D01*
X158800477Y-106717687D01*
X158986521Y-106439252D01*
X159114670Y-106129872D01*
X159180000Y-105801435D01*
X159180000Y-105466565D01*
X165940000Y-105466565D01*
X165940000Y-105801435D01*
X166005330Y-106129872D01*
X166133479Y-106439252D01*
X166319523Y-106717687D01*
X166556313Y-106954477D01*
X166834748Y-107140521D01*
X167144128Y-107268670D01*
X167472565Y-107334000D01*
X167807435Y-107334000D01*
X168135872Y-107268670D01*
X168445252Y-107140521D01*
X168723687Y-106954477D01*
X168960477Y-106717687D01*
X169146521Y-106439252D01*
X169274670Y-106129872D01*
X169340000Y-105801435D01*
X169340000Y-105466565D01*
X176100000Y-105466565D01*
X176100000Y-105801435D01*
X176165330Y-106129872D01*
X176293479Y-106439252D01*
X176479523Y-106717687D01*
X176716313Y-106954477D01*
X176994748Y-107140521D01*
X177304128Y-107268670D01*
X177632565Y-107334000D01*
X177967435Y-107334000D01*
X178295872Y-107268670D01*
X178605252Y-107140521D01*
X178883687Y-106954477D01*
X179120477Y-106717687D01*
X179306521Y-106439252D01*
X179434670Y-106129872D01*
X179500000Y-105801435D01*
X179500000Y-105466565D01*
X179434670Y-105138128D01*
X179306521Y-104828748D01*
X179120477Y-104550313D01*
X178883687Y-104313523D01*
X178605252Y-104127479D01*
X178295872Y-103999330D01*
X177967435Y-103934000D01*
X177632565Y-103934000D01*
X177304128Y-103999330D01*
X176994748Y-104127479D01*
X176716313Y-104313523D01*
X176479523Y-104550313D01*
X176293479Y-104828748D01*
X176165330Y-105138128D01*
X176100000Y-105466565D01*
X169340000Y-105466565D01*
X169274670Y-105138128D01*
X169146521Y-104828748D01*
X168960477Y-104550313D01*
X168723687Y-104313523D01*
X168445252Y-104127479D01*
X168135872Y-103999330D01*
X167807435Y-103934000D01*
X167472565Y-103934000D01*
X167144128Y-103999330D01*
X166834748Y-104127479D01*
X166556313Y-104313523D01*
X166319523Y-104550313D01*
X166133479Y-104828748D01*
X166005330Y-105138128D01*
X165940000Y-105466565D01*
X159180000Y-105466565D01*
X159114670Y-105138128D01*
X158986521Y-104828748D01*
X158800477Y-104550313D01*
X158563687Y-104313523D01*
X158285252Y-104127479D01*
X157975872Y-103999330D01*
X157647435Y-103934000D01*
X157312565Y-103934000D01*
X156984128Y-103999330D01*
X156674748Y-104127479D01*
X156396313Y-104313523D01*
X156159523Y-104550313D01*
X155973479Y-104828748D01*
X155845330Y-105138128D01*
X155780000Y-105466565D01*
X153060000Y-105466565D01*
X153060000Y-101054000D01*
X158835928Y-101054000D01*
X158835928Y-102654000D01*
X158848188Y-102778482D01*
X158884498Y-102898180D01*
X158943463Y-103008494D01*
X159022815Y-103105185D01*
X159119506Y-103184537D01*
X159229820Y-103243502D01*
X159349518Y-103279812D01*
X159474000Y-103292072D01*
X161074000Y-103292072D01*
X161198482Y-103279812D01*
X161318180Y-103243502D01*
X161428494Y-103184537D01*
X161525185Y-103105185D01*
X161604537Y-103008494D01*
X161663502Y-102898180D01*
X161699812Y-102778482D01*
X161712072Y-102654000D01*
X161712072Y-101054000D01*
X161699812Y-100929518D01*
X161663502Y-100809820D01*
X161604537Y-100699506D01*
X161525185Y-100602815D01*
X161428494Y-100523463D01*
X161318180Y-100464498D01*
X161198482Y-100428188D01*
X161074000Y-100415928D01*
X159474000Y-100415928D01*
X159349518Y-100428188D01*
X159229820Y-100464498D01*
X159119506Y-100523463D01*
X159022815Y-100602815D01*
X158943463Y-100699506D01*
X158884498Y-100809820D01*
X158848188Y-100929518D01*
X158835928Y-101054000D01*
X153060000Y-101054000D01*
X153060000Y-97166565D01*
X155780000Y-97166565D01*
X155780000Y-97501435D01*
X155845330Y-97829872D01*
X155973479Y-98139252D01*
X156159523Y-98417687D01*
X156396313Y-98654477D01*
X156674748Y-98840521D01*
X156984128Y-98968670D01*
X157312565Y-99034000D01*
X157647435Y-99034000D01*
X157975872Y-98968670D01*
X158285252Y-98840521D01*
X158563687Y-98654477D01*
X158800477Y-98417687D01*
X158986521Y-98139252D01*
X159114670Y-97829872D01*
X159180000Y-97501435D01*
X159180000Y-97166565D01*
X165940000Y-97166565D01*
X165940000Y-97501435D01*
X166005330Y-97829872D01*
X166133479Y-98139252D01*
X166319523Y-98417687D01*
X166556313Y-98654477D01*
X166834748Y-98840521D01*
X167144128Y-98968670D01*
X167472565Y-99034000D01*
X167807435Y-99034000D01*
X168135872Y-98968670D01*
X168445252Y-98840521D01*
X168723687Y-98654477D01*
X168960477Y-98417687D01*
X169146521Y-98139252D01*
X169274670Y-97829872D01*
X169340000Y-97501435D01*
X169340000Y-97166565D01*
X176100000Y-97166565D01*
X176100000Y-97501435D01*
X176165330Y-97829872D01*
X176293479Y-98139252D01*
X176479523Y-98417687D01*
X176716313Y-98654477D01*
X176994748Y-98840521D01*
X177304128Y-98968670D01*
X177632565Y-99034000D01*
X177967435Y-99034000D01*
X178295872Y-98968670D01*
X178605252Y-98840521D01*
X178883687Y-98654477D01*
X179120477Y-98417687D01*
X179306521Y-98139252D01*
X179434670Y-97829872D01*
X179500000Y-97501435D01*
X179500000Y-97166565D01*
X179434670Y-96838128D01*
X179306521Y-96528748D01*
X179120477Y-96250313D01*
X178883687Y-96013523D01*
X178605252Y-95827479D01*
X178504860Y-95785895D01*
X178765000Y-95787072D01*
X178889482Y-95774812D01*
X179009180Y-95738502D01*
X179119494Y-95679537D01*
X179216185Y-95600185D01*
X179295537Y-95503494D01*
X179354502Y-95393180D01*
X179390812Y-95273482D01*
X179403072Y-95149000D01*
X179400000Y-94519750D01*
X179241250Y-94361000D01*
X177927000Y-94361000D01*
X177927000Y-94381000D01*
X177673000Y-94381000D01*
X177673000Y-94361000D01*
X176358750Y-94361000D01*
X176200000Y-94519750D01*
X176196928Y-95149000D01*
X176209188Y-95273482D01*
X176245498Y-95393180D01*
X176304463Y-95503494D01*
X176383815Y-95600185D01*
X176480506Y-95679537D01*
X176590820Y-95738502D01*
X176710518Y-95774812D01*
X176835000Y-95787072D01*
X177095140Y-95785895D01*
X176994748Y-95827479D01*
X176716313Y-96013523D01*
X176479523Y-96250313D01*
X176293479Y-96528748D01*
X176165330Y-96838128D01*
X176100000Y-97166565D01*
X169340000Y-97166565D01*
X169274670Y-96838128D01*
X169146521Y-96528748D01*
X168960477Y-96250313D01*
X168723687Y-96013523D01*
X168445252Y-95827479D01*
X168344860Y-95785895D01*
X168605000Y-95787072D01*
X168729482Y-95774812D01*
X168849180Y-95738502D01*
X168959494Y-95679537D01*
X169056185Y-95600185D01*
X169135537Y-95503494D01*
X169194502Y-95393180D01*
X169230812Y-95273482D01*
X169243072Y-95149000D01*
X169240000Y-94519750D01*
X169081250Y-94361000D01*
X167767000Y-94361000D01*
X167767000Y-94381000D01*
X167513000Y-94381000D01*
X167513000Y-94361000D01*
X166198750Y-94361000D01*
X166040000Y-94519750D01*
X166036928Y-95149000D01*
X166049188Y-95273482D01*
X166085498Y-95393180D01*
X166144463Y-95503494D01*
X166223815Y-95600185D01*
X166320506Y-95679537D01*
X166430820Y-95738502D01*
X166550518Y-95774812D01*
X166675000Y-95787072D01*
X166935140Y-95785895D01*
X166834748Y-95827479D01*
X166556313Y-96013523D01*
X166319523Y-96250313D01*
X166133479Y-96528748D01*
X166005330Y-96838128D01*
X165940000Y-97166565D01*
X159180000Y-97166565D01*
X159114670Y-96838128D01*
X158986521Y-96528748D01*
X158800477Y-96250313D01*
X158563687Y-96013523D01*
X158285252Y-95827479D01*
X158184860Y-95785895D01*
X158445000Y-95787072D01*
X158569482Y-95774812D01*
X158689180Y-95738502D01*
X158799494Y-95679537D01*
X158896185Y-95600185D01*
X158975537Y-95503494D01*
X159034502Y-95393180D01*
X159070812Y-95273482D01*
X159083072Y-95149000D01*
X159082461Y-95023845D01*
X159121615Y-95089131D01*
X159310586Y-95297519D01*
X159536580Y-95465037D01*
X159790913Y-95585246D01*
X159924961Y-95625904D01*
X160147000Y-95503915D01*
X160147000Y-94361000D01*
X160401000Y-94361000D01*
X160401000Y-95503915D01*
X160623039Y-95625904D01*
X160757087Y-95585246D01*
X161011420Y-95465037D01*
X161237414Y-95297519D01*
X161426385Y-95089131D01*
X161571070Y-94847881D01*
X161665909Y-94583040D01*
X161544624Y-94361000D01*
X160401000Y-94361000D01*
X160147000Y-94361000D01*
X159003376Y-94361000D01*
X158974364Y-94414114D01*
X158921250Y-94361000D01*
X157607000Y-94361000D01*
X157607000Y-94381000D01*
X157353000Y-94381000D01*
X157353000Y-94361000D01*
X156038750Y-94361000D01*
X155880000Y-94519750D01*
X155876928Y-95149000D01*
X155889188Y-95273482D01*
X155925498Y-95393180D01*
X155984463Y-95503494D01*
X156063815Y-95600185D01*
X156160506Y-95679537D01*
X156270820Y-95738502D01*
X156390518Y-95774812D01*
X156515000Y-95787072D01*
X156775140Y-95785895D01*
X156674748Y-95827479D01*
X156396313Y-96013523D01*
X156159523Y-96250313D01*
X155973479Y-96528748D01*
X155845330Y-96838128D01*
X155780000Y-97166565D01*
X153060000Y-97166565D01*
X153060000Y-93319000D01*
X155876928Y-93319000D01*
X155880000Y-93948250D01*
X156038750Y-94107000D01*
X157353000Y-94107000D01*
X157353000Y-92842750D01*
X157607000Y-92842750D01*
X157607000Y-94107000D01*
X158921250Y-94107000D01*
X158974364Y-94053886D01*
X159003376Y-94107000D01*
X160147000Y-94107000D01*
X160147000Y-92964085D01*
X160401000Y-92964085D01*
X160401000Y-94107000D01*
X161544624Y-94107000D01*
X161665909Y-93884960D01*
X161571070Y-93620119D01*
X161426385Y-93378869D01*
X161372095Y-93319000D01*
X166036928Y-93319000D01*
X166040000Y-93948250D01*
X166198750Y-94107000D01*
X167513000Y-94107000D01*
X167513000Y-92842750D01*
X167767000Y-92842750D01*
X167767000Y-94107000D01*
X169081250Y-94107000D01*
X169240000Y-93948250D01*
X169243072Y-93319000D01*
X176196928Y-93319000D01*
X176200000Y-93948250D01*
X176358750Y-94107000D01*
X177673000Y-94107000D01*
X177673000Y-92842750D01*
X177927000Y-92842750D01*
X177927000Y-94107000D01*
X179241250Y-94107000D01*
X179400000Y-93948250D01*
X179403072Y-93319000D01*
X179390812Y-93194518D01*
X179354502Y-93074820D01*
X179295537Y-92964506D01*
X179216185Y-92867815D01*
X179119494Y-92788463D01*
X179009180Y-92729498D01*
X178889482Y-92693188D01*
X178765000Y-92680928D01*
X178085750Y-92684000D01*
X177927000Y-92842750D01*
X177673000Y-92842750D01*
X177514250Y-92684000D01*
X176835000Y-92680928D01*
X176710518Y-92693188D01*
X176590820Y-92729498D01*
X176480506Y-92788463D01*
X176383815Y-92867815D01*
X176304463Y-92964506D01*
X176245498Y-93074820D01*
X176209188Y-93194518D01*
X176196928Y-93319000D01*
X169243072Y-93319000D01*
X169230812Y-93194518D01*
X169194502Y-93074820D01*
X169135537Y-92964506D01*
X169056185Y-92867815D01*
X168959494Y-92788463D01*
X168849180Y-92729498D01*
X168729482Y-92693188D01*
X168605000Y-92680928D01*
X167925750Y-92684000D01*
X167767000Y-92842750D01*
X167513000Y-92842750D01*
X167354250Y-92684000D01*
X166675000Y-92680928D01*
X166550518Y-92693188D01*
X166430820Y-92729498D01*
X166320506Y-92788463D01*
X166223815Y-92867815D01*
X166144463Y-92964506D01*
X166085498Y-93074820D01*
X166049188Y-93194518D01*
X166036928Y-93319000D01*
X161372095Y-93319000D01*
X161237414Y-93170481D01*
X161011420Y-93002963D01*
X160757087Y-92882754D01*
X160623039Y-92842096D01*
X160401000Y-92964085D01*
X160147000Y-92964085D01*
X159924961Y-92842096D01*
X159790913Y-92882754D01*
X159536580Y-93002963D01*
X159310586Y-93170481D01*
X159121615Y-93378869D01*
X159082461Y-93444155D01*
X159083072Y-93319000D01*
X159070812Y-93194518D01*
X159034502Y-93074820D01*
X158975537Y-92964506D01*
X158896185Y-92867815D01*
X158799494Y-92788463D01*
X158689180Y-92729498D01*
X158569482Y-92693188D01*
X158445000Y-92680928D01*
X157765750Y-92684000D01*
X157607000Y-92842750D01*
X157353000Y-92842750D01*
X157194250Y-92684000D01*
X156515000Y-92680928D01*
X156390518Y-92693188D01*
X156270820Y-92729498D01*
X156160506Y-92788463D01*
X156063815Y-92867815D01*
X155984463Y-92964506D01*
X155925498Y-93074820D01*
X155889188Y-93194518D01*
X155876928Y-93319000D01*
X153060000Y-93319000D01*
X153060000Y-87737740D01*
X153455000Y-87737740D01*
X153455000Y-88030260D01*
X153512068Y-88317158D01*
X153624010Y-88587411D01*
X153786525Y-88830632D01*
X153993368Y-89037475D01*
X154236589Y-89199990D01*
X154506842Y-89311932D01*
X154793740Y-89369000D01*
X155086260Y-89369000D01*
X155373158Y-89311932D01*
X155643411Y-89199990D01*
X155886632Y-89037475D01*
X156093475Y-88830632D01*
X156210000Y-88656240D01*
X156326525Y-88830632D01*
X156533368Y-89037475D01*
X156776589Y-89199990D01*
X157046842Y-89311932D01*
X157333740Y-89369000D01*
X157626260Y-89369000D01*
X157913158Y-89311932D01*
X158183411Y-89199990D01*
X158426632Y-89037475D01*
X158633475Y-88830632D01*
X158795990Y-88587411D01*
X158907932Y-88317158D01*
X158915298Y-88280123D01*
X159727821Y-88280123D01*
X159837558Y-88602054D01*
X160007992Y-88896391D01*
X160232573Y-89151822D01*
X160502671Y-89358531D01*
X160807906Y-89508575D01*
X161020878Y-89573175D01*
X161290000Y-89455125D01*
X161290000Y-88011000D01*
X159845400Y-88011000D01*
X159727821Y-88280123D01*
X158915298Y-88280123D01*
X158965000Y-88030260D01*
X158965000Y-87737740D01*
X158915299Y-87487877D01*
X159727821Y-87487877D01*
X159845400Y-87757000D01*
X161290000Y-87757000D01*
X161290000Y-86312875D01*
X161544000Y-86312875D01*
X161544000Y-87757000D01*
X161564000Y-87757000D01*
X161564000Y-88011000D01*
X161544000Y-88011000D01*
X161544000Y-89455125D01*
X161813122Y-89573175D01*
X162026094Y-89508575D01*
X162331329Y-89358531D01*
X162601427Y-89151822D01*
X162826008Y-88896391D01*
X162996442Y-88602054D01*
X163060562Y-88413949D01*
X163181463Y-88705831D01*
X163371337Y-88989998D01*
X163613002Y-89231663D01*
X163897169Y-89421537D01*
X164212919Y-89552325D01*
X164548117Y-89619000D01*
X164889883Y-89619000D01*
X165225081Y-89552325D01*
X165540831Y-89421537D01*
X165824998Y-89231663D01*
X166066663Y-88989998D01*
X166256537Y-88705831D01*
X166387325Y-88390081D01*
X166454000Y-88054883D01*
X166454000Y-87713117D01*
X166387325Y-87377919D01*
X166256537Y-87062169D01*
X166066663Y-86778002D01*
X165824998Y-86536337D01*
X165540831Y-86346463D01*
X165225081Y-86215675D01*
X164889883Y-86149000D01*
X164548117Y-86149000D01*
X164212919Y-86215675D01*
X163897169Y-86346463D01*
X163613002Y-86536337D01*
X163371337Y-86778002D01*
X163181463Y-87062169D01*
X163060562Y-87354051D01*
X162996442Y-87165946D01*
X162826008Y-86871609D01*
X162601427Y-86616178D01*
X162331329Y-86409469D01*
X162026094Y-86259425D01*
X161813122Y-86194825D01*
X161544000Y-86312875D01*
X161290000Y-86312875D01*
X161020878Y-86194825D01*
X160807906Y-86259425D01*
X160502671Y-86409469D01*
X160232573Y-86616178D01*
X160007992Y-86871609D01*
X159837558Y-87165946D01*
X159727821Y-87487877D01*
X158915299Y-87487877D01*
X158907932Y-87450842D01*
X158795990Y-87180589D01*
X158633475Y-86937368D01*
X158426632Y-86730525D01*
X158244466Y-86608805D01*
X158361355Y-86539178D01*
X158577588Y-86344269D01*
X158751641Y-86110920D01*
X158876825Y-85848099D01*
X158921476Y-85700890D01*
X158800155Y-85471000D01*
X157607000Y-85471000D01*
X157607000Y-85491000D01*
X157353000Y-85491000D01*
X157353000Y-85471000D01*
X155067000Y-85471000D01*
X155067000Y-85491000D01*
X154813000Y-85491000D01*
X154813000Y-85471000D01*
X153619845Y-85471000D01*
X153498524Y-85700890D01*
X153543175Y-85848099D01*
X153668359Y-86110920D01*
X153842412Y-86344269D01*
X154058645Y-86539178D01*
X154175534Y-86608805D01*
X153993368Y-86730525D01*
X153786525Y-86937368D01*
X153624010Y-87180589D01*
X153512068Y-87450842D01*
X153455000Y-87737740D01*
X153060000Y-87737740D01*
X153060000Y-83160890D01*
X153498524Y-83160890D01*
X153543175Y-83308099D01*
X153668359Y-83570920D01*
X153842412Y-83804269D01*
X154058645Y-83999178D01*
X154184255Y-84074000D01*
X154058645Y-84148822D01*
X153842412Y-84343731D01*
X153668359Y-84577080D01*
X153543175Y-84839901D01*
X153498524Y-84987110D01*
X153619845Y-85217000D01*
X154813000Y-85217000D01*
X154813000Y-82931000D01*
X155067000Y-82931000D01*
X155067000Y-85217000D01*
X157353000Y-85217000D01*
X157353000Y-82931000D01*
X157607000Y-82931000D01*
X157607000Y-85217000D01*
X158800155Y-85217000D01*
X158921476Y-84987110D01*
X158876825Y-84839901D01*
X158751641Y-84577080D01*
X158577588Y-84343731D01*
X158361355Y-84148822D01*
X158235745Y-84074000D01*
X158361355Y-83999178D01*
X158577588Y-83804269D01*
X158726221Y-83605000D01*
X167040928Y-83605000D01*
X167040928Y-85305000D01*
X167053188Y-85429482D01*
X167089498Y-85549180D01*
X167148463Y-85659494D01*
X167227815Y-85756185D01*
X167324506Y-85835537D01*
X167434820Y-85894502D01*
X167507380Y-85916513D01*
X167375525Y-86048368D01*
X167213010Y-86291589D01*
X167101068Y-86561842D01*
X167044000Y-86848740D01*
X167044000Y-87141260D01*
X167101068Y-87428158D01*
X167213010Y-87698411D01*
X167375525Y-87941632D01*
X167582368Y-88148475D01*
X167756760Y-88265000D01*
X167582368Y-88381525D01*
X167375525Y-88588368D01*
X167213010Y-88831589D01*
X167101068Y-89101842D01*
X167044000Y-89388740D01*
X167044000Y-89681260D01*
X167101068Y-89968158D01*
X167213010Y-90238411D01*
X167375525Y-90481632D01*
X167582368Y-90688475D01*
X167825589Y-90850990D01*
X168095842Y-90962932D01*
X168382740Y-91020000D01*
X168675260Y-91020000D01*
X168962158Y-90962932D01*
X169232411Y-90850990D01*
X169475632Y-90688475D01*
X169682475Y-90481632D01*
X169800100Y-90305594D01*
X169971412Y-90535269D01*
X170187645Y-90730178D01*
X170437748Y-90879157D01*
X170712109Y-90976481D01*
X170942000Y-90855814D01*
X170942000Y-89662000D01*
X171196000Y-89662000D01*
X171196000Y-90855814D01*
X171425891Y-90976481D01*
X171700252Y-90879157D01*
X171950355Y-90730178D01*
X172166588Y-90535269D01*
X172340641Y-90301920D01*
X172465825Y-90039099D01*
X172510476Y-89891890D01*
X172389155Y-89662000D01*
X171196000Y-89662000D01*
X170942000Y-89662000D01*
X170922000Y-89662000D01*
X170922000Y-89408000D01*
X170942000Y-89408000D01*
X170942000Y-89388000D01*
X171196000Y-89388000D01*
X171196000Y-89408000D01*
X172389155Y-89408000D01*
X172510476Y-89178110D01*
X172465825Y-89030901D01*
X172340641Y-88768080D01*
X172166588Y-88534731D01*
X171950355Y-88339822D01*
X171833466Y-88270195D01*
X172015632Y-88148475D01*
X172222475Y-87941632D01*
X172384990Y-87698411D01*
X172496932Y-87428158D01*
X172554000Y-87141260D01*
X172554000Y-86848740D01*
X172496932Y-86561842D01*
X172384990Y-86291589D01*
X172222475Y-86048368D01*
X172015632Y-85841525D01*
X171841240Y-85725000D01*
X172015632Y-85608475D01*
X172222475Y-85401632D01*
X172384990Y-85158411D01*
X172496932Y-84888158D01*
X172554000Y-84601260D01*
X172554000Y-84308740D01*
X172496932Y-84021842D01*
X172384990Y-83751589D01*
X172222475Y-83508368D01*
X172015632Y-83301525D01*
X171772411Y-83139010D01*
X171502158Y-83027068D01*
X171215260Y-82970000D01*
X170922740Y-82970000D01*
X170635842Y-83027068D01*
X170365589Y-83139010D01*
X170122368Y-83301525D01*
X169990513Y-83433380D01*
X169968502Y-83360820D01*
X169909537Y-83250506D01*
X169830185Y-83153815D01*
X169733494Y-83074463D01*
X169623180Y-83015498D01*
X169503482Y-82979188D01*
X169379000Y-82966928D01*
X167679000Y-82966928D01*
X167554518Y-82979188D01*
X167434820Y-83015498D01*
X167324506Y-83074463D01*
X167227815Y-83153815D01*
X167148463Y-83250506D01*
X167089498Y-83360820D01*
X167053188Y-83480518D01*
X167040928Y-83605000D01*
X158726221Y-83605000D01*
X158751641Y-83570920D01*
X158876825Y-83308099D01*
X158921476Y-83160890D01*
X158800155Y-82931000D01*
X157607000Y-82931000D01*
X157353000Y-82931000D01*
X155067000Y-82931000D01*
X154813000Y-82931000D01*
X153619845Y-82931000D01*
X153498524Y-83160890D01*
X153060000Y-83160890D01*
X153060000Y-80620890D01*
X153498524Y-80620890D01*
X153543175Y-80768099D01*
X153668359Y-81030920D01*
X153842412Y-81264269D01*
X154058645Y-81459178D01*
X154184255Y-81534000D01*
X154058645Y-81608822D01*
X153842412Y-81803731D01*
X153668359Y-82037080D01*
X153543175Y-82299901D01*
X153498524Y-82447110D01*
X153619845Y-82677000D01*
X154813000Y-82677000D01*
X154813000Y-80391000D01*
X155067000Y-80391000D01*
X155067000Y-82677000D01*
X157353000Y-82677000D01*
X157353000Y-80391000D01*
X157607000Y-80391000D01*
X157607000Y-82677000D01*
X158800155Y-82677000D01*
X158921476Y-82447110D01*
X158876825Y-82299901D01*
X158751641Y-82037080D01*
X158577588Y-81803731D01*
X158361355Y-81608822D01*
X158235745Y-81534000D01*
X158361355Y-81459178D01*
X158577588Y-81264269D01*
X158751641Y-81030920D01*
X158876825Y-80768099D01*
X158921476Y-80620890D01*
X158800155Y-80391000D01*
X157607000Y-80391000D01*
X157353000Y-80391000D01*
X155067000Y-80391000D01*
X154813000Y-80391000D01*
X153619845Y-80391000D01*
X153498524Y-80620890D01*
X153060000Y-80620890D01*
X153060000Y-76874000D01*
X153451928Y-76874000D01*
X153451928Y-78574000D01*
X153464188Y-78698482D01*
X153500498Y-78818180D01*
X153559463Y-78928494D01*
X153638815Y-79025185D01*
X153735506Y-79104537D01*
X153845820Y-79163502D01*
X153926466Y-79187966D01*
X153842412Y-79263731D01*
X153668359Y-79497080D01*
X153543175Y-79759901D01*
X153498524Y-79907110D01*
X153619845Y-80137000D01*
X154813000Y-80137000D01*
X154813000Y-80117000D01*
X155067000Y-80117000D01*
X155067000Y-80137000D01*
X157353000Y-80137000D01*
X157353000Y-80117000D01*
X157607000Y-80117000D01*
X157607000Y-80137000D01*
X158800155Y-80137000D01*
X158921476Y-79907110D01*
X158876825Y-79759901D01*
X158751641Y-79497080D01*
X158577588Y-79263731D01*
X158361355Y-79068822D01*
X158244466Y-78999195D01*
X158426632Y-78877475D01*
X158633475Y-78670632D01*
X158795990Y-78427411D01*
X158907932Y-78157158D01*
X158965000Y-77870260D01*
X158965000Y-77577740D01*
X158907932Y-77290842D01*
X158795990Y-77020589D01*
X158633475Y-76777368D01*
X158480107Y-76624000D01*
X159678928Y-76624000D01*
X159678928Y-78824000D01*
X159691188Y-78948482D01*
X159727498Y-79068180D01*
X159786463Y-79178494D01*
X159865815Y-79275185D01*
X159962506Y-79354537D01*
X160072820Y-79413502D01*
X160192518Y-79449812D01*
X160317000Y-79462072D01*
X162517000Y-79462072D01*
X162641482Y-79449812D01*
X162761180Y-79413502D01*
X162871494Y-79354537D01*
X162968185Y-79275185D01*
X163047537Y-79178494D01*
X163068000Y-79140211D01*
X163088463Y-79178494D01*
X163167815Y-79275185D01*
X163264506Y-79354537D01*
X163374820Y-79413502D01*
X163494518Y-79449812D01*
X163619000Y-79462072D01*
X164433250Y-79459000D01*
X164592000Y-79300250D01*
X164592000Y-77851000D01*
X164846000Y-77851000D01*
X164846000Y-79300250D01*
X165004750Y-79459000D01*
X165819000Y-79462072D01*
X165943482Y-79449812D01*
X166063180Y-79413502D01*
X166173494Y-79354537D01*
X166270185Y-79275185D01*
X166349537Y-79178494D01*
X166408502Y-79068180D01*
X166444812Y-78948482D01*
X166457072Y-78824000D01*
X166454000Y-78009750D01*
X166295250Y-77851000D01*
X164846000Y-77851000D01*
X164592000Y-77851000D01*
X164572000Y-77851000D01*
X164572000Y-77597000D01*
X164592000Y-77597000D01*
X164592000Y-76147750D01*
X164846000Y-76147750D01*
X164846000Y-77597000D01*
X166295250Y-77597000D01*
X166454000Y-77438250D01*
X166457072Y-76624000D01*
X166444812Y-76499518D01*
X166408502Y-76379820D01*
X166349537Y-76269506D01*
X166270185Y-76172815D01*
X166173494Y-76093463D01*
X166063180Y-76034498D01*
X165943482Y-75998188D01*
X165819000Y-75985928D01*
X165004750Y-75989000D01*
X164846000Y-76147750D01*
X164592000Y-76147750D01*
X164433250Y-75989000D01*
X163619000Y-75985928D01*
X163494518Y-75998188D01*
X163374820Y-76034498D01*
X163264506Y-76093463D01*
X163167815Y-76172815D01*
X163088463Y-76269506D01*
X163068000Y-76307789D01*
X163047537Y-76269506D01*
X162968185Y-76172815D01*
X162871494Y-76093463D01*
X162761180Y-76034498D01*
X162641482Y-75998188D01*
X162517000Y-75985928D01*
X160317000Y-75985928D01*
X160192518Y-75998188D01*
X160072820Y-76034498D01*
X159962506Y-76093463D01*
X159865815Y-76172815D01*
X159786463Y-76269506D01*
X159727498Y-76379820D01*
X159691188Y-76499518D01*
X159678928Y-76624000D01*
X158480107Y-76624000D01*
X158426632Y-76570525D01*
X158183411Y-76408010D01*
X157913158Y-76296068D01*
X157626260Y-76239000D01*
X157333740Y-76239000D01*
X157046842Y-76296068D01*
X156776589Y-76408010D01*
X156533368Y-76570525D01*
X156401513Y-76702380D01*
X156379502Y-76629820D01*
X156320537Y-76519506D01*
X156241185Y-76422815D01*
X156144494Y-76343463D01*
X156034180Y-76284498D01*
X155914482Y-76248188D01*
X155790000Y-76235928D01*
X154090000Y-76235928D01*
X153965518Y-76248188D01*
X153845820Y-76284498D01*
X153735506Y-76343463D01*
X153638815Y-76422815D01*
X153559463Y-76519506D01*
X153500498Y-76629820D01*
X153464188Y-76749518D01*
X153451928Y-76874000D01*
X153060000Y-76874000D01*
X153060000Y-64528061D01*
X172180000Y-64528061D01*
X172180000Y-64731939D01*
X172219774Y-64931898D01*
X172297795Y-65120256D01*
X172411063Y-65289774D01*
X172455000Y-65333711D01*
X172455001Y-67767658D01*
X172455000Y-67767668D01*
X172455001Y-75768668D01*
X172451324Y-75806000D01*
X172465998Y-75954985D01*
X172509454Y-76098246D01*
X172580026Y-76230276D01*
X172634021Y-76296068D01*
X172675000Y-76346001D01*
X172703998Y-76369799D01*
X174860000Y-78525802D01*
X174860000Y-78587939D01*
X174899774Y-78787898D01*
X174977795Y-78976256D01*
X175091063Y-79145774D01*
X175235226Y-79289937D01*
X175404744Y-79403205D01*
X175593102Y-79481226D01*
X175793061Y-79521000D01*
X175996939Y-79521000D01*
X176196898Y-79481226D01*
X176385256Y-79403205D01*
X176554774Y-79289937D01*
X176698937Y-79145774D01*
X176812205Y-78976256D01*
X176890226Y-78787898D01*
X176930000Y-78587939D01*
X176930000Y-78384061D01*
X176890226Y-78184102D01*
X176812205Y-77995744D01*
X176698937Y-77826226D01*
X176554774Y-77682063D01*
X176385256Y-77568795D01*
X176285314Y-77527397D01*
X176317937Y-77494774D01*
X176431205Y-77325256D01*
X176509226Y-77136898D01*
X176549000Y-76936939D01*
X176549000Y-76733061D01*
X176509226Y-76533102D01*
X176431205Y-76344744D01*
X176317937Y-76175226D01*
X176173774Y-76031063D01*
X176004256Y-75917795D01*
X175815898Y-75839774D01*
X175615939Y-75800000D01*
X175553802Y-75800000D01*
X175131000Y-75377199D01*
X175131000Y-65346711D01*
X175174937Y-65302774D01*
X175288205Y-65133256D01*
X175366226Y-64944898D01*
X175406000Y-64744939D01*
X175406000Y-64541061D01*
X175366226Y-64341102D01*
X175288205Y-64152744D01*
X175174937Y-63983226D01*
X175030774Y-63839063D01*
X174861256Y-63725795D01*
X174672898Y-63647774D01*
X174472939Y-63608000D01*
X174269061Y-63608000D01*
X174069102Y-63647774D01*
X173880744Y-63725795D01*
X173802728Y-63777924D01*
X173705256Y-63712795D01*
X173516898Y-63634774D01*
X173316939Y-63595000D01*
X173113061Y-63595000D01*
X172913102Y-63634774D01*
X172724744Y-63712795D01*
X172555226Y-63826063D01*
X172411063Y-63970226D01*
X172297795Y-64139744D01*
X172219774Y-64328102D01*
X172180000Y-64528061D01*
X153060000Y-64528061D01*
X153060000Y-58473008D01*
X153061930Y-58471078D01*
X153150423Y-58729323D01*
X153429776Y-58864197D01*
X153730075Y-58941981D01*
X154039777Y-58959684D01*
X154346984Y-58916627D01*
X154639886Y-58814465D01*
X154799177Y-58729323D01*
X154887671Y-58471076D01*
X153974800Y-57558205D01*
X153960658Y-57572348D01*
X153781053Y-57392743D01*
X153795195Y-57378600D01*
X154154405Y-57378600D01*
X155067276Y-58291471D01*
X155325523Y-58202977D01*
X155460397Y-57923624D01*
X155538181Y-57623325D01*
X155555884Y-57313623D01*
X155543253Y-57223496D01*
X158902400Y-57223496D01*
X158902400Y-57533704D01*
X158962918Y-57837952D01*
X159081630Y-58124548D01*
X159253973Y-58382477D01*
X159473323Y-58601827D01*
X159731252Y-58774170D01*
X160017848Y-58892882D01*
X160322096Y-58953400D01*
X160632304Y-58953400D01*
X160936552Y-58892882D01*
X161223148Y-58774170D01*
X161481077Y-58601827D01*
X161700427Y-58382477D01*
X161872770Y-58124548D01*
X161991482Y-57837952D01*
X162052000Y-57533704D01*
X162052000Y-57223496D01*
X161991482Y-56919248D01*
X161872770Y-56632652D01*
X161700427Y-56374723D01*
X161481077Y-56155373D01*
X161223148Y-55983030D01*
X160936552Y-55864318D01*
X160632304Y-55803800D01*
X160322096Y-55803800D01*
X160017848Y-55864318D01*
X159731252Y-55983030D01*
X159473323Y-56155373D01*
X159253973Y-56374723D01*
X159081630Y-56632652D01*
X158962918Y-56919248D01*
X158902400Y-57223496D01*
X155543253Y-57223496D01*
X155512827Y-57006416D01*
X155410665Y-56713514D01*
X155325523Y-56554223D01*
X155067276Y-56465729D01*
X154154405Y-57378600D01*
X153795195Y-57378600D01*
X153781053Y-57364458D01*
X153960658Y-57184853D01*
X153974800Y-57198995D01*
X154887671Y-56286124D01*
X154799177Y-56027877D01*
X154519824Y-55893003D01*
X154219525Y-55815219D01*
X153909823Y-55797516D01*
X153602616Y-55840573D01*
X153309714Y-55942735D01*
X153150423Y-56027877D01*
X153061930Y-56286122D01*
X153060000Y-56284192D01*
X153060000Y-55180884D01*
X162457325Y-55180884D01*
X162513176Y-55432185D01*
X162616981Y-55667761D01*
X162764750Y-55878559D01*
X162950804Y-56056478D01*
X163167993Y-56194681D01*
X163407971Y-56287857D01*
X163431600Y-56290910D01*
X163634000Y-56167224D01*
X163634000Y-54975000D01*
X163888000Y-54975000D01*
X163888000Y-56167224D01*
X164090400Y-56290910D01*
X164114029Y-56287857D01*
X164354007Y-56194681D01*
X164571196Y-56056478D01*
X164757250Y-55878559D01*
X164905019Y-55667761D01*
X165008824Y-55432185D01*
X165064675Y-55180884D01*
X167917325Y-55180884D01*
X167973176Y-55432185D01*
X168076981Y-55667761D01*
X168224750Y-55878559D01*
X168410804Y-56056478D01*
X168627993Y-56194681D01*
X168867971Y-56287857D01*
X168891600Y-56290910D01*
X169094000Y-56167224D01*
X169094000Y-54975000D01*
X169348000Y-54975000D01*
X169348000Y-56167224D01*
X169550400Y-56290910D01*
X169574029Y-56287857D01*
X169814007Y-56194681D01*
X170031196Y-56056478D01*
X170217250Y-55878559D01*
X170365019Y-55667761D01*
X170468824Y-55432185D01*
X170524675Y-55180884D01*
X170374573Y-54975000D01*
X169348000Y-54975000D01*
X169094000Y-54975000D01*
X168067427Y-54975000D01*
X167917325Y-55180884D01*
X165064675Y-55180884D01*
X164914573Y-54975000D01*
X163888000Y-54975000D01*
X163634000Y-54975000D01*
X162607427Y-54975000D01*
X162457325Y-55180884D01*
X153060000Y-55180884D01*
X153060000Y-54515116D01*
X162457325Y-54515116D01*
X162607427Y-54721000D01*
X163634000Y-54721000D01*
X163634000Y-53528776D01*
X163888000Y-53528776D01*
X163888000Y-54721000D01*
X164914573Y-54721000D01*
X165064675Y-54515116D01*
X167917325Y-54515116D01*
X168067427Y-54721000D01*
X169094000Y-54721000D01*
X169094000Y-53528776D01*
X169348000Y-53528776D01*
X169348000Y-54721000D01*
X170374573Y-54721000D01*
X170524675Y-54515116D01*
X170468824Y-54263815D01*
X170365019Y-54028239D01*
X170217250Y-53817441D01*
X170031196Y-53639522D01*
X169814007Y-53501319D01*
X169574029Y-53408143D01*
X169550400Y-53405090D01*
X169348000Y-53528776D01*
X169094000Y-53528776D01*
X168891600Y-53405090D01*
X168867971Y-53408143D01*
X168627993Y-53501319D01*
X168410804Y-53639522D01*
X168224750Y-53817441D01*
X168076981Y-54028239D01*
X167973176Y-54263815D01*
X167917325Y-54515116D01*
X165064675Y-54515116D01*
X165008824Y-54263815D01*
X164905019Y-54028239D01*
X164757250Y-53817441D01*
X164571196Y-53639522D01*
X164354007Y-53501319D01*
X164114029Y-53408143D01*
X164090400Y-53405090D01*
X163888000Y-53528776D01*
X163634000Y-53528776D01*
X163431600Y-53405090D01*
X163407971Y-53408143D01*
X163167993Y-53501319D01*
X162950804Y-53639522D01*
X162764750Y-53817441D01*
X162616981Y-54028239D01*
X162513176Y-54263815D01*
X162457325Y-54515116D01*
X153060000Y-54515116D01*
X153060000Y-54140146D01*
X153228852Y-54252970D01*
X153515448Y-54371682D01*
X153819696Y-54432200D01*
X154129904Y-54432200D01*
X154434152Y-54371682D01*
X154720748Y-54252970D01*
X154978677Y-54080627D01*
X155198027Y-53861277D01*
X155370370Y-53603348D01*
X155489082Y-53316752D01*
X155549600Y-53012504D01*
X155549600Y-52702296D01*
X155489082Y-52398048D01*
X155370370Y-52111452D01*
X155198027Y-51853523D01*
X154978677Y-51634173D01*
X154720748Y-51461830D01*
X154716330Y-51460000D01*
X159735670Y-51460000D01*
X159731252Y-51461830D01*
%TA.AperFunction,Conductor*%
D24*
G36*
X159731252Y-51461830D02*
G01*
X159473323Y-51634173D01*
X159253973Y-51853523D01*
X159081630Y-52111452D01*
X158962918Y-52398048D01*
X158902400Y-52702296D01*
X158902400Y-53012504D01*
X158962918Y-53316752D01*
X159081630Y-53603348D01*
X159253973Y-53861277D01*
X159473323Y-54080627D01*
X159731252Y-54252970D01*
X160017848Y-54371682D01*
X160322096Y-54432200D01*
X160632304Y-54432200D01*
X160936552Y-54371682D01*
X161223148Y-54252970D01*
X161481077Y-54080627D01*
X161700427Y-53861277D01*
X161872770Y-53603348D01*
X161991482Y-53316752D01*
X162052000Y-53012504D01*
X162052000Y-52702296D01*
X161991482Y-52398048D01*
X161893660Y-52161884D01*
X162885316Y-52161884D01*
X162930316Y-52391011D01*
X163019152Y-52606957D01*
X163148410Y-52801422D01*
X163313123Y-52966934D01*
X163506961Y-53097131D01*
X163722474Y-53187011D01*
X163761256Y-53191803D01*
X163944000Y-53066361D01*
X163944000Y-51975000D01*
X164198000Y-51975000D01*
X164198000Y-53066361D01*
X164380744Y-53191803D01*
X164419526Y-53187011D01*
X164635039Y-53097131D01*
X164828877Y-52966934D01*
X164993590Y-52801422D01*
X165122848Y-52606957D01*
X165211684Y-52391011D01*
X165256684Y-52161884D01*
X167725316Y-52161884D01*
X167770316Y-52391011D01*
X167859152Y-52606957D01*
X167988410Y-52801422D01*
X168153123Y-52966934D01*
X168346961Y-53097131D01*
X168562474Y-53187011D01*
X168601256Y-53191803D01*
X168784000Y-53066361D01*
X168784000Y-51975000D01*
X169038000Y-51975000D01*
X169038000Y-53066361D01*
X169220744Y-53191803D01*
X169259526Y-53187011D01*
X169475039Y-53097131D01*
X169668877Y-52966934D01*
X169833590Y-52801422D01*
X169962848Y-52606957D01*
X170051684Y-52391011D01*
X170096684Y-52161884D01*
X169941152Y-51975000D01*
X169038000Y-51975000D01*
X168784000Y-51975000D01*
X167880848Y-51975000D01*
X167725316Y-52161884D01*
X165256684Y-52161884D01*
X165101152Y-51975000D01*
X164198000Y-51975000D01*
X163944000Y-51975000D01*
X163040848Y-51975000D01*
X162885316Y-52161884D01*
X161893660Y-52161884D01*
X161872770Y-52111452D01*
X161700427Y-51853523D01*
X161481077Y-51634173D01*
X161223148Y-51461830D01*
X161218730Y-51460000D01*
X162899872Y-51460000D01*
X162885316Y-51534116D01*
X163040848Y-51721000D01*
X163944000Y-51721000D01*
X163944000Y-51701000D01*
X164198000Y-51701000D01*
X164198000Y-51721000D01*
X165101152Y-51721000D01*
X165256684Y-51534116D01*
X165242128Y-51460000D01*
X167739872Y-51460000D01*
X167725316Y-51534116D01*
X167880848Y-51721000D01*
X168784000Y-51721000D01*
X168784000Y-51701000D01*
X169038000Y-51701000D01*
X169038000Y-51721000D01*
X169941152Y-51721000D01*
X170096684Y-51534116D01*
X170082128Y-51460000D01*
X182220001Y-51460000D01*
X182220000Y-151740000D01*
X153060000Y-151740000D01*
X153060000Y-149662565D01*
X155780000Y-149662565D01*
X155780000Y-149997435D01*
X155845330Y-150325872D01*
X155973479Y-150635252D01*
X156159523Y-150913687D01*
X156396313Y-151150477D01*
X156674748Y-151336521D01*
X156984128Y-151464670D01*
X157312565Y-151530000D01*
X157647435Y-151530000D01*
X157975872Y-151464670D01*
X158285252Y-151336521D01*
X158563687Y-151150477D01*
X158800477Y-150913687D01*
X158986521Y-150635252D01*
X159114670Y-150325872D01*
X159180000Y-149997435D01*
X159180000Y-149662565D01*
X165940000Y-149662565D01*
X165940000Y-149997435D01*
X166005330Y-150325872D01*
X166133479Y-150635252D01*
X166319523Y-150913687D01*
X166556313Y-151150477D01*
X166834748Y-151336521D01*
X167144128Y-151464670D01*
X167472565Y-151530000D01*
X167807435Y-151530000D01*
X168135872Y-151464670D01*
X168445252Y-151336521D01*
X168723687Y-151150477D01*
X168960477Y-150913687D01*
X169146521Y-150635252D01*
X169274670Y-150325872D01*
X169340000Y-149997435D01*
X169340000Y-149662565D01*
X176100000Y-149662565D01*
X176100000Y-149997435D01*
X176165330Y-150325872D01*
X176293479Y-150635252D01*
X176479523Y-150913687D01*
X176716313Y-151150477D01*
X176994748Y-151336521D01*
X177304128Y-151464670D01*
X177632565Y-151530000D01*
X177967435Y-151530000D01*
X178295872Y-151464670D01*
X178605252Y-151336521D01*
X178883687Y-151150477D01*
X179120477Y-150913687D01*
X179306521Y-150635252D01*
X179434670Y-150325872D01*
X179500000Y-149997435D01*
X179500000Y-149662565D01*
X179434670Y-149334128D01*
X179306521Y-149024748D01*
X179120477Y-148746313D01*
X178883687Y-148509523D01*
X178605252Y-148323479D01*
X178295872Y-148195330D01*
X177967435Y-148130000D01*
X177632565Y-148130000D01*
X177304128Y-148195330D01*
X176994748Y-148323479D01*
X176716313Y-148509523D01*
X176479523Y-148746313D01*
X176293479Y-149024748D01*
X176165330Y-149334128D01*
X176100000Y-149662565D01*
X169340000Y-149662565D01*
X169274670Y-149334128D01*
X169146521Y-149024748D01*
X168960477Y-148746313D01*
X168723687Y-148509523D01*
X168445252Y-148323479D01*
X168135872Y-148195330D01*
X167807435Y-148130000D01*
X167472565Y-148130000D01*
X167144128Y-148195330D01*
X166834748Y-148323479D01*
X166556313Y-148509523D01*
X166319523Y-148746313D01*
X166133479Y-149024748D01*
X166005330Y-149334128D01*
X165940000Y-149662565D01*
X159180000Y-149662565D01*
X159114670Y-149334128D01*
X158986521Y-149024748D01*
X158800477Y-148746313D01*
X158563687Y-148509523D01*
X158285252Y-148323479D01*
X157975872Y-148195330D01*
X157647435Y-148130000D01*
X157312565Y-148130000D01*
X156984128Y-148195330D01*
X156674748Y-148323479D01*
X156396313Y-148509523D01*
X156159523Y-148746313D01*
X155973479Y-149024748D01*
X155845330Y-149334128D01*
X155780000Y-149662565D01*
X153060000Y-149662565D01*
X153060000Y-145250000D01*
X158708928Y-145250000D01*
X158708928Y-146850000D01*
X158721188Y-146974482D01*
X158757498Y-147094180D01*
X158816463Y-147204494D01*
X158895815Y-147301185D01*
X158992506Y-147380537D01*
X159102820Y-147439502D01*
X159222518Y-147475812D01*
X159347000Y-147488072D01*
X160947000Y-147488072D01*
X161071482Y-147475812D01*
X161191180Y-147439502D01*
X161301494Y-147380537D01*
X161398185Y-147301185D01*
X161477537Y-147204494D01*
X161536502Y-147094180D01*
X161572812Y-146974482D01*
X161585072Y-146850000D01*
X161585072Y-145250000D01*
X161572812Y-145125518D01*
X161536502Y-145005820D01*
X161477537Y-144895506D01*
X161398185Y-144798815D01*
X161301494Y-144719463D01*
X161191180Y-144660498D01*
X161071482Y-144624188D01*
X160947000Y-144611928D01*
X159347000Y-144611928D01*
X159222518Y-144624188D01*
X159102820Y-144660498D01*
X158992506Y-144719463D01*
X158895815Y-144798815D01*
X158816463Y-144895506D01*
X158757498Y-145005820D01*
X158721188Y-145125518D01*
X158708928Y-145250000D01*
X153060000Y-145250000D01*
X153060000Y-141362565D01*
X155780000Y-141362565D01*
X155780000Y-141697435D01*
X155845330Y-142025872D01*
X155973479Y-142335252D01*
X156159523Y-142613687D01*
X156396313Y-142850477D01*
X156674748Y-143036521D01*
X156984128Y-143164670D01*
X157312565Y-143230000D01*
X157647435Y-143230000D01*
X157975872Y-143164670D01*
X158285252Y-143036521D01*
X158563687Y-142850477D01*
X158800477Y-142613687D01*
X158986521Y-142335252D01*
X159114670Y-142025872D01*
X159180000Y-141697435D01*
X159180000Y-141362565D01*
X165940000Y-141362565D01*
X165940000Y-141697435D01*
X166005330Y-142025872D01*
X166133479Y-142335252D01*
X166319523Y-142613687D01*
X166556313Y-142850477D01*
X166834748Y-143036521D01*
X167144128Y-143164670D01*
X167472565Y-143230000D01*
X167807435Y-143230000D01*
X168135872Y-143164670D01*
X168445252Y-143036521D01*
X168723687Y-142850477D01*
X168960477Y-142613687D01*
X169146521Y-142335252D01*
X169274670Y-142025872D01*
X169340000Y-141697435D01*
X169340000Y-141362565D01*
X176100000Y-141362565D01*
X176100000Y-141697435D01*
X176165330Y-142025872D01*
X176293479Y-142335252D01*
X176479523Y-142613687D01*
X176716313Y-142850477D01*
X176994748Y-143036521D01*
X177304128Y-143164670D01*
X177632565Y-143230000D01*
X177967435Y-143230000D01*
X178295872Y-143164670D01*
X178605252Y-143036521D01*
X178883687Y-142850477D01*
X179120477Y-142613687D01*
X179306521Y-142335252D01*
X179434670Y-142025872D01*
X179500000Y-141697435D01*
X179500000Y-141362565D01*
X179434670Y-141034128D01*
X179306521Y-140724748D01*
X179120477Y-140446313D01*
X178883687Y-140209523D01*
X178605252Y-140023479D01*
X178504860Y-139981895D01*
X178765000Y-139983072D01*
X178889482Y-139970812D01*
X179009180Y-139934502D01*
X179119494Y-139875537D01*
X179216185Y-139796185D01*
X179295537Y-139699494D01*
X179354502Y-139589180D01*
X179390812Y-139469482D01*
X179403072Y-139345000D01*
X179400000Y-138715750D01*
X179241250Y-138557000D01*
X177927000Y-138557000D01*
X177927000Y-138577000D01*
X177673000Y-138577000D01*
X177673000Y-138557000D01*
X176358750Y-138557000D01*
X176200000Y-138715750D01*
X176196928Y-139345000D01*
X176209188Y-139469482D01*
X176245498Y-139589180D01*
X176304463Y-139699494D01*
X176383815Y-139796185D01*
X176480506Y-139875537D01*
X176590820Y-139934502D01*
X176710518Y-139970812D01*
X176835000Y-139983072D01*
X177095140Y-139981895D01*
X176994748Y-140023479D01*
X176716313Y-140209523D01*
X176479523Y-140446313D01*
X176293479Y-140724748D01*
X176165330Y-141034128D01*
X176100000Y-141362565D01*
X169340000Y-141362565D01*
X169274670Y-141034128D01*
X169146521Y-140724748D01*
X168960477Y-140446313D01*
X168723687Y-140209523D01*
X168445252Y-140023479D01*
X168344860Y-139981895D01*
X168605000Y-139983072D01*
X168729482Y-139970812D01*
X168849180Y-139934502D01*
X168959494Y-139875537D01*
X169056185Y-139796185D01*
X169135537Y-139699494D01*
X169194502Y-139589180D01*
X169230812Y-139469482D01*
X169243072Y-139345000D01*
X169240000Y-138715750D01*
X169081250Y-138557000D01*
X167767000Y-138557000D01*
X167767000Y-138577000D01*
X167513000Y-138577000D01*
X167513000Y-138557000D01*
X166198750Y-138557000D01*
X166040000Y-138715750D01*
X166036928Y-139345000D01*
X166049188Y-139469482D01*
X166085498Y-139589180D01*
X166144463Y-139699494D01*
X166223815Y-139796185D01*
X166320506Y-139875537D01*
X166430820Y-139934502D01*
X166550518Y-139970812D01*
X166675000Y-139983072D01*
X166935140Y-139981895D01*
X166834748Y-140023479D01*
X166556313Y-140209523D01*
X166319523Y-140446313D01*
X166133479Y-140724748D01*
X166005330Y-141034128D01*
X165940000Y-141362565D01*
X159180000Y-141362565D01*
X159114670Y-141034128D01*
X158986521Y-140724748D01*
X158800477Y-140446313D01*
X158563687Y-140209523D01*
X158285252Y-140023479D01*
X158184860Y-139981895D01*
X158445000Y-139983072D01*
X158569482Y-139970812D01*
X158689180Y-139934502D01*
X158799494Y-139875537D01*
X158896185Y-139796185D01*
X158975537Y-139699494D01*
X159034502Y-139589180D01*
X159070812Y-139469482D01*
X159079725Y-139378986D01*
X159183586Y-139493519D01*
X159409580Y-139661037D01*
X159663913Y-139781246D01*
X159797961Y-139821904D01*
X160020000Y-139699915D01*
X160020000Y-138557000D01*
X160274000Y-138557000D01*
X160274000Y-139699915D01*
X160496039Y-139821904D01*
X160630087Y-139781246D01*
X160884420Y-139661037D01*
X161110414Y-139493519D01*
X161299385Y-139285131D01*
X161444070Y-139043881D01*
X161538909Y-138779040D01*
X161417624Y-138557000D01*
X160274000Y-138557000D01*
X160020000Y-138557000D01*
X157607000Y-138557000D01*
X157607000Y-138577000D01*
X157353000Y-138577000D01*
X157353000Y-138557000D01*
X156038750Y-138557000D01*
X155880000Y-138715750D01*
X155876928Y-139345000D01*
X155889188Y-139469482D01*
X155925498Y-139589180D01*
X155984463Y-139699494D01*
X156063815Y-139796185D01*
X156160506Y-139875537D01*
X156270820Y-139934502D01*
X156390518Y-139970812D01*
X156515000Y-139983072D01*
X156775140Y-139981895D01*
X156674748Y-140023479D01*
X156396313Y-140209523D01*
X156159523Y-140446313D01*
X155973479Y-140724748D01*
X155845330Y-141034128D01*
X155780000Y-141362565D01*
X153060000Y-141362565D01*
X153060000Y-137515000D01*
X155876928Y-137515000D01*
X155880000Y-138144250D01*
X156038750Y-138303000D01*
X157353000Y-138303000D01*
X157353000Y-137038750D01*
X157607000Y-137038750D01*
X157607000Y-138303000D01*
X160020000Y-138303000D01*
X160020000Y-137160085D01*
X160274000Y-137160085D01*
X160274000Y-138303000D01*
X161417624Y-138303000D01*
X161538909Y-138080960D01*
X161444070Y-137816119D01*
X161299385Y-137574869D01*
X161245095Y-137515000D01*
X166036928Y-137515000D01*
X166040000Y-138144250D01*
X166198750Y-138303000D01*
X167513000Y-138303000D01*
X167513000Y-137038750D01*
X167767000Y-137038750D01*
X167767000Y-138303000D01*
X169081250Y-138303000D01*
X169240000Y-138144250D01*
X169243072Y-137515000D01*
X176196928Y-137515000D01*
X176200000Y-138144250D01*
X176358750Y-138303000D01*
X177673000Y-138303000D01*
X177673000Y-137038750D01*
X177927000Y-137038750D01*
X177927000Y-138303000D01*
X179241250Y-138303000D01*
X179400000Y-138144250D01*
X179403072Y-137515000D01*
X179390812Y-137390518D01*
X179354502Y-137270820D01*
X179295537Y-137160506D01*
X179216185Y-137063815D01*
X179119494Y-136984463D01*
X179009180Y-136925498D01*
X178889482Y-136889188D01*
X178765000Y-136876928D01*
X178085750Y-136880000D01*
X177927000Y-137038750D01*
X177673000Y-137038750D01*
X177514250Y-136880000D01*
X176835000Y-136876928D01*
X176710518Y-136889188D01*
X176590820Y-136925498D01*
X176480506Y-136984463D01*
X176383815Y-137063815D01*
X176304463Y-137160506D01*
X176245498Y-137270820D01*
X176209188Y-137390518D01*
X176196928Y-137515000D01*
X169243072Y-137515000D01*
X169230812Y-137390518D01*
X169194502Y-137270820D01*
X169135537Y-137160506D01*
X169056185Y-137063815D01*
X168959494Y-136984463D01*
X168849180Y-136925498D01*
X168729482Y-136889188D01*
X168605000Y-136876928D01*
X167925750Y-136880000D01*
X167767000Y-137038750D01*
X167513000Y-137038750D01*
X167354250Y-136880000D01*
X166675000Y-136876928D01*
X166550518Y-136889188D01*
X166430820Y-136925498D01*
X166320506Y-136984463D01*
X166223815Y-137063815D01*
X166144463Y-137160506D01*
X166085498Y-137270820D01*
X166049188Y-137390518D01*
X166036928Y-137515000D01*
X161245095Y-137515000D01*
X161110414Y-137366481D01*
X160884420Y-137198963D01*
X160630087Y-137078754D01*
X160496039Y-137038096D01*
X160274000Y-137160085D01*
X160020000Y-137160085D01*
X159797961Y-137038096D01*
X159663913Y-137078754D01*
X159409580Y-137198963D01*
X159183586Y-137366481D01*
X159079725Y-137481014D01*
X159070812Y-137390518D01*
X159034502Y-137270820D01*
X158975537Y-137160506D01*
X158896185Y-137063815D01*
X158799494Y-136984463D01*
X158689180Y-136925498D01*
X158569482Y-136889188D01*
X158445000Y-136876928D01*
X157765750Y-136880000D01*
X157607000Y-137038750D01*
X157353000Y-137038750D01*
X157194250Y-136880000D01*
X156515000Y-136876928D01*
X156390518Y-136889188D01*
X156270820Y-136925498D01*
X156160506Y-136984463D01*
X156063815Y-137063815D01*
X155984463Y-137160506D01*
X155925498Y-137270820D01*
X155889188Y-137390518D01*
X155876928Y-137515000D01*
X153060000Y-137515000D01*
X153060000Y-134960565D01*
X155780000Y-134960565D01*
X155780000Y-135295435D01*
X155845330Y-135623872D01*
X155973479Y-135933252D01*
X156159523Y-136211687D01*
X156396313Y-136448477D01*
X156674748Y-136634521D01*
X156984128Y-136762670D01*
X157312565Y-136828000D01*
X157647435Y-136828000D01*
X157975872Y-136762670D01*
X158285252Y-136634521D01*
X158563687Y-136448477D01*
X158800477Y-136211687D01*
X158986521Y-135933252D01*
X159114670Y-135623872D01*
X159180000Y-135295435D01*
X159180000Y-134960565D01*
X165940000Y-134960565D01*
X165940000Y-135295435D01*
X166005330Y-135623872D01*
X166133479Y-135933252D01*
X166319523Y-136211687D01*
X166556313Y-136448477D01*
X166834748Y-136634521D01*
X167144128Y-136762670D01*
X167472565Y-136828000D01*
X167807435Y-136828000D01*
X168135872Y-136762670D01*
X168445252Y-136634521D01*
X168723687Y-136448477D01*
X168960477Y-136211687D01*
X169146521Y-135933252D01*
X169274670Y-135623872D01*
X169340000Y-135295435D01*
X169340000Y-134960565D01*
X169334033Y-134930565D01*
X176100000Y-134930565D01*
X176100000Y-135265435D01*
X176165330Y-135593872D01*
X176293479Y-135903252D01*
X176479523Y-136181687D01*
X176716313Y-136418477D01*
X176994748Y-136604521D01*
X177304128Y-136732670D01*
X177632565Y-136798000D01*
X177967435Y-136798000D01*
X178295872Y-136732670D01*
X178605252Y-136604521D01*
X178883687Y-136418477D01*
X179120477Y-136181687D01*
X179306521Y-135903252D01*
X179434670Y-135593872D01*
X179500000Y-135265435D01*
X179500000Y-134930565D01*
X179434670Y-134602128D01*
X179306521Y-134292748D01*
X179120477Y-134014313D01*
X178883687Y-133777523D01*
X178605252Y-133591479D01*
X178295872Y-133463330D01*
X177967435Y-133398000D01*
X177632565Y-133398000D01*
X177304128Y-133463330D01*
X176994748Y-133591479D01*
X176716313Y-133777523D01*
X176479523Y-134014313D01*
X176293479Y-134292748D01*
X176165330Y-134602128D01*
X176100000Y-134930565D01*
X169334033Y-134930565D01*
X169274670Y-134632128D01*
X169146521Y-134322748D01*
X168960477Y-134044313D01*
X168723687Y-133807523D01*
X168445252Y-133621479D01*
X168135872Y-133493330D01*
X167807435Y-133428000D01*
X167472565Y-133428000D01*
X167144128Y-133493330D01*
X166834748Y-133621479D01*
X166556313Y-133807523D01*
X166319523Y-134044313D01*
X166133479Y-134322748D01*
X166005330Y-134632128D01*
X165940000Y-134960565D01*
X159180000Y-134960565D01*
X159114670Y-134632128D01*
X158986521Y-134322748D01*
X158800477Y-134044313D01*
X158563687Y-133807523D01*
X158285252Y-133621479D01*
X157975872Y-133493330D01*
X157647435Y-133428000D01*
X157312565Y-133428000D01*
X156984128Y-133493330D01*
X156674748Y-133621479D01*
X156396313Y-133807523D01*
X156159523Y-134044313D01*
X155973479Y-134322748D01*
X155845330Y-134632128D01*
X155780000Y-134960565D01*
X153060000Y-134960565D01*
X153060000Y-130518000D01*
X158835928Y-130518000D01*
X158835928Y-132118000D01*
X158848188Y-132242482D01*
X158884498Y-132362180D01*
X158943463Y-132472494D01*
X159022815Y-132569185D01*
X159119506Y-132648537D01*
X159229820Y-132707502D01*
X159349518Y-132743812D01*
X159474000Y-132756072D01*
X161074000Y-132756072D01*
X161198482Y-132743812D01*
X161318180Y-132707502D01*
X161428494Y-132648537D01*
X161525185Y-132569185D01*
X161604537Y-132472494D01*
X161663502Y-132362180D01*
X161699812Y-132242482D01*
X161712072Y-132118000D01*
X161712072Y-130518000D01*
X161699812Y-130393518D01*
X161663502Y-130273820D01*
X161604537Y-130163506D01*
X161525185Y-130066815D01*
X161428494Y-129987463D01*
X161318180Y-129928498D01*
X161198482Y-129892188D01*
X161074000Y-129879928D01*
X159474000Y-129879928D01*
X159349518Y-129892188D01*
X159229820Y-129928498D01*
X159119506Y-129987463D01*
X159022815Y-130066815D01*
X158943463Y-130163506D01*
X158884498Y-130273820D01*
X158848188Y-130393518D01*
X158835928Y-130518000D01*
X153060000Y-130518000D01*
X153060000Y-126660565D01*
X155780000Y-126660565D01*
X155780000Y-126995435D01*
X155845330Y-127323872D01*
X155973479Y-127633252D01*
X156159523Y-127911687D01*
X156396313Y-128148477D01*
X156674748Y-128334521D01*
X156984128Y-128462670D01*
X157312565Y-128528000D01*
X157647435Y-128528000D01*
X157975872Y-128462670D01*
X158285252Y-128334521D01*
X158563687Y-128148477D01*
X158800477Y-127911687D01*
X158986521Y-127633252D01*
X159114670Y-127323872D01*
X159180000Y-126995435D01*
X159180000Y-126660565D01*
X165940000Y-126660565D01*
X165940000Y-126995435D01*
X166005330Y-127323872D01*
X166133479Y-127633252D01*
X166319523Y-127911687D01*
X166556313Y-128148477D01*
X166834748Y-128334521D01*
X167144128Y-128462670D01*
X167472565Y-128528000D01*
X167807435Y-128528000D01*
X168135872Y-128462670D01*
X168445252Y-128334521D01*
X168723687Y-128148477D01*
X168960477Y-127911687D01*
X169146521Y-127633252D01*
X169274670Y-127323872D01*
X169340000Y-126995435D01*
X169340000Y-126660565D01*
X169334033Y-126630565D01*
X176100000Y-126630565D01*
X176100000Y-126965435D01*
X176165330Y-127293872D01*
X176293479Y-127603252D01*
X176479523Y-127881687D01*
X176716313Y-128118477D01*
X176994748Y-128304521D01*
X177304128Y-128432670D01*
X177632565Y-128498000D01*
X177967435Y-128498000D01*
X178295872Y-128432670D01*
X178605252Y-128304521D01*
X178883687Y-128118477D01*
X179120477Y-127881687D01*
X179306521Y-127603252D01*
X179434670Y-127293872D01*
X179500000Y-126965435D01*
X179500000Y-126630565D01*
X179434670Y-126302128D01*
X179306521Y-125992748D01*
X179120477Y-125714313D01*
X178883687Y-125477523D01*
X178605252Y-125291479D01*
X178504860Y-125249895D01*
X178765000Y-125251072D01*
X178889482Y-125238812D01*
X179009180Y-125202502D01*
X179119494Y-125143537D01*
X179216185Y-125064185D01*
X179295537Y-124967494D01*
X179354502Y-124857180D01*
X179390812Y-124737482D01*
X179403072Y-124613000D01*
X179400000Y-123983750D01*
X179241250Y-123825000D01*
X177927000Y-123825000D01*
X177927000Y-123845000D01*
X177673000Y-123845000D01*
X177673000Y-123825000D01*
X176358750Y-123825000D01*
X176200000Y-123983750D01*
X176196928Y-124613000D01*
X176209188Y-124737482D01*
X176245498Y-124857180D01*
X176304463Y-124967494D01*
X176383815Y-125064185D01*
X176480506Y-125143537D01*
X176590820Y-125202502D01*
X176710518Y-125238812D01*
X176835000Y-125251072D01*
X177095140Y-125249895D01*
X176994748Y-125291479D01*
X176716313Y-125477523D01*
X176479523Y-125714313D01*
X176293479Y-125992748D01*
X176165330Y-126302128D01*
X176100000Y-126630565D01*
X169334033Y-126630565D01*
X169274670Y-126332128D01*
X169146521Y-126022748D01*
X168960477Y-125744313D01*
X168723687Y-125507523D01*
X168445252Y-125321479D01*
X168344860Y-125279895D01*
X168605000Y-125281072D01*
X168729482Y-125268812D01*
X168849180Y-125232502D01*
X168959494Y-125173537D01*
X169056185Y-125094185D01*
X169135537Y-124997494D01*
X169194502Y-124887180D01*
X169230812Y-124767482D01*
X169243072Y-124643000D01*
X169240000Y-124013750D01*
X169081250Y-123855000D01*
X167767000Y-123855000D01*
X167767000Y-123875000D01*
X167513000Y-123875000D01*
X167513000Y-123855000D01*
X166198750Y-123855000D01*
X166040000Y-124013750D01*
X166036928Y-124643000D01*
X166049188Y-124767482D01*
X166085498Y-124887180D01*
X166144463Y-124997494D01*
X166223815Y-125094185D01*
X166320506Y-125173537D01*
X166430820Y-125232502D01*
X166550518Y-125268812D01*
X166675000Y-125281072D01*
X166935140Y-125279895D01*
X166834748Y-125321479D01*
X166556313Y-125507523D01*
X166319523Y-125744313D01*
X166133479Y-126022748D01*
X166005330Y-126332128D01*
X165940000Y-126660565D01*
X159180000Y-126660565D01*
X159114670Y-126332128D01*
X158986521Y-126022748D01*
X158800477Y-125744313D01*
X158563687Y-125507523D01*
X158285252Y-125321479D01*
X158184860Y-125279895D01*
X158445000Y-125281072D01*
X158569482Y-125268812D01*
X158689180Y-125232502D01*
X158799494Y-125173537D01*
X158896185Y-125094185D01*
X158975537Y-124997494D01*
X159034502Y-124887180D01*
X159070812Y-124767482D01*
X159083072Y-124643000D01*
X159082313Y-124487599D01*
X159121615Y-124553131D01*
X159310586Y-124761519D01*
X159536580Y-124929037D01*
X159790913Y-125049246D01*
X159924961Y-125089904D01*
X160147000Y-124967915D01*
X160147000Y-123825000D01*
X160401000Y-123825000D01*
X160401000Y-124967915D01*
X160623039Y-125089904D01*
X160757087Y-125049246D01*
X161011420Y-124929037D01*
X161237414Y-124761519D01*
X161426385Y-124553131D01*
X161571070Y-124311881D01*
X161665909Y-124047040D01*
X161544624Y-123825000D01*
X160401000Y-123825000D01*
X160147000Y-123825000D01*
X159003376Y-123825000D01*
X158963766Y-123897516D01*
X158921250Y-123855000D01*
X157607000Y-123855000D01*
X157607000Y-123875000D01*
X157353000Y-123875000D01*
X157353000Y-123855000D01*
X156038750Y-123855000D01*
X155880000Y-124013750D01*
X155876928Y-124643000D01*
X155889188Y-124767482D01*
X155925498Y-124887180D01*
X155984463Y-124997494D01*
X156063815Y-125094185D01*
X156160506Y-125173537D01*
X156270820Y-125232502D01*
X156390518Y-125268812D01*
X156515000Y-125281072D01*
X156775140Y-125279895D01*
X156674748Y-125321479D01*
X156396313Y-125507523D01*
X156159523Y-125744313D01*
X155973479Y-126022748D01*
X155845330Y-126332128D01*
X155780000Y-126660565D01*
X153060000Y-126660565D01*
X153060000Y-122813000D01*
X155876928Y-122813000D01*
X155880000Y-123442250D01*
X156038750Y-123601000D01*
X157353000Y-123601000D01*
X157353000Y-122336750D01*
X157607000Y-122336750D01*
X157607000Y-123601000D01*
X158921250Y-123601000D01*
X158984962Y-123537288D01*
X159003376Y-123571000D01*
X160147000Y-123571000D01*
X160147000Y-122428085D01*
X160401000Y-122428085D01*
X160401000Y-123571000D01*
X161544624Y-123571000D01*
X161665909Y-123348960D01*
X161571070Y-123084119D01*
X161426385Y-122842869D01*
X161399300Y-122813000D01*
X166036928Y-122813000D01*
X166040000Y-123442250D01*
X166198750Y-123601000D01*
X167513000Y-123601000D01*
X167513000Y-122336750D01*
X167767000Y-122336750D01*
X167767000Y-123601000D01*
X169081250Y-123601000D01*
X169240000Y-123442250D01*
X169243072Y-122813000D01*
X169240118Y-122783000D01*
X176196928Y-122783000D01*
X176200000Y-123412250D01*
X176358750Y-123571000D01*
X177673000Y-123571000D01*
X177673000Y-122306750D01*
X177927000Y-122306750D01*
X177927000Y-123571000D01*
X179241250Y-123571000D01*
X179400000Y-123412250D01*
X179403072Y-122783000D01*
X179390812Y-122658518D01*
X179354502Y-122538820D01*
X179295537Y-122428506D01*
X179216185Y-122331815D01*
X179119494Y-122252463D01*
X179009180Y-122193498D01*
X178889482Y-122157188D01*
X178765000Y-122144928D01*
X178085750Y-122148000D01*
X177927000Y-122306750D01*
X177673000Y-122306750D01*
X177514250Y-122148000D01*
X176835000Y-122144928D01*
X176710518Y-122157188D01*
X176590820Y-122193498D01*
X176480506Y-122252463D01*
X176383815Y-122331815D01*
X176304463Y-122428506D01*
X176245498Y-122538820D01*
X176209188Y-122658518D01*
X176196928Y-122783000D01*
X169240118Y-122783000D01*
X169230812Y-122688518D01*
X169194502Y-122568820D01*
X169135537Y-122458506D01*
X169056185Y-122361815D01*
X168959494Y-122282463D01*
X168849180Y-122223498D01*
X168729482Y-122187188D01*
X168605000Y-122174928D01*
X167925750Y-122178000D01*
X167767000Y-122336750D01*
X167513000Y-122336750D01*
X167354250Y-122178000D01*
X166675000Y-122174928D01*
X166550518Y-122187188D01*
X166430820Y-122223498D01*
X166320506Y-122282463D01*
X166223815Y-122361815D01*
X166144463Y-122458506D01*
X166085498Y-122568820D01*
X166049188Y-122688518D01*
X166036928Y-122813000D01*
X161399300Y-122813000D01*
X161237414Y-122634481D01*
X161011420Y-122466963D01*
X160757087Y-122346754D01*
X160623039Y-122306096D01*
X160401000Y-122428085D01*
X160147000Y-122428085D01*
X159924961Y-122306096D01*
X159790913Y-122346754D01*
X159536580Y-122466963D01*
X159310586Y-122634481D01*
X159121615Y-122842869D01*
X159082609Y-122907909D01*
X159083072Y-122813000D01*
X159070812Y-122688518D01*
X159034502Y-122568820D01*
X158975537Y-122458506D01*
X158896185Y-122361815D01*
X158799494Y-122282463D01*
X158689180Y-122223498D01*
X158569482Y-122187188D01*
X158445000Y-122174928D01*
X157765750Y-122178000D01*
X157607000Y-122336750D01*
X157353000Y-122336750D01*
X157194250Y-122178000D01*
X156515000Y-122174928D01*
X156390518Y-122187188D01*
X156270820Y-122223498D01*
X156160506Y-122282463D01*
X156063815Y-122361815D01*
X155984463Y-122458506D01*
X155925498Y-122568820D01*
X155889188Y-122688518D01*
X155876928Y-122813000D01*
X153060000Y-122813000D01*
X153060000Y-120198565D01*
X155780000Y-120198565D01*
X155780000Y-120533435D01*
X155845330Y-120861872D01*
X155973479Y-121171252D01*
X156159523Y-121449687D01*
X156396313Y-121686477D01*
X156674748Y-121872521D01*
X156984128Y-122000670D01*
X157312565Y-122066000D01*
X157647435Y-122066000D01*
X157975872Y-122000670D01*
X158285252Y-121872521D01*
X158563687Y-121686477D01*
X158800477Y-121449687D01*
X158986521Y-121171252D01*
X159114670Y-120861872D01*
X159180000Y-120533435D01*
X159180000Y-120198565D01*
X165940000Y-120198565D01*
X165940000Y-120533435D01*
X166005330Y-120861872D01*
X166133479Y-121171252D01*
X166319523Y-121449687D01*
X166556313Y-121686477D01*
X166834748Y-121872521D01*
X167144128Y-122000670D01*
X167472565Y-122066000D01*
X167807435Y-122066000D01*
X168135872Y-122000670D01*
X168445252Y-121872521D01*
X168723687Y-121686477D01*
X168960477Y-121449687D01*
X169146521Y-121171252D01*
X169274670Y-120861872D01*
X169340000Y-120533435D01*
X169340000Y-120198565D01*
X176100000Y-120198565D01*
X176100000Y-120533435D01*
X176165330Y-120861872D01*
X176293479Y-121171252D01*
X176479523Y-121449687D01*
X176716313Y-121686477D01*
X176994748Y-121872521D01*
X177304128Y-122000670D01*
X177632565Y-122066000D01*
X177967435Y-122066000D01*
X178295872Y-122000670D01*
X178605252Y-121872521D01*
X178883687Y-121686477D01*
X179120477Y-121449687D01*
X179306521Y-121171252D01*
X179434670Y-120861872D01*
X179500000Y-120533435D01*
X179500000Y-120198565D01*
X179434670Y-119870128D01*
X179306521Y-119560748D01*
X179120477Y-119282313D01*
X178883687Y-119045523D01*
X178605252Y-118859479D01*
X178295872Y-118731330D01*
X177967435Y-118666000D01*
X177632565Y-118666000D01*
X177304128Y-118731330D01*
X176994748Y-118859479D01*
X176716313Y-119045523D01*
X176479523Y-119282313D01*
X176293479Y-119560748D01*
X176165330Y-119870128D01*
X176100000Y-120198565D01*
X169340000Y-120198565D01*
X169274670Y-119870128D01*
X169146521Y-119560748D01*
X168960477Y-119282313D01*
X168723687Y-119045523D01*
X168445252Y-118859479D01*
X168135872Y-118731330D01*
X167807435Y-118666000D01*
X167472565Y-118666000D01*
X167144128Y-118731330D01*
X166834748Y-118859479D01*
X166556313Y-119045523D01*
X166319523Y-119282313D01*
X166133479Y-119560748D01*
X166005330Y-119870128D01*
X165940000Y-120198565D01*
X159180000Y-120198565D01*
X159114670Y-119870128D01*
X158986521Y-119560748D01*
X158800477Y-119282313D01*
X158563687Y-119045523D01*
X158285252Y-118859479D01*
X157975872Y-118731330D01*
X157647435Y-118666000D01*
X157312565Y-118666000D01*
X156984128Y-118731330D01*
X156674748Y-118859479D01*
X156396313Y-119045523D01*
X156159523Y-119282313D01*
X155973479Y-119560748D01*
X155845330Y-119870128D01*
X155780000Y-120198565D01*
X153060000Y-120198565D01*
X153060000Y-115786000D01*
X158835928Y-115786000D01*
X158835928Y-117386000D01*
X158848188Y-117510482D01*
X158884498Y-117630180D01*
X158943463Y-117740494D01*
X159022815Y-117837185D01*
X159119506Y-117916537D01*
X159229820Y-117975502D01*
X159349518Y-118011812D01*
X159474000Y-118024072D01*
X161074000Y-118024072D01*
X161198482Y-118011812D01*
X161318180Y-117975502D01*
X161428494Y-117916537D01*
X161525185Y-117837185D01*
X161604537Y-117740494D01*
X161663502Y-117630180D01*
X161699812Y-117510482D01*
X161712072Y-117386000D01*
X161712072Y-115786000D01*
X161699812Y-115661518D01*
X161663502Y-115541820D01*
X161604537Y-115431506D01*
X161525185Y-115334815D01*
X161428494Y-115255463D01*
X161318180Y-115196498D01*
X161198482Y-115160188D01*
X161074000Y-115147928D01*
X159474000Y-115147928D01*
X159349518Y-115160188D01*
X159229820Y-115196498D01*
X159119506Y-115255463D01*
X159022815Y-115334815D01*
X158943463Y-115431506D01*
X158884498Y-115541820D01*
X158848188Y-115661518D01*
X158835928Y-115786000D01*
X153060000Y-115786000D01*
X153060000Y-111898565D01*
X155780000Y-111898565D01*
X155780000Y-112233435D01*
X155845330Y-112561872D01*
X155973479Y-112871252D01*
X156159523Y-113149687D01*
X156396313Y-113386477D01*
X156674748Y-113572521D01*
X156984128Y-113700670D01*
X157312565Y-113766000D01*
X157647435Y-113766000D01*
X157975872Y-113700670D01*
X158285252Y-113572521D01*
X158563687Y-113386477D01*
X158800477Y-113149687D01*
X158986521Y-112871252D01*
X159114670Y-112561872D01*
X159180000Y-112233435D01*
X159180000Y-111898565D01*
X165940000Y-111898565D01*
X165940000Y-112233435D01*
X166005330Y-112561872D01*
X166133479Y-112871252D01*
X166319523Y-113149687D01*
X166556313Y-113386477D01*
X166834748Y-113572521D01*
X167144128Y-113700670D01*
X167472565Y-113766000D01*
X167807435Y-113766000D01*
X168135872Y-113700670D01*
X168445252Y-113572521D01*
X168723687Y-113386477D01*
X168960477Y-113149687D01*
X169146521Y-112871252D01*
X169274670Y-112561872D01*
X169340000Y-112233435D01*
X169340000Y-111898565D01*
X176100000Y-111898565D01*
X176100000Y-112233435D01*
X176165330Y-112561872D01*
X176293479Y-112871252D01*
X176479523Y-113149687D01*
X176716313Y-113386477D01*
X176994748Y-113572521D01*
X177304128Y-113700670D01*
X177632565Y-113766000D01*
X177967435Y-113766000D01*
X178295872Y-113700670D01*
X178605252Y-113572521D01*
X178883687Y-113386477D01*
X179120477Y-113149687D01*
X179306521Y-112871252D01*
X179434670Y-112561872D01*
X179500000Y-112233435D01*
X179500000Y-111898565D01*
X179434670Y-111570128D01*
X179306521Y-111260748D01*
X179120477Y-110982313D01*
X178883687Y-110745523D01*
X178605252Y-110559479D01*
X178504860Y-110517895D01*
X178765000Y-110519072D01*
X178889482Y-110506812D01*
X179009180Y-110470502D01*
X179119494Y-110411537D01*
X179216185Y-110332185D01*
X179295537Y-110235494D01*
X179354502Y-110125180D01*
X179390812Y-110005482D01*
X179403072Y-109881000D01*
X179400000Y-109251750D01*
X179241250Y-109093000D01*
X177927000Y-109093000D01*
X177927000Y-109113000D01*
X177673000Y-109113000D01*
X177673000Y-109093000D01*
X176358750Y-109093000D01*
X176200000Y-109251750D01*
X176196928Y-109881000D01*
X176209188Y-110005482D01*
X176245498Y-110125180D01*
X176304463Y-110235494D01*
X176383815Y-110332185D01*
X176480506Y-110411537D01*
X176590820Y-110470502D01*
X176710518Y-110506812D01*
X176835000Y-110519072D01*
X177095140Y-110517895D01*
X176994748Y-110559479D01*
X176716313Y-110745523D01*
X176479523Y-110982313D01*
X176293479Y-111260748D01*
X176165330Y-111570128D01*
X176100000Y-111898565D01*
X169340000Y-111898565D01*
X169274670Y-111570128D01*
X169146521Y-111260748D01*
X168960477Y-110982313D01*
X168723687Y-110745523D01*
X168445252Y-110559479D01*
X168344860Y-110517895D01*
X168605000Y-110519072D01*
X168729482Y-110506812D01*
X168849180Y-110470502D01*
X168959494Y-110411537D01*
X169056185Y-110332185D01*
X169135537Y-110235494D01*
X169194502Y-110125180D01*
X169230812Y-110005482D01*
X169243072Y-109881000D01*
X169240000Y-109251750D01*
X169081250Y-109093000D01*
X167767000Y-109093000D01*
X167767000Y-109113000D01*
X167513000Y-109113000D01*
X167513000Y-109093000D01*
X166198750Y-109093000D01*
X166040000Y-109251750D01*
X166036928Y-109881000D01*
X166049188Y-110005482D01*
X166085498Y-110125180D01*
X166144463Y-110235494D01*
X166223815Y-110332185D01*
X166320506Y-110411537D01*
X166430820Y-110470502D01*
X166550518Y-110506812D01*
X166675000Y-110519072D01*
X166935140Y-110517895D01*
X166834748Y-110559479D01*
X166556313Y-110745523D01*
X166319523Y-110982313D01*
X166133479Y-111260748D01*
X166005330Y-111570128D01*
X165940000Y-111898565D01*
X159180000Y-111898565D01*
X159114670Y-111570128D01*
X158986521Y-111260748D01*
X158800477Y-110982313D01*
X158563687Y-110745523D01*
X158285252Y-110559479D01*
X158184860Y-110517895D01*
X158445000Y-110519072D01*
X158569482Y-110506812D01*
X158689180Y-110470502D01*
X158799494Y-110411537D01*
X158896185Y-110332185D01*
X158975537Y-110235494D01*
X159034502Y-110125180D01*
X159070812Y-110005482D01*
X159083072Y-109881000D01*
X159082461Y-109755845D01*
X159121615Y-109821131D01*
X159310586Y-110029519D01*
X159536580Y-110197037D01*
X159790913Y-110317246D01*
X159924961Y-110357904D01*
X160147000Y-110235915D01*
X160147000Y-109093000D01*
X160401000Y-109093000D01*
X160401000Y-110235915D01*
X160623039Y-110357904D01*
X160757087Y-110317246D01*
X161011420Y-110197037D01*
X161237414Y-110029519D01*
X161426385Y-109821131D01*
X161571070Y-109579881D01*
X161665909Y-109315040D01*
X161544624Y-109093000D01*
X160401000Y-109093000D01*
X160147000Y-109093000D01*
X159003376Y-109093000D01*
X158974364Y-109146114D01*
X158921250Y-109093000D01*
X157607000Y-109093000D01*
X157607000Y-109113000D01*
X157353000Y-109113000D01*
X157353000Y-109093000D01*
X156038750Y-109093000D01*
X155880000Y-109251750D01*
X155876928Y-109881000D01*
X155889188Y-110005482D01*
X155925498Y-110125180D01*
X155984463Y-110235494D01*
X156063815Y-110332185D01*
X156160506Y-110411537D01*
X156270820Y-110470502D01*
X156390518Y-110506812D01*
X156515000Y-110519072D01*
X156775140Y-110517895D01*
X156674748Y-110559479D01*
X156396313Y-110745523D01*
X156159523Y-110982313D01*
X155973479Y-111260748D01*
X155845330Y-111570128D01*
X155780000Y-111898565D01*
X153060000Y-111898565D01*
X153060000Y-108051000D01*
X155876928Y-108051000D01*
X155880000Y-108680250D01*
X156038750Y-108839000D01*
X157353000Y-108839000D01*
X157353000Y-107574750D01*
X157607000Y-107574750D01*
X157607000Y-108839000D01*
X158921250Y-108839000D01*
X158974364Y-108785886D01*
X159003376Y-108839000D01*
X160147000Y-108839000D01*
X160147000Y-107696085D01*
X160401000Y-107696085D01*
X160401000Y-108839000D01*
X161544624Y-108839000D01*
X161665909Y-108616960D01*
X161571070Y-108352119D01*
X161426385Y-108110869D01*
X161372095Y-108051000D01*
X166036928Y-108051000D01*
X166040000Y-108680250D01*
X166198750Y-108839000D01*
X167513000Y-108839000D01*
X167513000Y-107574750D01*
X167767000Y-107574750D01*
X167767000Y-108839000D01*
X169081250Y-108839000D01*
X169240000Y-108680250D01*
X169243072Y-108051000D01*
X176196928Y-108051000D01*
X176200000Y-108680250D01*
X176358750Y-108839000D01*
X177673000Y-108839000D01*
X177673000Y-107574750D01*
X177927000Y-107574750D01*
X177927000Y-108839000D01*
X179241250Y-108839000D01*
X179400000Y-108680250D01*
X179403072Y-108051000D01*
X179390812Y-107926518D01*
X179354502Y-107806820D01*
X179295537Y-107696506D01*
X179216185Y-107599815D01*
X179119494Y-107520463D01*
X179009180Y-107461498D01*
X178889482Y-107425188D01*
X178765000Y-107412928D01*
X178085750Y-107416000D01*
X177927000Y-107574750D01*
X177673000Y-107574750D01*
X177514250Y-107416000D01*
X176835000Y-107412928D01*
X176710518Y-107425188D01*
X176590820Y-107461498D01*
X176480506Y-107520463D01*
X176383815Y-107599815D01*
X176304463Y-107696506D01*
X176245498Y-107806820D01*
X176209188Y-107926518D01*
X176196928Y-108051000D01*
X169243072Y-108051000D01*
X169230812Y-107926518D01*
X169194502Y-107806820D01*
X169135537Y-107696506D01*
X169056185Y-107599815D01*
X168959494Y-107520463D01*
X168849180Y-107461498D01*
X168729482Y-107425188D01*
X168605000Y-107412928D01*
X167925750Y-107416000D01*
X167767000Y-107574750D01*
X167513000Y-107574750D01*
X167354250Y-107416000D01*
X166675000Y-107412928D01*
X166550518Y-107425188D01*
X166430820Y-107461498D01*
X166320506Y-107520463D01*
X166223815Y-107599815D01*
X166144463Y-107696506D01*
X166085498Y-107806820D01*
X166049188Y-107926518D01*
X166036928Y-108051000D01*
X161372095Y-108051000D01*
X161237414Y-107902481D01*
X161011420Y-107734963D01*
X160757087Y-107614754D01*
X160623039Y-107574096D01*
X160401000Y-107696085D01*
X160147000Y-107696085D01*
X159924961Y-107574096D01*
X159790913Y-107614754D01*
X159536580Y-107734963D01*
X159310586Y-107902481D01*
X159121615Y-108110869D01*
X159082461Y-108176155D01*
X159083072Y-108051000D01*
X159070812Y-107926518D01*
X159034502Y-107806820D01*
X158975537Y-107696506D01*
X158896185Y-107599815D01*
X158799494Y-107520463D01*
X158689180Y-107461498D01*
X158569482Y-107425188D01*
X158445000Y-107412928D01*
X157765750Y-107416000D01*
X157607000Y-107574750D01*
X157353000Y-107574750D01*
X157194250Y-107416000D01*
X156515000Y-107412928D01*
X156390518Y-107425188D01*
X156270820Y-107461498D01*
X156160506Y-107520463D01*
X156063815Y-107599815D01*
X155984463Y-107696506D01*
X155925498Y-107806820D01*
X155889188Y-107926518D01*
X155876928Y-108051000D01*
X153060000Y-108051000D01*
X153060000Y-105466565D01*
X155780000Y-105466565D01*
X155780000Y-105801435D01*
X155845330Y-106129872D01*
X155973479Y-106439252D01*
X156159523Y-106717687D01*
X156396313Y-106954477D01*
X156674748Y-107140521D01*
X156984128Y-107268670D01*
X157312565Y-107334000D01*
X157647435Y-107334000D01*
X157975872Y-107268670D01*
X158285252Y-107140521D01*
X158563687Y-106954477D01*
X158800477Y-106717687D01*
X158986521Y-106439252D01*
X159114670Y-106129872D01*
X159180000Y-105801435D01*
X159180000Y-105466565D01*
X165940000Y-105466565D01*
X165940000Y-105801435D01*
X166005330Y-106129872D01*
X166133479Y-106439252D01*
X166319523Y-106717687D01*
X166556313Y-106954477D01*
X166834748Y-107140521D01*
X167144128Y-107268670D01*
X167472565Y-107334000D01*
X167807435Y-107334000D01*
X168135872Y-107268670D01*
X168445252Y-107140521D01*
X168723687Y-106954477D01*
X168960477Y-106717687D01*
X169146521Y-106439252D01*
X169274670Y-106129872D01*
X169340000Y-105801435D01*
X169340000Y-105466565D01*
X176100000Y-105466565D01*
X176100000Y-105801435D01*
X176165330Y-106129872D01*
X176293479Y-106439252D01*
X176479523Y-106717687D01*
X176716313Y-106954477D01*
X176994748Y-107140521D01*
X177304128Y-107268670D01*
X177632565Y-107334000D01*
X177967435Y-107334000D01*
X178295872Y-107268670D01*
X178605252Y-107140521D01*
X178883687Y-106954477D01*
X179120477Y-106717687D01*
X179306521Y-106439252D01*
X179434670Y-106129872D01*
X179500000Y-105801435D01*
X179500000Y-105466565D01*
X179434670Y-105138128D01*
X179306521Y-104828748D01*
X179120477Y-104550313D01*
X178883687Y-104313523D01*
X178605252Y-104127479D01*
X178295872Y-103999330D01*
X177967435Y-103934000D01*
X177632565Y-103934000D01*
X177304128Y-103999330D01*
X176994748Y-104127479D01*
X176716313Y-104313523D01*
X176479523Y-104550313D01*
X176293479Y-104828748D01*
X176165330Y-105138128D01*
X176100000Y-105466565D01*
X169340000Y-105466565D01*
X169274670Y-105138128D01*
X169146521Y-104828748D01*
X168960477Y-104550313D01*
X168723687Y-104313523D01*
X168445252Y-104127479D01*
X168135872Y-103999330D01*
X167807435Y-103934000D01*
X167472565Y-103934000D01*
X167144128Y-103999330D01*
X166834748Y-104127479D01*
X166556313Y-104313523D01*
X166319523Y-104550313D01*
X166133479Y-104828748D01*
X166005330Y-105138128D01*
X165940000Y-105466565D01*
X159180000Y-105466565D01*
X159114670Y-105138128D01*
X158986521Y-104828748D01*
X158800477Y-104550313D01*
X158563687Y-104313523D01*
X158285252Y-104127479D01*
X157975872Y-103999330D01*
X157647435Y-103934000D01*
X157312565Y-103934000D01*
X156984128Y-103999330D01*
X156674748Y-104127479D01*
X156396313Y-104313523D01*
X156159523Y-104550313D01*
X155973479Y-104828748D01*
X155845330Y-105138128D01*
X155780000Y-105466565D01*
X153060000Y-105466565D01*
X153060000Y-101054000D01*
X158835928Y-101054000D01*
X158835928Y-102654000D01*
X158848188Y-102778482D01*
X158884498Y-102898180D01*
X158943463Y-103008494D01*
X159022815Y-103105185D01*
X159119506Y-103184537D01*
X159229820Y-103243502D01*
X159349518Y-103279812D01*
X159474000Y-103292072D01*
X161074000Y-103292072D01*
X161198482Y-103279812D01*
X161318180Y-103243502D01*
X161428494Y-103184537D01*
X161525185Y-103105185D01*
X161604537Y-103008494D01*
X161663502Y-102898180D01*
X161699812Y-102778482D01*
X161712072Y-102654000D01*
X161712072Y-101054000D01*
X161699812Y-100929518D01*
X161663502Y-100809820D01*
X161604537Y-100699506D01*
X161525185Y-100602815D01*
X161428494Y-100523463D01*
X161318180Y-100464498D01*
X161198482Y-100428188D01*
X161074000Y-100415928D01*
X159474000Y-100415928D01*
X159349518Y-100428188D01*
X159229820Y-100464498D01*
X159119506Y-100523463D01*
X159022815Y-100602815D01*
X158943463Y-100699506D01*
X158884498Y-100809820D01*
X158848188Y-100929518D01*
X158835928Y-101054000D01*
X153060000Y-101054000D01*
X153060000Y-97166565D01*
X155780000Y-97166565D01*
X155780000Y-97501435D01*
X155845330Y-97829872D01*
X155973479Y-98139252D01*
X156159523Y-98417687D01*
X156396313Y-98654477D01*
X156674748Y-98840521D01*
X156984128Y-98968670D01*
X157312565Y-99034000D01*
X157647435Y-99034000D01*
X157975872Y-98968670D01*
X158285252Y-98840521D01*
X158563687Y-98654477D01*
X158800477Y-98417687D01*
X158986521Y-98139252D01*
X159114670Y-97829872D01*
X159180000Y-97501435D01*
X159180000Y-97166565D01*
X165940000Y-97166565D01*
X165940000Y-97501435D01*
X166005330Y-97829872D01*
X166133479Y-98139252D01*
X166319523Y-98417687D01*
X166556313Y-98654477D01*
X166834748Y-98840521D01*
X167144128Y-98968670D01*
X167472565Y-99034000D01*
X167807435Y-99034000D01*
X168135872Y-98968670D01*
X168445252Y-98840521D01*
X168723687Y-98654477D01*
X168960477Y-98417687D01*
X169146521Y-98139252D01*
X169274670Y-97829872D01*
X169340000Y-97501435D01*
X169340000Y-97166565D01*
X176100000Y-97166565D01*
X176100000Y-97501435D01*
X176165330Y-97829872D01*
X176293479Y-98139252D01*
X176479523Y-98417687D01*
X176716313Y-98654477D01*
X176994748Y-98840521D01*
X177304128Y-98968670D01*
X177632565Y-99034000D01*
X177967435Y-99034000D01*
X178295872Y-98968670D01*
X178605252Y-98840521D01*
X178883687Y-98654477D01*
X179120477Y-98417687D01*
X179306521Y-98139252D01*
X179434670Y-97829872D01*
X179500000Y-97501435D01*
X179500000Y-97166565D01*
X179434670Y-96838128D01*
X179306521Y-96528748D01*
X179120477Y-96250313D01*
X178883687Y-96013523D01*
X178605252Y-95827479D01*
X178504860Y-95785895D01*
X178765000Y-95787072D01*
X178889482Y-95774812D01*
X179009180Y-95738502D01*
X179119494Y-95679537D01*
X179216185Y-95600185D01*
X179295537Y-95503494D01*
X179354502Y-95393180D01*
X179390812Y-95273482D01*
X179403072Y-95149000D01*
X179400000Y-94519750D01*
X179241250Y-94361000D01*
X177927000Y-94361000D01*
X177927000Y-94381000D01*
X177673000Y-94381000D01*
X177673000Y-94361000D01*
X176358750Y-94361000D01*
X176200000Y-94519750D01*
X176196928Y-95149000D01*
X176209188Y-95273482D01*
X176245498Y-95393180D01*
X176304463Y-95503494D01*
X176383815Y-95600185D01*
X176480506Y-95679537D01*
X176590820Y-95738502D01*
X176710518Y-95774812D01*
X176835000Y-95787072D01*
X177095140Y-95785895D01*
X176994748Y-95827479D01*
X176716313Y-96013523D01*
X176479523Y-96250313D01*
X176293479Y-96528748D01*
X176165330Y-96838128D01*
X176100000Y-97166565D01*
X169340000Y-97166565D01*
X169274670Y-96838128D01*
X169146521Y-96528748D01*
X168960477Y-96250313D01*
X168723687Y-96013523D01*
X168445252Y-95827479D01*
X168344860Y-95785895D01*
X168605000Y-95787072D01*
X168729482Y-95774812D01*
X168849180Y-95738502D01*
X168959494Y-95679537D01*
X169056185Y-95600185D01*
X169135537Y-95503494D01*
X169194502Y-95393180D01*
X169230812Y-95273482D01*
X169243072Y-95149000D01*
X169240000Y-94519750D01*
X169081250Y-94361000D01*
X167767000Y-94361000D01*
X167767000Y-94381000D01*
X167513000Y-94381000D01*
X167513000Y-94361000D01*
X166198750Y-94361000D01*
X166040000Y-94519750D01*
X166036928Y-95149000D01*
X166049188Y-95273482D01*
X166085498Y-95393180D01*
X166144463Y-95503494D01*
X166223815Y-95600185D01*
X166320506Y-95679537D01*
X166430820Y-95738502D01*
X166550518Y-95774812D01*
X166675000Y-95787072D01*
X166935140Y-95785895D01*
X166834748Y-95827479D01*
X166556313Y-96013523D01*
X166319523Y-96250313D01*
X166133479Y-96528748D01*
X166005330Y-96838128D01*
X165940000Y-97166565D01*
X159180000Y-97166565D01*
X159114670Y-96838128D01*
X158986521Y-96528748D01*
X158800477Y-96250313D01*
X158563687Y-96013523D01*
X158285252Y-95827479D01*
X158184860Y-95785895D01*
X158445000Y-95787072D01*
X158569482Y-95774812D01*
X158689180Y-95738502D01*
X158799494Y-95679537D01*
X158896185Y-95600185D01*
X158975537Y-95503494D01*
X159034502Y-95393180D01*
X159070812Y-95273482D01*
X159083072Y-95149000D01*
X159082461Y-95023845D01*
X159121615Y-95089131D01*
X159310586Y-95297519D01*
X159536580Y-95465037D01*
X159790913Y-95585246D01*
X159924961Y-95625904D01*
X160147000Y-95503915D01*
X160147000Y-94361000D01*
X160401000Y-94361000D01*
X160401000Y-95503915D01*
X160623039Y-95625904D01*
X160757087Y-95585246D01*
X161011420Y-95465037D01*
X161237414Y-95297519D01*
X161426385Y-95089131D01*
X161571070Y-94847881D01*
X161665909Y-94583040D01*
X161544624Y-94361000D01*
X160401000Y-94361000D01*
X160147000Y-94361000D01*
X159003376Y-94361000D01*
X158974364Y-94414114D01*
X158921250Y-94361000D01*
X157607000Y-94361000D01*
X157607000Y-94381000D01*
X157353000Y-94381000D01*
X157353000Y-94361000D01*
X156038750Y-94361000D01*
X155880000Y-94519750D01*
X155876928Y-95149000D01*
X155889188Y-95273482D01*
X155925498Y-95393180D01*
X155984463Y-95503494D01*
X156063815Y-95600185D01*
X156160506Y-95679537D01*
X156270820Y-95738502D01*
X156390518Y-95774812D01*
X156515000Y-95787072D01*
X156775140Y-95785895D01*
X156674748Y-95827479D01*
X156396313Y-96013523D01*
X156159523Y-96250313D01*
X155973479Y-96528748D01*
X155845330Y-96838128D01*
X155780000Y-97166565D01*
X153060000Y-97166565D01*
X153060000Y-93319000D01*
X155876928Y-93319000D01*
X155880000Y-93948250D01*
X156038750Y-94107000D01*
X157353000Y-94107000D01*
X157353000Y-92842750D01*
X157607000Y-92842750D01*
X157607000Y-94107000D01*
X158921250Y-94107000D01*
X158974364Y-94053886D01*
X159003376Y-94107000D01*
X160147000Y-94107000D01*
X160147000Y-92964085D01*
X160401000Y-92964085D01*
X160401000Y-94107000D01*
X161544624Y-94107000D01*
X161665909Y-93884960D01*
X161571070Y-93620119D01*
X161426385Y-93378869D01*
X161372095Y-93319000D01*
X166036928Y-93319000D01*
X166040000Y-93948250D01*
X166198750Y-94107000D01*
X167513000Y-94107000D01*
X167513000Y-92842750D01*
X167767000Y-92842750D01*
X167767000Y-94107000D01*
X169081250Y-94107000D01*
X169240000Y-93948250D01*
X169243072Y-93319000D01*
X176196928Y-93319000D01*
X176200000Y-93948250D01*
X176358750Y-94107000D01*
X177673000Y-94107000D01*
X177673000Y-92842750D01*
X177927000Y-92842750D01*
X177927000Y-94107000D01*
X179241250Y-94107000D01*
X179400000Y-93948250D01*
X179403072Y-93319000D01*
X179390812Y-93194518D01*
X179354502Y-93074820D01*
X179295537Y-92964506D01*
X179216185Y-92867815D01*
X179119494Y-92788463D01*
X179009180Y-92729498D01*
X178889482Y-92693188D01*
X178765000Y-92680928D01*
X178085750Y-92684000D01*
X177927000Y-92842750D01*
X177673000Y-92842750D01*
X177514250Y-92684000D01*
X176835000Y-92680928D01*
X176710518Y-92693188D01*
X176590820Y-92729498D01*
X176480506Y-92788463D01*
X176383815Y-92867815D01*
X176304463Y-92964506D01*
X176245498Y-93074820D01*
X176209188Y-93194518D01*
X176196928Y-93319000D01*
X169243072Y-93319000D01*
X169230812Y-93194518D01*
X169194502Y-93074820D01*
X169135537Y-92964506D01*
X169056185Y-92867815D01*
X168959494Y-92788463D01*
X168849180Y-92729498D01*
X168729482Y-92693188D01*
X168605000Y-92680928D01*
X167925750Y-92684000D01*
X167767000Y-92842750D01*
X167513000Y-92842750D01*
X167354250Y-92684000D01*
X166675000Y-92680928D01*
X166550518Y-92693188D01*
X166430820Y-92729498D01*
X166320506Y-92788463D01*
X166223815Y-92867815D01*
X166144463Y-92964506D01*
X166085498Y-93074820D01*
X166049188Y-93194518D01*
X166036928Y-93319000D01*
X161372095Y-93319000D01*
X161237414Y-93170481D01*
X161011420Y-93002963D01*
X160757087Y-92882754D01*
X160623039Y-92842096D01*
X160401000Y-92964085D01*
X160147000Y-92964085D01*
X159924961Y-92842096D01*
X159790913Y-92882754D01*
X159536580Y-93002963D01*
X159310586Y-93170481D01*
X159121615Y-93378869D01*
X159082461Y-93444155D01*
X159083072Y-93319000D01*
X159070812Y-93194518D01*
X159034502Y-93074820D01*
X158975537Y-92964506D01*
X158896185Y-92867815D01*
X158799494Y-92788463D01*
X158689180Y-92729498D01*
X158569482Y-92693188D01*
X158445000Y-92680928D01*
X157765750Y-92684000D01*
X157607000Y-92842750D01*
X157353000Y-92842750D01*
X157194250Y-92684000D01*
X156515000Y-92680928D01*
X156390518Y-92693188D01*
X156270820Y-92729498D01*
X156160506Y-92788463D01*
X156063815Y-92867815D01*
X155984463Y-92964506D01*
X155925498Y-93074820D01*
X155889188Y-93194518D01*
X155876928Y-93319000D01*
X153060000Y-93319000D01*
X153060000Y-87737740D01*
X153455000Y-87737740D01*
X153455000Y-88030260D01*
X153512068Y-88317158D01*
X153624010Y-88587411D01*
X153786525Y-88830632D01*
X153993368Y-89037475D01*
X154236589Y-89199990D01*
X154506842Y-89311932D01*
X154793740Y-89369000D01*
X155086260Y-89369000D01*
X155373158Y-89311932D01*
X155643411Y-89199990D01*
X155886632Y-89037475D01*
X156093475Y-88830632D01*
X156210000Y-88656240D01*
X156326525Y-88830632D01*
X156533368Y-89037475D01*
X156776589Y-89199990D01*
X157046842Y-89311932D01*
X157333740Y-89369000D01*
X157626260Y-89369000D01*
X157913158Y-89311932D01*
X158183411Y-89199990D01*
X158426632Y-89037475D01*
X158633475Y-88830632D01*
X158795990Y-88587411D01*
X158907932Y-88317158D01*
X158915298Y-88280123D01*
X159727821Y-88280123D01*
X159837558Y-88602054D01*
X160007992Y-88896391D01*
X160232573Y-89151822D01*
X160502671Y-89358531D01*
X160807906Y-89508575D01*
X161020878Y-89573175D01*
X161290000Y-89455125D01*
X161290000Y-88011000D01*
X159845400Y-88011000D01*
X159727821Y-88280123D01*
X158915298Y-88280123D01*
X158965000Y-88030260D01*
X158965000Y-87737740D01*
X158915299Y-87487877D01*
X159727821Y-87487877D01*
X159845400Y-87757000D01*
X161290000Y-87757000D01*
X161290000Y-86312875D01*
X161544000Y-86312875D01*
X161544000Y-87757000D01*
X161564000Y-87757000D01*
X161564000Y-88011000D01*
X161544000Y-88011000D01*
X161544000Y-89455125D01*
X161813122Y-89573175D01*
X162026094Y-89508575D01*
X162331329Y-89358531D01*
X162601427Y-89151822D01*
X162826008Y-88896391D01*
X162996442Y-88602054D01*
X163060562Y-88413949D01*
X163181463Y-88705831D01*
X163371337Y-88989998D01*
X163613002Y-89231663D01*
X163897169Y-89421537D01*
X164212919Y-89552325D01*
X164548117Y-89619000D01*
X164889883Y-89619000D01*
X165225081Y-89552325D01*
X165540831Y-89421537D01*
X165824998Y-89231663D01*
X166066663Y-88989998D01*
X166256537Y-88705831D01*
X166387325Y-88390081D01*
X166454000Y-88054883D01*
X166454000Y-87713117D01*
X166387325Y-87377919D01*
X166256537Y-87062169D01*
X166066663Y-86778002D01*
X165824998Y-86536337D01*
X165540831Y-86346463D01*
X165225081Y-86215675D01*
X164889883Y-86149000D01*
X164548117Y-86149000D01*
X164212919Y-86215675D01*
X163897169Y-86346463D01*
X163613002Y-86536337D01*
X163371337Y-86778002D01*
X163181463Y-87062169D01*
X163060562Y-87354051D01*
X162996442Y-87165946D01*
X162826008Y-86871609D01*
X162601427Y-86616178D01*
X162331329Y-86409469D01*
X162026094Y-86259425D01*
X161813122Y-86194825D01*
X161544000Y-86312875D01*
X161290000Y-86312875D01*
X161020878Y-86194825D01*
X160807906Y-86259425D01*
X160502671Y-86409469D01*
X160232573Y-86616178D01*
X160007992Y-86871609D01*
X159837558Y-87165946D01*
X159727821Y-87487877D01*
X158915299Y-87487877D01*
X158907932Y-87450842D01*
X158795990Y-87180589D01*
X158633475Y-86937368D01*
X158426632Y-86730525D01*
X158244466Y-86608805D01*
X158361355Y-86539178D01*
X158577588Y-86344269D01*
X158751641Y-86110920D01*
X158876825Y-85848099D01*
X158921476Y-85700890D01*
X158800155Y-85471000D01*
X157607000Y-85471000D01*
X157607000Y-85491000D01*
X157353000Y-85491000D01*
X157353000Y-85471000D01*
X155067000Y-85471000D01*
X155067000Y-85491000D01*
X154813000Y-85491000D01*
X154813000Y-85471000D01*
X153619845Y-85471000D01*
X153498524Y-85700890D01*
X153543175Y-85848099D01*
X153668359Y-86110920D01*
X153842412Y-86344269D01*
X154058645Y-86539178D01*
X154175534Y-86608805D01*
X153993368Y-86730525D01*
X153786525Y-86937368D01*
X153624010Y-87180589D01*
X153512068Y-87450842D01*
X153455000Y-87737740D01*
X153060000Y-87737740D01*
X153060000Y-83160890D01*
X153498524Y-83160890D01*
X153543175Y-83308099D01*
X153668359Y-83570920D01*
X153842412Y-83804269D01*
X154058645Y-83999178D01*
X154184255Y-84074000D01*
X154058645Y-84148822D01*
X153842412Y-84343731D01*
X153668359Y-84577080D01*
X153543175Y-84839901D01*
X153498524Y-84987110D01*
X153619845Y-85217000D01*
X154813000Y-85217000D01*
X154813000Y-82931000D01*
X155067000Y-82931000D01*
X155067000Y-85217000D01*
X157353000Y-85217000D01*
X157353000Y-82931000D01*
X157607000Y-82931000D01*
X157607000Y-85217000D01*
X158800155Y-85217000D01*
X158921476Y-84987110D01*
X158876825Y-84839901D01*
X158751641Y-84577080D01*
X158577588Y-84343731D01*
X158361355Y-84148822D01*
X158235745Y-84074000D01*
X158361355Y-83999178D01*
X158577588Y-83804269D01*
X158726221Y-83605000D01*
X167040928Y-83605000D01*
X167040928Y-85305000D01*
X167053188Y-85429482D01*
X167089498Y-85549180D01*
X167148463Y-85659494D01*
X167227815Y-85756185D01*
X167324506Y-85835537D01*
X167434820Y-85894502D01*
X167507380Y-85916513D01*
X167375525Y-86048368D01*
X167213010Y-86291589D01*
X167101068Y-86561842D01*
X167044000Y-86848740D01*
X167044000Y-87141260D01*
X167101068Y-87428158D01*
X167213010Y-87698411D01*
X167375525Y-87941632D01*
X167582368Y-88148475D01*
X167756760Y-88265000D01*
X167582368Y-88381525D01*
X167375525Y-88588368D01*
X167213010Y-88831589D01*
X167101068Y-89101842D01*
X167044000Y-89388740D01*
X167044000Y-89681260D01*
X167101068Y-89968158D01*
X167213010Y-90238411D01*
X167375525Y-90481632D01*
X167582368Y-90688475D01*
X167825589Y-90850990D01*
X168095842Y-90962932D01*
X168382740Y-91020000D01*
X168675260Y-91020000D01*
X168962158Y-90962932D01*
X169232411Y-90850990D01*
X169475632Y-90688475D01*
X169682475Y-90481632D01*
X169800100Y-90305594D01*
X169971412Y-90535269D01*
X170187645Y-90730178D01*
X170437748Y-90879157D01*
X170712109Y-90976481D01*
X170942000Y-90855814D01*
X170942000Y-89662000D01*
X171196000Y-89662000D01*
X171196000Y-90855814D01*
X171425891Y-90976481D01*
X171700252Y-90879157D01*
X171950355Y-90730178D01*
X172166588Y-90535269D01*
X172340641Y-90301920D01*
X172465825Y-90039099D01*
X172510476Y-89891890D01*
X172389155Y-89662000D01*
X171196000Y-89662000D01*
X170942000Y-89662000D01*
X170922000Y-89662000D01*
X170922000Y-89408000D01*
X170942000Y-89408000D01*
X170942000Y-89388000D01*
X171196000Y-89388000D01*
X171196000Y-89408000D01*
X172389155Y-89408000D01*
X172510476Y-89178110D01*
X172465825Y-89030901D01*
X172340641Y-88768080D01*
X172166588Y-88534731D01*
X171950355Y-88339822D01*
X171833466Y-88270195D01*
X172015632Y-88148475D01*
X172222475Y-87941632D01*
X172384990Y-87698411D01*
X172496932Y-87428158D01*
X172554000Y-87141260D01*
X172554000Y-86848740D01*
X172496932Y-86561842D01*
X172384990Y-86291589D01*
X172222475Y-86048368D01*
X172015632Y-85841525D01*
X171841240Y-85725000D01*
X172015632Y-85608475D01*
X172222475Y-85401632D01*
X172384990Y-85158411D01*
X172496932Y-84888158D01*
X172554000Y-84601260D01*
X172554000Y-84308740D01*
X172496932Y-84021842D01*
X172384990Y-83751589D01*
X172222475Y-83508368D01*
X172015632Y-83301525D01*
X171772411Y-83139010D01*
X171502158Y-83027068D01*
X171215260Y-82970000D01*
X170922740Y-82970000D01*
X170635842Y-83027068D01*
X170365589Y-83139010D01*
X170122368Y-83301525D01*
X169990513Y-83433380D01*
X169968502Y-83360820D01*
X169909537Y-83250506D01*
X169830185Y-83153815D01*
X169733494Y-83074463D01*
X169623180Y-83015498D01*
X169503482Y-82979188D01*
X169379000Y-82966928D01*
X167679000Y-82966928D01*
X167554518Y-82979188D01*
X167434820Y-83015498D01*
X167324506Y-83074463D01*
X167227815Y-83153815D01*
X167148463Y-83250506D01*
X167089498Y-83360820D01*
X167053188Y-83480518D01*
X167040928Y-83605000D01*
X158726221Y-83605000D01*
X158751641Y-83570920D01*
X158876825Y-83308099D01*
X158921476Y-83160890D01*
X158800155Y-82931000D01*
X157607000Y-82931000D01*
X157353000Y-82931000D01*
X155067000Y-82931000D01*
X154813000Y-82931000D01*
X153619845Y-82931000D01*
X153498524Y-83160890D01*
X153060000Y-83160890D01*
X153060000Y-80620890D01*
X153498524Y-80620890D01*
X153543175Y-80768099D01*
X153668359Y-81030920D01*
X153842412Y-81264269D01*
X154058645Y-81459178D01*
X154184255Y-81534000D01*
X154058645Y-81608822D01*
X153842412Y-81803731D01*
X153668359Y-82037080D01*
X153543175Y-82299901D01*
X153498524Y-82447110D01*
X153619845Y-82677000D01*
X154813000Y-82677000D01*
X154813000Y-80391000D01*
X155067000Y-80391000D01*
X155067000Y-82677000D01*
X157353000Y-82677000D01*
X157353000Y-80391000D01*
X157607000Y-80391000D01*
X157607000Y-82677000D01*
X158800155Y-82677000D01*
X158921476Y-82447110D01*
X158876825Y-82299901D01*
X158751641Y-82037080D01*
X158577588Y-81803731D01*
X158361355Y-81608822D01*
X158235745Y-81534000D01*
X158361355Y-81459178D01*
X158577588Y-81264269D01*
X158751641Y-81030920D01*
X158876825Y-80768099D01*
X158921476Y-80620890D01*
X158800155Y-80391000D01*
X157607000Y-80391000D01*
X157353000Y-80391000D01*
X155067000Y-80391000D01*
X154813000Y-80391000D01*
X153619845Y-80391000D01*
X153498524Y-80620890D01*
X153060000Y-80620890D01*
X153060000Y-76874000D01*
X153451928Y-76874000D01*
X153451928Y-78574000D01*
X153464188Y-78698482D01*
X153500498Y-78818180D01*
X153559463Y-78928494D01*
X153638815Y-79025185D01*
X153735506Y-79104537D01*
X153845820Y-79163502D01*
X153926466Y-79187966D01*
X153842412Y-79263731D01*
X153668359Y-79497080D01*
X153543175Y-79759901D01*
X153498524Y-79907110D01*
X153619845Y-80137000D01*
X154813000Y-80137000D01*
X154813000Y-80117000D01*
X155067000Y-80117000D01*
X155067000Y-80137000D01*
X157353000Y-80137000D01*
X157353000Y-80117000D01*
X157607000Y-80117000D01*
X157607000Y-80137000D01*
X158800155Y-80137000D01*
X158921476Y-79907110D01*
X158876825Y-79759901D01*
X158751641Y-79497080D01*
X158577588Y-79263731D01*
X158361355Y-79068822D01*
X158244466Y-78999195D01*
X158426632Y-78877475D01*
X158633475Y-78670632D01*
X158795990Y-78427411D01*
X158907932Y-78157158D01*
X158965000Y-77870260D01*
X158965000Y-77577740D01*
X158907932Y-77290842D01*
X158795990Y-77020589D01*
X158633475Y-76777368D01*
X158480107Y-76624000D01*
X159678928Y-76624000D01*
X159678928Y-78824000D01*
X159691188Y-78948482D01*
X159727498Y-79068180D01*
X159786463Y-79178494D01*
X159865815Y-79275185D01*
X159962506Y-79354537D01*
X160072820Y-79413502D01*
X160192518Y-79449812D01*
X160317000Y-79462072D01*
X162517000Y-79462072D01*
X162641482Y-79449812D01*
X162761180Y-79413502D01*
X162871494Y-79354537D01*
X162968185Y-79275185D01*
X163047537Y-79178494D01*
X163068000Y-79140211D01*
X163088463Y-79178494D01*
X163167815Y-79275185D01*
X163264506Y-79354537D01*
X163374820Y-79413502D01*
X163494518Y-79449812D01*
X163619000Y-79462072D01*
X164433250Y-79459000D01*
X164592000Y-79300250D01*
X164592000Y-77851000D01*
X164846000Y-77851000D01*
X164846000Y-79300250D01*
X165004750Y-79459000D01*
X165819000Y-79462072D01*
X165943482Y-79449812D01*
X166063180Y-79413502D01*
X166173494Y-79354537D01*
X166270185Y-79275185D01*
X166349537Y-79178494D01*
X166408502Y-79068180D01*
X166444812Y-78948482D01*
X166457072Y-78824000D01*
X166454000Y-78009750D01*
X166295250Y-77851000D01*
X164846000Y-77851000D01*
X164592000Y-77851000D01*
X164572000Y-77851000D01*
X164572000Y-77597000D01*
X164592000Y-77597000D01*
X164592000Y-76147750D01*
X164846000Y-76147750D01*
X164846000Y-77597000D01*
X166295250Y-77597000D01*
X166454000Y-77438250D01*
X166457072Y-76624000D01*
X166444812Y-76499518D01*
X166408502Y-76379820D01*
X166349537Y-76269506D01*
X166270185Y-76172815D01*
X166173494Y-76093463D01*
X166063180Y-76034498D01*
X165943482Y-75998188D01*
X165819000Y-75985928D01*
X165004750Y-75989000D01*
X164846000Y-76147750D01*
X164592000Y-76147750D01*
X164433250Y-75989000D01*
X163619000Y-75985928D01*
X163494518Y-75998188D01*
X163374820Y-76034498D01*
X163264506Y-76093463D01*
X163167815Y-76172815D01*
X163088463Y-76269506D01*
X163068000Y-76307789D01*
X163047537Y-76269506D01*
X162968185Y-76172815D01*
X162871494Y-76093463D01*
X162761180Y-76034498D01*
X162641482Y-75998188D01*
X162517000Y-75985928D01*
X160317000Y-75985928D01*
X160192518Y-75998188D01*
X160072820Y-76034498D01*
X159962506Y-76093463D01*
X159865815Y-76172815D01*
X159786463Y-76269506D01*
X159727498Y-76379820D01*
X159691188Y-76499518D01*
X159678928Y-76624000D01*
X158480107Y-76624000D01*
X158426632Y-76570525D01*
X158183411Y-76408010D01*
X157913158Y-76296068D01*
X157626260Y-76239000D01*
X157333740Y-76239000D01*
X157046842Y-76296068D01*
X156776589Y-76408010D01*
X156533368Y-76570525D01*
X156401513Y-76702380D01*
X156379502Y-76629820D01*
X156320537Y-76519506D01*
X156241185Y-76422815D01*
X156144494Y-76343463D01*
X156034180Y-76284498D01*
X155914482Y-76248188D01*
X155790000Y-76235928D01*
X154090000Y-76235928D01*
X153965518Y-76248188D01*
X153845820Y-76284498D01*
X153735506Y-76343463D01*
X153638815Y-76422815D01*
X153559463Y-76519506D01*
X153500498Y-76629820D01*
X153464188Y-76749518D01*
X153451928Y-76874000D01*
X153060000Y-76874000D01*
X153060000Y-64528061D01*
X172180000Y-64528061D01*
X172180000Y-64731939D01*
X172219774Y-64931898D01*
X172297795Y-65120256D01*
X172411063Y-65289774D01*
X172455000Y-65333711D01*
X172455001Y-67767658D01*
X172455000Y-67767668D01*
X172455001Y-75768668D01*
X172451324Y-75806000D01*
X172465998Y-75954985D01*
X172509454Y-76098246D01*
X172580026Y-76230276D01*
X172634021Y-76296068D01*
X172675000Y-76346001D01*
X172703998Y-76369799D01*
X174860000Y-78525802D01*
X174860000Y-78587939D01*
X174899774Y-78787898D01*
X174977795Y-78976256D01*
X175091063Y-79145774D01*
X175235226Y-79289937D01*
X175404744Y-79403205D01*
X175593102Y-79481226D01*
X175793061Y-79521000D01*
X175996939Y-79521000D01*
X176196898Y-79481226D01*
X176385256Y-79403205D01*
X176554774Y-79289937D01*
X176698937Y-79145774D01*
X176812205Y-78976256D01*
X176890226Y-78787898D01*
X176930000Y-78587939D01*
X176930000Y-78384061D01*
X176890226Y-78184102D01*
X176812205Y-77995744D01*
X176698937Y-77826226D01*
X176554774Y-77682063D01*
X176385256Y-77568795D01*
X176285314Y-77527397D01*
X176317937Y-77494774D01*
X176431205Y-77325256D01*
X176509226Y-77136898D01*
X176549000Y-76936939D01*
X176549000Y-76733061D01*
X176509226Y-76533102D01*
X176431205Y-76344744D01*
X176317937Y-76175226D01*
X176173774Y-76031063D01*
X176004256Y-75917795D01*
X175815898Y-75839774D01*
X175615939Y-75800000D01*
X175553802Y-75800000D01*
X175131000Y-75377199D01*
X175131000Y-65346711D01*
X175174937Y-65302774D01*
X175288205Y-65133256D01*
X175366226Y-64944898D01*
X175406000Y-64744939D01*
X175406000Y-64541061D01*
X175366226Y-64341102D01*
X175288205Y-64152744D01*
X175174937Y-63983226D01*
X175030774Y-63839063D01*
X174861256Y-63725795D01*
X174672898Y-63647774D01*
X174472939Y-63608000D01*
X174269061Y-63608000D01*
X174069102Y-63647774D01*
X173880744Y-63725795D01*
X173802728Y-63777924D01*
X173705256Y-63712795D01*
X173516898Y-63634774D01*
X173316939Y-63595000D01*
X173113061Y-63595000D01*
X172913102Y-63634774D01*
X172724744Y-63712795D01*
X172555226Y-63826063D01*
X172411063Y-63970226D01*
X172297795Y-64139744D01*
X172219774Y-64328102D01*
X172180000Y-64528061D01*
X153060000Y-64528061D01*
X153060000Y-58473008D01*
X153061930Y-58471078D01*
X153150423Y-58729323D01*
X153429776Y-58864197D01*
X153730075Y-58941981D01*
X154039777Y-58959684D01*
X154346984Y-58916627D01*
X154639886Y-58814465D01*
X154799177Y-58729323D01*
X154887671Y-58471076D01*
X153974800Y-57558205D01*
X153960658Y-57572348D01*
X153781053Y-57392743D01*
X153795195Y-57378600D01*
X154154405Y-57378600D01*
X155067276Y-58291471D01*
X155325523Y-58202977D01*
X155460397Y-57923624D01*
X155538181Y-57623325D01*
X155555884Y-57313623D01*
X155543253Y-57223496D01*
X158902400Y-57223496D01*
X158902400Y-57533704D01*
X158962918Y-57837952D01*
X159081630Y-58124548D01*
X159253973Y-58382477D01*
X159473323Y-58601827D01*
X159731252Y-58774170D01*
X160017848Y-58892882D01*
X160322096Y-58953400D01*
X160632304Y-58953400D01*
X160936552Y-58892882D01*
X161223148Y-58774170D01*
X161481077Y-58601827D01*
X161700427Y-58382477D01*
X161872770Y-58124548D01*
X161991482Y-57837952D01*
X162052000Y-57533704D01*
X162052000Y-57223496D01*
X161991482Y-56919248D01*
X161872770Y-56632652D01*
X161700427Y-56374723D01*
X161481077Y-56155373D01*
X161223148Y-55983030D01*
X160936552Y-55864318D01*
X160632304Y-55803800D01*
X160322096Y-55803800D01*
X160017848Y-55864318D01*
X159731252Y-55983030D01*
X159473323Y-56155373D01*
X159253973Y-56374723D01*
X159081630Y-56632652D01*
X158962918Y-56919248D01*
X158902400Y-57223496D01*
X155543253Y-57223496D01*
X155512827Y-57006416D01*
X155410665Y-56713514D01*
X155325523Y-56554223D01*
X155067276Y-56465729D01*
X154154405Y-57378600D01*
X153795195Y-57378600D01*
X153781053Y-57364458D01*
X153960658Y-57184853D01*
X153974800Y-57198995D01*
X154887671Y-56286124D01*
X154799177Y-56027877D01*
X154519824Y-55893003D01*
X154219525Y-55815219D01*
X153909823Y-55797516D01*
X153602616Y-55840573D01*
X153309714Y-55942735D01*
X153150423Y-56027877D01*
X153061930Y-56286122D01*
X153060000Y-56284192D01*
X153060000Y-55180884D01*
X162457325Y-55180884D01*
X162513176Y-55432185D01*
X162616981Y-55667761D01*
X162764750Y-55878559D01*
X162950804Y-56056478D01*
X163167993Y-56194681D01*
X163407971Y-56287857D01*
X163431600Y-56290910D01*
X163634000Y-56167224D01*
X163634000Y-54975000D01*
X163888000Y-54975000D01*
X163888000Y-56167224D01*
X164090400Y-56290910D01*
X164114029Y-56287857D01*
X164354007Y-56194681D01*
X164571196Y-56056478D01*
X164757250Y-55878559D01*
X164905019Y-55667761D01*
X165008824Y-55432185D01*
X165064675Y-55180884D01*
X167917325Y-55180884D01*
X167973176Y-55432185D01*
X168076981Y-55667761D01*
X168224750Y-55878559D01*
X168410804Y-56056478D01*
X168627993Y-56194681D01*
X168867971Y-56287857D01*
X168891600Y-56290910D01*
X169094000Y-56167224D01*
X169094000Y-54975000D01*
X169348000Y-54975000D01*
X169348000Y-56167224D01*
X169550400Y-56290910D01*
X169574029Y-56287857D01*
X169814007Y-56194681D01*
X170031196Y-56056478D01*
X170217250Y-55878559D01*
X170365019Y-55667761D01*
X170468824Y-55432185D01*
X170524675Y-55180884D01*
X170374573Y-54975000D01*
X169348000Y-54975000D01*
X169094000Y-54975000D01*
X168067427Y-54975000D01*
X167917325Y-55180884D01*
X165064675Y-55180884D01*
X164914573Y-54975000D01*
X163888000Y-54975000D01*
X163634000Y-54975000D01*
X162607427Y-54975000D01*
X162457325Y-55180884D01*
X153060000Y-55180884D01*
X153060000Y-54515116D01*
X162457325Y-54515116D01*
X162607427Y-54721000D01*
X163634000Y-54721000D01*
X163634000Y-53528776D01*
X163888000Y-53528776D01*
X163888000Y-54721000D01*
X164914573Y-54721000D01*
X165064675Y-54515116D01*
X167917325Y-54515116D01*
X168067427Y-54721000D01*
X169094000Y-54721000D01*
X169094000Y-53528776D01*
X169348000Y-53528776D01*
X169348000Y-54721000D01*
X170374573Y-54721000D01*
X170524675Y-54515116D01*
X170468824Y-54263815D01*
X170365019Y-54028239D01*
X170217250Y-53817441D01*
X170031196Y-53639522D01*
X169814007Y-53501319D01*
X169574029Y-53408143D01*
X169550400Y-53405090D01*
X169348000Y-53528776D01*
X169094000Y-53528776D01*
X168891600Y-53405090D01*
X168867971Y-53408143D01*
X168627993Y-53501319D01*
X168410804Y-53639522D01*
X168224750Y-53817441D01*
X168076981Y-54028239D01*
X167973176Y-54263815D01*
X167917325Y-54515116D01*
X165064675Y-54515116D01*
X165008824Y-54263815D01*
X164905019Y-54028239D01*
X164757250Y-53817441D01*
X164571196Y-53639522D01*
X164354007Y-53501319D01*
X164114029Y-53408143D01*
X164090400Y-53405090D01*
X163888000Y-53528776D01*
X163634000Y-53528776D01*
X163431600Y-53405090D01*
X163407971Y-53408143D01*
X163167993Y-53501319D01*
X162950804Y-53639522D01*
X162764750Y-53817441D01*
X162616981Y-54028239D01*
X162513176Y-54263815D01*
X162457325Y-54515116D01*
X153060000Y-54515116D01*
X153060000Y-54140146D01*
X153228852Y-54252970D01*
X153515448Y-54371682D01*
X153819696Y-54432200D01*
X154129904Y-54432200D01*
X154434152Y-54371682D01*
X154720748Y-54252970D01*
X154978677Y-54080627D01*
X155198027Y-53861277D01*
X155370370Y-53603348D01*
X155489082Y-53316752D01*
X155549600Y-53012504D01*
X155549600Y-52702296D01*
X155489082Y-52398048D01*
X155370370Y-52111452D01*
X155198027Y-51853523D01*
X154978677Y-51634173D01*
X154720748Y-51461830D01*
X154716330Y-51460000D01*
X159735670Y-51460000D01*
X159731252Y-51461830D01*
G37*
%TD.AperFunction*%
%TD*%
M02*
