M48
; DRILL file {KiCad (5.1.9)-1} date 05/12/21 23:24:39
; FORMAT={-:-/ absolute / inch / decimal}
; #@! TF.CreationDate,2021-05-12T23:24:39-04:00
; #@! TF.GenerationSoftware,Kicad,Pcbnew,(5.1.9)-1
; #@! TF.FileFunction,Plated,1,2,PTH
FMAT,2
INCH
T1C0.0157
T2C0.0256
T3C0.0276
T4C0.0315
T5C0.0394
T6C0.0400
T7C0.0433
T8C0.0480
T9C0.0559
T10C0.0563
%
G90
G05
T1
X6.04Y-3.7
X6.04Y-4.285
X6.04Y-4.865
X6.04Y-5.48
X6.31Y-2.595
X6.325Y-2.505
X6.36Y-2.67
X6.4111Y-3.2039
X6.415Y-2.97
X6.4226Y-2.7826
X6.4456Y-2.9394
X6.45Y-2.19
X6.4545Y-2.37
X6.455Y-3.775
X6.46Y-4.38
X6.525Y-3.21
X6.557Y-2.778
X6.57Y-2.62
X6.575Y-2.295
X6.59Y-3.375
X6.595Y-3.21
X6.62Y-2.08
X6.625Y-2.22
X6.63Y-2.145
X6.65Y-2.56
X6.6593Y-2.6157
X6.67Y-3.125
X6.675Y-2.075
X6.685Y-3.045
X6.71Y-2.215
X6.71Y-2.765
X6.76Y-2.705
X6.7805Y-3.3505
X6.785Y-2.05
X6.79Y-3.065
X6.79Y-3.25
X6.795Y-2.1426
X6.795Y-2.28
X6.81Y-2.735
X6.83Y-3.11
X6.835Y-2.65
X6.845Y-2.77
X6.8625Y-2.5725
X6.865Y-3.03
X6.87Y-1.8362
X6.87Y-2.05
X6.88Y-2.815
X6.905Y-3.43
X6.91Y-2.25
X6.915Y-2.515
X6.9218Y-2.9282
X6.95Y-1.9148
X6.96Y-3.095
X7.04Y-2.705
X7.045Y-2.85
X7.065Y-2.485
X7.105Y-3.43
X7.135Y-2.975
X7.155Y-2.705
X7.16Y-2.85
T4
X6.305Y-5.45
X6.305Y-5.75
X6.31Y-3.71
X6.31Y-4.01
X6.31Y-4.29
X6.31Y-4.59
X6.31Y-4.87
X6.31Y-5.17
T5
X6.085Y-2.525
X6.085Y-2.625
X6.085Y-2.725
X6.1Y-3.06
X6.1Y-3.16
X6.1Y-3.26
X6.1Y-3.36
X6.1Y-3.46
X6.185Y-2.525
X6.185Y-2.625
X6.185Y-2.725
X6.2Y-3.06
X6.2Y-3.16
X6.2Y-3.26
X6.2Y-3.36
X6.2Y-3.46
T6
X6.054Y-1.87
X6.054Y-2.048
X6.31Y-1.87
X6.31Y-2.048
T7
X6.355Y-3.06
X6.355Y-3.46
X6.485Y-3.06
X6.485Y-3.46
T8
X6.2Y-3.71
X6.2Y-4.29
X6.2Y-4.8712
X6.2Y-5.45
X6.6Y-3.71
X6.6Y-4.29
X6.6Y-4.8712
X6.6Y-5.45
X7.0Y-3.71
X7.0Y-4.29
X7.0Y-4.87
X7.0Y-5.45
T9
X6.2Y-3.832
X6.2Y-4.412
X6.2Y-4.9932
X6.2Y-5.572
X6.6Y-3.832
X6.6Y-4.412
X6.6Y-4.9932
X6.6Y-5.572
X7.0Y-3.832
X7.0Y-4.412
X7.0Y-4.992
X7.0Y-5.572
T10
X6.2Y-4.1588
X6.2Y-4.7388
X6.2Y-5.32
X6.2Y-5.8988
X6.6Y-4.1588
X6.6Y-4.7388
X6.6Y-5.32
X6.6Y-5.8988
X7.0Y-4.1588
X7.0Y-4.7388
X7.0Y-5.3188
X7.0Y-5.8988
T2
G00X6.4525Y-2.0159
M15
G01X6.4525Y-2.0316
M16
G05
G00X6.6431Y-2.0159
M15
G01X6.6431Y-2.0316
M16
G05
T3
G00X6.4403Y-1.8958
M15
G01X6.4403Y-1.9155
M16
G05
G00X6.6553Y-1.8958
M15
G01X6.6553Y-1.9155
M16
G05
T0
M30
